<svg width="25" height="24" viewBox="0 0 25 24" fill="none" xmlns="http://www.w3.org/2000/svg">
<mask id="path-1-outside-1_16252_12893" maskUnits="userSpaceOnUse" x="1.44141" y="1.25" width="23" height="21" fill="black">
<rect fill="white" x="1.44141" y="1.25" width="23" height="21"/>
<path fill-rule="evenodd" clip-rule="evenodd" d="M3.94141 9.75C3.11298 9.75 2.44141 10.4216 2.44141 11.25V20.25C2.44141 21.0784 3.11298 21.75 3.94141 21.75H21.9414C22.7698 21.75 23.4414 21.0784 23.4414 20.25V11.25C23.4414 10.4216 22.7698 9.75 21.9414 9.75H3.94141Z"/>
<path d="M15.1914 4.5C15.1914 5.74264 14.184 6.75 12.9414 6.75C11.6988 6.75 10.6914 5.74264 10.6914 4.5C10.6914 3.25736 11.6988 2.25 12.9414 2.25C14.184 2.25 15.1914 3.25736 15.1914 4.5Z"/>
<path fill-rule="evenodd" clip-rule="evenodd" d="M12.9414 5.25C13.3556 5.25 13.6914 4.91421 13.6914 4.5C13.6914 4.08579 13.3556 3.75 12.9414 3.75C12.5272 3.75 12.1914 4.08579 12.1914 4.5C12.1914 4.91421 12.5272 5.25 12.9414 5.25ZM12.9414 6.75C14.184 6.75 15.1914 5.74264 15.1914 4.5C15.1914 3.25736 14.184 2.25 12.9414 2.25C11.6988 2.25 10.6914 3.25736 10.6914 4.5C10.6914 5.74264 11.6988 6.75 12.9414 6.75Z"/>
<path fill-rule="evenodd" clip-rule="evenodd" d="M5.63394 9.99828L11.0339 3.99828L12.1489 5.00172L6.74888 11.0017L5.63394 9.99828ZM14.8489 3.99828L20.2489 9.99828L19.1339 11.0017L13.7339 5.00172L14.8489 3.99828Z"/>
</mask>
<path fill-rule="evenodd" clip-rule="evenodd" d="M3.94141 9.75C3.11298 9.75 2.44141 10.4216 2.44141 11.25V20.25C2.44141 21.0784 3.11298 21.75 3.94141 21.75H21.9414C22.7698 21.75 23.4414 21.0784 23.4414 20.25V11.25C23.4414 10.4216 22.7698 9.75 21.9414 9.75H3.94141Z" fill="#262626"/>
<path d="M15.1914 4.5C15.1914 5.74264 14.184 6.75 12.9414 6.75C11.6988 6.75 10.6914 5.74264 10.6914 4.5C10.6914 3.25736 11.6988 2.25 12.9414 2.25C14.184 2.25 15.1914 3.25736 15.1914 4.5Z" fill="#262626"/>
<path fill-rule="evenodd" clip-rule="evenodd" d="M12.9414 5.25C13.3556 5.25 13.6914 4.91421 13.6914 4.5C13.6914 4.08579 13.3556 3.75 12.9414 3.75C12.5272 3.75 12.1914 4.08579 12.1914 4.5C12.1914 4.91421 12.5272 5.25 12.9414 5.25ZM12.9414 6.75C14.184 6.75 15.1914 5.74264 15.1914 4.5C15.1914 3.25736 14.184 2.25 12.9414 2.25C11.6988 2.25 10.6914 3.25736 10.6914 4.5C10.6914 5.74264 11.6988 6.75 12.9414 6.75Z" fill="#262626"/>
<path fill-rule="evenodd" clip-rule="evenodd" d="M5.63394 9.99828L11.0339 3.99828L12.1489 5.00172L6.74888 11.0017L5.63394 9.99828ZM14.8489 3.99828L20.2489 9.99828L19.1339 11.0017L13.7339 5.00172L14.8489 3.99828Z" fill="#262626"/>
<path d="M15.1164 4.5C15.1164 5.70122 14.1426 6.675 12.9414 6.675V6.825C14.2255 6.825 15.2664 5.78406 15.2664 4.5H15.1164ZM12.9414 6.675C11.7402 6.675 10.7664 5.70122 10.7664 4.5H10.6164C10.6164 5.78406 11.6573 6.825 12.9414 6.825V6.675ZM10.7664 4.5C10.7664 3.29878 11.7402 2.325 12.9414 2.325V2.175C11.6573 2.175 10.6164 3.21594 10.6164 4.5H10.7664ZM12.9414 2.325C14.1426 2.325 15.1164 3.29878 15.1164 4.5H15.2664C15.2664 3.21594 14.2255 2.175 12.9414 2.175V2.325ZM7.69141 13.575H18.1914V13.425H7.69141V13.575ZM18.1914 14.925H7.69141V15.075H18.1914V14.925ZM7.69141 16.575H11.4414V16.425H7.69141V16.575ZM11.4414 17.925H7.69141V18.075H11.4414V17.925ZM7.69141 17.925C7.31861 17.925 7.01641 17.6228 7.01641 17.25H6.86641C6.86641 17.7056 7.23577 18.075 7.69141 18.075V17.925ZM12.1164 17.25C12.1164 17.6228 11.8142 17.925 11.4414 17.925V18.075C11.897 18.075 12.2664 17.7056 12.2664 17.25H12.1164ZM11.4414 16.575C11.8142 16.575 12.1164 16.8772 12.1164 17.25H12.2664C12.2664 16.7944 11.897 16.425 11.4414 16.425V16.575ZM7.69141 16.425C7.23577 16.425 6.86641 16.7944 6.86641 17.25H7.01641C7.01641 16.8772 7.31861 16.575 7.69141 16.575V16.425ZM7.69141 14.925C7.31861 14.925 7.01641 14.6228 7.01641 14.25H6.86641C6.86641 14.7056 7.23577 15.075 7.69141 15.075V14.925ZM18.8664 14.25C18.8664 14.6228 18.5642 14.925 18.1914 14.925V15.075C18.647 15.075 19.0164 14.7056 19.0164 14.25H18.8664ZM18.1914 13.575C18.5642 13.575 18.8664 13.8772 18.8664 14.25H19.0164C19.0164 13.7944 18.647 13.425 18.1914 13.425V13.575ZM7.69141 13.425C7.23577 13.425 6.86641 13.7944 6.86641 14.25H7.01641C7.01641 13.8772 7.31861 13.575 7.69141 13.575V13.425ZM11.0339 3.99828L11.1343 3.88678L11.0228 3.78644L10.9224 3.89793L11.0339 3.99828ZM5.63394 9.99828L5.52244 9.89793L5.4221 10.0094L5.53359 10.1098L5.63394 9.99828ZM12.1489 5.00172L12.2604 5.10207L12.3607 4.99057L12.2492 4.89023L12.1489 5.00172ZM6.74888 11.0017L6.64853 11.1132L6.76003 11.2136L6.86037 11.1021L6.74888 11.0017ZM20.2489 9.99828L20.3492 10.1098L20.4607 10.0094L20.3604 9.89793L20.2489 9.99828ZM14.8489 3.99828L14.9604 3.89793L14.86 3.78644L14.7485 3.88678L14.8489 3.99828ZM19.1339 11.0017L19.0224 11.1021L19.1228 11.2136L19.2343 11.1132L19.1339 11.0017ZM13.7339 5.00172L13.6336 4.89023L13.5221 4.99057L13.6224 5.10207L13.7339 5.00172ZM2.59141 11.25C2.59141 10.5044 3.19582 9.9 3.94141 9.9V9.6C3.03014 9.6 2.29141 10.3387 2.29141 11.25H2.59141ZM2.59141 20.25V11.25H2.29141V20.25H2.59141ZM3.94141 21.6C3.19582 21.6 2.59141 20.9956 2.59141 20.25H2.29141C2.29141 21.1613 3.03014 21.9 3.94141 21.9V21.6ZM21.9414 21.6H3.94141V21.9H21.9414V21.6ZM23.2914 20.25C23.2914 20.9956 22.687 21.6 21.9414 21.6V21.9C22.8527 21.9 23.5914 21.1613 23.5914 20.25H23.2914ZM23.2914 11.25V20.25H23.5914V11.25H23.2914ZM21.9414 9.9C22.687 9.9 23.2914 10.5044 23.2914 11.25H23.5914C23.5914 10.3387 22.8527 9.6 21.9414 9.6V9.9ZM3.94141 9.9H21.9414V9.6H3.94141V9.9ZM13.5414 4.5C13.5414 4.83137 13.2728 5.1 12.9414 5.1V5.4C13.4385 5.4 13.8414 4.99706 13.8414 4.5H13.5414ZM12.9414 3.9C13.2728 3.9 13.5414 4.16863 13.5414 4.5H13.8414C13.8414 4.00294 13.4385 3.6 12.9414 3.6V3.9ZM12.3414 4.5C12.3414 4.16863 12.61 3.9 12.9414 3.9V3.6C12.4444 3.6 12.0414 4.00294 12.0414 4.5H12.3414ZM12.9414 5.1C12.61 5.1 12.3414 4.83137 12.3414 4.5H12.0414C12.0414 4.99706 12.4444 5.4 12.9414 5.4V5.1ZM10.9224 3.89793L5.52244 9.89793L5.74543 10.0986L11.1454 4.09862L10.9224 3.89793ZM12.2492 4.89023L11.1343 3.88678L10.9336 4.10977L12.0485 5.11322L12.2492 4.89023ZM6.86037 11.1021L12.2604 5.10207L12.0374 4.90138L6.63738 10.9014L6.86037 11.1021ZM5.53359 10.1098L6.64853 11.1132L6.84922 10.8902L5.73428 9.88678L5.53359 10.1098ZM20.3604 9.89793L14.9604 3.89793L14.7374 4.09862L20.1374 10.0986L20.3604 9.89793ZM19.2343 11.1132L20.3492 10.1098L20.1485 9.88678L19.0336 10.8902L19.2343 11.1132ZM13.6224 5.10207L19.0224 11.1021L19.2454 10.9014L13.8454 4.90138L13.6224 5.10207ZM14.7485 3.88678L13.6336 4.89023L13.8343 5.11322L14.9492 4.10977L14.7485 3.88678Z" fill="#262626" mask="url(#path-1-outside-1_16252_12893)"/>
<path d="M7.69141 13.425C7.23577 13.425 6.86641 13.7944 6.86641 14.25C6.86641 14.7056 7.23577 15.075 7.69141 15.075H18.1914C18.647 15.075 19.0164 14.7056 19.0164 14.25C19.0164 13.7944 18.647 13.425 18.1914 13.425H7.69141ZM7.69141 16.425C7.23577 16.425 6.86641 16.7944 6.86641 17.25C6.86641 17.7056 7.23577 18.075 7.69141 18.075H11.4414C11.897 18.075 12.2664 17.7056 12.2664 17.25C12.2664 16.7944 11.897 16.425 11.4414 16.425H7.69141Z" fill="white" stroke="#262626" stroke-width="0.15"/>
</svg>
