<svg width="24" height="24" viewBox="0 0 24 24" fill="none" xmlns="http://www.w3.org/2000/svg">
<path d="M10.5 4.5H6V6H10.5V4.5Z" fill="#262626"/>
<path fill-rule="evenodd" clip-rule="evenodd" d="M1.5 21C1.5 21.8284 2.17157 22.5 3 22.5H13.5C14.3284 22.5 15 21.8284 15 21V3C15 2.17157 14.3284 1.5 13.5 1.5H3C2.17157 1.5 1.5 2.17157 1.5 3V21ZM13.5 3H3L3 18H13.5V3ZM13.5 21V19.5H3V21H13.5Z" fill="#262626"/>
<path d="M20.9999 12C20.9999 14.1031 20.2786 16.0377 19.0698 17.5699L20.1368 18.6369C21.614 16.828 22.4999 14.5175 22.4999 12C22.4999 9.4825 21.614 7.17195 20.1368 5.36311L19.0698 6.43011C20.2786 7.96231 20.9999 9.89691 20.9999 12Z" fill="#262626"/>
<path d="M19.5 12C19.5 10.3114 18.942 8.75318 18.0003 7.49963L16.9262 8.57373C17.6031 9.54515 18 10.7262 18 12C18 13.2738 17.6031 14.4548 16.9262 15.4263L18.0003 16.5004C18.942 15.2468 19.5 13.6886 19.5 12Z" fill="#262626"/>
</svg>
