<svg width="25" height="24" viewBox="0 0 25 24" fill="none" xmlns="http://www.w3.org/2000/svg">
<path d="M20.6562 12C20.6562 14.2626 19.7574 16.4326 18.1575 18.0325C16.5576 19.6324 14.3876 20.5312 12.125 20.5312C9.86237 20.5312 7.69242 19.6324 6.0925 18.0325C4.49258 16.4326 3.59375 14.2626 3.59375 12C3.59375 9.73737 4.49258 7.56742 6.0925 5.9675C7.69242 4.36758 9.86237 3.46875 12.125 3.46875C14.3876 3.46875 16.5576 4.36758 18.1575 5.9675C19.7574 7.56742 20.6562 9.73737 20.6562 12ZM1.625 12C1.625 14.7848 2.73125 17.4555 4.70038 19.4246C6.66951 21.3938 9.34023 22.5 12.125 22.5C14.9098 22.5 17.5805 21.3938 19.5496 19.4246C21.5188 17.4555 22.625 14.7848 22.625 12C22.625 9.21523 21.5188 6.54451 19.5496 4.57538C17.5805 2.60625 14.9098 1.5 12.125 1.5C9.34023 1.5 6.66951 2.60625 4.70038 4.57538C2.73125 6.54451 1.625 9.21523 1.625 12ZM11.1406 6.42188V12C11.1406 12.3281 11.3047 12.6357 11.5795 12.8203L15.517 15.4453C15.9682 15.7488 16.5793 15.6258 16.8828 15.1705C17.1863 14.7152 17.0633 14.1082 16.608 13.8047L13.1094 11.475V6.42188C13.1094 5.87637 12.6705 5.4375 12.125 5.4375C11.5795 5.4375 11.1406 5.87637 11.1406 6.42188Z" fill="#262626"/>
</svg>
