<svg width="25" height="24" viewBox="0 0 25 24" fill="none" xmlns="http://www.w3.org/2000/svg">
<path d="M13.6435 22.0281C15.753 19.3881 20.5643 12.9895 20.5643 9.39543C20.5643 5.0365 17.0278 1.5 12.6689 1.5C8.30993 1.5 4.77344 5.0365 4.77344 9.39543C4.77344 12.9895 9.58472 19.3881 11.6943 22.0281C12.2001 22.6573 13.1377 22.6573 13.6435 22.0281ZM12.6689 6.76362C13.3669 6.76362 14.0363 7.0409 14.5298 7.53446C15.0234 8.02802 15.3007 8.69743 15.3007 9.39543C15.3007 10.0934 15.0234 10.7628 14.5298 11.2564C14.0363 11.75 13.3669 12.0272 12.6689 12.0272C11.9709 12.0272 11.3015 11.75 10.8079 11.2564C10.3143 10.7628 10.0371 10.0934 10.0371 9.39543C10.0371 8.69743 10.3143 8.02802 10.8079 7.53446C11.3015 7.0409 11.9709 6.76362 12.6689 6.76362Z" fill="#262626"/>
</svg>
