<svg width="25" height="24" viewBox="0 0 25 24" fill="none" xmlns="http://www.w3.org/2000/svg">
<path d="M22.4031 12.819C22.6234 12.6081 22.75 12.3128 22.75 12.0034C22.75 11.694 22.6234 11.4034 22.4031 11.1878L14.1531 3.31279C13.7031 2.88154 12.9906 2.90029 12.5641 3.35029C12.1375 3.80029 12.1516 4.51279 12.6016 4.93935L18.8172 10.8784H2.875C2.25156 10.8784 1.75 11.38 1.75 12.0034C1.75 12.6269 2.25156 13.1284 2.875 13.1284H18.8172L12.5969 19.0628C12.1469 19.494 12.1328 20.2019 12.5594 20.6519C12.9859 21.1019 13.6984 21.1159 14.1484 20.6894L22.3984 12.8143L22.4031 12.819Z" fill="#262626"/>
</svg>
