<svg width="24" height="24" viewBox="0 0 24 24" fill="none" xmlns="http://www.w3.org/2000/svg">
<rect x="1.5" y="15.7284" width="21" height="3.94286" fill="#0872B9"/>
<rect x="1.5" y="4.5" width="21" height="3.94286" fill="#0872B9"/>
<rect x="1.5" y="8.78577" width="21" height="6.64286" fill="#0872B9"/>
<path d="M21.2574 5.87158H19.5002L19.6288 6.08586H21.3859L21.9859 6.47158C21.9859 6.47158 22.1145 6.60015 22.0288 6.68586L21.3431 7.20015H18.0002L17.7431 6.85729V7.80015H13.5859V5.95729H16.6288V6.90015H14.8717V7.243H16.9288H17.0145V6.00015H18.1717L18.8574 6.68586H20.8288V6.343H18.8574L17.9145 5.40015H20.9574L21.2574 5.87158Z" fill="white"/>
<rect x="18.2998" y="7.45728" width="0.428572" height="0.385715" fill="white"/>
<rect x="19.3291" y="7.45728" width="0.428574" height="0.385715" fill="white"/>
<rect x="4.02832" y="5.61426" width="0.600001" height="0.557143" fill="white"/>
<rect x="4.7998" y="5.61426" width="0.6" height="0.557143" fill="white"/>
<rect x="9.72852" y="5.61426" width="0.6" height="0.557143" fill="white"/>
<rect x="11.0576" y="6.51428" width="1.54286" height="0.557143" fill="white"/>
<path d="M9.42871 6.30015H10.5001V7.543H2.52871L1.92871 6.77158L2.95728 5.40015H3.77157L3.17157 6.77158H8.443V6.343H9.17157V6.77158H9.42871V6.30015Z" fill="white"/>
<path d="M6.17182 18.9H5.48611V17.7428C5.48611 17.4857 5.48611 17.3571 5.44325 17.2714C5.40039 17.1857 5.35753 17.1428 5.31468 17.1C5.27182 17.0571 5.18611 17.0571 5.10039 17.0571C4.97182 17.0571 4.88611 17.1 4.80039 17.1428C4.71468 17.1857 4.62896 17.2714 4.62896 17.3571C4.58611 17.4428 4.54325 17.6143 4.54325 17.8714V18.9H3.90039V16.6286H4.50039V16.9714C4.71468 16.7143 5.01468 16.5857 5.31468 16.5857C5.44325 16.5857 5.57182 16.6286 5.70039 16.6714C5.82896 16.7143 5.91468 16.8 5.95753 16.8428C6.00039 16.9286 6.04325 17.0143 6.08611 17.1C6.12896 17.1857 6.12896 17.3143 6.12896 17.4857V18.9H6.17182Z" fill="white"/>
<path fill-rule="evenodd" clip-rule="evenodd" d="M12.9863 18.2571L12.3434 18.1714C12.3006 18.3 12.2577 18.3857 12.2148 18.4285C12.1291 18.4714 12.0434 18.5143 11.9577 18.5143C11.7863 18.5143 11.6577 18.4714 11.572 18.3857C11.4434 18.2571 11.4006 18.1285 11.4006 17.9571H13.0291C13.0291 17.4857 12.9434 17.1428 12.7291 16.9286C12.5148 16.7143 12.2577 16.5857 11.872 16.5857C11.5291 16.5857 11.272 16.6714 11.0577 16.8857C10.8434 17.1 10.7148 17.4 10.7148 17.7857C10.7148 18.0857 10.8006 18.3428 10.972 18.5571C11.1434 18.8143 11.4863 18.9428 11.9148 18.9428C12.172 18.9428 12.4291 18.9 12.6006 18.7714C12.772 18.6428 12.9006 18.4714 12.9863 18.2571ZM12.2577 17.1856C12.3434 17.2713 12.3863 17.3999 12.3863 17.5713H11.4434C11.4434 17.3999 11.4863 17.2713 11.572 17.1856C11.6577 17.0999 11.7863 17.057 11.9149 17.057C12.0434 17.057 12.172 17.0999 12.2577 17.1856Z" fill="white"/>
<path d="M20.0578 16.6286V17.1H19.6293V18C19.6293 18.1715 19.6293 18.3 19.6293 18.3429C19.6293 18.3857 19.6721 18.3857 19.6721 18.4286C19.715 18.4286 19.7578 18.4714 19.8007 18.4714C19.8436 18.4714 19.9293 18.4714 20.0578 18.4286L20.1007 18.9C19.9293 18.9429 19.7578 18.9857 19.5864 18.9857C19.4578 18.9857 19.3721 18.9857 19.2864 18.9429C19.2007 18.9 19.115 18.8572 19.0721 18.8143C19.0293 18.7714 18.9864 18.6857 18.9864 18.6C18.9864 18.5143 18.9436 18.3857 18.9436 18.1714V17.1857H18.6436V16.7143H18.9436V16.2429L19.5864 15.9V16.7143H20.0578V16.6286Z" fill="white"/>
<rect x="4.32812" y="9.29993" width="4.97143" height="5.31428" fill="#FBED1F"/>
<path d="M9.12793 11.6571L12.8136 9.34277H19.3708L15.7708 11.6571L19.6708 14.5285H12.6422L9.21364 11.8713L9.12793 11.6571Z" fill="#FBED1F"/>
</svg>
