<svg width="24" height="24" viewBox="0 0 24 24" fill="none" xmlns="http://www.w3.org/2000/svg">
<path d="M17.1306 1.79283L21.2011 5.8596C21.5996 6.2578 21.5996 6.90171 21.2011 7.29568L17.1306 11.3624C16.732 11.7607 16.0875 11.7607 15.6931 11.3624C15.2988 10.9642 15.2946 10.3203 15.6931 9.92637L18.0252 7.59645L3.51975 7.59645C2.95581 7.59645 2.50212 7.14318 2.50212 6.57976C2.50212 6.01634 2.95581 5.56307 3.51975 5.56307L18.0252 5.56307L15.6889 3.23314C15.2903 2.83494 15.2903 2.19104 15.6889 1.79707C16.0875 1.4031 16.732 1.39886 17.1263 1.79707L17.1306 1.79283ZM2.79893 16.7043L6.86945 12.6376C7.26802 12.2393 7.91252 12.2393 8.30685 12.6376C8.70118 13.0358 8.70542 13.6797 8.30685 14.0736L5.97478 16.4035L20.4803 16.4035C21.0442 16.4035 21.4979 16.8568 21.4979 17.4202C21.4979 17.9837 21.0442 18.4369 20.4803 18.4369L5.97478 18.4369L8.30685 20.7669C8.70542 21.1651 8.70542 21.809 8.30685 22.2029C7.90828 22.5969 7.26378 22.6011 6.86945 22.2029L2.79893 18.1446C2.40036 17.7464 2.40036 17.1025 2.79893 16.7086L2.79893 16.7043Z" fill="#262626"/>
</svg>
