<svg id="vector" xmlns="http://www.w3.org/2000/svg" width="40" height="40" viewBox="0 0 66 66">
    <defs>
        <clipPath id="clip_path_0">
            <circle cx="33" cy="33" r="31.6" />
        </clipPath>
    </defs>
    <circle cx="33" cy="33" r="32" fill="transparent" stroke="#F5F5F5" stroke-width="1" />
    <g id="g_0" clip-path="url(#clip_path_0)">
        <path fill="#000000" d="M64.8933,33H0.8933V64.8408H64.8933V33Z" />
        <path fill="#CE1126" d="M64.8933,1.1592H0.8933V33H64.8933V1.1592Z" />
        <path fill="#ffffff" d="M64.8933,22.3862H0.8933V43.6135H64.8933V22.3862Z" />
        <path fill="#ffffff"
            d="M33,42.9566C35.1164,42.9566 37.1418,42.7891 38.3295,42.4541C38.8319,42.3631 38.8319,42.1042 38.8319,41.7689C39.3344,41.6014 39.0755,41.0079 39.4258,41.0079C39.0755,41.0993 38.9994,40.4141 38.5734,40.5058C38.5734,39.912 37.9796,39.8359 37.4771,40.003C36.4719,40.338 34.6904,40.4144 33.0003,40.4144C31.3102,40.3383 29.544,40.3383 28.5235,40.003C28.021,39.8359 27.4275,39.912 27.4275,40.5058C27.0009,40.4144 26.9251,41.0996 26.5748,41.0079C26.9251,41.0079 26.6659,41.6014 27.1687,41.7689C27.1687,42.1039 27.1687,42.3631 27.6864,42.4541C28.8581,42.7891 30.8835,42.9566 33,42.9566Z"
            stroke-width="0.25237" stroke="#C09300" stroke-linecap="round"
            stroke-linejoin="round" />
        <path fill="#ffffff"
            d="M33.0859,33.2547L40.3549,40.0027L39.8375,27.7472C39.7614,25.8899 38.1474,26.316 36.9747,26.9859C35.787,27.7472 34.4319,27.7472 33.0003,27.2448C31.5691,27.7472 30.2139,27.7472 29.0262,26.9859C27.8539,26.316 26.2399,25.8896 26.1638,27.7472L25.646,40.0027L33.0859,33.2547Z"
            stroke-width="0.134814" stroke="#C09300" stroke-linecap="round"
            stroke-linejoin="round" />
        <path fill="#C09300"
            d="M35.1164,29.3616L35.3603,35.2687L36.0452,35.9386L35.7864,29.4377C35.6189,29.4377 35.1925,29.4377 35.1164,29.3616Z" />
        <path fill="#C09300"
            d="M33.3353,34.5984L34.3555,39.2424L34.0202,39.5773L33.6699,39.3185L33.0914,35.1773L33.335,39.3185L33,39.7448L32.665,39.3185L32.9086,35.1773L32.3301,39.3185L31.9795,39.5773L31.6449,39.2424L32.665,34.5984H33.3353Z"
            stroke-width="0.11399" stroke="#C09300" stroke-linecap="square" />
        <path fill="#C09300"
            d="M27.0002,27.3206L26.4978,39.2417L25.6451,40.0024L26.1628,27.7469C26.4064,27.5794 26.8327,27.3209 27.0002,27.3206Z" />
        <path fill="#C09300"
            d="M28.021,28.1739L27.5947,38.1458L26.7423,39.0182L27.26,27.5037C27.4275,27.6711 27.9303,28.0819 28.0214,28.1736V28.1739H28.021Z" />
        <path fill="#C09300"
            d="M28.9498,28.9349L28.6149,37.252L27.9297,37.9216L28.356,28.4327C28.5235,28.5999 28.8585,28.8435 28.9498,28.9349Z" />
        <path fill="#C09300"
            d="M29.955,29.3615L29.6201,36.4499L28.9501,36.9934L29.2851,29.1027C29.4526,29.1788 29.7876,29.3615 29.955,29.3615Z" />
        <path fill="#C09300"
            d="M30.8835,29.3616L30.6396,35.2687L29.9547,35.9386L30.2136,29.4377C30.3811,29.4377 30.8074,29.4377 30.8835,29.3616Z" />
        <path fill="#C09300"
            d="M38.9998,27.3206L39.5022,39.2417L40.3549,40.0024L39.8372,27.7469C39.5939,27.5794 39.1672,27.3209 38.9998,27.3206Z" />
        <path fill="#C09300"
            d="M37.9789,28.1739L38.4053,38.1458L39.2577,39.0182L38.7399,27.5037C38.5724,27.6711 38.0697,28.0819 37.9786,28.1736V28.1739H37.9789Z" />
        <path fill="#C09300"
            d="M37.0501,28.9349L37.3851,37.252L38.0703,37.9216L37.644,28.4327C37.4765,28.5999 37.1415,28.8435 37.0501,28.9349Z" />
        <path fill="#C09300"
            d="M36.0449,29.3615L36.3799,36.4499L37.0498,36.9934L36.7149,29.1027C36.5477,29.1788 36.2124,29.3615 36.0449,29.3615Z" />
        <path fill="#ffffff"
            d="M30.716,32.5583L28.691,39.7442L31.4777,40.1705L32.665,34.7656L30.716,32.5583Z"
            stroke-width="0.126185" stroke="#C09300" stroke-linecap="round"
            stroke-linejoin="round" />
        <path fill="#ffffff"
            d="M35.2839,32.5583L37.309,39.7442L34.5226,40.1705L33.3349,34.7656L35.2839,32.5583Z"
            stroke-width="0.126185" stroke="#C09300" stroke-linecap="round"
            stroke-linejoin="round" />
        <path fill="#00000000" d="M35.9539,35.0101L35.7103,35.6036L34.3937,34.3463"
            stroke-width="0.134846" stroke="#C09300" stroke-linecap="round"
            stroke-linejoin="round" />
        <path fill="#00000000"
            d="M34.2418,39.2427L34.5379,37.842L34.7964,36.4175L35.4164,37.2568L35.6883,36.2888L36.556,37.1788L36.1147,38.7976L35.5059,37.7962L35.1709,38.8163L34.5455,37.8439M33.605,36.4346L34.5303,37.8401L33.605,36.4346Z"
            stroke-width="0.134846" stroke="#C09300" stroke-linecap="round"
            stroke-linejoin="round" />
        <path fill="#00000000" d="M30.0464,35.0101L30.29,35.6036L31.6066,34.3463"
            stroke-width="0.134846" stroke="#C09300" stroke-linecap="round"
            stroke-linejoin="round" />
        <path fill="#00000000" d="M30.958,33.5222L31.2335,36.1064L32.0709,35.0101"
            stroke-width="0.134846" stroke="#C09300" stroke-linecap="round"
            stroke-linejoin="round" />
        <path fill="#00000000" d="M31.7359,35.4359L32.1935,37.0145" stroke-width="0.134846"
            stroke="#C09300" stroke-linecap="round" stroke-linejoin="round" />
        <path fill="#00000000"
            d="M31.7362,39.2427L31.4401,37.842L31.1816,36.4175L30.5616,37.2568L30.2897,36.2888L29.422,37.1788L29.8633,38.7976L30.4725,37.7962L30.8074,38.8163L31.4328,37.8439M32.3727,36.4346L31.4474,37.8401L32.3727,36.4346Z"
            stroke-width="0.134846" stroke="#C09300" stroke-linecap="round"
            stroke-linejoin="round" />
        <path fill="#00000000"
            d="M29.2842,39.5774L29.8468,38.7874L30.2133,40.0034L30.7157,39.151L31.0507,40.1712"
            stroke-width="0.134846" stroke="#C09300" stroke-linecap="round"
            stroke-linejoin="round" />
        <path fill="#00000000"
            d="M36.7381,39.5774L36.1755,38.7874L35.809,40.0034L35.3065,39.151L34.9716,40.1712"
            stroke-width="0.134846" stroke="#C09300" stroke-linecap="round"
            stroke-linejoin="round" />
        <path fill="#ffffff"
            d="M30.1225,39.7439C30.8074,39.8353 31.5691,39.9114 32.1629,39.8353C32.4975,39.8353 32.7411,40.4138 32.0715,40.5052C31.478,40.581 30.5489,40.5052 30.0464,40.4135C29.6201,40.3374 28.6913,40.1699 28.0975,40.0021C27.5036,39.7436 27.9303,39.2414 28.2649,39.3172C28.7827,39.485 29.4526,39.6525 30.1225,39.7439Z"
            stroke-width="0.134846" stroke="#C09300" stroke-linecap="round"
            stroke-linejoin="round" />
        <path fill="#ffffff"
            d="M35.8784,39.7439C35.1932,39.8353 34.4319,39.9114 33.8533,39.8353C33.5031,39.8353 33.2595,40.4138 33.9294,40.5052C34.5233,40.581 35.4521,40.5052 35.9542,40.4135C36.3805,40.3374 37.3093,40.1699 37.9032,40.0021C38.4973,39.7436 38.071,39.2414 37.7357,39.3172C37.2183,39.485 36.5483,39.6525 35.8784,39.7439Z"
            stroke-width="0.134846" stroke="#C09300" stroke-linecap="round"
            stroke-linejoin="round" />
        <path fill="#ffffff"
            d="M28.021,39.4095C27.5033,39.3181 27.2597,39.9117 27.4275,40.2466C27.5036,40.0791 27.8539,40.0791 27.93,39.9117C28.021,39.6531 27.8539,39.6531 28.021,39.4095Z"
            stroke-width="0.134846" stroke="#C09300" stroke-linecap="round"
            stroke-linejoin="round" />
        <path fill="#ffffff"
            d="M30.0464,40.9666C30.0464,40.6319 30.3811,40.673 30.3811,40.338C30.3811,40.1705 30.29,39.9117 30.1225,39.9117C29.955,39.9117 29.7872,40.0792 29.7872,40.2466C29.7111,40.5816 30.0464,40.6319 30.0464,40.9666Z"
            stroke-width="0.134846" stroke="#C09300" stroke-linecap="round"
            stroke-linejoin="round" />
        <path fill="#ffffff"
            d="M32.4568,40.0027C32.9589,40.0027 32.9092,40.6727 32.6653,41.008C32.6653,40.7644 32.239,40.673 32.239,40.5058C32.239,40.2466 32.6239,40.2466 32.4568,40.0027Z"
            stroke-width="0.134846" stroke="#C09300" stroke-linecap="round"
            stroke-linejoin="round" />
        <path fill="#ffffff"
            d="M37.9789,39.4095C38.4967,39.3181 38.7406,39.9117 38.5728,40.2466C38.4967,40.0791 38.1464,40.0791 38.0703,39.9117C37.9789,39.6531 38.1464,39.6531 37.9789,39.4095Z"
            stroke-width="0.134846" stroke="#C09300" stroke-linecap="round"
            stroke-linejoin="round" />
        <path fill="#ffffff"
            d="M35.9539,40.9666C35.9539,40.6319 35.6192,40.673 35.6192,40.338C35.6192,40.1705 35.7103,39.9117 35.8781,39.9117C36.0456,39.9117 36.213,40.0792 36.213,40.2466C36.2891,40.5816 35.9539,40.6319 35.9539,40.9666Z"
            stroke-width="0.134846" stroke="#C09300" stroke-linecap="round"
            stroke-linejoin="round" />
        <path fill="#ffffff"
            d="M33.5435,40.0027C33.0414,40.0027 33.091,40.6727 33.3346,41.008C33.3346,40.7644 33.761,40.673 33.761,40.5058C33.761,40.2466 33.376,40.2466 33.5435,40.0027Z"
            stroke-width="0.134846" stroke="#C09300" stroke-linecap="round"
            stroke-linejoin="round" />
        <path fill="#00000000" fill-rule="evenodd"
            d="M28.1888,39.5773C28.3566,39.5773 28.6152,39.6534 28.6913,39.7445L28.1888,39.5773Z"
            stroke-width="0.0946308" stroke="#C09300" stroke-linecap="round"
            stroke-linejoin="round" />
        <path fill="#00000000" fill-rule="evenodd"
            d="M29.0253,39.8362C29.1167,39.8362 29.4516,39.9123 29.6191,40.0033L29.0253,39.8362Z"
            stroke-width="0.0946308" stroke="#C09300" stroke-linecap="round"
            stroke-linejoin="round" />
        <path fill="#00000000" fill-rule="evenodd"
            d="M32.0715,40.1705C31.904,40.1705 31.5691,40.1705 31.4777,40.2463L32.0715,40.1705Z"
            stroke-width="0.0946308" stroke="#C09300" stroke-linecap="round"
            stroke-linejoin="round" />
        <path fill="#00000000" fill-rule="evenodd"
            d="M31.1427,40.1705C31.0516,40.0791 30.7164,40.0791 30.5489,40.1705H31.1427Z"
            stroke-width="0.0946308" stroke="#C09300" stroke-linecap="round"
            stroke-linejoin="round" />
        <path fill="#ffffff"
            d="M37.8121,39.5773C37.6446,39.5773 37.4007,39.6534 37.3096,39.7445L37.8121,39.5773Z"
            stroke-width="0.0946308" stroke="#C09300" stroke-linecap="round"
            stroke-linejoin="round" />
        <path fill="#ffffff"
            d="M36.9747,39.8362C36.8836,39.8362 36.5483,39.9123 36.3808,40.0033L36.9747,39.8362Z"
            stroke-width="0.0946308" stroke="#C09300" stroke-linecap="round"
            stroke-linejoin="round" />
        <path fill="#ffffff"
            d="M33.9288,40.1705C34.0963,40.1705 34.4312,40.1705 34.5226,40.2463L33.9288,40.1705Z"
            stroke-width="0.0946308" stroke="#C09300" stroke-linecap="round"
            stroke-linejoin="round" />
        <path fill="#ffffff"
            d="M34.8576,40.1705C34.9486,40.0791 35.2839,40.0791 35.4514,40.1705H34.8576Z"
            stroke-width="0.0946308" stroke="#C09300" stroke-linecap="round"
            stroke-linejoin="round" />
        <path fill="#00000000" d="M35.0579,33.5222L34.7824,36.1064L33.945,35.0101"
            stroke-width="0.134846" stroke="#C09300" stroke-linecap="round"
            stroke-linejoin="round" />
        <path fill="#ffffff"
            d="M32.9978,35.8902C36.4624,33.2254 36.1653,29.3221 36.1653,29.3221C36.0739,29.3402 35.987,29.3495 35.8956,29.3495C35.169,29.3495 33.4356,28.9336 33.0312,28.4057C32.5982,28.8836 30.8269,29.3495 30.1047,29.3495C30.0133,29.3495 29.9219,29.3402 29.835,29.3221C29.835,29.3221 29.5335,33.2251 32.9978,35.8902Z"
            stroke-width="0.122078" stroke="#C09300" />
        <path fill="#ffffff"
            d="M35.8889,29.6077C35.859,29.6096 35.829,29.6105 35.7988,29.6105C35.14,29.6105 33.6104,29.2727 33.0207,28.7661C32.403,29.2342 30.8479,29.6105 30.1999,29.6105C30.1697,29.6105 30.1394,29.6067 30.1098,29.6013C30.1082,29.749 30.1158,29.9019 30.1251,30.041C30.1591,30.561 30.2505,31.0832 30.389,31.5856C30.8249,33.1665 31.7174,34.5099 32.9971,35.5291C34.2778,34.5092 35.1712,33.1643 35.6081,31.5821C35.7469,31.08 35.8383,30.5581 35.873,30.0378C35.8825,29.9019 35.8899,29.7525 35.8889,29.6077Z" />
        <g>
            <path fill="#C09300" d="M31.8719,27.8424H29.3701V36.47H31.8719V27.8424Z" />
        </g>
        <g>
            <path fill="#C09300" d="M36.6948,27.8424H34.06V36.47H36.6948V27.8424Z" />
        </g>
        <path fill="#00000000" d="M34.2313,35.4359L33.7737,37.0145" stroke-width="0.134846"
            stroke="#C09300" stroke-linecap="round" stroke-linejoin="round" />
        <path fill="#C09300"
            d="M28.0478,40.9156C27.9911,40.9048 27.9615,40.8599 27.9755,40.807C27.993,40.7424 28.0446,40.7055 28.0936,40.7226C28.1248,40.7338 28.1815,40.7911 28.1818,40.8118C28.1822,40.8354 28.1522,40.8917 28.1392,40.8917C28.1334,40.8917 28.1248,40.8968 28.1197,40.9025C28.1092,40.915 28.0761,40.921 28.0478,40.9156ZM33.8772,41.3318C33.8562,41.3241 33.8224,41.2767 33.8224,41.255C33.8228,41.214 33.8833,41.1471 33.9211,41.1464C33.9396,41.1464 33.9906,41.1729 34.0097,41.1926C34.044,41.2286 34.0367,41.2875 33.9934,41.3209C33.9721,41.3375 33.9084,41.3435 33.8772,41.3318ZM33.916,41.5951C33.8715,41.5801 33.8552,41.5582 33.8514,41.5088C33.8476,41.4572 33.8527,41.4493 33.9071,41.4196L33.946,41.3986L33.9829,41.4149C34.0339,41.4375 34.0565,41.462 34.0584,41.4964C34.0603,41.5333 34.0329,41.5709 33.9906,41.59C33.9527,41.6065 33.9504,41.6069 33.916,41.5951ZM28.157,41.2697C28.1844,41.2461 28.1847,41.2222 28.1583,41.2108C28.1417,41.2038 28.1318,41.2054 28.0987,41.2213C28.0656,41.2372 28.0596,41.2432 28.0615,41.2592C28.0637,41.2773 28.0777,41.2834 28.1274,41.2878C28.1318,41.2881 28.1452,41.2802 28.157,41.2697ZM29.0517,41.7371C29.0275,41.7291 28.9683,41.7148 28.9199,41.7056C28.8085,41.6842 28.6353,41.6451 28.5884,41.6307C28.5687,41.6247 28.5327,41.6155 28.5085,41.6101C28.4643,41.6002 28.4413,41.5935 28.3687,41.569C28.3468,41.5617 28.293,41.5467 28.249,41.5359C28.2051,41.525 28.1538,41.5101 28.135,41.5021C28.1162,41.4945 28.094,41.4881 28.0857,41.4881C28.0774,41.4881 28.0586,41.4817 28.044,41.4741C28.0293,41.4664 27.9946,41.4579 27.9663,41.4553C27.9074,41.4499 27.8637,41.4292 27.8386,41.3951C27.8176,41.3662 27.8169,41.3435 27.8364,41.3034C27.8446,41.2866 27.8516,41.2665 27.8516,41.2592C27.8516,41.2518 27.8587,41.2397 27.8676,41.2324C27.8762,41.2251 27.8832,41.2159 27.8832,41.2117C27.8832,41.2028 27.9201,41.149 27.9421,41.1264C27.9707,41.0968 28.0303,41.0681 28.0637,41.0678C28.0834,41.0675 28.1006,41.0624 28.1092,41.0541C28.1188,41.0449 28.1404,41.0391 28.1787,41.0363L28.2341,41.0318L28.2557,40.9933C28.2675,40.9723 28.2777,40.9446 28.2777,40.9318C28.278,40.9191 28.2834,40.8987 28.2901,40.886C28.2968,40.8733 28.307,40.8424 28.313,40.8169C28.3353,40.7211 28.3512,40.6679 28.3608,40.6586C28.3745,40.645 28.3732,40.6392 28.3493,40.6096C28.3366,40.5937 28.3213,40.5835 28.3105,40.5838C28.284,40.5841 28.2404,40.5997 28.2267,40.6141C28.1994,40.6427 28.1634,40.6615 28.136,40.6618C28.0981,40.6622 28.0497,40.6351 28.0315,40.6036C28.0172,40.5787 28.0172,40.5775 28.0338,40.5437C28.0446,40.5217 28.0586,40.5061 28.0726,40.501C28.1057,40.4886 28.1898,40.4947 28.2092,40.5112C28.2229,40.523 28.2334,40.5243 28.2774,40.5192C28.306,40.516 28.3312,40.5106 28.3331,40.5071C28.3353,40.5036 28.3528,40.4985 28.3722,40.4953C28.3917,40.4924 28.4092,40.4851 28.4114,40.4794C28.4136,40.4733 28.4283,40.4663 28.4436,40.4635C28.4589,40.4606 28.4757,40.4533 28.4805,40.4475C28.4856,40.4415 28.4999,40.4367 28.5123,40.4364C28.5299,40.4364 28.5381,40.4418 28.5486,40.4606C28.5604,40.4823 28.5611,40.4908 28.5525,40.5351C28.5471,40.5628 28.5365,40.5978 28.5283,40.6138C28.5203,40.6294 28.5139,40.6555 28.5139,40.672C28.5143,40.6908 28.5085,40.7083 28.4987,40.7195C28.4901,40.7293 28.4831,40.7449 28.4831,40.7545C28.4831,40.764 28.4776,40.7774 28.471,40.7838C28.4643,40.7905 28.455,40.8172 28.4506,40.8436C28.4461,40.8701 28.4382,40.8987 28.4327,40.907C28.4273,40.9156 28.421,40.9385 28.4181,40.958C28.4155,40.9777 28.4082,40.9978 28.4019,41.0028C28.3955,41.0079 28.3907,41.0232 28.3907,41.0363C28.3907,41.0497 28.3843,41.0732 28.3764,41.0885C28.3684,41.1041 28.3595,41.135 28.3566,41.1573C28.3538,41.1796 28.3471,41.2047 28.3414,41.2133C28.3356,41.2216 28.3289,41.2458 28.3261,41.2668C28.3232,41.2878 28.3156,41.313 28.3092,41.3225C28.2987,41.3385 28.2993,41.3423 28.314,41.3614C28.3375,41.3926 28.4066,41.4149 28.477,41.4142C28.5318,41.4139 28.5346,41.4126 28.5544,41.3884C28.5662,41.3738 28.577,41.348 28.5802,41.327C28.583,41.3069 28.5904,41.2811 28.5964,41.2697C28.6028,41.2582 28.6072,41.2289 28.6072,41.2054C28.6069,41.1649 28.605,41.1605 28.5783,41.1401C28.5518,41.1197 28.5506,41.1165 28.5591,41.0977C28.5681,41.0783 28.6044,41.0618 28.6384,41.0614C28.6454,41.0614 28.6598,41.0547 28.6703,41.0468C28.6808,41.0388 28.6967,41.0299 28.7063,41.027C28.7158,41.0242 28.7368,41.0095 28.7534,40.9946C28.7881,40.9634 28.8097,40.9624 28.8273,40.992C28.8384,41.0105 28.8381,41.0162 28.8263,41.0493C28.819,41.0697 28.8132,41.1016 28.8132,41.12C28.8136,41.1388 28.8088,41.1592 28.8027,41.1662C28.7967,41.1729 28.7884,41.1939 28.7839,41.213C28.7795,41.2321 28.7709,41.2611 28.7642,41.278C28.7575,41.2948 28.7524,41.3225 28.7524,41.3394C28.7524,41.3563 28.7454,41.384 28.7368,41.4005C28.7142,41.4442 28.7171,41.4706 28.7457,41.4833C28.7524,41.4862 28.7668,41.4935 28.7779,41.4996C28.7887,41.5056 28.8123,41.5104 28.8298,41.5104C28.8473,41.5104 28.8772,41.5171 28.896,41.525C28.9151,41.533 28.953,41.5416 28.981,41.5441C29.0304,41.5486 29.0317,41.548 29.054,41.5238C29.0676,41.5085 29.0804,41.4821 29.0864,41.4556C29.0918,41.4317 29.0982,41.4047 29.1008,41.3951C29.1084,41.3662 29.0957,41.3276 29.0708,41.3047C29.0272,41.2643 29.0454,41.2101 29.1027,41.2095C29.1275,41.2092 29.1947,41.1824 29.2122,41.1656C29.26,41.1203 29.2899,41.1086 29.3192,41.1232C29.3424,41.1347 29.3498,41.1665 29.3354,41.192C29.3294,41.2025 29.3198,41.2318 29.3138,41.2573C29.3077,41.2824 29.2959,41.3276 29.2873,41.3572C29.2788,41.3872 29.266,41.4387 29.2593,41.4722C29.2526,41.5056 29.2405,41.5534 29.2323,41.5782C29.224,41.603 29.2176,41.6301 29.2176,41.6381C29.2176,41.646 29.2103,41.6699 29.2011,41.6909C29.1746,41.753 29.1348,41.7651 29.0517,41.7371ZM28.0249,41.7409C27.9723,41.6916 27.9806,41.6553 28.0586,41.5973C28.0917,41.5725 28.1121,41.5753 28.15,41.6101C28.2086,41.6635 28.2111,41.6973 28.1592,41.7431C28.1338,41.7658 28.1226,41.7705 28.0927,41.7708C28.0615,41.7712 28.0529,41.7673 28.0249,41.7409ZM28.3484,41.8393C28.2968,41.8266 28.2672,41.775 28.2821,41.7237C28.2958,41.6776 28.3038,41.6731 28.3713,41.6725C28.4471,41.6718 28.462,41.6842 28.4627,41.7511C28.463,41.7887 28.4601,41.7976 28.4413,41.8148C28.4197,41.8355 28.3773,41.8463 28.3484,41.8393ZM37.8057,41.8476C37.7815,41.8275 37.7767,41.8186 37.7764,41.7928C37.7761,41.7492 37.8013,41.7174 37.8557,41.6925C37.928,41.6597 37.9576,41.6642 37.985,41.7123C38.0213,41.7763 38.0194,41.8021 37.9761,41.845C37.9522,41.8689 37.9477,41.8702 37.8926,41.8708C37.8388,41.8711 37.8325,41.8699 37.8057,41.8476ZM28.7779,41.9695C28.7394,41.9593 28.7193,41.9304 28.7187,41.8839C28.7184,41.8485 28.7209,41.8428 28.7457,41.8234C28.7617,41.811 28.7871,41.8001 28.8072,41.7973C28.8355,41.7935 28.8457,41.796 28.8686,41.8119C28.9272,41.853 28.9397,41.8938 28.9056,41.9332C28.8696,41.9749 28.8355,41.9848 28.7779,41.9695ZM31.1042,42.0737L31.0746,42.0479L31.0787,41.9839C31.0809,41.9488 31.0879,41.9062 31.0943,41.8893C31.1007,41.8724 31.1058,41.8339 31.1058,41.8033C31.1055,41.7731 31.1106,41.7336 31.1166,41.7154C31.1227,41.6973 31.1328,41.6301 31.1392,41.5658C31.1456,41.5015 31.1542,41.44 31.158,41.4295C31.1621,41.4187 31.1653,41.3907 31.165,41.3665C31.1647,41.3426 31.1711,41.3006 31.179,41.2729C31.1882,41.241 31.1933,41.1964 31.1933,41.1506C31.1933,41.1108 31.1968,41.0662 31.2013,41.0516C31.2058,41.0369 31.2093,41.0169 31.2093,41.0067C31.2089,40.9879 31.2366,40.9439 31.2484,40.9439C31.2522,40.9439 31.2685,40.9624 31.2844,40.9847C31.3003,41.0073 31.3322,41.043 31.3554,41.0643C31.4573,41.1586 31.4528,41.1503 31.4197,41.1812C31.4076,41.1926 31.3939,41.2019 31.3898,41.2019C31.3853,41.2019 31.3723,41.2117 31.3605,41.2235C31.343,41.2413 31.3395,41.2522 31.3395,41.2869C31.3395,41.3098 31.3341,41.3423 31.3274,41.3591C31.3162,41.3868 31.3051,41.49 31.301,41.6002C31.3,41.6234 31.2962,41.6473 31.292,41.6537C31.2879,41.66 31.2831,41.7151 31.2812,41.7763C31.2793,41.8374 31.2745,41.8925 31.2704,41.8985C31.2666,41.9049 31.2628,41.9234 31.2624,41.9402C31.2612,42.0023 31.2475,42.0587 31.229,42.0781C31.2144,42.0934 31.2029,42.0972 31.1726,42.0979C31.1398,42.0994 31.1293,42.0953 31.1042,42.0737ZM34.1876,42.0033L34.2294,41.9912L34.2265,41.9514L34.2236,41.9116L34.1905,41.9097C34.1628,41.9081 34.1539,41.9113 34.1367,41.9294C34.1061,41.9616 34.1026,41.9845 34.1259,42.0017C34.1364,42.0093 34.1453,42.0157 34.1456,42.0157C34.1459,42.0157 34.165,42.01 34.1876,42.0033ZM33.946,42.1682C33.9294,42.1453 33.9285,42.1399 33.9361,42.0979C33.9406,42.0727 33.945,42.0297 33.9453,42.0026C33.9457,41.9753 33.9504,41.9453 33.9555,41.9361C33.9606,41.9269 33.9648,41.9078 33.9644,41.8938C33.9641,41.8737 33.9711,41.8613 33.9956,41.838C34.0132,41.8215 34.0272,41.8043 34.0272,41.7995C34.0272,41.7896 34.0893,41.7416 34.1023,41.7412C34.1074,41.7412 34.1179,41.7342 34.1259,41.7256C34.1335,41.717 34.1498,41.71 34.1615,41.71C34.1733,41.71 34.1924,41.7018 34.2039,41.6922C34.2236,41.6756 34.2249,41.6706 34.2243,41.6081C34.2239,41.568 34.2185,41.5279 34.2106,41.5069C34.2036,41.4875 34.1985,41.4645 34.1994,41.4553C34.2004,41.4461 34.1978,41.4024 34.194,41.3585C34.1876,41.2872 34.1848,41.276 34.166,41.2576C34.1545,41.2461 34.1408,41.2369 34.1354,41.2369C34.1252,41.2369 34.088,41.1933 34.0931,41.1875C34.1478,41.1289 34.2456,41.0369 34.2564,41.0334C34.2787,41.0264 34.3125,41.0414 34.3211,41.0624C34.3252,41.0729 34.3312,41.1184 34.3344,41.1636C34.3373,41.2089 34.3437,41.2668 34.3481,41.292C34.3526,41.3171 34.3605,41.3961 34.3656,41.4674C34.3707,41.5387 34.3784,41.6091 34.3828,41.6241C34.3873,41.6387 34.3937,41.704 34.3972,41.7689C34.4007,41.8339 34.4074,41.9004 34.4118,41.9167C34.4271,41.9724 34.4911,42.0058 34.5366,41.982C34.5443,41.9781 34.5783,41.9702 34.6124,41.9648C34.6917,41.952 34.693,41.9495 34.686,41.8368C34.6812,41.7584 34.6786,41.7476 34.6595,41.724C34.6477,41.7097 34.6296,41.696 34.6185,41.6935C34.5968,41.6884 34.5831,41.6699 34.5828,41.6451C34.5828,41.6276 34.6239,41.5862 34.6497,41.5782C34.6586,41.5757 34.6821,41.5597 34.7022,41.5435C34.7474,41.5066 34.777,41.504 34.805,41.534C34.8229,41.5534 34.8248,41.5632 34.8308,41.6655C34.8356,41.7444 34.841,41.7826 34.8503,41.7989C34.8598,41.8154 34.8636,41.8428 34.8643,41.8992C34.8646,41.952 34.869,41.9855 34.878,42.0049C34.8891,42.03 34.8894,42.0361 34.8795,42.0574C34.8735,42.0708 34.8659,42.0893 34.8633,42.0985C34.8569,42.1198 34.8448,42.1233 34.7716,42.1252C34.7388,42.1262 34.6977,42.131 34.6802,42.1357C34.6627,42.1405 34.6162,42.1453 34.5767,42.1463C34.4086,42.1504 34.1791,42.1698 34.1666,42.181C34.1574,42.1892 34.1303,42.1921 34.0593,42.1927L33.9644,42.1937L33.946,42.1682ZM30.361,41.5375C30.382,41.5228 30.3836,41.5034 30.3642,41.4983C30.3397,41.4922 30.3196,41.4582 30.318,41.4196C30.3149,41.3502 30.2824,41.3464 30.2219,41.4079C30.2044,41.4257 30.1779,41.4496 30.163,41.461L30.1356,41.4817L30.1553,41.5018C30.1888,41.5352 30.226,41.5486 30.2871,41.5489C30.3266,41.5496 30.3489,41.5457 30.361,41.5375ZM30.6081,42.2943C30.596,42.2902 30.5861,42.2844 30.5861,42.2813C30.5861,42.2739 30.5107,42.2278 30.4989,42.2281C30.4941,42.2281 30.4881,42.2189 30.4855,42.2074C30.483,42.1959 30.4734,42.1638 30.4642,42.1361C30.4483,42.0877 30.4486,42.0507 30.4648,42.0409C30.4766,42.0335 30.4725,42.01 30.4565,41.9966C30.447,41.9886 30.4222,41.9826 30.3868,41.9804C30.312,41.9756 30.3034,41.9734 30.2773,41.9514C30.2585,41.9358 30.2531,41.9234 30.2473,41.8823C30.2432,41.853 30.2346,41.8266 30.2263,41.818C30.2117,41.8027 30.1869,41.7989 30.1798,41.8103C30.1776,41.8142 30.1649,41.8192 30.1515,41.8218C30.1353,41.825 30.1248,41.8333 30.1197,41.8466C30.1155,41.8575 30.1028,41.8785 30.0916,41.8931C30.0719,41.9183 30.0687,41.9195 30.02,41.9202C29.992,41.9205 29.957,41.916 29.9423,41.9103C29.9111,41.8982 29.8764,41.8928 29.7898,41.8867C29.6656,41.8785 29.6083,41.8877 29.5988,41.9176C29.5854,41.9593 29.4854,42.045 29.4415,42.0523C29.4239,42.0552 29.394,42.0625 29.3752,42.0689C29.3564,42.0749 29.3377,42.0781 29.3332,42.0756C29.3291,42.073 29.287,42.0663 29.2402,42.0606C29.1514,42.0498 29.1189,42.0348 29.1186,42.0052C29.1183,41.987 29.1727,41.9597 29.1937,41.9673C29.2163,41.9756 29.2536,41.9749 29.2536,41.9667C29.2536,41.9628 29.273,41.9555 29.2966,41.9504C29.3201,41.9453 29.3437,41.9364 29.3491,41.9304C29.3545,41.9243 29.3692,41.9192 29.3816,41.9189C29.4004,41.9189 29.409,41.9119 29.4281,41.8826C29.4408,41.8629 29.4513,41.8415 29.4513,41.8358C29.4513,41.8298 29.4583,41.8164 29.4669,41.8056C29.4762,41.7938 29.4825,41.7743 29.4822,41.7575C29.4819,41.7419 29.4873,41.7139 29.4937,41.6954C29.5048,41.6639 29.5045,41.6588 29.4873,41.6085C29.4771,41.5792 29.4644,41.5527 29.459,41.5492C29.4536,41.5461 29.4446,41.5314 29.4395,41.5168C29.4255,41.4779 29.4405,41.4429 29.4969,41.3827C29.5029,41.3763 29.5102,41.3598 29.5131,41.3461C29.5185,41.3203 29.5363,41.306 29.5634,41.3057C29.5832,41.3053 29.6207,41.3467 29.621,41.369C29.621,41.3782 29.6271,41.3935 29.6341,41.4031C29.6417,41.4136 29.65,41.448 29.6545,41.4903C29.6621,41.5629 29.6752,41.6378 29.6847,41.6661C29.693,41.6906 29.7363,41.724 29.7595,41.724C29.7707,41.724 29.8016,41.7288 29.828,41.7349C29.8544,41.7406 29.8965,41.7454 29.9219,41.7451C29.9678,41.7447 29.9681,41.7447 30.0149,41.6976C30.0407,41.6718 30.0617,41.6467 30.0617,41.6419C30.0604,41.6113 29.9579,41.5562 29.8754,41.5419C29.8465,41.5368 29.8264,41.5015 29.8325,41.4674C29.8379,41.4384 29.8764,41.3878 29.914,41.3607C29.9283,41.3502 29.9757,41.3318 30.0197,41.3197L30.0993,41.2974L30.1213,41.2544C30.1633,41.1726 30.2515,41.1076 30.3222,41.107C30.3575,41.1066 30.3648,41.1108 30.3932,41.1458C30.4008,41.1554 30.4158,41.1738 30.426,41.1863C30.4572,41.2248 30.4747,41.2703 30.4702,41.3002C30.4658,41.3283 30.4776,41.3728 30.4897,41.3728C30.5005,41.3728 30.6167,41.4856 30.6221,41.5018C30.625,41.5101 30.6304,41.5168 30.6342,41.5164C30.6441,41.5164 30.6584,41.5674 30.6591,41.6043C30.6597,41.6591 30.6476,41.667 30.5626,41.6686C30.5218,41.6693 30.4725,41.6747 30.453,41.6807L30.4174,41.6912L30.4155,41.7336C30.4129,41.7909 30.4272,41.8068 30.4897,41.8161C30.5154,41.8199 30.5406,41.8262 30.5451,41.8307C30.5495,41.8348 30.5626,41.8383 30.574,41.8383C30.5855,41.8383 30.6017,41.8431 30.6103,41.8489C30.6243,41.8587 30.6259,41.8696 30.6269,41.9574L30.6278,42.0555L30.654,42.0631C30.6683,42.0673 30.6842,42.0749 30.6896,42.08C30.7084,42.0979 30.7332,42.0902 30.7434,42.0638C30.7485,42.0501 30.7558,42.0319 30.7597,42.0233C30.7632,42.0151 30.7695,41.9632 30.7737,41.9087C30.7775,41.854 30.7858,41.7957 30.7918,41.7788C30.7979,41.7619 30.8065,41.7068 30.8106,41.6569C30.8151,41.6066 30.8224,41.5607 30.8275,41.555C30.8326,41.5489 30.838,41.5012 30.8399,41.4464C30.8428,41.3677 30.8463,41.3451 30.8571,41.3334C30.8686,41.3209 30.8708,41.3034 30.8698,41.2235L30.8686,41.1286L30.8367,41.1022C30.8154,41.0847 30.8046,41.0694 30.8046,41.0567C30.8042,41.029 30.8119,41.021 30.8517,41.0063C30.8714,40.9993 30.9017,40.9882 30.9192,40.9818C30.9367,40.9755 30.9545,40.9662 30.9587,40.9611C30.9724,40.9452 31.0166,40.9172 31.0281,40.9169C31.0341,40.9169 31.045,40.9229 31.0526,40.9306C31.0698,40.9484 31.0714,41.021 31.0552,41.0512C31.0481,41.0643 31.0437,41.0939 31.044,41.1238C31.0443,41.1519 31.0392,41.1894 31.0325,41.2079C31.0255,41.2273 31.0169,41.2967 31.0122,41.3716C31.0077,41.4432 30.9997,41.5091 30.9943,41.5184C30.9889,41.5276 30.9851,41.5585 30.9854,41.5871C30.9857,41.6158 30.9806,41.6683 30.9743,41.7043C30.9679,41.74 30.9593,41.8001 30.9555,41.838C30.9513,41.8756 30.9431,41.9183 30.937,41.9329C30.931,41.9472 30.924,41.9835 30.9214,42.0138C30.9189,42.0437 30.9103,42.0803 30.9023,42.095C30.8944,42.1096 30.888,42.1278 30.888,42.1351C30.8883,42.1545 30.8469,42.2252 30.8354,42.2255C30.83,42.2255 30.8224,42.2322 30.8179,42.2402C30.8135,42.2481 30.7992,42.2567 30.7858,42.2596C30.7724,42.2621 30.752,42.2711 30.7399,42.2793C30.7135,42.2956 30.6393,42.3048 30.6081,42.2943ZM37.3052,41.6922C37.3545,41.6709 37.3685,41.6451 37.3491,41.6101C37.3326,41.5801 37.3084,41.568 37.2689,41.5706C37.223,41.5734 37.1855,41.6037 37.1858,41.6371C37.1861,41.6588 37.1915,41.6664 37.2202,41.6855C37.239,41.6979 37.2571,41.7081 37.2603,41.7084C37.2635,41.7088 37.2835,41.7014 37.3052,41.6922ZM36.67,41.6979C36.704,41.6823 36.7078,41.6776 36.7078,41.6553C36.7078,41.6206 36.6763,41.5798 36.6298,41.554C36.5805,41.5266 36.5627,41.5273 36.5407,41.5566C36.5235,41.5795 36.5235,41.5814 36.5359,41.6151C36.5429,41.6346 36.549,41.6556 36.549,41.6616C36.549,41.6769 36.5974,41.7151 36.6165,41.7151C36.6251,41.7154 36.6489,41.7075 36.67,41.6979ZM36.3869,41.7247C36.3898,41.7116 36.3894,41.682 36.3859,41.6588C36.3812,41.6253 36.3751,41.6123 36.356,41.5957C36.3273,41.5709 36.3124,41.5734 36.2783,41.6078C36.2563,41.6301 36.2532,41.6387 36.2522,41.6788C36.2509,41.7419 36.2595,41.7498 36.3277,41.7492C36.3818,41.7489 36.3818,41.7489 36.3869,41.7247ZM35.7545,41.8431C35.7819,41.8291 35.7886,41.8138 35.7816,41.7801C35.7711,41.7291 35.7071,41.7142 35.6762,41.7552C35.6667,41.7677 35.659,41.781 35.659,41.7852C35.659,41.789 35.6539,41.7963 35.6475,41.8017C35.6383,41.8091 35.6377,41.8148 35.645,41.8275C35.6501,41.8364 35.6581,41.8463 35.6628,41.8492C35.6778,41.8587 35.731,41.8552 35.7545,41.8431ZM36.7607,41.9339C36.783,41.9167 36.7849,41.8925 36.7652,41.8753C36.7419,41.8549 36.6999,41.8552 36.6566,41.8759C36.6308,41.8883 36.6235,41.896 36.6235,41.9109C36.6235,41.9237 36.6298,41.9323 36.6416,41.9367C36.6687,41.9469 36.7464,41.945 36.7607,41.9339ZM35.5266,42.3023C35.5173,42.2937 35.5202,42.2561 35.5307,42.2481C35.5361,42.244 35.5495,42.2376 35.5603,42.2344C35.5714,42.2313 35.5855,42.2239 35.5921,42.2185C35.5988,42.2128 35.6218,42.2058 35.6437,42.2026C35.7224,42.1911 35.7908,42.1287 35.7912,42.0686C35.7915,42.052 35.7889,42.0348 35.7857,42.03C35.7768,42.0163 35.6393,42.0246 35.5648,42.0434C35.5472,42.0479 35.5383,42.0444 35.517,42.024L35.4906,41.9991L35.4868,41.8867L35.4829,41.7744L35.5173,41.7365C35.5361,41.7154 35.56,41.6849 35.5705,41.668C35.581,41.6514 35.5915,41.6368 35.5947,41.6355C35.5976,41.6343 35.6138,41.6209 35.6304,41.6059C35.6638,41.5763 35.7186,41.5461 35.7558,41.5371C35.7685,41.534 35.7829,41.5263 35.7876,41.5203C35.7921,41.5139 35.8064,41.5082 35.8192,41.5069C35.8386,41.5053 35.8456,41.5101 35.8647,41.539C35.8771,41.5578 35.8876,41.5836 35.8883,41.596C35.8889,41.6088 35.895,41.6327 35.9016,41.6495C35.9083,41.6661 35.916,41.6998 35.9192,41.7237C35.922,41.7479 35.9287,41.7724 35.9335,41.7782C35.9456,41.7922 36.0417,41.7989 36.0586,41.7868C36.0678,41.7801 36.072,41.7594 36.0745,41.7078C36.0764,41.6677 36.0831,41.6279 36.0898,41.6142C36.0965,41.6011 36.1041,41.5792 36.107,41.5655C36.1147,41.5279 36.1777,41.441 36.2153,41.4161C36.2334,41.404 36.2528,41.39 36.2583,41.3849C36.2637,41.3798 36.2761,41.3735 36.286,41.3703C36.3098,41.363 36.3152,41.3531 36.3149,41.3193C36.3146,41.2904 36.2904,41.2566 36.2404,41.2162C36.2283,41.2063 36.2181,41.1923 36.2181,41.185C36.2178,41.1633 36.2414,41.1223 36.278,41.0796C36.2968,41.0576 36.3124,41.0369 36.3124,41.0334C36.3124,41.0299 36.3251,41.0191 36.3401,41.0099C36.3617,40.9962 36.3719,40.9943 36.3875,40.9997C36.4089,41.007 36.4149,41.0178 36.4343,41.0831C36.4604,41.1697 36.4665,41.1948 36.4729,41.2439C36.4764,41.2716 36.4818,41.2977 36.4846,41.3025C36.4875,41.3069 36.5229,41.3178 36.563,41.3264C36.6031,41.3349 36.6432,41.3464 36.6528,41.3521C36.662,41.3576 36.6786,41.3646 36.6897,41.3677C36.7171,41.3754 36.754,41.4018 36.754,41.4139C36.754,41.4193 36.7572,41.4241 36.7607,41.4238C36.7693,41.4238 36.8094,41.4821 36.8464,41.5483C36.8877,41.6228 36.8852,41.6212 36.9517,41.6206C37.0049,41.6202 37.0113,41.6183 37.0263,41.5995C37.0352,41.5884 37.0425,41.5699 37.0422,41.5585C37.0419,41.5346 37.0622,41.5066 37.1122,41.4623C37.1313,41.4454 37.1549,41.4244 37.1641,41.4158C37.195,41.3878 37.23,41.3655 37.2437,41.3652C37.2511,41.3652 37.2902,41.3789 37.3313,41.3954C37.3915,41.42 37.4096,41.4314 37.4278,41.4559C37.4673,41.5094 37.5513,41.5314 37.593,41.4992C37.6042,41.4906 37.6169,41.4836 37.6217,41.4836C37.6265,41.4836 37.6303,41.4782 37.6303,41.4719C37.6303,41.4556 37.5975,41.3674 37.5876,41.3563C37.5832,41.3512 37.5758,41.3203 37.5714,41.2878C37.5669,41.2553 37.5558,41.213 37.5469,41.1942C37.5357,41.1713 37.5287,41.1363 37.5255,41.0875C37.5227,41.0477 37.5134,40.9898 37.5048,40.9586C37.4962,40.9274 37.4889,40.8924 37.4889,40.8806C37.4883,40.8242 37.4405,40.7497 37.3918,40.7297C37.3806,40.7252 37.3628,40.7166 37.3517,40.7106C37.323,40.6949 37.2851,40.6972 37.2682,40.7153C37.2603,40.7239 37.2466,40.7309 37.2374,40.7309C37.2205,40.7309 37.1695,40.7723 37.1695,40.7854C37.1695,40.7892 37.1578,40.7927 37.1434,40.7927C37.1221,40.793 37.1125,40.787 37.0915,40.7612C37.0772,40.7437 37.0654,40.7258 37.0654,40.7214C37.0654,40.7169 37.0508,40.7013 37.0333,40.6867C37.0072,40.665 37.0011,40.6551 37.0008,40.6329C37.0005,40.6109 37.0043,40.6036 37.0202,40.5966C37.031,40.5918 37.0399,40.5845 37.0399,40.5803C37.0399,40.5762 37.0533,40.5704 37.0696,40.5676C37.0858,40.5647 37.1278,40.5552 37.1629,40.5459C37.2507,40.5233 37.409,40.5217 37.4475,40.5437C37.4618,40.5517 37.4825,40.5603 37.494,40.5628C37.5201,40.5685 37.5892,40.6319 37.6032,40.6637C37.6093,40.6771 37.6175,40.6899 37.6217,40.6924C37.6258,40.6949 37.6319,40.7112 37.6351,40.729C37.6382,40.7468 37.6459,40.7717 37.6516,40.7841C37.6605,40.8029 37.6726,40.8815 37.6847,41.0016C37.687,41.0232 37.7029,41.0968 37.7156,41.1426C37.7204,41.1595 37.7293,41.1984 37.7357,41.2292C37.742,41.2601 37.7532,41.291 37.7602,41.2983C37.7669,41.3057 37.7729,41.3174 37.7729,41.3251C37.7732,41.3547 37.8554,41.405 37.9035,41.4047C37.9452,41.4044 38.0076,41.376 38.0468,41.34C38.069,41.3193 38.0958,41.3006 38.1063,41.298C38.1279,41.2926 38.1627,41.3092 38.1751,41.3305C38.19,41.3566 38.2152,41.3795 38.2486,41.3983C38.2846,41.4184 38.2977,41.4448 38.284,41.47C38.2795,41.4782 38.2696,41.4852 38.262,41.4856C38.2544,41.4856 38.2292,41.4945 38.206,41.5053C38.1827,41.5161 38.1569,41.525 38.149,41.525C38.1407,41.525 38.0955,41.5375 38.0487,41.5527C38.0015,41.568 37.9184,41.5897 37.8637,41.6008C37.7672,41.6209 37.6376,41.6565 37.6217,41.668C37.6172,41.6712 37.5994,41.676 37.5819,41.6791C37.5277,41.6887 37.523,41.6916 37.5179,41.7193C37.5115,41.7533 37.4386,41.8298 37.3848,41.8584C37.3475,41.8785 37.3396,41.8794 37.2466,41.8794C37.1925,41.8791 37.1415,41.8775 37.1336,41.8753C37.1256,41.8731 37.1167,41.861 37.1138,41.8485C37.111,41.8361 37.0976,41.8189 37.0845,41.81C37.0591,41.7931 37.0301,41.7935 36.9651,41.8119L36.9361,41.8202L36.9314,41.8957C36.9288,41.9371 36.9218,41.9791 36.9161,41.9893C36.9104,41.9995 36.9021,42.0144 36.8979,42.0227C36.8938,42.031 36.8721,42.0536 36.8499,42.073C36.8276,42.0921 36.7951,42.1208 36.7776,42.1367C36.7416,42.1698 36.7107,42.1746 36.6894,42.151C36.6814,42.1424 36.6658,42.1357 36.6524,42.1361C36.6257,42.1364 36.5639,42.1109 36.5248,42.0838C36.5009,42.0673 36.4509,41.9855 36.4506,41.9628C36.4506,41.9584 36.4432,41.9479 36.4343,41.9396C36.4216,41.9275 36.4079,41.9246 36.3684,41.9253C36.341,41.9256 36.3025,41.9297 36.2828,41.9342C36.263,41.9383 36.2153,41.946 36.1764,41.9504C36.1376,41.9552 36.0943,41.9635 36.0803,41.9695C36.0663,41.9753 36.0395,41.9826 36.021,41.9858C35.972,41.994 35.9574,42.0122 35.9577,42.0619C35.958,42.0883 35.9542,42.1061 35.9469,42.1122C35.9405,42.1173 35.9335,42.1313 35.9309,42.1431C35.9242,42.174 35.859,42.237 35.8128,42.2577C35.7912,42.2676 35.7599,42.2822 35.744,42.2908C35.7198,42.3035 35.6988,42.3061 35.624,42.307C35.5727,42.3067 35.5297,42.3051 35.5266,42.3023ZM34.8951,42.371L34.877,42.3586L34.8929,42.3367C34.9018,42.3246 34.9222,42.3102 34.9385,42.3048C34.9939,42.2867 35.0314,42.2641 35.0766,42.2211C35.1015,42.1975 35.1219,42.1724 35.1219,42.165C35.1219,42.1577 35.1314,42.1405 35.1432,42.1268C35.1639,42.1026 35.1648,42.0982 35.1633,42.0211C35.1617,41.9422 35.1575,41.9256 35.1282,41.8801C35.1142,41.8584 35.0668,41.824 35.0184,41.8005C34.9862,41.7849 34.9748,41.753 34.9913,41.726C34.9983,41.7145 35.0203,41.6725 35.0403,41.6323C35.0604,41.5922 35.0808,41.5508 35.0862,41.5403C35.1005,41.5113 35.1362,41.5098 35.1604,41.5371C35.183,41.5629 35.2199,41.6279 35.2199,41.6425C35.2199,41.6483 35.2269,41.6591 35.2352,41.6667C35.2534,41.6826 35.2925,41.7502 35.2928,41.7654C35.2928,41.7715 35.3024,41.7915 35.3139,41.81C35.3282,41.8329 35.3352,41.8552 35.3355,41.8801C35.3361,41.9001 35.3419,41.9291 35.3482,41.9447C35.3673,41.9902 35.3613,42.1427 35.3384,42.1857C35.3288,42.2036 35.3183,42.2185 35.3151,42.2185C35.3119,42.2185 35.2989,42.2329 35.2858,42.2501C35.2613,42.2828 35.1769,42.3421 35.1547,42.3424C35.1473,42.3424 35.1362,42.3503 35.1298,42.3599C35.119,42.3761 35.1117,42.3774 35.0155,42.3806C34.9308,42.3828 34.9101,42.3812 34.8951,42.371ZM34.1685,42.4185C34.1428,42.3921 34.1373,42.3809 34.137,42.3548C34.1367,42.3287 34.1418,42.3182 34.1669,42.2927C34.2134,42.2459 34.236,42.2446 34.3166,42.2854C34.3933,42.3242 34.4191,42.3277 34.4261,42.3004C34.4328,42.2739 34.4768,42.2497 34.5188,42.2494C34.5452,42.2491 34.5605,42.2545 34.5815,42.2711C34.6083,42.2918 34.6095,42.2949 34.6102,42.343C34.6108,42.3921 34.6099,42.394 34.5793,42.421C34.55,42.4468 34.5452,42.4484 34.5086,42.4449C34.4621,42.4401 34.4344,42.4191 34.4268,42.3825C34.4214,42.3561 34.4118,42.3494 34.4048,42.3675C34.4026,42.3733 34.3911,42.3806 34.3796,42.3835C34.358,42.3889 34.3214,42.4121 34.2953,42.4366C34.2854,42.4459 34.2682,42.4503 34.2402,42.4506C34.2026,42.4506 34.1975,42.4484 34.1685,42.4185ZM33.4989,42.0052C33.5164,41.9985 33.5203,41.9934 33.5164,41.9807C33.5139,41.9721 33.5075,41.9485 33.5028,41.9285C33.4951,41.8973 33.4913,41.8922 33.4744,41.8925C33.4563,41.8925 33.4225,41.9116 33.3916,41.939C33.3763,41.9527 33.3671,41.9855 33.3754,41.9966C33.3932,42.0214 33.4464,42.0249 33.4989,42.0052ZM32.8841,42.236C32.9016,42.2227 32.9022,42.2192 32.9013,42.0787L32.9006,41.9351L32.8793,41.9164C32.8589,41.8985 32.8513,41.8973 32.7048,41.8915C32.6204,41.8883 32.538,41.881 32.5211,41.8759C32.4988,41.8692 32.4791,41.8686 32.4501,41.8737C32.424,41.8785 32.3928,41.8785 32.3606,41.8734C32.2415,41.8546 32.1623,41.8696 32.1336,41.916C32.1199,41.938 32.1199,41.9402 32.133,41.9609C32.1403,41.9727 32.1556,41.9842 32.1667,41.9861C32.1775,41.988 32.2033,41.9944 32.2237,42.0004C32.2463,42.0071 32.2944,42.0112 32.3472,42.0112C32.3947,42.0112 32.4749,42.0135 32.5252,42.0167C32.5756,42.0198 32.6456,42.0233 32.6809,42.024C32.7268,42.0253 32.7513,42.0294 32.7676,42.0396L32.7902,42.0536L32.7854,42.1275C32.7809,42.1982 32.7816,42.202 32.7994,42.2173C32.8207,42.2354 32.8465,42.2497 32.858,42.2497C32.8624,42.2497 32.8742,42.2437 32.8841,42.236ZM32.8169,42.4806C32.8169,42.4768 32.7968,42.465 32.7726,42.4538C32.7258,42.4325 32.6857,42.3997 32.6609,42.3634C32.6437,42.3379 32.6236,42.2739 32.6233,42.243C32.6233,42.2278 32.6182,42.2211 32.6052,42.2182C32.551,42.2064 32.4135,42.1915 32.3122,42.1861C32.2485,42.1829 32.1298,42.1736 32.0479,42.1657C31.8703,42.1482 31.8025,42.1504 31.7786,42.1755C31.7697,42.1851 31.7585,42.2039 31.7537,42.2176C31.749,42.2313 31.7318,42.2602 31.7152,42.2825C31.6987,42.3045 31.6853,42.3262 31.6853,42.3306C31.6853,42.3351 31.6818,42.3386 31.6773,42.3386C31.6729,42.3386 31.663,42.3449 31.655,42.3523C31.635,42.3714 31.5939,42.3994 31.5729,42.4089C31.563,42.4134 31.5461,42.422 31.5353,42.428C31.5067,42.4443 31.3076,42.4462 31.2755,42.4306C31.2631,42.4245 31.2417,42.4194 31.2284,42.4194C31.215,42.4194 31.1972,42.415 31.1886,42.4089C31.1758,42.4003 31.1746,42.3946 31.1809,42.3768C31.1902,42.3507 31.2166,42.344 31.3194,42.3424C31.3767,42.3414 31.3933,42.3379 31.4267,42.3207C31.4665,42.3 31.535,42.25 31.5401,42.2376C31.5417,42.2341 31.5496,42.2252 31.5579,42.2185C31.5659,42.2115 31.5748,42.194 31.5777,42.179C31.5802,42.1641 31.5891,42.1383 31.5977,42.1221C31.6155,42.0873 31.6133,42.0663 31.5831,41.98C31.5522,41.8912 31.541,41.8715 31.5057,41.8419C31.4611,41.8043 31.4624,41.7864 31.5121,41.7358C31.5337,41.7139 31.5643,41.6766 31.5799,41.6537C31.605,41.6164 31.6108,41.6123 31.6331,41.6139C31.6544,41.6158 31.6614,41.6222 31.6805,41.6578C31.7104,41.7129 31.7515,41.8081 31.7515,41.8227C31.7515,41.8291 31.7569,41.845 31.763,41.8584C31.7693,41.8718 31.7786,41.895 31.784,41.9103C31.7967,41.9482 31.8037,41.9523 31.8696,41.9578C31.9387,41.9638 31.9397,41.9625 31.9457,41.8699C31.948,41.8345 31.9534,41.8017 31.9578,41.7976C31.9623,41.7935 31.9658,41.7829 31.9655,41.7747C31.9652,41.7562 31.9257,41.647 31.9155,41.6371C31.9021,41.6241 31.9075,41.5849 31.9276,41.5511C31.9384,41.5327 31.9505,41.5177 31.954,41.5177C31.9575,41.5177 31.9741,41.5085 31.9906,41.4977C32.032,41.47 32.0944,41.4633 32.1209,41.4836C32.1381,41.4967 32.1409,41.5059 32.1447,41.5658C32.1486,41.6266 32.1511,41.6346 32.1702,41.6505C32.1817,41.66 32.1998,41.668 32.2107,41.668C32.2212,41.668 32.2364,41.6737 32.2444,41.6804C32.2565,41.6906 32.2845,41.6928 32.4122,41.6938C32.5889,41.6951 32.6879,41.6998 32.7004,41.7075C32.7051,41.7104 32.736,41.7126 32.7688,41.7126C32.8016,41.7123 32.8733,41.7148 32.928,41.718C33.0239,41.7234 33.0283,41.7247 33.0516,41.7466L33.0758,41.7693L33.0777,41.8708C33.0799,41.9883 33.0866,42.0033 33.1379,42.0026C33.1828,42.0023 33.1955,41.9883 33.199,41.9364C33.2009,41.9116 33.2066,41.8877 33.2124,41.8832C33.2181,41.8788 33.228,41.8625 33.2343,41.8473C33.2477,41.8154 33.3031,41.7597 33.3289,41.7517C33.3385,41.7489 33.3531,41.7403 33.362,41.733C33.3706,41.7256 33.3884,41.7174 33.4015,41.7148C33.4588,41.704 33.5219,41.683 33.5365,41.6693C33.547,41.66 33.5661,41.654 33.5897,41.653C33.6202,41.6514 33.6298,41.6546 33.6429,41.6696C33.662,41.6909 33.6655,41.7075 33.6728,41.8126C33.676,41.8559 33.6823,41.9004 33.6874,41.9119C33.6922,41.923 33.6983,41.9769 33.7011,42.0316L33.7059,42.131L33.6811,42.1638L33.6562,42.1966L33.3986,42.1988C33.2569,42.2001 33.1286,42.2032 33.1137,42.2061C33.0837,42.2118 33.0767,42.2274 33.0774,42.2863C33.0777,42.3045 33.0723,42.3195 33.0624,42.3281C33.0541,42.3354 33.0452,42.3497 33.0427,42.3596C33.0379,42.3787 32.985,42.4188 32.9513,42.429C32.9404,42.4322 32.9261,42.4392 32.9194,42.4443C32.9006,42.4592 32.8411,42.4876 32.828,42.4876C32.822,42.4876 32.8169,42.4844 32.8169,42.4806Z" />
        <path fill="#ffffff"
            d="M34.3067,28.0217C34.3774,28.0258 34.2112,27.6431 34.2112,27.6431C34.3984,27.8345 35.1059,27.8803 35.1059,27.8803C34.6815,27.6928 34.2571,26.2781 34.307,25.1503C34.3529,24.0183 34.145,23.5732 33.9784,23.4067C33.7661,23.1943 33.0837,23.0071 32.6345,22.9822C32.3807,22.9698 32.4224,23.1736 32.4224,23.1736C31.9521,23.0529 31.4821,23.0071 31.2698,23.1488C31.0701,23.2819 31.0284,23.9476 31.1739,23.8311C31.5277,23.548 31.8356,23.8063 32.0479,24.1142C32.2352,24.3848 32.2227,25.1503 31.9521,26.045C31.669,26.9853 30.895,27.9258 30.895,27.9258C31.3153,27.9258 31.9063,27.5514 31.9063,27.5514L31.7649,28.1382C32.21,27.9258 32.5638,27.5972 32.5638,27.5972L32.9882,28.0424C33.1296,27.8551 33.4126,27.5972 33.4126,27.5972C33.4126,27.5972 33.7658,27.9717 34.3067,28.0217Z"
            stroke-width="0.134814" stroke="#C09300" />
        <path fill="#00000000" d="M32.588,25.3127C32.588,25.3127 32.3507,27.0563 31.9056,27.5514"
            stroke-width="0.134814" stroke="#C09300" />
        <path fill="#00000000" d="M32.9627,25.2668C32.9627,25.2668 32.8713,27.0311 32.5631,27.5973"
            stroke-width="0.134814" stroke="#C09300" />
        <path fill="#00000000" d="M33.2955,25.3375C33.2955,25.3375 33.2955,27.2684 33.412,27.5969"
            stroke-width="0.134814" stroke="#C09300" />
        <path fill="#00000000" d="M33.7158,25.4333C33.7158,25.4333 33.8116,27.0563 34.2109,27.6431"
            stroke-width="0.134814" stroke="#C09300" />
        <path fill="#C09300"
            d="M32.1594,24.4679C32.1387,24.3138 32.1011,24.1932 32.047,24.1142C31.8346,23.8063 31.5267,23.5484 31.1733,23.8311C31.1733,23.8311 31.294,23.4567 31.5519,23.4439C31.7515,23.4315 32.2052,23.5936 32.6048,24.2763C32.6048,24.2763 32.3094,24.2097 32.2387,24.2721C32.1053,24.389 32.1594,24.4679 32.1594,24.4679Z"
            stroke-width="0.134814" stroke="#C09300" />
        <path fill="#C09300"
            d="M31.1357,23.3691C31.1647,23.2736 31.2105,23.186 31.2688,23.1485C31.4812,23.0071 31.9515,23.0529 32.4214,23.1733C32.4214,23.1733 32.3797,22.9695 32.6338,22.9819C33.0831,23.0068 33.7657,23.1943 33.9778,23.4064C34.0278,23.4605 34.0861,23.5395 34.1357,23.6601H34.1275C34.0233,23.5146 33.7279,23.5229 33.6572,23.5312C33.5448,23.5436 33.4741,23.5395 33.3241,23.577C33.2534,23.5936 33.1452,23.6146 33.0869,23.6601C33.0411,23.6977 33.0038,23.8349 32.9328,23.8349C32.8204,23.8349 32.8287,23.806 32.7997,23.7725C32.7621,23.7267 32.7414,23.6601 32.7042,23.6643C32.5876,23.685 32.4004,23.5936 32.1632,23.4064C31.926,23.2191 31.8343,23.1733 31.5264,23.1943C31.2226,23.2191 31.1268,23.3898 31.1268,23.3898L31.1357,23.3691Z"
            stroke-width="0.134814" stroke="#C09300" />
        <path fill="#ffffff"
            d="M32.8752,23.6439C32.9459,23.6439 33,23.5898 33,23.5191C33,23.4484 32.9459,23.3943 32.8752,23.3943C32.8086,23.3943 32.7504,23.4484 32.7504,23.5191C32.7504,23.5898 32.8086,23.6439 32.8752,23.6439Z" />
        <path fill="#00000000" fill-rule="evenodd"
            d="M35.8889,29.6077C35.859,29.6096 35.829,29.6105 35.7988,29.6105C35.14,29.6105 33.6104,29.2727 33.0207,28.7661C32.403,29.2342 30.8479,29.6105 30.1999,29.6105C30.1697,29.6105 30.1394,29.6067 30.1098,29.6013C30.1082,29.749 30.1158,29.9019 30.1251,30.041C30.1591,30.561 30.2505,31.0832 30.389,31.5856C30.8249,33.1665 31.7174,34.5099 32.9971,35.5291C34.2778,34.5092 35.1712,33.1643 35.6081,31.5821C35.7469,31.08 35.8383,30.5581 35.873,30.0378C35.8825,29.9019 35.8899,29.7525 35.8889,29.6077Z"
            stroke-width="0.0971781" stroke="#C09300" />
    </g>
</svg>
