<svg id="vector" xmlns="http://www.w3.org/2000/svg" width="40" height="40" viewBox="0 0 66 66">
    <defs>
        <clipPath id="clip_path_0">
            <circle cx="33" cy="33" r="31.6" />
        </clipPath>
    </defs>
    <circle cx="33" cy="33" r="32" fill="transparent" stroke="#F5F5F5" stroke-width="1" />
    <g id="g_0" clip-path="url(#clip_path_0)">
        <path fill="#DB161B" d="M128.364,1.2119H1.2119V64.7881H128.364V1.2119Z" />
        <path fill="#ffffff" d="M128.364,1.2119H33V22.404H128.364V1.2119Z" />
        <path fill="#008000" d="M128.364,43.596H33V64.7881H128.364V43.596Z" />
        <path fill="#ffffff"
            d="M8.5304,12.0877H11.9465C12.1347,12.0877 12.2873,12.231 12.2873,12.4073V14.0166C12.2873,14.1929 12.1347,14.3362 11.9465,14.3362H8.5304C8.3422,14.3362 8.1896,14.1934 8.1896,14.0166V12.4073C8.19,12.231 8.3422,12.0877 8.5304,12.0877Z"
            stroke-width="0.0600583" stroke="#DB161B" />
        <path fill="#ffffff"
            d="M8.6181,12.181H11.8588C12.0372,12.181 12.1822,12.3119 12.1822,12.4738V13.9488C12.1822,14.1107 12.0377,14.2417 11.8588,14.2417H8.6181C8.4397,14.2417 8.2947,14.1107 8.2947,13.9488V12.4738C8.2951,12.3119 8.4397,12.181 8.6181,12.181Z"
            stroke-width="0.0559894" stroke="#DB161B" />
        <path fill="#ffffff"
            d="M10.1024,12.7438L10.2986,12.7501L10.3075,12.8391L10.4682,12.9209L10.5932,12.8192L10.7445,12.9006L10.6021,12.9896L10.6377,13.1125L10.8162,13.1062V13.2702L10.6737,13.2626L10.6025,13.3655L10.7632,13.4821L10.6381,13.5775L10.5042,13.4745L10.308,13.516L10.3169,13.6665L10.1028,13.68L10.0761,13.5359L9.8977,13.4609L9.7994,13.5639L9.6476,13.4889L9.7371,13.3723L9.6298,13.2973H9.4781L9.4692,13.0854L9.6209,13.099L9.7277,12.976L9.6027,12.8807L9.7633,12.7705L9.8791,12.8595L10.0753,12.8328L10.1024,12.7438Z"
            stroke-width="0.0353483" stroke="#DB161B" />
        <path fill="#ffffff"
            d="M10.1618,13.6114C10.3958,13.6114 10.5856,13.4217 10.5856,13.1876C10.5856,12.9535 10.3958,12.7637 10.1618,12.7637C9.9277,12.7637 9.7379,12.9535 9.7379,13.1876C9.7379,13.4217 9.9277,13.6114 10.1618,13.6114Z"
            stroke-width="0.211921" stroke="#DB161B" />
        <path fill="#00000000" d="M8.8203,12.2755L8.5049,12.5561" stroke-width="0.0559894"
            stroke="#DB161B" />
        <path fill="#00000000" d="M9.0305,12.2755L8.7152,12.5561" stroke-width="0.0559894"
            stroke="#DB161B" />
        <path fill="#00000000" d="M9.2403,12.2755L8.9254,12.5561" stroke-width="0.0559894"
            stroke="#DB161B" />
        <path fill="#00000000" d="M9.4506,12.2755L9.1352,12.5561" stroke-width="0.0559894"
            stroke="#DB161B" />
        <path fill="#00000000" d="M9.6608,12.2755L9.3454,12.5561" stroke-width="0.0559894"
            stroke="#DB161B" />
        <path fill="#00000000" d="M9.8706,12.2755L9.5556,12.5561" stroke-width="0.0559894"
            stroke="#DB161B" />
        <path fill="#00000000" d="M10.0812,12.2755L9.7659,12.5561" stroke-width="0.0559894"
            stroke="#DB161B" />
        <path fill="#00000000" d="M10.291,12.2755L9.9757,12.5561" stroke-width="0.0559894"
            stroke="#DB161B" />
        <path fill="#00000000" d="M10.5012,12.2755L10.1859,12.5561" stroke-width="0.0559894"
            stroke="#DB161B" />
        <path fill="#00000000" d="M10.7115,12.2755L10.3961,12.5561" stroke-width="0.0559894"
            stroke="#DB161B" />
        <path fill="#00000000" d="M10.9213,12.2755L10.6059,12.5561" stroke-width="0.0559894"
            stroke="#DB161B" />
        <path fill="#00000000" d="M11.1319,12.2755L10.8166,12.5561" stroke-width="0.0559894"
            stroke="#DB161B" />
        <path fill="#00000000" d="M10.291,12.2755L9.9757,12.5561" stroke-width="0.0559894"
            stroke="#DB161B" />
        <path fill="#00000000" d="M11.3417,12.2755L11.0264,12.5561" stroke-width="0.0559894"
            stroke="#DB161B" />
        <path fill="#00000000" d="M11.552,12.2755L11.2366,12.5561" stroke-width="0.0559894"
            stroke="#DB161B" />
        <path fill="#00000000" d="M11.7622,12.2755L11.4468,12.5561" stroke-width="0.0559894"
            stroke="#DB161B" />
        <path fill="#00000000" d="M11.972,12.2755L11.6566,12.5561" stroke-width="0.0559894"
            stroke="#DB161B" />
        <path fill="#00000000" d="M11.6571,12.2755L11.9724,12.5561" stroke-width="0.0559894"
            stroke="#DB161B" />
        <path fill="#00000000" d="M11.4468,12.2755L11.7622,12.5561" stroke-width="0.0559894"
            stroke="#DB161B" />
        <path fill="#00000000" d="M11.2366,12.2755L11.552,12.5561" stroke-width="0.0559894"
            stroke="#DB161B" />
        <path fill="#00000000" d="M11.0264,12.2755L11.3417,12.5561" stroke-width="0.0559894"
            stroke="#DB161B" />
        <path fill="#00000000" d="M10.8162,12.2755L11.1315,12.5561" stroke-width="0.0559894"
            stroke="#DB161B" />
        <path fill="#00000000" d="M10.6064,12.2755L10.9217,12.5561" stroke-width="0.0559894"
            stroke="#DB161B" />
        <path fill="#00000000" d="M10.3961,12.2755L10.7115,12.5561" stroke-width="0.0559894"
            stroke="#DB161B" />
        <path fill="#00000000" d="M10.1863,12.2755L10.5017,12.5561" stroke-width="0.0559894"
            stroke="#DB161B" />
        <path fill="#00000000" d="M9.9757,12.2755L10.291,12.5561" stroke-width="0.0559894"
            stroke="#DB161B" />
        <path fill="#00000000" d="M9.7659,12.2755L10.0812,12.5561" stroke-width="0.0559894"
            stroke="#DB161B" />
        <path fill="#00000000" d="M9.5556,12.2755L9.871,12.5561" stroke-width="0.0559894"
            stroke="#DB161B" />
        <path fill="#00000000" d="M9.3454,12.2755L9.6608,12.5561" stroke-width="0.0559894"
            stroke="#DB161B" />
        <path fill="#00000000" d="M10.1863,12.2755L10.5017,12.5561" stroke-width="0.0559894"
            stroke="#DB161B" />
        <path fill="#00000000" d="M9.1356,12.2755L9.451,12.5561" stroke-width="0.0559894"
            stroke="#DB161B" />
        <path fill="#00000000" d="M8.9254,12.2755L9.2403,12.5561" stroke-width="0.0559894"
            stroke="#DB161B" />
        <path fill="#00000000" d="M8.7152,12.2755L9.0305,12.5561" stroke-width="0.0559894"
            stroke="#DB161B" />
        <path fill="#00000000" d="M8.5049,12.2755L8.8203,12.5561" stroke-width="0.0559894"
            stroke="#DB161B" />
        <path fill="#00000000" d="M8.8203,13.8665L8.5049,14.1484" stroke-width="0.0559894"
            stroke="#DB161B" />
        <path fill="#00000000" d="M9.0305,13.8665L8.7152,14.1484" stroke-width="0.0559894"
            stroke="#DB161B" />
        <path fill="#00000000" d="M9.2403,13.8665L8.9254,14.1484" stroke-width="0.0559894"
            stroke="#DB161B" />
        <path fill="#00000000" d="M9.4506,13.8665L9.1352,14.1484" stroke-width="0.0559894"
            stroke="#DB161B" />
        <path fill="#00000000" d="M9.6608,13.8665L9.3454,14.1484" stroke-width="0.0559894"
            stroke="#DB161B" />
        <path fill="#00000000" d="M9.8706,13.8665L9.5556,14.1484" stroke-width="0.0559894"
            stroke="#DB161B" />
        <path fill="#00000000" d="M10.0812,13.8665L9.7659,14.1484" stroke-width="0.0559894"
            stroke="#DB161B" />
        <path fill="#00000000" d="M10.291,13.8665L9.9757,14.1484" stroke-width="0.0559894"
            stroke="#DB161B" />
        <path fill="#00000000" d="M10.5012,13.8665L10.1859,14.1484" stroke-width="0.0559894"
            stroke="#DB161B" />
        <path fill="#00000000" d="M10.7115,13.8665L10.3961,14.1484" stroke-width="0.0559894"
            stroke="#DB161B" />
        <path fill="#00000000" d="M10.9213,13.8665L10.6059,14.1484" stroke-width="0.0559894"
            stroke="#DB161B" />
        <path fill="#00000000" d="M11.1319,13.8665L10.8166,14.1484" stroke-width="0.0559894"
            stroke="#DB161B" />
        <path fill="#00000000" d="M10.291,13.8665L9.9757,14.1484" stroke-width="0.0559894"
            stroke="#DB161B" />
        <path fill="#00000000" d="M11.3417,13.8665L11.0264,14.1484" stroke-width="0.0559894"
            stroke="#DB161B" />
        <path fill="#00000000" d="M11.552,13.8665L11.2366,14.1484" stroke-width="0.0559894"
            stroke="#DB161B" />
        <path fill="#00000000" d="M11.7622,13.8665L11.4468,14.1484" stroke-width="0.0559894"
            stroke="#DB161B" />
        <path fill="#00000000" d="M11.972,13.8665L11.6566,14.1484" stroke-width="0.0559894"
            stroke="#DB161B" />
        <path fill="#00000000" d="M11.6571,13.8665L11.9724,14.1484" stroke-width="0.0559894"
            stroke="#DB161B" />
        <path fill="#00000000" d="M11.4468,13.8665L11.7622,14.1484" stroke-width="0.0559894"
            stroke="#DB161B" />
        <path fill="#00000000" d="M11.2366,13.8665L11.552,14.1484" stroke-width="0.0559894"
            stroke="#DB161B" />
        <path fill="#00000000" d="M11.0264,13.8665L11.3417,14.1484" stroke-width="0.0559894"
            stroke="#DB161B" />
        <path fill="#00000000" d="M10.8162,13.8665L11.1315,14.1484" stroke-width="0.0559894"
            stroke="#DB161B" />
        <path fill="#00000000" d="M10.6064,13.8665L10.9217,14.1484" stroke-width="0.0559894"
            stroke="#DB161B" />
        <path fill="#00000000" d="M10.3961,13.8665L10.7115,14.1484" stroke-width="0.0559894"
            stroke="#DB161B" />
        <path fill="#00000000" d="M10.1863,13.8665L10.5017,14.1484" stroke-width="0.0559894"
            stroke="#DB161B" />
        <path fill="#00000000" d="M9.9757,13.8665L10.291,14.1484" stroke-width="0.0559894"
            stroke="#DB161B" />
        <path fill="#00000000" d="M9.7659,13.8665L10.0812,14.1484" stroke-width="0.0559894"
            stroke="#DB161B" />
        <path fill="#00000000" d="M9.5556,13.8665L9.871,14.1484" stroke-width="0.0559894"
            stroke="#DB161B" />
        <path fill="#00000000" d="M9.3454,13.8665L9.6608,14.1484" stroke-width="0.0559894"
            stroke="#DB161B" />
        <path fill="#00000000" d="M10.1863,13.8665L10.5017,14.1484" stroke-width="0.0559894"
            stroke="#DB161B" />
        <path fill="#00000000" d="M9.1356,13.8665L9.451,14.1484" stroke-width="0.0559894"
            stroke="#DB161B" />
        <path fill="#00000000" d="M8.9254,13.8665L9.2403,14.1484" stroke-width="0.0559894"
            stroke="#DB161B" />
        <path fill="#00000000" d="M8.7152,13.8665L9.0305,14.1484" stroke-width="0.0559894"
            stroke="#DB161B" />
        <path fill="#00000000" d="M8.5049,13.8665L8.8203,14.1484" stroke-width="0.0559894"
            stroke="#DB161B" />
        <path fill="#ffffff"
            d="M25.6815,12.0877H22.2654C22.0772,12.0877 21.9246,12.231 21.9246,12.4073V14.0166C21.9246,14.1929 22.0772,14.3362 22.2654,14.3362H25.6815C25.8697,14.3362 26.0223,14.1934 26.0223,14.0166V12.4073C26.0219,12.231 25.8693,12.0877 25.6815,12.0877Z"
            stroke-width="0.0600583" stroke="#DB161B" />
        <path fill="#ffffff"
            d="M25.5938,12.181H22.3531C22.1747,12.181 22.0297,12.3119 22.0297,12.4738V13.9488C22.0297,14.1107 22.1747,14.2417 22.3531,14.2417H25.5938C25.7722,14.2417 25.9172,14.1107 25.9172,13.9488V12.4738C25.9172,12.3119 25.7722,12.181 25.5938,12.181Z"
            stroke-width="0.0559894" stroke="#DB161B" />
        <path fill="#ffffff"
            d="M24.1095,12.7438L23.9133,12.7501L23.9044,12.8391L23.7437,12.9209L23.6187,12.8192L23.467,12.9006L23.6098,12.9896L23.5742,13.1125L23.3958,13.1062V13.2702L23.5386,13.2626L23.6098,13.3655L23.4492,13.4821L23.5738,13.5775L23.7077,13.4745L23.9039,13.516L23.895,13.6665L24.1091,13.68L24.1358,13.5359L24.3142,13.4609L24.4121,13.5639L24.5639,13.4889L24.4749,13.3723L24.5817,13.2973H24.7334L24.7423,13.0854L24.5906,13.099L24.4838,12.976L24.6088,12.8807L24.4482,12.7705L24.332,12.8595L24.1358,12.8328L24.1095,12.7438Z"
            stroke-width="0.0353483" stroke="#DB161B" />
        <path fill="#ffffff"
            d="M24.0502,13.6114C24.2842,13.6114 24.474,13.4217 24.474,13.1876C24.474,12.9535 24.2842,12.7637 24.0502,12.7637C23.8161,12.7637 23.6263,12.9535 23.6263,13.1876C23.6263,13.4217 23.8161,13.6114 24.0502,13.6114Z"
            stroke-width="0.211921" stroke="#DB161B" />
        <path fill="#00000000" d="M25.3921,12.2755L25.707,12.5561" stroke-width="0.0559894"
            stroke="#DB161B" />
        <path fill="#00000000" d="M25.1814,12.2755L25.4967,12.5561" stroke-width="0.0559894"
            stroke="#DB161B" />
        <path fill="#00000000" d="M24.9716,12.2755L25.2869,12.5561" stroke-width="0.0559894"
            stroke="#DB161B" />
        <path fill="#00000000" d="M24.7614,12.2755L25.0763,12.5561" stroke-width="0.0559894"
            stroke="#DB161B" />
        <path fill="#00000000" d="M24.5511,12.2755L24.8665,12.5561" stroke-width="0.0559894"
            stroke="#DB161B" />
        <path fill="#00000000" d="M24.3413,12.2755L24.6567,12.5561" stroke-width="0.0559894"
            stroke="#DB161B" />
        <path fill="#00000000" d="M24.1307,12.2755L24.446,12.5561" stroke-width="0.0559894"
            stroke="#DB161B" />
        <path fill="#00000000" d="M23.9209,12.2755L24.2363,12.5561" stroke-width="0.0559894"
            stroke="#DB161B" />
        <path fill="#00000000" d="M23.7107,12.2755L24.026,12.5561" stroke-width="0.0559894"
            stroke="#DB161B" />
        <path fill="#00000000" d="M23.5005,12.2755L23.8158,12.5561" stroke-width="0.0559894"
            stroke="#DB161B" />
        <path fill="#00000000" d="M23.2906,12.2755L23.606,12.5561" stroke-width="0.0559894"
            stroke="#DB161B" />
        <path fill="#00000000" d="M23.0804,12.2755L23.3958,12.5561" stroke-width="0.0559894"
            stroke="#DB161B" />
        <path fill="#00000000" d="M23.9209,12.2755L24.2363,12.5561" stroke-width="0.0559894"
            stroke="#DB161B" />
        <path fill="#00000000" d="M22.8702,12.2755L23.1855,12.5561" stroke-width="0.0559894"
            stroke="#DB161B" />
        <path fill="#00000000" d="M22.66,12.2755L22.9753,12.5561" stroke-width="0.0559894"
            stroke="#DB161B" />
        <path fill="#00000000" d="M22.4502,12.2755L22.7655,12.5561" stroke-width="0.0559894"
            stroke="#DB161B" />
        <path fill="#00000000" d="M22.2399,12.2755L22.5553,12.5561" stroke-width="0.0559894"
            stroke="#DB161B" />
        <path fill="#00000000" d="M22.5553,12.2755L22.2399,12.5561" stroke-width="0.0559894"
            stroke="#DB161B" />
        <path fill="#00000000" d="M22.7651,12.2755L22.4497,12.5561" stroke-width="0.0559894"
            stroke="#DB161B" />
        <path fill="#00000000" d="M22.9753,12.2755L22.66,12.5561" stroke-width="0.0559894"
            stroke="#DB161B" />
        <path fill="#00000000" d="M23.1855,12.2755L22.8702,12.5561" stroke-width="0.0559894"
            stroke="#DB161B" />
        <path fill="#00000000" d="M23.3958,12.2755L23.0804,12.5561" stroke-width="0.0559894"
            stroke="#DB161B" />
        <path fill="#00000000" d="M23.6056,12.2755L23.2902,12.5561" stroke-width="0.0559894"
            stroke="#DB161B" />
        <path fill="#00000000" d="M23.8158,12.2755L23.5005,12.5561" stroke-width="0.0559894"
            stroke="#DB161B" />
        <path fill="#00000000" d="M24.026,12.2755L23.7107,12.5561" stroke-width="0.0559894"
            stroke="#DB161B" />
        <path fill="#00000000" d="M24.2358,12.2755L23.9205,12.5561" stroke-width="0.0559894"
            stroke="#DB161B" />
        <path fill="#00000000" d="M24.4465,12.2755L24.1311,12.5561" stroke-width="0.0559894"
            stroke="#DB161B" />
        <path fill="#00000000" d="M24.6563,12.2755L24.3409,12.5561" stroke-width="0.0559894"
            stroke="#DB161B" />
        <path fill="#00000000" d="M24.8665,12.2755L24.5511,12.5561" stroke-width="0.0559894"
            stroke="#DB161B" />
        <path fill="#00000000" d="M24.026,12.2755L23.7107,12.5561" stroke-width="0.0559894"
            stroke="#DB161B" />
        <path fill="#00000000" d="M25.0763,12.2755L24.7614,12.5561" stroke-width="0.0559894"
            stroke="#DB161B" />
        <path fill="#00000000" d="M25.2865,12.2755L24.9712,12.5561" stroke-width="0.0559894"
            stroke="#DB161B" />
        <path fill="#00000000" d="M25.4967,12.2755L25.1814,12.5561" stroke-width="0.0559894"
            stroke="#DB161B" />
        <path fill="#00000000" d="M25.707,12.2755L25.3921,12.5561" stroke-width="0.0559894"
            stroke="#DB161B" />
        <path fill="#00000000" d="M25.3921,13.8665L25.707,14.1484" stroke-width="0.0559894"
            stroke="#DB161B" />
        <path fill="#00000000" d="M25.1814,13.8665L25.4967,14.1484" stroke-width="0.0559894"
            stroke="#DB161B" />
        <path fill="#00000000" d="M24.9716,13.8665L25.2869,14.1484" stroke-width="0.0559894"
            stroke="#DB161B" />
        <path fill="#00000000" d="M24.7614,13.8665L25.0763,14.1484" stroke-width="0.0559894"
            stroke="#DB161B" />
        <path fill="#00000000" d="M24.5511,13.8665L24.8665,14.1484" stroke-width="0.0559894"
            stroke="#DB161B" />
        <path fill="#00000000" d="M24.3413,13.8665L24.6567,14.1484" stroke-width="0.0559894"
            stroke="#DB161B" />
        <path fill="#00000000" d="M24.1307,13.8665L24.446,14.1484" stroke-width="0.0559894"
            stroke="#DB161B" />
        <path fill="#00000000" d="M23.9209,13.8665L24.2363,14.1484" stroke-width="0.0559894"
            stroke="#DB161B" />
        <path fill="#00000000" d="M23.7107,13.8665L24.026,14.1484" stroke-width="0.0559894"
            stroke="#DB161B" />
        <path fill="#00000000" d="M23.5005,13.8665L23.8158,14.1484" stroke-width="0.0559894"
            stroke="#DB161B" />
        <path fill="#00000000" d="M23.2906,13.8665L23.606,14.1484" stroke-width="0.0559894"
            stroke="#DB161B" />
        <path fill="#00000000" d="M23.0804,13.8665L23.3958,14.1484" stroke-width="0.0559894"
            stroke="#DB161B" />
        <path fill="#00000000" d="M23.9209,13.8665L24.2363,14.1484" stroke-width="0.0559894"
            stroke="#DB161B" />
        <path fill="#00000000" d="M22.8702,13.8665L23.1855,14.1484" stroke-width="0.0559894"
            stroke="#DB161B" />
        <path fill="#00000000" d="M22.66,13.8665L22.9753,14.1484" stroke-width="0.0559894"
            stroke="#DB161B" />
        <path fill="#00000000" d="M22.4502,13.8665L22.7655,14.1484" stroke-width="0.0559894"
            stroke="#DB161B" />
        <path fill="#00000000" d="M22.2399,13.8665L22.5553,14.1484" stroke-width="0.0559894"
            stroke="#DB161B" />
        <path fill="#00000000" d="M22.5553,13.8665L22.2399,14.1484" stroke-width="0.0559894"
            stroke="#DB161B" />
        <path fill="#00000000" d="M22.7651,13.8665L22.4497,14.1484" stroke-width="0.0559894"
            stroke="#DB161B" />
        <path fill="#00000000" d="M22.9753,13.8665L22.66,14.1484" stroke-width="0.0559894"
            stroke="#DB161B" />
        <path fill="#00000000" d="M23.1855,13.8665L22.8702,14.1484" stroke-width="0.0559894"
            stroke="#DB161B" />
        <path fill="#00000000" d="M23.3958,13.8665L23.0804,14.1484" stroke-width="0.0559894"
            stroke="#DB161B" />
        <path fill="#00000000" d="M23.6056,13.8665L23.2902,14.1484" stroke-width="0.0559894"
            stroke="#DB161B" />
        <path fill="#00000000" d="M23.8158,13.8665L23.5005,14.1484" stroke-width="0.0559894"
            stroke="#DB161B" />
        <path fill="#00000000" d="M24.026,13.8665L23.7107,14.1484" stroke-width="0.0559894"
            stroke="#DB161B" />
        <path fill="#00000000" d="M24.2358,13.8665L23.9205,14.1484" stroke-width="0.0559894"
            stroke="#DB161B" />
        <path fill="#00000000" d="M24.4465,13.8665L24.1311,14.1484" stroke-width="0.0559894"
            stroke="#DB161B" />
        <path fill="#00000000" d="M24.6563,13.8665L24.3409,14.1484" stroke-width="0.0559894"
            stroke="#DB161B" />
        <path fill="#00000000" d="M24.8665,13.8665L24.5511,14.1484" stroke-width="0.0559894"
            stroke="#DB161B" />
        <path fill="#00000000" d="M24.026,13.8665L23.7107,14.1484" stroke-width="0.0559894"
            stroke="#DB161B" />
        <path fill="#00000000" d="M25.0763,13.8665L24.7614,14.1484" stroke-width="0.0559894"
            stroke="#DB161B" />
        <path fill="#00000000" d="M25.2865,13.8665L24.9712,14.1484" stroke-width="0.0559894"
            stroke="#DB161B" />
        <path fill="#00000000" d="M25.4967,13.8665L25.1814,14.1484" stroke-width="0.0559894"
            stroke="#DB161B" />
        <path fill="#00000000" d="M25.707,13.8665L25.3921,14.1484" stroke-width="0.0559894"
            stroke="#DB161B" />
        <path fill="#ffffff"
            d="M14.6172,16.8008C9.5192,21.786 7.3441,22.4167 8.3651,22.8185C9.3857,23.2203 12.6688,20.6471 16.0849,17.2288C19.5011,13.8114 21.5927,10.7699 20.5721,10.3681C19.5515,9.9663 20.0389,11.4981 14.6172,16.8008Z"
            stroke-width="0.0897695" stroke="#DB161B" />
        <path fill="#ffffff"
            d="M10.3254,20.4234L12.111,20.8917C10.4305,22.4845 8.5393,23.1402 8.0141,22.8596C7.4886,22.5791 8.9597,21.923 10.3254,20.4234Z"
            stroke-width="0.0699762" stroke="#DB161B" />
        <path fill="#ffffff"
            d="M10.3254,20.6111L11.7961,20.9862C10.1588,22.5176 8.5393,22.9529 8.1201,22.7664C7.6988,22.579 8.9949,22.0522 10.3254,20.6111Z"
            stroke-width="0.0699762" stroke="#DB161B" />
        <path fill="#00000000"
            d="M15.812,16.5825C15.8077,16.6071 15.7959,16.7139 15.7853,16.7563C15.7853,16.8156 15.7789,16.8601 15.7726,16.9068C15.7556,16.947 15.7586,16.9839 15.7069,16.9992C15.6721,17.0479 15.6497,17.0606 15.603,17.0805C15.5712,17.1051 15.5225,17.1293 15.4716,17.1496C15.4195,17.1695 15.372,17.1717 15.3157,17.1615C15.269,17.1327 15.236,17.1043 15.1983,17.081C15.1889,17.0441 15.1813,16.9898 15.1716,16.9538C15.1851,16.9911 15.1961,17.0504 15.1983,17.1034C15.1928,17.1619 15.1716,17.1873 15.1461,17.2306"
            stroke-width="0.0699762" stroke="#DB161B" />
        <path fill="#00000000"
            d="M15.3292,17.3573C15.325,17.3539 15.3208,17.3497 15.3165,17.3455C15.3475,17.373 15.3343,17.3603 15.2635,17.3234C15.2135,17.3001 15.1597,17.2874 15.094,17.2768H14.9117C14.841,17.2768 14.7931,17.2861 14.7422,17.3001C14.7053,17.3327 14.6502,17.351 14.6117,17.3806C14.5714,17.4052 14.5544,17.4336 14.5333,17.473C14.4972,17.5048 14.4739,17.5536 14.4413,17.5781C14.4273,17.6311 14.3968,17.629 14.3769,17.6705C14.4383,17.6748 14.4879,17.682 14.5197,17.7159C14.5748,17.7413 14.4743,17.6917 14.4548,17.6705C14.4116,17.6587 14.401,17.6472 14.3374,17.6472C14.2781,17.6303 14.2421,17.6608 14.1806,17.6705C14.1454,17.6883 14.1353,17.6939 14.0895,17.6939"
            stroke-width="0.0699762" stroke="#DB161B" />
        <path fill="#00000000"
            d="M14.6244,17.9358C14.5977,17.9367 14.476,17.957 14.4286,17.9358C14.3756,17.9231 14.3438,17.8977 14.3107,17.854C14.2946,17.8235 14.3107,17.9104 14.3107,17.9473C14.3056,18.0151 14.2823,18.0159 14.2463,18.0626C14.2082,18.0838 14.1679,18.1147 14.1289,18.1312C14.0958,18.1567 14.0556,18.1736 14.0111,18.1893C13.9721,18.2054 13.9255,18.2224 13.8937,18.2465C13.85,18.2741 13.8542,18.308 13.8292,18.3504C13.8335,18.4076 13.8441,18.4394 13.8809,18.4669C13.8958,18.5051 13.931,18.5445 13.9594,18.5708C13.9911,18.6237 14.0272,18.6479 13.9458,18.6631C13.9013,18.6801 13.8767,18.6661 13.8292,18.6631"
            stroke-width="0.0699762" stroke="#DB161B" />
        <path fill="#00000000"
            d="M13.8021,18.7441C13.7703,18.7378 13.6559,18.7038 13.6059,18.6869H13.4236C13.3529,18.6911 13.3389,18.7102 13.2795,18.7322C13.2414,18.7674 13.2151,18.7916 13.1621,18.814C13.1346,18.8458 13.0795,18.8997 13.0583,18.9412C13.0426,18.9806 13.0316,19.0336 13.0316,19.0917C13.0324,19.1582 13.0528,19.1701 13.0583,19.2303C13.0731,19.279 13.0964,19.3248 13.1367,19.368C13.1422,19.3828 13.146,19.3871 13.1621,19.3913"
            stroke-width="0.0699762" stroke="#DB161B" />
        <path fill="#00000000"
            d="M13.1803,19.543C13.1753,19.543 13.1621,19.5727 13.1435,19.5981C13.1019,19.6405 13.0968,19.6435 13.032,19.6435C12.9748,19.6413 12.9799,19.6214 12.94,19.6062C12.921,19.5778 12.8964,19.5544 12.8756,19.515C12.8608,19.4917 12.8468,19.4544 12.829,19.4332C12.812,19.4057 12.7908,19.3858 12.773,19.3603C12.7561,19.3527 12.7497,19.3455 12.7277,19.3425C12.7807,19.351 12.7849,19.3692 12.8197,19.3964C12.8358,19.4231 12.8527,19.4493 12.8663,19.479C12.8714,19.5184 12.8841,19.5489 12.8841,19.5977C12.8841,19.6473 12.8841,19.6833 12.8663,19.7248C12.8438,19.7481 12.8281,19.7715 12.8014,19.7897C12.7794,19.81 12.7527,19.8376 12.7357,19.8617C12.7073,19.8795 12.6857,19.8948 12.6531,19.9168C12.6247,19.9325 12.595,19.9495 12.5514,19.9537C12.4963,19.9495 12.4802,19.9346 12.4399,19.9168C12.4047,19.8914 12.3776,19.8753 12.3466,19.8533C12.3221,19.8363 12.2979,19.8037 12.2818,19.7804C12.2322,19.7676 12.2004,19.7727 12.1708,19.7982C12.1453,19.8151 12.1229,19.8376 12.1059,19.8617C12.0902,19.8694 12.0656,19.8914 12.05,19.899"
            stroke-width="0.0699762" stroke="#DB161B" />
        <path fill="#00000000"
            d="M12.1597,19.9203C12.1746,19.9266 12.2276,19.9639 12.2517,19.9775C12.2665,20.0254 12.2899,20.0517 12.2971,20.1025C12.3098,20.1521 12.3089,20.2064 12.3089,20.2623C12.2962,20.3204 12.2716,20.3632 12.2517,20.4094C12.2148,20.4348 12.1966,20.4518 12.1479,20.4785C12.1025,20.4848 12.0567,20.4904 11.9983,20.4904C11.9622,20.5018 11.8944,20.5073 11.8597,20.4904C11.8088,20.4827 11.7702,20.4628 11.7329,20.4446C11.6901,20.4204 11.6643,20.398 11.6176,20.3759C11.5952,20.3429 11.56,20.3136 11.5257,20.2729C11.4973,20.2348 11.4761,20.2136 11.4566,20.1712C11.4735,20.2199 11.4994,20.2623 11.5142,20.3081C11.5405,20.356 11.5558,20.3738 11.56,20.4331C11.5761,20.481 11.5714,20.5382 11.5714,20.5921C11.5664,20.6294 11.5638,20.6993 11.5481,20.729V20.7642"
            stroke-width="0.0699762" stroke="#DB161B" />
        <path fill="#00000000"
            d="M10.4563,20.9447V20.9616C10.4563,20.9171 10.455,20.9396 10.4745,21.0273C10.5097,21.0667 10.5915,21.0769 10.6602,21.0604C10.7204,21.0167 10.7183,20.9828 10.8272,20.9616C10.9323,20.968 10.9721,20.9955 11.031,21.0273C11.101,21.0583 11.1328,21.074 11.1794,21.1426C11.2023,21.199 11.215,21.2371 11.1425,21.2583C11.0845,21.2952 11.0158,21.3155 10.9387,21.3249C10.853,21.3249 10.7912,21.3151 10.753,21.3575C10.6941,21.4113 10.6975,21.4444 10.6975,21.5385C10.6776,21.5682 10.6738,21.655 10.6606,21.6881C10.6089,21.7093 10.5788,21.7207 10.4936,21.7207C10.4737,21.6699 10.4512,21.5779 10.4381,21.5228C10.4237,21.4635 10.419,21.3808 10.3826,21.3406C10.3478,21.296 10.3037,21.2558 10.2529,21.2253C10.23,21.1969 10.1868,21.1731 10.1414,21.1596C10.2143,21.1926 10.2245,21.2287 10.2342,21.3079C10.1702,21.3363 10.1533,21.3567 10.0486,21.3575C9.946,21.3499 9.9214,21.3266 9.882,21.2749C9.8748,21.3575 9.8451,21.3851 9.8265,21.4571C9.7884,21.5067 9.7722,21.558 9.7337,21.6211C9.7502,21.7017 9.7854,21.7051 9.7892,21.8034C9.8133,21.8682 9.8108,21.9297 9.8634,21.9687C9.8871,21.9941 9.9045,21.9996 9.9562,22.0013C9.849,22.0013 9.7862,21.9907 9.7155,21.9517C9.6603,21.9221 9.6188,21.8839 9.5671,21.853C9.5014,21.8106 9.4205,21.7716 9.345,21.7534C9.2594,21.7534 9.1975,21.7449 9.1594,21.786C9.1072,21.8199 9.0716,21.8771 9.0483,21.9513C9.0314,22.0369 9.0246,22.0941 9.067,22.1497C9.0983,22.2141 9.1055,22.2387 9.067,22.315C9.0237,22.3688 8.9597,22.3756 8.8631,22.3976C8.7923,22.3942 8.7245,22.3807 8.6775,22.3646"
            stroke-width="0.0699762" stroke="#DB161B" />
        <path fill="#ffffff"
            d="M20.4344,12.3017C22.6964,8.396 24.1981,5.0731 23.7849,4.8828C23.3725,4.6929 21.2028,7.7086 18.9404,11.6134L20.4344,12.3017Z"
            stroke-width="0.0710358" stroke="#DB161B" />
        <path fill="#ffffff"
            d="M20.2848,12.2326C22.4663,8.4651 23.9701,5.2846 23.6403,5.1325C23.3106,4.9807 21.2723,7.9145 19.0891,11.6821" />
        <path fill="#00000000"
            d="M20.2848,12.2326C22.4663,8.4651 23.9701,5.2846 23.6403,5.1325C23.3106,4.9807 21.2723,7.9145 19.0891,11.6821"
            stroke-width="0.0623894" stroke="#DB161B" />
        <path fill="#ffffff"
            d="M19.9097,10.2673C19.6439,10.7076 19.3629,11.2112 19.0895,11.6821L20.2848,12.2326C20.5573,11.7613 20.8548,11.2654 21.104,10.8174L19.9097,10.2673Z"
            stroke-width="0.0708238" stroke="#DB161B" />
        <path fill="#ffffff"
            d="M20.0105,10.4195C19.7456,10.8599 19.56,11.1968 19.2879,11.6677L20.183,12.0801C20.4564,11.6092 20.6577,11.2795 20.907,10.8319L20.0105,10.4195Z"
            stroke-width="0.0708238" stroke="#DB161B" />
        <path fill="#ffffff"
            d="M20.6603,10.9294L20.0631,10.6543L19.5329,11.5698L20.1301,11.8449L20.6603,10.9294Z"
            stroke-width="0.0709934" stroke="#DB161B" />
        <path fill="#00000000" d="M20.6607,10.9297L19.5333,11.5702" stroke-width="0.0708238"
            stroke="#DB161B" />
        <path fill="#00000000" d="M20.1301,11.8449L20.0635,10.6543" stroke-width="0.0708238"
            stroke="#DB161B" />
        <path fill="#00000000" d="M23.361,6.2692L22.7634,5.9941" stroke-width="0.0708238"
            stroke="#DB161B" />
        <path fill="#DB161B"
            d="M23.7407,5.573C23.6825,5.3463 23.4515,5.2097 23.2248,5.2679C22.998,5.3262 22.8614,5.5572 22.9197,5.7839C22.9779,6.0106 23.2089,6.1472 23.4356,6.089C23.6624,6.0307 23.7989,5.7997 23.7407,5.573Z"
            stroke-width="0.21193" stroke="#DB161B" />
        <path fill="#ffffff"
            d="M19.5952,16.8008C24.6931,21.786 26.8679,22.4167 25.8473,22.8185C24.8266,23.2203 21.5436,20.6471 18.1274,17.2288C14.7113,13.8114 12.6196,10.7699 13.6402,10.3681C14.6604,9.9663 14.173,11.4981 19.5952,16.8008Z"
            stroke-width="0.0897695" stroke="#DB161B" />
        <path fill="#ffffff"
            d="M23.8866,20.4234L22.1009,20.8917C23.7815,22.4845 25.6726,23.1402 26.1982,22.8596C26.7233,22.5791 25.2522,21.923 23.8866,20.4234Z"
            stroke-width="0.0699762" stroke="#DB161B" />
        <path fill="#ffffff"
            d="M23.8866,20.6111L22.4158,20.9862C24.0531,22.5176 25.6726,22.9529 26.0918,22.7664C26.5131,22.579 25.217,22.0522 23.8866,20.6111Z"
            stroke-width="0.0699762" stroke="#DB161B" />
        <path fill="#00000000"
            d="M18.3995,16.5825C18.4038,16.6071 18.4156,16.7139 18.4262,16.7563C18.4262,16.8156 18.4326,16.8601 18.4389,16.9068C18.4559,16.947 18.4525,16.9839 18.5046,16.9992C18.5398,17.0479 18.5619,17.0606 18.6085,17.0805C18.6403,17.1051 18.689,17.1293 18.7399,17.1496C18.792,17.1695 18.8395,17.1717 18.8954,17.1615C18.942,17.1327 18.9751,17.1043 19.0132,17.081C19.0226,17.0441 19.0302,16.9898 19.0399,16.9538C19.026,16.9911 19.0154,17.0504 19.0132,17.1034C19.0183,17.1619 19.0399,17.1873 19.0654,17.2306"
            stroke-width="0.0699762" stroke="#DB161B" />
        <path fill="#00000000"
            d="M18.8831,17.3573C18.8874,17.3539 18.8916,17.3497 18.8958,17.3455C18.8653,17.373 18.878,17.3603 18.9488,17.3234C18.9988,17.3001 19.0527,17.2874 19.1184,17.2768H19.3006C19.3714,17.2768 19.4193,17.2861 19.4701,17.3001C19.5074,17.3327 19.5625,17.351 19.6007,17.3806C19.6409,17.4052 19.6579,17.4336 19.6791,17.473C19.7151,17.5048 19.7384,17.5536 19.7715,17.5781C19.7851,17.6311 19.816,17.629 19.8359,17.6705C19.7745,17.6748 19.7244,17.682 19.6931,17.7159C19.638,17.7413 19.7384,17.6917 19.7575,17.6705C19.8007,17.6587 19.8113,17.6472 19.8749,17.6472C19.9342,17.6303 19.9703,17.6608 20.0317,17.6705C20.0669,17.6883 20.0771,17.6939 20.1229,17.6939"
            stroke-width="0.0699762" stroke="#DB161B" />
        <path fill="#00000000"
            d="M19.5876,17.9358C19.6143,17.9367 19.7359,17.957 19.7834,17.9358C19.8364,17.9231 19.8681,17.8977 19.9008,17.854C19.9169,17.8235 19.9008,17.9104 19.9008,17.9473C19.9063,18.0151 19.9296,18.0159 19.9656,18.0626C20.0038,18.0838 20.044,18.1147 20.083,18.1312C20.1161,18.1567 20.1559,18.1736 20.2004,18.1893C20.2398,18.2054 20.2865,18.2224 20.3183,18.2465C20.3615,18.2741 20.3573,18.308 20.3827,18.3504C20.3784,18.4076 20.3678,18.4394 20.3305,18.4669C20.3157,18.5051 20.2805,18.5445 20.2521,18.5708C20.2203,18.6237 20.1843,18.6479 20.2661,18.6631C20.3106,18.6801 20.3352,18.6661 20.3827,18.6631"
            stroke-width="0.0699762" stroke="#DB161B" />
        <path fill="#00000000"
            d="M20.4098,18.7441C20.4416,18.7378 20.556,18.7038 20.6056,18.6869H20.7879C20.8587,18.6911 20.8726,18.7102 20.932,18.7322C20.9701,18.7674 20.9964,18.7916 21.0494,18.814C21.0769,18.8458 21.132,18.8997 21.1532,18.9412C21.1693,18.9806 21.1799,19.0336 21.1799,19.0917C21.1791,19.1582 21.1587,19.1701 21.1532,19.2303C21.1384,19.279 21.1151,19.3248 21.0748,19.368C21.0697,19.3828 21.0655,19.3871 21.0494,19.3913"
            stroke-width="0.0699762" stroke="#DB161B" />
        <path fill="#00000000"
            d="M21.0316,19.543C21.0371,19.543 21.0494,19.5727 21.0689,19.5981C21.11,19.6405 21.1155,19.6435 21.1799,19.6435C21.2371,19.6413 21.2321,19.6214 21.2723,19.6062C21.2914,19.5778 21.316,19.5544 21.3368,19.515C21.3516,19.4917 21.3651,19.4544 21.3834,19.4332C21.4003,19.4057 21.4215,19.3858 21.4397,19.3603C21.4567,19.3527 21.4631,19.3455 21.4851,19.3425C21.4321,19.351 21.4279,19.3692 21.3927,19.3964C21.3766,19.4231 21.3601,19.4493 21.3461,19.479C21.3406,19.5184 21.3283,19.5489 21.3283,19.5977C21.3283,19.6473 21.3283,19.6833 21.3461,19.7248C21.3685,19.7481 21.3842,19.7715 21.4105,19.7897C21.433,19.81 21.4592,19.8376 21.4762,19.8617C21.5046,19.8795 21.5258,19.8948 21.5588,19.9168C21.5872,19.9325 21.6173,19.9495 21.6606,19.9537C21.7157,19.9495 21.7318,19.9346 21.7716,19.9168C21.8068,19.8914 21.8339,19.8753 21.8649,19.8533C21.8894,19.8363 21.9136,19.8037 21.9293,19.7804C21.9793,19.7676 22.0107,19.7727 22.0408,19.7982C22.0662,19.8151 22.0882,19.8376 22.1052,19.8617C22.1213,19.8694 22.1454,19.8914 22.1611,19.899"
            stroke-width="0.0699762" stroke="#DB161B" />
        <path fill="#00000000"
            d="M22.0522,19.9203C22.0374,19.9266 21.9844,19.9639 21.9598,19.9775C21.945,20.0254 21.9217,20.0517 21.9144,20.1025C21.9017,20.1521 21.903,20.2064 21.903,20.2623C21.9157,20.3204 21.9399,20.3632 21.9602,20.4094C21.9975,20.4348 22.0153,20.4518 22.0641,20.4785C22.1094,20.4848 22.1552,20.4904 22.2137,20.4904C22.2497,20.5018 22.3175,20.5073 22.3527,20.4904C22.4036,20.4827 22.4417,20.4628 22.479,20.4446C22.5218,20.4204 22.5477,20.398 22.5943,20.3759C22.6168,20.3429 22.6519,20.3136 22.6863,20.2729C22.7151,20.2348 22.7363,20.2136 22.7558,20.1712C22.7384,20.2199 22.7125,20.2623 22.6981,20.3081C22.6719,20.356 22.6566,20.3738 22.6519,20.4331C22.6358,20.481 22.6405,20.5382 22.6405,20.5921C22.6456,20.6294 22.6485,20.6993 22.6638,20.729V20.7642"
            stroke-width="0.0699762" stroke="#DB161B" />
        <path fill="#00000000"
            d="M23.756,20.9447V20.9616C23.756,20.9171 23.7569,20.9396 23.7374,21.0273C23.7022,21.0667 23.6204,21.0769 23.5522,21.0604C23.492,21.0167 23.4941,20.9828 23.3852,20.9616C23.2801,20.968 23.2402,20.9955 23.1813,21.0273C23.1114,21.0583 23.0792,21.074 23.033,21.1426C23.0101,21.199 22.9974,21.2371 23.0703,21.2583C23.1283,21.2952 23.197,21.3155 23.2741,21.3249C23.3597,21.3249 23.4212,21.3151 23.4593,21.3575C23.5183,21.4113 23.5149,21.4444 23.5149,21.5385C23.5344,21.5682 23.5386,21.655 23.5517,21.6881C23.6035,21.7093 23.6335,21.7207 23.7187,21.7207C23.7387,21.6699 23.7607,21.5779 23.7743,21.5228C23.7891,21.4635 23.7933,21.3808 23.8298,21.3406C23.8645,21.296 23.9086,21.2558 23.9595,21.2253C23.9819,21.1969 24.0252,21.1731 24.0705,21.1596C23.998,21.1926 23.9875,21.2287 23.9781,21.3079C24.0417,21.3363 24.0591,21.3567 24.1633,21.3575C24.2659,21.3499 24.2905,21.3266 24.3303,21.2749C24.3375,21.3575 24.3672,21.3851 24.3859,21.4571C24.424,21.5067 24.4401,21.558 24.4787,21.6211C24.4622,21.7017 24.427,21.7051 24.4232,21.8034C24.399,21.8682 24.402,21.9297 24.3494,21.9687C24.3257,21.9941 24.3083,21.9996 24.2566,22.0013C24.3638,22.0013 24.4261,21.9907 24.4973,21.9517C24.5524,21.9221 24.594,21.8839 24.6457,21.853C24.7114,21.8106 24.7923,21.7716 24.8682,21.7534C24.9538,21.7534 25.0153,21.7449 25.0534,21.786C25.106,21.8199 25.1411,21.8771 25.1645,21.9513C25.1818,22.0369 25.1882,22.0941 25.1462,22.1497C25.1149,22.2141 25.1077,22.2387 25.1462,22.315C25.1895,22.3688 25.2535,22.3756 25.3501,22.3976C25.4209,22.3942 25.4887,22.3807 25.5353,22.3646"
            stroke-width="0.0699762" stroke="#DB161B" />
        <path fill="#ffffff"
            d="M13.778,12.3017C11.5159,8.396 10.0143,5.0731 10.4275,4.8828C10.8399,4.6929 13.01,7.7086 15.272,11.6134L13.778,12.3017Z"
            stroke-width="0.0710358" stroke="#DB161B" />
        <path fill="#ffffff"
            d="M13.9272,12.2326C11.7456,8.4651 10.2419,5.2846 10.5716,5.1325C10.9009,4.9807 12.9396,7.9145 15.1224,11.6821" />
        <path fill="#00000000"
            d="M13.9272,12.2326C11.7456,8.4651 10.2419,5.2846 10.5716,5.1325C10.9009,4.9807 12.9396,7.9145 15.1224,11.6821"
            stroke-width="0.0623894" stroke="#DB161B" />
        <path fill="#ffffff"
            d="M14.3022,10.2673C14.568,10.7076 14.849,11.2112 15.1224,11.6821L13.9271,12.2326C13.6546,11.7613 13.3571,11.2654 13.1079,10.8174L14.3022,10.2673Z"
            stroke-width="0.0708238" stroke="#DB161B" />
        <path fill="#ffffff"
            d="M14.2018,10.4195C14.4667,10.8599 14.6523,11.1968 14.9244,11.6677L14.0289,12.0801C13.7555,11.6092 13.5542,11.2795 13.3049,10.8319L14.2018,10.4195Z"
            stroke-width="0.0708238" stroke="#DB161B" />
        <path fill="#ffffff"
            d="M13.5516,10.9294L14.1488,10.6543L14.6795,11.5698L14.0819,11.8449L13.5516,10.9294Z"
            stroke-width="0.0709934" stroke="#DB161B" />
        <path fill="#00000000" d="M13.5512,10.9297L14.6786,11.5702" stroke-width="0.0708238"
            stroke="#DB161B" />
        <path fill="#00000000" d="M14.0818,11.8449L14.1488,10.6543" stroke-width="0.0708238"
            stroke="#DB161B" />
        <path fill="#00000000" d="M10.8509,6.2692L11.4485,5.9941" stroke-width="0.0708238"
            stroke="#DB161B" />
        <path fill="#DB161B"
            d="M11.2989,5.7947C11.3573,5.568 11.2208,5.3369 10.9942,5.2785C10.7675,5.2201 10.5364,5.3566 10.478,5.5833C10.4196,5.8099 10.5561,6.041 10.7827,6.0994C11.0094,6.1578 11.2405,6.0214 11.2989,5.7947Z"
            stroke-width="0.211921" stroke="#DB161B" />
        <path fill="#ffffff"
            d="M15.5441,10.2143C15.5441,13.4931 15.5632,14.7282 15.3216,14.8982C15.0927,15.0791 8.7152,14.8982 8.7152,15.8349C8.7152,16.7715 13.9687,17.7082 15.5441,17.7082C17.6451,17.7082 18.6962,16.7715 18.6962,14.8982V10.2143H15.5441Z"
            stroke-width="0.0646781" stroke="#DB161B" />
        <path fill="#ffffff"
            d="M15.5441,11.1506V11.6189C16.5952,11.7753 17.6451,11.7753 18.6962,11.6189V11.1506C17.6455,11.307 16.5952,11.307 15.5441,11.1506Z"
            stroke-width="0.0559894" stroke="#DB161B" />
        <path fill="#ffffff"
            d="M15.5441,10.2143V10.6826C16.5952,10.8386 17.6451,10.8386 18.6962,10.6826V10.2143C17.6455,10.3703 16.5952,10.3703 15.5441,10.2143Z"
            stroke-width="0.0559894" stroke="#DB161B" />
        <path fill="#ffffff"
            d="M15.5441,10.6823V11.1506C16.5952,11.307 17.6451,11.307 18.6962,11.1506V10.6823C17.6455,10.8386 16.5952,10.8386 15.5441,10.6823Z"
            stroke-width="0.0559894" stroke="#DB161B" />
        <path fill="#ffffff"
            d="M15.5441,11.619V12.0873C16.5952,12.2433 17.6451,12.2433 18.6962,12.0873V11.619C17.6455,11.7754 16.5952,11.7754 15.5441,11.619Z"
            stroke-width="0.0559894" stroke="#DB161B" />
        <path fill="#ffffff"
            d="M15.6874,11.3726C15.9214,11.3726 16.1112,11.1829 16.1112,10.9488C16.1112,10.7147 15.9214,10.525 15.6874,10.525C15.4533,10.525 15.2635,10.7147 15.2635,10.9488C15.2635,11.1829 15.4533,11.3726 15.6874,11.3726Z"
            stroke-width="0.945759" stroke="#DB161B" />
        <path fill="#ffffff"
            d="M16.2604,11.4231C16.4945,11.4231 16.6842,11.2334 16.6842,10.9993C16.6842,10.7652 16.4945,10.5754 16.2604,10.5754C16.0263,10.5754 15.8366,10.7652 15.8366,10.9993C15.8366,11.2334 16.0263,11.4231 16.2604,11.4231Z"
            stroke-width="0.945759" stroke="#DB161B" />
        <path fill="#ffffff"
            d="M16.8339,11.4736C17.0679,11.4736 17.2577,11.2838 17.2577,11.0498C17.2577,10.8157 17.0679,10.6259 16.8339,10.6259C16.5998,10.6259 16.41,10.8157 16.41,11.0498C16.41,11.2838 16.5998,11.4736 16.8339,11.4736Z"
            stroke-width="0.945801" stroke="#DB161B" />
        <path fill="#ffffff"
            d="M17.4069,11.4736C17.641,11.4736 17.8307,11.2838 17.8307,11.0498C17.8307,10.8157 17.641,10.6259 17.4069,10.6259C17.1728,10.6259 16.983,10.8157 16.983,11.0498C16.983,11.2838 17.1728,11.4736 17.4069,11.4736Z"
            stroke-width="0.945801" stroke="#DB161B" />
        <path fill="#ffffff"
            d="M17.9795,11.4231C18.2136,11.4231 18.4033,11.2334 18.4033,10.9993C18.4033,10.7652 18.2136,10.5754 17.9795,10.5754C17.7454,10.5754 17.5556,10.7652 17.5556,10.9993C17.5556,11.2334 17.7454,11.4231 17.9795,11.4231Z"
            stroke-width="0.945759" stroke="#DB161B" />
        <path fill="#ffffff"
            d="M18.553,11.3726C18.787,11.3726 18.9768,11.1829 18.9768,10.9488C18.9768,10.7147 18.787,10.525 18.553,10.525C18.3189,10.525 18.1291,10.7147 18.1291,10.9488C18.1291,11.1829 18.3189,11.3726 18.553,11.3726Z"
            stroke-width="0.945759" stroke="#DB161B" />
        <path fill="#00000000" d="M15.5441,12.556L18.6962,15.0855" stroke-width="0.0559894"
            stroke="#DB161B" />
        <path fill="#00000000" d="M15.859,12.556L18.6966,14.8037" stroke-width="0.0559894"
            stroke="#DB161B" />
        <path fill="#00000000" d="M16.2795,12.6493L18.6966,14.5227" stroke-width="0.0559894"
            stroke="#DB161B" />
        <path fill="#00000000" d="M16.5952,12.6493L18.6966,14.2417" stroke-width="0.0559894"
            stroke="#DB161B" />
        <path fill="#00000000" d="M16.9101,12.6493L18.6966,13.9611" stroke-width="0.0559894"
            stroke="#DB161B" />
        <path fill="#00000000" d="M17.2246,12.6493L18.6966,13.6801" stroke-width="0.0559894"
            stroke="#DB161B" />
        <path fill="#00000000" d="M17.5404,12.6493L18.6966,13.3982" stroke-width="0.0559894"
            stroke="#DB161B" />
        <path fill="#00000000" d="M17.8553,12.6493L18.6966,13.2117" stroke-width="0.0559894"
            stroke="#DB161B" />
        <path fill="#00000000" d="M18.1707,12.6493L18.6962,13.0244" stroke-width="0.0559894"
            stroke="#DB161B" />
        <path fill="#00000000" d="M18.4856,12.6493L18.6966,12.8366" stroke-width="0.0559894"
            stroke="#DB161B" />
        <path fill="#00000000" d="M15.5441,12.8366L18.6962,15.3661" stroke-width="0.0559894"
            stroke="#DB161B" />
        <path fill="#00000000" d="M18.6966,12.556L15.2296,15.3661" stroke-width="0.0559894"
            stroke="#DB161B" />
        <path fill="#00000000" d="M18.3809,12.556L15.3343,14.991" stroke-width="0.0559894"
            stroke="#DB161B" />
        <path fill="#00000000" d="M17.9613,12.6493L15.5441,14.5227" stroke-width="0.0559894"
            stroke="#DB161B" />
        <path fill="#00000000" d="M17.6455,12.6493L15.5445,14.2417" stroke-width="0.0559894"
            stroke="#DB161B" />
        <path fill="#00000000" d="M17.3306,12.6493L15.5441,13.9611" stroke-width="0.0559894"
            stroke="#DB161B" />
        <path fill="#00000000" d="M17.0148,12.6493L15.5441,13.6801" stroke-width="0.0559894"
            stroke="#DB161B" />
        <path fill="#00000000" d="M16.7004,12.6493L15.5441,13.3982" stroke-width="0.0559894"
            stroke="#DB161B" />
        <path fill="#00000000" d="M16.3846,12.6493L15.5445,13.2117" stroke-width="0.0559894"
            stroke="#DB161B" />
        <path fill="#00000000" d="M16.0697,12.6493L15.5441,13.0244" stroke-width="0.0559894"
            stroke="#DB161B" />
        <path fill="#00000000" d="M15.7539,12.6493L15.5441,12.8366" stroke-width="0.0559894"
            stroke="#DB161B" />
        <path fill="#00000000" d="M18.6966,12.8366L15.2296,15.6467" stroke-width="0.0559894"
            stroke="#DB161B" />
        <path fill="#00000000" d="M18.6966,13.1176L15.2296,15.9277" stroke-width="0.0559894"
            stroke="#DB161B" />
        <path fill="#00000000" d="M18.6966,13.3983L15.2296,16.2096" stroke-width="0.0559894"
            stroke="#DB161B" />
        <path fill="#00000000" d="M18.6966,13.6801L15.2296,16.4902" stroke-width="0.0559894"
            stroke="#DB161B" />
        <path fill="#00000000" d="M18.6966,13.9611L15.2296,16.7711" stroke-width="0.0559894"
            stroke="#DB161B" />
        <path fill="#00000000" d="M18.6966,14.2416L15.2296,17.0517" stroke-width="0.0559894"
            stroke="#DB161B" />
        <path fill="#00000000" d="M18.6966,14.5227L15.2296,17.3328" stroke-width="0.0559894"
            stroke="#DB161B" />
        <path fill="#00000000" d="M18.6966,14.8046L15.2296,17.6146" stroke-width="0.0559894"
            stroke="#DB161B" />
        <path fill="#00000000" d="M18.6966,15.0851L15.4394,17.7078" stroke-width="0.0559894"
            stroke="#DB161B" />
        <path fill="#00000000" d="M18.6966,15.3661L15.7543,17.7078" stroke-width="0.0559894"
            stroke="#DB161B" />
        <path fill="#00000000" d="M18.5907,15.7412L16.2795,17.6146" stroke-width="0.0559894"
            stroke="#DB161B" />
        <path fill="#00000000" d="M18.4856,16.1154L16.5952,17.6145" stroke-width="0.0559894"
            stroke="#DB161B" />
        <path fill="#00000000" d="M18.2758,16.5838L17.3306,17.3327" stroke-width="0.0559894"
            stroke="#DB161B" />
        <path fill="#00000000" d="M15.5441,13.1176L18.5903,15.5534" stroke-width="0.0559894"
            stroke="#DB161B" />
        <path fill="#00000000" d="M15.5441,13.3983L18.5907,15.8345" stroke-width="0.0559894"
            stroke="#DB161B" />
        <path fill="#00000000" d="M15.5441,13.6801L18.4856,16.0218" stroke-width="0.0559894"
            stroke="#DB161B" />
        <path fill="#00000000" d="M15.5441,13.9611L18.4856,16.3028" stroke-width="0.0559894"
            stroke="#DB161B" />
        <path fill="#00000000" d="M15.5441,14.2416L18.3805,16.4901" stroke-width="0.0559894"
            stroke="#DB161B" />
        <path fill="#00000000" d="M15.4394,14.4294L18.2758,16.6779" stroke-width="0.0559894"
            stroke="#DB161B" />
        <path fill="#00000000" d="M15.4394,14.71L18.0659,16.7712" stroke-width="0.0559894"
            stroke="#DB161B" />
        <path fill="#00000000" d="M15.3343,14.8977L17.9613,16.9588" stroke-width="0.0559894"
            stroke="#DB161B" />
        <path fill="#00000000" d="M15.2292,15.0851L17.7502,17.0517" stroke-width="0.0559894"
            stroke="#DB161B" />
        <path fill="#00000000" d="M15.2292,15.3661L17.6451,17.2395" stroke-width="0.0559894"
            stroke="#DB161B" />
        <path fill="#00000000" d="M15.2292,15.6467L17.3306,17.3327" stroke-width="0.0559894"
            stroke="#DB161B" />
        <path fill="#ffffff"
            d="M15.5441,12.0877V12.5561C16.5952,12.712 17.6451,12.712 18.6962,12.5561V12.0877C17.6455,12.2437 16.5952,12.2437 15.5441,12.0877Z"
            stroke-width="0.0559894" stroke="#DB161B" />
        <path fill="#00000000" d="M15.2292,15.9277L17.1195,17.4272" stroke-width="0.0559894"
            stroke="#DB161B" />
        <path fill="#00000000" d="M15.2292,16.2096L16.9097,17.5205" stroke-width="0.0559894"
            stroke="#DB161B" />
        <path fill="#00000000" d="M15.2292,16.4905L16.6999,17.6146" stroke-width="0.0559894"
            stroke="#DB161B" />
        <path fill="#00000000" d="M15.2292,16.7711L16.2795,17.6146" stroke-width="0.0559894"
            stroke="#DB161B" />
        <path fill="#00000000" d="M15.2292,17.0521L16.0692,17.7078" stroke-width="0.0559894"
            stroke="#DB161B" />
        <path fill="#00000000" d="M15.2292,17.3327L15.7539,17.7078" stroke-width="0.0559894"
            stroke="#DB161B" />
        <path fill="#ffffff"
            d="M15.6874,12.7777C15.9214,12.7777 16.1112,12.588 16.1112,12.3539C16.1112,12.1198 15.9214,11.9301 15.6874,11.9301C15.4533,11.9301 15.2635,12.1198 15.2635,12.3539C15.2635,12.588 15.4533,12.7777 15.6874,12.7777Z"
            stroke-width="0.945759" stroke="#DB161B" />
        <path fill="#ffffff"
            d="M16.2604,12.8282C16.4945,12.8282 16.6842,12.6384 16.6842,12.4043C16.6842,12.1702 16.4945,11.9805 16.2604,11.9805C16.0263,11.9805 15.8366,12.1702 15.8366,12.4043C15.8366,12.6384 16.0263,12.8282 16.2604,12.8282Z"
            stroke-width="0.945759" stroke="#DB161B" />
        <path fill="#ffffff"
            d="M16.8339,12.8786C17.0679,12.8786 17.2577,12.6888 17.2577,12.4547C17.2577,12.2206 17.0679,12.0309 16.8339,12.0309C16.5998,12.0309 16.41,12.2206 16.41,12.4547C16.41,12.6888 16.5998,12.8786 16.8339,12.8786Z"
            stroke-width="0.945801" stroke="#DB161B" />
        <path fill="#ffffff"
            d="M17.4069,12.8786C17.641,12.8786 17.8307,12.6888 17.8307,12.4547C17.8307,12.2206 17.641,12.0309 17.4069,12.0309C17.1728,12.0309 16.983,12.2206 16.983,12.4547C16.983,12.6888 17.1728,12.8786 17.4069,12.8786Z"
            stroke-width="0.945801" stroke="#DB161B" />
        <path fill="#ffffff"
            d="M17.9795,12.8282C18.2136,12.8282 18.4033,12.6384 18.4033,12.4043C18.4033,12.1702 18.2136,11.9805 17.9795,11.9805C17.7454,11.9805 17.5556,12.1702 17.5556,12.4043C17.5556,12.6384 17.7454,12.8282 17.9795,12.8282Z"
            stroke-width="0.945759" stroke="#DB161B" />
        <path fill="#ffffff"
            d="M18.553,12.7777C18.787,12.7777 18.9768,12.588 18.9768,12.3539C18.9768,12.1198 18.787,11.9301 18.553,11.9301C18.3189,11.9301 18.1291,12.1198 18.1291,12.3539C18.1291,12.588 18.3189,12.7777 18.553,12.7777Z"
            stroke-width="0.945759" stroke="#DB161B" />
        <path fill="#00000000" d="M11.0264,16.9589L14.8087,14.991" stroke-width="0.0559894"
            stroke="#DB161B" />
        <path fill="#00000000" d="M10.8162,16.8643L14.3879,14.991" stroke-width="0.0559894"
            stroke="#DB161B" />
        <path fill="#00000000" d="M10.7115,16.6779L13.9687,14.991" stroke-width="0.0559894"
            stroke="#DB161B" />
        <path fill="#00000000" d="M10.6064,16.4905L13.4431,14.991" stroke-width="0.0559894"
            stroke="#DB161B" />
        <path fill="#00000000" d="M10.3961,16.3028L13.0223,14.991" stroke-width="0.0559894"
            stroke="#DB161B" />
        <path fill="#00000000" d="M10.5012,16.0222L12.2869,15.0855" stroke-width="0.0559894"
            stroke="#DB161B" />
        <path fill="#00000000" d="M10.3961,15.8344L11.7622,15.0851" stroke-width="0.0559894"
            stroke="#DB161B" />
        <path fill="#00000000" d="M10.3961,15.5534L11.3417,15.0851" stroke-width="0.0559894"
            stroke="#DB161B" />
        <path fill="#00000000" d="M11.3417,17.0522L14.9134,15.1788" stroke-width="0.0559894"
            stroke="#DB161B" />
        <path fill="#00000000" d="M11.6571,17.1462L15.0185,15.3661" stroke-width="0.0559894"
            stroke="#DB161B" />
        <path fill="#00000000" d="M11.972,17.2394L15.1232,15.5534" stroke-width="0.0559894"
            stroke="#DB161B" />
        <path fill="#00000000" d="M12.2869,17.3327L14.9134,15.9277" stroke-width="0.0559894"
            stroke="#DB161B" />
        <path fill="#00000000" d="M12.7078,17.3327L15.0185,16.1154" stroke-width="0.0559894"
            stroke="#DB161B" />
        <path fill="#00000000" d="M13.0222,17.4273L15.0185,16.3961" stroke-width="0.0559894"
            stroke="#DB161B" />
        <path fill="#00000000" d="M13.338,17.5205L14.9134,16.6779" stroke-width="0.0559894"
            stroke="#DB161B" />
        <path fill="#00000000" d="M13.7576,17.5205L15.0185,16.8644" stroke-width="0.0559894"
            stroke="#DB161B" />
        <path fill="#00000000" d="M14.1785,17.6146L15.0186,17.1462" stroke-width="0.0559894"
            stroke="#DB161B" />
        <path fill="#00000000" d="M14.5989,17.6146L15.1232,17.3327" stroke-width="0.0559894"
            stroke="#DB161B" />
        <path fill="#ffffff"
            d="M15.3343,14.8977H14.8087C14.6337,15.8344 14.6337,16.7711 14.8087,17.7078H15.3343C15.1584,16.7711 15.1584,15.8344 15.3343,14.8977Z"
            stroke-width="0.0559894" stroke="#DB161B" />
        <path fill="#00000000" d="M9.1356,16.2095L10.3966,15.2728" stroke-width="0.0559894"
            stroke="#DB161B" />
        <path fill="#00000000" d="M9.1356,15.5534L10.3966,16.6779" stroke-width="0.0559894"
            stroke="#DB161B" />
        <path fill="#ffffff"
            d="M11.0264,15.0851L10.3961,15.1783C10.2558,15.7717 10.2558,16.271 10.3961,16.8644L11.0264,17.0521C10.8865,16.4583 10.8865,15.6789 11.0264,15.0851Z"
            stroke-width="0.0398411" stroke="#DB161B" />
        <path fill="#ffffff"
            d="M18.692,10.4012V9.9291C18.2207,9.9329 17.9049,9.6519 17.9049,9.3671L16.3316,9.3709C16.3316,9.6519 16.0167,9.9329 15.5445,9.9329V10.4012H18.692Z"
            stroke-width="0.0685351" stroke="#DB161B" />
        <path fill="#ffffff" d="M17.7934,8.8089H16.4439V9.3709H17.7934V8.8089Z"
            stroke-width="0.0579391" stroke="#DB161B" />
        <path fill="#ffffff" d="M17.6803,8.2469H16.5558V8.8089H17.6803V8.2469Z"
            stroke-width="0.0579391" stroke="#DB161B" />
        <path fill="#ffffff" d="M17.6803,7.6848H16.5558V8.2468H17.6803V7.6848Z"
            stroke-width="0.0579391" stroke="#DB161B" />
        <path fill="#ffffff" d="M17.5684,6.9355H16.6686V7.6848H17.5684V6.9355Z"
            stroke-width="0.0579391" stroke="#DB161B" />
        <path fill="#ffffff" d="M17.6074,6.2798H16.6304V6.9355H17.6074V6.2798Z"
            stroke-width="0.060355" stroke="#DB161B" />
        <path fill="#ffffff"
            d="M17.1725,6.5608C17.8918,6.5608 18.475,6.1625 18.475,5.6712C18.475,5.1799 17.8918,4.7816 17.1725,4.7816C16.4532,4.7816 15.87,5.1799 15.87,5.6712C15.87,6.1625 16.4532,6.5608 17.1725,6.5608Z"
            stroke-width="0.211921" stroke="#DB161B" />
        <path fill="#ffffff"
            d="M17.8244,5.6241C17.8244,5.87 18.1499,6.2798 18.1499,6.2798C17.9134,6.4409 17.5323,6.5608 17.1729,6.5608C16.8139,6.5608 16.3655,6.4939 16.196,6.2798C16.196,6.2798 16.5215,5.8696 16.5215,5.6241C16.5215,5.3787 16.196,5.0621 16.196,5.0621C16.4312,4.9011 16.8135,4.7811 17.1729,4.7811C17.5323,4.7811 17.9138,4.9011 18.1499,5.0621C18.1499,5.0621 17.8244,5.3787 17.8244,5.6241Z"
            stroke-width="0.0569219" stroke="#DB161B" />
        <path fill="#ffffff"
            d="M17.6074,5.6241C17.6074,5.87 17.9325,6.3735 17.9325,6.3735C17.6972,6.5346 17.5319,6.5608 17.1729,6.5608C16.8139,6.5608 16.5825,6.5875 16.4134,6.3735C16.4134,6.3735 16.7389,5.87 16.7389,5.6241C16.7389,5.3787 16.4134,4.9685 16.4134,4.9685C16.6486,4.8074 16.8139,4.7811 17.1729,4.7811C17.5323,4.7811 17.6976,4.8074 17.9325,4.9685C17.9325,4.9685 17.6074,5.3787 17.6074,5.6241Z"
            stroke-width="0.0569219" stroke="#DB161B" />
        <path fill="#ffffff"
            d="M15.87,6.1416C16.1041,6.1416 16.2939,5.9519 16.2939,5.7178C16.2939,5.4837 16.1041,5.294 15.87,5.294C15.636,5.294 15.4462,5.4837 15.4462,5.7178C15.4462,5.9519 15.636,6.1416 15.87,6.1416Z"
            stroke-width="0.211921" stroke="#DB161B" />
        <path fill="#ffffff"
            d="M18.4754,6.1416C18.7095,6.1416 18.8992,5.9519 18.8992,5.7178C18.8992,5.4837 18.7095,5.294 18.4754,5.294C18.2413,5.294 18.0515,5.4837 18.0515,5.7178C18.0515,5.9519 18.2413,6.1416 18.4754,6.1416Z"
            stroke-width="0.211921" stroke="#DB161B" />
        <path fill="#ffffff"
            d="M17.1725,6.1416C17.4066,6.1416 17.5964,5.9519 17.5964,5.7178C17.5964,5.4837 17.4066,5.294 17.1725,5.294C16.9384,5.294 16.7487,5.4837 16.7487,5.7178C16.7487,5.9519 16.9384,6.1416 17.1725,6.1416Z"
            stroke-width="0.211921" stroke="#DB161B" />
        <path fill="#ffffff"
            d="M17.1725,5.2049C17.4066,5.2049 17.5964,5.0152 17.5964,4.7811C17.5964,4.547 17.4066,4.3572 17.1725,4.3572C16.9384,4.3572 16.7487,4.547 16.7487,4.7811C16.7487,5.0152 16.9384,5.2049 17.1725,5.2049Z"
            stroke-width="0.211921" stroke="#DB161B" />
        <path fill="#ffffff"
            d="M16.2189,10.5445C16.4529,10.5445 16.6427,10.3548 16.6427,10.1207C16.6427,9.8866 16.4529,9.6968 16.2189,9.6968C15.9848,9.6968 15.795,9.8866 15.795,10.1207C15.795,10.3548 15.9848,10.5445 16.2189,10.5445Z"
            stroke-width="0.211921" stroke="#DB161B" />
        <path fill="#ffffff"
            d="M18.0181,10.5445C18.2522,10.5445 18.4419,10.3548 18.4419,10.1207C18.4419,9.8866 18.2522,9.6968 18.0181,9.6968C17.784,9.6968 17.5942,9.8866 17.5942,10.1207C17.5942,10.3548 17.784,10.5445 18.0181,10.5445Z"
            stroke-width="0.211921" stroke="#DB161B" />
        <path fill="#ffffff" d="M16.3316,9.3709H17.9049L17.1187,10.2139L16.3316,9.3709Z"
            stroke-width="0.0579391" stroke="#DB161B" />
        <path fill="#ffffff"
            d="M17.1183,10.4508C17.3666,10.4508 17.568,10.261 17.568,10.0269C17.568,9.7928 17.3666,9.6031 17.1183,9.6031C16.8699,9.6031 16.6686,9.7928 16.6686,10.0269C16.6686,10.261 16.8699,10.4508 17.1183,10.4508Z"
            stroke-width="0.211921" stroke="#DB161B" />
        <path fill="#ffffff"
            d="M15.5174,12.8379H17.6714C17.7438,12.8379 17.8028,12.8824 17.8028,12.9375V13.3007C17.8028,13.3558 17.7438,13.4003 17.6714,13.4003H15.5174C15.4449,13.4003 15.386,13.3558 15.386,13.3007V12.9375C15.3864,12.8824 15.4449,12.8379 15.5174,12.8379Z"
            stroke-width="0.0699762" stroke="#DB161B" />
        <path fill="#ffffff"
            d="M18.5385,12.3696C18.2469,12.3696 18.013,12.5878 18.013,12.8591V13.2851C18.013,13.5563 18.2474,13.7746 18.5385,13.7746C18.8297,13.7746 19.0641,13.5563 19.0641,13.2851V12.8591C19.0641,12.5878 18.8302,12.3696 18.5385,12.3696ZM18.5385,12.5573C18.3635,12.5573 18.2228,12.732 18.2228,12.9494V13.1961C18.2228,13.4135 18.3639,13.5873 18.5385,13.5873C18.7136,13.5873 18.8535,13.4135 18.8535,13.1961V12.9494C18.8535,12.732 18.7136,12.5573 18.5385,12.5573Z"
            stroke-width="0.0699762" stroke="#DB161B" />
        <path fill="#ffffff"
            d="M15.8069,12.4641C15.6318,12.4641 15.492,12.6378 15.492,12.8548V13.2893C15.492,13.5067 15.6318,13.6813 15.8069,13.6813C15.9815,13.6813 16.1214,13.5067 16.1214,13.2893V12.8548C16.1214,12.6378 15.9815,12.4641 15.8069,12.4641ZM15.8069,12.2763C15.5153,12.2763 15.2813,12.4946 15.2813,12.7658V13.3796C15.2813,13.6508 15.5157,13.8691 15.8069,13.8691C16.0981,13.8691 16.3325,13.6508 16.3325,13.3796V12.7658C16.3325,12.4946 16.0985,12.2763 15.8069,12.2763Z"
            stroke-width="0.0699762" stroke="#DB161B" />
        <path fill="#ffffff"
            d="M14.9664,12.6505C14.7918,12.6505 14.6507,12.8252 14.6507,13.0426V13.1443C14.6507,13.3613 14.7918,13.5364 14.9664,13.5364C15.1415,13.5364 15.2813,13.3617 15.2813,13.1443V13.0426C15.2813,12.8252 15.1415,12.6505 14.9664,12.6505ZM14.9664,12.4641C14.6748,12.4641 14.4409,12.6823 14.4409,12.9536V13.2346C14.4409,13.5059 14.6748,13.7241 14.9664,13.7241C15.2568,13.7241 15.492,13.5059 15.492,13.2346V12.9536C15.4924,12.6823 15.2568,12.4641 14.9664,12.4641Z"
            stroke-width="0.0699762" stroke="#DB161B" />
        <path fill="#ffffff"
            d="M13.7059,12.3916C13.391,12.3916 13.1388,12.5866 13.1388,12.829V13.3143C13.1388,13.5572 13.391,13.7517 13.7059,13.7517C14.0204,13.7517 14.2726,13.5568 14.2726,13.3143V12.829C14.2726,12.5866 14.0204,12.3916 13.7059,12.3916ZM13.7059,12.1823C13.1825,12.1823 12.7607,12.4268 12.7607,12.7299V13.4152C12.7607,13.7183 13.1825,13.962 13.7059,13.962C14.2294,13.962 14.6511,13.7183 14.6511,13.4152V12.7299C14.6511,12.4268 14.2294,12.1823 13.7059,12.1823Z"
            stroke-width="0.0699762" stroke="#DB161B" />
        <path fill="#ffffff"
            d="M20.5348,12.4848C20.2199,12.4848 19.9669,12.6811 19.9669,12.9235V13.4088C19.9669,13.6517 20.2199,13.8462 20.5348,13.8462C20.8485,13.8462 21.1015,13.6512 21.1015,13.4088V12.9235C21.1015,12.6811 20.8485,12.4848 20.5348,12.4848ZM20.5348,12.2763C20.0105,12.2763 19.5888,12.52 19.5888,12.8231V13.5084C19.5888,13.8115 20.0105,14.0552 20.5348,14.0552C21.0583,14.0552 21.48,13.8115 21.48,13.5084V12.8231C21.48,12.52 21.0583,12.2763 20.5348,12.2763Z"
            stroke-width="0.0699762" stroke="#DB161B" />
        <path fill="#ffffff"
            d="M18.8166,12.8379H19.9406C19.9783,12.8379 20.0093,12.8824 20.0093,12.9375V13.3007C20.0093,13.3558 19.9783,13.4003 19.9406,13.4003H18.8166C18.7789,13.4003 18.7484,13.3558 18.7484,13.3007V12.9375C18.7484,12.8824 18.7789,12.8379 18.8166,12.8379Z"
            stroke-width="0.0699762" stroke="#DB161B" />
        <path fill="#ffffff"
            d="M17.6332,12.7447H18.2889C18.3109,12.7447 18.3287,12.804 18.3287,12.8774V13.3618C18.3287,13.4351 18.3109,13.4945 18.2889,13.4945H17.6332C17.6112,13.4945 17.5934,13.4351 17.5934,13.3618V12.8774C17.5934,12.804 17.6112,12.7447 17.6332,12.7447Z"
            stroke-width="0.0699762" stroke="#DB161B" />
        <path fill="#ffffff"
            d="M14.1662,12.7447H14.8219C14.8439,12.7447 14.8617,12.804 14.8617,12.8774V13.3618C14.8617,13.4351 14.8439,13.4945 14.8219,13.4945H14.1662C14.1442,13.4945 14.1264,13.4351 14.1264,13.3618V12.8774C14.1264,12.804 14.1442,12.7447 14.1662,12.7447Z"
            stroke-width="0.0699762" stroke="#DB161B" />
        <path fill="#ffffff"
            d="M11.894,12.6505H13.2053C13.2494,12.6505 13.285,12.7247 13.285,12.8162V13.4215C13.285,13.513 13.2494,13.5872 13.2053,13.5872H11.894C11.8499,13.5872 11.8143,13.513 11.8143,13.4215V12.8162C11.8143,12.7247 11.8499,12.6505 11.894,12.6505Z"
            stroke-width="0.0699762" stroke="#DB161B" />
        <path fill="#ffffff"
            d="M21.0286,12.7447H22.2463C22.2874,12.7447 22.3205,12.8189 22.3205,12.9104V13.5157C22.3205,13.6072 22.2874,13.6814 22.2463,13.6814H21.0286C20.9875,13.6814 20.9544,13.6072 20.9544,13.5157V12.9104C20.9544,12.8189 20.9875,12.7447 21.0286,12.7447Z"
            stroke-width="0.0699762" stroke="#DB161B" />
    </g>
</svg>
