<svg width="24" height="24" viewBox="0 0 24 24" fill="none" xmlns="http://www.w3.org/2000/svg">
<path fill-rule="evenodd" clip-rule="evenodd" d="M12 5.25L17.2177 9.30402L19.0884 5.2527L12 5.25Z" fill="#FFCF00"/>
<path fill-rule="evenodd" clip-rule="evenodd" d="M12 9.23645V20.25L17.2177 9.23645H12Z" fill="#FF3C00"/>
<path fill-rule="evenodd" clip-rule="evenodd" d="M4.91406 5.25L4.92965 5.29054L6.78219 9.30402L9.87038 6.8769L12 5.25H4.91406Z" fill="#FFF138"/>
<path fill-rule="evenodd" clip-rule="evenodd" d="M6.78125 9.23645L11.999 20.25V9.23645H6.78125Z" fill="#FF6F00"/>
<path fill-rule="evenodd" clip-rule="evenodd" d="M1.5 9.23645L11.9999 20.25L6.78213 9.23645H1.5Z" fill="#FFCD00"/>
<path fill-rule="evenodd" clip-rule="evenodd" d="M9.87065 6.87702L6.78125 9.23648H11.999V5.25269L9.87065 6.87702Z" fill="#FFCD00"/>
<path fill-rule="evenodd" clip-rule="evenodd" d="M1.5 9.23636H6.78214L4.91162 5.25256L1.5 9.23636Z" fill="#FFEA00"/>
<path fill-rule="evenodd" clip-rule="evenodd" d="M17.2178 9.23648H22.4999L19.0884 5.25269L17.2178 9.23648Z" fill="#F435FF"/>
<path fill-rule="evenodd" clip-rule="evenodd" d="M12 9.23648H17.2177L12 5.25269V9.23648Z" fill="#FFB600"/>
<path fill-rule="evenodd" clip-rule="evenodd" d="M17.2177 9.23645L12 20.25L22.4997 9.23645H17.2177Z" fill="#8B00CD"/>
<path fill-rule="evenodd" clip-rule="evenodd" d="M4.91456 5.25L4.91211 5.2527L4.93015 5.29054L9.87087 6.8769L12.0005 5.25H4.91456Z" fill="#FFEA7C"/>
<path fill-rule="evenodd" clip-rule="evenodd" d="M12 7.56067L17.2177 9.23635L12 5.25269V7.56067Z" fill="#FF8D00"/>
<path fill-rule="evenodd" clip-rule="evenodd" d="M9.87109 6.87689L11.9994 7.56068V5.25256L9.87109 6.87689Z" fill="#FFB100"/>
</svg>
