<svg width="25" height="24" viewBox="0 0 25 24" fill="none" xmlns="http://www.w3.org/2000/svg">
<path d="M5.56202 14.625C3.38795 14.625 1.62407 12.8612 1.62407 10.6871C1.62407 8.94373 2.75623 7.4629 4.32731 6.94604C4.27809 6.6712 4.24937 6.38406 4.24937 6.09282C4.24937 3.55365 6.30449 1.49854 8.84365 1.49854C10.6116 1.49854 12.1458 2.49533 12.9129 3.95976C13.5159 3.25831 14.4101 2.81119 15.4069 2.81119C17.22 2.81119 18.6885 4.27972 18.6885 6.09282C18.6885 6.31843 18.6639 6.53584 18.6229 6.74914C18.6434 6.74914 18.668 6.74914 18.6885 6.74914C20.8626 6.74914 22.6265 8.51302 22.6265 10.6871C22.6265 12.8612 20.8626 14.625 18.6885 14.625H5.56202ZM4.96723 16.0156C5.46768 16.2289 5.69739 16.8073 5.48408 17.3078L3.51511 21.9021C3.3018 22.4025 2.72342 22.6322 2.22297 22.4189C1.72252 22.2056 1.48871 21.6272 1.70201 21.1268L3.67099 16.5325C3.88429 16.032 4.46268 15.8023 4.96313 16.0156H4.96723ZM9.88966 16.0156C10.3901 16.2289 10.6198 16.8073 10.4065 17.3078L8.43755 21.9021C8.22424 22.4025 7.64585 22.6322 7.14541 22.4189C6.64496 22.2056 6.41525 21.6272 6.62855 21.1268L8.59753 16.5325C8.81083 16.032 9.38922 15.8023 9.88966 16.0156ZM19.9232 17.3078L17.9543 21.9021C17.7409 22.4025 17.1626 22.6322 16.6621 22.4189C16.1617 22.2056 15.932 21.6272 16.1453 21.1268L18.1142 16.5325C18.3275 16.032 18.9059 15.8023 19.4064 16.0156C19.9068 16.2289 20.1365 16.8073 19.9232 17.3078ZM14.4839 16.0156C14.9844 16.2289 15.2141 16.8073 15.0008 17.3078L13.0318 21.9021C12.8185 22.4025 12.2401 22.6322 11.7397 22.4189C11.2392 22.2056 11.0095 21.6272 11.2228 21.1268L13.1918 16.5325C13.4051 16.032 13.9835 15.8023 14.4839 16.0156Z" fill="#262626"/>
</svg>
