<svg width="24" height="24" viewBox="0 0 24 24" fill="none" xmlns="http://www.w3.org/2000/svg">
<path fill-rule="evenodd" clip-rule="evenodd" d="M10.0622 2.98886C6.15601 2.98886 2.98899 6.15617 2.98899 10.0621C2.98899 13.9676 6.15566 17.1342 10.0622 17.1342C13.9677 17.1342 17.1344 13.9676 17.1344 10.0621C17.1344 6.1562 13.9674 2.98886 10.0622 2.98886ZM1.5 10.0621C1.5 5.33387 5.33363 1.49988 10.0622 1.49988C14.7899 1.49988 18.6233 5.33405 18.6233 10.0621C18.6233 14.7899 14.7901 18.6232 10.0622 18.6232C5.33347 18.6232 1.5 14.7901 1.5 10.0621Z" fill="#262626"/>
<path fill-rule="evenodd" clip-rule="evenodd" d="M21.4471 22.4999L15.1189 16.1717L16.1718 15.1188L22.5 21.447L21.4471 22.4999Z" fill="#262626"/>
</svg>
