<svg width="25" height="24" viewBox="0 0 25 24" fill="none" xmlns="http://www.w3.org/2000/svg">
<g clip-path="url(#clip0_16252_13243)">
<path d="M1.13286 2.74511C1.44036 2.35511 2.0066 2.28386 2.39659 2.59136C4.51155 4.24884 6.62652 5.90631 8.74148 7.56379C8.74148 7.2413 8.74148 6.92255 8.74148 6.60006C8.74148 4.27884 10.6202 2.40011 12.9414 2.40011C15.2626 2.40011 17.1413 4.27884 17.1413 6.60006C17.1413 7.20005 17.1413 7.80004 17.1413 8.40003C17.9401 8.40003 18.7426 8.40003 19.5413 8.40003C20.535 8.40003 21.3413 9.20627 21.3413 10.2C21.3413 12.615 21.3413 15.0262 21.3413 17.4412C22.425 18.2924 23.5125 19.1436 24.5962 19.9911C24.9862 20.2986 25.0574 20.8649 24.75 21.2549C24.4425 21.6448 23.8762 21.7161 23.4862 21.4086C16.0839 15.6074 8.68523 9.81001 1.28661 4.00884C0.896618 3.70135 0.825369 3.1351 1.13286 2.74511ZM4.54155 10.2C4.54155 9.79501 4.67655 9.42002 4.90155 9.12002C5.38154 9.49876 5.86153 9.87751 6.34152 10.2563C6.34152 12.84 6.34152 15.4199 6.34152 17.9999C6.34152 18.9936 7.14776 19.7999 8.14149 19.7999C11.3439 19.7999 14.5426 19.7999 17.7413 19.7999C17.9476 19.7999 18.1463 19.7661 18.3301 19.7024C18.8401 20.1036 19.35 20.5086 19.8638 20.9099C19.2675 21.3449 18.5363 21.5998 17.7413 21.5998C14.5389 21.5998 11.3402 21.5998 8.14149 21.5998C6.15403 21.5998 4.54155 19.9874 4.54155 17.9999C4.54155 15.4012 4.54155 12.7987 4.54155 10.2ZM8.74148 12.1462L9.99021 13.1325C9.88146 13.1775 9.76521 13.2037 9.64146 13.2037C9.14272 13.2037 8.74148 12.8025 8.74148 12.3037C8.74148 12.2512 8.74148 12.2025 8.74148 12.15V12.1462ZM10.5414 6.60006C10.5414 7.20005 10.5414 7.80004 10.5414 8.40003C12.1427 8.40003 13.7401 8.40003 15.3414 8.40003C15.3414 7.80004 15.3414 7.20005 15.3414 6.60006C15.3414 5.27632 14.2651 4.20009 12.9414 4.20009C11.6177 4.20009 10.5414 5.27632 10.5414 6.60006ZM12.1052 10.2L15.6451 12.975C15.4576 12.81 15.3414 12.57 15.3414 12.3C15.3414 11.5987 15.3414 10.9012 15.3414 10.2C14.2614 10.2 13.1814 10.2 12.1052 10.2ZM15.7276 13.0387L19.5413 16.0274C19.5413 14.085 19.5413 12.1425 19.5413 10.2C18.7426 10.2 17.9401 10.2 17.1413 10.2C17.1413 10.9012 17.1413 11.5987 17.1413 12.3C17.1413 12.7987 16.7401 13.2 16.2413 13.2C16.0501 13.2 15.8739 13.14 15.7276 13.0387Z" fill="#262626"/>
</g>
<defs>
<clipPath id="clip0_16252_13243">
<rect width="24" height="24" fill="white" transform="translate(0.941406)"/>
</clipPath>
</defs>
</svg>
