<svg width="25" height="24" viewBox="0 0 25 24" fill="none" xmlns="http://www.w3.org/2000/svg">
<path d="M13.0685 1.84687C12.8575 1.62656 12.5622 1.5 12.2528 1.5C11.9435 1.5 11.6528 1.62656 11.4372 1.84687L3.56222 10.0969C3.13097 10.5469 3.14971 11.2594 3.59972 11.6859C4.04972 12.1125 4.76222 12.0984 5.18878 11.6484L11.1278 5.43281L11.1278 21.375C11.1278 21.9984 11.6294 22.5 12.2528 22.5C12.8763 22.5 13.3778 21.9984 13.3778 21.375L13.3778 5.43281L19.3122 11.6531C19.7435 12.1031 20.4513 12.1172 20.9013 11.6906C21.3513 11.2641 21.3653 10.5516 20.9388 10.1016L13.0638 1.85156L13.0685 1.84687Z" fill="#262626"/>
</svg>
