<svg width="18" height="18" viewBox="0 0 18 18" fill="none" xmlns="http://www.w3.org/2000/svg">
<path d="M0 4C0 1.79086 1.79086 0 4 0H13.5C15.7091 0 17.5 1.79086 17.5 4V13.5C17.5 15.7091 15.7091 17.5 13.5 17.5H4C1.79086 17.5 0 15.7091 0 13.5V4Z" fill="#E5E5E5"/>
<path d="M14.0139 5.33099L13.9407 5.25776H13.9283C13.6105 5.01469 13.1541 5.04039 12.8635 5.33099L7.24883 10.9456L4.63749 8.33428C4.63732 8.33411 4.63716 8.33395 4.63699 8.33378C4.31944 8.01336 3.80522 8.01993 3.48941 8.33239C3.16967 8.64872 3.17104 9.164 3.48846 9.48142L3.48852 9.48148L6.67736 12.668C6.67755 12.6682 6.67774 12.6684 6.67793 12.6685C6.99431 12.9877 7.50916 12.9861 7.82639 12.6689L7.82642 12.6689L14.0129 6.48001C14.0131 6.47984 14.0133 6.47966 14.0135 6.47949C14.3327 6.16311 14.3311 5.64823 14.0139 5.33099Z" fill="#BFBFBF" stroke="#BFBFBF" stroke-width="0.5"/>
</svg>
