<svg width="24" height="24" viewBox="0 0 24 24" fill="none" xmlns="http://www.w3.org/2000/svg">
<path fill-rule="evenodd" clip-rule="evenodd" d="M1.5 6H22.5V12H1.5V6ZM3 10.5H21V7.5H3V10.5Z" fill="#262626"/>
<path fill-rule="evenodd" clip-rule="evenodd" d="M3 10.5H21V21C21 21.8284 20.3284 22.5 19.5 22.5H4.5C3.67157 22.5 3 21.8284 3 21V10.5ZM19.5 12H4.5V21H19.5V12Z" fill="#262626"/>
<path fill-rule="evenodd" clip-rule="evenodd" d="M9.75 6C10.5784 6 11.25 5.32843 11.25 4.5C11.25 3.67157 10.5784 3 9.75 3C8.92157 3 8.25 3.67157 8.25 4.5C8.25 5.32843 8.92157 6 9.75 6ZM9.75 7.5C11.4069 7.5 12.75 6.15685 12.75 4.5C12.75 2.84315 11.4069 1.5 9.75 1.5C8.09315 1.5 6.75 2.84315 6.75 4.5C6.75 6.15685 8.09315 7.5 9.75 7.5Z" fill="#262626"/>
<path fill-rule="evenodd" clip-rule="evenodd" d="M14.25 6C15.0784 6 15.75 5.32843 15.75 4.5C15.75 3.67157 15.0784 3 14.25 3C13.4216 3 12.75 3.67157 12.75 4.5C12.75 5.32843 13.4216 6 14.25 6ZM14.25 7.5C15.9069 7.5 17.25 6.15685 17.25 4.5C17.25 2.84315 15.9069 1.5 14.25 1.5C12.5931 1.5 11.25 2.84315 11.25 4.5C11.25 6.15685 12.5931 7.5 14.25 7.5Z" fill="#262626"/>
<path d="M11.25 6H12.75V21.75H11.25V6Z" fill="#262626"/>
</svg>
