<svg width="24" height="24" viewBox="0 0 24 24" fill="none" xmlns="http://www.w3.org/2000/svg">
<path d="M8.03938 15.33L9.47938 15.45C9.28738 16.37 8.31138 17.33 7.07938 17.33C5.63938 17.33 4.51938 16.202 4.51938 14.73C4.51938 13.258 5.63938 12.13 7.07938 12.13C8.31138 12.13 9.28738 13.09 9.47938 14.01L8.03938 14.13C7.99138 14.01 7.91938 13.906 7.83138 13.81C7.67938 13.65 7.43938 13.49 7.07938 13.49C6.43938 13.49 5.91938 14.002 5.91938 14.73C5.91938 15.458 6.43938 15.97 7.07938 15.97C7.43938 15.97 7.67938 15.81 7.83138 15.65C7.91938 15.554 7.99138 15.45 8.03938 15.33ZM11.3988 17.25L9.75875 12.21H11.2388L12.1988 15.45L13.1588 12.21H14.6388L12.9988 17.25H11.3988ZM16.4397 17.25L14.7997 12.21H16.2797L17.2397 15.45L18.1997 12.21H19.6797L18.0397 17.25H16.4397Z" fill="#262626"/>
<path d="M20.1667 5.51786C20.4875 5.51786 20.75 5.78304 20.75 6.10714V7.28571H3.25V6.10714C3.25 5.78304 3.5125 5.51786 3.83333 5.51786H20.1667ZM20.75 10.8214V17.8929C20.75 18.217 20.4875 18.4821 20.1667 18.4821H3.83333C3.5125 18.4821 3.25 18.217 3.25 17.8929V10.8214H20.75ZM3.83333 3.75C2.54635 3.75 1.5 4.80703 1.5 6.10714V17.8929C1.5 19.193 2.54635 20.25 3.83333 20.25H20.1667C21.4536 20.25 22.5 19.193 22.5 17.8929V6.10714C22.5 4.80703 21.4536 3.75 20.1667 3.75H3.83333Z" fill="#262626"/>
</svg>
