<svg width="25" height="24" viewBox="0 0 25 24" fill="none" xmlns="http://www.w3.org/2000/svg">
<path d="M1.625 3.79948V10.9763C1.625 11.7924 1.94664 12.5749 2.5227 13.1509L10.9717 21.5999C12.1718 22.8 14.116 22.8 15.3162 21.5999L21.7249 15.1912C22.925 13.991 22.925 12.0468 21.7249 10.8467L13.2759 2.39772C12.6999 1.82165 11.9174 1.50002 11.1013 1.50002H3.92926C2.65712 1.49522 1.625 2.52733 1.625 3.79948ZM7.00161 5.33565C7.40903 5.33565 7.79977 5.4975 8.08785 5.78559C8.37594 6.07368 8.53779 6.46441 8.53779 6.87183C8.53779 7.27925 8.37594 7.66998 8.08785 7.95807C7.79977 8.24615 7.40903 8.408 7.00161 8.408C6.59419 8.408 6.20346 8.24615 5.91537 7.95807C5.62729 7.66998 5.46544 7.27925 5.46544 6.87183C5.46544 6.46441 5.62729 6.07368 5.91537 5.78559C6.20346 5.4975 6.59419 5.33565 7.00161 5.33565Z" fill="#262626"/>
</svg>
