<svg width="24" height="24" viewBox="0 0 24 24" fill="none" xmlns="http://www.w3.org/2000/svg">
<mask id="mask0_1771_49" style="mask-type:alpha" maskUnits="userSpaceOnUse" x="1" y="1" width="22" height="22">
<path fill-rule="evenodd" clip-rule="evenodd" d="M22.2558 10.0909H12.2442V14.1477H18.0069C17.4697 16.725 15.2232 18.2045 12.2442 18.2045C8.72789 18.2045 5.89534 15.4363 5.89534 12C5.89534 8.56362 8.72789 5.79544 12.2442 5.79544C13.7581 5.79544 15.1255 6.32044 16.2 7.17953L19.3255 4.12499C17.4209 2.50227 14.979 1.5 12.2442 1.5C6.28603 1.5 1.5 6.17726 1.5 12C1.5 17.8227 6.28603 22.4999 12.2442 22.4999C17.6162 22.4999 22.4999 18.6818 22.4999 12C22.4999 11.3795 22.4023 10.7113 22.2558 10.0909Z" fill="white"/>
</mask>
<g mask="url(#mask0_1771_49)">
<path d="M0.523438 18.2047V5.79565L8.82574 12.0002L0.523438 18.2047Z" fill="#FBBC05"/>
</g>
<mask id="mask1_1771_49" style="mask-type:alpha" maskUnits="userSpaceOnUse" x="1" y="1" width="22" height="22">
<path fill-rule="evenodd" clip-rule="evenodd" d="M22.2558 10.0909H12.2442V14.1477H18.0069C17.4697 16.725 15.2232 18.2045 12.2442 18.2045C8.72789 18.2045 5.89534 15.4363 5.89534 12C5.89534 8.56362 8.72789 5.79544 12.2442 5.79544C13.7581 5.79544 15.1255 6.32044 16.2 7.17953L19.3255 4.12499C17.4209 2.50227 14.979 1.5 12.2442 1.5C6.28603 1.5 1.5 6.17726 1.5 12C1.5 17.8227 6.28603 22.4999 12.2442 22.4999C17.6162 22.4999 22.4999 18.6818 22.4999 12C22.4999 11.3795 22.4023 10.7113 22.2558 10.0909Z" fill="white"/>
</mask>
<g mask="url(#mask1_1771_49)">
<path d="M0.523438 5.79552L8.82574 12L12.2443 9.08869L23.9652 7.22733V0.545532H0.523438V5.79552Z" fill="#EA4335"/>
</g>
<mask id="mask2_1771_49" style="mask-type:alpha" maskUnits="userSpaceOnUse" x="1" y="1" width="22" height="22">
<path fill-rule="evenodd" clip-rule="evenodd" d="M22.2558 10.0909H12.2442V14.1477H18.0069C17.4697 16.725 15.2232 18.2045 12.2442 18.2045C8.72789 18.2045 5.89534 15.4363 5.89534 12C5.89534 8.56362 8.72789 5.79544 12.2442 5.79544C13.7581 5.79544 15.1255 6.32044 16.2 7.17953L19.3255 4.12499C17.4209 2.50227 14.979 1.5 12.2442 1.5C6.28603 1.5 1.5 6.17726 1.5 12C1.5 17.8227 6.28603 22.4999 12.2442 22.4999C17.6162 22.4999 22.4999 18.6818 22.4999 12C22.4999 11.3795 22.4023 10.7113 22.2558 10.0909Z" fill="white"/>
</mask>
<g mask="url(#mask2_1771_49)">
<path d="M0.523438 18.2046L15.1746 7.22733L19.0327 7.7046L23.9652 0.545532V23.4546H0.523438V18.2046Z" fill="#34A853"/>
</g>
<mask id="mask3_1771_49" style="mask-type:alpha" maskUnits="userSpaceOnUse" x="1" y="1" width="22" height="22">
<path fill-rule="evenodd" clip-rule="evenodd" d="M22.2558 10.0909H12.2442V14.1477H18.0069C17.4697 16.725 15.2232 18.2045 12.2442 18.2045C8.72789 18.2045 5.89534 15.4363 5.89534 12C5.89534 8.56362 8.72789 5.79544 12.2442 5.79544C13.7581 5.79544 15.1255 6.32044 16.2 7.17953L19.3255 4.12499C17.4209 2.50227 14.979 1.5 12.2442 1.5C6.28603 1.5 1.5 6.17726 1.5 12C1.5 17.8227 6.28603 22.4999 12.2442 22.4999C17.6162 22.4999 22.4999 18.6818 22.4999 12C22.4999 11.3795 22.4023 10.7113 22.2558 10.0909Z" fill="white"/>
</mask>
<g mask="url(#mask3_1771_49)">
<path d="M23.965 23.4547L8.82555 12.0002L6.87207 10.5684L23.965 5.79565V23.4547Z" fill="#4285F4"/>
</g>
</svg>
