<svg width="320" height="208" viewBox="0 0 320 208" fill="none" xmlns="http://www.w3.org/2000/svg">
    <defs>
        <linearGradient id="paint0_linear_216_1837" x1="160" y1="184.199" x2="160" y2="208"
            gradientUnits="userSpaceOnUse">
            <stop stop-color="white" stop-opacity="0" />
            <stop offset="1" stop-color="white" />
        </linearGradient>
        <clipPath id="clip0_216_1837">
            <rect width="320" height="208" fill="white" />
        </clipPath>
    </defs>
    <g clip-path="url(#clip0_216_1837)">
        <path
            d="M29.3984 74.3931C29.3984 68.2343 34.3911 63.2417 40.5498 63.2417H279.607C285.766 63.2417 290.759 68.2343 290.759 74.3931V217.967H29.3984V74.3931Z"
            fill="#FFEEE5" />
        <path d="M0 0H320V208H0V0Z" fill="#FCE2A6" />
        <path
            d="M255.082 89.4537L282.946 100.436C294.717 105.075 294.717 121.733 282.946 126.373L255.082 137.355C222.718 150.092 197.18 175.688 184.38 208.048L173.395 235.914C168.755 247.683 152.099 247.683 147.459 235.914L136.473 208.048C123.735 175.749 98.1359 150.153 65.7715 137.355L37.9075 126.373C26.1369 121.733 26.1369 105.075 37.9075 100.436L65.7715 89.4537C98.075 76.7166 123.674 51.1206 136.473 18.76L147.459 -9.10567C152.099 -20.8749 168.755 -20.8749 173.395 -9.10565L184.38 18.76C197.119 51.0597 222.718 76.6557 255.082 89.4537Z"
            fill="white" fill-opacity="0.4" />
        <path
            d="M224.536 96.4623L233.703 100.099C245.435 104.753 245.435 121.359 233.703 126.013L224.536 129.649C202.258 138.474 184.679 156.207 175.869 178.628L172.36 187.586C167.735 199.394 151.026 199.394 146.401 187.586L142.892 178.628C134.124 156.25 116.503 138.516 94.2254 129.649L85.0584 126.013C73.3262 121.359 73.3262 104.753 85.0584 100.099L94.2254 96.4623C116.461 87.6378 134.082 69.9043 142.892 47.484L146.401 38.5254C151.026 26.7179 167.735 26.7179 172.36 38.5254L175.869 47.484C184.637 69.862 202.258 87.5956 224.536 96.4623Z"
            fill="white" />
        <path d="M210.629 97.7263L221.12 95.3064" stroke="#F8B825" stroke-width="2.78784"
            stroke-miterlimit="10" stroke-linecap="round" />
        <path d="M208.24 89.2756L212.653 84.5122" stroke="#F8B825" stroke-width="2.78784"
            stroke-miterlimit="10" stroke-linecap="round" />
        <path d="M211.979 105.425L218.051 107.97" stroke="#F8B825" stroke-width="2.78784"
            stroke-miterlimit="10" stroke-linecap="round" />
        <path fill-rule="evenodd" clip-rule="evenodd"
            d="M159.079 92.6211L182.736 111.002L191.217 92.6333L159.079 92.6211Z" fill="#FFCF00" />
        <path fill-rule="evenodd" clip-rule="evenodd"
            d="M159.079 110.695V160.631L182.736 110.695H159.079Z" fill="#FF3C00" />
        <path fill-rule="evenodd" clip-rule="evenodd"
            d="M126.95 92.6211L127.02 92.8049L135.42 111.002L149.422 99.9975L159.077 92.6211H126.95Z"
            fill="#FFF138" />
        <path fill-rule="evenodd" clip-rule="evenodd"
            d="M135.417 110.695L159.075 160.631V110.695H135.417Z" fill="#FF6F00" />
        <path fill-rule="evenodd" clip-rule="evenodd"
            d="M111.471 110.695L159.078 160.631L135.421 110.695H111.471Z" fill="#FFCD00" />
        <path fill-rule="evenodd" clip-rule="evenodd"
            d="M149.425 99.9981L135.417 110.696H159.075V92.6333L149.425 99.9981Z" fill="#FFCD00" />
        <path fill-rule="evenodd" clip-rule="evenodd"
            d="M111.471 110.695H135.421L126.94 92.6321L111.471 110.695Z" fill="#FFEA00" />
        <path fill-rule="evenodd" clip-rule="evenodd"
            d="M182.736 110.696H206.685L191.217 92.6333L182.736 110.696Z" fill="#F435FF" />
        <path fill-rule="evenodd" clip-rule="evenodd"
            d="M159.079 110.696H182.736L159.079 92.6333V110.696Z" fill="#FFB600" />
        <path fill-rule="evenodd" clip-rule="evenodd"
            d="M182.736 110.695L159.079 160.631L206.685 110.695H182.736Z" fill="#8B00CD" />
        <path fill-rule="evenodd" clip-rule="evenodd"
            d="M126.951 92.6211L126.939 92.6333L127.021 92.8049L149.423 99.9975L159.078 92.6211H126.951Z"
            fill="#FFEA7C" />
        <path fill-rule="evenodd" clip-rule="evenodd"
            d="M159.079 103.098L182.736 110.695L159.079 92.6333V103.098Z" fill="#FF8D00" />
        <path fill-rule="evenodd" clip-rule="evenodd"
            d="M149.425 99.9968L159.075 103.097V92.6321L149.425 99.9968Z" fill="#FFB100" />
        <path
            d="M194.852 154.922C193.912 157.95 191.848 163.726 188.355 169.189H176.207C176.207 169.189 182.022 160.272 184.607 154.845C184.607 154.845 187.726 148.09 193.399 151.262C194.688 151.981 195.289 153.511 194.852 154.922Z"
            fill="#E59A7A" />
        <path
            d="M185.302 157.849C184.453 160.587 182.588 165.805 179.431 170.743H168.452C168.452 170.743 173.824 162.218 176.042 157.782C176.042 157.782 178.861 151.678 183.989 154.545C185.152 155.195 185.697 156.578 185.302 157.852V157.849Z"
            fill="#E59A7A" />
        <path
            d="M121.432 159.496L94.6892 196.671L125.346 205.476L134.804 188.193C138.44 189.073 136.761 188.934 141.585 189.264C170.185 191.22 182.463 179.261 184.908 176.481C185.229 176.118 185.383 175.912 185.383 175.912C200.116 172.94 205.314 167.921 205.314 167.921C206.557 166.912 206.85 165.134 205.995 163.783C202.711 158.596 196.239 160.922 196.239 160.922C157.209 171.002 147.646 159.888 147.646 159.888L157.384 151.433C160.161 149.023 160.433 144.797 157.971 142.049C156.423 140.317 153.79 140.096 151.949 141.511L137.307 152.781C128.26 152.006 121.432 159.496 121.432 159.496Z"
            fill="#FDC3A4" />
        <path
            d="M185.432 175.95C185.432 175.95 177.241 178.496 167.238 178.989C167.238 178.989 163.877 184.674 158.449 183.511"
            stroke="#221F20" stroke-width="1.95681" stroke-miterlimit="10" stroke-linecap="round" />
        <path d="M191.568 162.005C191.568 162.005 182.525 164.527 172.518 165.023" stroke="#221F20"
            stroke-width="1.95681" stroke-miterlimit="10" stroke-linecap="round" />
        <path d="M184.213 155.554C184.213 155.554 181.419 161.544 179.708 164.278" stroke="#221F20"
            stroke-width="1.95681" stroke-miterlimit="10" stroke-linecap="round" />
        <path d="M147.097 160.29C147.097 160.29 145.794 161.956 144.998 163.695" stroke="#221F20"
            stroke-width="1.95681" stroke-miterlimit="10" stroke-linecap="round" />
        <g style="mix-blend-mode:multiply" opacity="0.15">
            <path
                d="M126.976 180.693L109.782 201.354L125.205 205.476L134.804 188.193C138.44 189.073 137.855 189.009 141.585 189.264C170.185 191.22 182.463 179.261 184.908 176.481L179.148 177.739C178.956 177.861 167.632 179.149 167.457 179.188C168.757 179.188 161.708 183.554 161.652 183.554C158.938 184.28 140.674 184.606 126.976 180.693Z"
                fill="#8B2A00" />
        </g>
        <path
            d="M125.886 203.683C117.851 199.079 105.518 190.56 105.679 180.252L54.8512 245.07L105.679 248.671L130.57 212.033L134.067 206.648L129.013 199.181L127.751 200.811C127.751 200.811 133.921 208.288 125.886 203.683Z"
            fill="#F55905" />
        <path
            d="M125.624 203.616L128.82 198.851C130.952 200.337 135.864 204.038 134.068 206.648C133.169 207.953 128.497 205.481 125.624 203.616Z"
            fill="#8C2521" />
        <path
            d="M96.4192 66.879L98.5744 67.7955C99.7027 68.2753 99.7027 69.8744 98.5744 70.3542L96.4192 71.2707C93.669 72.4385 91.4989 74.7852 90.4113 77.7521L89.6817 79.7491C89.2368 80.9665 87.515 80.9665 87.0701 79.7491L86.3405 77.7521C85.258 74.7908 83.0828 72.4441 80.3326 71.2707L78.1774 70.3542C77.0491 69.8744 77.0491 68.2753 78.1774 67.7955L80.3326 66.879C83.0776 65.7112 85.2528 63.3645 86.3405 60.3976L87.0701 58.4006C87.515 57.1832 89.2368 57.1832 89.6817 58.4006L90.4113 60.3976C91.4938 63.3589 93.669 65.7056 96.4192 66.879Z"
            fill="#F8B825" />
        <path
            d="M232.767 146.44L235.872 147.664C237.046 148.126 237.046 149.788 235.872 150.25L232.767 151.474C229.365 152.813 226.681 155.503 225.336 158.904L224.112 162.009C223.649 163.183 221.988 163.183 221.525 162.009L220.301 158.904C218.962 155.509 216.272 152.819 212.87 151.474L209.765 150.25C208.591 149.788 208.591 148.126 209.765 147.664L212.87 146.44C216.265 145.101 218.956 142.411 220.301 139.01L221.525 135.905C221.988 134.731 223.649 134.731 224.112 135.905L225.336 139.01C226.675 142.405 229.365 145.095 232.767 146.44Z"
            fill="#F8B825" />
        <path
            d="M86.5205 150.23L87.1797 150.49C88.3536 150.952 88.3536 152.614 87.1797 153.077L86.5205 153.336C84.4217 154.162 82.7656 155.822 81.9356 157.921L81.6755 158.58C81.2128 159.754 79.5516 159.754 79.0889 158.58L78.8289 157.921C78.0028 155.826 76.3427 154.166 74.2439 153.336L73.5848 153.077C72.4108 152.614 72.4108 150.952 73.5848 150.49L74.2439 150.23C76.3388 149.404 77.9988 147.744 78.8289 145.646L79.0889 144.986C79.5516 143.812 81.2128 143.812 81.6755 144.986L81.9356 145.646C82.7616 147.74 84.4217 149.4 86.5205 150.23Z"
            fill="white" />
        <path
            d="M222.881 62.9782C223.999 63.4189 223.999 65.0012 222.881 65.4419C221.216 66.0969 219.903 67.4134 219.244 69.0778C218.803 70.1959 217.221 70.1959 216.78 69.0778C216.125 67.4165 214.808 66.1001 213.144 65.4419C212.026 65.0012 212.026 63.4189 213.144 62.9782C214.805 62.3231 216.122 61.0067 216.78 59.3423C217.221 58.2242 218.803 58.2242 219.244 59.3423C219.899 61.0035 221.216 62.32 222.881 62.9782Z"
            fill="white" />
        <path fill-rule="evenodd" clip-rule="evenodd"
            d="M122.477 42.19C122.168 42.2975 121.843 42.3526 121.516 42.3519C120.467 42.3519 119.961 41.8023 119.503 40.9764C119.349 40.7143 119.267 40.1397 119.267 40.1397V35.6145H123.147L122.937 33.8109C122.837 32.9218 122.084 32.2485 121.187 32.2451H119.267V26.6521C119.267 26.6521 118.105 26.7294 117.717 26.757C115.731 26.9122 114.388 28.232 114.388 29.7735L114.397 32.3755L110.962 32.5032V33.8048C110.962 34.8041 111.775 35.6145 112.778 35.6145H114.397V40.2493L114.423 40.9246C114.434 42.8284 115.478 44.5769 117.151 45.4928C118.825 46.4088 120.865 46.349 122.481 45.3356L122.477 42.1907V42.19ZM146.978 44.9333C145.982 44.131 145.484 43.0114 145.484 41.5734C145.484 40.0802 145.965 38.9324 146.926 38.1307C147.888 37.329 149.266 36.9279 151.058 36.9272C151.764 36.9285 152.468 37.0072 153.158 37.1624C153.782 37.2934 154.388 37.5024 154.962 37.7847V37.5085C154.962 36.0885 153.832 35.3782 151.57 35.3782C149.991 35.3782 149.025 35.4844 147.715 36.1067C147.715 36.1067 147.537 34.7647 147.493 34.3071C147.397 33.2991 148.172 32.5451 149.47 32.2965L149.497 32.2911C150.457 32.1137 151.43 32.0257 152.405 32.029C154.809 32.029 156.626 32.5223 157.856 33.5101C159.086 34.4979 159.701 35.8762 159.699 37.6449V43.7143C159.699 45.3406 159.147 45.7202 157.836 45.7202H155.381L155.254 44.5906C154.728 45.096 154.105 45.4824 153.424 45.7243C152.611 46.0132 151.755 46.1544 150.894 46.1389C149.278 46.1389 147.973 45.7377 146.979 44.936M153.857 42.8059C154.297 42.613 154.678 42.3033 154.961 41.9075V40.7429C154.181 40.206 153.261 39.9257 152.322 39.9405C151.695 39.9405 151.21 40.079 150.869 40.3558C150.528 40.632 150.356 41.0379 150.354 41.5728C150.354 42.0667 150.519 42.4551 150.852 42.7374C151.185 43.0196 151.665 43.158 152.294 43.152C152.834 43.156 153.367 43.0377 153.857 42.8059M181.501 44.9305C180.504 44.1281 180.006 43.0086 180.007 41.5705C180.007 40.076 180.488 38.9276 181.449 38.1259C182.411 37.3242 183.788 36.923 185.581 36.9223C186.287 36.923 186.991 37.0023 187.681 37.1575C188.305 37.2886 188.911 37.4976 189.486 37.7798V37.5036C189.486 36.083 188.355 35.3734 186.094 35.3734C184.514 35.3734 183.547 35.4789 182.237 36.1018C182.237 36.1018 182.059 34.7592 182.016 34.3016C181.921 33.2929 182.694 32.5389 183.993 32.2896L184.02 32.2849C184.979 32.1095 185.952 32.0235 186.927 32.0282C189.331 32.0282 191.148 32.5228 192.377 33.5106C193.607 34.4985 194.222 35.8774 194.222 37.6461V43.7176C194.222 45.3451 193.669 45.7241 192.359 45.7241H189.903L189.779 44.5898C189.253 45.0958 188.629 45.4822 187.948 45.7241C187.135 46.0131 186.278 46.1542 185.418 46.1387C183.803 46.1387 182.498 45.7376 181.503 44.9352M188.38 42.8051C188.82 42.6122 189.201 42.3017 189.485 41.9059V40.7414C188.705 40.2038 187.785 39.9242 186.846 39.939C186.218 39.939 185.733 40.0774 185.392 40.3536C185.051 40.6305 184.879 41.0364 184.877 41.5713C184.877 42.0652 185.042 42.4536 185.375 42.7358C185.707 43.0181 186.187 43.1565 186.817 43.1511C187.356 43.1552 187.889 43.0369 188.378 42.8051M124.641 44.9374C123.645 44.135 123.147 43.0155 123.147 41.5774C123.147 40.0822 123.627 38.9344 124.588 38.1328C125.55 37.3304 126.928 36.9299 128.72 36.9285C129.426 36.9299 130.13 37.0092 130.82 37.1637C131.444 37.2948 132.05 37.5038 132.625 37.786V37.5105C132.625 36.0899 131.494 35.3796 129.233 35.3796C127.654 35.3796 126.687 35.4858 125.377 36.108C125.377 36.108 125.199 34.7654 125.156 34.3078C125.06 33.2991 125.834 32.5451 127.132 32.2965L127.159 32.2911C128.119 32.1137 129.093 32.0257 130.067 32.029C132.471 32.029 134.288 32.5223 135.517 33.5108C136.747 34.4986 137.362 35.8775 137.362 37.6462V43.7177C137.362 45.3453 136.809 45.7243 135.499 45.7243H133.043L132.918 44.5899C132.393 45.096 131.769 45.4824 131.088 45.7243C130.275 46.0132 129.419 46.1544 128.559 46.1389C126.943 46.1389 125.638 45.7377 124.643 44.9354M131.521 42.8051C131.961 42.6122 132.342 42.3011 132.625 41.9059V40.7414C131.846 40.2038 130.925 39.9242 129.987 39.939C129.358 39.939 128.873 40.0768 128.533 40.3536C128.192 40.6305 128.02 41.0364 128.018 41.5713C128.018 42.0652 128.184 42.4536 128.515 42.7358C128.848 43.0127 129.328 43.1511 129.957 43.1511C130.497 43.1552 131.03 43.0369 131.519 42.8051M144.131 45.4681L144.126 25.9802C144.126 25.9802 142.998 26.0555 142.622 26.083C140.699 26.2356 139.392 27.5231 139.392 29.0203V45.4681H144.131ZM177.783 35.585C177.223 34.5461 176.374 33.6907 175.338 33.1208C174.293 32.5402 173.077 32.2493 171.692 32.2493C170.844 32.2452 170 32.379 169.195 32.6444C168.468 32.8695 167.793 33.2351 167.209 33.7203L167.222 25.9802C167.222 25.9802 166.074 26.0562 165.692 26.0844C163.73 26.2376 162.407 27.544 162.407 29.0606V45.7315H166.923L167.05 44.4245C168.269 45.5669 169.817 46.1394 171.692 46.1401C173.058 46.1401 174.269 45.8538 175.325 45.2819C176.362 44.7282 177.216 43.8855 177.783 42.8574C178.363 41.8144 178.652 40.6015 178.652 39.2192C178.652 37.8577 178.361 36.6455 177.779 35.5837M172.809 41.5755C172.208 42.148 171.416 42.4343 170.433 42.4336C169.737 42.443 169.053 42.2488 168.466 41.8759C167.897 41.5184 167.457 40.9888 167.211 40.3639V38.0509C167.457 37.4259 167.896 36.8971 168.466 36.5389C169.053 36.1659 169.737 35.9717 170.433 35.9811C171.416 35.9811 172.208 36.2714 172.809 36.852C173.41 37.4333 173.712 38.2229 173.714 39.2195C173.714 40.2194 173.413 41.005 172.814 41.5755M205.735 42.1886C205.426 42.2962 205.102 42.3513 204.775 42.3513C203.727 42.3513 203.22 41.8016 202.762 40.975C202.608 40.7136 202.526 40.1391 202.526 40.1391V35.6145H206.405L206.201 33.8136C206.102 32.9212 205.346 32.2458 204.446 32.2451H202.526V26.6521C202.526 26.6521 201.365 26.7294 200.977 26.757C198.992 26.9122 197.645 28.232 197.645 29.7735L197.654 32.3748L194.221 32.5025V33.8042C194.221 34.8041 195.033 35.6145 196.035 35.6145H197.654V40.2486L197.676 40.9253C197.687 42.8284 198.73 44.5769 200.404 45.4928C202.076 46.4088 204.115 46.349 205.731 45.3356L205.735 42.1893V42.1886Z"
            fill="#FF5A00" />
        <path d="M0 0H320V208H0V0Z" fill="url(#paint0_linear_216_1837)" />
    </g>
</svg>
