<svg width="25" height="24" viewBox="0 0 25 24" fill="none" xmlns="http://www.w3.org/2000/svg">
<path d="M18.6414 4.28125C16.9839 4.28125 15.6414 5.60977 15.6414 7.25V9.625H16.8414C18.1652 9.625 19.2414 10.69 19.2414 12V19.125C19.2414 20.435 18.1652 21.5 16.8414 21.5H4.84141C3.51766 21.5 2.44141 20.435 2.44141 19.125V12C2.44141 10.69 3.51766 9.625 4.84141 9.625H13.8414V7.25C13.8414 4.62637 15.9902 2.5 18.6414 2.5C21.2927 2.5 23.4414 4.62637 23.4414 7.25V9.92188C23.4414 10.4154 23.0402 10.8125 22.5414 10.8125C22.0427 10.8125 21.6414 10.4154 21.6414 9.92188V7.25C21.6414 5.60977 20.2989 4.28125 18.6414 4.28125ZM16.8414 11.4062H4.84141C4.51141 11.4062 4.24141 11.6734 4.24141 12V19.125C4.24141 19.4516 4.51141 19.7188 4.84141 19.7188H16.8414C17.1714 19.7188 17.4414 19.4516 17.4414 19.125V12C17.4414 11.6734 17.1714 11.4062 16.8414 11.4062ZM12.0414 16.4531H9.64141C9.14266 16.4531 8.74141 16.0561 8.74141 15.5625C8.74141 15.0689 9.14266 14.6719 9.64141 14.6719H12.0414C12.5402 14.6719 12.9414 15.0689 12.9414 15.5625C12.9414 16.0561 12.5402 16.4531 12.0414 16.4531Z" fill="#262626"/>
</svg>
