<svg width="24" height="24" viewBox="0 0 24 24" fill="none" xmlns="http://www.w3.org/2000/svg">
<path d="M13.0385 4.03846C13.0385 3.46298 12.5755 3 12 3C11.4245 3 10.9615 3.46298 10.9615 4.03846V10.9615H4.03846C3.46298 10.9615 3 11.4245 3 12C3 12.5755 3.46298 13.0385 4.03846 13.0385H10.9615V19.9615C10.9615 20.537 11.4245 21 12 21C12.5755 21 13.0385 20.537 13.0385 19.9615V13.0385H19.9615C20.537 13.0385 21 12.5755 21 12C21 11.4245 20.537 10.9615 19.9615 10.9615H13.0385V4.03846Z" fill="#262626"/>
</svg>
