<svg width="24" height="24" viewBox="0 0 24 24" fill="none" xmlns="http://www.w3.org/2000/svg">
<path d="M1.5 4.9993C1.5 5.53778 1.5 6.07625 1.5 6.61473C1.5 7.06234 1.8601 7.42244 2.30769 7.42244C2.84615 7.42244 3.38462 7.42244 3.92308 7.42244C4.37067 7.42244 4.73077 7.06234 4.73077 6.61473C4.73077 6.07625 4.73077 5.53778 4.73077 4.9993C4.73077 4.5517 4.37067 4.19159 3.92308 4.19159C3.38462 4.19159 2.84615 4.19159 2.30769 4.19159C1.8601 4.19159 1.5 4.5517 1.5 4.9993ZM1.5 10.3841C1.5 10.9225 1.5 11.461 1.5 11.9995C1.5 12.4471 1.8601 12.8072 2.30769 12.8072C2.84615 12.8072 3.38462 12.8072 3.92308 12.8072C4.37067 12.8072 4.73077 12.4471 4.73077 11.9995C4.73077 11.461 4.73077 10.9225 4.73077 10.3841C4.73077 9.93645 4.37067 9.57635 3.92308 9.57635C3.38462 9.57635 2.84615 9.57635 2.30769 9.57635C1.8601 9.57635 1.5 9.93645 1.5 10.3841ZM1.5 15.7688C1.5 16.3073 1.5 16.8458 1.5 17.3842C1.5 17.8319 1.8601 18.192 2.30769 18.192C2.84615 18.192 3.38462 18.192 3.92308 18.192C4.37067 18.192 4.73077 17.8319 4.73077 17.3842C4.73077 16.8458 4.73077 16.3073 4.73077 15.7688C4.73077 15.3212 4.37067 14.9611 3.92308 14.9611C3.38462 14.9611 2.84615 14.9611 2.30769 14.9611C1.8601 14.9611 1.5 15.3212 1.5 15.7688ZM6.34615 5.80702C6.34615 6.25463 6.70625 6.61473 7.15385 6.61473C10.5663 6.61473 13.9755 6.61473 17.3846 6.61473C17.8322 6.61473 18.1923 6.25463 18.1923 5.80702C18.1923 5.35941 17.8322 4.9993 17.3846 4.9993C13.9721 4.9993 10.563 4.9993 7.15385 4.9993C6.70625 4.9993 6.34615 5.35941 6.34615 5.80702ZM6.34615 11.1918C6.34615 11.6394 6.70625 11.9995 7.15385 11.9995C8.94423 11.9995 10.7346 11.9995 12.5216 11.9995C12.8784 11.3802 13.3462 10.835 13.8913 10.3841C11.6433 10.3841 9.39856 10.3841 7.15048 10.3841C6.70288 10.3841 6.34279 10.7442 6.34279 11.1918H6.34615ZM6.34615 16.5765C6.34615 17.0241 6.70625 17.3842 7.15385 17.3842C8.85337 17.3842 10.5495 17.3842 12.249 17.3842C12.0236 16.8794 11.8654 16.3376 11.7846 15.7688C10.2399 15.7688 8.69519 15.7688 7.15385 15.7688C6.70625 15.7688 6.34615 16.1289 6.34615 16.5765ZM12.8077 14.9611C12.8077 17.6367 14.9784 19.8074 17.6538 19.8074C20.3293 19.8074 22.5 17.6367 22.5 14.9611C22.5 12.2856 20.3293 10.1148 17.6538 10.1148C14.9784 10.1148 12.8077 12.2856 12.8077 14.9611ZM14.9615 14.9611C14.9615 14.6649 15.2038 14.4226 15.5 14.4226C16.0385 14.4226 16.5769 14.4226 17.1154 14.4226C17.1154 13.8842 17.1154 13.3457 17.1154 12.8072C17.1154 12.511 17.3577 12.2687 17.6538 12.2687C17.95 12.2687 18.1923 12.511 18.1923 12.8072C18.1923 13.3457 18.1923 13.8842 18.1923 14.4226C18.7308 14.4226 19.2692 14.4226 19.8077 14.4226C20.1038 14.4226 20.3462 14.6649 20.3462 14.9611C20.3462 15.2573 20.1038 15.4996 19.8077 15.4996C19.2692 15.4996 18.7308 15.4996 18.1923 15.4996C18.1923 16.0381 18.1923 16.5765 18.1923 17.115C18.1923 17.4112 17.95 17.6535 17.6538 17.6535C17.3577 17.6535 17.1154 17.4112 17.1154 17.115C17.1154 16.5765 17.1154 16.0381 17.1154 15.4996C16.5769 15.4996 16.0385 15.4996 15.5 15.4996C15.2038 15.4996 14.9615 15.2573 14.9615 14.9611Z" fill="#262626"/>
</svg>
