<svg width="24" height="24" viewBox="0 0 24 24" fill="none" xmlns="http://www.w3.org/2000/svg">
<path d="M8.94436 3.41362C9.60881 2.37226 10.7695 1.74988 12 1.74988C13.2305 1.74988 14.3912 2.37226 15.0556 3.41362L17.6109 7.40416L17.8816 6.11059C17.9923 5.58177 18.5132 5.24414 19.0423 5.3499C19.5714 5.45567 19.916 5.97635 19.8093 6.5011L19.0136 10.3411C18.9562 10.6137 18.7839 10.8496 18.542 10.9879C18.3 11.1262 18.0046 11.1588 17.738 11.0693L13.9892 9.83265C13.4725 9.6618 13.1935 9.10858 13.3658 8.6001C13.5381 8.09162 14.0959 7.81094 14.6086 7.98179L15.9293 8.41705L13.3945 4.45905C13.0951 3.99125 12.566 3.70243 12 3.70243C11.434 3.70243 10.9049 3.99125 10.6055 4.45905L9.72365 5.83804C9.43654 6.2855 8.84592 6.42381 8.38655 6.15127C7.91077 5.87059 7.76722 5.25634 8.06253 4.79261L8.94436 3.41362ZM19.5058 12.1432C19.9652 11.8706 20.5558 12.0089 20.8429 12.4564L21.9421 14.173C22.3031 14.7384 22.4958 15.3934 22.4999 16.0605C22.5122 18.0375 20.9003 19.6483 18.907 19.6483H13.2797L14.2969 20.5432C14.7029 20.9012 14.7398 21.5195 14.3789 21.9222C14.018 22.3249 13.3945 22.3616 12.9885 22.0036L10.0354 19.4002C9.82619 19.2131 9.70314 18.9486 9.70314 18.672C9.70314 18.3954 9.82209 18.1269 10.0354 17.9439L12.9885 15.3405C13.3945 14.9825 14.018 15.0191 14.3789 15.4218C14.7398 15.8246 14.7029 16.4429 14.2969 16.8008L13.2756 17.6958H18.907C19.8093 17.6958 20.5394 16.9676 20.5312 16.0727C20.5312 15.7717 20.441 15.4747 20.2769 15.2185L19.1777 13.5018C18.8824 13.0381 19.03 12.4239 19.5017 12.1432H19.5058ZM6.72543 12.2937L6.45062 10.9594L3.7231 15.2185C3.55904 15.4747 3.47291 15.7717 3.46881 16.0727C3.46471 16.9676 4.19478 17.6958 5.09301 17.6958H7.07816C7.62366 17.6958 8.06253 18.131 8.06253 18.672C8.06253 19.2131 7.62366 19.6483 7.07816 19.6483H5.09301C3.09967 19.6483 1.48777 18.0415 1.50007 16.0646C1.50417 15.3974 1.69694 14.7425 2.05788 14.1771L4.73208 9.99943L3.4524 10.4184C2.93561 10.5893 2.3778 10.3127 2.20964 9.80011C2.04147 9.28756 2.31628 8.73434 2.83307 8.56756L6.58187 7.33094C6.84847 7.24144 7.13968 7.27399 7.38577 7.41229C7.63187 7.5506 7.80003 7.78653 7.85745 8.05908L8.65315 11.8991C8.76389 12.4279 8.41936 12.9445 7.88616 13.0503C7.35296 13.1561 6.83207 12.8184 6.72543 12.2896V12.2937Z" fill="#262626"/>
</svg>
