<svg width="24" height="24" viewBox="0 0 24 24" fill="none" xmlns="http://www.w3.org/2000/svg">
<path fill-rule="evenodd" clip-rule="evenodd" d="M20.0227 13.029C20.0659 12.693 20.0983 12.357 20.0983 12C20.0983 11.643 20.0659 11.307 20.0227 10.971L22.3004 9.2385C22.5055 9.081 22.5595 8.7975 22.4299 8.5665L20.271 4.9335C20.1739 4.7655 19.9904 4.671 19.7961 4.671C19.7313 4.671 19.6665 4.6815 19.6125 4.7025L16.9247 5.7525C16.3634 5.3325 15.7589 4.986 15.1004 4.7235L14.6902 1.941C14.6578 1.689 14.4312 1.5 14.1613 1.5H9.84347C9.57361 1.5 9.34692 1.689 9.31454 1.941L8.90435 4.7235C8.24588 4.986 7.64138 5.343 7.08006 5.7525L4.39222 4.7025C4.32745 4.6815 4.26269 4.671 4.19792 4.671C4.01441 4.671 3.8309 4.7655 3.73375 4.9335L1.57484 8.5665C1.43451 8.7975 1.49928 9.081 1.70438 9.2385L3.98203 10.971C3.93885 11.307 3.90647 11.6535 3.90647 12C3.90647 12.3465 3.93885 12.693 3.98203 13.029L1.70438 14.7615C1.49928 14.919 1.44531 15.2025 1.57484 15.4335L3.73375 19.0665C3.8309 19.2345 4.01441 19.329 4.20871 19.329C4.27348 19.329 4.33825 19.3185 4.39222 19.2975L7.08006 18.2475C7.64138 18.6675 8.24588 19.014 8.90435 19.2765L9.31454 22.059C9.34692 22.311 9.57361 22.5 9.84347 22.5H14.1613C14.4312 22.5 14.6578 22.311 14.6902 22.059L15.1004 19.2765C15.7589 19.014 16.3634 18.657 16.9247 18.2475L19.6125 19.2975C19.6773 19.3185 19.7421 19.329 19.8068 19.329C19.9904 19.329 20.1739 19.2345 20.271 19.0665L22.4299 15.4335C22.5595 15.2025 22.5055 14.919 22.3004 14.7615L20.0227 13.029ZM12.0037 9C10.342 9 9 10.3441 9 12C9 13.6522 10.342 15 12.0037 15C13.658 15 15 13.6522 15 12C15 10.3441 13.658 9 12.0037 9Z" fill="#262626"/>
</svg>
