<svg width="25" height="24" viewBox="0 0 25 24" fill="none" xmlns="http://www.w3.org/2000/svg">
<path d="M20.8405 5.51786C21.1613 5.51786 21.4238 5.78304 21.4238 6.10714V7.28571H3.92383V6.10714C3.92383 5.78304 4.18633 5.51786 4.50716 5.51786H20.8405ZM21.4238 10.8214V17.8929C21.4238 18.217 21.1613 18.4821 20.8405 18.4821H4.50716C4.18633 18.4821 3.92383 18.217 3.92383 17.8929V10.8214H21.4238ZM4.50716 3.75C3.22018 3.75 2.17383 4.80703 2.17383 6.10714V17.8929C2.17383 19.193 3.22018 20.25 4.50716 20.25H20.8405C22.1275 20.25 23.1738 19.193 23.1738 17.8929V6.10714C23.1738 4.80703 22.1275 3.75 20.8405 3.75H4.50716ZM6.54883 14.9464C6.06393 14.9464 5.67383 15.3405 5.67383 15.8304C5.67383 16.3202 6.06393 16.7143 6.54883 16.7143H8.29883C8.78372 16.7143 9.17383 16.3202 9.17383 15.8304C9.17383 15.3405 8.78372 14.9464 8.29883 14.9464H6.54883ZM11.2155 14.9464C10.7306 14.9464 10.3405 15.3405 10.3405 15.8304C10.3405 16.3202 10.7306 16.7143 11.2155 16.7143H15.2988C15.7837 16.7143 16.1738 16.3202 16.1738 15.8304C16.1738 15.3405 15.7837 14.9464 15.2988 14.9464H11.2155Z" fill="#262626"/>
</svg>
