<svg width="25" height="24" viewBox="0 0 25 24" fill="none" xmlns="http://www.w3.org/2000/svg">
<path d="M12.6738 3.46875C14.9365 3.46875 17.1064 4.36758 18.7063 5.9675C20.3063 7.56742 21.2051 9.73737 21.2051 12C21.2051 14.2626 20.3063 16.4326 18.7063 18.0325C17.1064 19.6324 14.9365 20.5312 12.6738 20.5312C10.4112 20.5312 8.24124 19.6324 6.64132 18.0325C5.0414 16.4326 4.14258 14.2626 4.14258 12C4.14258 9.73737 5.0414 7.56742 6.64132 5.9675C8.24124 4.36758 10.4112 3.46875 12.6738 3.46875ZM12.6738 22.5C15.4586 22.5 18.1293 21.3938 20.0984 19.4246C22.0676 17.4555 23.1738 14.7848 23.1738 12C23.1738 9.21523 22.0676 6.54451 20.0984 4.57538C18.1293 2.60625 15.4586 1.5 12.6738 1.5C9.88905 1.5 7.21834 2.60625 5.24921 4.57538C3.28008 6.54451 2.17383 9.21523 2.17383 12C2.17383 14.7848 3.28008 17.4555 5.24921 19.4246C7.21834 21.3938 9.88905 22.5 12.6738 22.5ZM17.3086 10.0723C17.6941 9.68672 17.6941 9.06328 17.3086 8.68184C16.923 8.30039 16.2996 8.29629 15.9182 8.68184L11.3654 13.2346L9.4377 11.3068C9.05215 10.9213 8.42871 10.9213 8.04727 11.3068C7.66582 11.6924 7.66172 12.3158 8.04727 12.6973L10.6723 15.3223C11.0578 15.7078 11.6813 15.7078 12.0627 15.3223L17.3086 10.0723Z" fill="#262626"/>
</svg>
