<svg width="25" height="24" viewBox="0 0 25 24" fill="none" xmlns="http://www.w3.org/2000/svg">
<path d="M6.67383 7.40625C6.67383 5.83982 7.30597 4.33754 8.43119 3.2299C9.55641 2.12226 11.0825 1.5 12.6738 1.5C14.2651 1.5 15.7913 2.12226 16.9165 3.2299C18.0417 4.33754 18.6738 5.83982 18.6738 7.40625C18.6738 8.97268 18.0417 10.475 16.9165 11.5826C15.7913 12.6902 14.2651 13.3125 12.6738 13.3125C11.0825 13.3125 9.55641 12.6902 8.43119 11.5826C7.30597 10.475 6.67383 8.97268 6.67383 7.40625ZM12.6738 4.78125C13.0405 4.78125 13.3405 4.48594 13.3405 4.125C13.3405 3.76406 13.0405 3.46875 12.6738 3.46875C10.4655 3.46875 8.67383 5.23242 8.67383 7.40625C8.67383 7.76719 8.97383 8.0625 9.34049 8.0625C9.70716 8.0625 10.0072 7.76719 10.0072 7.40625C10.0072 5.9584 11.203 4.78125 12.6738 4.78125ZM11.3405 21.1875V14.5061C11.7738 14.584 12.2197 14.625 12.6738 14.625C13.128 14.625 13.5738 14.584 14.0072 14.5061V21.1875C14.0072 21.9135 13.4113 22.5 12.6738 22.5C11.9363 22.5 11.3405 21.9135 11.3405 21.1875Z" fill="#262626"/>
</svg>
