<svg width="25" height="24" viewBox="0 0 25 24" fill="none" xmlns="http://www.w3.org/2000/svg">
<path d="M10.2549 4.32188L11.6822 6.75H11.6289H8.67578C7.76934 6.75 7.03516 6.01582 7.03516 5.10938C7.03516 4.20293 7.76934 3.46875 8.67578 3.46875H8.76602C9.37715 3.46875 9.94727 3.79277 10.2549 4.32188ZM5.06641 5.10938C5.06641 5.7 5.20996 6.25781 5.46016 6.75H3.75391C3.02793 6.75 2.44141 7.33652 2.44141 8.0625V10.6875C2.44141 11.4135 3.02793 12 3.75391 12H22.1289C22.8549 12 23.4414 11.4135 23.4414 10.6875V8.0625C23.4414 7.33652 22.8549 6.75 22.1289 6.75H20.4227C20.6729 6.25781 20.8164 5.7 20.8164 5.10938C20.8164 3.11602 19.2004 1.5 17.207 1.5H17.1168C15.8084 1.5 14.5943 2.19316 13.9299 3.32109L12.9414 5.00684L11.9529 3.3252C11.2885 2.19316 10.0744 1.5 8.76602 1.5H8.67578C6.68242 1.5 5.06641 3.11602 5.06641 5.10938ZM18.8477 5.10938C18.8477 6.01582 18.1135 6.75 17.207 6.75H14.2539H14.2006L15.6279 4.32188C15.9396 3.79277 16.5057 3.46875 17.1168 3.46875H17.207C18.1135 3.46875 18.8477 4.20293 18.8477 5.10938ZM3.75391 13.3125V20.5312C3.75391 21.6182 4.63574 22.5 5.72266 22.5H11.6289V13.3125H3.75391ZM14.2539 22.5H20.1602C21.2471 22.5 22.1289 21.6182 22.1289 20.5312V13.3125H14.2539V22.5Z" fill="#262626"/>
</svg>
