<svg width="24" height="24" viewBox="0 0 24 24" fill="none" xmlns="http://www.w3.org/2000/svg">
<path fill-rule="evenodd" clip-rule="evenodd" d="M15.1433 2C17.6029 2 19.2365 2.78299 19.9997 4.32917C20.4483 5.23567 20.5473 6.28315 20.2968 7.44016C20.0218 8.7533 19.4078 9.85322 18.4722 10.7026C18.4442 10.7271 18.4127 10.7551 18.3801 10.783L18.316 10.8378L13.9676 13.4268L13.7474 13.3942C13.3722 13.3382 12.9458 13.3091 12.4809 13.3091H7.90294L6.99178 17.5806L2.68066 20.1475L6.51872 2H15.1433ZM14.8462 9.59572C15.7095 9.20655 16.2339 8.51677 16.4494 7.48793C16.7116 6.2715 16.2548 5.88583 15.8296 5.68542C15.5336 5.55026 14.9079 5.38481 13.6379 5.38481H9.57612L8.60437 9.99071H12.4925C13.4783 9.99071 14.2706 9.85788 14.8462 9.59572ZM15.5828 14.3425L18.8465 12.3955L18.9234 12.5144C19.5269 13.4395 19.6772 14.6396 19.3708 16.0809C19.0947 17.3906 18.4259 18.5884 17.383 19.6405C15.845 21.2053 13.7431 22 11.1354 22H2.75321L8.44737 18.6023H11.6283C13.0043 18.6023 14.0262 18.2272 14.7533 17.457C15.2088 16.9711 15.5059 16.3967 15.6597 15.7011C15.7693 15.1826 15.7541 14.748 15.6131 14.4136L15.5828 14.3425Z" fill="#E90030"/>
</svg>
