<svg width="24" height="24" viewBox="0 0 24 24" fill="none" xmlns="http://www.w3.org/2000/svg">
<path fill-rule="evenodd" clip-rule="evenodd" d="M11.25 6V10.2885L14.5605 13.4807L13.5193 14.5605L9.75 10.9258V6H11.25Z" fill="#262626"/>
<path fill-rule="evenodd" clip-rule="evenodd" d="M10.5 18C14.6421 18 18 14.6421 18 10.5C18 6.35786 14.6421 3 10.5 3C6.35786 3 3 6.35786 3 10.5C3 14.6421 6.35786 18 10.5 18ZM10.5 19.5C15.4706 19.5 19.5 15.4706 19.5 10.5C19.5 5.52944 15.4706 1.5 10.5 1.5C5.52944 1.5 1.5 5.52944 1.5 10.5C1.5 15.4706 5.52944 19.5 10.5 19.5Z" fill="#262626"/>
<path fill-rule="evenodd" clip-rule="evenodd" d="M15.1408 11.063C15.8914 10.3123 17.1086 10.3123 17.8592 11.063L21.937 15.1408C22.6877 15.8914 22.6877 17.1086 21.937 17.8592L17.8592 21.937C17.1086 22.6877 15.8914 22.6877 15.1408 21.937L11.063 17.8592C10.3123 17.1086 10.3123 15.8914 11.063 15.1408L15.1408 11.063Z" fill="#DD1608"/>
<path d="M16.4823 17.7606C16.0829 17.7606 15.75 18.0934 15.75 18.4928C15.75 18.8923 16.0829 19.2251 16.4823 19.2251C16.8817 19.2251 17.2146 18.8923 17.2146 18.4928C17.2146 18.0934 16.8817 17.7606 16.4823 17.7606Z" fill="white"/>
<path d="M16.0163 13.5V16.8286H16.9483V13.5H16.0163Z" fill="white"/>
</svg>
