<svg width="25" height="24" viewBox="0 0 25 24" fill="none" xmlns="http://www.w3.org/2000/svg">
<path d="M8.97712 1.5C9.70804 1.5 10.2985 2.08652 10.2985 2.8125V4.125H15.5843V2.8125C15.5843 2.08652 16.1748 1.5 16.9057 1.5C17.6366 1.5 18.2271 2.08652 18.2271 2.8125V4.125H20.2093C21.3036 4.125 22.1914 5.00684 22.1914 6.09375V8.0625H3.69141V6.09375C3.69141 5.00684 4.57924 4.125 5.67355 4.125H7.65569V2.8125C7.65569 2.08652 8.24621 1.5 8.97712 1.5ZM3.69141 9.375H22.1914V20.5312C22.1914 21.6182 21.3036 22.5 20.2093 22.5H5.67355C4.57924 22.5 3.69141 21.6182 3.69141 20.5312V9.375ZM6.33426 12.6562V13.9688C6.33426 14.3297 6.63158 14.625 6.99498 14.625H8.31641C8.6798 14.625 8.97712 14.3297 8.97712 13.9688V12.6562C8.97712 12.2953 8.6798 12 8.31641 12H6.99498C6.63158 12 6.33426 12.2953 6.33426 12.6562ZM11.62 12.6562V13.9688C11.62 14.3297 11.9173 14.625 12.2807 14.625H13.6021C13.9655 14.625 14.2628 14.3297 14.2628 13.9688V12.6562C14.2628 12.2953 13.9655 12 13.6021 12H12.2807C11.9173 12 11.62 12.2953 11.62 12.6562ZM17.5664 12C17.203 12 16.9057 12.2953 16.9057 12.6562V13.9688C16.9057 14.3297 17.203 14.625 17.5664 14.625H18.8878C19.2512 14.625 19.5485 14.3297 19.5485 13.9688V12.6562C19.5485 12.2953 19.2512 12 18.8878 12H17.5664ZM6.33426 17.9062V19.2188C6.33426 19.5797 6.63158 19.875 6.99498 19.875H8.31641C8.6798 19.875 8.97712 19.5797 8.97712 19.2188V17.9062C8.97712 17.5453 8.6798 17.25 8.31641 17.25H6.99498C6.63158 17.25 6.33426 17.5453 6.33426 17.9062ZM12.2807 17.25C11.9173 17.25 11.62 17.5453 11.62 17.9062V19.2188C11.62 19.5797 11.9173 19.875 12.2807 19.875H13.6021C13.9655 19.875 14.2628 19.5797 14.2628 19.2188V17.9062C14.2628 17.5453 13.9655 17.25 13.6021 17.25H12.2807ZM16.9057 17.9062V19.2188C16.9057 19.5797 17.203 19.875 17.5664 19.875H18.8878C19.2512 19.875 19.5485 19.5797 19.5485 19.2188V17.9062C19.5485 17.5453 19.2512 17.25 18.8878 17.25H17.5664C17.203 17.25 16.9057 17.5453 16.9057 17.9062Z" fill="#262626"/>
</svg>
