<svg width="24" height="24" viewBox="0 0 24 24" fill="none" xmlns="http://www.w3.org/2000/svg">
<path d="M1.98768 18.6627L2.82625 15.8151C2.97939 15.301 3.25648 14.8307 3.63566 14.4515L14.7231 3.36032C15.6346 2.44881 17.1112 2.44881 18.0227 3.36032L19.4592 4.79685C19.5723 4.90988 19.6744 5.03384 19.7582 5.16145C20.3562 6.06567 20.2577 7.29802 19.4592 8.0965L8.3718 19.1877C8.3244 19.2351 8.277 19.2825 8.22596 19.3263C7.87595 19.6362 7.4603 19.8659 7.0082 19.9971L4.16069 20.8357L2.62208 21.2878C2.31582 21.379 1.98403 21.2951 1.75798 21.0654C1.53193 20.8357 1.44443 20.5112 1.53557 20.2013L1.98768 18.6627ZM4.25548 17.1605L3.66483 19.1585L5.66283 18.5715L6.51599 18.32C6.74934 18.2507 6.96445 18.1231 7.13581 17.9517L15.4632 9.62054L13.2027 7.36001L4.87165 15.6875C4.84978 15.7094 4.8279 15.7313 4.80967 15.7532C4.66748 15.9136 4.56539 16.1032 4.50341 16.3074L4.25184 17.1605H4.25548ZM10.5412 19.5742H21.625C22.1099 19.5742 22.5 19.9643 22.5 20.4492C22.5 20.9342 22.1099 21.3243 21.625 21.3243H10.5412C10.0562 21.3243 9.66613 20.9342 9.66613 20.4492C9.66613 19.9643 10.0562 19.5742 10.5412 19.5742Z" fill="#262626"/>
</svg>
