<svg width="25" height="24" viewBox="0 0 25 24" fill="none" xmlns="http://www.w3.org/2000/svg">
<path d="M15.4286 6.75C15.4286 5.87976 15.0805 5.04516 14.461 4.42981C13.8414 3.81445 13.0012 3.46875 12.125 3.46875C11.2488 3.46875 10.4086 3.81445 9.78902 4.42981C9.16948 5.04516 8.82143 5.87976 8.82143 6.75C8.82143 7.62024 9.16948 8.45484 9.78902 9.07019C10.4086 9.68555 11.2488 10.0312 12.125 10.0312C13.0012 10.0312 13.8414 9.68555 14.461 9.07019C15.0805 8.45484 15.4286 7.62024 15.4286 6.75ZM6.83929 6.75C6.83929 5.35761 7.39617 4.02226 8.38743 3.03769C9.3787 2.05312 10.7231 1.5 12.125 1.5C13.5269 1.5 14.8713 2.05312 15.8626 3.03769C16.8538 4.02226 17.4107 5.35761 17.4107 6.75C17.4107 8.14239 16.8538 9.47775 15.8626 10.4623C14.8713 11.4469 13.5269 12 12.125 12C10.7231 12 9.3787 11.4469 8.38743 10.4623C7.39617 9.47775 6.83929 8.14239 6.83929 6.75ZM4.91083 20.5312H19.3392C18.9717 17.935 16.7252 15.9375 14.0122 15.9375H10.2378C7.52478 15.9375 5.27835 17.935 4.91083 20.5312ZM2.875 21.2818C2.875 17.2418 6.17031 13.9688 10.2378 13.9688H14.0122C18.0797 13.9688 21.375 17.2418 21.375 21.2818C21.375 21.9545 20.8258 22.5 20.1485 22.5H4.10145C3.42422 22.5 2.875 21.9545 2.875 21.2818Z" fill="#262626"/>
</svg>
