<svg width="24" height="24" viewBox="0 0 24 24" fill="none" xmlns="http://www.w3.org/2000/svg">
<path d="M12.6 6V18H11.4V6H12.6Z" fill="#262626"/>
<path d="M18 11.4V12.6H6V11.4H18Z" fill="#262626"/>
<path fill-rule="evenodd" clip-rule="evenodd" d="M12 3C7.0292 3 3 7.0293 3 12.0005C3 16.9707 7.02924 21 12 21C16.9701 21 21 16.9704 21 12.0005C21 7.02969 16.9701 3 12 3ZM1.5 12.0005C1.5 6.20094 6.2007 1.5 12 1.5C17.7986 1.5 22.5 6.2013 22.5 12.0005C22.5 17.7989 17.7984 22.5 12 22.5C6.20088 22.5 1.5 17.7992 1.5 12.0005Z" fill="#262626"/>
</svg>
