<svg width="24" height="24" viewBox="0 0 24 24" fill="none" xmlns="http://www.w3.org/2000/svg">
<path d="M11.6491 21.75C10.7891 21.75 9.94968 21.6469 9.13091 21.4408C8.31165 21.2347 7.57446 20.9258 6.91934 20.5141C7.4108 18.4342 8.18387 16.4675 9.23853 14.614C10.2927 12.7605 11.6184 11.1334 13.2157 9.73263C11.3727 10.8037 9.77029 12.1886 8.40846 13.8874C7.04712 15.5867 6.1104 17.4971 5.5983 19.6185C5.49608 19.4949 5.38845 19.3919 5.27542 19.3093C5.16287 19.2268 5.05549 19.1237 4.95327 19.0001C4.07257 18.1149 3.40198 17.1162 2.94148 16.0041C2.48049 14.892 2.25 13.749 2.25 12.5752C2.25 11.2362 2.50089 9.97482 3.00267 8.79105C3.50445 7.60679 4.2264 6.55128 5.16852 5.62453C6.66305 4.12097 8.57261 3.14256 10.8972 2.68932C13.2213 2.23657 16.7586 2.13376 21.509 2.3809C21.8776 6.89109 21.8213 10.3819 21.3402 12.8532C20.8591 15.3245 19.8609 17.3221 18.3457 18.8459C17.4243 19.7934 16.39 20.5143 15.2429 21.0086C14.0964 21.5029 12.8984 21.75 11.6491 21.75Z" fill="#262626"/>
</svg>
