<svg width="24" height="24" viewBox="0 0 24 24" fill="none" xmlns="http://www.w3.org/2000/svg">
<path fill-rule="evenodd" clip-rule="evenodd" d="M11.25 6V10.2885L14.5605 13.4807L13.5193 14.5605L9.75 10.9258V6H11.25Z" fill="#262626"/>
<path fill-rule="evenodd" clip-rule="evenodd" d="M10.5 18C14.6421 18 18 14.6421 18 10.5C18 6.35786 14.6421 3 10.5 3C6.35786 3 3 6.35786 3 10.5C3 14.6421 6.35786 18 10.5 18ZM10.5 19.5C15.4706 19.5 19.5 15.4706 19.5 10.5C19.5 5.52944 15.4706 1.5 10.5 1.5C5.52944 1.5 1.5 5.52944 1.5 10.5C1.5 15.4706 5.52944 19.5 10.5 19.5Z" fill="#262626"/>
<path fill-rule="evenodd" clip-rule="evenodd" d="M10.0895 20.7686L15.6815 11.0492C16.1475 10.3169 17.2127 10.3169 17.6787 11.0492L23.2707 20.7686C23.7367 21.5009 23.1375 22.4995 22.2721 22.4995H11.0881C10.2227 22.4995 9.69011 21.5675 10.0895 20.7686ZM15.9478 19.3706C15.9478 18.9712 16.2807 18.6383 16.6801 18.6383C17.0795 18.6383 17.4124 18.9712 17.4124 19.3706C17.4124 19.77 17.0795 20.1029 16.6801 20.1029C16.2807 20.1029 15.9478 19.77 15.9478 19.3706ZM16.2141 17.7063V14.3778H17.1461V17.7063H16.2141Z" fill="#FFC000"/>
<path d="M16.6801 18.6383C16.2807 18.6383 15.9478 18.9712 15.9478 19.3706C15.9478 19.77 16.2807 20.1029 16.6801 20.1029C17.0795 20.1029 17.4124 19.77 17.4124 19.3706C17.4124 18.9712 17.0795 18.6383 16.6801 18.6383Z" fill="#262626"/>
<path d="M16.2141 14.3778V17.7063H17.1461V14.3778H16.2141Z" fill="#262626"/>
</svg>
