<svg width="24" height="24" viewBox="0 0 24 24" fill="none" xmlns="http://www.w3.org/2000/svg">
<path fill-rule="evenodd" clip-rule="evenodd" d="M12 1.5C9.51472 1.5 7.5 3.51472 7.5 6H9C9 4.34315 10.3431 3 12 3C13.6569 3 15 4.34315 15 6V9.75H5.25C4.42157 9.75 3.75 10.4216 3.75 11.25V21C3.75 21.8284 4.42157 22.5 5.25 22.5H18.75C19.5784 22.5 20.25 21.8284 20.25 21V11.25C20.25 10.4216 19.5784 9.75 18.75 9.75H16.5V6C16.5 3.51472 14.4853 1.5 12 1.5ZM15 11.25H5.25L5.25 21H18.75V11.25H16.5H15Z" fill="#262626"/>
</svg>
