<svg width="25" height="24" viewBox="0 0 25 24" fill="none" xmlns="http://www.w3.org/2000/svg">
<path d="M11.9529 3.32109C11.2885 2.19316 10.0744 1.5 8.76602 1.5H8.67578C6.68242 1.5 5.06641 3.11602 5.06641 5.10938C5.06641 5.7 5.20996 6.25781 5.46016 6.75H4.41016C3.32324 6.75 2.44141 7.63184 2.44141 8.71875V11.3438C2.44141 12.201 2.99102 12.9311 3.75391 13.2018V13.3125V19.875C3.75391 21.3229 4.93105 22.5 6.37891 22.5H19.5039C20.9518 22.5 22.1289 21.3229 22.1289 19.875V13.3125V13.2018C22.8918 12.9311 23.4414 12.201 23.4414 11.3438V8.71875C23.4414 7.63184 22.5596 6.75 21.4727 6.75H20.4227C20.6729 6.25781 20.8164 5.7 20.8164 5.10938C20.8164 3.11602 19.2004 1.5 17.207 1.5H17.1168C15.8084 1.5 14.5943 2.19316 13.9299 3.32109L12.9414 5.00684L11.9529 3.3252V3.32109ZM21.4727 8.71875V11.3438H20.1602H14.2539V8.71875H17.207H21.4727ZM11.6289 8.71875V11.3438H5.72266H4.41016V8.71875H8.67578H11.6289ZM11.6289 13.3125V20.5312H6.37891C6.01797 20.5312 5.72266 20.2359 5.72266 19.875V13.3125H11.6289ZM14.2539 20.5312V13.3125H20.1602V19.875C20.1602 20.2359 19.8648 20.5312 19.5039 20.5312H14.2539ZM17.207 6.75H14.2539H14.2006L15.6279 4.32188C15.9396 3.79277 16.5057 3.46875 17.1168 3.46875H17.207C18.1135 3.46875 18.8477 4.20293 18.8477 5.10938C18.8477 6.01582 18.1135 6.75 17.207 6.75ZM11.6289 6.75H8.67578C7.76934 6.75 7.03516 6.01582 7.03516 5.10938C7.03516 4.20293 7.76934 3.46875 8.67578 3.46875H8.76602C9.37715 3.46875 9.94727 3.79277 10.2549 4.32188L11.6822 6.75H11.6289Z" fill="#262626"/>
</svg>
