<svg width="24" height="24" viewBox="0 0 24 24" fill="none" xmlns="http://www.w3.org/2000/svg">
<path fill-rule="evenodd" clip-rule="evenodd" d="M12 3C10.3431 3 9 4.34312 9 6C9 7.65688 10.3431 9 12 9C13.6569 9 15 7.65688 15 6C15 4.34312 13.6569 3 12 3ZM7.5 6C7.5 3.51469 9.51469 1.5 12 1.5C14.4853 1.5 16.5 3.51469 16.5 6C16.5 8.48531 14.4853 10.5 12 10.5C9.51469 10.5 7.5 8.48531 7.5 6Z" fill="#262626"/>
<path fill-rule="evenodd" clip-rule="evenodd" d="M12.0011 13.5C7.84055 13.5 3.80376 16.5517 3.02929 20.4054C2.99939 20.5541 3.04217 20.6857 3.14676 20.7957C3.25827 20.9129 3.43983 21 3.6538 21H20.3485C20.5625 21 20.7438 20.9128 20.8547 20.7961C20.9585 20.6867 21.0006 20.5564 20.9703 20.4087C20.1847 16.5777 16.1148 13.5 12.0011 13.5ZM1.54067 20.1131C2.47072 15.4854 7.19335 12 12.0011 12C16.766 12 21.5151 15.5141 22.4578 20.1107C22.7406 21.49 21.5542 22.5 20.3485 22.5H3.6538C2.44698 22.5 1.2639 21.4903 1.54067 20.1131Z" fill="#262626"/>
</svg>
