<svg width="25" height="24" viewBox="0 0 25 24" fill="none" xmlns="http://www.w3.org/2000/svg">
<path d="M3.27536 3.37497C2.91786 3.09309 2.39879 3.15841 2.11691 3.51591C1.83504 3.8734 1.90035 4.39247 2.25785 4.67434L22.608 20.6243C22.9655 20.9062 23.4846 20.8409 23.7665 20.4834C24.0484 20.1259 23.983 19.6068 23.6255 19.3249L21.7177 17.8296C21.7349 17.7231 21.7418 17.6131 21.7418 17.4996V6.49965C21.7418 5.28621 20.7552 4.29965 19.5418 4.29965H6.34164C5.84663 4.29965 5.386 4.46465 5.01819 4.74309L3.27536 3.37497ZM7.4004 6.60965C7.58259 6.5409 7.78196 6.49965 7.99165 6.49965C8.9026 6.49965 9.64167 7.23871 9.64167 8.14964C9.64167 8.21839 9.63823 8.28714 9.62792 8.35589L7.4004 6.60965ZM13.2201 11.1712L13.9076 10.1606C14.0623 9.9337 14.3167 9.79964 14.5883 9.79964C14.8598 9.79964 15.1177 9.9337 15.2689 10.1606L19.1086 15.7843L13.2201 11.1712ZM9.5626 12.5668C9.57292 12.5531 9.58323 12.5428 9.59698 12.529L4.14162 8.23214V17.4996C4.14162 18.7131 5.12819 19.6996 6.34164 19.6996H18.6961L15.9048 17.4996H12.9417H10.4667H7.16665C6.84696 17.4996 6.55476 17.314 6.41726 17.0218C6.27976 16.7296 6.32789 16.3859 6.53758 16.1418L9.5626 12.5668Z" fill="#262626"/>
</svg>
