<svg width="24" height="24" viewBox="0 0 24 24" fill="none" xmlns="http://www.w3.org/2000/svg">
<path fill-rule="evenodd" clip-rule="evenodd" d="M20.6461 1.5H3.36741L3.18891 1.99682L3.18372 2.01133L3.16932 2.05191C3.15683 2.08722 3.1387 2.13879 3.11573 2.20492C3.0698 2.33715 3.00447 2.52772 2.92621 2.763C2.76983 3.23313 2.56109 3.88387 2.35205 4.60557C1.94355 6.01592 1.5 7.80778 1.5 9.02962C1.5 10.2655 2.08494 11.3851 3 12.066V18.8445C3 20.8637 4.7277 22.4999 6.85985 22.4999H9V15H15V22.4999H17.1402C19.2723 22.4999 21 20.8637 21 18.8445V12.066C21.9151 11.3851 22.5 10.2655 22.5 9.02962V9.00333L22.4982 8.97711C22.4107 7.73117 21.9791 5.96967 21.589 4.56756C21.391 3.85611 21.1984 3.21888 21.0553 2.75954C20.9837 2.52972 20.9243 2.34405 20.8828 2.21544C20.862 2.15113 20.8457 2.10106 20.8344 2.06685L20.8215 2.02761L20.8168 2.01335L20.6461 1.5ZM3.89488 2.25C3.18906 1.9964 3.18891 1.99682 3.18891 1.99682L3.89488 2.25ZM4.34953 3.23645C4.37787 3.15127 4.40442 3.07222 4.42887 3H19.5586C19.5787 3.0636 19.6003 3.13231 19.6231 3.2057C19.763 3.65455 19.951 4.27663 20.1439 4.96969C20.5321 6.36482 20.9197 7.97763 20.9999 9.05492C20.9872 10.3085 20.032 11.25 18.9405 11.25C18.2887 11.25 17.695 10.9219 17.3104 10.386L16.6257 9.3513L15.9437 10.3868C15.5855 10.8856 15.0456 11.204 14.4484 11.2454L14.3029 11.25C13.6547 11.2463 13.0653 10.9188 12.6827 10.3859L11.9978 9.35178L11.316 10.3868C10.9578 10.8856 10.418 11.204 9.82073 11.2454L9.67527 11.25C9.02776 11.2463 8.43857 10.9189 8.05609 10.386L7.37286 9.35343L6.68962 10.386C6.33124 10.8853 5.79109 11.204 5.19399 11.2454L5.04864 11.25C3.95429 11.2437 3 10.2916 3 9.02962C3 8.04992 3.3789 6.45198 3.79283 5.02289C3.99501 4.32488 4.1975 3.69351 4.34953 3.23645Z" fill="#262626"/>
</svg>
