<svg width="25" height="24" viewBox="0 0 25 24" fill="none" xmlns="http://www.w3.org/2000/svg">
<path d="M12.1241 1.5C11.3932 1.5 10.8027 2.08652 10.8027 2.8125V3.6C7.78821 4.20703 5.51703 6.85664 5.51703 10.0312V10.8023C5.51703 12.7301 4.80264 14.5922 3.51427 16.0359L3.20869 16.3764C2.86182 16.7619 2.77923 17.3156 2.98983 17.7873C3.20043 18.259 3.67532 18.5625 4.19562 18.5625H20.0526C20.5729 18.5625 21.0436 18.259 21.2583 17.7873C21.4731 17.3156 21.3864 16.7619 21.0395 16.3764L20.7339 16.0359C19.4455 14.5922 18.7311 12.7342 18.7311 10.8023V10.0312C18.7311 6.85664 16.46 4.20703 13.4455 3.6V2.8125C13.4455 2.08652 12.855 1.5 12.1241 1.5ZM13.9947 21.733C14.4902 21.2408 14.7669 20.5723 14.7669 19.875H12.1241H9.48127C9.48127 20.5723 9.75794 21.2408 10.2535 21.733C10.749 22.2252 11.4221 22.5 12.1241 22.5C12.8261 22.5 13.4992 22.2252 13.9947 21.733Z" fill="#262626"/>
</svg>
