<svg width="25" height="25" viewBox="0 0 25 25" fill="none" xmlns="http://www.w3.org/2000/svg">
<path d="M2.76613 3.69336C2.20302 3.69336 1.75 4.14638 1.75 4.70949V6.74175C1.75 7.30485 2.20302 7.75788 2.76613 7.75788H4.79839C5.36149 7.75788 5.81452 7.30485 5.81452 6.74175V4.70949C5.81452 4.14638 5.36149 3.69336 4.79839 3.69336H2.76613ZM8.8629 4.70949C8.2998 4.70949 7.84677 5.16251 7.84677 5.72562C7.84677 6.28872 8.2998 6.74175 8.8629 6.74175H21.7339C22.297 6.74175 22.75 6.28872 22.75 5.72562C22.75 5.16251 22.297 4.70949 21.7339 4.70949H8.8629ZM8.8629 11.4837C8.2998 11.4837 7.84677 11.9367 7.84677 12.4998C7.84677 13.0629 8.2998 13.5159 8.8629 13.5159H21.7339C22.297 13.5159 22.75 13.0629 22.75 12.4998C22.75 11.9367 22.297 11.4837 21.7339 11.4837H8.8629ZM8.8629 18.2579C8.2998 18.2579 7.84677 18.7109 7.84677 19.274C7.84677 19.8371 8.2998 20.2901 8.8629 20.2901H21.7339C22.297 20.2901 22.75 19.8371 22.75 19.274C22.75 18.7109 22.297 18.2579 21.7339 18.2579H8.8629ZM1.75 11.4837V13.5159C1.75 14.079 2.20302 14.5321 2.76613 14.5321H4.79839C5.36149 14.5321 5.81452 14.079 5.81452 13.5159V11.4837C5.81452 10.9206 5.36149 10.4676 4.79839 10.4676H2.76613C2.20302 10.4676 1.75 10.9206 1.75 11.4837ZM2.76613 17.2417C2.20302 17.2417 1.75 17.6948 1.75 18.2579V20.2901C1.75 20.8532 2.20302 21.3063 2.76613 21.3063H4.79839C5.36149 21.3063 5.81452 20.8532 5.81452 20.2901V18.2579C5.81452 17.6948 5.36149 17.2417 4.79839 17.2417H2.76613Z" fill="#262626"/>
</svg>
