<svg width="25" height="24" viewBox="0 0 25 24" fill="none" xmlns="http://www.w3.org/2000/svg">
<path d="M4.12617 13.6166L11.5377 20.5519C11.8453 20.8397 12.2514 21 12.6738 21C13.0963 21 13.5023 20.8397 13.81 20.5519L21.2215 13.6166C22.4684 12.4532 23.1738 10.8211 23.1738 9.11508V8.87665C23.1738 6.00305 21.1025 3.55289 18.2766 3.08013C16.4062 2.76769 14.5031 3.38023 13.166 4.72042L12.6738 5.21374L12.1816 4.72042C10.8445 3.38023 8.94141 2.76769 7.07109 3.08013C4.24512 3.55289 2.17383 6.00305 2.17383 8.87665V9.11508C2.17383 10.8211 2.8793 12.4532 4.12617 13.6166Z" fill="#262626"/>
</svg>
