<svg width="24" height="24" viewBox="0 0 24 24" fill="none" xmlns="http://www.w3.org/2000/svg">
<path d="M14.9629 3.99527C15.6614 3.12166 16.1353 1.94866 16.0103 0.75C14.9879 0.80084 13.7402 1.42453 13.0179 2.29883C12.3693 3.04752 11.7952 4.26964 11.9449 5.41805C13.0926 5.51761 14.2393 4.84437 14.9629 3.99527Z" fill="black"/>
<path d="M15.9965 5.64215C14.3297 5.54286 12.9125 6.58813 12.1166 6.58813C11.3201 6.58813 10.1012 5.69218 8.78291 5.71633C7.06701 5.74153 5.47486 6.71171 4.60411 8.25476C2.81314 11.3416 4.13147 15.9205 5.8731 18.4345C6.71888 19.6783 7.73818 21.0478 9.08126 20.9986C10.3503 20.9488 10.8476 20.1769 12.3902 20.1769C13.9315 20.1769 14.3796 20.9986 15.7229 20.9737C17.1159 20.9488 17.9868 19.7293 18.8326 18.4843C19.8029 17.0665 20.2 15.6974 20.225 15.6223C20.2 15.5974 17.5388 14.5765 17.5142 11.5153C17.489 8.95212 19.6035 7.73293 19.703 7.65732C18.509 5.89131 16.6433 5.69218 15.9965 5.64215Z" fill="black"/>
</svg>
