<svg width="25" height="24" viewBox="0 0 25 24" fill="none" xmlns="http://www.w3.org/2000/svg">
<path d="M17.0074 11.7088C17.6005 10.8639 17.9466 9.83438 17.9466 8.71875C17.9466 5.81895 15.5862 3.46875 12.6738 3.46875C9.76147 3.46875 7.4011 5.81895 7.4011 8.71875C7.4011 9.83438 7.74712 10.8639 8.34031 11.7088C8.49272 11.9262 8.67397 12.1723 8.86758 12.4348C9.39897 13.1607 10.0333 14.0303 10.5071 14.8875C10.9355 15.6668 11.1538 16.4789 11.2609 17.2459H9.25479C9.16417 16.7537 9.01175 16.2738 8.76871 15.8309C8.3609 15.0926 7.85423 14.3994 7.34755 13.7063C7.13335 13.415 6.91914 13.1238 6.71317 12.8285C5.90167 11.6678 5.42383 10.2486 5.42383 8.71875C5.42383 4.73203 8.66985 1.5 12.6738 1.5C16.6778 1.5 19.9238 4.73203 19.9238 8.71875C19.9238 10.2486 19.446 11.6678 18.6304 12.8326C18.4244 13.1279 18.2102 13.4191 17.996 13.7104C17.4893 14.3994 16.9826 15.0926 16.5748 15.835C16.3318 16.2779 16.1794 16.7578 16.0887 17.25H14.0909C14.198 16.483 14.4163 15.6668 14.8447 14.8916C15.3184 14.0344 15.9528 13.1648 16.4842 12.4389C16.6778 12.1764 16.8549 11.9303 17.0074 11.7129V11.7088ZM12.6738 6.75C11.5822 6.75 10.6966 7.63184 10.6966 8.71875C10.6966 9.07969 10.4 9.375 10.0375 9.375C9.67496 9.375 9.37837 9.07969 9.37837 8.71875C9.37837 6.90586 10.8531 5.4375 12.6738 5.4375C13.0363 5.4375 13.3329 5.73281 13.3329 6.09375C13.3329 6.45469 13.0363 6.75 12.6738 6.75ZM12.6738 22.5C10.8531 22.5 9.37837 21.0316 9.37837 19.2188V18.5625H15.9693V19.2188C15.9693 21.0316 14.4946 22.5 12.6738 22.5Z" fill="#262626"/>
</svg>
