<svg width="24" height="24" viewBox="0 0 24 24" fill="none" xmlns="http://www.w3.org/2000/svg">
<path fill-rule="evenodd" clip-rule="evenodd" d="M18.4244 13.6979L18.535 12.8378C18.5743 12.5319 18.5983 12.2665 18.5983 12C18.5983 11.7335 18.5743 11.4681 18.535 11.1622L18.4244 10.3021L20.6916 8.57757L19.3961 6.39745L16.6938 7.45311L16.0261 6.95351C15.5629 6.60696 15.0729 6.32733 14.545 6.11686L13.7425 5.79694L13.3301 3H10.6746L10.2623 5.79694L9.45981 6.11686C8.9424 6.32313 8.44756 6.61161 7.96411 6.9643L7.29999 7.4488L4.60867 6.39745L3.31313 8.57757L5.58032 10.3021L5.46979 11.1622C5.43067 11.4667 5.40647 11.7431 5.40647 12C5.40647 12.2569 5.43067 12.5333 5.46979 12.8378L5.58032 13.6979L3.31313 15.4224L4.60867 17.6026L7.31102 16.5469L7.97871 17.0465C8.44186 17.393 8.93186 17.6727 9.45981 17.8831L10.2623 18.2031L10.6746 21H13.3301L13.7425 18.2031L14.545 17.8831C15.0624 17.6769 15.5572 17.3884 16.0407 17.0357L16.7048 16.5512L19.3961 17.6026L20.6916 15.4224L18.4244 13.6979ZM22.4299 15.4335L20.271 19.0665C20.1739 19.2345 19.9904 19.329 19.8068 19.329C19.7421 19.329 19.6773 19.3185 19.6125 19.2975L16.9247 18.2475C16.3634 18.657 15.7589 19.014 15.1004 19.2765L14.6902 22.059C14.6578 22.311 14.4312 22.5 14.1613 22.5H9.84347C9.57361 22.5 9.34692 22.311 9.31454 22.059L8.90435 19.2765C8.24588 19.014 7.64138 18.6675 7.08007 18.2475L4.39222 19.2975C4.33825 19.3185 4.27348 19.329 4.20871 19.329C4.01441 19.329 3.8309 19.2345 3.73375 19.0665L1.57484 15.4335C1.44531 15.2025 1.49928 14.919 1.70438 14.7615L3.98203 13.029C3.93885 12.693 3.90647 12.3465 3.90647 12C3.90647 11.6535 3.93885 11.307 3.98203 10.971L1.70438 9.2385C1.49928 9.081 1.43451 8.7975 1.57484 8.5665L3.73375 4.9335C3.8309 4.7655 4.01441 4.671 4.19792 4.671C4.26269 4.671 4.32745 4.6815 4.39222 4.7025L7.08007 5.7525C7.64138 5.343 8.24588 4.986 8.90435 4.7235L9.31454 1.941C9.34692 1.689 9.57361 1.5 9.84347 1.5H14.1613C14.4312 1.5 14.6578 1.689 14.6902 1.941L15.1004 4.7235C15.7589 4.986 16.3634 5.3325 16.9247 5.7525L19.6125 4.7025C19.6665 4.6815 19.7313 4.671 19.7961 4.671C19.9904 4.671 20.1739 4.7655 20.271 4.9335L22.4299 8.5665C22.5595 8.7975 22.5055 9.081 22.3004 9.2385L20.0227 10.971C20.0659 11.307 20.0983 11.643 20.0983 12C20.0983 12.357 20.0659 12.693 20.0227 13.029L22.3004 14.7615C22.5055 14.919 22.5595 15.2025 22.4299 15.4335Z" fill="#262626"/>
<path fill-rule="evenodd" clip-rule="evenodd" d="M12.0037 9.75C10.7559 9.75 9.75 10.7585 9.75 12C9.75 13.2383 10.7566 14.25 12.0037 14.25C13.2422 14.25 14.25 13.2396 14.25 12C14.25 10.7573 13.2428 9.75 12.0037 9.75ZM8.25 12C8.25 9.92957 9.92807 8.25 12.0037 8.25C14.0731 8.25 15.75 9.93079 15.75 12C15.75 14.0649 14.0737 15.75 12.0037 15.75C9.92746 15.75 8.25 14.0661 8.25 12Z" fill="#262626"/>
</svg>
