<svg width="24" height="24" viewBox="0 0 24 24" fill="none" xmlns="http://www.w3.org/2000/svg">
<path d="M1.79283 17.1306L5.8596 21.2011C6.25781 21.5996 6.90171 21.5996 7.29568 21.2011L11.3624 17.1306C11.7607 16.732 11.7607 16.0875 11.3624 15.6931C10.9642 15.2988 10.3203 15.2946 9.92637 15.6931L7.59645 18.0252V3.51975C7.59645 2.95581 7.14318 2.50212 6.57976 2.50212C6.01634 2.50212 5.56307 2.95581 5.56307 3.51975V18.0252L3.23315 15.6889C2.83494 15.2903 2.19104 15.2903 1.79707 15.6889C1.4031 16.0875 1.39886 16.732 1.79707 17.1263L1.79283 17.1306ZM16.7043 2.79893L12.6376 6.86945C12.2393 7.26802 12.2393 7.91252 12.6376 8.30685C13.0358 8.70118 13.6797 8.70542 14.0736 8.30685L16.4035 5.97478V20.4802C16.4035 21.0442 16.8568 21.4979 17.4202 21.4979C17.9837 21.4979 18.4369 21.0442 18.4369 20.4802V5.97478L20.7669 8.30685C21.1651 8.70542 21.809 8.70542 22.2029 8.30685C22.5969 7.90828 22.6011 7.26378 22.2029 6.86945L18.1446 2.79893C17.7464 2.40036 17.1025 2.40036 16.7086 2.79893H16.7043Z" fill="#262626"/>
</svg>
