<svg width="25" height="24" viewBox="0 0 25 24" fill="none" xmlns="http://www.w3.org/2000/svg">
<path d="M3.71469 3.66952C3.37345 3.39726 2.87799 3.46034 2.60893 3.80565C2.33987 4.15095 2.40222 4.65231 2.74346 4.92457L22.1681 20.3305C22.5094 20.6027 23.0048 20.5397 23.2739 20.1944C23.5429 19.849 23.4806 19.3477 23.1394 19.0754L19.6875 16.3396C20.9869 14.9915 21.8662 13.4808 22.3092 12.4084C22.4175 12.1461 22.4175 11.8539 22.3092 11.5916C21.8203 10.4063 20.7933 8.67976 19.2577 7.23878C17.7155 5.78451 15.5926 4.56266 12.9414 4.56266C10.7036 4.56266 8.83992 5.43589 7.38635 6.58137L3.71469 3.66952ZM9.76193 8.46394C10.5986 7.69033 11.7175 7.21886 12.9414 7.21886C15.55 7.21886 17.6663 9.36041 17.6663 12C17.6663 12.8267 17.4596 13.6037 17.0954 14.281L15.8289 13.2783C16.1045 12.6375 16.1767 11.9037 15.9864 11.1766C15.6221 9.79868 14.4179 8.87233 13.0792 8.81589C12.8889 8.80925 12.7773 9.01842 12.8364 9.20436C12.9053 9.41685 12.9447 9.64263 12.9447 9.87837C12.9447 10.217 12.8659 10.5358 12.7281 10.818L9.76521 8.46727L9.76193 8.46394ZM14.6804 16.4458C14.1423 16.6616 13.555 16.7811 12.9414 16.7811C10.3329 16.7811 8.21649 14.6396 8.21649 12C8.21649 11.7709 8.23289 11.5484 8.26243 11.3293L5.16826 8.86237C4.42015 9.84848 3.88532 10.8313 3.5736 11.5916C3.46532 11.8539 3.46532 12.1461 3.5736 12.4084C4.0625 13.5937 5.08951 15.3202 6.62511 16.7612C8.16727 18.2155 10.2902 19.4373 12.9414 19.4373C14.5098 19.4373 15.8912 19.009 17.0823 18.3583L14.6804 16.4458Z" fill="#262626"/>
</svg>
