<svg width="24" height="24" viewBox="0 0 24 24" fill="none" xmlns="http://www.w3.org/2000/svg">
<g id="filled=false">
<g id="Vector">
<path d="M12.75 11.25V19.5H11.25V11.25H12.75Z" fill="#262626"/>
<path fill-rule="evenodd" clip-rule="evenodd" d="M12 10.5C13.2424 10.5 14.25 9.49242 14.25 8.25C14.25 7.00758 13.2424 6 12 6C10.7576 6 9.75 7.00758 9.75 8.25C9.75 9.49242 10.7576 10.5 12 10.5ZM12 12C14.0709 12 15.75 10.3209 15.75 8.25C15.75 6.17915 14.0709 4.5 12 4.5C9.92915 4.5 8.25 6.17915 8.25 8.25C8.25 10.3209 9.92915 12 12 12Z" fill="#262626"/>
</g>
</g>
</svg>
