<svg width="25" height="24" viewBox="0 0 25 24" fill="none" xmlns="http://www.w3.org/2000/svg">
<path d="M5.48906 3.97888C5.48906 4.89411 5.85171 5.31545 6.38359 5.91639L6.39741 5.93021C6.96728 6.56914 7.69948 7.39456 7.69948 8.95217C7.69948 9.41151 7.32993 9.78105 6.87058 9.78105C6.41122 9.78105 6.04167 9.41151 6.04167 8.95217C6.04167 8.03695 5.67902 7.6156 5.14714 7.01466L5.13333 7.00085C4.56345 6.36192 3.83125 5.53649 3.83125 3.97888C3.83125 3.51954 4.20081 3.15 4.66016 3.15C5.11951 3.15 5.48906 3.51954 5.48906 3.97888ZM9.3573 3.97888C9.3573 4.89411 9.71994 5.31545 10.2518 5.91639L10.2656 5.93021C10.8355 6.56914 11.5677 7.39456 11.5677 8.95217C11.5677 9.41151 11.1982 9.78105 10.7388 9.78105C10.2795 9.78105 9.9099 9.41151 9.9099 8.95217C9.9099 8.03695 9.54725 7.6156 9.01537 7.01466L9.00156 7.00085C8.43168 6.36192 7.69948 5.53649 7.69948 3.97888C7.69948 3.51954 8.06904 3.15 8.52839 3.15C8.98774 3.15 9.3573 3.51954 9.3573 3.97888ZM16.5412 7.01811C18.2922 7.01811 19.7739 8.182 20.2505 9.78105H12.8318C13.3084 8.182 14.7866 7.01811 16.5412 7.01811ZM2.17344 12.8203C2.17344 12.3609 2.54299 11.9914 3.00234 11.9914H3.9245C4.15245 11.349 4.76723 10.8862 5.48906 10.8862H19.8568C20.5786 10.8862 21.1934 11.349 21.4213 11.9914H22.3435C22.8029 11.9914 23.1724 12.3609 23.1724 12.8203C23.1724 13.2796 22.8029 13.6492 22.3435 13.6492H21.4352C21.0552 16.305 19.3249 18.5258 16.9625 19.5964C16.6828 20.3217 15.9816 20.8328 15.1562 20.8328H10.1862C9.3642 20.8328 8.65963 20.3182 8.37988 19.5964C6.01749 18.5258 4.2906 16.305 3.91069 13.6492H3.00234C2.54299 13.6492 2.17344 13.2796 2.17344 12.8203ZM9.92717 18.9989C9.96861 19.106 10.0722 19.175 10.1862 19.175H15.1596C15.2736 19.175 15.3772 19.106 15.4187 18.9989C15.5741 18.5948 15.8849 18.2667 16.2821 18.0871C18.3924 17.1305 19.8568 15.0065 19.8568 12.544H5.48906C5.48906 15.0065 6.95347 17.1305 9.06372 18.0871C9.46091 18.2667 9.7683 18.5948 9.92717 18.9989Z" fill="#262626"/>
<path fill-rule="evenodd" clip-rule="evenodd" d="M6.50935 5.83036C7.08358 6.47418 7.84948 7.33584 7.84948 8.95217C7.84948 9.49436 7.41277 9.93105 6.87058 9.93105C6.32838 9.93105 5.89167 9.49436 5.89167 8.95217C5.89167 8.51686 5.80602 8.2073 5.66149 7.93611C5.51463 7.66056 5.30448 7.41878 5.03784 7.1175L5.0212 7.10085C4.44697 6.45704 3.68125 5.59522 3.68125 3.97888C3.68125 3.4367 4.11797 3 4.66016 3C5.20235 3 5.63906 3.4367 5.63906 3.97888C5.63906 4.4142 5.72471 4.72375 5.86925 4.99494C6.0161 5.27049 6.22625 5.51227 6.49289 5.81355L6.50935 5.83036ZM6.38359 5.91639C5.85171 5.31545 5.48906 4.89411 5.48906 3.97888C5.48906 3.51954 5.11951 3.15 4.66016 3.15C4.20081 3.15 3.83125 3.51954 3.83125 3.97888C3.83125 5.53649 4.56345 6.36192 5.13333 7.00085L5.14714 7.01466C5.67902 7.6156 6.04167 8.03695 6.04167 8.95217C6.04167 9.41151 6.41122 9.78105 6.87058 9.78105C7.32993 9.78105 7.69948 9.41151 7.69948 8.95217C7.69948 7.39456 6.96728 6.56914 6.39741 5.93021L6.38359 5.91639ZM10.3776 5.83036C10.9518 6.47418 11.7177 7.33584 11.7177 8.95217C11.7177 9.49436 11.281 9.93105 10.7388 9.93105C10.1966 9.93105 9.7599 9.49436 9.7599 8.95217C9.7599 8.51686 9.67425 8.2073 9.52972 7.93611C9.38286 7.66056 9.17271 7.41879 8.90608 7.1175L8.88943 7.10085C8.3152 6.45704 7.54948 5.59522 7.54948 3.97888C7.54948 3.4367 7.9862 3 8.52839 3C9.07058 3 9.5073 3.4367 9.5073 3.97888C9.5073 4.4142 9.59294 4.72375 9.73748 4.99494C9.88433 5.27049 10.0945 5.51227 10.3611 5.81356L10.3776 5.83036ZM10.2518 5.91639C9.71994 5.31545 9.3573 4.89411 9.3573 3.97888C9.3573 3.51954 8.98774 3.15 8.52839 3.15C8.06904 3.15 7.69948 3.51954 7.69948 3.97888C7.69948 5.53649 8.43168 6.36192 9.00156 7.00085L9.01537 7.01466C9.54725 7.6156 9.9099 8.03695 9.9099 8.95217C9.9099 9.41151 10.2795 9.78105 10.7388 9.78105C11.1982 9.78105 11.5677 9.41151 11.5677 8.95217C11.5677 7.39456 10.8355 6.56914 10.2656 5.93021L10.2518 5.91639ZM20.4517 9.93105H12.6306L12.688 9.73821C13.1831 8.07735 14.7185 6.86811 16.5412 6.86811C18.3603 6.86811 19.8992 8.07728 20.3943 9.73821L20.4517 9.93105ZM10.0671 18.9448C10.0856 18.9927 10.1327 19.025 10.1862 19.025H15.1596C15.2132 19.025 15.2602 18.9927 15.2788 18.9448C15.4485 18.5037 15.7876 18.1461 16.2203 17.9505C18.2358 17.0367 19.6469 15.0315 19.7049 12.694H5.64093C5.69898 15.0315 7.11001 17.0367 9.12552 17.9505C9.55901 18.1465 9.89417 18.5051 10.0671 18.9448ZM9.06372 18.0871C6.99644 17.15 5.54897 15.0925 5.49088 12.694C5.48967 12.6441 5.48906 12.5941 5.48906 12.544H19.8568C19.8568 12.5941 19.8562 12.6441 19.855 12.694C19.7969 15.0925 18.3494 17.15 16.2821 18.0871C15.8849 18.2667 15.5741 18.5948 15.4187 18.9989C15.3772 19.106 15.2736 19.175 15.1596 19.175H10.1862C10.0722 19.175 9.96861 19.106 9.92717 18.9989C9.7683 18.5948 9.46091 18.2667 9.06372 18.0871ZM12.8799 9.63105C13.402 8.10973 14.842 7.01811 16.5412 7.01811C18.237 7.01811 19.6801 8.10973 20.2024 9.63105C20.2194 9.6806 20.2355 9.73061 20.2505 9.78105H12.8318C12.8468 9.73061 12.8629 9.6806 12.8799 9.63105ZM2.02344 12.8203C2.02344 12.2781 2.46015 11.8414 3.00234 11.8414H3.82196C4.09645 11.1936 4.73954 10.7362 5.48906 10.7362H19.8568C20.6063 10.7362 21.2494 11.1936 21.5239 11.8414H22.3435C22.8857 11.8414 23.3224 12.2781 23.3224 12.8203C23.3224 13.3625 22.8857 13.7992 22.3435 13.7992H21.5641C21.1433 16.4295 19.4209 18.6249 17.0793 19.7079C16.7636 20.4587 16.0234 20.9828 15.1562 20.9828H10.1862C9.32219 20.9828 8.57907 20.4554 8.26324 19.708C5.92147 18.625 4.20239 16.4294 3.7817 13.7992H3.00234C2.46015 13.7992 2.02344 13.3625 2.02344 12.8203ZM3.91069 13.6492C4.2906 16.305 6.01749 18.5258 8.37988 19.5964C8.65963 20.3182 9.3642 20.8328 10.1862 20.8328H15.1562C15.9816 20.8328 16.6828 20.3217 16.9625 19.5964C19.3249 18.5258 21.0552 16.305 21.4352 13.6492H22.3435C22.8029 13.6492 23.1724 13.2796 23.1724 12.8203C23.1724 12.3609 22.8029 11.9914 22.3435 11.9914H21.4213C21.1934 11.349 20.5786 10.8862 19.8568 10.8862H5.48906C4.76723 10.8862 4.15245 11.349 3.9245 11.9914H3.00234C2.54299 11.9914 2.17344 12.3609 2.17344 12.8203C2.17344 13.2796 2.54299 13.6492 3.00234 13.6492H3.91069Z" fill="#262626"/>
</svg>
