<svg width="24" height="24" viewBox="0 0 24 24" fill="none" xmlns="http://www.w3.org/2000/svg">
<path d="M4.88696 1.50322C4.87045 1.50397 4.82094 1.50997 4.77668 1.51597C4.41358 1.56473 4.06923 1.71703 3.75415 1.96684C3.65962 2.04186 2.38427 3.30896 2.24998 3.4605C1.82312 3.94514 1.5853 4.49504 1.52679 5.13947C1.46752 5.78239 1.50728 6.5296 1.63932 7.24754C2.02492 9.34887 3.211 11.544 4.99874 13.466C5.16003 13.6393 5.55839 14.0399 5.74219 14.2125C7.98006 16.3213 10.647 17.6777 13.0905 17.9485C13.5406 17.9987 14.026 18.0138 14.3208 17.9867C15.1325 17.9117 15.8032 17.5644 16.3426 16.9402C16.4469 16.8202 16.6674 16.5966 17.1461 16.1262C17.4131 15.8644 17.4769 15.7954 17.5812 15.6566C17.804 15.3603 17.933 15.0564 17.9871 14.7031C18.0043 14.5876 18.0043 14.328 17.9871 14.2132C17.924 13.8013 17.744 13.4367 17.4409 13.1052C17.4064 13.0676 16.9038 12.5643 16.3238 11.9873C15.6359 11.3017 15.2428 10.9161 15.191 10.8748C15.0267 10.7435 14.8152 10.6227 14.6329 10.556C14.5354 10.5199 14.3553 10.4749 14.242 10.4577C14.1167 10.4382 13.8437 10.4382 13.7169 10.4577C13.3455 10.5139 12.9982 10.6722 12.6981 10.9213C12.6546 10.9573 12.3845 11.2199 12.0979 11.5042L11.5773 12.0219L11.4093 11.9191C10.0251 11.0661 8.92532 10.1073 8.15486 9.0818C7.89904 8.74045 7.69123 8.41261 7.51418 8.06977L7.44366 7.93398L7.93805 7.44035C8.53221 6.84843 8.59298 6.78242 8.72426 6.58736C9.02209 6.14324 9.12712 5.6181 9.01984 5.11321C8.95308 4.79887 8.79628 4.48454 8.57122 4.21671C8.55022 4.19196 8.42343 4.05992 8.28914 3.92413C8.15486 3.78759 7.83002 3.45675 7.56745 3.18893C7.05655 2.66754 6.52691 2.14914 6.33636 1.9856C6.04678 1.73728 5.69118 1.57449 5.30707 1.51522C5.23205 1.50397 4.98073 1.49646 4.88696 1.50322ZM5.18479 3.02163C5.28082 3.05764 5.33258 3.0959 5.51863 3.2692C5.82997 3.55953 7.38665 5.12971 7.46017 5.22724C7.55769 5.35628 7.5847 5.50181 7.53744 5.63685C7.49618 5.75238 7.47442 5.77789 7.05806 6.20101C6.60643 6.66013 6.41588 6.84243 5.97476 7.23929C5.79771 7.39909 5.64917 7.53412 5.64542 7.53938C5.64092 7.54613 5.69493 7.67891 5.81721 7.96099C6.02727 8.44712 6.07378 8.5484 6.17731 8.74871C6.54416 9.4599 7.03555 10.1471 7.65147 10.811C7.79926 10.9701 8.17886 11.3459 8.33791 11.4907C9.06711 12.1539 9.92009 12.7796 10.8436 13.3295C11.0627 13.46 11.8159 13.8906 11.8249 13.8906C11.8294 13.8906 12.2457 13.4788 12.7491 12.9761C13.4933 12.2327 13.6749 12.0549 13.7214 12.0249C13.8932 11.9138 14.0567 11.9123 14.221 12.0204C14.2795 12.0586 16.3321 14.1059 16.3929 14.1862C16.5377 14.3783 16.5392 14.5283 16.3974 14.7369C16.3569 14.7969 16.2151 14.9409 15.6667 15.4811C15.5136 15.6318 15.3403 15.8104 15.2803 15.8787C15.1318 16.0482 15.086 16.0962 15.0072 16.1622C14.7747 16.358 14.5069 16.4653 14.1783 16.4938C13.8864 16.5193 13.3455 16.4826 12.8804 16.4068C10.2704 15.9792 7.39265 14.1374 5.36409 11.5957C4.46534 10.4697 3.78116 9.24234 3.3918 8.05402C3.13148 7.26255 3.00019 6.48984 3.00019 5.75463C3.00019 5.54833 3.01069 5.33602 3.02645 5.21074C3.05796 4.96542 3.14423 4.75011 3.29127 4.55055C3.33703 4.48829 4.64164 3.17618 4.71216 3.12066C4.77293 3.0734 4.85695 3.02989 4.92147 3.01263C4.99949 2.99163 5.11427 2.99538 5.18479 3.02163Z" fill="#262626"/>
<path fill-rule="evenodd" clip-rule="evenodd" d="M10.0895 20.7686L15.6815 11.0492C16.1475 10.3169 17.2127 10.3169 17.6787 11.0492L23.2707 20.7686C23.7367 21.5009 23.1375 22.4995 22.2721 22.4995H11.0881C10.2227 22.4995 9.69011 21.5675 10.0895 20.7686ZM15.9478 19.3706C15.9478 18.9712 16.2807 18.6383 16.6801 18.6383C17.0795 18.6383 17.4124 18.9712 17.4124 19.3706C17.4124 19.77 17.0795 20.1029 16.6801 20.1029C16.2807 20.1029 15.9478 19.77 15.9478 19.3706ZM16.2141 17.7063V14.3778H17.1461V17.7063H16.2141Z" fill="#FFC000"/>
<path d="M16.6801 18.6383C16.2807 18.6383 15.9478 18.9712 15.9478 19.3706C15.9478 19.77 16.2807 20.1029 16.6801 20.1029C17.0795 20.1029 17.4124 19.77 17.4124 19.3706C17.4124 18.9712 17.0795 18.6383 16.6801 18.6383Z" fill="#262626"/>
<path d="M16.2141 14.3778V17.7063H17.1461V14.3778H16.2141Z" fill="#262626"/>
</svg>
