<svg width="12" height="12" viewBox="0 0 12 12" fill="none" xmlns="http://www.w3.org/2000/svg">
<path fill-rule="evenodd" clip-rule="evenodd" d="M10.1285 0.750003C10.7489 0.750003 11.2519 1.25287 11.2519 1.87319L11.2519 5.3658C11.2519 5.66369 11.1335 5.94938 10.9228 6.16003L6.16099 10.921C5.72228 11.3597 5.01098 11.3597 4.57227 10.921L1.07903 7.42841C0.640322 6.98978 0.640322 6.27861 1.07903 5.83998L5.84088 1.07898C6.05156 0.868336 6.3373 0.75 6.63524 0.75L10.1285 0.750003ZM9.36798 3.38247C9.36798 3.79602 9.03267 4.13126 8.61905 4.13126C8.20542 4.13126 7.87012 3.79602 7.87012 3.38247C7.87012 2.96892 8.20542 2.63367 8.61905 2.63367C9.03267 2.63367 9.36798 2.96892 9.36798 3.38247Z" fill="#E0005D"/>
<path d="M7.01575 10.9284L8.06579 11.211C8.66489 11.3723 9.28132 11.0175 9.44262 10.4185L10.1942 7.62736L7.01575 10.9284Z" fill="#E0005D"/>
</svg>
