<svg width="25" height="24" viewBox="0 0 25 24" fill="none" xmlns="http://www.w3.org/2000/svg">
<path d="M11.4352 20.5102L11.3326 20.4155L4.14668 13.7181C2.8875 12.545 2.17383 10.8984 2.17383 9.17367V9.03782C2.17383 6.1399 4.22461 3.65361 7.06289 3.11025C8.67891 2.79741 10.3318 3.172 11.6484 4.1023C12.0176 4.36574 12.3621 4.67035 12.6738 5.02025C12.8461 4.82266 13.0307 4.64154 13.2275 4.47277C13.3793 4.34105 13.5352 4.21755 13.6992 4.1023C15.0158 3.172 16.6687 2.79741 18.2848 3.10613C21.123 3.64949 23.1738 6.1399 23.1738 9.03782V9.17367C23.1738 10.8984 22.4602 12.545 21.201 13.7181L14.015 20.4155L13.9125 20.5102C13.5762 20.823 13.1332 21 12.6738 21C12.2145 21 11.7715 20.8271 11.4352 20.5102ZM11.9807 7.20604C11.9643 7.19369 11.952 7.17722 11.9396 7.16076L11.2096 6.33749L11.2055 6.33337C10.258 5.26723 8.82656 4.7815 7.43203 5.04906C5.5207 5.41542 4.14258 7.08666 4.14258 9.03782V9.17367C4.14258 10.3468 4.63066 11.4706 5.48789 12.2692L12.6738 18.9665L19.8598 12.2692C20.717 11.4706 21.2051 10.3468 21.2051 9.17367V9.03782C21.2051 7.09078 19.827 5.41542 17.9197 5.04906C16.5252 4.7815 15.0896 5.27135 14.1463 6.33337C14.1463 6.33337 14.1463 6.33337 14.1422 6.33749C14.1381 6.3416 14.1422 6.33749 14.1381 6.3416L13.408 7.16488C13.3957 7.18134 13.3793 7.19369 13.367 7.21016C13.1824 7.39539 12.9322 7.4983 12.6738 7.4983C12.4154 7.4983 12.1652 7.39539 11.9807 7.21016V7.20604Z" fill="#262626"/>
</svg>
