<svg width="24" height="24" viewBox="0 0 24 24" fill="none" xmlns="http://www.w3.org/2000/svg">
<path d="M12.6562 5.39552C9.43242 5.39552 6.70488 7.52184 5.77793 10.4533C7.15605 9.75137 8.71055 9.35914 10.3594 9.35914H13.9688C14.3297 9.35914 14.625 9.65641 14.625 10.0197C14.625 10.3831 14.3297 10.6803 13.9688 10.6803H13.3125H10.3594C9.67852 10.6803 9.01816 10.7588 8.38242 10.9033C7.32012 11.1469 6.33164 11.5804 5.45391 12.1708C3.0709 13.7687 1.5 16.4978 1.5 19.5985V20.2591C1.5 20.8082 1.93887 21.25 2.48438 21.25C3.02988 21.25 3.46875 20.8082 3.46875 20.2591V19.5985C3.46875 17.5878 4.31777 15.7794 5.67539 14.5118C6.4875 17.6291 9.30527 19.9288 12.6562 19.9288H12.6973C18.1154 19.8999 22.5 14.5242 22.5 7.89756C22.5 6.1387 22.1924 4.46655 21.6346 2.95955C21.5279 2.67466 21.1137 2.68705 20.9701 2.95542C20.199 4.40875 18.6732 5.39552 16.9219 5.39552H12.6562Z" fill="#262626"/>
</svg>
