<svg width="24" height="24" viewBox="0 0 24 24" fill="none" xmlns="http://www.w3.org/2000/svg">
<path fill-rule="evenodd" clip-rule="evenodd" d="M10.875 16.125C10.875 15.504 11.3783 15 12.0014 15C12.6217 15 13.125 15.504 13.125 16.125C13.125 16.7446 12.6217 17.25 12.0014 17.25C11.3783 17.25 10.875 16.7446 10.875 16.125Z" fill="#262626"/>
<path fill-rule="evenodd" clip-rule="evenodd" d="M11.25 8.25V13.5H12.75V8.25H11.25Z" fill="#262626"/>
<path fill-rule="evenodd" clip-rule="evenodd" d="M10.4587 3.1457L1.74077 18.317C1.05627 19.5096 1.91275 21 3.28299 21H20.7181C22.0875 21 22.9436 19.5094 22.2592 18.317L13.5421 3.14525C12.8578 1.95151 11.1433 1.95151 10.4587 3.1457ZM20.9583 19.0637L12.2408 3.89125C12.1329 3.70317 11.8685 3.70252 11.76 3.89169L3.04171 19.0637C3.0417 19.0637 3.04172 19.0637 3.04171 19.0637C2.92482 19.2674 3.07862 19.5 3.28299 19.5H20.7181C20.9205 19.5 21.0757 19.2682 20.9583 19.0637Z" fill="#262626"/>
</svg>
