<svg width="25" height="24" viewBox="0 0 25 24" fill="none" xmlns="http://www.w3.org/2000/svg">
<path d="M12.125 22.5C14.9098 22.5 17.5805 21.3938 19.5496 19.4246C21.5188 17.4555 22.625 14.7848 22.625 12C22.625 9.21523 21.5188 6.54451 19.5496 4.57538C17.5805 2.60625 14.9098 1.5 12.125 1.5C9.34023 1.5 6.66951 2.60625 4.70038 4.57538C2.73125 6.54451 1.625 9.21523 1.625 12C1.625 14.7848 2.73125 17.4555 4.70038 19.4246C6.66951 21.3938 9.34023 22.5 12.125 22.5ZM5.59531 14.383C5.43945 13.8211 5.89883 13.3125 6.48125 13.3125H17.7688C18.3512 13.3125 18.8146 13.8211 18.6547 14.383C17.8754 17.168 15.2463 19.2188 12.125 19.2188C9.00371 19.2188 6.37461 17.168 5.59531 14.383ZM10.55 10.2281L10.5418 10.2199C10.5336 10.2117 10.5254 10.1994 10.5131 10.183C10.4885 10.1502 10.4475 10.101 10.3982 10.0436C10.2957 9.92871 10.1521 9.77285 9.97988 9.62109C9.61895 9.30117 9.20879 9.04688 8.84375 9.04688C8.47871 9.04688 8.06855 9.30117 7.70762 9.62109C7.53535 9.77285 7.3918 9.92871 7.28926 10.0436C7.24004 10.101 7.19902 10.1502 7.17441 10.183C7.16211 10.1994 7.14981 10.2117 7.1457 10.2199L7.1375 10.2281C7.05137 10.343 6.90371 10.3881 6.77246 10.343C6.64121 10.2979 6.54688 10.1748 6.54688 10.0312C6.54688 9.29707 6.82168 8.57109 7.22773 8.02969C7.62969 7.49648 8.20801 7.07812 8.84375 7.07812C9.47949 7.07812 10.0578 7.49648 10.4598 8.02969C10.8658 8.57109 11.1406 9.29707 11.1406 10.0312C11.1406 10.1707 11.0504 10.2979 10.915 10.343C10.7797 10.3881 10.632 10.343 10.55 10.2281ZM17.1125 10.2281L17.1043 10.2199C17.0961 10.2117 17.0879 10.1994 17.0756 10.183C17.051 10.1502 17.01 10.101 16.9607 10.0436C16.8582 9.92871 16.7146 9.77285 16.5424 9.62109C16.1814 9.30117 15.7713 9.04688 15.4062 9.04688C15.0412 9.04688 14.6311 9.30117 14.2701 9.62109C14.0979 9.77285 13.9543 9.92871 13.8518 10.0436C13.8025 10.101 13.7615 10.1502 13.7369 10.183C13.7246 10.1994 13.7123 10.2117 13.7082 10.2199L13.7 10.2281C13.6139 10.343 13.4662 10.3881 13.335 10.343C13.2037 10.2979 13.1094 10.1748 13.1094 10.0312C13.1094 9.29707 13.3842 8.57109 13.7902 8.02969C14.1922 7.49648 14.7705 7.07812 15.4062 7.07812C16.042 7.07812 16.6203 7.49648 17.0223 8.02969C17.4283 8.57109 17.7031 9.29707 17.7031 10.0312C17.7031 10.1707 17.6129 10.2979 17.4775 10.343C17.3422 10.3881 17.1945 10.343 17.1125 10.2281Z" fill="#262626"/>
</svg>
