<svg width="24" height="24" viewBox="0 0 24 24" fill="none" xmlns="http://www.w3.org/2000/svg">
<path d="M16.5923 10.0327C16.5923 8.29193 15.9009 6.62244 14.6704 5.39153C13.4398 4.16061 11.7707 3.46909 10.0304 3.46909C8.2901 3.46909 6.62107 4.16061 5.39048 5.39153C4.15989 6.62244 3.46856 8.29193 3.46856 10.0327C3.46856 11.7735 4.15989 13.443 5.39048 14.6739C6.62107 15.9048 8.2901 16.5963 10.0304 16.5963C11.7707 16.5963 13.4398 15.9048 14.6704 14.6739C15.9009 13.443 16.5923 11.7735 16.5923 10.0327ZM15.325 16.7235C13.8732 17.8762 12.0318 18.5654 10.0304 18.5654C5.31818 18.5654 1.5 14.7462 1.5 10.0327C1.5 5.31921 5.31818 1.5 10.0304 1.5C14.7427 1.5 18.5608 5.31921 18.5608 10.0327C18.5608 12.0346 17.8718 13.8765 16.7194 15.3287L22.2109 20.8217C22.5964 21.2073 22.5964 21.8308 22.2109 22.2123C21.8254 22.5938 21.202 22.5979 20.8206 22.2123L15.325 16.7235Z" fill="#262626"/>
</svg>
