<svg width="165" height="148" viewBox="0 0 165 148" fill="none" xmlns="http://www.w3.org/2000/svg">
<path fill-rule="evenodd" clip-rule="evenodd" d="M155.138 15.9264C155.138 22.9927 149.41 28.7206 142.344 28.7206C135.278 28.7206 129.55 22.9927 129.55 15.9264C129.55 8.86017 135.278 3.13232 142.344 3.13232C149.41 3.13232 155.138 8.86017 155.138 15.9264Z" fill="#FFEDB2"/>
<path d="M58.7623 32.8556L69.3039 131.784" stroke="black" stroke-width="1.14084" stroke-linecap="round" stroke-linejoin="round"/>
<path d="M125.285 99.0882L123.864 140.314" stroke="black" stroke-linecap="round" stroke-linejoin="round"/>
<path fill-rule="evenodd" clip-rule="evenodd" d="M121.904 128.914C124.997 129.199 127.716 127.185 127.978 124.416L130.241 100.433C130.516 97.5191 127.965 94.9645 124.698 94.8814L122.495 94.8256C119.373 94.746 116.823 96.9617 116.816 99.7601L116.756 123.799C116.749 126.422 118.989 128.646 121.904 128.914Z" fill="#F4FFCC"/>
<path fill-rule="evenodd" clip-rule="evenodd" d="M123.639 128.208V128.208C126.518 128.471 129.069 126.392 129.337 123.563L131.66 99.0609C131.942 96.0831 129.589 93.4977 126.546 93.441L124.494 93.4029C121.587 93.3487 119.191 95.633 119.16 98.4896L118.889 123.031C118.859 125.708 120.925 127.96 123.639 128.208Z" stroke="black" stroke-linecap="round" stroke-linejoin="round"/>
<path d="M129.55 102.287H135.947" stroke="black" stroke-linecap="round" stroke-linejoin="round"/>
<path d="M128.839 113.659H135.236" stroke="black" stroke-linecap="round" stroke-linejoin="round"/>
<path d="M128.839 119.346H135.236" stroke="black" stroke-linecap="round" stroke-linejoin="round"/>
<path d="M115.334 103.708H121.732" stroke="black" stroke-linecap="round" stroke-linejoin="round"/>
<path d="M116.953 18.4467L122.765 18.2946" stroke="#191919" stroke-linecap="round" stroke-linejoin="round"/>
<path d="M124.289 34.1345L128.446 29.5151" stroke="#191919" stroke-linecap="round" stroke-linejoin="round"/>
<path d="M140.483 38.2865L138.396 32.7594" stroke="#191919" stroke-linecap="round" stroke-linejoin="round"/>
<path d="M116.756 109.395H123.153" stroke="black" stroke-linecap="round" stroke-linejoin="round"/>
<path d="M116.045 116.502H122.442" stroke="black" stroke-linecap="round" stroke-linejoin="round"/>
<path d="M116.045 122.189H122.442" stroke="black" stroke-linecap="round" stroke-linejoin="round"/>
<path d="M128.129 95.8897H134.526" stroke="black" stroke-linecap="round" stroke-linejoin="round"/>
<path d="M115.334 95.8897H121.732" stroke="black" stroke-linecap="round" stroke-linejoin="round"/>
<path fill-rule="evenodd" clip-rule="evenodd" d="M153.006 13.7941C153.006 20.8604 147.278 26.5882 140.212 26.5882C133.146 26.5882 127.418 20.8604 127.418 13.7941C127.418 6.72785 133.146 1 140.212 1C147.278 1 153.006 6.72785 153.006 13.7941Z" stroke="black" stroke-linecap="round" stroke-linejoin="round"/>
<path d="M34.3052 146C34.3052 146 66.0047 115.614 98.2758 146" stroke="black" stroke-linecap="round" stroke-linejoin="round"/>
<path d="M98.2756 146C98.2756 146 119.951 125.21 151.584 146" stroke="black" stroke-linecap="round" stroke-linejoin="round"/>
<path d="M139.501 132.85H162.957" stroke="black" stroke-linecap="round" stroke-linejoin="round"/>
<path d="M10.1384 146C10.1384 146 22.9286 136.404 33.5943 146" stroke="black" stroke-linecap="round" stroke-linejoin="round"/>
<path fill-rule="evenodd" clip-rule="evenodd" d="M85.7901 70.9681C70.8472 70.9361 56.0323 72.2462 41.2572 74.4263C34.6145 75.4052 27.7257 76.3538 21.2567 78.1835C14.1471 80.1944 8.14133 85.2519 6.02491 92.4305C4.09225 98.9835 5.70436 107.67 11.3186 112.082C15.1182 115.067 18.6823 117.188 23.7335 117.188C28.0398 117.188 32.427 114.385 36.1473 112.082C43.4054 107.589 48.8887 108.3 51.2299 107.96C51.8681 107.867 52.5074 107.777 53.1462 107.689C50.8231 107.995 50.3335 108.062 51.6779 107.892C52.9595 107.747 54.2393 107.581 55.5221 107.44C65.574 106.329 75.6771 105.819 85.7901 105.841C94.9743 105.861 103.771 97.8069 103.347 88.4045C102.92 78.9409 95.633 70.9891 85.7901 70.9681Z" fill="#FFDECC"/>
<path fill-rule="evenodd" clip-rule="evenodd" d="M22.9029 53.8754C44.6844 51.7877 66.5271 48.4801 87.9073 43.809C96.9373 41.8356 103.06 30.8528 100.233 22.1317C97.1598 12.6481 88.1988 7.71005 78.5249 9.82375C68.7631 11.9563 58.9181 13.7064 49.0483 15.2591C46.4713 15.6645 43.8906 16.0546 41.3083 16.4288C40.0324 16.6138 38.756 16.7894 37.4802 16.9709C33.8603 17.486 41.8205 16.4088 37.3356 16.9898C32.5332 17.6127 27.7237 18.1689 22.9029 18.6309C18.1188 19.0899 13.9319 20.2897 10.4242 23.7923C7.36326 26.8494 5.05883 31.864 5.25534 36.2535C5.65013 45.0465 13.0621 54.8188 22.9029 53.8754Z" fill="#FFDECC"/>
<path fill-rule="evenodd" clip-rule="evenodd" d="M21.5954 110.7C22.6597 111.336 23.9026 111.609 25.1348 111.481L102.55 103.435L98.9828 69.3458L21.5214 77.396C20.2886 77.5241 19.1298 78.0483 18.2192 78.8878L3.87735 91.8655C2.52828 93.0882 1.84142 94.8777 2.03104 96.6865C2.22008 98.4948 3.26211 100.106 4.83602 101.024L21.5954 110.7Z" stroke="black" stroke-width="1.14084" stroke-linecap="round" stroke-linejoin="round"/>
<path fill-rule="evenodd" clip-rule="evenodd" d="M91.9554 45.2128C91.0449 46.0533 89.8879 46.5763 88.654 46.7044L11.2436 54.7496L7.67627 20.6635L85.1319 12.6141C86.3658 12.486 87.6079 12.7603 88.671 13.3944L105.39 23.1424C106.965 24.0608 108.007 25.6711 108.196 27.4798C108.385 29.2872 107.7 31.0783 106.349 32.3002L91.9554 45.2128Z" stroke="black" stroke-width="1.14084" stroke-linecap="round" stroke-linejoin="round"/>
<path fill-rule="evenodd" clip-rule="evenodd" d="M20.2021 35.2669C38.9284 33.6572 57.706 32.8146 76.5008 32.7415C86.3565 32.7026 86.376 17.4099 76.5008 17.4488C57.706 17.5218 38.9284 18.3644 20.2021 19.9741C16.0805 20.3282 12.5415 23.2347 12.5415 27.6202C12.5415 31.4824 16.0569 35.6227 20.2021 35.2669Z" fill="#F4B9B4"/>
<path fill-rule="evenodd" clip-rule="evenodd" d="M80.3407 82.6024C77.4384 82.7274 74.5356 82.8338 71.6327 82.9291C70.2893 80.7236 67.8405 79.2512 65.1031 79.1816C53.0776 78.8771 41.0608 79.2331 29.0746 80.2513C24.9773 80.5986 21.4614 83.4885 21.4614 87.8369C21.4614 91.6715 24.9539 95.772 29.0746 95.4231C34.0947 94.9969 39.1207 94.6935 44.1502 94.4995C45.4421 96.8119 47.7624 98.5609 50.6406 98.5375C60.5453 98.4562 70.4453 98.202 80.3407 97.7741C84.4503 97.5964 87.9544 94.4147 87.9544 90.1885C87.9544 86.2166 84.4685 82.4235 80.3407 82.6024Z" fill="#F4B9B4"/>
<path d="M19.8396 27.9904L70.9257 22.3142" stroke="black" stroke-width="1.14084" stroke-linecap="round" stroke-linejoin="round"/>
<path d="M27.1375 87.1854L63.6275 83.1309" stroke="black" stroke-width="1.14084" stroke-linecap="round" stroke-linejoin="round"/>
<path d="M51.4644 91.2398L70.9257 88.8072" stroke="black" stroke-width="1.14084" stroke-linecap="round" stroke-linejoin="round"/>
</svg>
