<svg width="180" height="180" viewBox="0 0 180 180" fill="none" xmlns="http://www.w3.org/2000/svg">
<g clip-path="url(#clip0_15578_612)">
<mask id="mask0_15578_612" style="mask-type:luminance" maskUnits="userSpaceOnUse" x="0" y="0" width="180" height="180">
<path d="M180 0H0V180H180V0Z" fill="white"/>
</mask>
<g mask="url(#mask0_15578_612)">
<path d="M180 0H0V180H180V0Z" fill="#FFF9F5"/>
<g opacity="0.2">
<path fill-rule="evenodd" clip-rule="evenodd" d="M12.8652 3.14928C13.4406 1.67558 14.6172 0.556327 16.3948 0.0800171L16.8708 1.85655C15.6506 2.18349 14.9382 2.89679 14.5785 3.81818C14.2032 4.77941 14.1854 6.04681 14.561 7.44867L16.4431 14.4724C16.5475 14.8622 16.889 15.1419 17.2917 15.1675L18.137 15.2213C19.0823 15.2814 20.0092 14.9403 20.6897 14.2816L21.9686 15.6034C20.9158 16.6221 19.4823 17.1498 18.0202 17.0568L17.175 17.003C15.9846 16.9273 14.9752 16.1006 14.6665 14.9485L12.7845 7.9247C12.342 6.27327 12.3054 4.58309 12.8652 3.14928Z" fill="#FF9459"/>
<path d="M16.3948 0.0800251L18.1714 -0.395996L24.8357 24.4755L23.0591 24.9516L16.3948 0.0800251Z" fill="#FF9459"/>
<path d="M2.18241 3.88806L3.95894 3.41205L10.6232 28.2836L8.8467 28.7595L2.18241 3.88806Z" fill="#FF9459"/>
<path fill-rule="evenodd" clip-rule="evenodd" d="M0.533428 11.9462L-1.37066 4.84008L0.405878 4.36407L2.30996 11.4702C2.38487 11.7498 2.58705 11.9778 2.85568 12.0856L6.26935 13.4558L5.58425 15.1627L2.17057 13.7925C1.36471 13.469 0.758174 12.785 0.533428 11.9462Z" fill="#FF9459"/>
<path fill-rule="evenodd" clip-rule="evenodd" d="M9.41609 9.56615L7.51201 2.46002L5.73548 2.93603L7.63956 10.0422C7.71447 10.3218 7.65338 10.6203 7.47466 10.848L5.20344 13.7414L6.65017 14.8771L8.92139 11.9836C9.45756 11.3005 9.64083 10.4049 9.41609 9.56615Z" fill="#FF9459"/>
<path fill-rule="evenodd" clip-rule="evenodd" d="M55.4063 24.04L55.4186 24.08C55.8155 25.3654 56.4678 26.0573 57.211 26.406C57.9955 26.7742 59.1617 26.8902 60.7849 26.4553L71.0492 23.705C72.9079 23.207 73.8153 22.5158 74.2419 21.8717C74.6464 21.261 74.8296 20.3718 74.5088 18.9649L74.4997 18.9241L72.3758 7.16478L51.3659 12.7944L55.4063 24.04ZM53.6612 24.6227C54.7011 27.9903 57.4702 29.2476 61.261 28.2319L71.5252 25.4815C75.7062 24.3611 77.0854 21.9923 76.3022 18.5561L73.8306 4.87091L48.9591 11.5352L53.6612 24.6227Z" fill="#FF9459"/>
<path fill-rule="evenodd" clip-rule="evenodd" d="M55.8272 8.74288C55.0386 5.79942 56.7853 2.7739 59.7289 1.98521C62.6722 1.19652 65.6978 2.9433 66.4864 5.88675L68.1525 12.1046L66.3761 12.5806L64.71 6.36278C64.1842 4.40047 62.1671 3.23594 60.2048 3.76174C58.2426 4.28754 57.078 6.30455 57.6038 8.26685L59.2699 14.4847L57.4933 14.9607L55.8272 8.74288Z" fill="#FF9459"/>
<path d="M119.484 18.5306C119.487 18.8341 119.528 19.1421 119.61 19.4488C120.136 21.4112 122.153 22.5756 124.115 22.0498C126.077 21.524 127.242 19.5071 126.716 17.5447C126.634 17.238 126.515 16.9508 126.366 16.6865L124.464 17.1962C124.685 17.417 124.853 17.6972 124.939 18.0207C125.202 19.0019 124.62 20.0104 123.639 20.2734C122.658 20.5362 121.649 19.9539 121.386 18.9729C121.299 18.6493 121.305 18.3227 121.386 18.0209L119.484 18.5306Z" fill="#FF9459"/>
<path fill-rule="evenodd" clip-rule="evenodd" d="M126.46 14.757C125.133 12.9002 123.034 11.963 121.074 12.4881L119.611 12.88C119.611 12.88 119.07 13.8811 119.308 14.7694C119.546 15.6576 118.896 16.7839 118.007 17.0219C118.026 17.7433 117.595 19.0366 117.595 19.0366L127.366 16.4184L127.098 15.8479C126.914 15.4565 126.7 15.0918 126.46 14.757ZM124.514 15.2787C123.593 14.3337 122.442 14.0255 121.55 14.2647L121.107 14.3833C121.259 15.0218 121.207 15.651 121.039 16.2096L124.514 15.2787Z" fill="#FF9459"/>
<path d="M105.271 22.3387C105.274 22.6421 105.315 22.9503 105.398 23.257C105.923 25.2192 107.94 26.3838 109.903 25.858C111.865 25.3322 113.029 23.3152 112.504 21.3528C112.421 21.0461 112.303 20.759 112.154 20.4946L110.251 21.0043C110.472 21.2252 110.64 21.5053 110.727 21.8289C110.99 22.8101 110.408 23.8184 109.426 24.0814C108.445 24.3444 107.437 23.7621 107.174 22.7809C107.087 22.4573 107.092 22.1308 107.174 21.8289L105.271 22.3387Z" fill="#FF9459"/>
<path fill-rule="evenodd" clip-rule="evenodd" d="M102.495 23.0828L102.441 22.3349C102.413 21.9484 102.414 21.5668 102.441 21.193C102.651 18.3171 104.439 15.8974 107.043 15.1997C109.648 14.5016 112.412 15.7025 114.032 18.0872C114.243 18.3974 114.434 18.7275 114.603 19.076L114.93 19.7506L102.495 23.0828ZM112.116 18.6006C110.869 17.1435 109.076 16.5591 107.519 16.9763C105.965 17.3927 104.706 18.7932 104.356 20.6798L112.116 18.6006Z" fill="#FF9459"/>
<path fill-rule="evenodd" clip-rule="evenodd" d="M116.69 4.99853L113.229 5.92585L112.753 4.14932L117.99 2.74597L121.073 14.2521C121.513 15.8923 120.712 17.566 119.267 18.4165C119.017 18.5679 118.755 18.6928 118.476 18.7895L118.46 18.795L118.208 18.8724L112.266 20.4645L111.79 18.6881L117.7 17.1045L117.887 17.0469C118.035 16.9945 118.177 16.9268 118.317 16.8416L118.323 16.8375L118.33 16.8336C119.147 16.3549 119.499 15.4828 119.297 14.7281L116.69 4.99853Z" fill="#FF9459"/>
<path fill-rule="evenodd" clip-rule="evenodd" d="M121.607 5.58502L122.559 9.13808L120.783 9.61411L119.831 6.06103L121.607 5.58502Z" fill="#FF9459"/>
<path fill-rule="evenodd" clip-rule="evenodd" d="M110.123 12.4702L103.017 14.3743C102.527 14.5058 102.236 15.01 102.367 15.5006C102.498 15.9912 103.003 16.2823 103.493 16.1508L110.6 14.2468C111.09 14.1153 111.381 13.6111 111.25 13.1205C111.118 12.6299 110.614 12.3388 110.123 12.4702ZM102.541 12.5978C101.07 12.9921 100.196 14.5049 100.591 15.9766C100.985 17.4483 102.498 18.3216 103.969 17.9274L111.075 16.0233C112.547 15.6289 113.421 14.1162 113.026 12.6445C112.632 11.1727 111.119 10.2993 109.648 10.6937L102.541 12.5978Z" fill="#FF9459"/>
<path d="M158.184 3.58691L159.374 8.02825L157.597 8.50428L156.407 4.06294L158.184 3.58691Z" fill="#FF9459"/>
<path d="M155.821 8.98034L154.044 9.45637L153.33 6.79156L155.107 6.31555L155.821 8.98034Z" fill="#FF9459"/>
<path fill-rule="evenodd" clip-rule="evenodd" d="M150.079 12.4228L174.95 5.75854L175.744 8.71944C177.375 14.8055 173.36 21.2166 166.69 23.1993L166.323 23.3029C159.455 25.1433 152.537 21.5978 150.872 15.3837L150.079 12.4228ZM165.835 21.5296L166.178 21.4327C172.05 19.6812 175.297 14.1581 173.967 9.19547L173.65 8.0111L152.332 13.7233L152.649 14.9077C154.007 19.9744 159.781 23.1458 165.835 21.5296Z" fill="#FF9459"/>
<path d="M159.629 23.1925L172.065 19.8605L172.541 21.6369C172.804 22.6181 172.221 23.6266 171.24 23.8894L162.358 26.2696C161.376 26.5325 160.368 25.9502 160.105 24.9691L159.629 23.1925Z" fill="#FF9459"/>
<path d="M6.86128 54.0273L8.05133 58.4687L6.2748 58.9448L5.08475 54.5034L6.86128 54.0273Z" fill="#FF9459"/>
<path d="M4.49828 59.4206L2.72173 59.8967L2.00771 57.232L3.78423 56.7559L4.49828 59.4206Z" fill="#FF9459"/>
<path fill-rule="evenodd" clip-rule="evenodd" d="M-1.24356 62.8634L23.6279 56.199L24.4213 59.1599C26.0519 65.2458 22.0372 71.6571 15.3679 73.6396L15.0003 73.7435C8.13211 75.5838 1.21487 72.0383 -0.450197 65.8242L-1.24356 62.8634ZM14.5128 71.9699L14.8556 71.8733C20.727 70.1217 23.9744 64.5986 22.6447 59.636L22.3274 58.4516L1.00899 64.1639L1.32634 65.3481C2.68395 70.4147 8.45847 73.5863 14.5128 71.9699Z" fill="#FF9459"/>
<path d="M8.30644 73.6329L20.7421 70.3008L21.2182 72.0774C21.481 73.0586 20.8989 74.0669 19.9177 74.3299L11.035 76.71C10.0539 76.9728 9.04536 76.3907 8.78247 75.4095L8.30644 73.6329Z" fill="#FF9459"/>
<path d="M69.0428 68.9709C69.0458 69.2744 69.0867 69.5826 69.169 69.8893C69.6947 71.8515 71.7116 73.0161 73.674 72.4903C75.6364 71.9645 76.8008 69.9474 76.275 67.9851C76.1927 67.6783 76.0741 67.3913 75.9251 67.1268L74.0228 67.6366C74.2439 67.8574 74.4118 68.1375 74.4984 68.4612C74.7614 69.4423 74.1791 70.4509 73.1979 70.7137C72.2167 70.9767 71.2084 70.3944 70.9454 69.4132C70.8586 69.0895 70.8638 68.763 70.945 68.4612L69.0428 68.9709Z" fill="#FF9459"/>
<path fill-rule="evenodd" clip-rule="evenodd" d="M76.0196 65.1974C74.6919 63.3407 72.5927 62.4035 70.6329 62.9285L69.1704 63.3204C69.1704 63.3204 68.6291 64.3215 68.8671 65.2098C69.1051 66.0981 68.4549 67.2244 67.5666 67.4624C67.5853 68.1836 67.1544 69.4769 67.1544 69.4769L76.9253 66.8588L76.6571 66.2884C76.4734 65.8969 76.259 65.5322 76.0196 65.1974ZM74.0727 65.7191C73.1522 64.7742 72.0016 64.4659 71.1088 64.7051L70.6664 64.8237C70.8183 65.4622 70.7659 66.0915 70.5985 66.65L74.0727 65.7191Z" fill="#FF9459"/>
<path d="M54.8305 72.7792C54.8336 73.0827 54.8744 73.3907 54.9565 73.6974C55.4825 75.6598 57.4994 76.8242 59.4617 76.2984C61.4241 75.7726 62.5885 73.7557 62.0627 71.7934C61.9805 71.4866 61.8619 71.1994 61.7128 70.9351L59.8106 71.4447C60.0316 71.6656 60.1996 71.9458 60.2861 72.2693C60.5491 73.2505 59.9668 74.259 58.9856 74.522C58.0045 74.7848 56.9961 74.2025 56.7331 73.2215C56.6464 72.8978 56.6516 72.5713 56.7328 72.2695L54.8305 72.7792Z" fill="#FF9459"/>
<path fill-rule="evenodd" clip-rule="evenodd" d="M52.0538 73.5231L52 72.7752C51.9723 72.3888 51.9728 72.0073 52 71.6335C52.2097 68.7576 53.998 66.3379 56.6019 65.6402C59.2074 64.942 61.9708 66.1429 63.5909 68.5278C63.8017 68.8377 63.9931 69.1678 64.1621 69.5165L64.4895 70.191L52.0538 73.5231ZM61.6752 69.0409C60.4282 67.5838 58.6348 66.9996 57.078 67.4168C55.5239 67.8331 54.2651 69.2335 53.9152 71.1203L61.6752 69.0409Z" fill="#FF9459"/>
<path fill-rule="evenodd" clip-rule="evenodd" d="M66.249 55.4389L62.7881 56.3663L62.3122 54.5897L67.5495 53.1864L70.6325 64.6925C71.0721 66.3329 70.2707 68.0065 68.8259 68.8568C68.5762 69.0082 68.3138 69.1333 68.0351 69.23L68.0193 69.2354L67.7668 69.313L61.8248 70.9051L61.3487 69.1285L67.2588 67.545L67.4465 67.4874C67.5941 67.435 67.736 67.3672 67.8758 67.282L67.8825 67.2781L67.8892 67.2739C68.706 66.7953 69.0583 65.9232 68.8559 65.1686L66.249 55.4389Z" fill="#FF9459"/>
<path fill-rule="evenodd" clip-rule="evenodd" d="M71.1662 56.0255L72.1184 59.5785L70.3418 60.0545L69.3898 56.5014L71.1662 56.0255Z" fill="#FF9459"/>
<path fill-rule="evenodd" clip-rule="evenodd" d="M59.6826 62.9107L52.5766 64.8147C52.0859 64.9461 51.7948 65.4505 51.9262 65.941C52.0576 66.4316 52.562 66.7227 53.0525 66.5913L60.1587 64.6871C60.6492 64.5557 60.9404 64.0515 60.8089 63.5608C60.6775 63.0703 60.1733 62.7791 59.6826 62.9107ZM52.1005 63.0381C50.6288 63.4325 49.7554 64.9452 50.1498 66.4171C50.544 67.8887 52.0569 68.7621 53.5286 68.3677L60.6346 66.4637C62.1065 66.0693 62.9798 64.5566 62.5855 63.0849C62.1911 61.613 60.6784 60.7397 59.2067 61.1341L52.1005 63.0381Z" fill="#FF9459"/>
<path fill-rule="evenodd" clip-rule="evenodd" d="M105.847 74.4806L105.859 74.5205C106.256 75.8057 106.909 76.4976 107.652 76.8465C108.436 77.2146 109.603 77.3307 111.226 76.8958L121.49 74.1454C123.349 73.6473 124.256 72.9563 124.683 72.3121C125.087 71.7014 125.27 70.8122 124.95 69.4053L124.941 69.3646L122.817 57.6052L101.807 63.2349L105.847 74.4806ZM104.102 75.063C105.142 78.4307 107.911 79.688 111.702 78.6722L121.966 75.922C126.147 74.8017 127.526 72.4329 126.743 68.9965L124.271 55.3115L99.4 61.9756L104.102 75.063Z" fill="#FF9459"/>
<path fill-rule="evenodd" clip-rule="evenodd" d="M106.268 59.1832C105.479 56.2399 107.226 53.2143 110.17 52.4257C113.113 51.6369 116.139 53.3836 116.927 56.3272L118.593 62.5451L116.817 63.021L115.151 56.8031C114.625 54.8409 112.608 53.6763 110.646 54.2021C108.683 54.7279 107.519 56.745 108.045 58.7073L109.711 64.9251L107.934 65.4012L106.268 59.1832Z" fill="#FF9459"/>
<path fill-rule="evenodd" clip-rule="evenodd" d="M164.188 53.5897C164.763 52.1161 165.94 50.9968 167.717 50.5204L168.193 52.297C166.973 52.6239 166.261 53.3372 165.901 54.2586C165.526 55.2198 165.508 56.4872 165.884 57.889L167.766 64.9128C167.87 65.3027 168.212 65.5824 168.614 65.608L169.46 65.6618C170.405 65.7219 171.332 65.3806 172.012 64.722L173.291 66.0439C172.238 67.0626 170.805 67.5901 169.343 67.4973L168.498 67.4434C167.307 67.3677 166.298 66.5409 165.989 65.3889L164.107 58.3651C163.665 56.7136 163.628 55.0234 164.188 53.5897Z" fill="#FF9459"/>
<path d="M167.717 50.5204L169.494 50.0445L176.158 74.916L174.382 75.3919L167.717 50.5204Z" fill="#FF9459"/>
<path d="M153.505 54.3285L155.282 53.8525L161.946 78.7239L160.169 79.2L153.505 54.3285Z" fill="#FF9459"/>
<path fill-rule="evenodd" clip-rule="evenodd" d="M151.856 62.3867L149.952 55.2805L151.728 54.8046L153.633 61.9106C153.707 62.1901 153.91 62.4182 154.178 62.526L157.592 63.8962L156.907 65.6031L153.493 64.233C152.687 63.9095 152.081 63.2255 151.856 62.3867Z" fill="#FF9459"/>
<path fill-rule="evenodd" clip-rule="evenodd" d="M160.739 60.0066L158.835 52.9003L157.058 53.3764L158.962 60.4827C159.037 60.7622 158.976 61.0606 158.797 61.2883L156.526 64.1818L157.973 65.3174L160.244 62.424C160.78 61.741 160.963 60.8454 160.739 60.0066Z" fill="#FF9459"/>
<path fill-rule="evenodd" clip-rule="evenodd" d="M12.8652 104.031C13.4406 102.557 14.6172 101.438 16.3948 100.962L16.8708 102.738C15.6506 103.065 14.9382 103.779 14.5785 104.7C14.2032 105.661 14.1854 106.929 14.561 108.33L16.4431 115.354C16.5475 115.744 16.889 116.024 17.2917 116.049L18.137 116.103C19.0823 116.163 20.0092 115.822 20.6897 115.163L21.9686 116.485C20.9158 117.504 19.4823 118.032 18.0202 117.938L17.175 117.885C15.9846 117.809 14.9752 116.982 14.6665 115.83L12.7845 108.806C12.342 107.155 12.3054 105.465 12.8652 104.031Z" fill="#FF9459"/>
<path d="M16.3948 100.962L18.1714 100.486L24.8357 125.357L23.0591 125.833L16.3948 100.962Z" fill="#FF9459"/>
<path d="M2.18241 104.77L3.95894 104.294L10.6232 129.165L8.8467 129.641L2.18241 104.77Z" fill="#FF9459"/>
<path fill-rule="evenodd" clip-rule="evenodd" d="M0.533428 112.828L-1.37066 105.722L0.405878 105.246L2.30996 112.352C2.38487 112.632 2.58705 112.86 2.85568 112.967L6.26935 114.338L5.58425 116.044L2.17057 114.674C1.36471 114.351 0.758174 113.667 0.533428 112.828Z" fill="#FF9459"/>
<path fill-rule="evenodd" clip-rule="evenodd" d="M9.41609 110.448L7.51201 103.342L5.73548 103.818L7.63956 110.924C7.71447 111.203 7.65338 111.502 7.47466 111.73L5.20344 114.623L6.65017 115.759L8.92139 112.865C9.45756 112.182 9.64083 111.287 9.41609 110.448Z" fill="#FF9459"/>
<path fill-rule="evenodd" clip-rule="evenodd" d="M55.4063 124.922L55.4186 124.962C55.8155 126.247 56.4678 126.939 57.211 127.288C57.9955 127.656 59.1617 127.772 60.7849 127.337L71.0492 124.587C72.9079 124.089 73.8153 123.398 74.2419 122.754C74.6464 122.143 74.8296 121.254 74.5088 119.847L74.4997 119.806L72.3758 108.047L51.3659 113.676L55.4063 124.922ZM53.6612 125.504C54.7011 128.872 57.4702 130.129 61.261 129.114L71.5252 126.363C75.7062 125.243 77.0854 122.874 76.3022 119.438L73.8306 105.753L48.9591 112.417L53.6612 125.504Z" fill="#FF9459"/>
<path fill-rule="evenodd" clip-rule="evenodd" d="M55.8272 109.625C55.0386 106.681 56.7853 103.656 59.7289 102.867C62.6722 102.078 65.6978 103.825 66.4864 106.768L68.1525 112.986L66.3761 113.462L64.71 107.244C64.1842 105.282 62.1671 104.118 60.2048 104.643C58.2426 105.169 57.078 107.186 57.6038 109.149L59.2699 115.366L57.4933 115.842L55.8272 109.625Z" fill="#FF9459"/>
<path d="M119.484 119.412C119.487 119.716 119.528 120.024 119.61 120.331C120.136 122.293 122.153 123.457 124.115 122.932C126.077 122.406 127.242 120.389 126.716 118.426C126.634 118.12 126.515 117.832 126.366 117.568L124.464 118.078C124.685 118.299 124.853 118.579 124.939 118.902C125.202 119.884 124.62 120.892 123.639 121.155C122.658 121.418 121.649 120.836 121.386 119.855C121.299 119.531 121.305 119.204 121.386 118.903L119.484 119.412Z" fill="#FF9459"/>
<path fill-rule="evenodd" clip-rule="evenodd" d="M126.46 115.639C125.133 113.782 123.034 112.845 121.074 113.37L119.611 113.762C119.611 113.762 119.07 114.763 119.308 115.651C119.546 116.539 118.896 117.666 118.007 117.904C118.026 118.625 117.595 119.918 117.595 119.918L127.366 117.3L127.098 116.73C126.914 116.338 126.7 115.974 126.46 115.639ZM124.514 116.16C123.593 115.215 122.442 114.907 121.55 115.146L121.107 115.265C121.259 115.904 121.207 116.533 121.039 117.091L124.514 116.16Z" fill="#FF9459"/>
<path d="M105.271 123.22C105.274 123.524 105.315 123.832 105.398 124.139C105.923 126.101 107.94 127.266 109.903 126.74C111.865 126.214 113.029 124.197 112.504 122.235C112.421 121.928 112.303 121.641 112.154 121.376L110.251 121.886C110.472 122.107 110.64 122.387 110.727 122.711C110.99 123.692 110.408 124.7 109.426 124.963C108.445 125.226 107.437 124.644 107.174 123.663C107.087 123.339 107.092 123.012 107.174 122.711L105.271 123.22Z" fill="#FF9459"/>
<path fill-rule="evenodd" clip-rule="evenodd" d="M102.495 123.965L102.441 123.217C102.413 122.83 102.414 122.449 102.441 122.075C102.651 119.199 104.439 116.779 107.043 116.081C109.648 115.383 112.412 116.584 114.032 118.969C114.243 119.279 114.434 119.609 114.603 119.958L114.93 120.632L102.495 123.965ZM112.116 119.482C110.869 118.025 109.076 117.441 107.519 117.858C105.965 118.274 104.706 119.675 104.356 121.562L112.116 119.482Z" fill="#FF9459"/>
<path fill-rule="evenodd" clip-rule="evenodd" d="M116.69 105.88L113.229 106.808L112.753 105.031L117.99 103.628L121.073 115.134C121.513 116.774 120.712 118.448 119.267 119.298C119.017 119.45 118.755 119.574 118.476 119.671L118.46 119.677L118.208 119.754L112.266 121.346L111.79 119.57L117.7 117.986L117.887 117.929C118.035 117.876 118.177 117.809 118.317 117.723L118.323 117.719L118.33 117.715C119.147 117.237 119.499 116.365 119.297 115.61L116.69 105.88Z" fill="#FF9459"/>
<path fill-rule="evenodd" clip-rule="evenodd" d="M121.607 106.467L122.559 110.02L120.783 110.496L119.831 106.943L121.607 106.467Z" fill="#FF9459"/>
<path fill-rule="evenodd" clip-rule="evenodd" d="M110.123 113.352L103.017 115.256C102.527 115.388 102.236 115.892 102.367 116.382C102.498 116.873 103.003 117.164 103.493 117.033L110.6 115.128C111.09 114.997 111.381 114.493 111.25 114.002C111.118 113.512 110.614 113.22 110.123 113.352ZM102.541 113.48C101.07 113.874 100.196 115.387 100.591 116.858C100.985 118.33 102.498 119.204 103.969 118.809L111.075 116.905C112.547 116.511 113.421 114.998 113.026 113.526C112.632 112.054 111.119 111.181 109.648 111.575L102.541 113.48Z" fill="#FF9459"/>
<path d="M158.184 104.469L159.374 108.91L157.597 109.386L156.407 104.945L158.184 104.469Z" fill="#FF9459"/>
<path d="M155.821 109.862L154.044 110.338L153.33 107.673L155.107 107.197L155.821 109.862Z" fill="#FF9459"/>
<path fill-rule="evenodd" clip-rule="evenodd" d="M150.079 113.305L174.95 106.64L175.744 109.601C177.375 115.687 173.36 122.098 166.69 124.081L166.323 124.185C159.455 126.025 152.537 122.48 150.872 116.265L150.079 113.305ZM165.835 122.411L166.178 122.314C172.05 120.563 175.297 115.04 173.967 110.077L173.65 108.893L152.332 114.605L152.649 115.789C154.007 120.856 159.781 124.028 165.835 122.411Z" fill="#FF9459"/>
<path d="M159.629 124.074L172.065 120.742L172.541 122.519C172.804 123.5 172.221 124.508 171.24 124.771L162.358 127.151C161.376 127.414 160.368 126.832 160.105 125.851L159.629 124.074Z" fill="#FF9459"/>
<path d="M6.86128 154.909L8.05133 159.35L6.2748 159.826L5.08475 155.385L6.86128 154.909Z" fill="#FF9459"/>
<path d="M4.49828 160.303L2.72173 160.779L2.00771 158.114L3.78423 157.638L4.49828 160.303Z" fill="#FF9459"/>
<path fill-rule="evenodd" clip-rule="evenodd" d="M-1.24356 163.745L23.6279 157.081L24.4213 160.042C26.0519 166.128 22.0372 172.539 15.3679 174.521L15.0003 174.625C8.13211 176.465 1.21487 172.92 -0.450197 166.706L-1.24356 163.745ZM14.5128 172.852L14.8556 172.755C20.727 171.003 23.9744 165.48 22.6447 160.518L22.3274 159.333L1.00899 165.046L1.32634 166.23C2.68395 171.297 8.45847 174.468 14.5128 172.852Z" fill="#FF9459"/>
<path d="M8.30644 174.515L20.7421 171.182L21.2182 172.959C21.481 173.94 20.8989 174.949 19.9177 175.212L11.035 177.592C10.0539 177.855 9.04536 177.272 8.78247 176.291L8.30644 174.515Z" fill="#FF9459"/>
<path d="M69.0428 169.853C69.0458 170.156 69.0867 170.464 69.169 170.771C69.6947 172.733 71.7116 173.898 73.674 173.372C75.6364 172.846 76.8008 170.829 76.275 168.867C76.1927 168.56 76.0741 168.273 75.9251 168.009L74.0228 168.518C74.2439 168.739 74.4118 169.019 74.4984 169.343C74.7614 170.324 74.1791 171.333 73.1979 171.595C72.2167 171.858 71.2084 171.276 70.9454 170.295C70.8586 169.971 70.8638 169.645 70.945 169.343L69.0428 169.853Z" fill="#FF9459"/>
<path fill-rule="evenodd" clip-rule="evenodd" d="M76.0196 166.079C74.6919 164.222 72.5927 163.285 70.6329 163.81L69.1704 164.202C69.1704 164.202 68.6291 165.203 68.8671 166.092C69.1051 166.98 68.4549 168.106 67.5666 168.344C67.5853 169.065 67.1544 170.359 67.1544 170.359L76.9253 167.741L76.6571 167.17C76.4734 166.779 76.259 166.414 76.0196 166.079ZM74.0727 166.601C73.1522 165.656 72.0016 165.348 71.1088 165.587L70.6664 165.705C70.8183 166.344 70.7659 166.973 70.5985 167.532L74.0727 166.601Z" fill="#FF9459"/>
<path d="M54.8305 173.661C54.8336 173.964 54.8744 174.272 54.9565 174.579C55.4825 176.541 57.4994 177.706 59.4617 177.18C61.4241 176.654 62.5885 174.637 62.0627 172.675C61.9805 172.368 61.8619 172.081 61.7128 171.817L59.8106 172.327C60.0316 172.547 60.1996 172.827 60.2861 173.151C60.5491 174.132 59.9668 175.141 58.9856 175.404C58.0045 175.666 56.9961 175.084 56.7331 174.103C56.6464 173.779 56.6516 173.453 56.7328 173.151L54.8305 173.661Z" fill="#FF9459"/>
<path fill-rule="evenodd" clip-rule="evenodd" d="M52.0538 174.405L52 173.657C51.9723 173.27 51.9728 172.889 52 172.515C52.2097 169.639 53.998 167.22 56.6019 166.522C59.2074 165.824 61.9708 167.025 63.5909 169.409C63.8017 169.719 63.9931 170.05 64.1621 170.398L64.4895 171.073L52.0538 174.405ZM61.6752 169.923C60.4282 168.466 58.6348 167.881 57.078 168.299C55.5239 168.715 54.2651 170.115 53.9152 172.002L61.6752 169.923Z" fill="#FF9459"/>
<path fill-rule="evenodd" clip-rule="evenodd" d="M66.249 156.321L62.7881 157.248L62.3122 155.472L67.5495 154.068L70.6325 165.574C71.0721 167.215 70.2707 168.888 68.8259 169.739C68.5762 169.89 68.3138 170.015 68.0351 170.112L68.0193 170.117L67.7668 170.195L61.8248 171.787L61.3487 170.01L67.2588 168.427L67.4465 168.369C67.5941 168.317 67.736 168.249 67.8758 168.164L67.8825 168.16L67.8892 168.156C68.706 167.677 69.0583 166.805 68.8559 166.05L66.249 156.321Z" fill="#FF9459"/>
<path fill-rule="evenodd" clip-rule="evenodd" d="M71.1662 156.907L72.1184 160.46L70.3418 160.936L69.3898 157.383L71.1662 156.907Z" fill="#FF9459"/>
<path fill-rule="evenodd" clip-rule="evenodd" d="M59.6826 163.792L52.5766 165.696C52.0859 165.828 51.7948 166.332 51.9262 166.823C52.0576 167.313 52.562 167.604 53.0525 167.473L60.1587 165.569C60.6492 165.437 60.9404 164.933 60.8089 164.443C60.6775 163.952 60.1733 163.661 59.6826 163.792ZM52.1005 163.92C50.6288 164.314 49.7554 165.827 50.1498 167.299C50.544 168.771 52.0569 169.644 53.5286 169.249L60.6346 167.345C62.1065 166.951 62.9798 165.438 62.5855 163.967C62.1911 162.495 60.6784 161.621 59.2067 162.016L52.1005 163.92Z" fill="#FF9459"/>
<path fill-rule="evenodd" clip-rule="evenodd" d="M113.747 154.471C114.322 152.998 115.499 151.879 117.276 151.402L117.753 153.179C116.532 153.506 115.82 154.219 115.46 155.14C115.085 156.102 115.067 157.369 115.443 158.771L117.325 165.795C117.429 166.184 117.771 166.464 118.173 166.49L119.019 166.544C119.964 166.604 120.891 166.262 121.571 165.604L122.85 166.926C121.798 167.944 120.364 168.472 118.902 168.379L118.057 168.325C116.866 168.249 115.857 167.423 115.548 166.271L113.666 159.247C113.224 157.595 113.187 155.905 113.747 154.471Z" fill="#FF9459"/>
<path d="M117.276 151.402L119.053 150.926L125.717 175.798L123.941 176.274L117.276 151.402Z" fill="#FF9459"/>
<path d="M103.064 155.21L104.841 154.734L111.505 179.606L109.728 180.081L103.064 155.21Z" fill="#FF9459"/>
<path fill-rule="evenodd" clip-rule="evenodd" d="M101.415 163.268L99.511 156.162L101.288 155.686L103.192 162.792C103.267 163.072 103.469 163.3 103.737 163.408L107.151 164.778L106.466 166.485L103.052 165.115C102.246 164.791 101.64 164.107 101.415 163.268Z" fill="#FF9459"/>
<path fill-rule="evenodd" clip-rule="evenodd" d="M110.298 160.888L108.394 153.782L106.617 154.258L108.521 161.364C108.596 161.644 108.535 161.942 108.356 162.17L106.085 165.064L107.532 166.199L109.803 163.306C110.339 162.623 110.523 161.727 110.298 160.888Z" fill="#FF9459"/>
<path fill-rule="evenodd" clip-rule="evenodd" d="M156.288 175.362L156.3 175.402C156.697 176.687 157.35 177.379 158.093 177.728C158.877 178.096 160.043 178.212 161.667 177.778L171.931 175.027C173.79 174.529 174.697 173.838 175.124 173.194C175.528 172.583 175.711 171.694 175.391 170.287L175.381 170.246L173.258 158.487L152.248 164.117L156.288 175.362ZM154.543 175.945C155.583 179.312 158.352 180.571 162.143 179.554L172.407 176.804C176.588 175.683 177.967 173.315 177.184 169.878L174.712 156.193L149.841 162.857L154.543 175.945Z" fill="#FF9459"/>
<path fill-rule="evenodd" clip-rule="evenodd" d="M156.709 160.065C155.92 157.122 157.667 154.096 160.611 153.307C163.554 152.519 166.58 154.265 167.368 157.209L169.034 163.427L167.258 163.903L165.592 157.685C165.066 155.723 163.049 154.558 161.087 155.084C159.124 155.61 157.96 157.627 158.486 159.589L160.152 165.807L158.375 166.283L156.709 160.065Z" fill="#FF9459"/>
</g>
</g>
</g>
<defs>
<clipPath id="clip0_15578_612">
<rect width="180" height="180" fill="white"/>
</clipPath>
</defs>
</svg>
