<svg width="40" height="40" viewBox="0 0 40 40" fill="none" xmlns="http://www.w3.org/2000/svg">
<path d="M20.6961 27.09L19.7877 16.5322C19.7038 15.5573 20.4767 14.7215 21.4551 14.729L30.379 14.7972C31.3574 14.8047 32.1174 15.6522 32.0187 16.6257L30.9489 27.1684C30.8624 28.0212 30.141 28.6681 29.2838 28.6615L22.3382 28.6084C21.481 28.6019 20.7696 27.9441 20.6961 27.09Z" fill="#79A5FE"/>
<path d="M31.9567 13.7317L19.8939 13.6395C19.4353 13.636 19.0607 14.005 19.0572 14.4636L19.045 16.0477C19.0415 16.5063 19.4105 16.8809 19.8691 16.8845L31.9319 16.9767C32.3905 16.9802 32.7651 16.6112 32.7686 16.1526L32.7808 14.5685C32.7843 14.1099 32.4153 13.7353 31.9567 13.7317Z" fill="#517EFE"/>
<path d="M30.5123 14.285L29.5721 14.2788C29.1135 14.2758 28.7384 14.6451 28.7343 15.1037L28.7288 15.721C28.7248 16.1796 29.0933 16.5539 29.5519 16.5569L30.492 16.5631C30.9507 16.5661 31.3258 16.1968 31.3298 15.7381L31.3353 15.1208C31.3394 14.6622 30.9709 14.288 30.5123 14.285Z" fill="#A7CBFF"/>
<path d="M28.3025 14.8559C28.3057 14.4968 28.0172 14.2037 27.6581 14.2014C27.2989 14.199 27.0052 14.4882 27.002 14.8473L26.9922 15.9545C26.989 16.3136 27.2776 16.6066 27.6367 16.609C27.9958 16.6114 28.2895 16.3222 28.2927 15.963L28.3025 14.8559Z" fill="#A7CBFF"/>
<path d="M28.8146 8.60753C28.9667 8.42329 29.2363 8.39809 29.4188 8.55105L30.576 9.52068C30.7647 9.67883 30.7866 9.96484 30.6242 10.1508L30.1772 10.6624C29.5458 11.3852 29.197 12.3185 29.197 13.2855V13.7375H26.8257V12.4549C26.8257 11.5259 27.1476 10.6267 27.7348 9.91544L28.8146 8.60753Z" fill="#FAC856"/>
<path d="M24.7939 19.4422H8.09C6.60942 19.4422 5.40918 20.6424 5.40918 22.123V22.123C5.40918 23.6036 6.60942 24.8039 8.09 24.8039H24.7939C26.2744 24.8039 27.4747 23.6036 27.4747 22.123C27.4747 20.6424 26.2744 19.4422 24.7939 19.4422Z" fill="#C01B21"/>
<path d="M7.1748 24.9697C7.1748 27.0316 8.84632 28.7031 10.9082 28.7031H22.0119C24.0738 28.7031 25.7453 27.0316 25.7453 24.9697C25.7453 24.878 25.671 24.8038 25.5794 24.8038H7.34074C7.24909 24.8038 7.1748 24.878 7.1748 24.9697Z" fill="#EAA407"/>
<path d="M17.9794 22.0119L16.0835 19.694H25.187L23.1911 22.0545C21.8227 23.6729 19.3212 23.6525 17.9794 22.0119Z" fill="#F8B825"/>
<path d="M6.13428 19.5972C6.13428 19.1376 6.48065 18.765 6.90792 18.765H26.0126C26.4398 18.765 26.7862 19.1376 26.7862 19.5972C26.7862 19.9163 26.6165 20.2073 26.3494 20.3463L25.3288 20.8773C24.6187 21.2467 23.7907 21.2467 23.0807 20.8773L22.7215 20.6904C22.0114 20.321 21.2041 20.2281 20.4375 20.4275L17.5949 21.1669C16.8492 21.3609 16.0713 21.3609 15.3256 21.1669L12.483 20.4275C11.7164 20.2281 10.9091 20.321 10.199 20.6904L9.8398 20.8773C9.12979 21.2467 8.30174 21.2467 7.59173 20.8773L6.57106 20.3463C6.30396 20.2073 6.13428 19.9163 6.13428 19.5972Z" fill="#05A437"/>
<path d="M7.1748 18.4585C7.1748 14.6496 10.2625 11.5619 14.0714 11.5619H18.8487C22.6576 11.5619 25.7453 14.6496 25.7453 18.4585C25.7453 18.6278 25.6081 18.765 25.4388 18.765H7.48132C7.31204 18.765 7.1748 18.6278 7.1748 18.4585Z" fill="#EAA407"/>
<path d="M11.8757 17.5364C12.951 17.5364 13.8226 16.6647 13.8226 15.5894C13.8226 14.5141 12.951 13.6425 11.8757 13.6425C10.8004 13.6425 9.92874 14.5141 9.92874 15.5894C9.92874 16.6647 10.8004 17.5364 11.8757 17.5364Z" fill="#FAC856"/>
</svg>
