<svg width="140" height="140" viewBox="0 0 140 140" fill="none" xmlns="http://www.w3.org/2000/svg">
<path d="M64.141 137.761C93.3573 138.995 117.164 136.91 117.314 133.104C117.464 129.297 93.9015 125.211 64.6852 123.977C35.4688 122.743 11.6625 124.828 11.5122 128.634C11.3619 132.441 34.9246 136.527 64.141 137.761Z" fill="#FDF7EF"/>
<path d="M17.5022 66.1473C18.0903 64.4295 19.963 63.5068 21.6849 64.0865L113.451 94.983C115.173 95.5627 116.092 97.4254 115.504 99.1433C109.622 116.322 90.8957 125.549 73.6768 119.751L38.0302 107.75C20.8113 101.952 11.6206 83.3263 17.5022 66.1473Z" fill="#D0C6BA"/>
<path d="M28.9044 104.678L82.8023 122.825" stroke="#D0C6BA" stroke-width="5" stroke-linecap="round"/>
<path d="M65.0175 86.703C91.7057 95.7632 114.268 100.422 115.412 97.1091C116.555 93.796 95.8475 83.7655 69.1593 74.7052C42.4711 65.645 19.9089 60.986 18.7651 64.2991C17.6214 67.6122 38.3293 77.6428 65.0175 86.703Z" fill="#9C9790"/>
<path d="M60.5205 59.948C79.6024 35.6913 49.6557 33.2246 63.1417 11.8945" stroke="#D0C6BA" stroke-width="3" stroke-linecap="round" stroke-dasharray="10 9"/>
<path d="M88.4386 39.5271C75.1791 25.2632 101.202 26.4732 88.4384 9.31448" stroke="#D0C6BA" stroke-width="3" stroke-linecap="round" stroke-dasharray="10 9"/>
<path d="M43.226 45.7847C44.7442 51.5011 41.3329 57.3476 35.6064 58.8433C34.3259 59.1778 33.0127 58.4127 32.6733 57.1344L23.1436 21.2529C23.1004 21.0901 23.1974 20.9237 23.3604 20.8812C30.2043 19.0937 37.2233 23.1832 39.0377 30.0152L40.8637 36.89L43.226 45.7847Z" fill="#9C9790"/>
<path d="M28.9096 29.3068L28.9097 29.3068C30.7827 28.8176 31.8986 26.9053 31.402 25.0355L26.282 5.7573C25.7854 3.8875 23.8644 2.76829 21.9913 3.2575L21.9913 3.2575C20.1182 3.7467 19.0024 5.65906 19.499 7.52886L24.619 26.807C25.1156 28.6768 27.0366 29.796 28.9096 29.3068Z" fill="#9C9790"/>
<path d="M93.5605 57.0222C91.6088 57.9168 90.7616 60.2188 91.6682 62.1638C92.5748 64.1087 94.8919 64.9602 96.8436 64.0656L126.759 50.3531C128.71 49.4585 129.557 47.1566 128.651 45.2116C127.744 43.2666 125.427 42.4151 123.475 43.3097L93.5605 57.0222Z" fill="#9C9790"/>
<path d="M92.1386 72.0122L84.4112 55.4341L88.618 53.5057C93.2115 51.4002 98.6652 53.4043 100.799 57.9823C102.933 62.5601 100.939 67.9783 96.3454 70.0838L92.1386 72.0122Z" fill="#9C9790"/>
<path d="M78.5355 73.0426C77.3472 73.5873 76.8314 74.9888 77.3834 76.173C77.9354 77.3573 79.3461 77.8757 80.5344 77.331L95.7113 70.3742C96.8996 69.8295 97.4154 68.4279 96.8634 67.2437C96.3114 66.0595 94.9006 65.5411 93.7123 66.0858L78.5355 73.0426Z" fill="#9C9790"/>
<path d="M75.6644 66.8792C74.4761 67.4239 73.9603 68.8254 74.5123 70.0097C75.0643 71.1939 76.4751 71.7123 77.6634 71.1676L92.8402 64.2108C94.0285 63.6661 94.5443 62.2646 93.9923 61.0803C93.4403 59.8961 92.0295 59.3777 90.8412 59.9224L75.6644 66.8792Z" fill="#9C9790"/>
<path d="M72.792 60.716C71.6037 61.2607 71.0879 62.6623 71.6399 63.8465C72.1919 65.0307 73.6027 65.5491 74.791 65.0044L89.9678 58.0476C91.1561 57.5029 91.6719 56.1014 91.1199 54.9172C90.568 53.7329 89.1572 53.2145 87.9689 53.7592L72.792 60.716Z" fill="#9C9790"/>
</svg>
