<svg width="204" height="148" viewBox="0 0 204 148" fill="none" xmlns="http://www.w3.org/2000/svg">
<path fill-rule="evenodd" clip-rule="evenodd" d="M81.0887 122.185C112.224 118.965 143.36 115.745 174.495 112.525C181.727 111.777 187.975 110.039 193.292 104.686C197.902 100.044 201.374 92.4298 201.077 85.7631C200.77 78.842 198.512 71.6631 193.292 66.8394C188.404 62.3222 181.388 58.2881 174.495 59.0006C143.36 62.2208 112.224 65.4403 81.0887 68.6605C73.8567 69.408 67.6087 71.1461 62.2922 76.4986C57.6817 81.1403 54.21 88.7556 54.5061 95.4223C54.8141 102.343 57.0728 109.522 62.2922 114.346C67.18 118.863 74.1965 122.897 81.0887 122.185Z" fill="#CCCFFF"/>
<path fill-rule="evenodd" clip-rule="evenodd" d="M46.6794 90.5686C81.1467 88.8559 115.613 87.1438 150.08 85.4317C157.097 85.083 163.81 82.6782 168.863 77.5763C173.47 72.9248 176.939 65.2928 176.643 58.6125C176.335 51.6761 174.078 44.4825 168.863 39.6486C163.814 34.9691 157.142 31.4427 150.08 31.7932C115.613 33.5059 81.1467 35.218 46.6794 36.9307C39.663 37.2795 32.9502 39.6842 27.8972 44.7861C23.2902 49.4377 19.8211 57.0691 20.1171 63.7494C20.4254 70.6857 22.6818 77.8799 27.8972 82.7132C32.9461 87.3927 39.6183 90.9197 46.6794 90.5686Z" fill="#CCCFFF"/>
<path d="M2 136.294H32.7692" stroke="black" stroke-linecap="round" stroke-linejoin="round"/>
<path d="M41.819 146.249H71.6832" stroke="black" stroke-linecap="round" stroke-linejoin="round"/>
<path d="M102.453 139.914H202" stroke="black" stroke-linecap="round" stroke-linejoin="round"/>
<path fill-rule="evenodd" clip-rule="evenodd" d="M42.4255 92.1307C55.2948 91.6553 68.1712 91.7421 81.0327 92.3904C87.5005 92.7173 93.6819 86.4623 93.393 80.0081C93.0809 73.0203 87.9615 67.9747 81.0327 67.6252C68.1712 66.9762 55.2948 66.8895 42.4255 67.3649C35.9719 67.6032 29.758 72.8896 30.0653 79.7478C30.3559 86.2525 35.5045 92.3869 42.4255 92.1307Z" fill="#F4FFCC"/>
<path fill-rule="evenodd" clip-rule="evenodd" d="M30.0543 42.1763C30.0543 35.4288 35.5151 29.9592 42.2511 29.9592H158.128C164.864 29.9592 170.326 35.4288 170.326 42.1763V115.479C170.326 122.227 164.864 127.697 158.128 127.697H42.2511C35.5151 127.697 30.0543 122.227 30.0543 115.479V42.1763Z" stroke="black" stroke-linecap="round" stroke-linejoin="round"/>
<path d="M30.0543 53.9412H170.326" stroke="black" stroke-linecap="round" stroke-linejoin="round"/>
<path d="M152.226 78.3755H134.127" stroke="black" stroke-linecap="round" stroke-linejoin="round"/>
<path d="M97.0226 78.3755H48.1538" stroke="black" stroke-linecap="round" stroke-linejoin="round"/>
<path d="M66.2533 96.4751H48.1538" stroke="black" stroke-linecap="round" stroke-linejoin="round"/>
<path d="M36.3892 7.33484L47.2489 3.71494" stroke="black" stroke-linecap="round" stroke-linejoin="round"/>
<path d="M40.0092 1L42.7241 10.9547" stroke="black" stroke-linecap="round" stroke-linejoin="round"/>
</svg>
