<svg width="257" height="148" viewBox="0 0 257 148" fill="none" xmlns="http://www.w3.org/2000/svg">
<path fill-rule="evenodd" clip-rule="evenodd" d="M27.1815 89.5557C27.1916 90.7343 27.1467 91.9078 27.0529 93.0831C27.0067 93.6594 27.0479 94.9146 26.8104 95.4396C26.9231 95.1913 27.4374 91.1503 27.0675 93.5005C26.5875 96.5529 26.0339 99.5907 25.4494 102.625C24.3018 108.577 22.8229 114.735 22.7165 120.806C22.5639 129.519 30.485 137.855 39.3687 137.457C48.5216 137.047 55.8575 130.143 56.0209 120.806C56.0368 119.911 56.1653 119.031 56.2116 118.14C55.8848 124.381 55.9443 120.177 56.2483 118.439C56.7569 115.532 57.3465 112.639 57.8968 109.739C59.1521 103.128 60.5429 96.304 60.4859 89.5557C60.4124 80.8488 52.879 72.4996 43.8337 72.9049C34.874 73.3064 27.1023 80.2231 27.1815 89.5557Z" fill="#F4FFCC"/>
<path fill-rule="evenodd" clip-rule="evenodd" d="M148.82 66.345C150.829 65.9124 152.843 65.5158 154.871 65.1777C155.656 65.0474 156.443 64.9328 157.23 64.8088C160.434 64.3026 154.683 65.0858 156.83 64.8572C160.428 64.4726 164.024 64.0923 167.626 63.7504C176.161 62.9408 184.716 61.9913 193.1 60.1856C201.692 58.3353 207.515 48.0125 204.827 39.8227C201.902 30.9114 193.378 26.2782 184.173 28.2608C182.164 28.6927 180.15 29.09 178.123 29.4275C177.337 29.5578 176.549 29.673 175.763 29.797C172.559 30.3032 178.31 29.52 176.163 29.7492C172.565 30.1326 168.969 30.5135 165.366 30.8554C156.832 31.6657 148.277 32.6145 139.893 34.4202C131.301 36.2699 125.478 46.5933 128.166 54.7837C131.091 63.6944 139.615 68.3276 148.82 66.345Z" fill="#FFDECC"/>
<path fill-rule="evenodd" clip-rule="evenodd" d="M195.896 30.2433C189.245 30.2433 183.38 33.5595 179.898 38.607C177.601 37.6571 175.08 37.1311 172.433 37.1311C161.752 37.1311 153.093 45.6815 153.093 56.2293C153.093 66.7771 161.752 75.3275 172.433 75.3275C179.084 75.3275 184.95 72.0113 188.431 66.9637C190.728 67.9136 193.249 68.4396 195.896 68.4396C206.577 68.4396 215.236 59.8893 215.236 49.3414C215.236 38.7936 206.577 30.2433 195.896 30.2433Z" stroke="black" stroke-linecap="round" stroke-linejoin="round"/>
<path fill-rule="evenodd" clip-rule="evenodd" d="M234.229 72.3194C228.073 95.1094 209.184 132.424 151.483 132.533C151.277 132.533 151.069 132.539 150.864 132.548C146.219 132.768 85.3399 134.476 76.477 73.3042C75.3041 65.208 81.1908 57.7855 89.3485 57.0535C111.953 55.0238 160.256 51.8176 220.996 54.2962C230.181 54.6717 236.624 63.4563 234.229 72.3194Z" fill="#CCCFFF"/>
<path fill-rule="evenodd" clip-rule="evenodd" d="M132.379 22.3242C132.379 24.6796 130.469 26.5889 128.114 26.5889C125.758 26.5889 123.849 24.6796 123.849 22.3242C123.849 19.9688 125.758 18.0595 128.114 18.0595C130.469 18.0595 132.379 19.9688 132.379 22.3242Z" fill="#B2CBEF"/>
<path fill-rule="evenodd" clip-rule="evenodd" d="M127.505 3.43698C127.505 4.78289 126.414 5.87397 125.068 5.87397C123.722 5.87397 122.631 4.78289 122.631 3.43698C122.631 2.09107 123.722 1 125.068 1C126.414 1 127.505 2.09107 127.505 3.43698Z" fill="#B2CBEF"/>
<path fill-rule="evenodd" clip-rule="evenodd" d="M139.69 11.3571C139.69 14.3852 137.234 16.8404 134.206 16.8404C131.178 16.8404 128.723 14.3852 128.723 11.3571C128.723 8.32912 131.178 5.87393 134.206 5.87393C137.234 5.87393 139.69 8.32912 139.69 11.3571Z" fill="#B2CBEF"/>
<path d="M173.807 142.954H224.984" stroke="black" stroke-linecap="round" stroke-linejoin="round"/>
<path d="M2 133.207H101.916" stroke="black" stroke-linecap="round" stroke-linejoin="round"/>
<path d="M92.1683 145.391H117.757" stroke="black" stroke-linecap="round" stroke-linejoin="round"/>
<path d="M246.917 54.6139C241.914 93.999 210.975 126.58 169.888 131.863C121.105 138.135 76.4892 103.551 70.2355 54.6165" stroke="black" stroke-linecap="round" stroke-linejoin="round"/>
<path d="M253.009 53.3952L65.3616 54.6136" stroke="black" stroke-linecap="round" stroke-linejoin="round"/>
<path d="M90.9498 68.0166C90.9498 68.0166 99.4791 97.6089 126.286 109.445" stroke="black" stroke-linecap="round" stroke-linejoin="round"/>
<path fill-rule="evenodd" clip-rule="evenodd" d="M52.3386 132.597H34.5191C30.3329 132.597 27.1025 128.909 27.6487 124.753L31.4286 95.9845C31.882 92.5318 34.8212 89.9502 38.299 89.9502H48.5587C52.0359 89.9502 54.975 92.5318 55.4284 95.9845L59.2089 124.753C59.7545 128.909 56.5241 132.597 52.3386 132.597Z" stroke="black" stroke-linecap="round" stroke-linejoin="round"/>
<path fill-rule="evenodd" clip-rule="evenodd" d="M51.3022 88.7317H35.5551C31.828 88.7317 28.8068 85.7313 28.8068 82.03C28.8068 78.3286 31.828 75.3283 35.5551 75.3283H51.3022C55.0293 75.3283 58.0506 78.3286 58.0506 82.03C58.0506 85.7313 55.0293 88.7317 51.3022 88.7317Z" stroke="black" stroke-linecap="round" stroke-linejoin="round"/>
<path d="M36.727 114.319V117.027V124.067" stroke="black" stroke-linecap="round" stroke-linejoin="round"/>
</svg>
