<svg width="141" height="141" viewBox="0 0 141 141" fill="none" xmlns="http://www.w3.org/2000/svg">
<g clip-path="url(#clip0_15577_5310)">
<path d="M70.5 140.905C109.16 140.905 140.5 109.565 140.5 70.9047C140.5 32.2448 109.16 0.904724 70.5 0.904724C31.8401 0.904724 0.5 32.2448 0.5 70.9047C0.5 109.565 31.8401 140.905 70.5 140.905Z" fill="#F5F5F5"/>
<path d="M68.9847 114.077C90.9318 114.077 108.723 112.149 108.723 109.77C108.723 107.391 90.9318 105.463 68.9847 105.463C47.0376 105.463 29.246 107.391 29.246 109.77C29.246 112.149 47.0376 114.077 68.9847 114.077Z" fill="#D1D1D1"/>
<path d="M93.8813 46.9925C94.943 46.9925 95.8036 46.1319 95.8036 45.0702C95.8036 44.0085 94.943 43.1479 93.8813 43.1479C92.8196 43.1479 91.959 44.0085 91.959 45.0702C91.959 46.1319 92.8196 46.9925 93.8813 46.9925Z" fill="#A6A6A6"/>
<path d="M102.097 41.208C103.777 41.208 105.138 39.8464 105.138 38.1668C105.138 36.4872 103.777 35.1257 102.097 35.1257C100.417 35.1257 99.0558 36.4872 99.0558 38.1668C99.0558 39.8464 100.417 41.208 102.097 41.208Z" fill="#D1D1D1"/>
<path d="M93.8813 37.048C94.943 37.048 95.8036 36.1873 95.8036 35.1257C95.8036 34.064 94.943 33.2034 93.8813 33.2034C92.8196 33.2034 91.959 34.064 91.959 35.1257C91.959 36.1873 92.8196 37.048 93.8813 37.048Z" fill="#A6A6A6"/>
<path d="M105.138 30.1171C108.861 30.1171 111.88 27.0987 111.88 23.3755C111.88 19.6522 108.861 16.6339 105.138 16.6339C101.415 16.6339 98.3964 19.6522 98.3964 23.3755C98.3964 27.0987 101.415 30.1171 105.138 30.1171Z" fill="#D1D1D1"/>
<path d="M49.5394 54.9045L50.2852 45.7102C50.4691 43.4358 51.466 41.303 53.0942 39.7015L59.9055 33L76.7871 33.0522L81.6544 36.5631C84.4162 38.5544 86.3403 41.4991 87.0562 44.8263L88.9554 53.6606H77.3787L77.1724 42.676L60.4673 42.5867L60.4002 54.1298L49.5419 54.907L49.5394 54.9045Z" fill="#FF5A00"/>
<path d="M59.9056 33.0001L60.4674 42.5842L66.0532 42.6388L59.9056 33.0001Z" fill="#C44100"/>
<path d="M76.7871 33.0521L77.1724 42.6735H71.7109L76.7871 33.0521Z" fill="#C44100"/>
<path d="M44.8213 109.492H78.137C81.7266 109.492 84.7022 106.714 84.9433 103.136L87.9786 57.9587C88.2421 54.0232 85.1149 50.6862 81.1648 50.6887L48.6446 50.7209C45.1022 50.7234 42.154 53.4348 41.8557 56.9581L38.025 102.103C37.6869 106.078 40.8265 109.492 44.8213 109.492Z" fill="#C44100"/>
<path d="M95.5231 109.475L63.3435 109.395C60.1243 109.388 57.452 106.915 57.1959 103.709L53.5019 57.3057C53.216 53.7277 56.035 50.6613 59.6296 50.6415L92.0578 50.4503C95.3093 50.4304 98.0214 52.9307 98.2601 56.171L101.705 102.845C101.969 106.431 99.1251 109.485 95.5231 109.475Z" fill="#FF5A00"/>
<path d="M75.3559 87.9758C81.2898 88.6956 85.3037 84.5212 85.4729 81.8882L67.9901 79.7673C67.8448 82.0314 69.4221 87.256 75.3559 87.9758Z" fill="white"/>
<path d="M85.4729 81.8882L86.784 81.9725C86.8287 81.2771 86.3228 80.6679 85.6312 80.584L85.4729 81.8882ZM67.9901 79.7673L68.1483 78.4631C67.7896 78.4196 67.4288 78.5257 67.1508 78.7566C66.8728 78.9874 66.7022 79.3226 66.679 79.6831L67.9901 79.7673ZM84.1619 81.8039C84.1112 82.5927 83.3857 83.9778 81.8042 85.1263C80.2865 86.2285 78.1281 86.9887 75.5142 86.6716L75.1977 89.28C78.5176 89.6827 81.3332 88.7157 83.3482 87.2523C85.2993 85.8354 86.6654 83.8167 86.784 81.9725L84.1619 81.8039ZM75.5142 86.6716C72.9595 86.3617 71.4102 85.1095 70.4869 83.7226C69.5277 82.2818 69.2471 80.6948 69.3012 79.8515L66.679 79.6831C66.5878 81.104 67.0232 83.2613 68.2997 85.1787C69.6122 87.1501 71.8185 88.8701 75.1977 89.28L75.5142 86.6716ZM67.8319 81.0715L85.3147 83.1924L85.6312 80.584L68.1483 78.4631L67.8319 81.0715Z" fill="white"/>
<path d="M80.038 86.5211C76.6894 80.8406 72.2491 80.9447 69.2156 83.3473C68.8988 83.5982 68.8775 84.0639 69.154 84.3587C72.1067 87.5069 75.1649 88.6211 79.5978 87.561C80.0588 87.4507 80.2787 86.9294 80.038 86.5211Z" fill="#FF5A00"/>
<path d="M72.3789 70.2455L72.9875 73.1407" stroke="white" stroke-width="2.68241" stroke-linecap="round"/>
<path d="M82.8308 70.0771L83.4106 72.9782" stroke="white" stroke-width="2.68241" stroke-linecap="round"/>
</g>
<defs>
<clipPath id="clip0_15577_5310">
<rect width="141" height="141" fill="white"/>
</clipPath>
</defs>
</svg>
