<svg width="141" height="140" viewBox="0 0 141 140" fill="none" xmlns="http://www.w3.org/2000/svg">
<g clip-path="url(#clip0_15577_5309)">
<path d="M70.7583 140C109.418 140 140.758 108.66 140.758 70C140.758 31.3401 109.418 0 70.7583 0C32.0984 0 0.758301 31.3401 0.758301 70C0.758301 108.66 32.0984 140 70.7583 140Z" fill="#F5F5F5"/>
<path d="M85.9337 63.1331L87.2462 64.3977L58.7743 93.949L57.4618 92.6844L85.9337 63.1331Z" fill="#A6A6A6"/>
<path d="M87.7589 62.5523L84.8519 65.5694C86.44 67.0622 88.2874 66.2519 89.8815 64.5974L87.7589 62.5523Z" fill="#BBBBBB"/>
<path d="M85.6377 60.5079C84.0326 62.1739 83.2246 64.0008 84.8204 65.5385L84.8527 65.5695L87.7596 62.5523L85.6377 60.5079Z" fill="#BBBBBB"/>
<path d="M94.3105 45.2053L96.3244 43.1152C97.9264 41.4524 100.569 41.4032 102.232 43.0053L106.752 47.3606C108.415 48.9627 108.464 51.6054 106.862 53.2682L104.848 55.3584L94.3105 45.2053Z" fill="#FF5A00"/>
<path d="M94.9058 39.4505L85.24 49.4827C82.2459 52.5903 82.3379 57.5333 85.4455 60.5274L87.9484 62.9389C89.6112 64.541 92.254 64.4919 93.8561 62.829L98.1022 58.422C102.488 53.8696 102.354 46.6263 97.8012 42.2402L94.9058 39.4505Z" fill="#C44100"/>
<path d="M95.6325 40.1508L92.9058 37.5236C93.498 39.2826 93.1188 41.3052 91.7436 42.7326L92.4704 43.4328L95.6325 40.1508Z" fill="#C44100"/>
<path d="M110.578 54.5501L100.912 64.5822C97.9177 67.6898 92.9747 67.7817 89.8671 64.7876L87.3641 62.3761C85.7013 60.774 85.6521 58.1313 87.2542 56.4685L91.5003 52.0614C95.8864 47.509 103.13 47.3743 107.682 51.7604L110.578 54.5501Z" fill="#C44100"/>
<path d="M109.851 53.8498L112.58 56.4798C110.801 55.9533 108.793 56.4075 107.418 57.8348L106.692 57.1346L109.854 53.8526L109.851 53.8498Z" fill="#C44100"/>
<path d="M61.983 90.4104C77.0564 71.4087 81.5641 52.436 81.6079 52.2462L83.343 52.6474C83.2985 52.8406 78.6985 72.2045 63.3781 91.5172L61.983 90.4104Z" fill="#A6A6A6"/>
<path d="M80.7219 56.3369L79.907 60.3506C77.8241 59.9016 77.4522 57.9653 77.899 55.7643L80.7219 56.3369Z" fill="#BBBBBB"/>
<path d="M83.5434 56.9113C83.0935 59.1267 82.0714 60.7909 79.9497 60.3598L79.907 60.351L80.7219 56.3373L83.5434 56.9099V56.9113Z" fill="#BBBBBB"/>
<path d="M70.9761 53.0697C70.9761 53.0697 71.2677 76.3564 60.3071 90.4161L63.9475 93.9506C63.9475 93.9506 85.204 71.8925 70.9761 53.0697Z" fill="#A6A6A6"/>
<path d="M76.6226 38.9646L77.2057 36.1871C77.6695 33.9775 79.8335 32.5644 82.0431 33.0283L88.05 34.2893C90.2596 34.7532 91.6727 36.9172 91.2088 39.1268L90.6257 41.9043L76.6226 38.9646Z" fill="#C44100"/>
<path d="M74.1273 33.8875L71.3287 47.2185C70.4618 51.348 73.1048 55.3956 77.2342 56.2625L80.5602 56.9607C82.7698 57.4246 84.9338 56.0115 85.3977 53.8019L86.6271 47.9457C87.8971 41.8963 84.0241 35.9652 77.9748 34.6952L74.1273 33.8875Z" fill="#FF5A00"/>
<path d="M75.0928 34.0902L71.4694 33.3295C72.8736 34.4793 73.6097 36.352 73.2115 38.2487L74.1773 38.4515L75.0928 34.0902Z" fill="#FF5A00"/>
<path d="M94.9526 38.2594L92.154 51.5904C91.2871 55.7199 87.2395 58.3629 83.11 57.496L79.784 56.7977C77.5744 56.3339 76.1613 54.1699 76.6252 51.9603L77.8546 46.1041C79.1246 40.0547 85.0558 36.1817 91.1051 37.4517L94.9526 38.2594Z" fill="#FF5A00"/>
<path d="M93.9868 38.0563L97.6141 38.8178C95.8661 39.3059 94.439 40.7244 94.0408 42.6211L93.0751 42.4184L93.9907 38.0571L93.9868 38.0563Z" fill="#FF5A00"/>
<path d="M60.2062 89.5545C78.6341 73.7849 97.4261 68.5747 97.6141 68.5238L97.1487 66.8049C96.9573 66.8565 77.7778 72.1735 59.0483 88.2015L60.2062 89.5545Z" fill="#A6A6A6"/>
<path d="M93.5593 69.5617L89.5786 70.5253C90.1047 72.59 92.0536 72.8897 94.2364 72.3613L93.5593 69.5617Z" fill="#BBBBBB"/>
<path d="M92.8808 66.7635C90.6836 67.2956 89.0586 68.3788 89.5683 70.483L89.5787 70.5254L93.5593 69.5618L92.8822 66.7635H92.8808Z" fill="#BBBBBB"/>
<path d="M96.9375 78.7177C96.9375 78.7177 73.6562 79.2923 60.0138 90.7682L56.3464 87.2617C56.3464 87.2617 77.5986 65.1996 96.9375 78.7177Z" fill="#A6A6A6"/>
<path d="M111.072 73.0123L113.826 72.3263C116.017 71.7806 117.348 69.5655 116.803 67.3747L115.319 61.4189C114.773 59.2281 112.558 57.8965 110.367 58.4422L107.614 59.1282L111.072 73.0123Z" fill="#C44100"/>
<path d="M116.239 75.317L103.021 78.6094C98.9266 79.6293 94.7835 77.1387 93.7636 73.0443L92.9421 69.7466C92.3964 67.5557 93.728 65.3407 95.9189 64.795L101.725 63.3486C107.723 61.8546 113.794 65.5043 115.288 71.5022L116.239 75.317Z" fill="#FF5A00"/>
<path d="M116 74.359L116.895 77.9517C115.694 76.5913 113.795 75.9253 111.914 76.3937L111.676 75.4362L116 74.359Z" fill="#FF5A00"/>
<path d="M111.095 54.6693L97.8775 57.9618C93.7831 58.9816 91.2924 63.1247 92.3123 67.2191L93.1338 70.5168C93.6795 72.7076 95.8946 74.0393 98.0854 73.4935L103.892 72.0472C109.89 70.5531 113.539 64.482 112.045 58.4841L111.095 54.6693Z" fill="#FF5A00"/>
<path d="M111.334 55.6264L110.438 52.0299C110.015 53.7949 108.651 55.2737 106.77 55.7422L107.009 56.6997L111.333 55.6226L111.334 55.6264Z" fill="#FF5A00"/>
<path d="M71.0426 65.6672L84.9144 79.0324C86.5584 80.6164 86.3097 83.3161 84.404 84.573L59.5573 100.961C58.1656 101.879 56.3236 101.709 55.1231 100.552L50.981 96.5615C49.795 95.4189 49.5466 93.6124 50.38 92.1921L65.497 66.4299C66.6636 64.4417 69.3825 64.0678 71.0426 65.6672Z" fill="#D1D1D1"/>
<path d="M70.7583 117.09C91.2973 117.09 107.947 115.162 107.947 112.783C107.947 110.404 91.2973 108.476 70.7583 108.476C50.2193 108.476 33.5692 110.404 33.5692 112.783C33.5692 115.162 50.2193 117.09 70.7583 117.09Z" fill="#D1D1D1"/>
<path d="M65.5118 30.3903L60.9324 26.8663C60.3649 26.3474 59.5317 26.2434 58.8541 26.6069L31.7971 41.1205C30.879 41.6129 30.1991 42.4558 29.9121 43.4573L23.1296 67.1214C22.9546 67.732 23.1716 68.3875 23.6764 68.773L28.3675 72.3562C28.8312 72.7104 29.455 72.7727 29.9796 72.5174L60.028 57.892C61.3571 57.2451 62.2974 56.0024 62.5587 54.5475L66.3632 32.6411C66.5505 31.5985 66.2935 31.1051 65.5118 30.3903Z" fill="#BBBBBB"/>
<path d="M60.2742 55.4192L57.0239 53.1187C56.0412 52.4232 55.5526 51.2197 55.7724 50.036L59.9484 27.5478C60.0536 26.981 60.7207 26.7256 61.1776 27.0772L65.5131 30.4136C66.192 30.936 66.5269 31.7907 66.3835 32.6353L62.6872 54.4177C62.4971 55.5382 61.2019 56.0758 60.2742 55.4192Z" fill="#D1D1D1"/>
<path d="M35.3055 63.1078L40.6452 67.491C40.8834 67.6866 41.2152 67.7216 41.489 67.5801L49.1479 63.6219C49.6398 63.3677 49.7118 62.6935 49.2846 62.3412L44.2942 58.2259C43.1846 57.3109 42.6761 55.8546 42.975 54.4477L47.665 32.3725L38.7727 36.4869L33.9776 59.3334C33.6823 60.7407 34.1941 62.1955 35.3055 63.1078Z" fill="#C44100"/>
<path d="M59.7899 33.4672L65.4743 37.2563C65.983 37.5954 66.2436 38.2028 66.1387 38.8051L64.8511 46.2006C64.7565 46.7438 64.1392 47.0154 63.6748 46.7181L58.3596 43.3146C57.437 42.7239 56.2704 42.6664 55.2942 43.1637L25.8727 58.1527C25.5722 58.3058 25.2338 58.0268 25.3267 57.7026L28.0167 48.3163C28.0754 48.1116 28.216 47.9403 28.4052 47.8428L56.665 33.2913C57.6613 32.7783 58.8574 32.8456 59.7899 33.4672Z" fill="#C44100"/>
<path d="M41.8268 47.1704L39.8167 44.3187C35.0412 44.2709 27.2964 44.8187 25.5387 45.8325C22.7768 47.4251 27.4064 56.6064 29.7721 58.1355C32.1376 59.6636 41.8268 47.1704 41.8268 47.1704Z" fill="#FF5A00"/>
<path d="M41.558 47.5198L38.2867 46.3071C37.0173 41.7032 35.5631 34.0764 36.0929 32.1176C36.925 29.04 46.9858 31.1635 49.0698 33.0586C51.1528 34.9538 41.558 47.5198 41.558 47.5198Z" fill="#FF5A00"/>
<path d="M42.8664 42.9263C48.35 40.1899 54.7177 41.9484 54.7177 41.9484L51.0041 45.0287L52.7203 49.5694C52.7203 49.5694 43.68 47.3808 41.078 47.9235L42.8664 42.9263Z" fill="#FF5A00"/>
<path d="M37.1873 49.7947C35.9467 55.7962 39.2774 61.5011 39.2774 61.5011L41.3039 57.1224L46.1327 57.6184C46.1327 57.6184 41.7016 49.4402 41.5597 46.786L37.1873 49.7947Z" fill="#FF5A00"/>
</g>
<defs>
<clipPath id="clip0_15577_5309">
<rect width="141" height="140" fill="white"/>
</clipPath>
</defs>
</svg>
