<svg width="196" height="148" viewBox="0 0 196 148" fill="none" xmlns="http://www.w3.org/2000/svg">
<path fill-rule="evenodd" clip-rule="evenodd" d="M103.716 58.2062C103.716 93.3388 70.6103 115.812 61.7154 122.65C54.3898 128.014 49.9944 128.989 48.0409 127.038C39.1519 120.205 2 93.3388 2 58.2062C2 28.6079 23.2073 4.60693 52.8577 4.60693C82.5081 4.60693 103.716 28.6079 103.716 58.2062Z" fill="#FFDECC"/>
<path fill-rule="evenodd" clip-rule="evenodd" d="M108.766 56.1283C108.766 92.2637 67.6701 126.101 58.5865 133.134C57.5487 133.937 56.1032 133.937 55.0659 133.134C45.9881 126.107 4.88562 92.2637 4.88562 56.1283C4.88562 25.6859 26.5453 1 56.8264 1C87.107 1 108.766 25.6859 108.766 56.1283Z" stroke="black" stroke-linecap="round" stroke-linejoin="round"/>
<path fill-rule="evenodd" clip-rule="evenodd" d="M155.297 70.2224C137.074 74.3371 119.536 80.8488 102.669 88.822C97.4605 91.2853 93.023 97.8811 91.545 103.227C89.9489 108.996 90.6696 116.678 93.9853 121.799C97.3176 126.945 102.28 131.476 108.452 132.875C110.597 133.163 112.742 133.45 114.888 133.736C119.257 133.723 123.329 132.626 127.106 130.446C130.112 129.024 133.145 127.665 136.207 126.366L130.424 128.796C142.632 123.675 155.247 119.623 168.168 116.706C173.937 115.403 179.699 110.624 182.634 105.629C185.671 100.463 186.958 92.8487 185.075 87.0565C180.885 74.1626 168.543 67.2326 155.297 70.2224Z" fill="#CCCFFF"/>
<path fill-rule="evenodd" clip-rule="evenodd" d="M111.146 121.867C120.341 116.064 129.967 111.009 139.973 106.752L134.204 109.187C143.601 105.239 153.268 102.017 163.161 99.5638C168.961 98.1252 174.604 93.5732 177.593 88.4649C180.622 83.2879 181.905 75.6581 180.028 69.8541C175.913 57.1394 163.465 49.7258 150.322 52.9862C127.975 58.5278 106.237 67.8712 86.7697 80.159C81.5224 83.4714 77.3405 88.534 75.6719 94.5927C74.0806 100.374 74.7991 108.072 78.1062 113.203C81.4308 118.36 86.3808 122.899 92.538 124.302C98.756 125.718 105.605 125.365 111.146 121.867Z" fill="#CCCFFF"/>
<path d="M82.796 78.1891V130.116C82.796 132.912 85.0568 135.179 87.8463 135.179H110.57C111.964 135.179 113.095 134.046 113.095 132.648V112.396C113.095 105.406 118.747 99.7392 125.719 99.7392C132.691 99.7392 138.343 105.406 138.343 112.396V132.648C138.343 134.046 139.474 135.179 140.868 135.179H163.592C166.381 135.179 168.642 132.912 168.642 130.116V78.2738" stroke="black" stroke-linecap="round" stroke-linejoin="round"/>
<path d="M72.6965 89.01L124.336 37.0642C125.285 36.1096 126.823 36.1096 127.772 37.0642L178.741 88.3345" stroke="black" stroke-linecap="round" stroke-linejoin="round"/>
<path d="M17.8706 135.54H185.955" stroke="black" stroke-linecap="round" stroke-linejoin="round"/>
<path d="M193.891 145.639H155.657" stroke="black" stroke-linecap="round" stroke-linejoin="round"/>
<path fill-rule="evenodd" clip-rule="evenodd" d="M75.582 51.4975C75.582 61.8563 67.1846 70.2537 56.8258 70.2537C46.467 70.2537 38.0696 61.8563 38.0696 51.4975C38.0696 41.1387 46.467 32.7412 56.8258 32.7412C67.1846 32.7412 75.582 41.1387 75.582 51.4975Z" stroke="black" stroke-linecap="round" stroke-linejoin="round"/>
<path d="M159.264 42.8408L165.547 36.1973L159.962 30.2919L166.478 23.4023L160.195 16.7588L165.547 11.0995" stroke="black" stroke-linecap="round" stroke-linejoin="round"/>
<path d="M113.816 12.5423L122.473 9.65673" stroke="black" stroke-linecap="round" stroke-linejoin="round"/>
<path d="M115.98 6.77115L118.144 15.4279" stroke="black" stroke-linecap="round" stroke-linejoin="round"/>
<path fill-rule="evenodd" clip-rule="evenodd" d="M121.751 119.669C121.751 120.665 120.944 121.473 119.948 121.473C118.952 121.473 118.144 120.665 118.144 119.669C118.144 118.673 118.952 117.866 119.948 117.866C120.944 117.866 121.751 118.673 121.751 119.669Z" stroke="black" stroke-linecap="round" stroke-linejoin="round"/>
<path d="M155.296 78.1891V99.8309" stroke="black" stroke-linecap="round" stroke-linejoin="round"/>
</svg>
