<svg width="159" height="148" viewBox="0 0 159 148" fill="none" xmlns="http://www.w3.org/2000/svg">
<g clip-path="url(#clip0_5591:30930)">
<path d="M0 123.469H16.221" stroke="black" stroke-linecap="round" stroke-linejoin="round"/>
<path d="M125.872 134.499H158.636" stroke="black" stroke-linecap="round" stroke-linejoin="round"/>
<path d="M125.837 0L128.605 11.0725" stroke="black" stroke-linecap="round" stroke-linejoin="round"/>
<path d="M122.146 7.38187L134.142 3.69087" stroke="black" stroke-linecap="round" stroke-linejoin="round"/>
<mask id="mask0_5591:30930" style="mask-type:alpha" maskUnits="userSpaceOnUse" x="7" y="19" width="149" height="129">
<path fill-rule="evenodd" clip-rule="evenodd" d="M7.35925 19.3931H155.359V148H7.35925V19.3931Z" fill="white"/>
</mask>
<g mask="url(#mask0_5591:30930)">
<path fill-rule="evenodd" clip-rule="evenodd" d="M153.986 71.4156C152.546 66.9694 150.214 62.9641 147.054 59.5224C142.942 55.043 134.181 50.9873 127.995 51.6278C117.905 52.6728 107.797 53.5444 97.678 54.2415C97.7413 54.0062 97.8115 53.774 97.8681 53.5351C99.6445 47.0828 98.8425 38.4922 95.151 32.7661C91.4408 27.0114 85.9157 21.945 79.0432 20.38C72.4731 18.8835 63.899 18.8129 58.2742 23.0971C48.3985 30.6188 38.6422 38.287 29.2101 46.3619C25.3965 49.6275 21.3652 52.8323 17.8389 56.4106C13.6903 60.621 10.1172 66.0718 8.66957 71.868C6.15506 81.9386 8.87111 92.7415 16.0256 100.288C18.4908 102.887 21.2162 104.827 24.1244 106.271C22.4685 108.795 21.2011 111.517 20.502 114.058C18.725 120.51 19.5275 129.101 23.2185 134.826C26.9293 140.582 32.4538 145.648 39.3268 147.213C46.6761 148.887 53.321 147.849 60.0953 144.496C87.5768 130.89 114.752 116.672 141.599 101.854C151.618 96.3239 157.568 82.4829 153.986 71.4156Z" fill="#FFDECC"/>
<path fill-rule="evenodd" clip-rule="evenodd" d="M107.707 28.9765C94.8166 28.9765 83.6444 36.2666 78.0461 46.9355C72.4477 36.2666 61.2755 28.9765 48.3851 28.9765C29.8906 28.9765 14.8965 43.9597 14.8965 62.4417C14.8965 80.9196 26.3601 97.8075 41.2082 111.678C56.5395 125.994 78.0461 138.801 78.0461 138.801C78.0461 138.801 99.3413 125.764 114.884 111.678C131.484 96.6289 141.196 80.9196 141.196 62.4417C141.196 43.9597 126.201 28.9765 107.707 28.9765Z" stroke="black" stroke-linecap="round" stroke-linejoin="round"/>
</g>
</g>
<defs>
<clipPath id="clip0_5591:30930">
<rect width="158.636" height="148" fill="white"/>
</clipPath>
</defs>
</svg>
