<svg width="175" height="148" viewBox="0 0 175 148" fill="none" xmlns="http://www.w3.org/2000/svg">
<g clip-path="url(#clip0_5591:30913)">
<path fill-rule="evenodd" clip-rule="evenodd" d="M36.5925 103.6H17.2263C10.4092 103.6 10.3976 114.364 17.2263 114.364H36.5925C43.4091 114.364 43.4203 103.6 36.5925 103.6Z" fill="#F4FFCC"/>
<path d="M27.9182 116.382V138.582" stroke="black" stroke-linecap="round" stroke-linejoin="round"/>
<path fill-rule="evenodd" clip-rule="evenodd" d="M43.0545 109.421V116.382H12.7817V103.6H37.2733C40.4661 103.6 43.0545 106.206 43.0545 109.421Z" stroke="black" stroke-linecap="round" stroke-linejoin="round"/>
<path fill-rule="evenodd" clip-rule="evenodd" d="M59.2001 15.4727C59.2001 22.9035 53.1759 28.9273 45.7456 28.9273C38.3147 28.9273 32.291 22.9035 32.291 15.4727C32.291 8.0419 38.3147 2.01818 45.7456 2.01818C53.1759 2.01818 59.2001 8.0419 59.2001 15.4727Z" fill="#FFEDB2"/>
<path fill-rule="evenodd" clip-rule="evenodd" d="M56.5092 13.4545C56.5092 20.8854 50.485 26.9091 43.0546 26.9091C35.6238 26.9091 29.6001 20.8854 29.6001 13.4545C29.6001 6.02372 35.6238 0 43.0546 0C50.485 0 56.5092 6.02372 56.5092 13.4545Z" stroke="black" stroke-linecap="round" stroke-linejoin="round"/>
<path d="M61.2181 26.2364L68.6181 32.2909" stroke="black" stroke-linecap="round" stroke-linejoin="round"/>
<path d="M53.8181 31.6182L58.5272 38.3454" stroke="black" stroke-linecap="round" stroke-linejoin="round"/>
<path d="M45.7454 34.9818L48.4363 45.0727" stroke="black" stroke-linecap="round" stroke-linejoin="round"/>
<path fill-rule="evenodd" clip-rule="evenodd" d="M141.69 67.4021C122.054 71.879 103.157 78.9642 84.9835 87.6394C79.3709 90.319 74.5901 97.4956 72.997 103.313C71.2772 109.59 72.0537 117.949 75.6264 123.52C79.2169 129.12 84.564 134.048 91.2145 135.572C93.5258 135.884 95.8371 136.196 98.1484 136.509C102.857 136.494 107.245 135.3 111.313 132.928C114.552 131.382 117.821 129.902 121.119 128.489C119.043 129.371 116.966 130.252 114.888 131.133C128.043 125.561 141.636 121.152 155.558 117.978C161.773 116.561 167.983 111.36 171.146 105.926C174.418 100.305 175.803 92.0201 173.775 85.7184C169.26 71.6892 155.961 64.1484 141.69 67.4021Z" fill="#CCCFFF"/>
<path fill-rule="evenodd" clip-rule="evenodd" d="M94.4749 123.584C104.381 117.323 114.752 111.872 125.531 107.28L119.317 109.907C129.44 105.648 139.855 102.173 150.512 99.5267C156.762 97.9744 162.84 93.0651 166.061 87.5546C169.324 81.971 170.707 73.7415 168.684 67.481C164.251 53.7661 150.84 45.7702 136.68 49.2864C112.605 55.2643 89.1856 65.3423 68.2132 78.5956C62.56 82.1685 58.0547 87.6297 56.2575 94.1647C54.5427 100.4 55.3167 108.704 58.8801 114.238C62.4614 119.8 67.7942 124.697 74.428 126.21C81.1264 127.737 88.506 127.356 94.4749 123.584Z" fill="#CCCFFF"/>
<path d="M64.1157 76.111V131.806C64.1157 134.805 66.5496 137.236 69.552 137.236H94.0146C95.5158 137.236 96.7327 136.021 96.7327 134.521V112.8C96.7327 105.303 102.817 99.2246 110.323 99.2246C117.829 99.2246 123.914 105.303 123.914 112.8V134.521C123.914 136.021 125.131 137.236 126.633 137.236H151.095C154.098 137.236 156.531 134.805 156.531 131.806V76.2018" stroke="black" stroke-width="1.08169" stroke-linecap="round" stroke-linejoin="round"/>
<path d="M52.4727 87.754L108.461 31.7659C109.489 30.7376 111.157 30.7376 112.186 31.7659L167.447 87.0265" stroke="black" stroke-width="1.08169" stroke-linecap="round" stroke-linejoin="round"/>
<path fill-rule="evenodd" clip-rule="evenodd" d="M105.594 120.864C105.594 121.868 104.78 122.683 103.774 122.683C102.77 122.683 101.955 121.868 101.955 120.864C101.955 119.858 102.77 119.044 103.774 119.044C104.78 119.044 105.594 119.858 105.594 120.864Z" stroke="black" stroke-width="1.08169" stroke-linecap="round" stroke-linejoin="round"/>
<path d="M142.342 76.111V99.3969" stroke="black" stroke-width="1.08169" stroke-linecap="round" stroke-linejoin="round"/>
<path d="M0 137.573H167.509" stroke="black" stroke-linecap="round" stroke-linejoin="round"/>
<path d="M174.909 147.664H137.236" stroke="black" stroke-linecap="round" stroke-linejoin="round"/>
</g>
<defs>
<clipPath id="clip0_5591:30913">
<rect width="174.909" height="148" fill="white"/>
</clipPath>
</defs>
</svg>
