<svg width="56" height="56" viewBox="0 0 56 56" fill="none" xmlns="http://www.w3.org/2000/svg">
<g clip-path="url(#clip0_15577_5305)">
<mask id="mask0_15577_5305" style="mask-type:luminance" maskUnits="userSpaceOnUse" x="0" y="0" width="56" height="56">
<path d="M48 0H8C3.58172 0 0 3.58172 0 8V48C0 52.4183 3.58172 56 8 56H48C52.4183 56 56 52.4183 56 48V8C56 3.58172 52.4183 0 48 0Z" fill="white"/>
</mask>
<g mask="url(#mask0_15577_5305)">
<path d="M-94 30.306L35.306 -99L160.813 26.507L31.5065 155.813L-94 30.306Z" fill="#F3F4F4"/>
<path d="M41.9756 42.5211L55.2985 29.1982L74.1934 48.0931L60.8701 61.416L41.9756 42.5211Z" fill="#83CDAC"/>
<path d="M42.1723 15.612L64.5261 -6.74182L78.1123 6.84437L55.7585 29.1982L42.1723 15.612Z" fill="#F3F4F4"/>
<path d="M-22.2386 50.5998L-4.05246 32.4136L10.2927 46.7588L-7.89345 64.945L-22.2386 50.5998Z" fill="#8AD0FF"/>
<path d="M-0.301392 28.7991L0.258464 28.2392L79.6736 107.654L79.1137 108.214L-0.301392 28.7991Z" fill="#ECECEC"/>
<path d="M37.3008 20.6974L37.8607 20.1376L51.1127 33.3896L50.5529 33.9494L37.3008 20.6974Z" fill="#ECECEC"/>
<path d="M19.7457 -83.4558L20.3056 -84.0157L145.822 41.5008L145.262 42.0606L19.7457 -83.4558Z" fill="#ECECEC"/>
<path d="M-13.0972 111.233L49.057 49.0782L49.6168 49.638L-12.5374 111.793L-13.0972 111.233Z" fill="#ECECEC"/>
<path d="M39.9852 114.31L144.299 9.99567L144.859 10.5555L40.5451 114.87L39.9852 114.31Z" fill="#ECECEC"/>
<path d="M8.78265 133.113L138.1 3.79529L138.66 4.35514L9.34291 133.673L8.78265 133.113Z" fill="#ECECEC"/>
<path d="M53.6677 4.76457L54.2276 4.20471L67.4044 17.3815L66.8445 17.9413L53.6677 4.76457Z" fill="#ECECEC"/>
<path d="M-36.636 -27.0763L-36.0762 -27.6362L1.83361 10.2736L1.27375 10.8335L-36.636 -27.0763Z" fill="#ECECEC"/>
<path d="M-56.8016 67.5332L72.5305 -61.7989L73.9301 -60.3992L-55.402 68.9328L-56.8016 67.5332Z" fill="white"/>
<path d="M-20.4724 103.858L108.857 -25.4713L110.256 -24.0716L-19.0728 105.257L-20.4724 103.858Z" fill="white"/>
<path d="M-25.725 98.6044L49.5011 23.3779L50.061 23.9378L-25.1651 99.1643L-25.725 98.6044Z" fill="#ECECEC"/>
<path d="M-64.0568 60.2824L65.2776 -69.0521L65.8375 -68.4922L-63.497 60.8423L-64.0568 60.2824Z" fill="#ECECEC"/>
<path d="M6.32971 41.1175L23.6749 23.7723L24.2348 24.3321L6.88957 41.6774L6.32971 41.1175Z" fill="#ECECEC"/>
<path d="M-10.0957 114.224L119.225 -15.0965L120.625 -13.6969L-8.69607 115.624L-10.0957 114.224Z" fill="white"/>
<path d="M52.6479 51.3441L63.9203 40.0722L65.4633 41.6152L54.1909 52.8871L52.6479 51.3441Z" fill="#93D8B7"/>
<path d="M21.3504 22.847L22.75 21.4473L94.3153 93.0126L92.9157 94.4122L21.3504 22.847Z" fill="white"/>
<path d="M-19.917 -43.8003L-17.6772 -46.0402L107.842 79.4787L105.602 81.7185L-19.917 -43.8003Z" fill="white"/>
<path d="M12.1401 27.8013C8.26273 27.8013 5.05524 26.2191 3.27193 24.7173L3.17216 24.6259L-42.5863 -21.133L-40.3465 -23.3724L5.35535 22.3294C6.05259 22.8842 13.5132 28.451 22.0275 19.9384L88.149 -46.1835L90.3888 -43.9441L24.2673 22.1778C20.0525 26.3926 15.7982 27.8013 12.1401 27.8013Z" fill="white"/>
<path d="M-49.5342 74.8006L79.7796 -54.5501L82.0199 -52.3107L-47.294 77.0401L-49.5342 74.8006Z" fill="#FEE379"/>
<path d="M-79.5819 44.7545L49.732 -84.5962L51.9722 -82.3567L-77.3417 46.994L-79.5819 44.7545Z" fill="#FEE379"/>
<path d="M-1.62378 122.709L127.69 -6.64209L129.93 -4.40267L0.616038 124.948L-1.62378 122.709Z" fill="#FEE379"/>
<path d="M-33.9755 90.3606L95.357 -38.9719L96.7567 -37.5723L-32.5758 91.7598L-33.9755 90.3606Z" fill="white"/>
<path d="M-51.4336 -12.2849L-49.1938 -14.5247L76.3251 110.994L74.0852 113.234L-51.4336 -12.2849Z" fill="#FEE379"/>
<path d="M-70.2992 6.58027L-68.0594 4.34045L57.4595 129.859L55.2196 132.099L-70.2992 6.58027Z" fill="#FEE379"/>
<path d="M4.11489 28.5449C6.96919 28.5449 9.28305 26.231 9.28305 23.3767C9.28305 20.5224 6.96919 18.2086 4.11489 18.2086C1.26058 18.2086 -1.05328 20.5224 -1.05328 23.3767C-1.05328 26.231 1.26058 28.5449 4.11489 28.5449Z" fill="#FEE379"/>
<path d="M4.1149 25.1478C5.09301 25.1478 5.88593 24.3549 5.88593 23.3767C5.88593 22.3986 5.09301 21.6057 4.1149 21.6057C3.13679 21.6057 2.34387 22.3986 2.34387 23.3767C2.34387 24.3549 3.13679 25.1478 4.1149 25.1478Z" fill="white"/>
<path d="M0.786633 22.2404L-42.5863 -21.133L-40.3465 -23.3724L2.96983 19.944L0.786633 22.2404Z" fill="#FEE379"/>
<path d="M14.0735 -77.7896L16.3133 -80.0294L141.832 45.4894L139.592 47.7293L14.0735 -77.7896Z" fill="#FEE379"/>
<path fill-rule="evenodd" clip-rule="evenodd" d="M22.1498 20.0857L22.195 20.037C25.4011 16.6543 30.5987 16.6543 33.8037 20.0371L34.0423 20.2958C37.0499 23.691 36.9845 29.0177 33.8462 32.3301L27.9993 38.5L22.1534 32.33C18.9495 28.9472 18.9495 23.4635 22.1498 20.0857ZM25.7501 26.0001C25.7501 24.7574 26.7572 23.7501 27.9997 23.7501C29.2422 23.7501 30.25 24.7575 30.25 26.0001C30.25 27.2427 29.2422 28.2501 27.9997 28.2501C26.7572 28.2501 25.7501 27.2428 25.7501 26.0001Z" fill="#FF5A00"/>
<path d="M48 0.5H8C3.85786 0.5 0.5 3.85786 0.5 8V48C0.5 52.1421 3.85786 55.5 8 55.5H48C52.1421 55.5 55.5 52.1421 55.5 48V8C55.5 3.85786 52.1421 0.5 48 0.5Z" stroke="#F5F5F5"/>
</g>
</g>
<defs>
<clipPath id="clip0_15577_5305">
<rect width="56" height="56" fill="white"/>
</clipPath>
</defs>
</svg>
