<svg width="164" height="148" viewBox="0 0 164 148" fill="none" xmlns="http://www.w3.org/2000/svg">
<path d="M42.9902 138.669H71.773" stroke="black" stroke-linecap="round" stroke-linejoin="round"/>
<path d="M27.2412 145.728H39.7318" stroke="black" stroke-linecap="round" stroke-linejoin="round"/>
<path d="M138.571 138.669H117.391" stroke="black" stroke-linecap="round" stroke-linejoin="round"/>
<path fill-rule="evenodd" clip-rule="evenodd" d="M137.347 22.8719H42.7617C9.46819 22.8719 9.41334 74.6135 42.7617 74.6135H137.347C170.641 74.6135 170.695 22.8719 137.347 22.8719Z" fill="#FFEDB2"/>
<path d="M86.9811 72.7304V141.927" stroke="black" stroke-linecap="round" stroke-linejoin="round"/>
<path d="M40.2749 11.0468L128.15 11.1C146.297 11.1 161.007 25.8102 161.007 43.9563V72.7304L40.2749 72.9569" stroke="black" stroke-linecap="round" stroke-linejoin="round"/>
<path d="M110.874 52.3203H144.001" stroke="black" stroke-linecap="round" stroke-linejoin="round"/>
<path d="M133.431 1.21106C133.431 1.21106 146.944 -0.500704 154.573 11.6505" stroke="black" stroke-linecap="round" stroke-linejoin="round"/>
<path d="M122.279 1.27154H113.589" stroke="black" stroke-linecap="round" stroke-linejoin="round"/>
<path fill-rule="evenodd" clip-rule="evenodd" d="M69.0577 72.9569H11.4922V27.2249C11.4922 18.2903 18.7357 11.0468 27.6703 11.0468H52.8796C61.8142 11.0468 69.0577 18.2903 69.0577 27.2249V72.9569Z" stroke="black" stroke-linecap="round" stroke-linejoin="round"/>
<path fill-rule="evenodd" clip-rule="evenodd" d="M11.4921 72.8265H69.0577L57.2345 90.0674C51.8168 98.0472 42.798 102.826 33.1525 102.826H15.0481C4.59457 102.826 -1.60025 91.1329 4.2709 82.4839L11.4921 72.8265Z" stroke="black" stroke-linecap="round" stroke-linejoin="round"/>
</svg>
