<svg width="186" height="148" viewBox="0 0 186 148" fill="none" xmlns="http://www.w3.org/2000/svg">
<path fill-rule="evenodd" clip-rule="evenodd" d="M168.104 102.517V81.9569C168.104 74.7194 156.432 74.7075 156.432 81.9569V102.517C156.432 109.754 168.104 109.766 168.104 102.517Z" fill="#F4FFCC"/>
<path fill-rule="evenodd" clip-rule="evenodd" d="M28.0031 125.213C28.0031 125.213 20.2374 62.0519 37.322 61.0079C54.4065 59.9639 118.603 45.348 119.639 58.9199C120.674 72.4918 132.581 129.911 123.263 130.433C113.944 130.955 29.5563 142.961 28.0031 125.213Z" fill="#CCCFFF"/>
<path d="M4.69348 133.538H183.368" stroke="black" stroke-linecap="round" stroke-linejoin="round"/>
<path fill-rule="evenodd" clip-rule="evenodd" d="M120.576 133.988H29.7751C26.3506 133.988 23.5487 131.164 23.5487 127.714V57.6579C23.5487 54.2074 26.3506 51.3842 29.7751 51.3842H120.576C124.001 51.3842 126.803 54.2074 126.803 57.6579V127.714C126.803 131.164 124.001 133.988 120.576 133.988Z" stroke="black" stroke-linecap="round" stroke-linejoin="round"/>
<path fill-rule="evenodd" clip-rule="evenodd" d="M29.2509 80.4359C45.658 76.6934 62.2186 73.6847 78.8915 71.4135C77.1156 71.6529 75.3391 71.8923 73.5627 72.1318C92.9089 69.5323 112.372 67.9332 131.883 67.3448C137.119 67.1869 142.314 65.2122 146.058 61.4588C149.535 57.9728 152.153 52.254 151.93 47.2479C151.455 36.6299 143.111 26.8123 131.883 27.1504C93.8077 28.2988 55.7345 33.2052 18.5927 41.6776C8.35669 44.0122 1.36123 56.3939 4.59086 66.3995C8.05932 77.1442 18.2844 82.9372 29.2509 80.4359Z" fill="#FFDECC"/>
<path fill-rule="evenodd" clip-rule="evenodd" d="M110.236 133.988H92.1914C91.9687 133.988 91.7863 133.802 91.7863 133.574V104.771C91.7863 104.544 91.9687 104.358 92.1914 104.358H110.236C110.459 104.358 110.641 104.544 110.641 104.771V133.574C110.641 133.802 110.459 133.988 110.236 133.988Z" stroke="black" stroke-linecap="round" stroke-linejoin="round"/>
<path d="M106.152 42.4057L108.845 63.0565" stroke="black" stroke-linecap="round" stroke-linejoin="round"/>
<path d="M88.6436 42.4057V63.0565" stroke="black" stroke-linecap="round" stroke-linejoin="round"/>
<path d="M64.8503 43.3034L62.1567 62.1585" stroke="black" stroke-linecap="round" stroke-linejoin="round"/>
<path d="M44.1993 44.2013L37.9143 62.1586" stroke="black" stroke-linecap="round" stroke-linejoin="round"/>
<path fill-rule="evenodd" clip-rule="evenodd" d="M44.1993 19.0611C44.1993 21.0447 42.5914 22.6526 40.6078 22.6526C38.6242 22.6526 37.0164 21.0447 37.0164 19.0611C37.0164 17.0775 38.6242 15.4697 40.6078 15.4697C42.5914 15.4697 44.1993 17.0775 44.1993 19.0611Z" fill="#CCCFFF"/>
<path fill-rule="evenodd" clip-rule="evenodd" d="M38.7232 2.87364C38.7232 3.90842 37.8844 4.74727 36.8496 4.74727C35.8148 4.74727 34.976 3.90842 34.976 2.87364C34.976 1.83885 35.8148 1 36.8496 1C37.8844 1 38.7232 1.83885 38.7232 2.87364Z" fill="#CCCFFF"/>
<path fill-rule="evenodd" clip-rule="evenodd" d="M49.5867 9.23662C49.5867 11.7158 47.5765 13.7259 45.0973 13.7259C42.6182 13.7259 40.608 11.7158 40.608 9.23662C40.608 6.75747 42.6182 4.74731 45.0973 4.74731C47.5765 4.74731 49.5867 6.75747 49.5867 9.23662Z" fill="#CCCFFF"/>
<path d="M160.473 109.745V133.09" stroke="black" stroke-linecap="round" stroke-linejoin="round"/>
<path fill-rule="evenodd" clip-rule="evenodd" d="M160.99 109.745H159.954C156.536 109.745 153.739 106.93 153.739 103.489V83.6783C153.739 80.2374 156.536 77.4222 159.954 77.4222H160.99C164.409 77.4222 167.206 80.2374 167.206 83.6783V103.489C167.206 106.93 164.409 109.745 160.99 109.745Z" stroke="black" stroke-linecap="round" stroke-linejoin="round"/>
<path d="M98.0713 119.173H84.6034" stroke="black" stroke-linecap="round" stroke-linejoin="round"/>
<path d="M179.776 145.211H139.373" stroke="black" stroke-linecap="round" stroke-linejoin="round"/>
<path d="M85.5013 145.551H64.8505" stroke="black" stroke-linecap="round" stroke-linejoin="round"/>
<path d="M22.6508 145.551H2" stroke="black" stroke-linecap="round" stroke-linejoin="round"/>
<path fill-rule="evenodd" clip-rule="evenodd" d="M163.615 101.216C163.615 102.951 162.208 104.358 160.473 104.358C158.737 104.358 157.33 102.951 157.33 101.216C157.33 99.4804 158.737 98.073 160.473 98.073C162.208 98.073 163.615 99.4804 163.615 101.216Z" fill="black"/>
<path fill-rule="evenodd" clip-rule="evenodd" d="M133.98 70.6475L122.591 32.6198C121.936 30.4336 119.934 28.9376 117.663 28.9376H32.7726C30.4643 28.9376 28.438 30.483 27.8166 32.7181L17.2408 70.7459C17.1379 71.1152 16.3658 74.4155 16.3658 75.8064C16.3658 82.1528 21.4843 87.2986 27.798 87.2986C31.8008 87.2986 35.3214 85.2279 37.3632 82.0971C39.4055 85.2279 42.9256 87.2986 46.9285 87.2986C50.9318 87.2986 54.4519 85.2279 56.4942 82.0971C58.536 85.2279 62.0566 87.2986 66.0595 87.2986C70.0623 87.2986 73.5824 85.2279 75.6247 82.0971C77.667 85.2279 81.1871 87.2986 85.1905 87.2986C89.1933 87.2986 92.7134 84.1876 94.7557 81.0568C96.798 84.1876 100.318 87.2986 104.321 87.2986C108.324 87.2986 111.844 84.7078 113.887 81.577C115.929 84.7078 119.449 87.2986 123.452 87.2986C129.765 87.2986 134.884 82.1528 134.884 75.8064C134.884 74.4212 134.102 71.0543 133.98 70.6475Z" stroke="black" stroke-linecap="round" stroke-linejoin="round"/>
</svg>
