<svg width="147" height="148" viewBox="0 0 147 148" fill="none" xmlns="http://www.w3.org/2000/svg">
<path fill-rule="evenodd" clip-rule="evenodd" d="M45.9989 144.825C51.2841 143.347 56.5951 141.977 61.9591 140.821C65.1755 140.124 68.409 139.499 71.6527 138.934C72.3686 138.808 80.5637 137.6 77.1212 138.039C73.9802 138.443 82.8689 137.474 82.6377 137.495C85.3677 137.243 88.1045 137.043 90.8413 136.885C96.8699 136.533 102.893 136.439 108.932 136.494C125.824 136.645 141.995 121.444 141.219 104.01C140.43 86.2788 127.033 71.6892 108.932 71.5272C81.9783 71.2825 54.8019 74.9131 28.8329 82.1812C12.5678 86.732 0.902943 105.414 6.28239 122.139C11.6584 138.851 28.564 149.705 45.9989 144.825Z" fill="#FFDECC"/>
<path d="M25.5641 84.194V133.587C25.5641 136.064 27.6933 138.076 30.3187 138.076H115.898C118.521 138.076 120.651 136.064 120.651 133.587V84.194" stroke="#262626" stroke-linecap="round" stroke-linejoin="round"/>
<path fill-rule="evenodd" clip-rule="evenodd" d="M129.367 82.609H16.0554V72.0816C16.0554 64.3299 22.2051 58.045 29.7901 58.045H115.632C123.219 58.045 129.367 64.3299 129.367 72.0816V82.609Z" stroke="#262626" stroke-linecap="round" stroke-linejoin="round"/>
<path d="M73.1071 135.699V58.045" stroke="#262626" stroke-linecap="round" stroke-linejoin="round"/>
<path d="M36.6576 127.775V107.173" stroke="#262626" stroke-linecap="round" stroke-linejoin="round"/>
<path fill-rule="evenodd" clip-rule="evenodd" d="M84.4553 58H72.9553V46.5017C72.9553 40.1761 78.1297 35 84.4553 35C90.7809 35 95.9553 40.1761 95.9553 46.5017C95.9553 52.8256 90.7809 58 84.4553 58Z" stroke="#262626" stroke-linecap="round" stroke-linejoin="round"/>
<path fill-rule="evenodd" clip-rule="evenodd" d="M61.4553 58H72.9553V46.5017C72.9553 40.1761 67.7809 35 61.4553 35C55.1297 35 49.9553 40.1761 49.9553 46.5017C49.9553 52.8256 55.1297 58 61.4553 58Z" stroke="#262626" stroke-linecap="round" stroke-linejoin="round"/>
<path fill-rule="evenodd" clip-rule="evenodd" d="M72.8604 3.90085L75.6306 9.05913L81.3688 10.1121L77.342 14.3516L78.1178 20.1584L72.8604 17.622L67.6012 20.1584L68.3771 14.3516L64.3502 10.1121L70.0885 9.05913L72.8604 3.90085Z" fill="#FFDECC"/>
<path d="M1 36.6507L17.6401 31.104" stroke="black" stroke-linecap="round" stroke-linejoin="round"/>
<mask id="mask0_5580:31091" style="mask-type:alpha" maskUnits="userSpaceOnUse" x="128" y="34" width="17" height="16">
<path fill-rule="evenodd" clip-rule="evenodd" d="M128.955 34H144.721V49.0747H128.955V34Z" fill="white"/>
</mask>
<g mask="url(#mask0_5580:31091)">
<path fill-rule="evenodd" clip-rule="evenodd" d="M136.839 34L139.405 38.7825L144.721 39.758L140.991 43.6883L141.71 49.0747L136.839 46.7222L131.966 49.0747L132.686 43.6883L128.955 39.758L134.271 38.7825L136.839 34Z" fill="#FFDECC"/>
</g>
<path d="M6.54669 26.3496L9.71624 42.1974" stroke="black" stroke-linecap="round" stroke-linejoin="round"/>
<path d="M118.273 26.3564L123.795 21.0498L118.887 16.3297L124.612 10.8271L119.091 5.52049L123.795 1" stroke="black" stroke-linecap="round" stroke-linejoin="round"/>
</svg>
