<svg width="127" height="148" viewBox="0 0 127 148" fill="none" xmlns="http://www.w3.org/2000/svg">
<path fill-rule="evenodd" clip-rule="evenodd" d="M62.1763 1L59.6239 5.73018L54.3364 6.69616L58.0467 10.5858L57.3315 15.9132L62.1763 13.5859L67.022 15.9132L66.3068 10.5858L70.017 6.69616L64.7287 5.73018L62.1772 1H62.1763Z" fill="#FFDECC"/>
<path fill-rule="evenodd" clip-rule="evenodd" d="M111.406 40.6906L106.552 41.576L109.958 45.1467L109.301 50.0371L113.75 47.9009L118.197 50.0371L117.54 45.1467L120.946 41.576L116.092 40.6906L113.75 36.3483L111.406 40.6906Z" fill="#FFDECC"/>
<path d="M9.6665 37.4003L25.0232 32.6751" stroke="black" stroke-linecap="round" stroke-linejoin="round"/>
<path d="M14.3918 27.9499L17.936 42.1247" stroke="black" stroke-linecap="round" stroke-linejoin="round"/>
<mask id="mask0_5580:31108" style="mask-type:alpha" maskUnits="userSpaceOnUse" x="1" y="43" width="124" height="103">
<path fill-rule="evenodd" clip-rule="evenodd" d="M1 43H125V146H1V43Z" fill="white"/>
</mask>
<g mask="url(#mask0_5580:31108)">
<path fill-rule="evenodd" clip-rule="evenodd" d="M104.38 88.141C101.535 81.4386 92.8846 76.9293 84.6089 80.2729C83.4379 76.8749 81.0183 74.0071 77.8428 72.3871C87.664 60.6298 69.2449 43.5214 56.4293 54.5558C38.4354 70.0481 21.2947 86.4267 5.00211 103.698C-4.34327 113.604 4.13802 127.423 15.4656 127.159C15.1164 137.146 26.6458 147.799 36.3626 140.502C37.3932 139.729 38.4438 138.989 39.4829 138.229C42.9131 144.615 50.802 148.653 58.4982 143.965C77.6057 132.329 97.2986 121.828 117.609 112.448C133.556 105.083 120.18 81.8123 104.38 88.141Z" fill="#FFEDB2"/>
</g>
<path fill-rule="evenodd" clip-rule="evenodd" d="M66.0152 34.5507L81.1759 65.2699C81.739 66.4103 82.8271 67.201 84.0854 67.3838L117.987 72.31C121.155 72.7701 122.421 76.6647 120.128 78.9007L95.5965 102.812C94.6862 103.699 94.2709 104.979 94.4852 106.232L100.277 139.996C100.818 143.152 97.5052 145.559 94.6704 144.068L64.3482 128.128C63.2228 127.536 61.878 127.536 60.7526 128.128L30.4304 144.068C27.5956 145.559 24.2824 143.152 24.824 139.996L30.6148 106.232C30.8299 104.979 30.4146 103.699 29.5043 102.812L4.97297 78.9007C2.67973 76.6647 3.94554 72.7701 7.11422 72.31L41.0154 67.3838C42.2737 67.201 43.3618 66.4103 43.9249 65.2699L59.0856 34.5507C60.5026 31.6786 64.5982 31.6786 66.0152 34.5507Z" stroke="black" stroke-linecap="round" stroke-linejoin="round"/>
</svg>
