<svg width="68" height="68" viewBox="0 0 68 68" fill="none" xmlns="http://www.w3.org/2000/svg">
<mask id="mask0_15580_688" style="mask-type:luminance" maskUnits="userSpaceOnUse" x="0" y="0" width="68" height="68">
<path d="M68 0.504639H0V67.0827H68V0.504639Z" fill="white"/>
</mask>
<g mask="url(#mask0_15580_688)">
<path d="M49.1357 5.4949L62.9736 19.0433C63.9303 19.98 64.2016 21.424 63.5817 22.6096C62.5691 24.5479 62.591 26.8761 63.6422 28.784C64.2824 29.9486 64.0254 31.3955 63.0665 32.3343L35.588 59.2383C34.6186 60.1873 33.1258 60.4478 31.9243 59.8181C29.9384 58.7757 27.505 58.7793 25.5117 59.8279C24.3052 60.4627 22.8108 60.2074 21.8467 59.2634L8.02231 45.7282C7.04626 44.7725 6.86029 43.3121 7.50568 42.1104C8.54824 40.1632 8.53691 37.8012 7.47529 35.8715C6.82761 34.6937 7.09361 33.2292 8.06303 32.28L35.5311 5.38642C36.493 4.44462 37.9752 4.19447 39.1647 4.82719C41.1163 5.86226 43.4972 5.88956 45.4814 4.89665C46.6953 4.2897 48.1746 4.55679 49.1342 5.49636L49.1357 5.4949Z" fill="#9B0041"/>
<path d="M46.2005 8.36959L60.0384 21.9181C60.995 22.8547 61.2663 24.2987 60.6464 25.4843C59.6338 27.4226 59.6557 29.7509 60.7069 31.6586C61.3472 32.8233 61.0902 34.2702 60.1313 35.209L32.6527 62.1129C31.6833 63.062 30.1905 63.3225 28.9891 62.6928C27.0031 61.6504 24.5697 61.6541 22.5764 62.7027C21.3699 63.3375 19.8756 63.0821 18.9115 62.1382L5.08707 48.6028C4.11101 47.6472 3.92505 46.1868 4.57044 44.985C5.613 43.0378 5.60167 40.676 4.54005 38.7462C3.89236 37.5684 4.15837 36.1039 5.12779 35.1547L32.5958 8.26112C33.5577 7.31932 35.04 7.06916 36.2295 7.70189C38.181 8.73696 40.562 8.76425 42.5462 7.77135C43.76 7.1644 45.2394 7.43149 46.199 8.37105L46.2005 8.36959Z" fill="#FF3F8F"/>
<path d="M11.4515 37.5867L30.535 56.2712" stroke="#9B0041" stroke-width="2.9472" stroke-miterlimit="10" stroke-linecap="round" stroke-dasharray="5.89 5.89"/>
<path d="M36.4066 13.1531L55.4901 31.8376" stroke="#9B0041" stroke-width="2.9472" stroke-miterlimit="10" stroke-linecap="round" stroke-dasharray="5.89 5.89"/>
<mask id="mask1_15580_688" style="mask-type:alpha" maskUnits="userSpaceOnUse" x="4" y="7" width="58" height="57">
<path d="M46.2005 8.36959L60.0384 21.9181C60.995 22.8547 61.2663 24.2987 60.6464 25.4843C59.6338 27.4226 59.6557 29.7508 60.7069 31.6586C61.3472 32.8233 61.0902 34.2701 60.1313 35.209L32.6527 62.1129C31.6833 63.062 30.1905 63.3224 28.9891 62.6927C27.0031 61.6504 24.5697 61.6541 22.5764 62.7027C21.3699 63.3375 19.8756 63.0821 18.9115 62.1382L5.08707 48.6028C4.11102 47.6472 3.92505 46.1868 4.57044 44.985C5.613 43.0378 5.60167 40.676 4.54005 38.7462C3.89236 37.5684 4.15837 36.1039 5.12779 35.1547L32.5958 8.26111C33.5577 7.31931 35.04 7.06917 36.2295 7.70188C38.181 8.73695 40.562 8.76425 42.5462 7.77134C43.76 7.16439 45.2409 7.43001 46.2005 8.36959Z" fill="#FF3F8F"/>
</mask>
<g mask="url(#mask1_15580_688)">
<path opacity="0.3" d="M-3.78363 43.1552C-4.58669 41.8687 -4.9555 40.9367 -4.9555 40.9367L-3.78363 43.1552C-0.532423 48.3638 9.83629 59.3849 31.6644 37.909C45.1073 24.683 67.1165 30.1768 67.1165 30.1768L19.8683 87.9311L-3.78363 43.1552Z" fill="white"/>
</g>
<path fill-rule="evenodd" clip-rule="evenodd" d="M41.1463 37.6733C40.952 38.0529 40.7005 38.397 40.4021 38.6896C39.4463 39.6305 38.5414 39.5583 37.4565 39.1794C37.1042 39.0672 36.5652 38.5912 36.5652 38.5912L32.9085 34.2635L36.4433 30.7838L34.7946 29.247C33.9849 28.4866 32.7551 28.5178 31.9353 29.3189L30.1857 31.0411L25.6661 25.6922C25.6661 25.6922 24.6703 26.8079 24.3386 27.1826C22.6547 29.1122 22.4984 31.5782 23.7441 33.0524L25.8547 35.533L22.8288 38.7353L23.8807 39.9802C24.6882 40.9358 26.0831 40.9824 26.997 40.0828L28.4721 38.6307L32.2174 43.0631L32.7866 43.686C34.3348 45.497 36.6993 46.2324 38.9633 45.6084C41.2285 44.9831 43.0388 43.0961 43.6919 40.678L41.1463 37.6733Z" fill="white"/>
</g>
</svg>
