<svg width="160" height="153" viewBox="0 0 160 153" fill="none" xmlns="http://www.w3.org/2000/svg">
<g clip-path="url(#clip0_15577_5308)">
<path d="M83.5718 152.124C125.443 152.124 159.387 118.18 159.387 76.3088C159.387 34.4375 125.443 0.49411 83.5718 0.49411C41.7005 0.49411 7.7571 34.4375 7.7571 76.3088C7.7571 118.18 41.7005 152.124 83.5718 152.124Z" fill="white"/>
<mask id="mask0_15577_5308" style="mask-type:alpha" maskUnits="userSpaceOnUse" x="7" y="0" width="153" height="153">
<path d="M83.5718 152.124C125.443 152.124 159.387 118.18 159.387 76.3088C159.387 34.4375 125.443 0.49411 83.5718 0.49411C41.7005 0.49411 7.7571 34.4375 7.7571 76.3088C7.7571 118.18 41.7005 152.124 83.5718 152.124Z" fill="#DEECFF"/>
</mask>
<g mask="url(#mask0_15577_5308)">
<path d="M155.179 118.735C154.979 121.529 153.156 124.057 152.269 124.971L139.036 123.425L132.786 112.55C135.392 111.802 155.378 115.942 155.179 118.735Z" fill="#8B2A00"/>
<path d="M74.0364 23.4253C74.0364 23.4253 51.5583 36.3066 56.4472 82.3197" stroke="#8B2A00" stroke-width="3.09703" stroke-miterlimit="10" stroke-linecap="round"/>
<path d="M81.4889 18.4471C81.4889 18.4471 57.8851 22.488 59.2051 56.4152C60.525 90.3424 52.5022 123.599 52.5022 123.599C52.5022 123.599 81.6512 112.737 135.377 102.178C135.377 102.178 132.642 69.9451 135.377 53.6414C133.775 40.7601 124.906 12.4226 81.4889 18.4471Z" fill="#8B2A00"/>
<path d="M63.079 163.555L137.137 168.722L147.126 154.255L162.411 152.05L157.835 133.948C155.804 125.915 149.556 119.629 141.536 117.55L124.449 111.129L83.915 109.655L50.3712 115.229L63.079 163.555Z" fill="#A7CBFF"/>
<path d="M81.1202 114.086C81.1202 114.086 125.482 129.063 122.849 118.776C115.202 88.934 121.905 62.9042 121.905 62.9042L97.2322 64.8214L94.3416 73.7364L84.1878 105.039L81.1276 114.086H81.1202Z" fill="#FDC3A4"/>
<path d="M133.504 113.806C130.098 120.863 114.915 132.248 102.645 133.576C76.8433 136.356 69.7792 111.955 69.7792 111.955L76.4009 110.894L83.3692 109.78L119.678 109.669L127.849 112.154L133.504 113.806Z" fill="#DEECFF"/>
<path d="M127.848 112.154C122.554 117.685 106.571 124.626 98.3929 124.272C81.9985 122.776 79.5272 112.483 78.7456 110.61L83.3618 109.78L119.671 109.669L127.841 112.154H127.848Z" fill="#FDC3A4"/>
<path d="M50.3712 115.229L2.28608 149.68C-11.3335 159.436 -11.9308 179.485 1.08414 190.03L33.4334 223.176L44.7228 206.223L27.7629 171.861L65.0526 153.647L50.3786 115.229H50.3712Z" fill="#FDC3A4"/>
<path d="M25.595 132.978L45.0915 177.332C46.5221 180.584 50.9316 181.071 53.0406 178.21L70.996 153.832L50.3786 115.222L25.6023 132.971L25.595 132.978Z" fill="#A7CBFF"/>
<path opacity="0.25" d="M25.595 132.978L39.598 166.08L32.025 169.781L25.595 132.978Z" fill="#221F20"/>
<path opacity="0.25" d="M85.6551 100.4C88.3761 100.4 92.5128 100.894 97.645 99.4565C124.088 92.09 118.572 62.5428 118.572 62.5428L94.3489 73.729L85.6625 100.393L85.6551 100.4Z" fill="#221F20"/>
<path d="M123.21 61.2304C121.625 73.1244 103.456 90.1581 86.8276 89.5829C70.1995 89.0078 68.0463 75.4472 68.7247 55.958C68.9828 48.5989 72.0209 42.4712 75.3686 36.8965C81.0834 27.3179 90.5367 21.1902 101.022 21.5589C113.219 21.9865 123.476 27.5096 127.76 40.2074C132.022 54.4169 123.21 61.2377 123.21 61.2377V61.2304Z" fill="#FDC3A4"/>
<path d="M84.8735 45.8779C84.8735 45.8779 89.5486 42.685 93.9729 47.4559" stroke="#221F20" stroke-width="2.72834" stroke-miterlimit="10" stroke-linecap="round"/>
<path d="M104.591 67.3729C108.227 66.3111 110.594 63.4795 109.878 61.0388C109.17 58.598 105.646 57.4772 102.01 58.539C98.3824 59.6009 96.0081 62.4324 96.7233 64.8732C97.4312 67.3139 100.956 68.4348 104.591 67.3729Z" fill="#FD9A65"/>
<path d="M87.5527 53.9856L87.9387 57.0677" stroke="#221F20" stroke-width="3.09703" stroke-miterlimit="10" stroke-linecap="round"/>
<path d="M73.3908 53.5839L73.8392 56.665" stroke="#221F20" stroke-width="3.09703" stroke-miterlimit="10" stroke-linecap="round"/>
<path d="M74.9926 68.9804C74.7345 68.7739 74.4838 68.5601 74.2257 68.3389C71.925 66.3405 71.5932 62.8896 73.4809 60.5004C75.5456 57.8827 76.7475 55.0659 77.3374 53.4141C77.8241 52.0426 77.9863 50.5604 77.6914 49.1373C77.2785 47.1168 75.9364 44.7498 71.9398 44.7056" stroke="#221F20" stroke-width="2.72834" stroke-miterlimit="10" stroke-linecap="round"/>
<path d="M119.302 95.9317L120.217 110.104L127.841 112.154C127.841 112.154 120.29 107.103 119.295 95.9317H119.302Z" fill="#FDC3A4"/>
<path d="M65.4648 139.907L65.2965 140.717C64.7228 143.478 63.5084 146.066 61.7513 148.271L61.1517 149.024C57.922 155.66 58.9912 163.587 63.8579 169.132L66.4831 172.126C68.71 174.663 70.1847 177.76 70.7673 181.085" stroke="#221F20" stroke-width="3.09703" stroke-miterlimit="10" stroke-linecap="round"/>
<path d="M62.463 77.1275L74.3276 128.715C75.1682 132.38 72.3882 135.875 68.6276 135.875H46.9705C44.2495 135.875 41.8898 133.995 41.2704 131.348L29.1846 79.1185C28.5062 76.132 30.7037 73.2562 33.7638 73.1309L56.033 72.2091C59.0784 72.0838 61.7846 74.1558 62.4556 77.1275H62.463Z" fill="#020775"/>
<path d="M42.8485 77.0096C42.1406 76.9506 42.1553 75.9182 42.8632 75.8814L54.6615 75.262C57.1022 75.0629 59.3218 76.7072 59.8379 79.1037L70.5079 127.934L57.6847 81.4634C57.1538 79.4724 55.4357 78.0345 53.3784 77.8502L42.8411 77.0169L42.8485 77.0096Z" fill="#2D57FD"/>
<path d="M33.6912 83.8883C33.9759 85.1433 35.2241 85.93 36.4791 85.6453C37.7341 85.3606 38.5208 84.1125 38.2361 82.8574L37.1628 78.1256C36.8781 76.8706 35.6299 76.084 34.3749 76.3686C33.1199 76.6533 32.3333 77.9015 32.6179 79.1565L33.6912 83.8883Z" fill="#2D57FD"/>
<path d="M34.9437 80.4309C35.8193 80.4309 36.5291 79.7211 36.5291 78.8456C36.5291 77.97 35.8193 77.2602 34.9437 77.2602C34.0681 77.2602 33.3583 77.97 33.3583 78.8456C33.3583 79.7211 34.0681 80.4309 34.9437 80.4309Z" fill="white"/>
<path d="M79.3506 126.297L70.6701 139.688L67.5584 134.238C65.2872 132.881 65.007 132.771 62.7801 132.144L43.3499 126.297C41.0124 125.965 38.9182 124.829 37.3844 123.17C37.1411 122.912 36.9199 122.647 36.706 122.366C36.0203 121.445 35.4746 120.398 35.128 119.255C35.0838 119.092 35.0395 118.93 34.9953 118.768L32.938 112.279L31.0281 106.277C27.1126 97.7228 33.0265 96.1227 33.0265 96.1227L34.103 100.023C36.7208 100.717 39.1394 101.307 41.3663 101.786C67.8459 109.75 63.5364 100.363 63.5364 100.363L71.6301 98.6752C71.6301 98.6752 74.8951 102.917 74.5364 108.8C74.4626 110.009 73.6729 112.191 75.4426 113.894L79.3506 126.297Z" fill="#FDC3A4"/>
<path d="M38.1513 110.177C38.1513 110.177 34.7888 110.369 31.6033 106.203" stroke="#221F20" stroke-width="2.21217" stroke-miterlimit="10" stroke-linecap="round"/>
<path d="M39.5302 119.417C39.5302 119.417 36.1603 118.797 34.575 115.7" stroke="#221F20" stroke-width="2.21217" stroke-miterlimit="10" stroke-linecap="round"/>
<path d="M64.3286 103.113C62.3598 96.3438 61.9394 91.2116 61.9394 91.2116C61.4233 88.8594 62.1238 86.4038 63.805 84.671C65.3462 83.0856 67.9639 84.0884 68.4506 86.249L72.8823 103.231C72.8823 103.231 64.8964 105.06 64.3286 103.106V103.113Z" fill="#FDC3A4"/>
<path d="M106.622 162.137L80.6809 166.627L70.3489 138.738L71.0361 125.054L73.7864 104.488L76.4741 111.11C77.5555 113.774 78.8481 116.348 80.3394 118.807L106.622 162.137Z" fill="#FDC3A4"/>
<path opacity="0.25" d="M94.0988 165.675L78.3488 159.988L70.6848 139.738L67.5583 134.238C65.6853 133.14 64.6825 132.653 62.78 132.144L43.3499 126.297C41.0123 125.965 38.9181 124.829 37.3844 123.17C37.141 122.912 36.9198 122.647 36.706 122.366C36.0202 121.445 35.4745 120.398 35.128 119.255C35.0837 119.092 35.0395 118.93 34.9952 118.768L32.9379 112.279C35.4893 114.329 40.3487 117.632 46.0856 118.562C50.886 119.336 56.7261 120.892 60.9071 122.101C62.1194 122.452 63.5397 122.932 65.0028 123.495C70.2067 125.497 73.98 129.798 76.6273 134.705L90.5363 160.488L94.0988 165.675Z" fill="#221F20"/>
<path d="M91.6501 73.8989C91.6428 73.9579 91.6354 74.0095 91.628 74.0685C91.5838 74.3634 91.5248 74.651 91.4363 74.9312C90.6841 77.5268 88.1992 79.5915 84.527 80.5206C84.2984 80.587 84.0624 80.6386 83.8191 80.6902C83.4799 80.764 83.1259 80.823 82.772 80.8746C81.7249 81.0221 79.9625 80.3879 79.0629 79.621C77.9494 78.6698 76.9982 77.0844 76.0101 74.9976C75.5898 74.1054 75.5234 73.8768 75.5234 73.8768C75.5529 73.8399 75.5824 73.803 75.6193 73.7662C75.8036 73.5744 76.0765 73.3606 76.4452 73.1246C78.3181 71.9301 82.5876 70.3226 89.2241 69.5925C89.2684 69.5852 89.3126 69.5852 89.3569 69.5852C91.3331 69.5336 91.864 71.9374 91.6501 73.8989Z" fill="#8B2A00"/>
<path d="M89.2241 69.5923L88.7153 71.0302C88.5089 71.6201 88.0001 72.0699 87.388 72.1879C84.7261 72.6967 80.7663 74.024 78.6279 74.7245C78.0969 74.9015 77.507 74.695 77.1973 74.2305L76.4452 73.1244C78.3182 71.9298 82.5876 70.3223 89.2241 69.5923Z" fill="white"/>
<path d="M91.4362 74.931C90.6841 77.5267 88.1991 79.5913 84.5269 80.5205C84.7776 78.4189 86.0902 75.4398 91.4362 74.931Z" fill="#FB9285"/>
<path d="M90.8906 24.796C123.734 48.0901 96.6922 119.87 138.887 115.2C138.887 115.2 145.637 51.1469 125.448 31.0015C111.57 17.1459 77.3227 15.1731 90.8906 24.796Z" fill="#8B2A00"/>
<path d="M72.478 42.2427C72.478 42.2427 75.8848 33.4382 85.375 32.7008C94.8651 31.9635 99.7319 24.1398 99.7319 24.1398L87.683 19.9367C87.683 19.9367 73.6505 30.1716 73.4071 35.702C73.1638 41.2324 72.4854 42.25 72.4854 42.25L72.478 42.2427Z" fill="#8B2A00"/>
<path d="M92.3211 27.8931C92.3211 27.8931 103.678 35.4037 104.629 57.4147C105.58 79.411 106.711 99.9621 126.098 103.735" stroke="#8B2A00" stroke-width="3.09703" stroke-miterlimit="10" stroke-linecap="round"/>
<path d="M139.63 78.851C139.63 78.851 141.335 93.8232 148.82 98.1885C160.072 104.751 154.549 120.93 154.549 120.93L131.631 115.112L136.702 89.0325L139.63 78.851Z" fill="#8B2A00"/>
</g>
<path d="M52.1209 66.2361L47.5542 59.0573C46.87 57.9823 46.9411 56.6052 47.6697 55.5568C49.9974 52.2162 50.9481 48.7423 50.9481 44.2377C50.9481 31.4882 39.5491 21.1554 25.4758 21.1554C11.4025 21.1554 0.003479 31.4882 0.003479 44.2377C0.003479 56.9872 11.4025 67.3201 25.4758 67.3201C30.1758 67.3201 34.5648 66.1651 38.3408 64.1571C39.1315 63.7396 40.0644 63.704 40.8907 64.0327L50.7171 67.9153C51.7566 68.324 52.7073 67.169 52.112 66.2272L52.1209 66.2361Z" fill="#F55905"/>
<path d="M17.251 40.7787V42.7562C17.251 45.0324 18.0106 47.0125 19.5298 48.6964C21.049 50.3804 22.926 51.3459 25.161 51.5931V53.6324H21.206C20.9382 53.6324 20.7065 53.7303 20.5108 53.926C20.3151 54.1216 20.2173 54.3534 20.2173 54.6212C20.2173 54.889 20.3151 55.1207 20.5108 55.3164C20.7065 55.5121 20.9382 55.6099 21.206 55.6099H31.0935C31.3613 55.6099 31.593 55.5121 31.7887 55.3164C31.9844 55.1207 32.0822 54.889 32.0822 54.6212C32.0822 54.3534 31.9844 54.1216 31.7887 53.926C31.593 53.7303 31.3613 53.6324 31.0935 53.6324H27.1385V51.5931C29.3735 51.3459 31.2505 50.3804 32.7697 48.6964C34.2889 47.0125 35.0485 45.0324 35.0485 42.7562V40.7787C35.0485 40.5109 34.9506 40.2792 34.7549 40.0835C34.5592 39.8878 34.3275 39.79 34.0597 39.79C33.7919 39.79 33.5602 39.8878 33.3645 40.0835C33.1688 40.2792 33.071 40.5109 33.071 40.7787V42.7562C33.071 44.6616 32.3938 46.2915 31.0394 47.6459C29.685 49.0003 28.0551 49.6774 26.1497 49.6774C24.2444 49.6774 22.6145 49.0003 21.2601 47.6459C19.9057 46.2915 19.2285 44.6616 19.2285 42.7562V40.7787C19.2285 40.5109 19.1307 40.2792 18.935 40.0835C18.7393 39.8878 18.5076 39.79 18.2398 39.79C17.972 39.79 17.7403 39.8878 17.5446 40.0835C17.3489 40.2792 17.251 40.5109 17.251 40.7787ZM21.206 34.8463V42.7562C21.206 44.1157 21.6901 45.2796 22.6582 46.2477C23.6264 47.2159 24.7902 47.6999 26.1497 47.6999C27.5093 47.6999 28.6731 47.2159 29.6413 46.2477C30.6094 45.2796 31.0935 44.1157 31.0935 42.7562V34.8463C31.0935 33.4867 30.6094 32.3229 29.6413 31.3547C28.6731 30.3866 27.5093 29.9025 26.1497 29.9025C24.7902 29.9025 23.6264 30.3866 22.6582 31.3547C21.6901 32.3229 21.206 33.4867 21.206 34.8463Z" fill="white"/>
</g>
<defs>
<clipPath id="clip0_15577_5308">
<rect width="160" height="153" fill="white"/>
</clipPath>
</defs>
</svg>
