<svg width="40" height="40" viewBox="0 0 40 40" fill="none" xmlns="http://www.w3.org/2000/svg">
<path d="M19.8476 7.03809C21.3833 7.36624 22.6544 8.43818 23.2371 9.89644L27.6746 21.0027L27.709 21.0877L30.5399 28.1719C30.6484 28.4438 30.6775 28.7295 30.6368 29.0047C30.5561 29.5483 30.2065 30.0487 29.6715 30.3224C29.6207 30.3485 29.5674 30.3733 29.5121 30.3944L20.5686 33.8126C19.1916 34.3388 17.6364 34.0604 16.5275 33.0891L8.68482 12.9007C8.34008 12.0378 8.80063 11.0423 9.71316 10.6776L19.8476 7.03809Z" fill="#2D57FD"/>
<path d="M18.5822 7.02389L9.12596 10.8023C8.25924 11.1486 7.82205 12.0938 8.14947 12.9133L15.9152 32.3517C16.2426 33.1713 17.2106 33.5549 18.0773 33.2086L27.5335 29.4301C28.4002 29.0838 28.8374 28.1387 28.51 27.3191L20.7443 7.88076C20.4169 7.06121 19.4489 6.67758 18.5822 7.02389Z" fill="#2D57FD"/>
<path d="M20.1172 9.11882L27.1747 26.7815C27.461 27.4975 27.0789 28.3248 26.3206 28.6277L18.4069 31.7901C17.6487 32.0931 16.8023 31.7577 16.5159 31.0407L9.45838 13.379C9.172 12.6621 9.5542 11.8357 10.3124 11.5328L18.2257 8.3699C18.9839 8.06697 19.8308 8.40278 20.1172 9.11882Z" fill="#B9D7FF"/>
<path d="M14.5737 18.5985L14.1642 17.2314C14.0628 16.893 14.0865 16.53 14.2306 16.2075L14.835 14.8596L17.2687 13.9207L18.1667 14.1541C18.6762 14.2865 19.119 14.6033 19.4088 15.0422L20.1791 16.2094L18.512 16.8584L17.865 15.2866L15.4551 16.2102L16.094 17.878L14.5737 18.5985Z" fill="#FF5A00"/>
<path d="M14.835 14.8596L15.4545 16.2096L16.262 15.9046L14.835 14.8596Z" fill="#C44100"/>
<path d="M17.2687 13.9207L17.865 15.2866L17.078 15.5926L17.2687 13.9207Z" fill="#C44100"/>
<path d="M17.0748 27.0212L21.8717 25.1538C22.3884 24.9527 22.6611 24.385 22.4946 23.856L20.3924 17.1723C20.2091 16.5903 19.5715 16.2845 19.0026 16.5063L14.3225 18.334C13.8129 18.5332 13.5404 19.0892 13.6956 19.6143L15.6816 26.3381C15.8564 26.9304 16.5004 27.2465 17.0759 27.0222L17.0748 27.0212Z" fill="#C44100"/>
<path d="M24.3737 24.1771L19.7359 25.9696C19.2721 26.1484 18.7482 25.9418 18.5311 25.4947L15.391 19.0117C15.1493 18.5119 15.3827 17.912 15.8986 17.7071L20.5571 15.8613C21.0246 15.6763 21.5552 15.8848 21.7714 16.3386L24.8908 22.8749C25.1304 23.3769 24.892 23.9765 24.3737 24.1771Z" fill="#FF5A00"/>
<path d="M21.9203 22.1353C21.8419 22.2029 21.7507 22.2582 21.6495 22.2983C21.3329 22.4232 21.1135 22.3164 20.8766 22.1206C20.7991 22.0594 20.7054 21.8955 20.7054 21.8955L20.1654 20.5235L21.3386 20.0615L21.0612 19.539C20.9244 19.2813 20.6157 19.1673 20.3442 19.2745L19.7638 19.5026L19.3968 18.5697L19.0963 17.8058C19.0963 17.8058 18.754 17.9675 18.6405 18.0227C18.0582 18.3062 17.8103 18.8654 17.9941 19.3325L18.3069 20.1206L17.2839 20.5678L17.4394 20.9626C17.5586 21.2653 17.901 21.4146 18.2044 21.2951L18.6939 21.1022L19.2468 22.5073L19.3341 22.7101C19.6828 23.5819 20.6717 24.0094 21.5467 23.6646C21.8573 23.5422 22.1123 23.3387 22.297 23.088L21.9214 22.1341L21.9203 22.1353Z" fill="white"/>
<path opacity="0.44" d="M20.117 9.11894L26.5036 25.1028C25.1076 24.6521 22.7937 23.4137 20.2858 20.0141C17.6473 16.4374 12.8192 14.8573 9.78245 14.1916L9.4582 13.3791C9.17181 12.6622 9.55402 11.8358 10.3122 11.5329L18.2255 8.37002C18.9837 8.06709 19.8306 8.4029 20.117 9.11894Z" fill="#EFF6FF"/>
<path opacity="0.44" d="M25.1036 29.1134L18.4062 31.7901C17.648 32.0931 16.8016 31.7577 16.5152 31.0407L13.0547 22.3812C14.8557 22.7558 16.8566 23.7185 18.566 25.8723C20.6827 28.5387 23.138 29.1702 25.1036 29.1134Z" fill="#EFF6FF"/>
<path fill-rule="evenodd" clip-rule="evenodd" d="M13.0356 11.8825C12.9763 11.738 13.0374 11.5244 13.1903 11.4619L15.9897 10.3181C16.1427 10.2556 16.3296 10.3678 16.3889 10.5123C16.4482 10.6568 16.3987 10.889 16.2457 10.9515L13.4464 12.0953C13.2934 12.1578 13.0949 12.027 13.0356 11.8825Z" fill="#020775" stroke="#020775" stroke-linecap="round" stroke-linejoin="round"/>
</svg>
