<svg width="25" height="24" viewBox="0 0 25 24" fill="none" xmlns="http://www.w3.org/2000/svg">
<path d="M12.9414 15.75C14.5983 15.75 15.9414 14.4069 15.9414 12.75C15.9414 11.0931 14.5983 9.75 12.9414 9.75C11.2846 9.75 9.94141 11.0931 9.94141 12.75C9.94141 14.4069 11.2846 15.75 12.9414 15.75Z" fill="#262626"/>
<path fill-rule="evenodd" clip-rule="evenodd" d="M6.94141 5.25C6.94141 4.42157 7.61298 3.75 8.44141 3.75H17.4414C18.2698 3.75 18.9414 4.42157 18.9414 5.25C18.9414 6.07843 19.613 6.75 20.4414 6.75H21.9414C22.7698 6.75 23.4414 7.42157 23.4414 8.25V18.75C23.4414 19.5784 22.7698 20.25 21.9414 20.25H3.94141C3.11298 20.25 2.44141 19.5784 2.44141 18.75V8.25C2.44141 7.42157 3.11298 6.75 3.94141 6.75H5.44141C6.26983 6.75 6.94141 6.07843 6.94141 5.25ZM12.9414 17.25C15.4267 17.25 17.4414 15.2353 17.4414 12.75C17.4414 10.2647 15.4267 8.25 12.9414 8.25C10.4561 8.25 8.44141 10.2647 8.44141 12.75C8.44141 15.2353 10.4561 17.25 12.9414 17.25ZM18.9414 10.5C18.9414 10.0858 19.2772 9.75 19.6914 9.75C20.1056 9.75 20.4414 10.0858 20.4414 10.5C20.4414 10.9142 20.1056 11.25 19.6914 11.25C19.2772 11.25 18.9414 10.9142 18.9414 10.5Z" fill="#262626"/>
</svg>
