<svg width="25" height="24" viewBox="0 0 25 24" fill="none" xmlns="http://www.w3.org/2000/svg">
<path d="M12.6739 9.57678H7.89818L20.0849 4.59398L15.0972 16.7759V12C15.0972 10.6622 14.0118 9.57678 12.6739 9.57678ZM10.2507 12H12.6739V14.4233V20.8853C12.6739 21.6577 13.2192 22.319 13.9764 22.4705C14.7337 22.6219 15.4909 22.213 15.7837 21.4961L23.0534 3.72564C23.3008 3.12488 23.1594 2.43324 22.7 1.97384C22.2406 1.51443 21.549 1.37307 20.9482 1.62045L3.17796 8.89019C2.46109 9.183 2.05722 9.94027 2.20363 10.6975C2.35003 11.4548 3.01641 12 3.78881 12H10.2507Z" fill="#262626"/>
</svg>
