<svg width="24" height="24" viewBox="0 0 24 24" fill="none" xmlns="http://www.w3.org/2000/svg">
<path fill-rule="evenodd" clip-rule="evenodd" d="M17.6415 3.75C16.9497 3.75 16.2862 4.02482 15.797 4.51401L4.84579 15.4653C4.74967 15.5614 4.68148 15.6818 4.64851 15.8137L3.77241 19.3181C3.70851 19.5737 3.7834 19.844 3.96969 20.0303C4.15597 20.2166 4.42634 20.2915 4.68192 20.2276L8.18632 19.3515C8.31819 19.3185 8.43863 19.2503 8.53475 19.1542L19.486 8.20297C19.7282 7.96075 19.9204 7.67319 20.0515 7.35672C20.1825 7.04024 20.25 6.70104 20.25 6.35849C20.25 6.01594 20.1825 5.67674 20.0515 5.36026C19.9204 5.04379 19.7282 4.75623 19.486 4.51401C19.2438 4.27179 18.9562 4.07965 18.6398 3.94856C18.3233 3.81747 17.9841 3.75 17.6415 3.75ZM16.8577 5.57467C17.0656 5.36679 17.3475 5.25 17.6415 5.25C17.7871 5.25 17.9312 5.27867 18.0657 5.33438C18.2002 5.39009 18.3224 5.47174 18.4253 5.57467C18.5283 5.6776 18.6099 5.7998 18.6656 5.93429C18.7213 6.06878 18.75 6.21292 18.75 6.35849C18.75 6.50406 18.7213 6.6482 18.6656 6.78269C18.6099 6.91718 18.5283 7.03938 18.4253 7.14231L7.62098 17.9467L5.53079 18.4692L6.05334 16.379L16.8577 5.57467Z" fill="#262626"/>
<path d="M12.75 18.75C12.3358 18.75 12 19.0858 12 19.5C12 19.9142 12.3358 20.25 12.75 20.25H19.5C19.9142 20.25 20.25 19.9142 20.25 19.5C20.25 19.0858 19.9142 18.75 19.5 18.75H12.75Z" fill="#262626"/>
</svg>
