<svg width="108" height="74" viewBox="0 0 108 74" fill="none" xmlns="http://www.w3.org/2000/svg">
<g id="gem-logo copy 2" style="mix-blend-mode:luminosity">
<g id="Page 1">
<path id="Fill 7" fill-rule="evenodd" clip-rule="evenodd" d="M54 0L80.8342 19.8648L90.4551 0.0132433L54 0Z" fill="#C7C7C7"/>
<path id="Fill 3" fill-rule="evenodd" clip-rule="evenodd" d="M54 19.5337V73.5002L80.8345 19.5337H54Z" fill="#707070"/>
<path id="Fill 4" fill-rule="evenodd" clip-rule="evenodd" d="M17.5576 0L17.6378 0.19865L27.1653 19.8648L43.0477 7.97181L54.0002 0H17.5576Z" fill="#E1E1E1"/>
<path id="Fill 1" fill-rule="evenodd" clip-rule="evenodd" d="M27.1655 19.5337L54 73.5002V19.5337H27.1655Z" fill="#8E8E8E"/>
<path id="Fill 2" fill-rule="evenodd" clip-rule="evenodd" d="M0 19.5337L54.0003 73.5002L27.1658 19.5337H0Z" fill="#C6C6C6"/>
<path id="Fill 6" fill-rule="evenodd" clip-rule="evenodd" d="M43.0542 7.97205L27.1655 19.5335H54V0.0128174L43.0542 7.97205Z" fill="#C6C6C6"/>
<path id="Fill 5" fill-rule="evenodd" clip-rule="evenodd" d="M0 19.5327H27.1658L17.5458 0.012085L0 19.5327Z" fill="#D7D7D7"/>
<path id="Fill 8" fill-rule="evenodd" clip-rule="evenodd" d="M80.8345 19.5335H108L90.4549 0.0128174L80.8345 19.5335Z" fill="#858585"/>
<path id="Fill 9" fill-rule="evenodd" clip-rule="evenodd" d="M54 19.5335H80.8345L54 0.0128174V19.5335Z" fill="#C6C6C6"/>
<path id="Fill 10" fill-rule="evenodd" clip-rule="evenodd" d="M80.8345 19.5337L54 73.5002L108 19.5337H80.8345Z" fill="#404040"/>
<path id="Fill 11" fill-rule="evenodd" clip-rule="evenodd" d="M17.557 0L17.5444 0.0132433L17.6372 0.19865L43.0471 7.97181L53.9996 0H17.557Z" fill="#E1E1E1"/>
<path id="Fill 12" fill-rule="evenodd" clip-rule="evenodd" d="M54 11.3227L80.8345 19.5335L54 0.0135498V11.3227Z" fill="#A0A0A0"/>
<path id="Fill 13" fill-rule="evenodd" clip-rule="evenodd" d="M43.0547 7.97205L54.0005 11.3226V0.0128174L43.0547 7.97205Z" fill="#A0A0A0"/>
</g>
</g>
</svg>
