<svg width="24" height="24" viewBox="0 0 24 24" fill="none" xmlns="http://www.w3.org/2000/svg">
<path d="M12.9844 1.5C18.2385 1.5 22.5 5.76152 22.5 11.0156C22.5 11.5611 22.0611 12 21.5156 12C20.9701 12 20.5312 11.5611 20.5312 11.0156C20.5312 6.84844 17.1516 3.46875 12.9844 3.46875C12.4389 3.46875 12 3.02988 12 2.48438C12 1.93887 12.4389 1.5 12.9844 1.5ZM13.3125 9.375C13.6606 9.375 13.9944 9.51328 14.2406 9.75942C14.4867 10.0056 14.625 10.3394 14.625 10.6875C14.625 11.0356 14.4867 11.3694 14.2406 11.6156C13.9944 11.8617 13.6606 12 13.3125 12C12.9644 12 12.6306 11.8617 12.3844 11.6156C12.1383 11.3694 12 11.0356 12 10.6875C12 10.3394 12.1383 10.0056 12.3844 9.75942C12.6306 9.51328 12.9644 9.375 13.3125 9.375ZM12 6.42188C12 5.87637 12.4389 5.4375 12.9844 5.4375C16.0646 5.4375 18.5625 7.93535 18.5625 11.0156C18.5625 11.5611 18.1236 12 17.5781 12C17.0326 12 16.5938 11.5611 16.5938 11.0156C16.5938 9.02227 14.9777 7.40625 12.9844 7.40625C12.4389 7.40625 12 6.96738 12 6.42188ZM14.9941 13.2592C15.4576 12.6932 16.2369 12.5004 16.9096 12.7916L21.5033 14.7604C22.2252 15.068 22.6271 15.8473 22.4631 16.6102L21.4787 21.2039C21.3146 21.9586 20.6461 22.5 19.875 22.5C19.6248 22.5 19.3746 22.4959 19.1285 22.4836H19.1244C18.7143 22.4672 18.3123 22.4385 17.9104 22.3934C8.68594 21.4172 1.5 13.6078 1.5 4.125C1.5 3.3498 2.04141 2.68125 2.79609 2.52129L7.38984 1.53691C8.15684 1.37285 8.93203 1.7748 9.23965 2.49668L11.2084 7.09043C11.4955 7.76309 11.3068 8.54238 10.7408 9.00586L9.07559 10.3676C10.1707 12.2543 11.7457 13.8293 13.6324 14.9244L14.9941 13.2592ZM20.482 16.4625L16.3641 14.6988L15.1582 16.1672C14.5471 16.9137 13.4848 17.1064 12.648 16.6225C10.4619 15.3551 8.64082 13.534 7.37344 11.3479C6.88945 10.5111 7.08223 9.44883 7.82871 8.8377L9.30117 7.63184L7.5375 3.51387L3.47285 4.3916C3.6123 13.2387 10.7613 20.3877 19.6084 20.5312L20.482 16.4625Z" fill="#262626"/>
</svg>
