<svg width="24" height="24" viewBox="0 0 24 24" fill="none" xmlns="http://www.w3.org/2000/svg">
<path d="M10.3594 4C9.81387 4 9.375 4.44583 9.375 5C9.375 5.55417 9.81387 6 10.3594 6H11.0156V7.3875C6.40547 7.88333 2.8125 11.85 2.8125 16.6667H4.78125C4.78125 12.6167 8.01328 9.33333 12 9.33333C15.9867 9.33333 19.2188 12.6167 19.2188 16.6667H21.1875C21.1875 11.85 17.5945 7.88333 12.9844 7.3875V6H13.6406C14.1861 6 14.625 5.55417 14.625 5C14.625 4.44583 14.1861 4 13.6406 4H12H10.3594ZM2.48438 18C1.93887 18 1.5 18.4458 1.5 19C1.5 19.5542 1.93887 20 2.48438 20H21.5156C22.0611 20 22.5 19.5542 22.5 19C22.5 18.4458 22.0611 18 21.5156 18H2.48438Z" fill="#262626"/>
</svg>
