<svg width="25" height="24" viewBox="0 0 25 24" fill="none" xmlns="http://www.w3.org/2000/svg">
<path d="M20.3108 8.89776L20.3096 8.89672L13.5599 3.20202L20.3108 8.89776ZM20.3108 8.89776C20.6203 9.15789 20.7988 9.54137 20.7988 9.94795V19.75C20.7988 19.982 20.7066 20.2046 20.5425 20.3687C20.3785 20.5328 20.1559 20.625 19.9238 20.625H16.4316C16.1996 20.625 15.977 20.5328 15.8129 20.3687C15.6488 20.2046 15.5566 19.982 15.5566 19.75V14.75C15.5566 14.319 15.3854 13.9057 15.0807 13.6009C14.7759 13.2962 14.3626 13.125 13.9316 13.125H11.4238C10.9929 13.125 10.5795 13.2962 10.2748 13.6009C9.97004 13.9057 9.79883 14.319 9.79883 14.75V19.75C9.79883 19.982 9.70664 20.2046 9.54255 20.3687C9.37845 20.5328 9.15589 20.625 8.92383 20.625H5.42383C5.30892 20.625 5.19514 20.6023 5.08898 20.5583C4.98282 20.5144 4.88636 20.4499 4.80511 20.3687C4.72386 20.2874 4.65941 20.191 4.61543 20.0848C4.57146 19.9786 4.54883 19.8649 4.54883 19.75V9.94695C4.54883 9.54176 4.72711 9.15772 5.03761 8.89611L5.03801 8.89577M20.3108 8.89776L5.03801 8.89577M5.03801 8.89577L11.7877 3.20202C11.7878 3.20194 11.7879 3.20186 11.788 3.20177M5.03801 8.89577L11.788 3.20177M11.788 3.20177C12.0359 2.99294 12.3497 2.87842 12.6738 2.87842M11.788 3.20177L12.6738 2.87842M12.6738 2.87842C12.998 2.87842 13.3117 2.99293 13.5596 3.20172L12.6738 2.87842Z" fill="#262626" stroke="#262626" stroke-width="1.75"/>
</svg>
