<svg width="25" height="25" viewBox="0 0 25 25" fill="none" xmlns="http://www.w3.org/2000/svg">
<path d="M21.25 12.4998C21.25 13.0506 21.0312 13.5789 20.6417 13.9684C20.2522 14.3579 19.7239 14.5767 19.1731 14.5767C18.6222 14.5767 18.094 14.3579 17.7045 13.9684C17.315 13.5789 17.0962 13.0506 17.0962 12.4998C17.0962 11.9489 17.315 11.4207 17.7045 11.0312C18.094 10.6417 18.6222 10.4229 19.1731 10.4229C19.7239 10.4229 20.2522 10.6417 20.6417 11.0312C21.0312 11.4207 21.25 11.9489 21.25 12.4998ZM14.3269 12.4998C14.3269 12.7725 14.2732 13.0426 14.1688 13.2946C14.0645 13.5466 13.9115 13.7755 13.7186 13.9684C13.5257 14.1612 13.2968 14.3142 13.0448 14.4186C12.7928 14.523 12.5227 14.5767 12.25 14.5767C11.9773 14.5767 11.7072 14.523 11.4552 14.4186C11.2032 14.3142 10.9743 14.1612 10.7814 13.9684C10.5885 13.7755 10.4355 13.5466 10.3312 13.2946C10.2268 13.0426 10.1731 12.7725 10.1731 12.4998C10.1731 12.227 10.2268 11.957 10.3312 11.705C10.4355 11.453 10.5885 11.224 10.7814 11.0312C10.9743 10.8383 11.2032 10.6853 11.4552 10.5809C11.7072 10.4766 11.9773 10.4229 12.25 10.4229C12.5227 10.4229 12.7928 10.4766 13.0448 10.5809C13.2968 10.6853 13.5257 10.8383 13.7186 11.0312C13.9115 11.224 14.0645 11.453 14.1688 11.705C14.2732 11.957 14.3269 12.227 14.3269 12.4998ZM5.32692 14.5767C4.77609 14.5767 4.24782 14.3579 3.85832 13.9684C3.46882 13.5789 3.25 13.0506 3.25 12.4998C3.25 11.9489 3.46882 11.4207 3.85832 11.0312C4.24782 10.6417 4.77609 10.4229 5.32692 10.4229C5.87776 10.4229 6.40603 10.6417 6.79553 11.0312C7.18503 11.4207 7.40385 11.9489 7.40385 12.4998C7.40385 13.0506 7.18503 13.5789 6.79553 13.9684C6.40603 14.3579 5.87776 14.5767 5.32692 14.5767Z" fill="#262626"/>
</svg>
