<svg width="25" height="24" viewBox="0 0 25 24" fill="none" xmlns="http://www.w3.org/2000/svg">
<path d="M22.1438 6.12542L19.9322 2.62475C19.7354 2.31212 19.3842 2.11914 19.0098 2.11914H5.23871C4.86433 2.11914 4.51311 2.31212 4.31627 2.62475L2.10085 6.12542C0.958409 7.93173 1.96963 10.4443 4.10399 10.7338C4.25837 10.7531 4.41662 10.7647 4.571 10.7647C5.57836 10.7647 6.47378 10.3247 7.08746 9.6454C7.70114 10.3247 8.59657 10.7647 9.60392 10.7647C10.6113 10.7647 11.5067 10.3247 12.1204 9.6454C12.7341 10.3247 13.6295 10.7647 14.6368 10.7647C15.6481 10.7647 16.5396 10.3247 17.1533 9.6454C17.7708 10.3247 18.6624 10.7647 19.6698 10.7647C19.828 10.7647 19.9824 10.7531 20.1368 10.7338C22.2789 10.4482 23.2939 7.93559 22.1476 6.12542H22.1438ZM20.295 11.9573H20.2912C20.0866 11.9843 19.8782 11.9998 19.6659 11.9998C19.1873 11.9998 18.728 11.9264 18.2996 11.7952V16.9401H5.94888V11.7913C5.5166 11.9264 5.05345 11.9998 4.57486 11.9998C4.36258 11.9998 4.1503 11.9843 3.94574 11.9573H3.94188C3.78364 11.9341 3.62926 11.9071 3.47873 11.8685V16.9401V19.4102C3.47873 20.7727 4.58644 21.8804 5.94888 21.8804H18.2996C19.6621 21.8804 20.7698 20.7727 20.7698 19.4102V16.9401V11.8685C20.6154 11.9071 20.461 11.938 20.295 11.9573Z" fill="#262626"/>
</svg>
