<svg width="24" height="24" viewBox="0 0 24 24" fill="none" xmlns="http://www.w3.org/2000/svg">
<path fill-rule="evenodd" clip-rule="evenodd" d="M11.25 6V10.2885L14.5605 13.4807L13.5193 14.5605L9.75 10.9258V6H11.25Z" fill="#262626"/>
<path fill-rule="evenodd" clip-rule="evenodd" d="M10.5 18C14.6421 18 18 14.6421 18 10.5C18 6.35786 14.6421 3 10.5 3C6.35786 3 3 6.35786 3 10.5C3 14.6421 6.35786 18 10.5 18ZM10.5 19.5C15.4706 19.5 19.5 15.4706 19.5 10.5C19.5 5.52944 15.4706 1.5 10.5 1.5C5.52944 1.5 1.5 5.52944 1.5 10.5C1.5 15.4706 5.52944 19.5 10.5 19.5Z" fill="#262626"/>
<path fill-rule="evenodd" clip-rule="evenodd" d="M16.5 10.5C13.1667 10.5 10.5 13.1667 10.5 16.5C10.5 19.8333 13.1667 22.5 16.5 22.5C19.8333 22.5 22.5 19.8333 22.5 16.5C22.5 13.1667 19.8333 10.5 16.5 10.5Z" fill="#00A346"/>
<path d="M15.7667 17.5669L18.3 14.1003L19.0333 14.6336L15.9 18.9003L14.1 17.0336L14.7 16.4336L15.7667 17.5669Z" fill="white"/>
</svg>
