<svg width="20" height="20" viewBox="0 0 20 20" fill="none" xmlns="http://www.w3.org/2000/svg">
<g id="icon-profile">
<g id="Vector">
<path d="M4.34375 5V10.625H3.78125V5H4.34375Z" fill="#262626"/>
<path d="M6.875 7.53125V8.09375H1.25V7.53125H6.875Z" fill="#262626"/>
<path d="M4.34375 5H4.59375V4.75H4.34375V5ZM4.34375 10.625V10.875H4.59375V10.625H4.34375ZM3.78125 10.625H3.53125V10.875H3.78125V10.625ZM3.78125 5V4.75H3.53125V5H3.78125ZM6.875 7.53125H7.125V7.28125H6.875V7.53125ZM6.875 8.09375V8.34375H7.125V8.09375H6.875ZM1.25 8.09375H1V8.34375H1.25V8.09375ZM1.25 7.53125V7.28125H1V7.53125H1.25ZM4.09375 5V10.625H4.59375V5H4.09375ZM4.34375 10.375H3.78125V10.875H4.34375V10.375ZM4.03125 10.625V5H3.53125V10.625H4.03125ZM3.78125 5.25H4.34375V4.75H3.78125V5.25ZM6.625 7.53125V8.09375H7.125V7.53125H6.625ZM6.875 7.84375H1.25V8.34375H6.875V7.84375ZM1.5 8.09375V7.53125H1V8.09375H1.5ZM1.25 7.78125H6.875V7.28125H1.25V7.78125Z" fill="#262626"/>
</g>
<g id="Vector_2">
<path fill-rule="evenodd" clip-rule="evenodd" d="M8.03571 5.71429C8.03571 3.93906 9.47478 2.5 11.25 2.5C13.0252 2.5 14.4643 3.93906 14.4643 5.71429C14.4643 7.48951 13.0252 8.92857 11.25 8.92857C9.47478 8.92857 8.03571 7.48951 8.03571 5.71429Z" stroke="#262626" stroke-width="1.3"/>
<path fill-rule="evenodd" clip-rule="evenodd" d="M3.77905 15.7951C4.44337 12.4896 7.81668 10 11.2508 10C14.6543 10 18.0465 12.5101 18.7198 15.7934C18.9219 16.7785 18.0744 17.5 17.2132 17.5H5.28843C4.42642 17.5 3.58136 16.7788 3.77905 15.7951Z" stroke="#262626" stroke-width="1.3"/>
</g>
</g>
</svg>
