<svg width="24" height="24" viewBox="0 0 24 24" fill="none" xmlns="http://www.w3.org/2000/svg">
<path fill-rule="evenodd" clip-rule="evenodd" d="M12 1.5C9.51472 1.5 7.5 3.51472 7.5 6V6.12584L9.62416 8.25H15V11.25H16.5V8.25H20.8698L20.0606 17.962L20.0593 17.9961C20.0507 18.2256 20.0311 18.4355 20.0018 18.6276L21.2316 19.8574C21.426 19.3297 21.5329 18.7269 21.5583 18.0526L22.5 6.75H16.5V6C16.5 3.51472 14.4853 1.5 12 1.5ZM20.396 21.1957C19.5485 22.0512 18.2178 22.5 16.3333 22.5H7.66673C4.46609 22.5 2.55 20.925 2.44173 18.0526L1.5 6.75H5.95031L7.45031 8.25H3.13018L3.93938 17.962L3.94066 17.9961C3.98199 19.0924 4.34978 19.7751 4.86163 20.2068C5.40187 20.6624 6.2961 21 7.66673 21H16.3333C17.9026 21 18.7634 20.6471 19.2354 20.2297C19.2694 20.1997 19.3027 20.1681 19.3352 20.1349L20.396 21.1957ZM9 9.79969V11.25L7.5 10.3417V9.5V8.29969L9 9.79969ZM15 6.75V6C15 4.34315 13.6569 3 12 3C10.3431 3 9 4.34315 9 6V6.75H15Z" fill="#262626"/>
<path fill-rule="evenodd" clip-rule="evenodd" d="M0.999886 3.91857L20.4999 23.4186L21.5605 22.3579L2.06055 2.85791L0.999886 3.91857Z" fill="#262626"/>
</svg>
