<svg width="25" height="24" viewBox="0 0 25 24" fill="none" xmlns="http://www.w3.org/2000/svg">
<path d="M10.6076 2.75C9.61914 2.75 8.74141 3.38594 8.42969 4.33158L8.07695 5.39286H5.06641C3.61855 5.39286 2.44141 6.57801 2.44141 8.03571V18.6071C2.44141 20.0648 3.61855 21.25 5.06641 21.25H20.8164C22.2643 21.25 23.4414 20.0648 23.4414 18.6071V8.03571C23.4414 6.57801 22.2643 5.39286 20.8164 5.39286H17.8059L17.4531 4.33158C17.1414 3.38594 16.2637 2.75 15.2752 2.75H10.6076ZM10.2959 4.95926C10.341 4.82299 10.4641 4.73214 10.6076 4.73214H15.2752C15.4146 4.73214 15.5418 4.82299 15.5869 4.95926L16.1611 6.69777C16.2965 7.10246 16.6697 7.375 17.0963 7.375H20.8164C21.1773 7.375 21.4727 7.67232 21.4727 8.03571V18.6071C21.4727 18.9705 21.1773 19.2679 20.8164 19.2679H5.06641C4.70547 19.2679 4.41016 18.9705 4.41016 18.6071V8.03571C4.41016 7.67232 4.70547 7.375 5.06641 7.375H8.78652C9.20898 7.375 9.58633 7.10246 9.72168 6.69777L10.2959 4.95926ZM12.9414 17.9464C13.5447 17.9464 14.142 17.8268 14.6994 17.5944C15.2567 17.3619 15.7631 17.0213 16.1897 16.5918C16.6162 16.1623 16.9546 15.6525 17.1855 15.0913C17.4163 14.5302 17.5352 13.9288 17.5352 13.3214C17.5352 12.7141 17.4163 12.1126 17.1855 11.5515C16.9546 10.9904 16.6162 10.4805 16.1897 10.0511C15.7631 9.62159 15.2567 9.28091 14.6994 9.04849C14.142 8.81606 13.5447 8.69643 12.9414 8.69643C12.3381 8.69643 11.7408 8.81606 11.1835 9.04849C10.6261 9.28091 10.1197 9.62159 9.69313 10.0511C9.26657 10.4805 8.92819 10.9904 8.69733 11.5515C8.46648 12.1126 8.34766 12.7141 8.34766 13.3214C8.34766 13.9288 8.46648 14.5302 8.69733 15.0913C8.92819 15.6525 9.26657 16.1623 9.69313 16.5918C10.1197 17.0213 10.6261 17.3619 11.1835 17.5944C11.7408 17.8268 12.3381 17.9464 12.9414 17.9464ZM10.3164 13.3214C10.3164 12.6205 10.593 11.9483 11.0853 11.4526C11.5775 10.957 12.2452 10.6786 12.9414 10.6786C13.6376 10.6786 14.3053 10.957 14.7976 11.4526C15.2898 11.9483 15.5664 12.6205 15.5664 13.3214C15.5664 14.0224 15.2898 14.6946 14.7976 15.1902C14.3053 15.6858 13.6376 15.9643 12.9414 15.9643C12.2452 15.9643 11.5775 15.6858 11.0853 15.1902C10.593 14.6946 10.3164 14.0224 10.3164 13.3214Z" fill="#262626"/>
</svg>
