<svg width="25" height="24" viewBox="0 0 25 24" fill="none" xmlns="http://www.w3.org/2000/svg">
<g clip-path="url(#clip0_16252_13241)">
<path d="M1.13286 2.74535C1.44036 2.35536 2.0066 2.28411 2.39659 2.5916C4.51155 4.24905 6.62652 5.90649 8.74148 7.56393C8.74148 7.24144 8.74148 6.92271 8.74148 6.60022C8.74148 4.27904 10.6202 2.40036 12.9414 2.40036C15.2626 2.40036 17.1413 4.27904 17.1413 6.60022C17.1413 7.2002 17.1413 7.80018 17.1413 8.40016C17.9401 8.40016 18.7426 8.40016 19.5413 8.40016C20.535 8.40016 21.3413 9.20638 21.3413 10.2001C21.3413 12.615 21.3413 15.0262 21.3413 17.4411C22.425 18.2923 23.5125 19.1435 24.5962 19.991C24.9862 20.2985 25.0574 20.8647 24.75 21.2547C24.4425 21.6447 23.8762 21.716 23.4862 21.4085C16.0839 15.6074 8.68523 9.81011 1.28661 4.00905C0.896618 3.70156 0.825369 3.13533 1.13286 2.74535ZM4.54155 10.2001C4.54155 9.79511 4.67655 9.42012 4.90155 9.12013C9.88896 13.05 14.8764 16.9761 19.8638 20.906C19.2675 21.3447 18.5363 21.5997 17.7413 21.5997C14.5426 21.5997 11.3439 21.5997 8.14149 21.5997C6.15403 21.5997 4.54155 19.9873 4.54155 17.9998C4.54155 15.4012 4.54155 12.7988 4.54155 10.2001ZM10.5414 6.60022C10.5414 7.2002 10.5414 7.80018 10.5414 8.40016C12.1427 8.40016 13.7401 8.40016 15.3414 8.40016C15.3414 7.80018 15.3414 7.2002 15.3414 6.60022C15.3414 5.27651 14.2651 4.2003 12.9414 4.2003C11.6177 4.2003 10.5414 5.27651 10.5414 6.60022ZM15.3414 11.1001C15.3414 11.5988 15.7426 12 16.2413 12C16.7401 12 17.1413 11.5988 17.1413 11.1001C17.1413 10.6013 16.7401 10.2001 16.2413 10.2001C15.7426 10.2001 15.3414 10.6013 15.3414 11.1001Z" fill="#262626"/>
</g>
<defs>
<clipPath id="clip0_16252_13241">
<rect width="24" height="24" fill="white" transform="translate(0.941406)"/>
</clipPath>
</defs>
</svg>
