<svg width="24" height="24" viewBox="0 0 24 24" fill="none" xmlns="http://www.w3.org/2000/svg">
<path d="M4.79029 15L3.39029 21H20.6097L19.2097 15H14.625L16.125 13.5H20.4L22.5 22.5H1.5L3.6 13.5H8.25L9.375 15H4.79029Z" fill="#262626"/>
<path fill-rule="evenodd" clip-rule="evenodd" d="M7.21351 4.28159C4.59501 6.93561 4.59501 11.2442 7.21643 13.9021L11.9994 18.75L16.7832 13.9022C19.351 11.2996 19.4044 7.11438 16.9437 4.44669L16.7485 4.24344C14.1262 1.58553 9.87362 1.58553 7.25047 4.24339L7.21351 4.28159ZM8.32301 5.29206L8.28645 5.32986L8.28129 5.33508C6.23966 7.40441 6.23851 10.7743 8.28421 12.8486L11.9995 16.6143L15.7155 12.8487C17.7151 10.8219 17.7607 7.55585 15.8507 5.47416L15.674 5.29017C13.6403 3.23612 10.3571 3.23647 8.32301 5.29206Z" fill="#262626"/>
<path fill-rule="evenodd" clip-rule="evenodd" d="M11.9997 7.125C10.9643 7.125 10.125 7.96444 10.125 9C10.125 10.0356 10.9643 10.875 11.9997 10.875C13.0352 10.875 13.875 10.0355 13.875 9C13.875 7.96452 13.0352 7.125 11.9997 7.125Z" fill="#262626"/>
</svg>
