<svg width="24" height="24" viewBox="0 0 24 24" fill="none" xmlns="http://www.w3.org/2000/svg">
<path fill-rule="evenodd" clip-rule="evenodd" d="M12.0005 3C7.02927 3 3 7.029 3 12C3 16.971 7.02927 21 12.0005 21C16.9708 21 21 16.971 21 12C21 7.02905 16.9708 3 12.0005 3ZM1.5 12C1.5 6.20049 6.20094 1.5 12.0005 1.5C17.7992 1.5 22.5 6.20066 22.5 12C22.5 17.7993 17.7992 22.5 12.0005 22.5C6.20094 22.5 1.5 17.7995 1.5 12Z" fill="#262626"/>
<path fill-rule="evenodd" clip-rule="evenodd" d="M13.125 7.875C13.125 8.49598 12.6217 9 11.9986 9C11.3783 9 10.875 8.49598 10.875 7.875C10.875 7.25541 11.3783 6.75 11.9986 6.75C12.6217 6.75 13.125 7.25541 13.125 7.875Z" fill="#262626"/>
<path fill-rule="evenodd" clip-rule="evenodd" d="M12.75 16.5V10.5H11.25L11.25 16.5H12.75Z" fill="#262626"/>
</svg>
