<svg width="25" height="24" viewBox="0 0 25 24" fill="none" xmlns="http://www.w3.org/2000/svg">
<path d="M13.9914 5.17546H21.3414C21.6302 5.17546 21.8664 5.41171 21.8664 5.70046V18.3005C21.8664 18.5892 21.6302 18.8255 21.3414 18.8255H16.0914C16.0914 19.4161 15.8945 19.9608 15.5664 20.4005H21.3414C22.4997 20.4005 23.4414 19.4587 23.4414 18.3005V5.70046C23.4414 4.54218 22.4997 3.60046 21.3414 3.60046H13.9914C12.8331 3.60046 11.8914 4.54218 11.8914 5.70046V7.6889L13.4664 9.13265V5.70046C13.4664 5.41171 13.7027 5.17546 13.9914 5.17546ZM15.9995 12.0005H16.6164C16.9052 12.0005 17.1414 11.7642 17.1414 11.4755V10.4255C17.1414 10.1367 16.9052 9.90046 16.6164 9.90046H15.5664C15.2777 9.90046 15.0414 10.1367 15.0414 10.4255V10.5764L15.2416 10.7602C15.6091 11.0981 15.8716 11.528 15.9995 12.0037V12.0005ZM16.0914 15.1505H16.6164C16.9052 15.1505 17.1414 14.9142 17.1414 14.6255V13.5755C17.1414 13.2867 16.9052 13.0505 16.6164 13.0505H16.0914V15.1505ZM18.1914 10.4255V11.4755C18.1914 11.7642 18.4277 12.0005 18.7164 12.0005H19.7664C20.0552 12.0005 20.2914 11.7642 20.2914 11.4755V10.4255C20.2914 10.1367 20.0552 9.90046 19.7664 9.90046H18.7164C18.4277 9.90046 18.1914 10.1367 18.1914 10.4255ZM18.7164 13.0505C18.4277 13.0505 18.1914 13.2867 18.1914 13.5755V14.6255C18.1914 14.9142 18.4277 15.1505 18.7164 15.1505H19.7664C20.0552 15.1505 20.2914 14.9142 20.2914 14.6255V13.5755C20.2914 13.2867 20.0552 13.0505 19.7664 13.0505H18.7164ZM15.5664 6.75046C15.2777 6.75046 15.0414 6.98671 15.0414 7.27546V8.32546C15.0414 8.61421 15.2777 8.85046 15.5664 8.85046H16.6164C16.9052 8.85046 17.1414 8.61421 17.1414 8.32546V7.27546C17.1414 6.98671 16.9052 6.75046 16.6164 6.75046H15.5664ZM18.1914 7.27546V8.32546C18.1914 8.61421 18.4277 8.85046 18.7164 8.85046H19.7664C20.0552 8.85046 20.2914 8.61421 20.2914 8.32546V7.27546C20.2914 6.98671 20.0552 6.75046 19.7664 6.75046H18.7164C18.4277 6.75046 18.1914 6.98671 18.1914 7.27546ZM3.12391 11.377C2.6875 11.7741 2.44141 12.3352 2.44141 12.9258V18.3005C2.44141 19.4587 3.38313 20.4005 4.54141 20.4005H12.9414C14.0997 20.4005 15.0414 19.4587 15.0414 18.3005V12.9258C15.0414 12.3384 14.7953 11.7741 14.3589 11.377L10.1589 7.52812C9.355 6.79312 8.12453 6.79312 7.32062 7.52812L3.12391 11.377ZM4.01641 12.9258C4.01641 12.7781 4.07875 12.637 4.18703 12.5386L8.38703 8.6864C8.58719 8.50265 8.89562 8.50265 9.09578 8.6864L13.2958 12.5353C13.4041 12.6337 13.4664 12.7748 13.4664 12.9225V18.3005C13.4664 18.5892 13.2302 18.8255 12.9414 18.8255H4.54141C4.25266 18.8255 4.01641 18.5892 4.01641 18.3005V12.9258ZM7.16641 13.313V14.888C7.16641 15.3244 7.5175 15.6755 7.95391 15.6755H9.52891C9.96531 15.6755 10.3164 15.3244 10.3164 14.888V13.313C10.3164 12.8766 9.96531 12.5255 9.52891 12.5255H7.95391C7.5175 12.5255 7.16641 12.8766 7.16641 13.313Z" fill="#262626"/>
</svg>
