<svg width="24" height="24" viewBox="0 0 24 24" fill="none" xmlns="http://www.w3.org/2000/svg">
<path d="M15.8445 16.5C15.7828 16.7397 15.75 16.991 15.75 17.25C15.75 18.9069 17.0931 20.25 18.75 20.25C20.4069 20.25 21.75 18.9069 21.75 17.25C21.75 16.991 21.7172 16.7397 21.6555 16.5H20.0493C20.177 16.7206 20.25 16.9768 20.25 17.25C20.25 18.0784 19.5784 18.75 18.75 18.75C17.9216 18.75 17.25 18.0784 17.25 17.25C17.25 16.9768 17.323 16.7206 17.4507 16.5H15.8445Z" fill="#262626"/>
<path fill-rule="evenodd" clip-rule="evenodd" d="M22.1372 15C21.4832 13.257 20.0275 12.0755 18.3726 12.0755H17.1378C17.1378 12.0755 16.5 12.7499 16.5 13.4999C16.5 14.2499 15.75 14.9999 15 14.9999C14.8625 15.5721 14.25 16.5 14.25 16.5H22.5L22.4092 15.9939C22.347 15.6468 22.2551 15.3143 22.1372 15ZM20.4934 15C19.9677 14.0613 19.1263 13.5755 18.3726 13.5755H17.9989C17.9838 14.1107 17.8097 14.5953 17.56 15H20.4934Z" fill="#262626"/>
<path d="M3.84451 16.5C3.78281 16.7397 3.75 16.991 3.75 17.25C3.75 18.9069 5.09315 20.25 6.75 20.25C8.40685 20.25 9.75 18.9069 9.75 17.25C9.75 16.991 9.71718 16.7397 9.65549 16.5H8.04933C8.17695 16.7206 8.25 16.9768 8.25 17.25C8.25 18.0784 7.57843 18.75 6.75 18.75C5.92157 18.75 5.25 18.0784 5.25 17.25C5.25 16.9768 5.32305 16.7206 5.45067 16.5H3.84451Z" fill="#262626"/>
<path fill-rule="evenodd" clip-rule="evenodd" d="M1.5 16.5L1.61551 15.8995C1.6752 15.5892 1.75619 15.2887 1.85656 15C2.62875 12.7787 4.54839 11.25 6.74692 11.25C8.94683 11.25 10.8702 12.7793 11.6432 15C11.7437 15.2888 11.8248 15.5892 11.8845 15.8995L12 16.5H1.5ZM10.0257 15C9.35092 13.5889 8.06137 12.75 6.74692 12.75C5.43477 12.75 4.14759 13.5876 3.47365 15H10.0257Z" fill="#262626"/>
<path fill-rule="evenodd" clip-rule="evenodd" d="M16.5 5.25H13.5779V3.75H18V13.4651C18 14.85 17.0155 15.9993 15.6977 16.3643C15.4691 16.4309 15.2359 16.4739 14.996 16.4913L14.9824 16.4923L14.7671 16.5H9.75V15H14.7401L14.9002 14.9942C15.0275 14.9842 15.1535 14.9607 15.2816 14.9231L15.2878 14.9213L15.294 14.9196C16.0385 14.715 16.5 14.1023 16.5 13.4651V5.25Z" fill="#262626"/>
<path fill-rule="evenodd" clip-rule="evenodd" d="M20.25 6.75V9.75H18.75V6.75H20.25Z" fill="#262626"/>
<path fill-rule="evenodd" clip-rule="evenodd" d="M9.75 9.75H3.75C3.33579 9.75 3 10.0858 3 10.5C3 10.9142 3.33579 11.25 3.75 11.25H9.75C10.1642 11.25 10.5 10.9142 10.5 10.5C10.5 10.0858 10.1642 9.75 9.75 9.75ZM3.75 8.25C2.50736 8.25 1.5 9.25736 1.5 10.5C1.5 11.7426 2.50736 12.75 3.75 12.75H9.75C10.9926 12.75 12 11.7426 12 10.5C12 9.25736 10.9926 8.25 9.75 8.25H3.75Z" fill="#262626"/>
</svg>
