<svg width="25" height="25" viewBox="0 0 25 25" fill="none" xmlns="http://www.w3.org/2000/svg">
<path d="M5.55645 3.09655C5.61797 2.55518 5.22832 2.07123 4.68691 2.00971C4.14551 1.94819 3.66152 2.33781 3.6 2.87918L2.94375 8.78501L2.93555 8.83832V8.89164V9.54784C2.93555 11.5411 4.55156 13.157 6.54492 13.157H6.87305V22.0157C6.87305 22.5612 7.31191 23 7.85742 23C8.40293 23 8.8418 22.5612 8.8418 22.0157V13.157H9.16992C11.1633 13.157 12.7793 11.5411 12.7793 9.54784V8.89164V8.83832L12.7752 8.78501L12.1189 2.87918C12.0574 2.33781 11.5693 1.94819 11.0279 2.00561C10.4865 2.06303 10.0969 2.55108 10.1584 3.09245L10.8105 8.94496V9.54784C10.8105 10.4542 10.0764 11.1884 9.16992 11.1884H7.85742H6.54492C5.63848 11.1884 4.9043 10.4542 4.9043 9.54784V8.94496L5.55645 3.09655ZM8.8418 2.98581C8.8418 2.44035 8.40293 2.00151 7.85742 2.00151C7.31191 2.00151 6.87305 2.44035 6.87305 2.98581V8.89164C6.87305 9.43711 7.31191 9.87595 7.85742 9.87595C8.40293 9.87595 8.8418 9.43711 8.8418 8.89164V2.98581ZM16.3887 9.21974C16.3887 6.85331 17.2787 5.58602 18.0867 4.8847C18.4025 4.61402 18.7225 4.40895 19.0137 4.26131V12.1727V14.4694H17.0449C16.684 14.4694 16.3887 14.1741 16.3887 13.8132V9.21974ZM19.0137 16.438V22.0157C19.0137 22.5612 19.4525 23 19.998 23C20.5436 23 20.9824 22.5612 20.9824 22.0157V16.438V14.4694V12.1727V3.31392C20.9824 2.58799 20.3959 2.00151 19.6699 2.00151C19.0137 2.00151 14.4199 3.31392 14.4199 9.21974V13.8132C14.4199 15.2609 15.5971 16.438 17.0449 16.438H19.0137Z" fill="#262626"/>
</svg>
