<svg width="24" height="24" viewBox="0 0 24 24" fill="none" xmlns="http://www.w3.org/2000/svg">
<path d="M11.6501 21.75C10.7901 21.75 9.95065 21.6469 9.13188 21.4408C8.31262 21.2347 7.57543 20.9258 6.92032 20.5141C7.41178 18.4342 8.18484 16.4675 9.23951 14.614C10.2937 12.7605 11.6194 11.1334 13.2166 9.73263C11.3737 10.8037 9.77127 12.1886 8.40944 13.8874C7.0481 15.5867 6.11138 17.4971 5.59928 19.6185C5.49706 19.4949 5.38943 19.3919 5.27639 19.3093C5.16385 19.2268 5.05647 19.1237 4.95424 19.0001C4.07355 18.1149 3.40295 17.1162 2.94246 16.0041C2.48147 14.892 2.25098 13.749 2.25098 12.5752C2.25098 11.2362 2.50187 9.97482 3.00364 8.79105C3.50542 7.60679 4.22738 6.55128 5.1695 5.62453C6.66402 4.12097 8.57359 3.14256 10.8982 2.68932C13.2223 2.23657 16.7596 2.13376 21.51 2.3809C21.8786 6.89109 21.8223 10.3819 21.3412 12.8532C20.86 15.3245 19.8619 17.3221 18.3467 18.8459C17.4252 19.7934 16.391 20.5143 15.2439 21.0086C14.0973 21.5029 12.8994 21.75 11.6501 21.75Z" fill="#262626"/>
</svg>
