<svg width="25" height="24" viewBox="0 0 25 24" fill="none" xmlns="http://www.w3.org/2000/svg">
<path d="M12.125 1.5C11.394 1.5 10.8034 2.08652 10.8034 2.8125V3.54668C7.80928 4.01836 5.5172 6.59414 5.5172 9.70312V11.073C5.5172 12.9352 4.87707 14.7439 3.70831 16.1959L3.09296 16.9629C2.85343 17.2582 2.808 17.6643 2.97319 18.0047C3.13839 18.3451 3.4853 18.5625 3.86525 18.5625H20.3848C20.7647 18.5625 21.1116 18.3451 21.2768 18.0047C21.442 17.6643 21.3966 17.2582 21.157 16.9629L20.5417 16.2C19.3729 14.7439 18.7328 12.9352 18.7328 11.073V9.70312C18.7328 6.59414 16.4407 4.01836 13.4466 3.54668V2.8125C13.4466 2.08652 12.856 1.5 12.125 1.5ZM12.125 5.4375H12.4554C14.8259 5.4375 16.7505 7.34883 16.7505 9.70312V11.073C16.7505 13.0377 17.3245 14.9531 18.39 16.5938H5.85998C6.92549 14.9531 7.49954 13.0377 7.49954 11.073V9.70312C7.49954 7.34883 9.42406 5.4375 11.7946 5.4375H12.125ZM14.7681 19.875H12.125H9.48188C9.48188 20.5723 9.75858 21.2408 10.2542 21.733C10.7498 22.2252 11.4229 22.5 12.125 22.5C12.8271 22.5 13.5002 22.2252 13.9958 21.733C14.4914 21.2408 14.7681 20.5723 14.7681 19.875Z" fill="#262626"/>
</svg>
