<svg width="192" height="148" viewBox="0 0 192 148" fill="none" xmlns="http://www.w3.org/2000/svg">
<g clip-path="url(#clip0_2500_7840)">
<path d="M165.362 62.174L198.903 75.3952C203.018 77.0174 203.018 82.8418 198.903 84.4641L165.362 97.6852C141.372 107.128 122.441 126.103 112.954 150.093L99.7326 183.634C98.1104 187.75 92.286 187.75 90.6637 183.634L77.4426 150.093C68.0001 126.148 49.0246 107.173 25.0343 97.6852L-8.50636 84.4641C-12.6218 82.8418 -12.6218 77.0174 -8.50636 75.3952L25.0343 62.174C48.9795 52.7315 67.9549 33.7561 77.4426 9.76572L90.6637 -23.7749C92.286 -27.8904 98.1104 -27.8904 99.7326 -23.7749L112.954 9.76572C122.396 33.7109 141.372 52.6863 165.362 62.174Z" fill="white"/>
<path d="M137.214 66.5114L152.294 72.4556C156.784 74.2257 156.784 80.581 152.294 82.3512L137.214 88.2953C122.497 94.0877 110.885 105.728 105.065 120.445L99.1207 135.524C97.3506 140.015 90.9952 140.015 89.2251 135.524L83.281 120.445C77.4886 105.756 65.8483 94.1154 51.1317 88.2953L36.0521 82.3512C31.5614 80.581 31.5614 74.2257 36.052 72.4556L51.1317 66.5114C65.8206 60.719 77.4608 49.0788 83.281 34.3622L89.2251 19.2825C90.9952 14.7919 97.3506 14.7919 99.1207 19.2825L105.065 34.3622C110.857 49.0511 122.497 60.6913 137.214 66.5114Z" fill="#E5F5EC"/>
<path d="M57.8154 32.5217L60.1656 33.5061C61.036 33.8706 61.036 35.1037 60.1656 35.4682L57.8154 36.4526C55.316 37.4978 53.3438 39.5983 52.3554 42.2538L51.5028 44.5519C51.1596 45.4768 49.8514 45.4768 49.5083 44.5519L48.6557 42.2538C47.672 39.6033 45.6951 37.5028 43.1957 36.4526L40.8455 35.4682C39.9751 35.1037 39.9751 33.8706 40.8455 33.5061L43.1957 32.5217C45.6904 31.4765 47.6673 29.376 48.6557 26.7205L49.5083 24.4224C49.8514 23.4975 51.1596 23.4975 51.5028 24.4224L52.3554 26.7205C53.3391 29.371 55.316 31.4715 57.8154 32.5217Z" fill="#F8B825"/>
<path d="M148.128 109.269L150.017 110.014C150.915 110.368 150.915 111.639 150.017 111.993L148.128 112.738C145.785 113.66 143.936 115.513 143.009 117.856L142.264 119.745C141.91 120.644 140.639 120.644 140.285 119.745L139.541 117.856C138.618 115.518 136.765 113.664 134.422 112.738L132.533 111.993C131.635 111.639 131.635 110.368 132.533 110.014L134.422 109.269C136.761 108.347 138.614 106.494 139.541 104.15L140.285 102.261C140.639 101.363 141.91 101.363 142.264 102.261L143.009 104.15C143.931 106.489 145.785 108.343 148.128 109.269Z" fill="#F8B825"/>
<path d="M145.117 41.6719L146.275 42.1281C147.173 42.4822 147.173 43.7532 146.275 44.1072L145.117 44.5635C143.164 45.3324 141.622 46.8776 140.85 48.8311L140.393 49.9886C140.039 50.8868 138.768 50.8868 138.414 49.9886L137.958 48.8311C137.189 46.8813 135.644 45.3361 133.69 44.5635L132.533 44.1072C131.635 43.7532 131.635 42.4822 132.533 42.1281L133.69 41.6719C135.64 40.903 137.185 39.3578 137.958 37.4043L138.414 36.2467C138.768 35.3486 140.039 35.3486 140.393 36.2467L140.85 37.4043C141.619 39.3541 143.164 40.8993 145.117 41.6719Z" fill="#00A346"/>
<path d="M49.6923 100.498L50.9948 101.012C51.8929 101.366 51.8929 102.637 50.9948 102.991L49.6923 103.504C47.6616 104.303 46.0592 105.91 45.2561 107.94L44.7427 109.243C44.3886 110.141 43.1176 110.141 42.7635 109.243L42.2501 107.94C41.4508 105.913 39.8446 104.307 37.8139 103.504L36.5114 102.991C35.6133 102.637 35.6133 101.366 36.5114 101.012L37.8139 100.498C39.8408 99.6989 41.447 98.0926 42.2501 96.0619L42.7635 94.7594C43.1176 93.8613 44.3886 93.8613 44.7427 94.7594L45.2561 96.0619C46.0554 98.0888 47.6616 99.6951 49.6923 100.498Z" fill="#00A346"/>
<line x1="96.9783" y1="16.658" x2="96.9783" y2="34.3573" stroke="#00A346" stroke-width="4.85115" stroke-linecap="round"/>
<line x1="79.3258" y1="27.9538" x2="84.0092" y2="36.0521" stroke="#B2E3C7" stroke-width="4.85115" stroke-linecap="round"/>
<line x1="2.42558" y1="-2.42558" x2="11.7807" y2="-2.42558" transform="matrix(-0.500634 0.865659 0.865659 0.500634 115.908 27.0684)" stroke="#B2E3C7" stroke-width="4.85115" stroke-linecap="round"/>
<path d="M33.4995 153.644C33.4995 153.644 48.4288 134.029 55.7189 116.735C57.969 111.396 60.867 101.958 60.867 101.958L83.843 110.492C83.843 110.492 79.2663 133.376 64.2286 153.644L33.4995 153.644Z" fill="#ED9D73"/>
<path d="M62.1413 104.638L58.3426 97.5432C56.3006 90.6696 56.148 86.6646 57.083 79.5106L58.5444 68.2826C58.7609 66.6097 60.0943 65.3846 61.6443 65.4289C63.1746 65.4732 64.4392 66.7426 64.5966 68.4007L66.5845 88.9918" fill="#ED9D73"/>
<path d="M60.4336 112.14C60.4336 112.14 64.2175 72.8327 64.8424 47.8971C64.9457 43.7641 68.3606 40.6791 72.11 41.3236L73.5419 41.5697C82.148 43.0556 88.5988 50.9427 88.958 60.4239L89.7059 80.0409C89.7059 80.0409 98.2776 104.995 79.9485 119.786" fill="#ED9D73"/>
<path d="M82.3256 47.6562C82.3256 47.6562 81.0217 65.5068 81.2332 73.5465L78.96 76.1492" stroke="#221F20" stroke-width="3.26906" stroke-miterlimit="10" stroke-linecap="round"/>
<path d="M73.4291 42.9277C73.4291 42.9277 71.2936 59.3711 71.6922 72.4835L70.0635 74.4909" stroke="#221F20" stroke-width="3.26906" stroke-miterlimit="10" stroke-linecap="round"/>
<path d="M63.9855 69.291C63.9855 69.291 63.6362 75.0624 63.7444 77.6898" stroke="#221F20" stroke-width="3.26906" stroke-miterlimit="10" stroke-linecap="round"/>
<path d="M399.14 208.571C389.366 201.184 377.217 198.087 365.102 196.253C333.831 191.519 316.844 174.924 309.283 157.367C294.062 111.182 240.895 92.696 213.903 129.613C210.31 134.525 207.87 140.184 206.578 146.126C203.636 159.649 197.155 172.157 189.286 184.313C160.847 228.256 139.494 277.42 152.927 327.385C162.232 361.991 197.518 402.154 231.574 413.312L287.289 431.57C318.787 441.89 352.96 441.319 383.85 429.307C436.82 408.71 451.235 366.043 451.235 366.043C470.465 285.141 449.572 246.687 399.14 208.571Z" fill="#8C2521"/>
<path d="M213.574 214.002C213.574 214.002 149.177 190.359 131.177 136.877C124.024 115.624 118.667 88.9954 118.667 88.9954L101.133 112.55C101.133 112.55 96.6178 205.039 188.23 255.831L213.574 214.002Z" fill="#FDC3A4"/>
<path d="M122.436 90.3664C123.215 71.8571 123.728 51.0041 123.893 43.6474C123.925 42.1579 122.585 41.0101 121.122 41.277C114.412 42.4889 99.4259 46.2206 98.6945 66.3369C98.1286 81.8939 94.1673 94.6694 94.5036 102.934C94.7225 108.411 97.1089 114.172 100.446 118.528L105.859 125.602L124.844 117.139C122.436 105.754 122.014 100.494 122.441 90.3664H122.436Z" fill="#FDC3A4"/>
<path d="M101.882 79.1078C101.882 79.1078 107.813 74.6606 117.07 73.5342" stroke="#221F20" stroke-width="3.26906" stroke-miterlimit="10" stroke-linecap="round"/>
<path d="M118.255 42.7451C118.255 42.7451 112.468 56.1292 114.059 73.2184" stroke="#221F20" stroke-width="3.26906" stroke-miterlimit="10" stroke-linecap="round"/>
<path d="M108.897 47.5449C108.897 47.5449 104.748 56.3645 105.464 76.4914" stroke="#221F20" stroke-width="3.26906" stroke-miterlimit="10" stroke-linecap="round"/>
<path d="M111.182 89.929C111.182 89.929 112.698 83.5275 120.611 84.1727C120.611 84.1727 125.545 74.5956 134.756 73.1586C136.167 72.9408 137.57 73.5943 138.286 74.8218C138.649 75.4419 138.556 76.2253 138.059 76.7448C135.194 79.7361 125.907 89.5435 124.643 92.3798C124.643 92.3798 120.986 99.9334 121.079 103.478" fill="#FDC3A4"/>
<path d="M111.182 89.929C111.182 89.929 112.698 83.5275 120.611 84.1727C120.611 84.1727 125.545 74.5956 134.756 73.1586C136.167 72.9408 137.57 73.5943 138.286 74.8218C138.649 75.4419 138.556 76.2253 138.059 76.7448C135.194 79.7361 125.907 89.5435 124.643 92.3798C124.643 92.3798 120.986 99.9334 121.079 103.478" stroke="#221F20" stroke-width="3.26906" stroke-miterlimit="10" stroke-linecap="round"/>
</g>
<defs>
<clipPath id="clip0_2500_7840">
<rect width="192" height="148" fill="white"/>
</clipPath>
</defs>
</svg>
