<svg width="24" height="24" viewBox="0 0 24 24" fill="none" xmlns="http://www.w3.org/2000/svg">
<path d="M3.31055 3.31055L20.2811 20.2811L19.2204 21.3418L2.24989 4.37121L3.31055 3.31055Z" fill="#262626"/>
<path d="M6.86594 6.86543C6.13024 7.32149 5.40606 7.8648 4.69596 8.48328C3.89478 9.18109 3.16848 9.92759 2.52908 10.6744L2.21291 11.0528C2.1143 11.1738 2.02253 11.2896 1.93781 11.3992L1.7247 11.6836L1.5 12L1.80708 12.429C1.84267 12.4766 1.88631 12.5341 1.93781 12.6008L2.21291 12.9472C2.31152 13.0683 2.41697 13.1946 2.52908 13.3256C3.16848 14.0724 3.89478 14.8189 4.69596 15.5167C7.01051 17.5326 9.47466 18.75 11.9995 18.75C13.7503 18.75 15.4719 18.1648 17.1346 17.1341L14.6519 14.6513C13.9732 15.3301 13.0356 15.75 12 15.75C9.92841 15.75 8.25 14.0712 8.25 12C8.25 10.9642 8.66974 10.0266 9.34849 9.34798L6.86594 6.86543Z" fill="#262626"/>
<path d="M10.4091 10.4086C10.0019 10.8158 9.75 11.3784 9.75 12C9.75 13.2428 10.7569 14.25 12 14.25C12.6214 14.25 13.184 13.998 13.5912 13.5907L10.4091 10.4086Z" fill="#262626"/>
<path d="M14.2466 12.1248L11.8752 9.7534C11.9165 9.75114 11.9581 9.75 12 9.75C13.2425 9.75 14.25 10.7575 14.25 12C14.25 12.0419 14.2489 12.0835 14.2466 12.1248Z" fill="#262626"/>
<path d="M15.4918 13.37C15.6585 12.9456 15.75 12.4835 15.75 12C15.75 9.92906 14.0709 8.25 12 8.25C11.5164 8.25 11.0543 8.34148 10.6299 8.50808L8.24391 6.12208C9.47283 5.55851 10.7285 5.25 11.9995 5.25C14.5247 5.25 16.9892 6.46736 19.3039 8.48327C20.1051 9.18108 20.8315 9.92758 21.4709 10.6744C21.6951 10.9363 21.8927 11.1799 22.0622 11.3992L22.1335 11.4922L22.5 12L22.2753 12.3164L22.0622 12.6008C21.9775 12.7104 21.8857 12.8262 21.7871 12.9472L21.4709 13.3256C20.8315 14.0724 20.1051 14.8189 19.3039 15.5167C19.001 15.7805 18.6956 16.0306 18.3879 16.266L15.4918 13.37Z" fill="#262626"/>
</svg>
