<svg width="24" height="24" viewBox="0 0 24 24" fill="none" xmlns="http://www.w3.org/2000/svg">
<path fill-rule="evenodd" clip-rule="evenodd" d="M10.1684 14.8562L9.32551 16.3422C8.1016 18.6293 8.73506 21.123 11.2417 22.299L11.6701 22.5L17.1548 14.531C17.488 14.0468 18.0445 13.7563 18.6395 13.7563H22.5V1.5H6.33094C4.69404 1.5 1.65893 5.03989 1.50916 8.46529C1.41636 10.6037 2.03209 12.0737 3.18662 12.9357C3.97451 13.5239 4.86585 13.7445 5.72527 13.7559L9.50828 13.7563C10.2893 13.7415 10.5318 14.1382 10.1684 14.8562ZM5.73612 12.2559L9.49627 12.2563C10.0237 12.2488 11.0092 12.3567 11.552 13.2567C12.0873 14.1443 11.7417 15.0694 11.5068 15.5335L11.4907 15.5653L10.64 17.065C10.1929 17.9084 10.135 18.6884 10.3207 19.304C10.4508 19.735 10.7242 20.1668 11.202 20.5344L15.9191 13.6806C16.5361 12.7842 17.5576 12.2563 18.6395 12.2563H21V3H6.34146C6.34505 3.00003 6.34687 3.00016 6.34694 3.00058C6.34765 3.00484 6.16696 3.03912 5.80443 3.30932C5.42542 3.59181 4.98666 4.03083 4.56359 4.59651C3.70356 5.74643 3.0659 7.20377 3.00776 8.53033C2.92864 10.3534 3.45278 11.2625 4.08399 11.7337C4.56347 12.0917 5.12459 12.2463 5.73612 12.2559Z" fill="#262626"/>
</svg>
