<svg width="25" height="24" viewBox="0 0 25 24" fill="none" xmlns="http://www.w3.org/2000/svg">
<path d="M10.7371 3.46875H14.6064C14.7179 3.46875 14.8211 3.52207 14.8831 3.61641L15.6677 4.78125H9.67997L10.4646 3.61641C10.5265 3.52617 10.6297 3.46875 10.7412 3.46875H10.7371ZM18.0504 4.78125L16.5349 2.52129C16.1054 1.88555 15.3828 1.5 14.6105 1.5H10.7371C9.9649 1.5 9.24224 1.88555 8.81278 2.52129L7.29727 4.78125H6.73153H4.74526H4.4149C3.86568 4.78125 3.42383 5.22012 3.42383 5.76562C3.42383 6.31113 3.86568 6.75 4.4149 6.75H4.89392L5.88499 20.0678C5.98823 21.4377 7.13622 22.5 8.51959 22.5H16.8281C18.2114 22.5 19.3594 21.4377 19.4627 20.0678L20.4537 6.75H20.9328C21.482 6.75 21.9238 6.31113 21.9238 5.76562C21.9238 5.22012 21.482 4.78125 20.9328 4.78125H20.6024H18.6161H18.0504ZM18.4675 6.75L17.4847 19.9242C17.4599 20.2688 17.1708 20.5312 16.8239 20.5312H8.51959C8.17271 20.5312 7.88778 20.2646 7.85887 19.9242L6.88019 6.75H18.4675Z" fill="#262626"/>
</svg>
