<svg width="24" height="24" viewBox="0 0 24 24" fill="none" xmlns="http://www.w3.org/2000/svg">
<path fill-rule="evenodd" clip-rule="evenodd" d="M22.5 11.25V12.75H1.5V11.25H22.5Z" fill="#262626"/>
<path fill-rule="evenodd" clip-rule="evenodd" d="M5.25 4.5C4.83579 4.5 4.5 4.83579 4.5 5.25V7.41667H3V5.25C3 4.00736 4.00736 3 5.25 3H7.41667V4.5H5.25ZM18.75 4.5H16.5833V3H18.75C19.9926 3 21 4.00736 21 5.25V7.41667H19.5V5.25C19.5 4.83579 19.1642 4.5 18.75 4.5ZM4.5 16.5833V18.75C4.5 19.1642 4.83579 19.5 5.25 19.5H7.41667V21H5.25C4.00736 21 3 19.9926 3 18.75V16.5833H4.5ZM19.5 18.75V16.5833H21V18.75C21 19.9926 19.9926 21 18.75 21H16.5833V19.5H18.75C19.1642 19.5 19.5 19.1642 19.5 18.75Z" fill="#262626"/>
</svg>
