<svg width="101" height="101" viewBox="0 0 101 101" fill="none" xmlns="http://www.w3.org/2000/svg">
<g clip-path="url(#clip0_142_3946)">
<path d="M65.0574 20.7402L79.3808 35.0636C80.371 36.0538 80.6518 37.5804 80.0102 38.8338C78.962 40.8829 78.9847 43.3443 80.0728 45.3613C80.7355 46.5925 80.4695 48.1221 79.4769 49.1147L51.0343 77.5574C50.0308 78.5608 48.4857 78.8361 47.2421 78.1704C45.1864 77.0684 42.6676 77.0723 40.6044 78.1809C39.3556 78.8519 37.8088 78.582 36.8109 77.584L22.5014 63.2746C21.4911 62.2643 21.2986 60.7204 21.9666 59.4499C23.0458 57.3913 23.034 54.8943 21.9352 52.8541C21.2647 51.609 21.5401 50.0608 22.5435 49.0573L50.9753 20.6255C51.971 19.6298 53.5053 19.3654 54.7365 20.0343C56.7565 21.1286 59.221 21.1574 61.2748 20.1077C62.5313 19.466 64.0625 19.7484 65.0558 20.7417L65.0574 20.7402Z" fill="#A1A1A1"/>
<path d="M62.0181 23.7785L76.3415 38.1019C77.3317 39.0921 77.6125 40.6187 76.9709 41.8721C75.9227 43.9213 75.9454 46.3826 77.0335 48.3996C77.6962 49.6308 77.4302 51.1605 76.4376 52.153L47.9949 80.5957C46.9915 81.5991 45.4464 81.8745 44.2028 81.2087C42.1471 80.1068 39.6283 80.1106 37.5651 81.2192C36.3162 81.8903 34.7695 81.6203 33.7715 80.6224L19.4621 66.3129C18.4518 65.3026 18.2593 63.7587 18.9273 62.4882C20.0064 60.4297 19.9947 57.9326 18.8958 55.8925C18.2254 54.6473 18.5008 53.0991 19.5042 52.0956L47.936 23.6638C48.9317 22.6682 50.466 22.4037 51.6972 23.0726C53.7172 24.1669 56.1817 24.1957 58.2355 23.146C59.492 22.5044 61.0232 22.7867 62.0165 23.7801L62.0181 23.7785Z" fill="#D1CDCE"/>
<path d="M26.0486 54.6677L45.8017 74.4209" stroke="#8D8A8A" stroke-width="2.99994" stroke-miterlimit="10" stroke-linecap="round" stroke-dasharray="6 6"/>
<path d="M51.8813 28.8367L71.6345 48.5898" stroke="#8D8A8A" stroke-width="2.99994" stroke-miterlimit="10" stroke-linecap="round" stroke-dasharray="6 6"/>
<path d="M47.0816 42.6162L50.7143 61.603" stroke="white" stroke-width="3.36711" stroke-miterlimit="10" stroke-linecap="round"/>
<circle cx="40.2028" cy="53.8667" r="3.55956" transform="rotate(-15 40.2028 53.8667)" stroke="white" stroke-width="2.69151" stroke-miterlimit="10" stroke-linecap="round"/>
<circle cx="57.3097" cy="49.2829" r="3.55956" transform="rotate(-15 57.3097 49.2829)" stroke="white" stroke-width="2.69151" stroke-miterlimit="10" stroke-linecap="round"/>
<circle cx="49.9928" cy="50.713" r="46.9461" transform="rotate(-47.0416 49.9928 50.713)" stroke="#DB3530" stroke-width="2.75706"/>
<line x1="15.5661" y1="16.7726" x2="86.2988" y2="82.6358" stroke="#DB3530" stroke-width="2.75706"/>
</g>
<defs>
<clipPath id="clip0_142_3946">
<rect width="100.279" height="100.279" fill="white" transform="translate(0 0.720947)"/>
</clipPath>
</defs>
</svg>
