<svg width="24" height="24" viewBox="0 0 24 24" fill="none" xmlns="http://www.w3.org/2000/svg">
<path d="M9.75 12C9.75 10.7572 10.7569 9.75 12 9.75C13.2425 9.75 14.25 10.7575 14.25 12C14.25 13.2425 13.2425 14.25 12 14.25C10.7569 14.25 9.75 13.2428 9.75 12Z" fill="#262626"/>
<path fill-rule="evenodd" clip-rule="evenodd" d="M4.69596 8.48328C7.01051 6.46737 9.47466 5.25 11.9995 5.25C14.5247 5.25 16.9892 6.46736 19.3039 8.48327C20.1051 9.18108 20.8315 9.92758 21.4709 10.6744C21.6951 10.9363 21.8927 11.1799 22.0622 11.3992L22.1335 11.4922L22.5 12L22.2753 12.3164L22.0622 12.6008C21.9775 12.7104 21.8857 12.8262 21.7871 12.9472L21.4709 13.3256C20.8315 14.0724 20.1051 14.8189 19.3039 15.5167C16.9892 17.5326 14.5247 18.75 11.9995 18.75C9.47466 18.75 7.01051 17.5326 4.69596 15.5167C3.89478 14.8189 3.16848 14.0724 2.52908 13.3256C2.41697 13.1946 2.31152 13.0683 2.21291 12.9472L1.93781 12.6008C1.88631 12.5341 1.84267 12.4766 1.80708 12.429L1.5 12L1.7247 11.6836L1.93781 11.3992C2.02253 11.2896 2.1143 11.1738 2.21291 11.0528L2.52908 10.6744C3.16848 9.92759 3.89478 9.18109 4.69596 8.48328ZM12 8.25C9.92841 8.25 8.25 9.92883 8.25 12C8.25 14.0712 9.92841 15.75 12 15.75C14.0709 15.75 15.75 14.0709 15.75 12C15.75 9.92906 14.0709 8.25 12 8.25Z" fill="#262626"/>
</svg>
