<svg width="140" height="140" viewBox="0 0 140 140" fill="none" xmlns="http://www.w3.org/2000/svg">
<circle cx="70" cy="70" r="70" fill="#F5F5F5"/>
<rect x="56.8005" y="71.5348" width="7.6201" height="32.195" rx="3.81005" transform="rotate(-56.1245 56.8005 71.5348)" fill="#A6A6A6"/>
<path d="M39.3115 85.8991C38.4594 83.3584 40.0269 80.6458 42.6536 80.1154L94.833 69.5792C97.5888 69.0227 100.165 71.1266 100.17 73.938L98.4064 96.1124C98.4103 98.2361 96.9147 100.067 94.833 100.488L52.5501 109.382C50.3477 109.826 48.1588 108.562 47.4443 106.431L39.3115 85.8991Z" fill="#A6A6A6"/>
<path fill-rule="evenodd" clip-rule="evenodd" d="M37.382 81.106C34.5409 81.6796 32.9954 84.7706 34.241 87.3877L44.6707 107.531C45.5493 109.377 47.5715 110.388 49.5754 109.984L83.096 103.215C85.1778 102.795 86.6734 100.964 86.6695 98.8398L87.5004 76.4224C87.4952 73.611 84.9192 71.5072 82.1633 72.0636L37.382 81.106ZM47.3502 85.6706C45.6508 86.225 44.7227 88.0521 45.2771 89.7515L49.1177 101.523C49.6722 103.222 51.4992 104.15 53.1986 103.596C54.898 103.041 55.8261 101.214 55.2717 99.515L51.4311 87.7437C50.8766 86.0443 49.0496 85.1161 47.3502 85.6706ZM58.1508 86.7591C57.5964 85.0597 58.5245 83.2326 60.2239 82.6782C61.9233 82.1238 63.7503 83.0519 64.3048 84.7513L68.1454 96.5226C68.6998 98.222 67.7717 100.049 66.0723 100.603C64.3729 101.158 62.5459 100.23 61.9914 98.5304L58.1508 86.7591ZM73.0977 80.5173C71.3983 81.0718 70.4702 82.8988 71.0246 84.5982L74.8652 96.3695C75.4196 98.0689 77.2467 98.997 78.9461 98.4426C80.6455 97.8881 81.5736 96.0611 81.0192 94.3617L77.1786 82.5904C76.6241 80.891 74.797 79.9629 73.0977 80.5173Z" fill="#D1D1D1"/>
<path d="M39.4802 75.7695C37.7331 74.5966 37.2677 72.2296 38.4405 70.4825C39.6134 68.7355 41.9805 68.2701 43.7275 69.4429L55.5096 77.3529C57.2567 78.5257 57.7221 80.8928 56.5493 82.6398C55.3764 84.3869 53.0093 84.8523 51.2623 83.6795L39.4802 75.7695Z" fill="#D1D1D1"/>
<rect x="39.6408" y="77.1246" width="7.6201" height="26.6929" rx="3.81005" transform="rotate(-100.253 39.6408 77.1246)" fill="#D1D1D1"/>
<ellipse cx="70.1669" cy="115.832" rx="29.4559" ry="4.30742" fill="#D1D1D1"/>
<g clip-path="url(#clip0_425_5895)">
<path d="M17.1164 50.9836L19.767 58.1586C20.1248 59.1274 20.8093 59.9424 21.7024 60.4628L23.3785 61.44L40.6509 36.3642L35.6891 26.8087L17.718 47.6541C16.9265 48.5714 16.6963 49.8471 17.1164 50.9836Z" fill="#BBBBBB"/>
<path d="M22.9052 61.1599L32.6026 66.7938C33.9825 67.5951 35.7368 67.3059 36.7864 66.1031L53.6605 46.7682C53.6605 46.7682 55.0744 45.4264 55.188 43.1136C55.3247 40.3334 55.3127 35.6212 55.3127 35.6212L42.2704 26.6149L41.7531 32.7826C41.7531 32.7826 41.418 35.4831 40.649 36.3642L22.2842 57.4074C21.2657 58.5744 21.5633 60.3809 22.9033 61.16L22.9052 61.1599Z" fill="#D1D1D1"/>
<path d="M42.2726 26.6148L55.3149 35.621L56.4278 34.3458C57.0881 33.5892 56.9418 32.4255 56.1144 31.8545L45.9345 24.8445C45.2574 24.3776 44.3417 24.4706 43.77 25.0617L42.2716 26.6139L42.2726 26.6148Z" fill="#FF5A00"/>
<path d="M35.6893 26.8086C36.7583 26.4843 37.875 26.3527 38.9898 26.4191L42.2706 26.6149L41.8183 32.1846C41.7043 33.2901 41.793 34.6806 40.6511 36.3641L40.5372 36.101L35.6893 26.8086Z" fill="#A6A6A6"/>
<path d="M42.2723 26.6148L38.9915 26.419C37.8767 26.3526 36.76 26.4842 35.6909 26.8085L41.8689 30.5292L42.2732 26.6138L42.2723 26.6148Z" fill="#A6A6A6"/>
<path d="M49.2635 48.4473L37.7091 61.6868C37.5826 61.8318 37.4412 61.9566 37.2888 62.0592C36.5946 62.529 35.6704 62.5678 34.9277 62.1121L28.5921 58.2341C27.4447 57.5312 27.2009 55.9659 28.0806 54.9476L39.6115 41.6011C40.0238 41.1246 40.6035 40.8643 41.1959 40.8471C41.6157 40.8339 42.0428 40.9422 42.4209 41.1787L48.7792 45.1647C49.9148 45.877 50.1457 47.4365 49.2635 48.4473Z" fill="#FF5A00"/>
<path d="M41.3549 48.4987L37.0464 50.5357C36.0685 50.9989 35.4635 52.0033 35.5129 53.0843C35.5876 54.7341 37.1198 55.9256 38.7366 55.592L38.855 55.5676C39.8486 55.3627 40.6411 54.6154 40.905 53.637L42.1186 49.1364C42.2406 48.6854 41.7774 48.2991 41.3559 48.4996L41.3549 48.4987Z" fill="#EBEBEB"/>
</g>
<path d="M119.198 53.0335C105.217 65.0123 92.6352 62.1415 90.0492 61.3688C89.7797 61.2893 89.6272 61.0032 89.7117 60.7337L90.6063 57.8271L98.4467 36.1383C98.5604 35.8234 98.9409 35.7033 99.2137 35.8961L117.822 48.951L119.045 49.8225C120.124 50.5924 120.204 52.173 119.197 53.0355L119.198 53.0335Z" fill="#A6A6A6"/>
<path d="M117.821 48.9511L114.578 50.131C103.524 58.7627 95.0765 58.6308 90.6031 57.8282L90.9256 56.7801L98.8283 35.4182L116.838 48.2526L117.82 48.9531L117.821 48.9511Z" fill="white"/>
<path d="M116.839 48.2504L113.596 49.4303C103.215 57.43 95.6599 57.4726 90.9265 56.778L94.719 36.5674L98.0625 35.3518C98.3858 35.2343 98.7453 35.2829 99.024 35.4838L116.839 48.2504Z" fill="#C44100"/>
<path d="M116.159 54.038C103.334 65.1448 91.6529 63.7169 87.7213 62.7909C86.9514 62.6083 86.4975 61.8152 86.7298 61.0614L87.3627 59.0071L93.9373 37.6406C94.2109 36.7517 95.2742 36.3903 96.0347 36.9303L114.58 50.1319L116.022 51.1599C116.99 51.8481 117.057 53.262 116.158 54.0399L116.159 54.038Z" fill="#BBBBBB"/>
<path d="M114.579 50.129C102.835 60.2348 92.0695 59.8524 87.3618 59.0041L87.6843 57.956L94.031 37.3254C94.2569 36.5885 95.1395 36.291 95.7669 36.7377L113.597 49.4285L114.579 50.129Z" fill="white"/>
<path d="M113.598 49.4314C102.655 58.5677 92.6363 58.6828 87.6852 57.959L94.0612 37.2399C94.274 36.5468 95.104 36.2671 95.693 36.6858L113.598 49.4314Z" fill="#FF5A00"/>
<path d="M95.4164 54.1732C95.4164 54.1732 95.3762 54.168 95.355 54.1675C94.0862 54.0481 93.4958 52.5374 94.3379 51.5872L95.0077 50.8304C95.4047 50.3855 96.1206 50.4535 96.4203 50.9723L96.918 51.827C97.5584 52.9292 96.6833 54.2862 95.41 54.1752L95.4164 54.1732Z" fill="#C44100"/>
<path d="M105.124 51.2326C105.124 51.2326 105.149 51.2053 105.165 51.1938C106.003 50.3439 105.518 48.9033 104.342 48.7281L103.404 48.5883C102.849 48.5054 102.375 48.9897 102.472 49.5394L102.631 50.4548C102.836 51.6359 104.278 52.0783 105.128 51.2347L105.124 51.2326Z" fill="#C44100"/>
<path d="M97.9495 46.1403C97.9495 46.1403 97.9121 46.1518 97.8975 46.1597C96.7398 46.5936 95.5849 45.5279 95.9118 44.341L96.1733 43.3955C96.3287 42.8369 96.9833 42.595 97.4638 42.9175L98.2586 43.4534C99.2844 44.1432 99.0971 45.6959 97.9432 46.1423L97.9495 46.1403Z" fill="#C44100"/>
<path d="M70.3084 26.667C69.2697 27.6601 68.5166 28.9652 68.1835 30.4225L62.8558 53.7232C62.403 55.6981 64.9507 56.9092 66.1965 55.3101L76.325 42.2998L80.8803 36.4499C82.7968 33.9908 83.0428 30.5368 81.2874 27.963C80.5818 26.926 79.6009 26.0588 78.387 25.483L78.2535 25.42C77.0397 24.8442 75.7483 24.6328 74.5 24.7419C73.7007 24.8119 72.9377 25.0208 72.2379 25.3481C71.525 25.6763 70.8745 26.1256 70.3084 26.667Z" fill="#FF5A00"/>
<path d="M70.9148 32.1022L68.3335 29.7471L67.6575 32.7226L70.3255 33.2623C70.9972 33.3984 71.4196 32.564 70.9148 32.1022Z" fill="#C44100"/>
<path d="M80.2301 37.3023L74.4991 36.496C73.7849 36.3965 73.3818 37.2905 73.9312 37.7579L77.4843 40.7908L80.2301 37.3023Z" fill="#C44100"/>
<path d="M74.3218 45.0072L68.5908 44.2009C67.8766 44.1014 67.4734 44.9954 68.0229 45.4628L71.576 48.4957L74.3218 45.0072Z" fill="#C44100"/>
<path d="M69.9534 39.4829L66.7353 36.7603L65.9367 40.2987L69.3257 40.849C70.1064 40.9756 70.5581 39.9933 69.9551 39.4819L69.9534 39.4829Z" fill="#C44100"/>
<path d="M67.5724 49.6705L64.3542 46.9479L63.5556 50.4863L66.9447 51.0366C67.7253 51.1632 68.177 50.1809 67.5741 49.6695L67.5724 49.6705Z" fill="#C44100"/>
<path d="M75.8011 25.1125C75.5981 25.5397 76.3674 26.3283 77.5182 26.875C78.669 27.4216 79.7666 27.5186 79.9696 27.0914C80.1726 26.6642 79.4032 25.8757 78.2524 25.329C77.1017 24.7823 76.004 24.6853 75.8011 25.1125Z" fill="#A6A6A6"/>
<path d="M77.4275 26.4032C77.4275 26.4032 79.3154 15.7455 80.1582 15.0652C81.001 14.3849 80.9715 15.797 81.5566 15.8247C82.1434 15.8532 80.5783 7.39276 86.4642 10.0115C92.351 12.6285 83.6935 16.9842 83.713 17.4183C83.7324 17.8524 85.0906 16.5798 85.2775 17.771C85.4645 18.9623 77.4267 26.4005 77.4267 26.4005L77.4275 26.4032Z" fill="#A6A6A6"/>
<path d="M78.5993 27.1559C78.5993 27.1559 72.6199 20.2319 72.6236 19.3164C72.6273 18.4009 73.5373 19.1738 73.8676 18.8049C74.1994 18.4355 67.818 14.9475 72.6752 12.4861C77.5316 10.0233 75.7679 18.0228 76.0629 18.2416C76.3578 18.4605 76.2482 16.8911 77.1288 17.4041C78.0095 17.9172 78.5971 27.155 78.5971 27.155L78.5993 27.1559Z" fill="#A6A6A6"/>
<path d="M77.087 25.8768C77.087 25.8768 84.3398 20.3008 85.2536 20.3565C86.1674 20.4123 85.3441 21.2768 85.6936 21.6276C86.0436 21.9798 89.8888 15.8072 92.07 20.7964C94.2526 25.7851 86.3664 23.5693 86.1311 23.8513C85.8959 24.1334 87.469 24.1131 86.9067 24.9632C86.3444 25.8132 77.088 25.8746 77.088 25.8746L77.087 25.8768Z" fill="#A6A6A6"/>
<defs>
<clipPath id="clip0_425_5895">
<rect width="26.6723" height="44.2718" fill="white" transform="translate(42.0272 19.5461) rotate(41.112)"/>
</clipPath>
</defs>
</svg>
