<svg width="141" height="140" viewBox="0 0 141 140" fill="none" xmlns="http://www.w3.org/2000/svg">
<circle cx="70.9238" cy="70" r="70" fill="#F5F5F5"/>
<ellipse cx="70.9238" cy="112.783" rx="37.1891" ry="4.30742" fill="#D1D1D1"/>
<path d="M71.6977 96.7897C71.0699 97.6394 70.1511 98.1554 69.1782 98.3009C68.2033 98.4472 67.175 98.225 66.3253 97.5972L55.9419 89.9263C54.2425 88.6706 53.8808 86.2525 55.1364 84.5531C55.7643 83.7034 56.683 83.1874 57.6559 83.0419C58.6288 82.8964 59.6599 83.1198 60.5088 83.7456L70.8922 91.4165C72.5916 92.6722 72.9553 95.0895 71.6997 96.7889L71.6977 96.7897Z" fill="#A6A6A6"/>
<path d="M65.4719 92.1899C64.8441 93.0396 63.9254 93.5556 62.9524 93.7011C61.9775 93.8474 60.9492 93.6253 60.0995 92.9974L55.9412 89.9245C54.2418 88.6689 53.88 86.2508 55.1357 84.5514C55.7635 83.7016 56.6823 83.1857 57.6552 83.0401C58.6281 82.8946 59.6592 83.118 60.5081 83.7439L64.6664 86.8167C66.3659 88.0724 66.7296 90.4897 65.4739 92.1891L65.4719 92.1899Z" fill="#FF5A00"/>
<path opacity="0.4" d="M68.9607 91.0587L62.5949 86.3549C61.9337 85.8663 61.0017 86.0063 60.5132 86.6674C60.0243 87.3291 60.1648 88.2618 60.827 88.7501L67.1978 93.4471C67.8653 93.9393 68.8067 93.789 69.2878 93.1133C69.7573 92.4538 69.6118 91.5398 68.9607 91.0587Z" fill="#E9F3FE"/>
<path d="M62.9848 78.969C62.6292 77.9742 62.7127 76.9237 63.1341 76.0348C63.5559 75.1438 64.3135 74.4138 65.3083 74.0582L77.4641 69.7115C79.4538 69.0002 81.6632 70.0474 82.3745 72.0371C82.7301 73.0319 82.6465 74.0823 82.2252 74.9713C81.8038 75.8602 81.0437 76.5918 80.051 76.9479L67.8952 81.2946C65.9055 82.0059 63.6956 80.9607 62.9843 78.9711L62.9848 78.969Z" fill="#A6A6A6"/>
<path d="M70.2736 76.363C69.918 75.3682 70.0015 74.3178 70.4229 73.4288C70.8447 72.5378 71.6023 71.8078 72.5971 71.4522L77.4659 69.7119C79.4556 69.0006 81.665 70.0478 82.3763 72.0375C82.7319 73.0323 82.6484 74.0827 82.227 74.9716C81.8056 75.8606 81.0456 76.5922 80.0528 76.9483L75.184 78.6886C73.1943 79.3999 70.9844 78.3548 70.2731 76.3651L70.2736 76.363Z" fill="#FF5A00"/>
<path opacity="0.4" d="M69.2687 79.8902L76.7219 77.2259C77.496 76.9492 77.8992 76.0974 77.6225 75.3233C77.3456 74.5486 76.4927 74.1455 75.7184 74.4232L68.2679 77.0954C67.4872 77.3754 67.0874 78.2408 67.3804 79.0168C67.6663 79.7742 68.5064 80.1627 69.2687 79.8902Z" fill="#E9F3FE"/>
<path d="M79.94 82.3478C80.9371 81.9985 81.987 82.0888 82.8732 82.5158C83.7615 82.9433 84.4867 83.7054 84.836 84.7025L89.1052 96.8857C89.8038 98.8799 88.7425 101.083 86.7484 101.781C85.7513 102.131 84.7014 102.04 83.8152 101.613C82.929 101.186 82.2022 100.421 81.8524 99.4265L77.5833 87.2433C76.8846 85.2491 77.9438 83.046 79.938 82.3473L79.94 82.3478Z" fill="#A6A6A6"/>
<path d="M82.4996 89.6531C83.4967 89.3037 84.5465 89.394 85.4328 89.821C86.3211 90.2485 87.0462 91.0107 87.3956 92.0077L89.1048 96.8876C89.8034 98.8817 88.7422 101.084 86.748 101.783C85.7509 102.132 84.7011 102.042 83.8149 101.615C82.9286 101.188 82.2019 100.423 81.8521 99.4283L80.1428 94.5485C79.4442 92.5544 80.5034 90.3512 82.4975 89.6526L82.4996 89.6531Z" fill="#FF5A00"/>
<path opacity="0.4" d="M78.9788 88.6257L81.5956 96.0957C81.8674 96.8716 82.7167 97.2802 83.4925 97.0084C84.2689 96.7364 84.6775 95.8862 84.4047 95.11L81.78 87.6428C81.505 86.8603 80.6421 86.455 79.8643 86.743C79.1051 87.0241 78.7112 87.8617 78.9788 88.6257Z" fill="#E9F3FE"/>
<path d="M120.148 65.6136L101.632 35.532C100.491 33.6784 98.0633 33.1006 96.2096 34.2416L78.3292 45.2477C76.4756 46.3887 75.8979 48.8164 77.0388 50.67L95.5553 80.7516C96.6963 82.6052 99.1239 83.183 100.978 82.042L118.858 71.0359C120.712 69.8949 121.289 67.4672 120.148 65.6136Z" fill="#A6A6A6"/>
<path d="M121.907 64.5039L103.391 34.4223C102.25 32.5687 99.8223 31.9909 97.9686 33.1319L80.0883 44.138C78.2346 45.279 77.6569 47.7067 78.7979 49.5603L97.3143 79.6419C98.4553 81.4955 100.883 82.0733 102.737 80.9323L120.617 69.9262C122.471 68.7852 123.048 66.3575 121.907 64.5039Z" fill="#D1D1D1"/>
<path d="M96.1362 64.7523C94.2421 65.9159 91.7025 65.2216 90.4634 63.2011C89.2236 61.1832 89.7521 58.6028 91.6462 57.4392C92.2047 57.0954 92.9293 56.6655 92.9293 56.6655C94.4141 56.5863 96.4446 57.5663 97.319 58.9904C98.2289 60.4687 98.1645 62.6829 97.3346 63.987C97.3346 63.987 96.6429 64.4404 96.1362 64.7523Z" fill="#A6A6A6"/>
<path d="M94.8759 64.4056C92.5269 64.0921 90.877 61.9324 91.1915 59.585C91.505 57.236 93.6631 55.5871 96.0121 55.9006C98.3611 56.2142 100.011 58.3738 99.6965 60.7212C99.383 63.0702 97.2233 64.7201 94.8759 64.4056Z" fill="#C44100"/>
<path d="M99.6965 60.7212L91.1915 59.585C91.505 57.236 93.6631 55.5871 96.0121 55.9006C98.3611 56.2142 100.011 58.3738 99.6965 60.7212Z" fill="#FF5A00"/>
<path d="M102.981 75.3586C101.087 76.5222 98.5477 75.8279 97.3086 73.8073C96.0688 71.7895 96.5973 69.209 98.4914 68.0454C99.0499 67.7016 99.7746 67.2717 99.7746 67.2717C101.259 67.1926 103.29 68.1725 104.164 69.5967C105.074 71.075 105.01 73.2892 104.18 74.5932C104.18 74.5932 103.488 75.0467 102.981 75.3586Z" fill="#A6A6A6"/>
<path d="M101.721 75.012C99.3723 74.6985 97.7224 72.5388 98.0369 70.1914C98.3504 67.8424 100.508 66.1935 102.857 66.507C105.207 66.8205 106.856 68.9802 106.542 71.3276C106.228 73.6766 104.069 75.3265 101.721 75.012Z" fill="#C44100"/>
<path d="M106.542 71.3276L98.0369 70.1914C98.3504 67.8424 100.508 66.1935 102.857 66.507C105.207 66.8205 106.856 68.9802 106.542 71.3276Z" fill="#FF5A00"/>
<path d="M89.5707 53.8163C87.6766 54.9799 85.137 54.2856 83.8979 52.2651C82.6581 50.2472 83.1866 47.6667 85.0807 46.5032C85.6392 46.1593 86.3639 45.7294 86.3639 45.7294C87.8486 45.6503 89.8791 46.6302 90.7535 48.0544C91.6634 49.5327 91.599 51.7469 90.7691 53.051C90.7691 53.051 90.0774 53.5044 89.5707 53.8163Z" fill="#A6A6A6"/>
<path d="M88.3104 53.4696C85.9614 53.1561 84.3115 50.9964 84.626 48.6491C84.9395 46.3001 87.0975 44.6512 89.4466 44.9647C91.7956 45.2782 93.4455 47.4379 93.131 49.7853C92.8174 52.1343 90.6578 53.7842 88.3104 53.4696Z" fill="#C44100"/>
<path d="M93.131 49.7853L84.626 48.6491C84.9395 46.3001 87.0975 44.6512 89.4466 44.9647C91.7956 45.2782 93.4455 47.4379 93.131 49.7853Z" fill="#FF5A00"/>
<path d="M106.998 58.0375C105.104 59.2011 102.564 58.5068 101.325 56.4863C100.085 54.4684 100.614 51.888 102.508 50.7244C103.066 50.3806 103.791 49.9507 103.791 49.9507C105.276 49.8715 107.306 50.8515 108.181 52.2756C109.091 53.7539 109.026 55.9681 108.196 57.2722C108.196 57.2722 107.505 57.7256 106.998 58.0375Z" fill="#A6A6A6"/>
<path d="M105.738 57.6909C103.389 57.3774 101.739 55.2177 102.053 52.8703C102.367 50.5213 104.525 48.8724 106.874 49.1859C109.223 49.4994 110.873 51.6591 110.558 54.0065C110.245 56.3555 108.085 58.0054 105.738 57.6909Z" fill="#C44100"/>
<path d="M110.558 54.0065L102.053 52.8703C102.367 50.5213 104.525 48.8724 106.874 49.1859C109.223 49.4994 110.873 51.6591 110.558 54.0065Z" fill="#FF5A00"/>
<path d="M113.843 68.6438C111.949 69.8074 109.41 69.1131 108.171 67.0925C106.931 65.0747 107.459 62.4942 109.353 61.3306C109.912 60.9868 110.637 60.5569 110.637 60.5569C112.121 60.4778 114.152 61.4577 115.026 62.8819C115.936 64.3602 115.872 66.5744 115.042 67.8784C115.042 67.8784 114.35 68.3319 113.843 68.6438Z" fill="#A6A6A6"/>
<path d="M112.583 68.2971C110.234 67.9836 108.584 65.8239 108.899 63.4766C109.212 61.1275 111.37 59.4787 113.719 59.7922C116.068 60.1057 117.718 62.2654 117.404 64.6127C117.09 66.9618 114.93 68.6117 112.583 68.2971Z" fill="#C44100"/>
<path d="M117.404 64.6127L108.899 63.4766C109.212 61.1275 111.37 59.4787 113.719 59.7922C116.068 60.1057 117.718 62.2654 117.404 64.6127Z" fill="#FF5A00"/>
<path d="M100.433 47.1017C98.5386 48.2652 95.999 47.5709 94.7599 45.5504C93.5201 43.5326 94.0486 40.9521 95.9427 39.7885C96.5012 39.4447 97.2259 39.0148 97.2259 39.0148C98.7106 38.9356 100.741 39.9156 101.615 41.3397C102.525 42.8181 102.461 45.0322 101.631 46.3363C101.631 46.3363 100.939 46.7898 100.433 47.1017Z" fill="#A6A6A6"/>
<path d="M99.1725 46.7551C96.8235 46.4415 95.1736 44.2819 95.4882 41.9345C95.8017 39.5855 97.9597 37.9366 100.309 38.2501C102.658 38.5636 104.308 40.7233 103.993 43.0707C103.68 45.4197 101.52 47.0696 99.1725 46.7551Z" fill="#C44100"/>
<path d="M103.993 43.0707L95.4882 41.9345C95.8017 39.5855 97.9597 37.9366 100.309 38.2501C102.658 38.5636 104.308 40.7233 103.993 43.0707Z" fill="#FF5A00"/>
<path d="M32.1433 43.4239C36.9085 36.504 46.3812 34.7572 53.3011 39.5224C60.2211 44.2877 61.9678 53.7603 57.2026 60.6803L44.5719 79.0224C42.6378 81.8311 38.793 82.5401 35.9843 80.606L21.0961 70.3537C18.2874 68.4196 17.5785 64.5748 19.5126 61.7661L32.1433 43.4239Z" fill="#FF5A00"/>
<path d="M31.4536 44.4255L56.5129 61.6819L46.1338 76.7542L21.0745 59.4979L31.4536 44.4255Z" fill="#D1D1D1"/>
<rect x="49.6714" y="24.0537" width="23.5252" height="13.3471" rx="2.84989" transform="rotate(34.552 49.6714 24.0537)" fill="#BBBBBB"/>
<rect x="50.4509" y="26.5679" width="7.05305" height="10.1551" rx="2.3749" transform="rotate(34.552 50.4509 26.5679)" fill="#D1D1D1"/>
<path opacity="0.4" d="M32.8031 58.012L41.3829 46.8439C42.274 45.684 42.056 44.0213 40.8961 43.1302C39.7353 42.2384 38.0712 42.4574 37.1807 43.6192L28.6127 54.7963C27.7149 55.9675 27.9511 57.6472 29.137 58.5255C30.2946 59.3827 31.9256 59.1542 32.8031 58.012Z" fill="#E9F3FE"/>
</svg>
