<svg width="8" height="14" viewBox="0 0 8 14" fill="none" xmlns="http://www.w3.org/2000/svg">
<path d="M3.584 13.218V12.14C2.66933 12.0373 1.946 11.7107 1.414 11.16C0.882 10.6093 0.616 9.90933 0.616 9.06H1.848C1.848 9.55467 1.99267 9.998 2.282 10.39C2.58067 10.7727 3.01467 11.02 3.584 11.132V7.338C3.51867 7.31933 3.44867 7.30067 3.374 7.282C3.30867 7.254 3.24333 7.23067 3.178 7.212C2.422 6.95067 1.862 6.62867 1.498 6.246C1.134 5.854 0.952 5.34533 0.952 4.72C0.942667 3.992 1.17133 3.38533 1.638 2.9C2.114 2.41467 2.76267 2.13467 3.584 2.06V0.926H4.55V2.06C5.334 2.15333 5.95933 2.44733 6.426 2.942C6.89267 3.43667 7.13067 4.03867 7.14 4.748H5.908C5.908 4.40267 5.796 4.07133 5.572 3.754C5.348 3.42733 5.00733 3.208 4.55 3.096V6.484C4.62467 6.50267 4.69933 6.526 4.774 6.554C4.84867 6.582 4.928 6.60533 5.012 6.624C5.47867 6.792 5.89867 6.988 6.272 7.212C6.64533 7.436 6.93467 7.72533 7.14 8.08C7.35467 8.43467 7.462 8.88733 7.462 9.438C7.462 9.87667 7.35467 10.292 7.14 10.684C6.92533 11.076 6.59867 11.4073 6.16 11.678C5.73067 11.9487 5.194 12.1073 4.55 12.154V13.218H3.584ZM2.17 4.608C2.17 5.03733 2.296 5.364 2.548 5.588C2.8 5.80267 3.14533 5.98933 3.584 6.148V3.068C3.164 3.13333 2.82333 3.30133 2.562 3.572C2.30067 3.83333 2.17 4.17867 2.17 4.608ZM6.244 9.508C6.244 8.96667 6.08533 8.56533 5.768 8.304C5.45067 8.04267 5.04467 7.828 4.55 7.66V11.16C5.09133 11.0947 5.50667 10.908 5.796 10.6C6.09467 10.292 6.244 9.928 6.244 9.508Z" fill="#262626"/>
</svg>
