<svg width="141" height="140" viewBox="0 0 141 140" fill="none" xmlns="http://www.w3.org/2000/svg">
<circle cx="70.5" cy="70" r="70" fill="#F5F5F5"/>
<ellipse cx="70.5" cy="110.971" rx="38.1345" ry="3.23068" fill="#D1D1D1"/>
<path d="M52.7685 50.4266L53.8157 42.2163C54.0742 40.1853 55.0556 38.3147 56.581 36.9463L62.9621 31.2202L78.0913 31.9624L82.3093 35.3098C84.7027 37.2084 86.306 39.9271 86.8106 42.9388L88.4006 54.939L78.0402 51.8631L78.0402 40.6043L63.0708 39.8361L62.5351 50.1797L52.7706 50.4289L52.7685 50.4266Z" fill="#FF5A00"/>
<path d="M62.9621 31.2202L63.0709 39.8338L68.0752 40.1129L62.9621 31.2202Z" fill="#C44100"/>
<path d="M78.0912 31.9624L78.0402 40.6021L73.145 40.3771L78.0912 31.9624Z" fill="#C44100"/>
<path d="M32.3816 89.7216L60.3479 100.28C63.3612 101.417 66.7395 100.028 68.0758 97.1012L84.9411 60.14C86.4095 56.92 84.8419 53.1276 81.5253 51.8779L54.2166 41.5988C51.2422 40.4782 47.9081 41.8199 46.5411 44.6829L29.0183 81.3649C27.4747 84.5947 29.0283 88.4556 32.3816 89.7216Z" fill="#C44100"/>
<path d="M74.9479 105.775L47.9604 95.5103C45.2605 94.4838 43.801 91.561 44.6019 88.7891L56.2071 48.6656C57.1011 45.5716 60.4392 43.8909 63.4629 45.0134L90.7448 55.13C93.4806 56.1438 94.9648 59.1021 94.1382 61.8977L82.2386 102.17C81.3235 105.263 77.9684 106.925 74.9479 105.775Z" fill="#FF5A00"/>
<rect x="80.5807" y="69.8783" width="5.11112" height="9.03017" rx="2.55556" transform="rotate(20.6834 80.5807 69.8783)" fill="white"/>
<path d="M65.461 80.8178C66.9247 79.7846 68.8004 79.5183 70.763 80.5295C72.7255 81.5407 73.0281 83.484 73.0169 84.7109" stroke="white" stroke-width="3.02177" stroke-linecap="round"/>
<path d="M98.5343 72.8957C99.8551 79.6202 95.4746 86.1421 88.7502 87.4629C82.0257 88.7837 75.5038 84.4032 74.183 77.6788C72.8622 70.9543 77.2427 64.4324 83.9671 63.1116C90.6916 61.7908 97.2135 66.1713 98.5343 72.8957Z" fill="#D9D9D9" fill-opacity="0.53" stroke="#525151" stroke-width="4.31682"/>
<path d="M88.8629 87.8021L90.9895 97.0563" stroke="#525151" stroke-width="4.31682" stroke-linecap="round"/>
<path d="M90.387 94.7646L91.1795 98.8059" stroke="#A6A6A6" stroke-width="6.04355" stroke-linecap="round"/>
<path d="M66.8049 66.9883L69.7487 71.3324L64.3555 71.3845" stroke="white" stroke-width="3.02177" stroke-linecap="round" stroke-linejoin="round"/>
<path d="M95.742 79.654L83.6535 65.3916C84.8199 64.7554 90.3309 64.1219 94.2575 68.5198C98.1841 72.9176 96.3783 78.3815 95.742 79.654Z" fill="white" fill-opacity="0.37"/>
<path d="M76.9731 70.7996L89.4328 85.115C88.2663 85.7512 82.5433 86.4907 78.6167 82.0928C74.6901 77.695 76.2838 72.3372 76.9731 70.7996Z" fill="white" fill-opacity="0.37"/>
<path d="M109.593 53.9948L102.871 58.4214" stroke="#A6A6A6" stroke-width="4.31682" stroke-linecap="round"/>
<path d="M100.356 49.7494L98.5547 54.3556" stroke="#A6A6A6" stroke-width="4.31682" stroke-linecap="round"/>
<path d="M107.605 65.702L103.804 64.94" stroke="#A6A6A6" stroke-width="4.31682" stroke-linecap="round"/>
</svg>
