<svg width="25" height="24" viewBox="0 0 25 24" fill="none" xmlns="http://www.w3.org/2000/svg">
<path d="M18.1914 4.875C16.5799 4.875 15.2747 6.20352 15.2747 7.84375V9.625H16.4414C17.7284 9.625 18.7747 10.69 18.7747 12V19.125C18.7747 20.435 17.7284 21.5 16.4414 21.5H4.77474C3.48776 21.5 2.44141 20.435 2.44141 19.125V12C2.44141 10.69 3.48776 9.625 4.77474 9.625H12.9414V7.84375C12.9414 4.89355 15.293 2.5 18.1914 2.5C21.0898 2.5 23.4414 4.89355 23.4414 7.84375V9.625C23.4414 10.2818 22.9201 10.8125 22.2747 10.8125C21.6294 10.8125 21.1081 10.2818 21.1081 9.625V7.84375C21.1081 6.20352 19.8029 4.875 18.1914 4.875ZM11.7747 16.75C12.4201 16.75 12.9414 16.2193 12.9414 15.5625C12.9414 14.9057 12.4201 14.375 11.7747 14.375H9.44141C8.79609 14.375 8.27474 14.9057 8.27474 15.5625C8.27474 16.2193 8.79609 16.75 9.44141 16.75H11.7747Z" fill="#262626"/>
</svg>
