<svg width="25" height="24" viewBox="0 0 25 24" fill="none" xmlns="http://www.w3.org/2000/svg">
<path d="M2.17383 18.6667C2.17383 19.2208 2.6127 19.6667 3.1582 19.6667H5.60684C6.0252 21.0208 7.26797 22 8.73633 22C10.2047 22 11.4475 21.0208 11.8658 19.6667H22.1895C22.735 19.6667 23.1738 19.2208 23.1738 18.6667C23.1738 18.1125 22.735 17.6667 22.1895 17.6667H11.8658C11.4475 16.3125 10.2047 15.3333 8.73633 15.3333C7.26797 15.3333 6.0252 16.3125 5.60684 17.6667H3.1582C2.6127 17.6667 2.17383 18.1125 2.17383 18.6667ZM7.42383 18.6667C7.42383 18.313 7.56211 17.9739 7.80825 17.7239C8.05439 17.4738 8.38823 17.3333 8.73633 17.3333C9.08442 17.3333 9.41826 17.4738 9.66441 17.7239C9.91055 17.9739 10.0488 18.313 10.0488 18.6667C10.0488 19.0203 9.91055 19.3594 9.66441 19.6095C9.41826 19.8595 9.08442 20 8.73633 20C8.38823 20 8.05439 19.8595 7.80825 19.6095C7.56211 19.3594 7.42383 19.0203 7.42383 18.6667ZM15.2988 12C15.2988 11.6464 15.4371 11.3072 15.6833 11.0572C15.9294 10.8071 16.2632 10.6667 16.6113 10.6667C16.9594 10.6667 17.2933 10.8071 17.5394 11.0572C17.7855 11.3072 17.9238 11.6464 17.9238 12C17.9238 12.3536 17.7855 12.6928 17.5394 12.9428C17.2933 13.1929 16.9594 13.3333 16.6113 13.3333C16.2632 13.3333 15.9294 13.1929 15.6833 12.9428C15.4371 12.6928 15.2988 12.3536 15.2988 12ZM16.6113 8.66667C15.143 8.66667 13.9002 9.64583 13.4818 11H3.1582C2.6127 11 2.17383 11.4458 2.17383 12C2.17383 12.5542 2.6127 13 3.1582 13H13.4818C13.9002 14.3542 15.143 15.3333 16.6113 15.3333C18.0797 15.3333 19.3225 14.3542 19.7408 13H22.1895C22.735 13 23.1738 12.5542 23.1738 12C23.1738 11.4458 22.735 11 22.1895 11H19.7408C19.3225 9.64583 18.0797 8.66667 16.6113 8.66667ZM10.0488 6.66667C9.70073 6.66667 9.36689 6.52619 9.12075 6.27614C8.87461 6.02609 8.73633 5.68696 8.73633 5.33333C8.73633 4.97971 8.87461 4.64057 9.12075 4.39052C9.36689 4.14048 9.70073 4 10.0488 4C10.3969 4 10.7308 4.14048 10.9769 4.39052C11.223 4.64057 11.3613 4.97971 11.3613 5.33333C11.3613 5.68696 11.223 6.02609 10.9769 6.27614C10.7308 6.52619 10.3969 6.66667 10.0488 6.66667ZM13.1783 4.33333C12.76 2.97917 11.5172 2 10.0488 2C8.58047 2 7.3377 2.97917 6.91934 4.33333H3.1582C2.6127 4.33333 2.17383 4.77917 2.17383 5.33333C2.17383 5.8875 2.6127 6.33333 3.1582 6.33333H6.91934C7.3377 7.6875 8.58047 8.66667 10.0488 8.66667C11.5172 8.66667 12.76 7.6875 13.1783 6.33333H22.1895C22.735 6.33333 23.1738 5.8875 23.1738 5.33333C23.1738 4.77917 22.735 4.33333 22.1895 4.33333H13.1783Z" fill="#262626"/>
</svg>
