<svg width="24" height="24" viewBox="0 0 24 24" fill="none" xmlns="http://www.w3.org/2000/svg">
<path fill-rule="evenodd" clip-rule="evenodd" d="M1.5 12C1.5 6.20049 6.20094 1.5 12.0005 1.5C17.7992 1.5 22.5 6.20066 22.5 12C22.5 17.7993 17.7992 22.5 12.0005 22.5C6.20094 22.5 1.5 17.7995 1.5 12ZM11.9986 9.75C12.6217 9.75 13.125 9.24598 13.125 8.625C13.125 8.00541 12.6217 7.5 11.9986 7.5C11.3783 7.5 10.875 8.00541 10.875 8.625C10.875 9.24598 11.3783 9.75 11.9986 9.75ZM12.75 11.25V16.5H11.25L11.25 11.25H12.75Z" fill="#262626"/>
</svg>
