<svg width="25" height="24" viewBox="0 0 25 24" fill="none" xmlns="http://www.w3.org/2000/svg">
<path d="M12.6738 3.46875C14.9365 3.46875 17.1064 4.36758 18.7063 5.9675C20.3063 7.56742 21.2051 9.73737 21.2051 12C21.2051 14.2626 20.3063 16.4326 18.7063 18.0325C17.1064 19.6324 14.9365 20.5312 12.6738 20.5312C10.4112 20.5312 8.24124 19.6324 6.64132 18.0325C5.0414 16.4326 4.14258 14.2626 4.14258 12C4.14258 9.73737 5.0414 7.56742 6.64132 5.9675C8.24124 4.36758 10.4112 3.46875 12.6738 3.46875ZM12.6738 22.5C15.4586 22.5 18.1293 21.3938 20.0984 19.4246C22.0676 17.4555 23.1738 14.7848 23.1738 12C23.1738 9.21523 22.0676 6.54451 20.0984 4.57538C18.1293 2.60625 15.4586 1.5 12.6738 1.5C9.88905 1.5 7.21834 2.60625 5.24921 4.57538C3.28008 6.54451 2.17383 9.21523 2.17383 12C2.17383 14.7848 3.28008 17.4555 5.24921 19.4246C7.21834 21.3938 9.88905 22.5 12.6738 22.5ZM9.35156 8.67773C8.96602 9.06328 8.96602 9.68672 9.35156 10.0682L11.2793 11.9959L9.35156 13.9236C8.96602 14.3092 8.96602 14.9326 9.35156 15.3141C9.73711 15.6955 10.3605 15.6996 10.742 15.3141L12.6697 13.3863L14.5975 15.3141C14.983 15.6996 15.6064 15.6996 15.9879 15.3141C16.3693 14.9285 16.3734 14.3051 15.9879 13.9236L14.0602 11.9959L15.9879 10.0682C16.3734 9.68262 16.3734 9.05918 15.9879 8.67773C15.6023 8.29629 14.9789 8.29219 14.5975 8.67773L12.6697 10.6055L10.742 8.67773C10.3564 8.29219 9.73301 8.29219 9.35156 8.67773Z" fill="#262626"/>
</svg>
