<svg width="24" height="24" viewBox="0 0 24 24" fill="none" xmlns="http://www.w3.org/2000/svg">
<path d="M12 1.5C9.9233 1.5 7.89323 2.11581 6.16652 3.26957C4.4398 4.42332 3.09399 6.0632 2.29927 7.98182C1.50455 9.90045 1.29661 12.0116 1.70176 14.0484C2.1069 16.0852 3.10693 17.9562 4.57538 19.4246C6.04383 20.8931 7.91476 21.8931 9.95156 22.2982C11.9884 22.7034 14.0996 22.4955 16.0182 21.7007C17.9368 20.906 19.5767 19.5602 20.7304 17.8335C21.8842 16.1068 22.5 14.0767 22.5 12C22.5 9.21523 21.3938 6.54451 19.4246 4.57538C17.4555 2.60625 14.7848 1.5 12 1.5ZM21 11.25H16.635C16.5163 8.59346 15.7572 6.00497 14.4225 3.705L14.1525 3.27C15.9863 3.71443 17.6341 4.72399 18.8629 6.15598C20.0916 7.58797 20.8392 9.36994 21 11.25ZM11.25 11.25H8.87251C9.00152 8.62827 9.82177 6.08733 11.25 3.885V11.25ZM11.25 12.75V20.1225C9.82181 17.9174 9.00163 15.374 8.87251 12.75H11.25ZM12.75 12.75H15.1275C14.9985 15.3717 14.1782 17.9127 12.75 20.115V12.75ZM12.75 11.25V3.885C14.1782 6.08733 14.9985 8.62827 15.1275 11.25H12.75ZM9.84751 3.27L9.57751 3.705C8.23976 6.00366 7.48048 8.59292 7.365 11.25H3.0375C3.19587 9.37489 3.93802 7.59658 5.15957 6.16516C6.38111 4.73374 8.02061 3.72123 9.84751 3.27ZM3.0375 12.75H7.365C7.49187 15.5804 8.34973 18.3297 9.85501 20.73C8.02673 20.2801 6.38557 19.2682 5.16258 17.8367C3.93959 16.4051 3.19636 14.6261 3.0375 12.75ZM14.145 20.73C15.6514 18.3307 16.507 15.5804 16.6275 12.75H21C20.8388 14.631 20.0901 16.4138 18.8599 17.8459C17.6296 19.278 15.9802 20.2869 14.145 20.73Z" fill="#262626"/>
</svg>
