<svg width="25" height="24" viewBox="0 0 25 24" fill="none" xmlns="http://www.w3.org/2000/svg">
<path d="M9.00686 2.22598L8.70954 2.8125H4.74526C4.01434 2.8125 3.42383 3.39902 3.42383 4.125C3.42383 4.85098 4.01434 5.4375 4.74526 5.4375H20.6024C21.3333 5.4375 21.9238 4.85098 21.9238 4.125C21.9238 3.39902 21.3333 2.8125 20.6024 2.8125H16.6381L16.3408 2.22598C16.1178 1.77891 15.6594 1.5 15.1598 1.5H10.1879C9.68823 1.5 9.22985 1.77891 9.00686 2.22598ZM20.6024 6.75H4.74526L5.6207 20.6543C5.68677 21.692 6.55396 22.5 7.59872 22.5H17.7489C18.7937 22.5 19.6609 21.692 19.727 20.6543L20.6024 6.75Z" fill="#262626"/>
</svg>
