<svg width="25" height="24" viewBox="0 0 25 24" fill="none" xmlns="http://www.w3.org/2000/svg">
<mask id="path-1-outside-1_16252_12891" maskUnits="userSpaceOnUse" x="1.44141" y="1.25" width="23" height="21" fill="black">
<rect fill="white" x="1.44141" y="1.25" width="23" height="21"/>
<path fill-rule="evenodd" clip-rule="evenodd" d="M21.9414 11.25H3.94141V20.25H21.9414V11.25ZM3.94141 9.75C3.11298 9.75 2.44141 10.4216 2.44141 11.25V20.25C2.44141 21.0784 3.11298 21.75 3.94141 21.75H21.9414C22.7698 21.75 23.4414 21.0784 23.4414 20.25V11.25C23.4414 10.4216 22.7698 9.75 21.9414 9.75H3.94141Z"/>
<path d="M15.1914 4.5C15.1914 5.74264 14.184 6.75 12.9414 6.75C11.6988 6.75 10.6914 5.74264 10.6914 4.5C10.6914 3.25736 11.6988 2.25 12.9414 2.25C14.184 2.25 15.1914 3.25736 15.1914 4.5Z"/>
<path fill-rule="evenodd" clip-rule="evenodd" d="M12.9414 5.25C13.3556 5.25 13.6914 4.91421 13.6914 4.5C13.6914 4.08579 13.3556 3.75 12.9414 3.75C12.5272 3.75 12.1914 4.08579 12.1914 4.5C12.1914 4.91421 12.5272 5.25 12.9414 5.25ZM12.9414 6.75C14.184 6.75 15.1914 5.74264 15.1914 4.5C15.1914 3.25736 14.184 2.25 12.9414 2.25C11.6988 2.25 10.6914 3.25736 10.6914 4.5C10.6914 5.74264 11.6988 6.75 12.9414 6.75Z"/>
<path fill-rule="evenodd" clip-rule="evenodd" d="M5.63394 9.99828L11.0339 3.99828L12.1489 5.00172L6.74888 11.0017L5.63394 9.99828ZM14.8489 3.99828L20.2489 9.99828L19.1339 11.0017L13.7339 5.00172L14.8489 3.99828Z"/>
<path d="M6.94141 14.25C6.94141 13.8358 7.27719 13.5 7.69141 13.5H18.1914C18.6056 13.5 18.9414 13.8358 18.9414 14.25C18.9414 14.6642 18.6056 15 18.1914 15H7.69141C7.27719 15 6.94141 14.6642 6.94141 14.25Z"/>
<path d="M6.94141 17.25C6.94141 16.8358 7.27719 16.5 7.69141 16.5H11.4414C11.8556 16.5 12.1914 16.8358 12.1914 17.25C12.1914 17.6642 11.8556 18 11.4414 18H7.69141C7.27719 18 6.94141 17.6642 6.94141 17.25Z"/>
</mask>
<path fill-rule="evenodd" clip-rule="evenodd" d="M21.9414 11.25H3.94141V20.25H21.9414V11.25ZM3.94141 9.75C3.11298 9.75 2.44141 10.4216 2.44141 11.25V20.25C2.44141 21.0784 3.11298 21.75 3.94141 21.75H21.9414C22.7698 21.75 23.4414 21.0784 23.4414 20.25V11.25C23.4414 10.4216 22.7698 9.75 21.9414 9.75H3.94141Z" fill="#262626"/>
<path d="M15.1914 4.5C15.1914 5.74264 14.184 6.75 12.9414 6.75C11.6988 6.75 10.6914 5.74264 10.6914 4.5C10.6914 3.25736 11.6988 2.25 12.9414 2.25C14.184 2.25 15.1914 3.25736 15.1914 4.5Z" fill="#262626"/>
<path fill-rule="evenodd" clip-rule="evenodd" d="M12.9414 5.25C13.3556 5.25 13.6914 4.91421 13.6914 4.5C13.6914 4.08579 13.3556 3.75 12.9414 3.75C12.5272 3.75 12.1914 4.08579 12.1914 4.5C12.1914 4.91421 12.5272 5.25 12.9414 5.25ZM12.9414 6.75C14.184 6.75 15.1914 5.74264 15.1914 4.5C15.1914 3.25736 14.184 2.25 12.9414 2.25C11.6988 2.25 10.6914 3.25736 10.6914 4.5C10.6914 5.74264 11.6988 6.75 12.9414 6.75Z" fill="#262626"/>
<path fill-rule="evenodd" clip-rule="evenodd" d="M5.63394 9.99828L11.0339 3.99828L12.1489 5.00172L6.74888 11.0017L5.63394 9.99828ZM14.8489 3.99828L20.2489 9.99828L19.1339 11.0017L13.7339 5.00172L14.8489 3.99828Z" fill="#262626"/>
<path d="M6.94141 14.25C6.94141 13.8358 7.27719 13.5 7.69141 13.5H18.1914C18.6056 13.5 18.9414 13.8358 18.9414 14.25C18.9414 14.6642 18.6056 15 18.1914 15H7.69141C7.27719 15 6.94141 14.6642 6.94141 14.25Z" fill="#262626"/>
<path d="M6.94141 17.25C6.94141 16.8358 7.27719 16.5 7.69141 16.5H11.4414C11.8556 16.5 12.1914 16.8358 12.1914 17.25C12.1914 17.6642 11.8556 18 11.4414 18H7.69141C7.27719 18 6.94141 17.6642 6.94141 17.25Z" fill="#262626"/>
<path d="M15.1164 4.5C15.1164 5.70122 14.1426 6.675 12.9414 6.675V6.825C14.2255 6.825 15.2664 5.78406 15.2664 4.5H15.1164ZM12.9414 6.675C11.7402 6.675 10.7664 5.70122 10.7664 4.5H10.6164C10.6164 5.78406 11.6573 6.825 12.9414 6.825V6.675ZM10.7664 4.5C10.7664 3.29878 11.7402 2.325 12.9414 2.325V2.175C11.6573 2.175 10.6164 3.21594 10.6164 4.5H10.7664ZM12.9414 2.325C14.1426 2.325 15.1164 3.29878 15.1164 4.5H15.2664C15.2664 3.21594 14.2255 2.175 12.9414 2.175V2.325ZM3.94141 11.25V11.1C3.85856 11.1 3.79141 11.1672 3.79141 11.25H3.94141ZM21.9414 11.25H22.0914C22.0914 11.1672 22.0242 11.1 21.9414 11.1V11.25ZM3.94141 20.25H3.79141C3.79141 20.3328 3.85856 20.4 3.94141 20.4V20.25ZM21.9414 20.25V20.4C22.0242 20.4 22.0914 20.3328 22.0914 20.25H21.9414ZM11.0339 3.99828L11.1343 3.88678L11.0228 3.78644L10.9224 3.89793L11.0339 3.99828ZM5.63394 9.99828L5.52244 9.89793L5.4221 10.0094L5.53359 10.1098L5.63394 9.99828ZM12.1489 5.00172L12.2604 5.10207L12.3607 4.99057L12.2492 4.89023L12.1489 5.00172ZM6.74888 11.0017L6.64853 11.1132L6.76003 11.2136L6.86037 11.1021L6.74888 11.0017ZM20.2489 9.99828L20.3492 10.1098L20.4607 10.0094L20.3604 9.89793L20.2489 9.99828ZM14.8489 3.99828L14.9604 3.89793L14.86 3.78644L14.7485 3.88678L14.8489 3.99828ZM19.1339 11.0017L19.0224 11.1021L19.1228 11.2136L19.2343 11.1132L19.1339 11.0017ZM13.7339 5.00172L13.6336 4.89023L13.5221 4.99057L13.6224 5.10207L13.7339 5.00172ZM3.94141 11.4H21.9414V11.1H3.94141V11.4ZM4.09141 20.25V11.25H3.79141V20.25H4.09141ZM21.9414 20.1H3.94141V20.4H21.9414V20.1ZM21.7914 11.25V20.25H22.0914V11.25H21.7914ZM2.59141 11.25C2.59141 10.5044 3.19582 9.9 3.94141 9.9V9.6C3.03014 9.6 2.29141 10.3387 2.29141 11.25H2.59141ZM2.59141 20.25V11.25H2.29141V20.25H2.59141ZM3.94141 21.6C3.19582 21.6 2.59141 20.9956 2.59141 20.25H2.29141C2.29141 21.1613 3.03014 21.9 3.94141 21.9V21.6ZM21.9414 21.6H3.94141V21.9H21.9414V21.6ZM23.2914 20.25C23.2914 20.9956 22.687 21.6 21.9414 21.6V21.9C22.8527 21.9 23.5914 21.1613 23.5914 20.25H23.2914ZM23.2914 11.25V20.25H23.5914V11.25H23.2914ZM21.9414 9.9C22.687 9.9 23.2914 10.5044 23.2914 11.25H23.5914C23.5914 10.3387 22.8527 9.6 21.9414 9.6V9.9ZM3.94141 9.9H21.9414V9.6H3.94141V9.9ZM13.5414 4.5C13.5414 4.83137 13.2728 5.1 12.9414 5.1V5.4C13.4385 5.4 13.8414 4.99706 13.8414 4.5H13.5414ZM12.9414 3.9C13.2728 3.9 13.5414 4.16863 13.5414 4.5H13.8414C13.8414 4.00294 13.4385 3.6 12.9414 3.6V3.9ZM12.3414 4.5C12.3414 4.16863 12.61 3.9 12.9414 3.9V3.6C12.4444 3.6 12.0414 4.00294 12.0414 4.5H12.3414ZM12.9414 5.1C12.61 5.1 12.3414 4.83137 12.3414 4.5H12.0414C12.0414 4.99706 12.4444 5.4 12.9414 5.4V5.1ZM10.9224 3.89793L5.52244 9.89793L5.74543 10.0986L11.1454 4.09862L10.9224 3.89793ZM12.2492 4.89023L11.1343 3.88678L10.9336 4.10977L12.0485 5.11322L12.2492 4.89023ZM6.86037 11.1021L12.2604 5.10207L12.0374 4.90138L6.63738 10.9014L6.86037 11.1021ZM5.53359 10.1098L6.64853 11.1132L6.84922 10.8902L5.73428 9.88678L5.53359 10.1098ZM20.3604 9.89793L14.9604 3.89793L14.7374 4.09862L20.1374 10.0986L20.3604 9.89793ZM19.2343 11.1132L20.3492 10.1098L20.1485 9.88678L19.0336 10.8902L19.2343 11.1132ZM13.6224 5.10207L19.0224 11.1021L19.2454 10.9014L13.8454 4.90138L13.6224 5.10207ZM14.7485 3.88678L13.6336 4.89023L13.8343 5.11322L14.9492 4.10977L14.7485 3.88678ZM7.69141 13.65H18.1914V13.35H7.69141V13.65ZM18.1914 14.85H7.69141V15.15H18.1914V14.85ZM7.69141 16.65H11.4414V16.35H7.69141V16.65ZM11.4414 17.85H7.69141V18.15H11.4414V17.85ZM7.69141 17.85C7.36004 17.85 7.09141 17.5814 7.09141 17.25H6.79141C6.79141 17.7471 7.19435 18.15 7.69141 18.15V17.85ZM12.0414 17.25C12.0414 17.5814 11.7728 17.85 11.4414 17.85V18.15C11.9385 18.15 12.3414 17.7471 12.3414 17.25H12.0414ZM11.4414 16.65C11.7728 16.65 12.0414 16.9186 12.0414 17.25H12.3414C12.3414 16.7529 11.9385 16.35 11.4414 16.35V16.65ZM7.69141 16.35C7.19435 16.35 6.79141 16.7529 6.79141 17.25H7.09141C7.09141 16.9186 7.36004 16.65 7.69141 16.65V16.35ZM7.69141 14.85C7.36004 14.85 7.09141 14.5814 7.09141 14.25H6.79141C6.79141 14.7471 7.19435 15.15 7.69141 15.15V14.85ZM18.7914 14.25C18.7914 14.5814 18.5228 14.85 18.1914 14.85V15.15C18.6885 15.15 19.0914 14.7471 19.0914 14.25H18.7914ZM18.1914 13.65C18.5228 13.65 18.7914 13.9186 18.7914 14.25H19.0914C19.0914 13.7529 18.6885 13.35 18.1914 13.35V13.65ZM7.69141 13.35C7.19435 13.35 6.79141 13.7529 6.79141 14.25H7.09141C7.09141 13.9186 7.36004 13.65 7.69141 13.65V13.35Z" fill="#262626" mask="url(#path-1-outside-1_16252_12891)"/>
</svg>
