<svg width="25" height="24" viewBox="0 0 25 24" fill="none" xmlns="http://www.w3.org/2000/svg">
<path d="M2.09688 12.819C1.87656 12.6034 1.75 12.3128 1.75 12.0034C1.75 11.694 1.87656 11.4034 2.09688 11.1878L10.3469 3.31279C10.7969 2.88154 11.5094 2.90029 11.9359 3.35029C12.3625 3.80029 12.3484 4.51279 11.8984 4.93935L5.68281 10.8784H21.625C22.2484 10.8784 22.75 11.38 22.75 12.0034C22.75 12.6269 22.2484 13.1284 21.625 13.1284H5.68281L11.9031 19.0628C12.3531 19.494 12.3672 20.2019 11.9406 20.6519C11.5141 21.1019 10.8016 21.1159 10.3516 20.6894L2.10156 12.8143L2.09688 12.819Z" fill="#262626"/>
</svg>
