<svg width="25" height="24" viewBox="0 0 25 24" fill="none" xmlns="http://www.w3.org/2000/svg">
<path d="M20.1602 4.41662L19.7213 4.85828C17.3916 7.2028 14.258 8.54843 10.9727 8.62685V8.63098V13.9144V13.9185C14.258 13.997 17.3916 15.3426 19.7213 17.6871L20.1602 18.1288V4.41662ZM9.00391 6.64969H10.6732C13.5443 6.64969 16.3006 5.5022 18.3309 3.45899L19.8895 1.89047C20.7139 1.05668 22.1289 1.64694 22.1289 2.82333V8.77958C22.8918 9.14281 23.4414 10.1211 23.4414 11.2727C23.4414 12.4243 22.8918 13.4026 22.1289 13.7658V19.7221C22.1289 20.8985 20.7139 21.4887 19.8895 20.6549L18.3309 19.0864C16.3703 17.1134 13.7371 15.9741 10.9727 15.8998V20.1885C10.9727 21.464 9.94316 22.5 8.67578 22.5H7.36328C6.0959 22.5 5.06641 21.464 5.06641 20.1885V15.8957C3.61855 15.8957 2.44141 14.7111 2.44141 13.254V9.29141C2.44141 7.83434 3.61855 6.64969 5.06641 6.64969H9.00391ZM7.03516 15.8957V20.1885C7.03516 20.3701 7.18281 20.5187 7.36328 20.5187H8.67578C8.85625 20.5187 9.00391 20.3701 9.00391 20.1885V15.8957H7.03516ZM5.06641 8.63098C4.70547 8.63098 4.41016 8.92817 4.41016 9.29141V13.254C4.41016 13.6172 4.70547 13.9144 5.06641 13.9144H7.03516H9.00391V8.63098H5.06641Z" fill="#262626"/>
</svg>
