<svg width="24" height="24" viewBox="0 0 24 24" fill="none" xmlns="http://www.w3.org/2000/svg">
<path d="M5.4271 6.29996C7.02318 4.46098 9.37617 3.3 12 3.3C16.8049 3.3 20.7 7.19512 20.7 12C20.7 16.8049 16.8049 20.7 12 20.7C7.19512 20.7 3.3 16.8049 3.3 12H1.5C1.5 17.799 6.20101 22.5 12 22.5C17.799 22.5 22.5 17.799 22.5 12C22.5 6.20101 17.799 1.5 12 1.5C9.06134 1.5 6.40503 2.70768 4.5 4.65165L4.5 2.09996L2.7 2.09996L2.69999 8.09996L8.7 8.09996L8.7 6.29996L5.4271 6.29996Z" fill="#262626"/>
<path d="M12.9003 6.29993V11.5784L16.8679 14.8847L15.7155 16.2675L11.1003 12.4215V6.29993H12.9003Z" fill="#262626"/>
</svg>
