<svg width="25" height="24" viewBox="0 0 25 24" fill="none" xmlns="http://www.w3.org/2000/svg">
<path d="M14.9059 21.1352C13.3391 21.5852 11.7025 20.6727 11.2555 19.0956L11.0217 18.2698C10.8699 17.7331 10.5951 17.2377 10.2219 16.8248L8.11777 14.4962C7.75273 14.0916 7.78145 13.464 8.1834 13.0966C8.58535 12.7291 9.20879 12.758 9.57383 13.1626L11.6779 15.4912C12.2563 16.1312 12.6787 16.895 12.9125 17.7248L13.1463 18.5506C13.2939 19.0749 13.8395 19.3805 14.3645 19.2318C14.8895 19.0832 15.1889 18.5341 15.0412 18.0056L14.8074 17.1798C14.5736 16.3582 14.2045 15.582 13.7164 14.8884C13.5031 14.587 13.4785 14.1907 13.6467 13.8604C13.8148 13.5301 14.1512 13.3236 14.5203 13.3236H20C20.3609 13.3236 20.6562 13.0264 20.6562 12.663C20.6562 12.3823 20.4799 12.1387 20.2297 12.0437C19.9262 11.9281 19.6965 11.6721 19.6186 11.3542C19.5406 11.0363 19.6227 10.7019 19.8359 10.4583C19.9385 10.3427 20 10.1899 20 10.0207C20 9.69862 19.7703 9.43026 19.4668 9.37245C19.1305 9.30639 18.8475 9.07106 18.7285 8.74902C18.6096 8.42698 18.6629 8.05952 18.8762 7.78703C18.9623 7.67555 19.0156 7.53518 19.0156 7.37829C19.0156 7.10166 18.8434 6.85807 18.5973 6.76311C18.1256 6.57732 17.8713 6.06536 18.0066 5.57404C18.023 5.52036 18.0312 5.45844 18.0312 5.3965C18.0312 5.03318 17.7359 4.73591 17.375 4.73591H13.376C12.8592 4.73591 12.3506 4.88867 11.9199 5.17768L9.38926 6.87458C8.93809 7.18011 8.32695 7.05625 8.02344 6.59796C7.71992 6.13967 7.84297 5.52862 8.29824 5.2231L10.8289 3.5262C11.5836 3.01837 12.4695 2.75 13.376 2.75H17.375C18.7982 2.75 19.9549 3.88952 20 5.3098C20.5988 5.79286 20.9844 6.53603 20.9844 7.37416C20.9844 7.55995 20.9639 7.73748 20.9311 7.91089C21.5627 8.39395 21.9688 9.15776 21.9688 10.0165C21.9688 10.2849 21.9277 10.545 21.8539 10.7886C22.3297 11.2717 22.625 11.9323 22.625 12.663C22.625 14.1205 21.452 15.3054 20 15.3054H16.2143C16.407 15.7348 16.5711 16.1807 16.6982 16.6349L16.932 17.4606C17.3791 19.0378 16.4727 20.6851 14.9059 21.1352ZM2.9375 14.6448C2.21152 14.6448 1.625 14.0544 1.625 13.3236V4.07532C1.625 3.34453 2.21152 2.75413 2.9375 2.75413H5.5625C6.28848 2.75413 6.875 3.34453 6.875 4.07532V13.3236C6.875 14.0544 6.28848 14.6448 5.5625 14.6448H2.9375Z" fill="#262626"/>
</svg>
