<svg width="24" height="24" viewBox="0 0 24 24" fill="none" xmlns="http://www.w3.org/2000/svg">
<path d="M7.47552 7.52C6.40365 6.42951 6.40365 4.65837 7.47552 3.56787C8.5474 2.47738 10.2828 2.47738 11.3547 3.56787L12 4.22656L12.6453 3.56787C13.7172 2.47738 15.4526 2.47738 16.5245 3.56787C17.5964 4.65837 17.5964 6.42951 16.5245 7.52L12.8203 11.2965C12.5943 11.527 12.299 11.6405 12 11.6405C11.701 11.6405 11.4057 11.527 11.1797 11.2965L7.47552 7.52ZM8.33229 15.3913C8.04427 15.3913 7.76354 15.4755 7.52292 15.6365L4.6099 17.587C4.46771 17.6821 4.29635 17.7333 4.125 17.7333H2.375C1.8901 17.7333 1.5 17.3418 1.5 16.8551C1.5 16.3684 1.8901 15.9768 2.375 15.9768H3.85885L6.54948 14.1764C7.07812 13.8215 7.69792 13.6348 8.33229 13.6348H14.0417C15.3286 13.6348 16.375 14.6851 16.375 15.9768C16.375 16.0024 16.375 16.0244 16.375 16.05L18.7411 14.5863C19.1312 14.3447 19.576 14.2203 20.0354 14.2203H20.3052C21.5193 14.2203 22.5036 15.2084 22.5036 16.4269C22.5036 17.1735 22.1245 17.8724 21.501 18.2786L18.0156 20.5437C17.3083 21.0048 16.4807 21.25 15.6385 21.25H2.375C1.8901 21.25 1.5 20.8584 1.5 20.3717C1.5 19.8851 1.8901 19.4935 2.375 19.4935H15.6349C16.1417 19.4935 16.6375 19.3471 17.0604 19.069L20.5458 16.8039C20.6734 16.7197 20.75 16.5806 20.75 16.4269C20.75 16.1781 20.5495 15.9768 20.3016 15.9768H20.0318C19.9005 15.9768 19.7693 16.0134 19.6562 16.083L16.2474 18.1871C16.1089 18.2713 15.9521 18.3188 15.788 18.3188H14.0417H13.1667H10.8333C10.3484 18.3188 9.95833 17.9273 9.95833 17.4406C9.95833 16.9539 10.3484 16.5623 10.8333 16.5623H13.1667H14.0417C14.3625 16.5623 14.625 16.2989 14.625 15.9768C14.625 15.6548 14.3625 15.3913 14.0417 15.3913H8.33229Z" fill="#262626"/>
</svg>
