<svg width="32" height="32" viewBox="0 0 32 32" fill="none" xmlns="http://www.w3.org/2000/svg">
<path fill-rule="evenodd" clip-rule="evenodd" d="M8.03445 12.6458C7.30143 13.6124 7 14.8424 7 16H2L2.85204 26.0467C2.95 28.6 4.6836 30 7.57943 30H15.4206C18.6146 30 20.05 28.6 20.148 26.0468L21 16L16 16C16 14.8424 15.6986 13.6124 14.9656 12.6458C14.2057 11.6437 13.0345 11 11.5 11C9.96554 11 8.79432 11.6437 8.03445 12.6458ZM9.62805 13.8542C9.22357 14.3876 9 15.1576 9 16L14 16C14 15.1576 13.7764 14.3876 13.372 13.8542C12.9943 13.3563 12.4155 13 11.5 13C10.5845 13 10.0057 13.3563 9.62805 13.8542ZM4.67266 25.1762C4.75 27 6.11863 28 8.40481 28H14.5952C17.1168 28 18.25 27 18.3273 25.1763L19 18H4L4.67266 25.1762Z" fill="#262626"/>
<path fill-rule="evenodd" clip-rule="evenodd" d="M17.0344 2.64576C16.3014 3.61237 16 4.84238 16 6H11L11.4241 11.0005C9.92687 11.0214 8.78174 11.6603 8.03445 12.6458C7.30143 13.6124 7 14.8424 7 16H2L2.85204 26.0467C2.95 28.6 4.6836 30 7.57943 30H15.4206C18.6146 30 20.05 28.6 20.148 26.0468L20.6608 20H24.4206C27.6146 20 29.05 18.6 29.148 16.0468L30 6L25 6C25 4.84238 24.6986 3.61237 23.9656 2.64576C23.2057 1.64373 22.0345 1 20.5 1C18.9655 1 17.7943 1.64373 17.0344 2.64576ZM20.8304 18H23.5952C26.1168 18 27.25 17 27.3273 15.1763L28 8H13L13.3141 11.3511C13.9875 11.6375 14.5408 12.0856 14.9656 12.6458C15.6986 13.6124 16 14.8424 16 16L21 16L20.8304 18ZM18.6281 3.85424C18.2236 4.38763 18 5.15762 18 6L23 6C23 5.15762 22.7764 4.38763 22.372 3.85424C21.9943 3.35627 21.4155 3 20.5 3C19.5845 3 19.0057 3.35627 18.6281 3.85424ZM9 16C9 15.1576 9.22357 14.3876 9.62805 13.8542C10.0057 13.3563 10.5845 13 11.5 13C12.4155 13 12.9943 13.3563 13.372 13.8542C13.7764 14.3876 14 15.1576 14 16L9 16ZM8.40481 28C6.11863 28 4.75 27 4.67266 25.1762L4 18H19L18.3273 25.1763C18.25 27 17.1168 28 14.5952 28H8.40481Z" fill="#262626"/>
</svg>
