<svg width="48" height="24" viewBox="0 0 48 24" fill="none" xmlns="http://www.w3.org/2000/svg">
<path d="M0 12C0 5.37258 5.37258 0 12 0H36C42.6274 0 48 5.37258 48 12C48 18.6274 42.6274 24 36 24H12C5.37258 24 0 18.6274 0 12Z" fill="#E5E5E5"/>
<circle cx="36" cy="12" r="10" fill="white"/>
<path d="M42.7828 7.67702C43.0766 7.97077 43.0766 8.44577 42.7828 8.7364L34.5328 16.9895C34.2391 17.2833 33.7641 17.2833 33.4734 16.9895L29.2203 12.7395C28.9266 12.4458 28.9266 11.9708 29.2203 11.6801C29.5141 11.3895 29.9891 11.3864 30.2797 11.6801L33.9984 15.3989L41.7203 7.67702C42.0141 7.38327 42.4891 7.38327 42.7797 7.67702H42.7828Z" fill="#E5E5E5"/>
</svg>
