<svg width="25" height="24" viewBox="0 0 25 24" fill="none" xmlns="http://www.w3.org/2000/svg">
<path d="M8.38818 2.50938C8.07237 1.74652 7.23979 1.34048 6.44412 1.55786L2.83491 2.54219C2.12127 2.73905 1.625 3.38707 1.625 4.12532C1.625 14.2721 9.85237 22.4995 19.9992 22.4995C20.7374 22.4995 21.3855 22.0032 21.5823 21.2896L22.5667 17.6804C22.784 16.8847 22.378 16.0521 21.6151 15.7363L17.6778 14.0958C17.0093 13.8169 16.2341 14.0097 15.7789 14.5715L14.1219 16.5935C11.2345 15.2278 8.89675 12.89 7.53099 10.0026L9.55297 8.34975C10.1149 7.89039 10.3076 7.11933 10.0287 6.4508L8.38818 2.51348V2.50938Z" fill="#262626"/>
</svg>
