<svg width="24" height="24" viewBox="0 0 24 24" fill="none" xmlns="http://www.w3.org/2000/svg">
<path d="M18.4532 3.46856C19.0333 3.46856 19.5 3.02973 19.5 2.48428C19.5 1.93882 19.0333 1.5 18.4532 1.5H13.9172C11.7975 1.5 10.079 3.11586 10.079 5.10902V19.1391L6.28443 15.5711C5.87444 15.1856 5.21148 15.1856 4.80586 15.5711C4.40023 15.9566 4.39587 16.58 4.80586 16.9614L10.3843 22.2109C10.7943 22.5964 11.4573 22.5964 11.8629 22.2109L17.4501 16.9614C17.86 16.5759 17.86 15.9525 17.4501 15.5711C17.0401 15.1897 16.3771 15.1856 15.9715 15.5711L12.1769 19.1391L12.1726 5.10902C12.1726 4.20267 12.9533 3.46856 13.9172 3.46856H18.4532Z" fill="#262626"/>
</svg>
