<svg width="25" height="24" viewBox="0 0 25 24" fill="none" xmlns="http://www.w3.org/2000/svg">
<path d="M12.674 3.75C9.72838 3.75 7.36973 5.10536 5.65269 6.71853C3.94659 8.31696 2.80554 10.2321 2.26601 11.547C2.14571 11.8379 2.14571 12.1621 2.26601 12.453C2.80554 13.7679 3.94659 15.683 5.65269 17.2815C7.36973 18.8946 9.72838 20.25 12.674 20.25C15.6195 20.25 17.9782 18.8946 19.6952 17.2815C21.4013 15.6794 22.5424 13.7679 23.0856 12.453C23.2059 12.1621 23.2059 11.8379 23.0856 11.547C22.5424 10.2321 21.4013 8.31696 19.6952 6.71853C17.9782 5.10536 15.6195 3.75 12.674 3.75ZM7.42441 12C7.42441 10.5934 7.97749 9.24442 8.96197 8.24981C9.94645 7.2552 11.2817 6.69643 12.674 6.69643C14.0662 6.69643 15.4015 7.2552 16.3859 8.24981C17.3704 9.24442 17.9235 10.5934 17.9235 12C17.9235 13.4066 17.3704 14.7556 16.3859 15.7502C15.4015 16.7448 14.0662 17.3036 12.674 17.3036C11.2817 17.3036 9.94645 16.7448 8.96197 15.7502C7.97749 14.7556 7.42441 13.4066 7.42441 12ZM12.674 9.64286C12.674 10.943 11.6277 12 10.3408 12C10.082 12 9.8341 11.9558 9.60079 11.8785C9.40028 11.8122 9.16697 11.9374 9.17426 12.151C9.1852 12.4051 9.22165 12.6593 9.29092 12.9134C9.79035 14.7991 11.7115 15.9188 13.578 15.4142C15.4446 14.9096 16.5528 12.9686 16.0534 11.0829C15.6487 9.55446 14.3108 8.5269 12.8234 8.46429C12.612 8.45692 12.488 8.68895 12.5537 8.8952C12.6302 9.13092 12.674 9.38136 12.674 9.64286Z" fill="#262626"/>
</svg>
