<svg width="24" height="24" viewBox="0 0 24 24" fill="none" xmlns="http://www.w3.org/2000/svg">
<path fill-rule="evenodd" clip-rule="evenodd" d="M21 11.25H3V20.25H21V11.25ZM3 9.75C2.17157 9.75 1.5 10.4216 1.5 11.25V20.25C1.5 21.0784 2.17157 21.75 3 21.75H21C21.8284 21.75 22.5 21.0784 22.5 20.25V11.25C22.5 10.4216 21.8284 9.75 21 9.75H3Z" fill="#262626"/>
<path d="M14.25 4.5C14.25 5.74264 13.2426 6.75 12 6.75C10.7574 6.75 9.75 5.74264 9.75 4.5C9.75 3.25736 10.7574 2.25 12 2.25C13.2426 2.25 14.25 3.25736 14.25 4.5Z" fill="#262626"/>
<path fill-rule="evenodd" clip-rule="evenodd" d="M12 5.25C12.4142 5.25 12.75 4.91421 12.75 4.5C12.75 4.08579 12.4142 3.75 12 3.75C11.5858 3.75 11.25 4.08579 11.25 4.5C11.25 4.91421 11.5858 5.25 12 5.25ZM12 6.75C13.2426 6.75 14.25 5.74264 14.25 4.5C14.25 3.25736 13.2426 2.25 12 2.25C10.7574 2.25 9.75 3.25736 9.75 4.5C9.75 5.74264 10.7574 6.75 12 6.75Z" fill="#262626"/>
<path fill-rule="evenodd" clip-rule="evenodd" d="M4.69253 9.99828L10.0925 3.99828L11.2075 5.00172L5.80747 11.0017L4.69253 9.99828ZM13.9075 3.99828L19.3075 9.99828L18.1925 11.0017L12.7925 5.00172L13.9075 3.99828Z" fill="#262626"/>
<path d="M6 13.5H18V15H6V13.5Z" fill="#262626"/>
<path d="M6 16.5H11.25V18H6V16.5Z" fill="#262626"/>
</svg>
