<svg width="25" height="24" viewBox="0 0 25 24" fill="none" xmlns="http://www.w3.org/2000/svg">
<path d="M3.59375 4.13C2.50684 4.13 1.625 5.01184 1.625 6.09875C1.625 6.71809 1.91621 7.30051 2.4125 7.67375L11.3375 14.3675C11.8051 14.7161 12.4449 14.7161 12.9125 14.3675L21.8375 7.67375C22.3338 7.30051 22.625 6.71809 22.625 6.09875C22.625 5.01184 21.7432 4.13 20.6562 4.13H3.59375ZM1.625 8.72375V17.255C1.625 18.7029 2.80215 19.88 4.25 19.88H20C21.4479 19.88 22.625 18.7029 22.625 17.255V8.72375L13.7 15.4175C12.7648 16.1189 11.4852 16.1189 10.55 15.4175L1.625 8.72375Z" fill="#262626"/>
</svg>
