<svg width="25" height="24" viewBox="0 0 25 24" fill="none" xmlns="http://www.w3.org/2000/svg">
<path d="M8.67383 7.40625C8.67383 6.36196 9.09526 5.36044 9.8454 4.62202C10.5955 3.88359 11.613 3.46875 12.6738 3.46875C13.7347 3.46875 14.7521 3.88359 15.5023 4.62202C16.2524 5.36044 16.6738 6.36196 16.6738 7.40625C16.6738 8.45054 16.2524 9.45206 15.5023 10.1905C14.7521 10.9289 13.7347 11.3438 12.6738 11.3438C11.613 11.3438 10.5955 10.9289 9.8454 10.1905C9.09526 9.45206 8.67383 8.45054 8.67383 7.40625ZM13.6738 13.2305C16.5113 12.7629 18.6738 10.3307 18.6738 7.40625C18.6738 4.14551 15.9863 1.5 12.6738 1.5C9.36133 1.5 6.67383 4.14551 6.67383 7.40625C6.67383 10.3348 8.83633 12.7629 11.6738 13.2305V21.5156C11.6738 22.0611 12.1197 22.5 12.6738 22.5C13.228 22.5 13.6738 22.0611 13.6738 21.5156V13.2305Z" fill="#262626"/>
</svg>
