<svg width="24" height="24" viewBox="0 0 24 24" fill="none" xmlns="http://www.w3.org/2000/svg">
<path d="M12 17.25V18.75H8.16797V17.25H12Z" fill="#262626"/>
<path d="M5.07746 16.5H3.87567C3.39183 16.5 3 16.8984 3 17.3899V18.6101C3 19.1016 3.39183 19.5 3.87567 19.5H5.07746C5.5613 19.5 5.95312 19.1016 5.95312 18.6101V17.3899C5.95312 16.8984 5.5613 16.5 5.07746 16.5Z" fill="#262626"/>
<path d="M21 11.25V12.75H7.67578V11.25H21Z" fill="#262626"/>
<path d="M5.07746 10.5H3.87567C3.39183 10.5 3 10.8984 3 11.3899V12.6101C3 13.1016 3.39183 13.5 3.87567 13.5H5.07746C5.5613 13.5 5.95312 13.1016 5.95312 12.6101V11.3899C5.95312 10.8984 5.5613 10.5 5.07746 10.5Z" fill="#262626"/>
<path d="M21 5.25V6.75H8.16797V5.25H21Z" fill="#262626"/>
<path d="M5.07746 4.5H3.87567C3.39183 4.5 3 4.89843 3 5.38993V6.61007C3 7.10157 3.39183 7.5 3.87567 7.5H5.07746C5.5613 7.5 5.95312 7.10157 5.95312 6.61007V5.38993C5.95312 4.89843 5.5613 4.5 5.07746 4.5Z" fill="#262626"/>
<path d="M18.75 14.25H17.25V17.25H14.25V18.75H17.25V21.75H18.75V18.75H21.75V17.25H18.75V14.25Z" fill="#262626"/>
</svg>
