<svg width="24" height="24" viewBox="0 0 24 24" fill="none" xmlns="http://www.w3.org/2000/svg">
<path fill-rule="evenodd" clip-rule="evenodd" d="M11.9995 6.75C9.97096 6.75 7.84438 7.73028 5.68113 9.6144C4.94246 10.2578 4.26919 10.949 3.67425 11.6433L3.37616 12L3.38164 12.0069C3.47077 12.1162 3.56645 12.2308 3.66853 12.35C4.26488 13.0466 4.94009 13.7402 5.68113 14.3856C7.84438 16.2697 9.97096 17.25 11.9995 17.25C14.0285 17.25 16.1554 16.2697 18.3188 14.3856C19.0575 13.7422 19.7308 13.051 20.3257 12.3567L20.6239 11.9999C20.5333 11.8887 20.4357 11.7718 20.3315 11.65C19.7351 10.9534 19.0599 10.2599 18.3188 9.61442C16.1554 7.73034 14.0285 6.75 11.9995 6.75ZM21.7871 12.9472L21.4709 13.3256C20.8315 14.0724 20.1051 14.8189 19.3039 15.5167C16.9892 17.5326 14.5247 18.75 11.9995 18.75C9.47466 18.75 7.01051 17.5326 4.69596 15.5167C3.89478 14.8189 3.16848 14.0724 2.52908 13.3256C2.41697 13.1946 2.31152 13.0683 2.21291 12.9472L1.93781 12.6008C1.88631 12.5341 1.84267 12.4766 1.80708 12.429L1.5 12L1.7247 11.6836L1.93781 11.3992C2.02253 11.2896 2.1143 11.1738 2.21291 11.0528L2.52908 10.6744C3.16848 9.92759 3.89478 9.18109 4.69596 8.48328C7.01051 6.46737 9.47466 5.25 11.9995 5.25C14.5247 5.25 16.9892 6.46736 19.3039 8.48327C20.1051 9.18108 20.8315 9.92758 21.4709 10.6744C21.6951 10.9363 21.8927 11.1799 22.0622 11.3992L22.1335 11.4922L22.5 12L22.2753 12.3164L22.0622 12.6008C21.9775 12.7104 21.8857 12.8262 21.7871 12.9472Z" fill="#262626"/>
<path fill-rule="evenodd" clip-rule="evenodd" d="M12 9.00007C10.3427 9.00007 8.99999 10.3431 8.99999 12.0001C8.99999 13.6571 10.3427 15.0001 12 15.0001C13.6567 15.0001 15 13.6568 15 12.0001C15 10.3433 13.6567 9.00007 12 9.00007Z" fill="#262626"/>
</svg>
