<svg width="25" height="24" viewBox="0 0 25 24" fill="none" xmlns="http://www.w3.org/2000/svg">
<path d="M3.71469 3.66952C3.37345 3.39726 2.87799 3.46034 2.60893 3.80565C2.33987 4.15095 2.40222 4.65231 2.74346 4.92457L22.1681 20.3305C22.5094 20.6027 23.0048 20.5397 23.2739 20.1944C23.5429 19.849 23.4806 19.3477 23.1394 19.0754L19.6875 16.3396C20.9869 14.9915 21.8662 13.4808 22.3092 12.4084C22.4175 12.1461 22.4175 11.8539 22.3092 11.5916C21.8203 10.4063 20.7933 8.67976 19.2577 7.23878C17.7155 5.78451 15.5926 4.56266 12.9414 4.56266C10.7036 4.56266 8.83992 5.43589 7.38635 6.58137L3.71469 3.66952ZM8.66929 7.59736C9.85709 6.74406 11.2844 6.15638 12.9414 6.15638C15.0807 6.15638 16.8395 7.13917 18.188 8.40418C19.4513 9.59283 20.3241 11.0039 20.7703 12C20.3569 12.9297 19.5694 14.2179 18.444 15.3501L16.6787 13.949C16.9773 13.3646 17.1446 12.7039 17.1446 12C17.1446 9.65259 15.2645 7.75009 12.9447 7.75009C11.8881 7.75009 10.9202 8.1452 10.1819 8.79597L8.66929 7.59736ZM15.399 12.9363L12.7248 10.8147C12.8627 10.5325 12.9414 10.2104 12.9414 9.87505C12.9414 9.69243 12.9184 9.51314 12.8758 9.34381C12.8988 9.34381 12.9184 9.34381 12.9414 9.34381C14.3917 9.34381 15.5664 10.5325 15.5664 12C15.5664 12.3287 15.5073 12.6441 15.399 12.9363ZM15.7075 17.2626C14.8707 17.6245 13.9487 17.8436 12.9414 17.8436C10.8021 17.8436 9.04335 16.8608 7.69478 15.5958C6.43152 14.4072 5.55872 12.9961 5.11248 12C5.38482 11.3891 5.81794 10.6221 6.40527 9.84848L5.16826 8.86237C4.42015 9.84848 3.88532 10.8313 3.5736 11.5916C3.46532 11.8539 3.46532 12.1461 3.5736 12.4084C4.0625 13.5937 5.08951 15.3202 6.62511 16.7612C8.16727 18.2155 10.2902 19.4373 12.9414 19.4373C14.5098 19.4373 15.8912 19.009 17.0823 18.3583L15.7075 17.2626ZM8.74148 12C8.74148 14.3474 10.6216 16.2499 12.9414 16.2499C13.3778 16.2499 13.7978 16.1835 14.1948 16.0573L12.3508 14.5898C11.5797 14.4105 10.9366 13.8859 10.5888 13.1853L8.74804 11.7178C8.74148 11.8107 8.7382 11.9037 8.7382 12H8.74148Z" fill="#262626"/>
</svg>
