<svg id="vector" xmlns="http://www.w3.org/2000/svg" width="278" height="67" viewBox="0 0 278 67"><path fill="#FFFFFF" d="M36.572,50.832C35.699,51.136 34.78,51.292 33.855,51.29C30.887,51.29 29.457,49.735 28.16,47.4C27.724,46.659 27.492,45.035 27.492,45.035L27.492,32.24L38.468,32.24L37.874,27.141C37.591,24.627 35.462,22.723 32.924,22.714L27.492,22.714L27.492,6.9C27.492,6.9 24.206,7.118 23.107,7.196C17.489,7.635 13.691,11.367 13.691,15.725L13.716,23.082L4,23.443L4,27.124C4,29.949 6.298,32.24 9.136,32.24L13.716,32.24L13.716,45.345L13.789,47.254C13.82,52.637 16.774,57.581 21.506,60.17C26.241,62.76 32.013,62.591 36.584,59.726L36.572,50.834L36.572,50.832ZM105.886,58.588C103.067,56.319 101.658,53.154 101.66,49.088C101.66,44.866 103.019,41.621 105.738,39.354C108.459,37.087 112.356,35.953 117.427,35.951C119.424,35.955 121.416,36.177 123.367,36.616C125.132,36.986 126.846,37.577 128.472,38.375L128.472,37.594C128.472,33.58 125.274,31.571 118.876,31.571C114.409,31.571 111.674,31.872 107.969,33.631C107.969,33.631 107.466,29.837 107.343,28.543C107.071,25.693 109.262,23.561 112.934,22.858L113.011,22.843C115.726,22.341 118.48,22.092 121.237,22.102C128.037,22.102 133.179,23.496 136.658,26.289C140.137,29.082 141.876,32.979 141.872,37.98L141.872,55.141C141.872,59.739 140.31,60.812 136.603,60.812L129.655,60.812L129.297,57.619C127.809,59.047 126.046,60.14 124.121,60.824C121.821,61.641 119.397,62.04 116.963,61.996C112.393,61.996 108.701,60.862 105.888,58.595M125.345,52.572C126.59,52.027 127.666,51.151 128.466,50.032L128.466,46.739C126.262,45.221 123.658,44.429 121.002,44.471C119.227,44.471 117.856,44.862 116.891,45.645C115.926,46.426 115.439,47.573 115.433,49.086C115.433,50.482 115.903,51.58 116.843,52.378C117.785,53.176 119.144,53.568 120.923,53.551C122.45,53.562 123.959,53.228 125.343,52.572M203.545,58.58C200.727,56.311 199.317,53.146 199.319,49.08C199.319,44.854 200.679,41.607 203.4,39.341C206.119,37.074 210.016,35.94 215.088,35.938C217.086,35.94 219.077,36.164 221.028,36.603C222.794,36.973 224.508,37.564 226.133,38.362L226.133,37.581C226.133,33.565 222.936,31.558 216.538,31.558C212.069,31.558 209.334,31.856 205.627,33.618C205.627,33.618 205.125,29.822 205.003,28.528C204.733,25.676 206.921,23.544 210.594,22.839L210.671,22.826C213.386,22.33 216.138,22.087 218.895,22.1C225.697,22.1 230.836,23.498 234.314,26.291C237.793,29.084 239.532,32.983 239.532,37.984L239.532,55.15C239.532,59.752 237.967,60.824 234.262,60.824L227.313,60.824L226.963,57.617C225.475,59.047 223.709,60.14 221.783,60.824C219.485,61.641 217.061,62.04 214.627,61.996C210.058,61.996 206.366,60.862 203.551,58.593M223.006,52.57C224.251,52.025 225.331,51.147 226.133,50.028L226.133,46.735C223.927,45.215 221.323,44.425 218.667,44.467C216.89,44.467 215.519,44.858 214.554,45.639C213.591,46.422 213.104,47.569 213.099,49.082C213.099,50.478 213.566,51.577 214.506,52.375C215.444,53.173 216.804,53.564 218.585,53.549C220.111,53.56 221.618,53.226 223.003,52.57M42.694,58.599C39.877,56.33 38.468,53.165 38.468,49.099C38.468,44.871 39.828,41.626 42.547,39.36C45.268,37.091 49.165,35.959 54.235,35.955C56.233,35.959 58.224,36.183 60.175,36.62C61.941,36.99 63.655,37.581 65.28,38.379L65.28,37.6C65.28,33.584 62.083,31.575 55.685,31.575C51.217,31.575 48.483,31.875 44.778,33.635C44.778,33.635 44.274,29.839 44.151,28.545C43.88,25.693 46.07,23.561 49.743,22.858L49.82,22.843C52.535,22.341 55.289,22.092 58.046,22.102C64.846,22.102 69.985,23.496 73.463,26.291C76.942,29.084 78.681,32.983 78.681,37.984L78.681,55.15C78.681,59.752 77.116,60.824 73.411,60.824L66.464,60.824L66.111,57.617C64.624,59.047 62.86,60.14 60.934,60.824C58.634,61.641 56.211,62.04 53.778,61.996C49.207,61.996 45.515,60.862 42.702,58.593M62.159,52.57C63.404,52.025 64.482,51.145 65.28,50.028L65.28,46.735C63.076,45.215 60.472,44.425 57.818,44.467C56.039,44.467 54.668,44.856 53.705,45.639C52.742,46.422 52.255,47.569 52.248,49.082C52.248,50.478 52.717,51.577 53.655,52.375C54.597,53.157 55.953,53.549 57.734,53.549C59.26,53.56 60.769,53.226 62.153,52.57M97.83,60.1L97.818,5C97.818,5 94.626,5.213 93.561,5.291C88.121,5.722 84.426,9.362 84.426,13.596L84.426,60.1L97.83,60.1ZM193.029,32.157C191.445,29.219 189.044,26.801 186.114,25.189C183.157,23.548 179.718,22.725 175.8,22.725C173.399,22.714 171.013,23.092 168.734,23.842C166.678,24.479 164.771,25.512 163.116,26.884L163.154,5C163.154,5 159.907,5.215 158.827,5.294C153.276,5.728 149.532,9.421 149.532,13.71L149.532,60.845L162.308,60.845L162.668,57.149C166.115,60.379 170.494,61.998 175.8,62C179.665,62 183.09,61.191 186.076,59.574C189.009,58.008 191.426,55.625 193.029,52.718C194.67,49.77 195.489,46.34 195.489,42.432C195.489,38.582 194.666,35.155 193.019,32.153M178.958,49.093C177.26,50.712 175.019,51.521 172.237,51.52C170.268,51.546 168.334,50.997 166.672,49.943C165.064,48.932 163.819,47.435 163.124,45.668L163.124,39.128C163.819,37.361 165.062,35.865 166.672,34.853C168.332,33.798 170.268,33.249 172.237,33.276C175.017,33.276 177.258,34.097 178.958,35.738C180.659,37.382 181.513,39.614 181.518,42.432C181.518,45.259 180.668,47.48 178.971,49.093M272.104,50.828C271.231,51.132 270.314,51.288 269.389,51.288C266.423,51.288 264.99,49.734 263.694,47.397C263.259,46.657 263.028,45.033 263.028,45.033L263.028,32.24L274,32.24L273.422,27.148C273.142,24.625 271.003,22.716 268.458,22.714L263.028,22.714L263.028,6.9C263.028,6.9 259.742,7.118 258.644,7.196C253.028,7.635 249.219,11.367 249.219,15.725L249.244,23.08L239.532,23.441L239.532,27.122C239.532,29.949 241.83,32.24 244.664,32.24L249.244,32.24L249.244,45.343L249.306,47.256C249.336,52.637 252.289,57.581 257.023,60.17C261.752,62.76 267.522,62.591 272.093,59.726L272.104,50.83L272.104,50.828Z" stroke-width="1" fill-rule="evenodd" stroke="#00000000" id="path_0"/></svg>