<svg width="24" height="24" viewBox="0 0 24 24" fill="none" xmlns="http://www.w3.org/2000/svg">
<path d="M15.75 11.25V12.75H8.25V11.25H15.75Z" fill="#262626"/>
<path fill-rule="evenodd" clip-rule="evenodd" d="M3.75 1.5H9.40756V2.03248C9.40756 3.40333 10.5681 4.51491 12 4.51491C13.4315 4.51491 14.5936 3.40268 14.5936 2.03248V1.5H20.25V22.5H14.5135V21.9675C14.5135 20.6379 13.3882 19.5607 12 19.5607C10.6118 19.5607 9.48652 20.6379 9.48652 21.9675V22.5H3.75V1.5ZM5.25 21H8.10899C8.55634 19.2762 10.1717 18.0607 12 18.0607C13.8283 18.0607 15.4437 19.2762 15.891 21H18.75V3H15.9733C15.5236 4.76605 13.8709 6.01491 12 6.01491C10.1281 6.01491 8.4769 4.76601 8.0277 3H5.25V21Z" fill="#262626"/>
</svg>
