<svg width="24" height="24" viewBox="0 0 24 24" fill="none" xmlns="http://www.w3.org/2000/svg">
<path fill-rule="evenodd" clip-rule="evenodd" d="M1.52526 2.05763C1.63147 1.65726 2.04213 1.4188 2.4425 1.52502L4.86764 2.16837C5.36776 2.30105 5.76419 2.6821 5.91653 3.17658L6.37045 4.64994H20.9996C22.0084 4.64994 22.7296 5.62568 22.4336 6.59004L19.8826 14.902C19.728 15.4059 19.2625 15.7499 18.7354 15.7499H9.11433L7.47121 17.6249H20.2502C20.6644 17.6249 21.0002 17.9607 21.0002 18.3749C21.0002 18.7892 20.6644 19.1249 20.2502 19.1249H19.199C19.3904 19.4559 19.5 19.8401 19.5 20.2499C19.5 21.4926 18.4926 22.4999 17.25 22.4999C16.0074 22.4999 15 21.4926 15 20.2499C15 19.8401 15.1096 19.4559 15.301 19.1249H11.699C11.8904 19.4559 12 19.8401 12 20.2499C12 21.4926 10.9926 22.4999 9.75 22.4999C8.50736 22.4999 7.5 21.4926 7.5 20.2499C7.5 19.8401 7.60957 19.4559 7.80101 19.1249H7.47121C6.18194 19.1249 5.49336 17.606 6.34309 16.6363L7.9343 14.8206L4.48302 3.61822L2.05787 2.97487C1.65751 2.86865 1.41905 2.45799 1.52526 2.05763ZM9.32807 14.2499H11.6994L11.2439 11.2499H8.40381L9.32807 14.2499ZM14.8334 14.2499H13.2166L12.7611 11.2499H15.2889L14.8334 14.2499ZM16.3506 14.2499H18.5137L19.4344 11.2499H16.8061L16.3506 14.2499ZM17.0338 9.74994H19.8948L20.9996 6.14994H17.5804L17.0338 9.74994ZM16.0632 6.14994H11.9868L12.5334 9.74994H15.5166L16.0632 6.14994ZM7.94169 9.74994H11.0162L10.4696 6.14994H6.83258L7.94169 9.74994ZM9.75 20.9999C9.33579 20.9999 9 20.6642 9 20.2499C9 19.8357 9.33579 19.4999 9.75 19.4999C10.1642 19.4999 10.5 19.8357 10.5 20.2499C10.5 20.6642 10.1642 20.9999 9.75 20.9999ZM17.25 20.9999C16.8358 20.9999 16.5 20.6642 16.5 20.2499C16.5 19.8357 16.8358 19.4999 17.25 19.4999C17.6642 19.4999 18 19.8357 18 20.2499C18 20.6642 17.6642 20.9999 17.25 20.9999Z" fill="#262626"/>
</svg>
