<svg width="25" height="24" viewBox="0 0 25 24" fill="none" xmlns="http://www.w3.org/2000/svg">
<path d="M12.6731 2.75C13.2555 2.75 13.7929 3.05971 14.0882 3.56763L22.9482 18.7641C23.2477 19.2761 23.2477 19.9079 22.9564 20.42C22.6652 20.932 22.1196 21.25 21.5331 21.25H3.81306C3.22649 21.25 2.68094 20.932 2.38971 20.42C2.09848 19.9079 2.10258 19.272 2.39792 18.7641L11.2579 3.56763C11.5533 3.05971 12.0906 2.75 12.6731 2.75ZM12.6731 8.03571C12.1275 8.03571 11.6886 8.47757 11.6886 9.02679V13.6518C11.6886 14.201 12.1275 14.6429 12.6731 14.6429C13.2186 14.6429 13.6575 14.201 13.6575 13.6518V9.02679C13.6575 8.47757 13.2186 8.03571 12.6731 8.03571ZM13.9857 17.2857C13.9857 16.9352 13.8474 16.5991 13.6012 16.3513C13.3551 16.1035 13.0212 15.9643 12.6731 15.9643C12.3249 15.9643 11.9911 16.1035 11.7449 16.3513C11.4988 16.5991 11.3605 16.9352 11.3605 17.2857C11.3605 17.6362 11.4988 17.9723 11.7449 18.2201C11.9911 18.4679 12.3249 18.6071 12.6731 18.6071C13.0212 18.6071 13.3551 18.4679 13.6012 18.2201C13.8474 17.9723 13.9857 17.6362 13.9857 17.2857Z" fill="#262626"/>
</svg>
