<svg width="25" height="24" viewBox="0 0 25 24" fill="none" xmlns="http://www.w3.org/2000/svg">
<g clip-path="url(#clip0_16689_36386)">
<path d="M15.4481 6.75C15.4481 5.87976 15.1 5.04516 14.4805 4.42981C13.861 3.81445 13.0207 3.46875 12.1445 3.46875C11.2684 3.46875 10.4281 3.81445 9.80855 4.42981C9.18901 5.04516 8.84096 5.87976 8.84096 6.75C8.84096 7.62024 9.18901 8.45484 9.80855 9.07019C10.4281 9.68555 11.2684 10.0312 12.1445 10.0312C13.0207 10.0312 13.861 9.68555 14.4805 9.07019C15.1 8.45484 15.4481 7.62024 15.4481 6.75ZM6.85882 6.75C6.85882 5.35761 7.4157 4.02226 8.40697 3.03769C9.39823 2.05312 10.7427 1.5 12.1445 1.5C13.5464 1.5 14.8908 2.05312 15.8821 3.03769C16.8734 4.02226 17.4302 5.35761 17.4302 6.75C17.4302 8.14239 16.8734 9.47775 15.8821 10.4623C14.8908 11.4469 13.5464 12 12.1445 12C10.7427 12 9.39823 11.4469 8.40697 10.4623C7.4157 9.47775 6.85882 8.14239 6.85882 6.75ZM4.93036 20.5312H19.3587C18.9912 17.935 16.7448 15.9375 14.0317 15.9375H10.2574C7.54431 15.9375 5.29788 17.935 4.93036 20.5312ZM2.89453 21.2818C2.89453 17.2418 6.18984 13.9688 10.2574 13.9688H14.0317C18.0992 13.9688 21.3945 17.2418 21.3945 21.2818C21.3945 21.9545 20.8453 22.5 20.1681 22.5H4.12098C3.44375 22.5 2.89453 21.9545 2.89453 21.2818Z" fill="#262626"/>
<path d="M11.1869 20.0003C11.6264 20.0003 12.0089 19.8057 12.204 18.6742C12.3987 17.5427 12.0869 17.3464 11.6457 17.3464C11.4991 17.3549 11.356 17.3928 11.2242 17.4585C11.0924 17.5241 10.9747 17.6157 10.878 17.7283C10.7694 17.8528 10.6715 18.0276 10.5934 18.4768L10.5233 18.8841C10.4458 19.3333 10.478 19.4945 10.551 19.6325C10.6155 19.7463 10.7083 19.8402 10.8197 19.9052C10.9317 19.9697 11.0584 20.0031 11.1869 20.0008V20.0003Z" fill="#262626"/>
<path d="M24.1445 13.9858H10.3257C9.35061 13.9858 8.51764 14.689 8.35405 15.6503L7.18848 22.4995H8.71085L9.75971 16.4253H10.6168L10.7045 16.9208C11.1011 16.561 11.6085 16.3545 12.1392 16.337C13.1445 16.337 13.7611 16.9746 13.4681 18.6735C13.175 20.3724 12.3366 21.0082 11.333 21.0082C10.9342 21.0195 10.5466 20.8742 10.2502 20.6009L9.92321 22.4989H22.7047L24.1445 13.9858Z" fill="#262626"/>
<path d="M11.3341 21.009C12.3377 21.009 13.1761 20.3731 13.4691 18.6742C13.7622 16.9753 13.1455 16.3378 12.1402 16.3378C11.6101 16.3553 11.1027 16.5618 10.7055 16.9216L10.6179 16.426H9.76078L8.71191 22.5003H9.9254L10.2524 20.6022C10.5488 20.8749 10.9364 21.0209 11.3352 21.0096L11.3341 21.009ZM10.5239 18.8773L10.5941 18.47C10.6716 18.0208 10.77 17.8505 10.8787 17.7215C10.9754 17.6095 11.0936 17.5179 11.2249 17.4528C11.3567 17.3878 11.4998 17.3499 11.6463 17.3414C12.0859 17.3414 12.3993 17.536 12.2047 18.6691C12.0101 19.8023 11.6288 19.9952 11.1875 19.9952C11.058 19.9963 10.9301 19.9613 10.8187 19.8945C10.7067 19.8277 10.6145 19.731 10.5517 19.615C10.4787 19.4877 10.4464 19.3276 10.5239 18.8773Z" fill="white"/>
<path d="M17.5803 16.8869C17.5362 17.1386 17.4389 17.3768 17.2946 17.5861C16.7849 17.3825 16.2175 17.4532 15.8718 17.7536C15.7417 17.8594 15.6535 18.0099 15.624 18.1773L15.1505 20.9194H13.9404L14.7155 16.4292H15.5726L15.675 16.9966C16.0942 16.608 16.6322 16.3794 17.1973 16.35C17.5594 16.3472 17.6448 16.5146 17.5798 16.8875L17.5803 16.8869Z" fill="white"/>
<path d="M17.4999 18.647C17.7754 17.0544 18.7485 16.3286 20.0135 16.3286C21.2784 16.3286 22.0093 17.0098 21.7276 18.647C21.4464 20.2842 20.4513 21.0208 19.2045 21.0208C17.9576 21.0208 17.2086 20.3368 17.5005 18.647H17.4999ZM20.4626 18.647C20.6578 17.5138 20.3512 17.2847 19.8488 17.2847C19.3465 17.2847 18.9606 17.5138 18.7649 18.647C18.5686 19.7801 18.8673 20.063 19.3702 20.063C19.8732 20.063 20.2652 19.7892 20.4632 18.647H20.4626Z" fill="white"/>
</g>
<defs>
<clipPath id="clip0_16689_36386">
<rect width="24" height="24" fill="white" transform="translate(0.144531)"/>
</clipPath>
</defs>
</svg>
