<svg width="25" height="24" viewBox="0 0 25 24" fill="none" xmlns="http://www.w3.org/2000/svg">
<path d="M8.34766 3.46875C7.98672 3.46875 7.69141 3.76406 7.69141 4.125V19.875C7.69141 20.2359 7.98672 20.5312 8.34766 20.5312H17.5352C17.8961 20.5312 18.1914 20.2359 18.1914 19.875V4.125C18.1914 3.76406 17.8961 3.46875 17.5352 3.46875H8.34766ZM5.72266 4.125C5.72266 2.67715 6.8998 1.5 8.34766 1.5H17.5352C18.983 1.5 20.1602 2.67715 20.1602 4.125V19.875C20.1602 21.3229 18.983 22.5 17.5352 22.5H8.34766C6.8998 22.5 5.72266 21.3229 5.72266 19.875V4.125ZM11.6289 17.9062H14.2539C14.6148 17.9062 14.9102 18.2016 14.9102 18.5625C14.9102 18.9234 14.6148 19.2188 14.2539 19.2188H11.6289C11.268 19.2188 10.9727 18.9234 10.9727 18.5625C10.9727 18.2016 11.268 17.9062 11.6289 17.9062Z" fill="#262626"/>
</svg>
