<svg width="24" height="24" viewBox="0 0 24 24" fill="none" xmlns="http://www.w3.org/2000/svg">
<path d="M17.7748 10.9507C15.1662 10.9507 13.0498 13.0671 13.0498 15.6757C13.0498 18.2843 15.1662 20.4007 17.7748 20.4007C20.3834 20.4007 22.4998 18.2843 22.4998 15.6757C22.4998 13.0671 20.3834 10.9507 17.7748 10.9507Z" fill="#EAA407"/>
<path d="M16.9873 18.0383C16.9873 18.4747 17.3384 18.8258 17.7748 18.8258C18.2112 18.8258 18.5623 18.4747 18.5623 18.0383C18.5623 17.6018 18.2112 17.2508 17.7748 17.2508C17.3384 17.2508 16.9873 17.6018 16.9873 18.0383ZM17.2498 13.0508V15.6758C17.2498 15.9645 17.4861 16.2008 17.7748 16.2008C18.0636 16.2008 18.2998 15.9645 18.2998 15.6758C18.2998 14.7997 18.2998 13.9268 18.2998 13.0508C18.2998 12.762 18.0636 12.5258 17.7748 12.5258C17.4861 12.5258 17.2498 12.762 17.2498 13.0508Z" fill="#262626"/>
<path d="M2.53688 4.41774C1.93313 4.5457 1.5 5.08055 1.5 5.7007C1.5 13.1688 7.07156 19.3409 14.2903 20.276C13.6111 19.7609 13.05 19.1013 12.653 18.3401C7.19297 16.811 3.17016 11.8366 3.07828 5.91399C4.16437 5.68102 5.24719 5.44805 6.33328 5.21508C6.8025 6.3143 7.275 7.41023 7.74422 8.50945C7.35047 8.83102 6.96 9.15258 6.56625 9.47414C5.96906 9.96305 5.81484 10.8129 6.20203 11.4823C7.21594 13.2312 8.67281 14.688 10.4217 15.702C10.9237 15.9907 11.5242 15.9776 12 15.702V15.6757C12 14.5437 12.3248 13.4871 12.8892 12.5946C12.6628 12.6701 12.4594 12.8112 12.2986 13.0048C11.9344 13.4477 11.5734 13.894 11.2092 14.337C9.69984 13.4609 8.43984 12.2009 7.56375 10.6915C8.00672 10.3305 8.44969 9.96633 8.89266 9.60539C9.34547 9.23461 9.49969 8.61117 9.26672 8.07305C8.74172 6.84914 8.21672 5.62195 7.69172 4.39805C7.44562 3.82055 6.82547 3.49899 6.21187 3.63024C4.98797 3.89274 3.76078 4.15524 2.53688 4.41774Z" fill="#262626"/>
</svg>
