<svg width="24" height="24" viewBox="0 0 24 24" fill="none" xmlns="http://www.w3.org/2000/svg">
<path fill-rule="evenodd" clip-rule="evenodd" d="M16.4367 2.25566C14.6863 2.33475 13.0963 3.23717 12.0649 4.66678L12 4.75887L11.9361 4.66632C10.8544 3.16871 9.16189 2.25 7.31432 2.25C4.10366 2.25 1.5 4.99399 1.5 8.37802C1.5 11.3717 3.07414 14.2785 5.82337 16.9878C6.34562 17.502 6.93365 18.0264 7.57596 18.5568C8.48597 19.3082 9.45905 20.0349 10.4319 20.7103L10.9235 21.047L11.7341 21.5799L12.0048 21.75L12.6397 21.3339L13.3405 20.8542C13.4237 20.7961 13.5086 20.7366 13.595 20.6757C14.583 19.9787 15.5711 19.2347 16.4951 18.4731C17.1054 17.9701 17.6676 17.4755 18.1718 16.9935C21.0528 14.2383 22.5 11.4848 22.5 8.37802C22.5 4.99363 19.8981 2.25 16.6878 2.25L16.4367 2.25566Z" fill="#262626"/>
</svg>
