<svg width="375" height="202" fill="none" xmlns="http://www.w3.org/2000/svg">
    <defs>
        <linearGradient id="b" x1="165.884" y1="215.137" x2="84.134" y2="132.382"
            gradientUnits="userSpaceOnUse">
            <stop stop-color="#000578" />
            <stop offset="1" stop-color="#fff" stop-opacity="0" />
        </linearGradient>
        <clipPath id="a">
            <path fill="#fff" d="M0 0h375v201.009H0z" />
        </clipPath>
    </defs>
    <g clip-path="url(#a)">
        <path opacity=".5"
            d="M313.265 136.376c0 10.624-2.25 24.056-9.265 34.124-8.16 11.722-22.101 22.298-35.896 21.99l-104.88.308-17.915.202c-13.589-.303-42.809 5-62.309-14.721C60.483 155.507 53.76 118.058 58.5 93c8.703-46 41.821-72.016 58.5-81 29.615-15.952 98.11-21.22 119.5 16.701 5.646 10.013 10.601 28.212 18.692 34.583 8.091 6.37 9.433 10.417 19.018 12.393L279 77.5c23.086 12.5 34.265 40.5 34.265 58.876v-.005.005Z"
            fill="#FFCDB2" />
        <g style="mix-blend-mode:color-burn" opacity=".06">
            <path
                d="M301.5 173.5c-1.5 2.5-3.761 4.3-6 6.5-7.4 7.272-16.494 13.268-33 12.5l-114.925.814-22.5.5c-7.23 0-16.855-1.741-25.777-4.817-10.204-3.517-18.223-10.683-22.723-16.183 5.802-18.209 37.707-49.324 92.404-67.927-8.853 3.009 11.456-3.896 0 0C208.533 89.294 285.705 117.149 301.5 173.5Z"
                fill="#000" style="mix-blend-mode:lighten" />
        </g>
        <path
            d="M218.855 31.422h.001l5.658 2.23c2.315.913 2.315 4.19 0 5.102l-5.658 2.23a27.979 27.979 0 0 0-15.768 15.767v.001l-2.23 5.658c-.913 2.315-4.189 2.315-5.102 0l-2.23-5.658a28.017 28.017 0 0 0-15.767-15.767h-.001l-5.658-2.23c-2.315-.913-2.315-4.19 0-5.103l5.658-2.23a28.014 28.014 0 0 0 15.767-15.767h.001l2.23-5.658c.913-2.316 4.189-2.316 5.102 0l2.23 5.658a28.017 28.017 0 0 0 15.767 15.767Z"
            fill="#fff" stroke="#fff" />
        <path
            d="m185.548 15.837.874.358a.391.391 0 0 1 0 .723l-.874.358a3.698 3.698 0 0 0-2.045 2.123l-.328.863a.391.391 0 0 1-.731 0l-.327-.863a3.709 3.709 0 0 0-2.045-2.123l-.874-.358a.39.39 0 0 1 0-.723l.874-.358a3.707 3.707 0 0 0 2.045-2.124l.327-.863a.391.391 0 0 1 .731 0l.328.863a3.702 3.702 0 0 0 2.045 2.124Z"
            fill="#F8B825" />
        <path
            d="m219.761 46.781.22.087a.39.39 0 0 1 0 .727l-.22.087a2.36 2.36 0 0 0-1.33 1.33l-.087.22a.39.39 0 0 1-.727 0l-.087-.22a2.363 2.363 0 0 0-1.33-1.33l-.22-.087a.39.39 0 0 1 0-.727l.22-.087a2.363 2.363 0 0 0 1.33-1.33l.087-.22a.39.39 0 0 1 .727 0l.087.22c.24.608.721 1.09 1.33 1.33Z"
            fill="#FAC856" />
        <path
            d="m218.39 18.074.938.37a.39.39 0 0 1 0 .727l-.938.37a3.84 3.84 0 0 0-2.164 2.163l-.37.938a.39.39 0 0 1-.727 0l-.37-.938a3.844 3.844 0 0 0-2.164-2.164l-.938-.37a.39.39 0 0 1 0-.727l.938-.37a3.843 3.843 0 0 0 2.164-2.164l.37-.938a.39.39 0 0 1 .727 0l.37.938a3.845 3.845 0 0 0 2.164 2.165ZM180.176 48.072l.317.125a.39.39 0 0 1 0 .728l-.317.125a2.558 2.558 0 0 0-1.443 1.443l-.126.317a.39.39 0 0 1-.727 0l-.125-.317a2.563 2.563 0 0 0-1.443-1.443l-.318-.125a.39.39 0 0 1 0-.727l.318-.126a2.564 2.564 0 0 0 1.443-1.443l.125-.317a.39.39 0 0 1 .727 0l.126.317c.26.66.782 1.182 1.443 1.443Z"
            fill="#FF5A00" />
        <path stroke="#FF5A00" stroke-width="1.563" stroke-linecap="round"
            d="M198.395 18.301v4.867" />
        <path stroke="#FCA06F" stroke-width="1.563" stroke-linecap="round"
            d="m193.394 21.465 1.246 2.153M202.634 21.465l-1.246 2.153" />
        <path d="M37.824 189.288h147.241l-13.153-10.87-58.001-3.38-76.087 14.25Z" fill="url(#b)" />
        <path
            d="M203.942 175.565c-.804 2.183-5.055 13.626-15.047 13.626l-56.968-.115c-5.144-.342-12.115-5.599-14.631-11.544L77.388 56.04l-.67-2.038-.331-1.007-.67-2.039-.108-.33c-.1-.305-.19-.601-.273-.89-.566-1.986-.72-3.597-.538-4.958.26-1.986 1.23-3.438 2.665-4.733l6.786-5.38c5.574.007 68.225 2.954 70.013 8.41l49.678 132.49h.002Z"
            fill="#030CCB" />
        <path
            d="m193.604 182.222-55.338-.068c-5.573-.005-11.54-4.435-13.326-9.89L82.54 42.821c-1.787-5.456 1.282-9.875 6.854-9.868l60.816.067c5.574.006 11.54 4.436 13.327 9.89l41.781 125.302c1.786 5.457-4.595 14.008-11.716 14.008l.002.002Z"
            fill="#F5F9FF" />
        <path
            d="m191.703 174.834-7.823-.011-43.072-.047c-4.085-.006-8.409-2.724-10.625-6.413a11.043 11.043 0 0 1-1.032-2.239l-.47-1.432-3.628-11.078-3.622-11.056-7.191-21.953-3.978-12.146-17.867-54.536-1.768-5.41c-1.564-4.775 1.12-8.638 5.996-8.631l50.893.055c4.875.005 10.097 3.882 11.66 8.65l34.861 106.435 3.663 11.18c1.564 4.768-1.122 8.638-5.997 8.632Z"
            fill="#79A5FE" />
        <path opacity=".25"
            d="m159.335 48.295 34.863 106.435c-8.641-5.798-22.797-18.231-37.45-43.514-15.418-26.599-45.292-46.778-64.192-57.585l-1.77-5.41c-1.564-4.773 1.12-8.637 5.997-8.631l50.892.055c4.875.005 10.096 3.882 11.66 8.65Z"
            fill="#DEECFF" />
        <path fill-rule="evenodd" clip-rule="evenodd"
            d="M136.598 46.079a1.736 1.736 0 0 1-1.704 1.766l-11.083.197a1.735 1.735 0 1 1-.062-3.47l11.083-.198a1.735 1.735 0 0 1 1.766 1.705ZM120.331 46.374a1.736 1.736 0 0 1-1.713 1.758l-1.683.022a1.736 1.736 0 0 1-.045-3.471l1.683-.022a1.736 1.736 0 0 1 1.758 1.713Z"
            fill="#020775" />
        <path opacity=".25"
            d="m183.88 174.823-43.072-.047c-4.876-.006-10.094-3.879-11.657-8.652l-18.89-57.665c11.215 6.293 23.493 16.423 33.537 32.718 12.435 20.175 27.685 29.448 40.084 33.646h-.002Z"
            fill="#DEECFF" />
        <path
            d="m191.703 174.834-7.823-.011-43.072-.047c-4.085-.006-8.409-2.724-10.625-6.412a11.021 11.021 0 0 1-1.032-2.24l-.47-1.432 69.019 1.51c1.564 4.768-1.122 8.638-5.997 8.632ZM142.349 116.301c-14.358 18.829-1.525 25.933 1.339 27.221a.77.77 0 0 0 .914-.212c1.896-2.296 9.879-13.438-1.032-27.027a.778.778 0 0 0-1.221.018Z"
            fill="#517EFE" />
        <path d="M143.334 141.294s-2.901-10.364-.461-19.432" stroke="#79A5FE" stroke-width="1.125"
            stroke-miterlimit="10" stroke-linecap="round" />
        <path
            d="M141.551 143.875c-1.368.228-7.687.895-13.443-4.914a.443.443 0 0 1 .069-.683l1.54-1.014c.378-.249.183-.839-.27-.811l-3.079.19a.438.438 0 0 1-.383-.179c-1.235-1.683-2.408-3.731-3.457-6.221a.441.441 0 0 1 .293-.597c.741-.199 1.498-.38 2.119-.521.44-.1.466-.72.033-.853-1.021-.314-2.28-.59-3.257-.784a.439.439 0 0 1-.333-.292c-.895-2.689-1.662-5.802-2.241-9.406a.443.443 0 0 1 .619-.475c5.709 2.557 9.994 5.204 13.204 7.789a.44.44 0 0 1 .155.256l.316 1.535c.086.42.662.482.837.091a.442.442 0 0 1 .707-.141c8.719 8.111 7.322 15.271 6.922 16.712a.44.44 0 0 1-.353.316l.002.002Z"
            fill="#517EFE" />
        <path d="M140.042 141.27c-8.791-10.862-17.508-19.971-17.508-19.971" stroke="#79A5FE"
            stroke-width="1.125" stroke-miterlimit="10" stroke-linecap="round" />
        <path
            d="M144.631 143.858c1.156.209 7.733 1.067 13.664-5.029a.298.298 0 0 0-.051-.456l-2.137-1.407c-.256-.168-.123-.566.183-.546l3.695.228a.302.302 0 0 0 .26-.121c1.275-1.728 2.488-3.843 3.566-6.432a.3.3 0 0 0-.198-.403 57.98 57.98 0 0 0-2.787-.676c-.295-.064-.32-.474-.037-.572 1.111-.391 2.693-.74 3.851-.968a.296.296 0 0 0 .225-.198c.928-2.773 1.719-5.999 2.311-9.749a.3.3 0 0 0-.417-.32c-5.855 2.603-10.228 5.299-13.489 7.932a.283.283 0 0 0-.104.172l-.417 2.022c-.058.283-.446.325-.564.062l-.263-.59a.3.3 0 0 0-.475-.099c-9.094 8.36-7.404 15.736-7.048 16.944a.298.298 0 0 0 .234.208l-.002-.002Z"
            fill="#517EFE" />
        <path d="M146.522 141.014c7.108-11.662 14.945-17.419 14.945-17.419" stroke="#79A5FE"
            stroke-width="1.125" stroke-miterlimit="10" stroke-linecap="round" />
        <path
            d="M151.428 168.462h-16.885c-.796 0-1.481-.542-1.629-1.291l-4.313-21.729c-.194-.977.59-1.883 1.629-1.883h24.41c1.008 0 1.785.855 1.642 1.81l-3.213 21.729c-.115.783-.817 1.364-1.642 1.364h.001Z"
            fill="#517EFE" />
        <path d="M129.73 150.519h25.727M130.06 153.148h25.046" stroke="#79A5FE" stroke-width="1.125"
            stroke-miterlimit="10" />
        <path
            d="m141.653 138.462-13.156 25.612c-.43-.714-1.129-3.372-1.383-4.147l-3.857-11.35 5.645-13.089c.665-1.891.976-3.885.917-5.888l-.524-17.725-10.112 23.827-7.057-21.025 6.235-17.1 24.153 2.08 1.147 29.686a18.482 18.482 0 0 1-2.01 9.121l.002-.002Z"
            fill="#262626" />
        <path
            d="m119.841 57.222-.354 17.285-.022 1.067v.013l-17.8 6.77-.008-.024-1.26-3.902-2.116-6.542c9.902-8.58 21.56-14.667 21.56-14.667Z"
            fill="#EAA407" />
        <path opacity=".25" d="m123.199 71.866-3.734 3.708-17.808 6.76-1.26-3.903 22.802-6.565Z"
            fill="#221F20" />
        <path
            d="M92.753 65.764c-.409-.073-.772-.363-.95-.815-.288-.732.019-1.613.685-1.965l4.71-2.5c.667-.352 1.441-.045 1.728.686.289.732-.018 1.613-.685 1.965l-4.71 2.5a1.212 1.212 0 0 1-.778.13ZM92.949 68.906c-.41-.073-.773-.363-.95-.815-.289-.732.018-1.613.685-1.965l5.572-2.956c.666-.352 1.44-.046 1.728.685.288.733-.019 1.613-.685 1.966l-5.572 2.956a1.21 1.21 0 0 1-.778.13ZM94.657 71.245c-.41-.074-.773-.364-.95-.815-.289-.733.018-1.613.685-1.966l4.898-2.6c.666-.352 1.441-.045 1.728.686.288.732-.018 1.613-.685 1.965l-4.898 2.6a1.211 1.211 0 0 1-.778.13Z"
            fill="#F5B08B" />
        <path
            d="M98.294 72.847c-.661-.152-1.089-.853-.968-1.62l.108-.684c.127-.805.81-1.377 1.529-1.279.716.103 1.194.834 1.066 1.64l-.107.682c-.128.806-.811 1.378-1.53 1.28a1.662 1.662 0 0 1-.1-.02h.002Z"
            fill="#F5B08B" />
        <path d="M93.614 65.583s1.909-.99 4.707-2.45l-4.707 2.45Z" fill="#FDC3A4" />
        <path d="M93.614 65.583s1.909-.99 4.707-2.45" stroke="#221F20" stroke-width="1.125"
            stroke-miterlimit="10" stroke-linecap="round" />
        <path d="M94.552 68.446s1.91-.99 4.708-2.45l-4.708 2.45Z" fill="#FDC3A4" />
        <path d="M94.552 68.446s1.91-.99 4.708-2.45" stroke="#221F20" stroke-width="1.125"
            stroke-miterlimit="10" stroke-linecap="round" />
        <path
            d="M190.578 38.663a669.66 669.66 0 0 1-.87-11.61.585.585 0 0 1 .665-.62c1.682.23 5.453.995 5.853 5.994.309 3.865 1.432 7.002 1.44 9.062.003 1.367-.528 2.825-1.31 3.945l-1.27 1.817-2.863 5.397-4.747-4.441 1.867-4.025c.847-1.461 1.452-3.001 1.236-5.517l-.001-.002Z"
            fill="#F5B08B" />
        <path
            d="M195.57 35.638s-1.525-1.043-3.84-1.222M191.102 26.767s1.585 3.268 1.375 7.538M193.482 27.86s1.127 2.15 1.167 7.166"
            stroke="#221F20" stroke-width="1.125" stroke-miterlimit="10" stroke-linecap="round" />
        <path
            d="M192.797 39.615s-.566-2.01-3.053-1.697c0 0-1.688-2.968-4.612-3.3a1.091 1.091 0 0 0-1.091.576.51.51 0 0 0 .099.607c.944.91 4.008 3.893 4.446 4.773 0 0 1.259 2.346 1.277 3.471"
            fill="#F5B08B" />
        <path
            d="M192.797 39.615s-.566-2.01-3.053-1.697c0 0-1.688-2.968-4.612-3.3a1.091 1.091 0 0 0-1.091.576.51.51 0 0 0 .099.607c.944.91 4.008 3.893 4.446 4.773 0 0 1.259 2.346 1.277 3.471"
            stroke="#221F20" stroke-width="1.125" stroke-miterlimit="10" stroke-linecap="round" />
        <path
            d="M144.213 96.816a2.552 2.552 0 0 1-1.536 3.245c-.245.087-.51.139-.79.148l-22.464.705c-2.26.195-3.909-2.092-3.011-4.174l1.071-2.485 2.201-5.104-.621-31.304c3.952-3.477 8.067-4.237 13.734-3.139.327.06.656.14.985.24l16.556 5.442 8.672 2.047-15.239 33.122.442 1.257Z"
            fill="#EAA407" />
        <path
            d="M150.338 60.39c.493 6.94-6.143 11.207-6.143 11.207-9.697-5.533-13.12-14.782-12.803-17.148.229.042 1.098.177 1.741.314.28.06.55.155.649.185l16.556 5.442Z"
            fill="#FCE2A6" />
        <path d="M133.782 54.948s1.425 5.412 10.175 12.225c0 0 4.116-2.724 3.44-7.8l-13.615-4.425Z"
            fill="#F5B08B" />
        <path d="m136.869 53.802-.95 1.856-1.268-.418s1.314.057 2.218-1.438Z" fill="#F5B08B" />
        <path
            d="m150.099 52.264-3.235 7.483-.578 1.339-10.367-5.428 4.266-8.343.186-.363-.126-4.582v-.017l.007-.787 7.852-1.573 1.88 11.573.115.698Z"
            fill="#F5B08B" />
        <path opacity=".25"
            d="m150.099 52.264-2.85 6.595a.982.982 0 0 1-1.328.502c-.004 0-.006-.003-.009-.003a10.333 10.333 0 0 1-2.883-2.087 10.198 10.198 0 0 1-2.864-6.388c0-.024-.004-.051-.004-.075-.005-.108-.011-.215-.013-.322l.037-3.173.058-4.86v-.085l1.087-.307c-.013.106-.073.859-.318 5.192-.329 5.767 3.455 5.992 3.455 5.992 2.252-1.52 4.231-1.445 5.517-1.096l.115.113v.002Z"
            fill="#221F20" />
        <path
            d="M140.764 35.932s3.723-6.196 13.588-7.212c1.472-.152 2.102.974 1.066 2.03-.286.292-1.096 1.065-1.432 1.34 0 0 2.697-2.093 8.564-2.199 1.696-.031 2.384 1.763 1.275 3.045-1.328 1.537-3.953 3.5-6.689 4.686 0 0 2.353-.605 5.049-.39 1.904.15 2.073 1.492.521 2.602-2.562 1.833-8.018 4.787-17.487 5.735l-4.457-9.639.002.002Z"
            fill="#262626" />
        <path
            d="M155.667 44.197c-.084 1.278-.358 4.88-.572 6.503-.553 4.196-2.744 3.836-6.463 3.59-4.825-.32-8.299-3.197-7.93-8.79.064-.954.012-1.919-.02-2.87a32.342 32.342 0 0 1-.024-1.027c-.002-.514.014-1.023.073-1.519.033-.294.08-.582.148-.867.57-2.443 1.83-4.408 4.879-5.03.93-.188 2.028-.253 3.323-.167.479.03.93.102 1.356.208 2.822.707 4.488 3.007 5.053 6.158.208 1.165.266 2.45.177 3.81Z"
            fill="#F5B08B" />
        <path d="M149.75 42.465s-1.703-.872-2.89.831" stroke="#221F20" stroke-width="1.5"
            stroke-miterlimit="10" stroke-linecap="round" />
        <path d="m149.076 45.267-.159.985M153.793 45.534l-.158.985" stroke="#221F20"
            stroke-width="1.125" stroke-miterlimit="10" stroke-linecap="round" />
        <path
            d="M155.333 49.076c-.223 2.35.029 8.237-3.057 8.208-14.296-.131-12.139-12.793-11.951-17.27l1.568-.419c-.015.1.86.842.615 4.925-.327 5.435 2.489 4.596 2.489 4.596 3.962-2.52 7.318.647 7.318.647l.586.479s1.493-.27 2.432-1.168v.002Z"
            fill="#262626" />
        <path opacity=".25"
            d="M150.506 34.138c-2.103-.502-5.921-1.605-7.24.718.289-1.14-.195-1.304-.975-.46-2.17 2.017-1.615 8.188-1.615 8.188s2.83-.326 5.528-.12c8.564.65 9.344-2.396 9.344-1.926 0-3.201-2.221-5.693-5.044-6.4h.002Z"
            fill="#221F20" />
        <path
            d="M152.688 49.652a6.94 6.94 0 0 0 .248-.156c.749-.488.908-1.454.36-2.194a7.484 7.484 0 0 1-1.085-2.135c-.13-.406-.156-.83-.04-1.224.162-.56.617-1.184 1.863-1.06l-3.447-.188.023 5.73 2.078 1.227Z"
            fill="#F5B08B" />
        <path
            d="M152.688 49.652a6.8 6.8 0 0 0 .248-.156c.749-.487.908-1.454.36-2.194a7.485 7.485 0 0 1-1.085-2.135c-.13-.406-.156-.83-.04-1.224.162-.56.65-1.562 1.896-1.438"
            stroke="#221F20" stroke-width="1.125" stroke-miterlimit="10" stroke-linecap="round" />
        <path d="M155.451 43.296s-.95-1.703-2.415-.435" stroke="#221F20" stroke-width="1.5"
            stroke-miterlimit="10" stroke-linecap="round" />
        <path
            d="m152.132 51.63-1.487 2.035a.93.93 0 0 1-1.006.347 6.046 6.046 0 0 1-.249-.077c-1.007-.325-2.532-1.057-2.705-2.544a2.797 2.797 0 0 1 .087-1.056.591.591 0 0 1 .735-.419l3.372 1.108 1.186.387a.14.14 0 0 1 .069.215l-.002.004Z"
            fill="#8C2521" />
        <path
            d="m152.088 51.424-.285.57a.639.639 0 0 1-.716.34c-1.08-.253-2.777-1.113-3.531-1.513a.765.765 0 0 1-.404-.76c.004-.046.011-.093.017-.137a.584.584 0 0 1 .336-.004l4.585 1.504h-.002Z"
            fill="#fff" />
        <path
            d="M149.388 53.937c-1.006-.325-2.532-1.057-2.705-2.544.371-.031 1.052.018 1.768.626.369.314 1.162 1.312.937 1.918Z"
            fill="#FB8273" />
        <path d="M149.971 55.01s1.034.449 1.69-.742" stroke="#767675" stroke-width="1.081"
            stroke-linecap="round" stroke-linejoin="round" />
        <path d="M153.097 51.276c-.28.376-1.007.146-1.007.146l-4.868-1.65" stroke="#767675"
            stroke-width=".375" stroke-linecap="round" stroke-linejoin="round" />
        <path
            d="m156.147 38.404-2.201-4.054s-6.039-4.391-11.021-.084c0 0 .292-1.244.468-1.953.316-1.267-.466-1.633-1.328-.65-1.484 1.692-1.913 3.244-1.849 4.425 0 0-.006-.052-.294-.371-.636-.71-1.814-.267-1.82.687-.018 2.568.355 6.587 2.832 6.99 0 0 1.772.142 3.367-.076 1.594-.217 2.038-2.305.674-3.151a4.455 4.455 0 0 0-.404-.221c7.512 1.217 11.147-.592 11.573-1.542h.003Z"
            fill="#262626" />
        <path
            d="M138.332 44.178a2.147 2.147 0 0 0 2.028 2.258c1.183.063 1.238-.895 1.3-2.08.062-1.183.11-2.142-1.072-2.206a2.147 2.147 0 0 0-2.258 2.028h.002Z"
            fill="#F5B08B" />
        <path d="M140.49 43.227s-1.081 0-1.081 1.081" stroke="#221F20" stroke-width="1.125"
            stroke-miterlimit="10" stroke-linecap="round" />
        <path d="M143.076 45.157a1.505 1.505 0 1 0 0-3.01 1.505 1.505 0 0 0 0 3.01Z"
            fill="#262626" />
        <path d="M142.497 46.16a.926.926 0 1 0 0-1.852.926.926 0 0 0 0 1.852Z" fill="#262626" />
        <path
            d="M194.231 49.701s-5.797 15.309-18.528 24.068c-6.384 4.394-14.512 7.14-24.528 5.48-.09-.014-.179-.028-.269-.045l1.995-4.127.133-.275 5.976-12.364s15.082 1.995 28.809-15.327l6.412 2.59Z"
            fill="#EAA407" />
        <path
            d="m188.044 46.72 6.017 2.873c.521.249.749.868.515 1.396l-1.779 3.995a1.065 1.065 0 0 1-1.584.44l-6.516-4.536a1.067 1.067 0 0 1-.154-1.62l2.28-2.333c.32-.327.811-.413 1.222-.217l-.001.002Z"
            fill="#FCE2A6" />
        <path d="M129.299 111.875a3.277 3.277 0 0 0 3.621-2.618l1.096-5.568" stroke="#767675"
            stroke-width="1.125" stroke-linecap="round" stroke-linejoin="round" />
        <path opacity=".28"
            d="m84.534 43.11-9.198 6.626c-.566-1.986-.72-3.597-.538-4.958l8.273-6.113 1.463 4.445ZM85.185 46.526l-8.798 6.469-.67-2.04 8.71-6.435.758 2.006ZM86.052 49.67l-8.664 6.37-.67-2.039 8.576-6.337.758 2.006Z"
            fill="#DEECFF" />
        <path
            d="m161.677 144.905.364-4.495a4.641 4.641 0 0 1 1.372-2.938l3.326-3.275 8.243.025 2.376 1.718a6.719 6.719 0 0 1 2.638 4.04l.928 4.319h-5.654l-.1-5.371-8.159-.044-.032 5.643-5.304.38.002-.002Z"
            fill="#FF5A00" />
        <path
            d="m166.739 134.197.274 4.686 2.728.027-3.002-4.713ZM174.982 134.222l.188 4.704h-2.667l2.479-4.704Z"
            fill="#C44100" />
        <path opacity=".58"
            d="M170 173.464c11.26 0 20.389-.651 20.389-1.454 0-.803-9.129-1.454-20.389-1.454-11.261 0-20.389.651-20.389 1.454 0 .803 9.128 1.454 20.389 1.454Z"
            fill="#020775" />
        <path
            d="M159.374 172.573h16.267a3.33 3.33 0 0 0 3.323-3.108l1.482-22.088a3.33 3.33 0 0 0-3.327-3.553l-15.88.016a3.33 3.33 0 0 0-3.316 3.049l-1.871 22.072a3.331 3.331 0 0 0 3.32 3.612h.002Z"
            fill="#C44100" />
        <path
            d="m184.132 172.563-15.714-.04a3.02 3.02 0 0 1-3.002-2.78l-1.803-22.687a3.02 3.02 0 0 1 2.993-3.259l15.836-.094a3.02 3.02 0 0 1 3.029 2.797l1.683 22.819a3.018 3.018 0 0 1-3.018 3.241l-.004.003Z"
            fill="#FF5A00" />
        <path
            d="M179.061 162.388a2.229 2.229 0 0 1-.756.115c-.824-.012-1.217-.453-1.566-1.109-.117-.208-.175-.661-.175-.661l.055-3.568 3.048.048-.138-1.425a1.389 1.389 0 0 0-1.36-1.253l-1.508-.024.036-2.424.031-1.986s-.915.046-1.22.066c-1.564.098-2.634 1.122-2.653 2.336l-.025 2.052-2.7.058-.017 1.027a1.429 1.429 0 0 0 1.405 1.449l1.273.02-.056 3.652.009.533a4.134 4.134 0 0 0 6.279 3.573l.038-2.479Z"
            fill="#fff" />
        <path opacity=".25"
            d="m183.88 174.823-43.072-.047c-4.876-.006-10.094-3.879-11.657-8.652l-18.89-57.665c11.215 6.293 23.493 16.423 33.537 32.718 12.435 20.175 27.685 29.448 40.084 33.646h-.002Z"
            fill="#DEECFF" />
        <path
            d="m119.957 70.245-.49 5.342M143.771 95.56l-1.601-2.589M151.314 79.184s1.671-3.486 2.27-6.31M161.79 64.043l2.324-1.797a1.646 1.646 0 0 1 2.519.652M166.23 64.64l-1.709 3.417"
            stroke="#221F20" stroke-width="1.125" stroke-miterlimit="10" stroke-linecap="round" />
        <path opacity=".25"
            d="M142.677 100.061c-.245.087-.51.139-.79.148l-22.464.705c-2.26.195-3.909-2.092-3.011-4.174l1.071-2.485c.347 1.341 1.571 2.987 5.42 3.29 5.411.428 15.954 1.951 19.774 2.516Z"
            fill="#221F20" />
        <path opacity=".58"
            d="M230.975 191.282c20.895 0 37.833-.75 37.833-1.677 0-.926-16.938-1.677-37.833-1.677s-37.833.751-37.833 1.677c0 .927 16.938 1.677 37.833 1.677Z"
            fill="#020775" />
        <path d="m208.167 179.128 4.16-21.391 9.969 2.215-7.905 21.054-6.224-1.878Z"
            fill="#FDC3A4" />
        <path
            d="M207.464 178.142c-1.027 1.078-5.042 4.556-13.661 4.057a.757.757 0 0 0-.786.586l-.164.735 21.856 4.845.793-8.283a.752.752 0 0 0-.585-.652l-6.739-1.504a.757.757 0 0 0-.714.212v.004Z"
            fill="#E90061" />
        <path d="m214.499 189.709-21.944-4.855.298-1.334 21.944 4.856-.298 1.333Z" fill="#fff" />
        <path
            d="m212.654 182.497-.837 2.727s1.829.775.897 2.642M204.088 180.182l3.193 1.794M202.232 180.897l3.193 1.795"
            stroke="#fff" stroke-width="1.125" stroke-miterlimit="10" stroke-linecap="round" />
        <path
            d="m206.846 179.7 7.932 2.951a.837.837 0 0 0 1.124-.695l.232-2.126a.835.835 0 0 0-.68-.913l-7.767-1.433a.834.834 0 0 0-.853.368l-.397.608a.836.836 0 0 0 .409 1.24Z"
            fill="#fff" />
        <path
            d="M258.399 48.778a34.26 34.26 0 0 1-4.311 1.498.604.604 0 0 1-.572-.133c-.442-.4-.884-.935-1.275-1.464-.391-.527-1.175-.186-1.104.437.081.709.169 1.368.232 1.81-4.506.91-10.544 1.297-16.994-.632a8.426 8.426 0 0 1-5.998-8.59c.265-4.265 1.811-9.937 7.22-14.658a.611.611 0 0 1 .592-.118l16.227 5.252a.61.61 0 0 1 .42.51c.24 1.936 1.522 10.633 5.762 15.102a.615.615 0 0 1-.199.988v-.002Z"
            fill="#8C2521" />
        <path d="m229.033 76.557-2.744 9.507 15.567 2.648 3.26-7.22-16.083-4.935Z" fill="#fff" />
        <path d="m261.249 169.991-17.821-12.545 6.1-8.191 15.981 15.823-4.26 4.913Z"
            fill="#FDC3A4" />
        <path
            d="M260.061 170.228c.563 1.378 2.098 6.465-1.883 14.125a.755.755 0 0 0 .214.957l.603.45 13.359-17.963-7.234-4.111a.754.754 0 0 0-.835.267l-4.127 5.535a.76.76 0 0 0-.098.738l.001.002Z"
            fill="#E90061" />
        <path d="m273.759 168.184-13.668 18.394-1.096-.816 13.668-18.395 1.096.817Z" fill="#fff" />
        <path
            d="m264.873 166.206 2.737 2.437s1.609-1.705 3.474.769M260.544 174.143l2.943-2.179M260.438 176.131l2.943-2.181"
            stroke="#fff" stroke-width="1.125" stroke-miterlimit="10" stroke-linecap="round" />
        <path
            d="m260.531 170.628 5.422-6.496a.836.836 0 0 0-.28-1.29l-1.927-.928a.836.836 0 0 0-1.089.338l-3.937 6.849a.836.836 0 0 0 .062.926l.443.576a.837.837 0 0 0 1.306.027v-.002Z"
            fill="#fff" />
        <path d="M248.872 52.083s.333 1.438 1.135 1.648c.801.21 0 0 0 0l-.777-.093-.358-1.555Z"
            fill="#FDC3A4" />
        <path
            d="M249.334 54.01h-10.153l.453-2.422-.325-6.997.077-.875.173-1.944 7.128-2.221s.548 5.899 2.646 14.46h.001Z"
            fill="#FDC3A4" />
        <path opacity=".25"
            d="M241.092 49.653c-.536.25-1.093.38-1.531.556l-.252-6.06.076-.767 7.673-2.276s1.339 5.131-5.968 8.547h.002Z"
            fill="#221F20" />
        <path
            d="m257.164 61.977-9.26 17.954a2.904 2.904 0 0 0 .042 2.738l.811 1.462c.608 1.094-.327 2.406-1.56 2.184l-20.201-3.602 2.463-18.478 1.401-9.635c.444-2.406 4.264-2.621 6.697-2.387l.08.007 13.729 1.673 3.708.453 2.088 7.63h.002Z"
            fill="#E90061" />
        <path
            d="M249.265 38.712c-.385 3.692-6.237 8.819-11.239 8.4-5.001-.418-5.31-4.711-4.821-10.573.185-2.213.908-4.23 2.001-5.863 1.861-2.804 4.801-4.51 7.956-4.247 3.67.307 6.678 2.123 7.784 6.012 1.074 4.344-1.681 6.27-1.681 6.27v.002Z"
            fill="#FDC3A4" />
        <path
            d="M237.391 43.928c-1.592-.038-2.218-1.863-2.218-1.863s.712-1.305 4.34-1.23c.596.013.961.67.643 1.177-.551.875-1.488 1.945-2.765 1.916Z"
            fill="#fff" />
        <path d="M238.267 32.905s1.754-.745 2.629.879" stroke="#221F20" stroke-width="1.125"
            stroke-miterlimit="10" stroke-linecap="round" />
        <path
            d="M243.565 40.29c1.111-.264 1.865-1.084 1.688-1.831-.179-.746-1.224-1.135-2.333-.87-1.108.265-1.865 1.085-1.686 1.832.179.746 1.224 1.135 2.333.87h-.002Z"
            fill="#FD9A65" />
        <path d="M240.653 24.803s2.622 16.264 11.955 12.527c0 0 3.193-15.534-11.955-12.527Z"
            fill="#8C2521" />
        <path
            d="M244.296 27.253s-.559 1.889-5.241 1.889c-2.503 0-4.649 2.75-4.649 2.75s-1.365-6.18 6.247-7.089l3.643 2.45Z"
            fill="#8C2521" />
        <path
            d="M251.176 38.153a2.546 2.546 0 0 1-3.046 1.924c-1.373-.31-1.125-1.423-.814-2.795.31-1.374.566-2.484 1.936-2.174a2.55 2.55 0 0 1 1.924 3.045Z"
            fill="#FDC3A4" />
        <path
            d="M248.759 36.211s1.901.232 1.357 2.176M238.689 36.219l.028.937M234.13 35.88l.027.936M234.621 40.34c-.075-.066-.148-.135-.221-.204a1.72 1.72 0 0 1-.108-2.373 7.663 7.663 0 0 0 1.266-2.08c.168-.405.238-.849.17-1.284-.095-.615-.464-1.348-1.668-1.419"
            stroke="#221F20" stroke-width="1.125" stroke-miterlimit="10" stroke-linecap="round" />
        <path
            d="m228.37 86.513-2.081-.451-11.501 41.561a7.255 7.255 0 0 0 1.066 6.122l23.312 33.001a3.629 3.629 0 0 0 5.194.771l13.392-10.416-26.991-26.33 10.472-29.996-.041-12.063-12.822-2.2Z"
            fill="#0626FC" />
        <path
            d="m274.533 96.208 1.159 3.553a2.95 2.95 0 0 0 .858 1.604l.296.281 4.752 5.042c.206.219.566.092.61-.221a2.685 2.685 0 0 0-.322-1.688l-1.631-3.812 10.331 2.435c.434.062.84-.26.908-.72a.84.84 0 0 0-.441-.879l-10.725-5.34-1.428-1.78-4.367 1.525Z"
            fill="#FDC3A4" />
        <path d="M280.445 101.422s-.235-.583-.376-1.221" stroke="#221F20" stroke-width="1.125"
            stroke-miterlimit="10" stroke-linecap="round" />
        <path
            d="m248.903 53.725 5.186.435a6.95 6.95 0 0 1 6.014 4.726l6.654 19.923L279.8 95.451l-5.212 1.285a2.6 2.6 0 0 1-2.433-.66l-9.774-9.505a26.22 26.22 0 0 1-6.337-9.771l-5.504-15.018-1.635-8.059-.002.002Z"
            fill="#E90061" />
        <path
            d="M206.814 39.325c.191-4.551.317-9.675.358-11.484a.578.578 0 0 0-.682-.582c-1.649.297-5.332 1.216-5.513 6.16-.139 3.825-.84 6.909-.758 8.94.055 1.346.014 1.93.833 3.001l2.269 2.335 5.06-2.523a9.907 9.907 0 0 1-1.569-5.847h.002Z"
            fill="#FDC3A4" />
        <path
            d="M201.762 36.559s1.458-1.094 3.734-1.37M205.787 27.62s-1.423 3.29-1.032 7.49M203.487 28.8s-1.02 2.169-.844 7.116"
            stroke="#221F20" stroke-width="1.125" stroke-miterlimit="10" stroke-linecap="round" />
        <path
            d="M204.665 40.36s.471-2.005 2.938-1.803c0 0 1.536-3 4.406-3.449.44-.07.877.137 1.1.52a.505.505 0 0 1-.072.604c-.893.937-3.785 4.01-4.178 4.898 0 0-1.14 2.365-1.11 3.476"
            fill="#FDC3A4" />
        <path
            d="M204.665 40.36s.471-2.005 2.938-1.803c0 0 1.536-3 4.406-3.449.44-.07.877.137 1.1.52a.505.505 0 0 1-.072.604c-.893.937-3.785 4.01-4.178 4.898 0 0-1.14 2.365-1.11 3.476"
            stroke="#221F20" stroke-width="1.125" stroke-miterlimit="10" stroke-linecap="round" />
        <path
            d="m232.248 52.852-14.797 7.185a2.242 2.242 0 0 1-2.864-1.21l-5.992-13.934-5.855 3.093 5.838 19.702a5.182 5.182 0 0 0 6.113 3.58l15.981-4.306 1.58-14.11h-.004Z"
            fill="#E90061" />
        <path
            d="M251.368 53.895c-.019.062-.041.126-.063.192-1.176 3.385-5.615 6.489-10.46 4.938-3.655-1.171-3.584-4.388-3.206-6.803l13.729 1.673Z"
            fill="#fff" />
        <path
            d="M250.007 53.73c-.017.063-.068.302-.104.357-1.677 2.473-5.159 4.38-8.661 3.28-1.875-.587-2.72-2.72-2.598-5.027l11.365 1.389-.002.002Z"
            fill="#FDC3A4" />
        <path
            d="m229.027 86.648-2.597 1.613-9.911 43.67-.383.809a4.049 4.049 0 0 0 .548 4.325l-5.802 26.433 20.005 5.852a2.272 2.272 0 0 0 2.906-2.322l-2.04-32.945 12.441-27.791c2.451-6.275.714-11.577-2.341-17.581l-12.828-2.065.002.002Z"
            fill="#2D57FD" />
        <path
            d="m224.815 99.401-.11-.232a8.358 8.358 0 0 1-.528-5.712l1.465-5.55 1.259.157-.59 7.125-1.496 4.21v.002Z"
            fill="#2D57FD" />
        <path
            d="m232.72 57.417-.461 1.032a4.953 4.953 0 0 1-1.028 1.49l-1.18 1.172a4.934 4.934 0 0 0-1.098 5.35l.402.995c.339.842.442 1.76.292 2.656"
            stroke="#221F20" stroke-width="1.125" stroke-miterlimit="10" stroke-linecap="round" />
        <path d="m232.082 69.801 9.474 4.12c1.516.584 1.037 1.463-.453 1.17l-4.675-.725"
            stroke="#960E52" stroke-width="1.125" stroke-miterlimit="10" stroke-linecap="round" />
        <path d="m252.12 65.843 1.334 3.602" stroke="#221F20" stroke-width="1.125"
            stroke-miterlimit="10" stroke-linecap="round" />
        <path
            d="m225.339 86.332-.36 1.83a.463.463 0 0 0 .378.547l17.689 3.003a.503.503 0 0 0 .508-.77l-1.348-2.078a.466.466 0 0 0-.349-.276l-15.984-2.621a.46.46 0 0 0-.53.367l-.004-.002Z"
            fill="#5C83FF" />
        <path
            d="m240.089 87.978-1.127-.203a.511.511 0 0 0-.594.412l-.456 2.534a.51.51 0 0 0 .412.594l1.128.203a.511.511 0 0 0 .594-.413l.456-2.533a.512.512 0 0 0-.413-.594ZM234.936 87.024l-1.127-.203a.511.511 0 0 0-.594.413l-.457 2.533a.512.512 0 0 0 .413.594l1.127.203a.511.511 0 0 0 .594-.412l.457-2.534a.512.512 0 0 0-.413-.594ZM229.442 86.137l-1.127-.203a.511.511 0 0 0-.594.413l-.457 2.533a.512.512 0 0 0 .413.594l1.127.203a.511.511 0 0 0 .594-.412l.457-2.534a.512.512 0 0 0-.413-.594Z"
            fill="#2D57FD" />
        <path d="M228.364 91.743s-4.632 8.014 3.15 12.183" stroke="#79A5FE" stroke-width="1.125"
            stroke-miterlimit="10" stroke-linecap="round" />
        <path
            d="m213.998 60.5 1.294-.752a.819.819 0 0 1 1.229.707v1.513M232.643 132.028l-2.494 6.008M215.637 134.465s-.227 2.323 2.494 3.571M263.874 79.529l2.057-.935a.366.366 0 0 1 .504.429l-.296 1.07"
            stroke="#221F20" stroke-width="1.125" stroke-miterlimit="10" stroke-linecap="round" />
        <path d="M241.225 27.43s-1.065 6.204 4.187 10.238" stroke="#8C2521" stroke-width="1.125"
            stroke-miterlimit="10" stroke-linecap="round" />
    </g>
</svg>