<svg fill="none" height="22" viewBox="0 0 18 22" width="18" xmlns="http://www.w3.org/2000/svg">
    <path d="M12.75 10.2499V11.7499H5.25V10.2499H12.75Z" fill="#262626" />
    <path clip-rule="evenodd"
        d="M0.75 0.499939H6.40756V1.03242C6.40756 2.40327 7.56811 3.51485 9 3.51485C10.4315 3.51485 11.5936 2.40261 11.5936 1.03242V0.499939H17.25V21.4999H11.5135V20.9675C11.5135 19.6379 10.3882 18.5606 9 18.5606C7.61177 18.5606 6.48652 19.6379 6.48652 20.9675V21.4999H0.75V0.499939ZM2.25 19.9999H5.10899C5.55634 18.2761 7.17172 17.0606 9 17.0606C10.8283 17.0606 12.4437 18.2761 12.891 19.9999H15.75V1.99994H12.9733C12.5236 3.76599 10.8709 5.01485 9 5.01485C7.12808 5.01485 5.4769 3.76595 5.0277 1.99994H2.25V19.9999Z"
        fill="#262626" fill-rule="evenodd" />
</svg>
