<svg width="24" height="24" viewBox="0 0 24 24" fill="none" xmlns="http://www.w3.org/2000/svg">
<path d="M18.0423 4.29579C20.4147 6.97402 20.8751 10.8541 19.4233 13.9992L8.01216 2.58805C11.1355 0.755038 15.1517 1.23804 17.8037 4.0371L18.0423 4.29579Z" fill="#262626"/>
<path fill-rule="evenodd" clip-rule="evenodd" d="M5.74002 4.55068C2.95585 7.94935 3.09262 13.0983 6.15341 16.33L11.9993 22.5L17.6872 16.4979L19.7197 18.5303L20.7803 17.4697L5.03033 1.71967L3.96967 2.78033L5.74002 4.55068ZM10.056 8.86662L13.1334 11.944C12.8004 12.1386 12.413 12.2501 11.9997 12.2501C10.7572 12.2501 9.75009 11.2428 9.75009 10.0001C9.75009 9.58676 9.86152 9.19947 10.056 8.86662Z" fill="#262626"/>
</svg>
