<svg width="22" height="19" viewBox="0 0 22 19" fill="none" xmlns="http://www.w3.org/2000/svg">
<path fill-rule="evenodd" clip-rule="evenodd" d="M4.50089 4C2.01512 4 0 6.01512 0 8.50089C0 10.647 1.50204 12.4423 3.51221 12.8929C3.89314 12.9782 4.18746 13.3158 4.14924 13.7043L3.93594 15.8729C3.87865 16.4554 4.52781 16.8395 5.01085 16.509L9.95986 13.1222C10.0745 13.0438 10.2101 13.0018 10.349 13.0018H11.6076C14.0933 13.0018 16.1085 10.9867 16.1085 8.50089C16.1085 6.01512 14.0933 4 11.6076 4L4.50089 4Z" fill="#FFBF9C"/>
<rect x="3.31836" y="6.68506" width="9.47557" height="1.10548" rx="0.552741" fill="white"/>
<rect x="3.31836" y="9.36865" width="8.05423" height="1.10548" rx="0.552741" fill="white"/>
<path fill-rule="evenodd" clip-rule="evenodd" d="M17.9016 7.11816C20.1651 7.11816 22 8.95306 22 11.2165C22 13.1493 20.6621 14.7696 18.8619 15.2018C18.4821 15.293 18.1871 15.6301 18.2253 16.0188L18.4003 17.7978C18.4576 18.3803 17.8084 18.7644 17.3254 18.4339L12.9436 15.4353C12.829 15.3569 12.6934 15.3149 12.5545 15.3149H11.4305C9.16707 15.3149 7.33217 13.48 7.33217 11.2165C7.33217 8.95306 9.16706 7.11816 11.4305 7.11816L17.9016 7.11816Z" fill="#FF5A00"/>
<rect width="8.62814" height="1.00662" rx="0.503308" transform="matrix(-1 0 0 1 18.9844 9.5625)" fill="white"/>
<rect width="5.76245" height="1.04772" rx="0.523859" transform="matrix(-1 0 0 1 16.2383 11.8584)" fill="white"/>
<path d="M17.6494 0.115457L17.9282 1.18282C18.042 1.61827 18.3817 1.95805 18.8172 2.07183L19.8845 2.35058C20.0385 2.39074 20.0385 2.60926 19.8845 2.64942L18.8172 2.92817C18.3817 3.04195 18.042 3.38173 17.9282 3.81718L17.6494 4.88454C17.6093 5.03849 17.3907 5.03849 17.3506 4.88454L17.0718 3.81718C16.958 3.38173 16.6183 3.04195 16.1828 2.92817L15.1155 2.64942C14.9615 2.60926 14.9615 2.39074 15.1155 2.35058L16.1828 2.07183C16.6183 1.95805 16.958 1.61827 17.0718 1.18282L17.3506 0.115457C17.3907 -0.0384858 17.6093 -0.0384858 17.6494 0.115457Z" fill="#FF5A00"/>
</svg>
