<svg width="24" height="24" viewBox="0 0 24 24" fill="none" xmlns="http://www.w3.org/2000/svg">
<path d="M3.31055 3.31055L20.2811 20.2811L19.2204 21.3418L2.24989 4.37121L3.31055 3.31055Z" fill="#262626"/>
<path d="M9.87882 9.87831C9.3358 10.4212 9 11.1713 9 12C9 13.657 10.3427 15 12 15C12.8285 15 13.5786 14.6641 14.1215 14.121L9.87882 9.87831Z" fill="#262626"/>
<path d="M14.8985 12.7766C14.9647 12.5289 15 12.2686 15 12C15 10.3433 13.6567 9 12 9C11.7314 9 11.471 9.03528 11.2233 9.10147L14.8985 12.7766Z" fill="#262626"/>
<path d="M6.86594 6.86543C6.13024 7.32149 5.40606 7.8648 4.69596 8.48328C3.89478 9.18109 3.16848 9.92759 2.52908 10.6744L2.21291 11.0528C2.1143 11.1738 2.02253 11.2896 1.93781 11.3992L1.7247 11.6836L1.5 12L1.80708 12.429C1.84267 12.4766 1.88631 12.5341 1.93781 12.6008L2.21291 12.9472C2.31152 13.0683 2.41697 13.1946 2.52908 13.3256C3.16848 14.0724 3.89478 14.8189 4.69596 15.5167C7.01051 17.5326 9.47466 18.75 11.9995 18.75C13.7503 18.75 15.4719 18.1648 17.1346 17.1341L16.0416 16.0411C14.6644 16.8401 13.3115 17.25 11.9995 17.25C9.97096 17.25 7.84438 16.2697 5.68113 14.3856C4.94009 13.7402 4.26488 13.0466 3.66853 12.35C3.56645 12.2308 3.47077 12.1162 3.38164 12.0069L3.37616 12L3.67425 11.6433C4.26919 10.949 4.94246 10.2578 5.68113 9.6144C6.44589 8.94832 7.20606 8.39521 7.95893 7.95843L6.86594 6.86543Z" fill="#262626"/>
<path d="M17.317 15.1952C17.6499 14.9472 17.9839 14.6772 18.3188 14.3856C19.0575 13.7422 19.7308 13.051 20.3257 12.3567L20.6239 11.9999C20.5333 11.8887 20.4357 11.7718 20.3315 11.65C19.7351 10.9534 19.0599 10.2599 18.3188 9.61443C16.1554 7.73034 14.0285 6.75 11.9995 6.75C11.1449 6.75 10.2729 6.92399 9.38807 7.26624L8.24391 6.12208C9.47283 5.55851 10.7285 5.25 11.9995 5.25C14.5247 5.25 16.9892 6.46736 19.3039 8.48327C20.1051 9.18108 20.8315 9.92758 21.4709 10.6744C21.6951 10.9363 21.8927 11.1799 22.0622 11.3992L22.1335 11.4922L22.5 12L22.2753 12.3164L22.0622 12.6008C21.9775 12.7104 21.8857 12.8262 21.7871 12.9472L21.4709 13.3256C20.8315 14.0724 20.1051 14.8189 19.3039 15.5167C19.001 15.7805 18.6956 16.0306 18.3879 16.266L17.317 15.1952Z" fill="#262626"/>
</svg>
