<svg width="24" height="24" viewBox="0 0 24 24" fill="none" xmlns="http://www.w3.org/2000/svg">
<path d="M21 17.25V18.75H8.25V17.25H21Z" fill="#262626"/>
<path d="M5.11043 16.5H3.88957C3.39805 16.5 3 16.8984 3 17.3899V18.6101C3 19.1016 3.39805 19.5 3.88957 19.5H5.11043C5.60195 19.5 6 19.1016 6 18.6101V17.3899C6 16.8984 5.60195 16.5 5.11043 16.5Z" fill="#262626"/>
<path d="M21 11.25V12.75H8.25V11.25H21Z" fill="#262626"/>
<path d="M5.11043 10.5H3.88957C3.39805 10.5 3 10.8984 3 11.3899V12.6101C3 13.1016 3.39805 13.5 3.88957 13.5H5.11043C5.60195 13.5 6 13.1016 6 12.6101V11.3899C6 10.8984 5.60195 10.5 5.11043 10.5Z" fill="#262626"/>
<path d="M21 5.25V6.75H8.25V5.25H21Z" fill="#262626"/>
<path d="M5.11043 4.5H3.88957C3.39805 4.5 3 4.89843 3 5.38993V6.61007C3 7.10157 3.39805 7.5 3.88957 7.5H5.11043C5.60195 7.5 6 7.10157 6 6.61007V5.38993C6 4.89843 5.60195 4.5 5.11043 4.5Z" fill="#262626"/>
</svg>
