<svg width="24" height="24" viewBox="0 0 24 24" fill="none" xmlns="http://www.w3.org/2000/svg">
<path fill-rule="evenodd" clip-rule="evenodd" d="M20.2569 1.50001C21.4978 1.50001 22.5037 2.50574 22.5037 3.74639L22.5037 10.7316C22.5037 11.3274 22.267 11.8988 21.8457 12.3201L12.322 21.842C11.4446 22.7193 10.022 22.7193 9.14454 21.842L2.15807 14.8568C1.28064 13.9796 1.28064 12.5572 2.15807 11.68L11.6818 2.15795C12.1031 1.73667 12.6746 1.5 13.2705 1.5L20.2569 1.50001ZM18.736 6.76493C18.736 7.59203 18.0653 8.26253 17.2381 8.26253C16.4108 8.26253 15.7402 7.59203 15.7402 6.76493C15.7402 5.93783 16.4108 5.26734 17.2381 5.26734C18.0653 5.26734 18.736 5.93783 18.736 6.76493Z" fill="#262626"/>
<path d="M14.0315 21.8567L16.1316 22.4221C17.3298 22.7446 18.5626 22.0349 18.8852 20.8369L20.3884 15.2547L14.0315 21.8567Z" fill="#262626"/>
</svg>
