<svg width="25" height="24" viewBox="0 0 25 24" fill="none" xmlns="http://www.w3.org/2000/svg">
<path d="M16.2229 4.87464L16.1733 4.52598C16.0493 3.66051 15.3631 2.97961 14.4909 2.85656L14.1396 2.80734C13.78 2.75812 13.5278 2.42177 13.5774 2.06491C13.627 1.70806 13.9619 1.45375 14.3256 1.50707L14.6769 1.55629C16.1319 1.76138 17.2769 2.89758 17.4836 4.3414L17.5332 4.69006C17.5828 5.04691 17.3348 5.38326 16.971 5.43248C16.6073 5.4817 16.2725 5.23559 16.2229 4.87464ZM5.63294 4.31679C6.37282 3.58257 7.44339 3.37338 8.36929 3.69332C8.49742 3.4144 8.67516 3.15599 8.90663 2.92629C9.94 1.90084 11.6141 1.90084 12.6474 2.92629L17.5373 7.7746V7.5613C17.5373 6.11337 18.7236 4.93616 20.1827 4.93616C21.6418 4.93616 22.8281 6.11337 22.8281 7.5613V14.0339C22.8281 14.0995 22.8281 14.1611 22.824 14.2267C22.824 14.2513 22.8281 14.2718 22.8281 14.2964C22.8281 18.8043 19.1617 22.4672 14.6232 22.5H14.6025H14.5612H14.2884C12.0977 22.5 9.99373 21.6345 8.44369 20.0964L3.76048 15.4531C2.72711 14.4277 2.72711 12.7665 3.76048 11.741C3.92168 11.5811 4.09942 11.4457 4.28543 11.3349L4.22756 11.2775C3.19419 10.2521 3.19419 8.59085 4.22756 7.56541C4.45903 7.33571 4.71944 7.15933 5.00052 7.03217C4.68224 6.11337 4.89305 5.05101 5.63294 4.31679ZM8.91077 6.6425L8.90663 6.6384L7.97247 5.7114C7.7162 5.45709 7.29459 5.45709 7.03831 5.7114C6.78204 5.96571 6.78204 6.38409 7.03831 6.6384L7.96834 7.5613L7.97247 7.56541L11.9447 11.5072C12.3333 11.8928 12.3333 12.5163 11.9447 12.8977C11.5562 13.2792 10.9279 13.2833 10.5435 12.8977L6.57123 8.95591L6.5671 8.95181C6.31082 8.6975 5.88921 8.6975 5.63294 8.95181C5.37666 9.20612 5.37666 9.6245 5.63294 9.87881L7.26565 11.5072L7.26978 11.5113L9.60932 13.8329C9.99787 14.2185 9.99787 14.842 9.60932 15.2234C9.22078 15.6049 8.59249 15.609 8.20808 15.2234L6.10415 13.1356L6.10002 13.1315C5.84374 12.8772 5.42213 12.8772 5.16585 13.1315C4.90958 13.3858 4.90958 13.8042 5.16585 14.0585L9.84493 18.7059C11.023 19.8749 12.6226 20.5311 14.2884 20.5311H14.5612H14.586H14.5943C18.0168 20.5106 20.7903 17.7788 20.8399 14.3867C20.8358 14.3457 20.8358 14.3005 20.8358 14.2595C20.8399 14.1857 20.8399 14.1119 20.8399 14.0339V7.56541C20.8399 7.20445 20.5423 6.90912 20.1786 6.90912C19.8148 6.90912 19.5172 7.20445 19.5172 7.56541V10.1536C19.5172 10.5515 19.2775 10.9125 18.9055 11.0642C18.5335 11.216 18.1077 11.134 17.8225 10.8509L11.2462 4.31679C10.9899 4.06248 10.5683 4.06248 10.312 4.31679C10.0557 4.5711 10.0557 4.98538 10.3079 5.2438L14.2843 9.18971C14.6728 9.57528 14.6728 10.1988 14.2843 10.5802C13.8957 10.9617 13.2674 10.9658 12.883 10.5802L8.91077 6.6384V6.6425ZM2.89245 16.6016C3.25206 16.5524 3.59101 16.7985 3.64061 17.1595L3.69021 17.5081C3.81421 18.3736 4.50037 19.0545 5.37253 19.1776L5.72387 19.2268C6.08348 19.2801 6.33562 19.6123 6.28602 19.9692C6.23642 20.3261 5.89748 20.5763 5.53787 20.527L5.18652 20.4778C3.73154 20.2727 2.58658 19.1365 2.3799 17.6927L2.33443 17.3441C2.28483 16.9872 2.53284 16.6509 2.89659 16.6016H2.89245Z" fill="#262626"/>
</svg>
