<svg width="25" height="24" viewBox="0 0 25 24" fill="none" xmlns="http://www.w3.org/2000/svg">
<path d="M3.71469 3.66952C3.37345 3.39726 2.87799 3.46034 2.60893 3.80565C2.33987 4.15095 2.40222 4.65231 2.74346 4.92457L22.1681 20.3305C22.5094 20.6027 23.0048 20.5397 23.2739 20.1944C23.5429 19.849 23.4806 19.3477 23.1394 19.0754L17.5023 14.6064C18.4866 12.8931 19.2413 11.1633 19.2413 9.87505C19.2413 6.35559 16.4195 3.50019 12.9414 3.50019C10.6183 3.50019 8.58726 4.77516 7.49463 6.6677L3.71469 3.66952ZM10.9005 9.37037C11.1236 8.4407 11.9538 7.75009 12.9414 7.75009C14.0997 7.75009 15.0414 8.703 15.0414 9.87505C15.0414 10.6951 14.5853 11.4024 13.9126 11.7576L10.9005 9.36705V9.37037ZM13.719 20.0748C14.2506 19.4041 14.9987 18.428 15.7698 17.3157L6.6448 10.0377C6.78261 12.9662 10.51 17.9831 12.1638 20.0715C12.5674 20.5795 13.3155 20.5795 13.719 20.0715V20.0748Z" fill="#262626"/>
</svg>
