<svg width="25" height="24" viewBox="0 0 25 24" fill="none" xmlns="http://www.w3.org/2000/svg">
<path d="M12.672 5.51786C10.2951 5.51786 8.34113 6.60804 6.84282 8.01127C5.4393 9.3298 4.46959 10.8951 3.9738 12C4.46959 13.1049 5.4393 14.6702 6.83918 15.9887C8.34113 17.392 10.2951 18.4821 12.672 18.4821C15.0489 18.4821 17.0029 17.392 18.5012 15.9887C19.9047 14.6702 20.8744 13.1049 21.3702 12C20.8744 10.8951 19.9047 9.3298 18.5048 8.01127C17.0029 6.60804 15.0489 5.51786 12.672 5.51786ZM5.65074 6.71853C7.36778 5.10536 9.72643 3.75 12.672 3.75C15.6176 3.75 17.9762 5.10536 19.6933 6.71853C21.3994 8.32065 22.5404 10.2321 23.0836 11.547C23.2039 11.8379 23.2039 12.1621 23.0836 12.453C22.5404 13.7679 21.3994 15.683 19.6933 17.2815C17.9762 18.8946 15.6176 20.25 12.672 20.25C9.72643 20.25 7.36778 18.8946 5.65074 17.2815C3.94464 15.683 2.80359 13.7679 2.26405 12.453C2.14375 12.1621 2.14375 11.8379 2.26405 11.547C2.80359 10.2321 3.94464 8.31696 5.65074 6.71853ZM12.672 14.9464C14.2833 14.9464 15.5884 13.6279 15.5884 12C15.5884 10.3721 14.2833 9.05357 12.672 9.05357C12.6465 9.05357 12.6246 9.05357 12.5991 9.05357C12.6465 9.24141 12.672 9.44029 12.672 9.64286C12.672 10.943 11.6257 12 10.3389 12C10.1384 12 9.94151 11.9742 9.75559 11.9263C9.75559 11.9521 9.75559 11.9742 9.75559 12C9.75559 13.6279 11.0607 14.9464 12.672 14.9464ZM12.672 7.28571C13.9096 7.28571 15.0965 7.7824 15.9716 8.6665C16.8466 9.5506 17.3383 10.7497 17.3383 12C17.3383 13.2503 16.8466 14.4494 15.9716 15.3335C15.0965 16.2176 13.9096 16.7143 12.672 16.7143C11.4344 16.7143 10.2476 16.2176 9.37246 15.3335C8.49737 14.4494 8.00574 13.2503 8.00574 12C8.00574 10.7497 8.49737 9.5506 9.37246 8.6665C10.2476 7.7824 11.4344 7.28571 12.672 7.28571Z" fill="#262626"/>
</svg>
