<svg width="25" height="24" viewBox="0 0 25 24" fill="none" xmlns="http://www.w3.org/2000/svg">
<path d="M14.9059 2.86485C13.3391 2.41482 11.7025 3.32726 11.2555 4.90443L11.0217 5.73017C10.8699 6.2669 10.5951 6.76235 10.2219 7.17522L8.11777 9.50382C7.75273 9.90843 7.78145 10.536 8.1834 10.9034C8.58535 11.2709 9.20879 11.242 9.57383 10.8374L11.6779 8.5088C12.2563 7.86884 12.6787 7.10503 12.9125 6.27516L13.1463 5.44942C13.2939 4.92507 13.8395 4.61955 14.3645 4.76818C14.8895 4.91682 15.1889 5.46593 15.0412 5.99441L14.8074 6.82015C14.5736 7.64177 14.2045 8.41796 13.7164 9.11159C13.5031 9.41298 13.4785 9.80934 13.6467 10.1396C13.8148 10.4699 14.1512 10.6764 14.5203 10.6764H20C20.3609 10.6764 20.6562 10.9736 20.6562 11.337C20.6562 11.6177 20.4799 11.8613 20.2297 11.9563C19.9262 12.0719 19.6965 12.3279 19.6186 12.6458C19.5406 12.9637 19.6227 13.2981 19.8359 13.5417C19.9385 13.6573 20 13.8101 20 13.9793C20 14.3014 19.7703 14.5697 19.4668 14.6275C19.1305 14.6936 18.8475 14.9289 18.7285 15.251C18.6096 15.573 18.6629 15.9405 18.8762 16.213C18.9623 16.3244 19.0156 16.4648 19.0156 16.6217C19.0156 16.8983 18.8434 17.1419 18.5973 17.2369C18.1256 17.4227 17.8713 17.9346 18.0066 18.426C18.023 18.4796 18.0312 18.5416 18.0312 18.6035C18.0312 18.9668 17.7359 19.2641 17.375 19.2641H13.376C12.8592 19.2641 12.3506 19.1113 11.9199 18.8223L9.38926 17.1254C8.93809 16.8199 8.32695 16.9438 8.02344 17.402C7.71992 17.8603 7.84297 18.4714 8.29824 18.7769L10.8289 20.4738C11.5836 20.9816 12.4695 21.25 13.376 21.25H17.375C18.7982 21.25 19.9549 20.1105 20 18.6902C20.5988 18.2071 20.9844 17.464 20.9844 16.6258C20.9844 16.4401 20.9639 16.2625 20.9311 16.0891C21.5627 15.6061 21.9688 14.8422 21.9688 13.9835C21.9688 13.7151 21.9277 13.455 21.8539 13.2114C22.3297 12.7283 22.625 12.0677 22.625 11.337C22.625 9.87953 21.452 8.69459 20 8.69459H16.2143C16.407 8.2652 16.5711 7.8193 16.6982 7.36514L16.932 6.5394C17.3791 4.96223 16.4727 3.31488 14.9059 2.86485ZM2.9375 9.35518C2.21152 9.35518 1.625 9.94559 1.625 10.6764V19.9247C1.625 20.6555 2.21152 21.2459 2.9375 21.2459H5.5625C6.28848 21.2459 6.875 20.6555 6.875 19.9247V10.6764C6.875 9.94559 6.28848 9.35518 5.5625 9.35518H2.9375Z" fill="#262626"/>
</svg>
