<svg width="25" height="24" viewBox="0 0 25 24" fill="none" xmlns="http://www.w3.org/2000/svg">
<path d="M5.48946 3.97891C5.48946 4.89413 5.8521 5.31548 6.38398 5.91642L6.3978 5.93023C6.96767 6.56916 7.69987 7.39459 7.69987 8.9522C7.69987 9.41153 7.33032 9.78108 6.87097 9.78108C6.41161 9.78108 6.04206 9.41153 6.04206 8.9522C6.04206 8.03697 5.67941 7.61562 5.14753 7.01468L5.13372 7.00087C4.56384 6.36194 3.83164 5.53651 3.83164 3.97891C3.83164 3.51957 4.2012 3.15002 4.66055 3.15002C5.1199 3.15002 5.48946 3.51957 5.48946 3.97891ZM9.35769 3.97891C9.35769 4.89413 9.72033 5.31548 10.2522 5.91642L10.266 5.93023C10.8359 6.56916 11.5681 7.39459 11.5681 8.9522C11.5681 9.41153 11.1986 9.78108 10.7392 9.78108C10.2798 9.78108 9.91029 9.41153 9.91029 8.9522C9.91029 8.03697 9.54764 7.61562 9.01576 7.01468L9.00195 7.00087C8.43207 6.36194 7.69987 5.53651 7.69987 3.97891C7.69987 3.51957 8.06943 3.15002 8.52878 3.15002C8.98813 3.15002 9.35769 3.51957 9.35769 3.97891ZM16.5415 7.01814C18.2926 7.01814 19.7743 8.18203 20.2509 9.78108H12.8322C13.3088 8.18203 14.787 7.01814 16.5415 7.01814ZM4.30481 14.2018H3.27904C2.66772 14.2018 2.17383 13.7079 2.17383 13.0966C2.17383 12.4853 2.66772 11.9914 3.27904 11.9914H3.89726C3.89036 11.387 4.38079 10.8863 4.99211 10.8863H20.3545C20.9658 10.8863 21.4563 11.387 21.4494 11.9914H22.0676C22.6789 11.9914 23.1728 12.4853 23.1728 13.0966C23.1728 13.7079 22.6789 14.2018 22.0676 14.2018H21.0418C20.3303 16.4121 18.7589 18.2322 16.735 19.2856L16.6935 19.6206C16.6072 20.3113 16.02 20.8294 15.3224 20.8294H10.0243C9.3266 20.8294 8.73946 20.3113 8.65312 19.6206L8.61167 19.2856C6.58776 18.2322 5.01629 16.4121 4.30481 14.2018Z" fill="#262626"/>
</svg>
