<svg width="25" height="24" viewBox="0 0 25 24" fill="none" xmlns="http://www.w3.org/2000/svg">
<path d="M10.2576 6.60002C10.2576 5.27627 11.3412 4.20002 12.6739 4.20002C14.0067 4.20002 15.0903 5.27627 15.0903 6.60002V8.40002H10.2576V6.60002ZM8.44537 8.40002H6.02904C5.02853 8.40002 4.2168 9.20627 4.2168 10.2V18C4.2168 19.9875 5.84027 21.6 7.84129 21.6H17.5066C19.5076 21.6 21.1311 19.9875 21.1311 18V10.2C21.1311 9.20627 20.3193 8.40002 19.3188 8.40002H16.9025V6.60002C16.9025 4.27877 15.011 2.40002 12.6739 2.40002C10.3369 2.40002 8.44537 4.27877 8.44537 6.60002V8.40002ZM9.35149 10.2C9.59181 10.2 9.82229 10.2948 9.99222 10.4636C10.1621 10.6324 10.2576 10.8613 10.2576 11.1C10.2576 11.3387 10.1621 11.5676 9.99222 11.7364C9.82229 11.9052 9.59181 12 9.35149 12C9.11117 12 8.8807 11.9052 8.71077 11.7364C8.54083 11.5676 8.44537 11.3387 8.44537 11.1C8.44537 10.8613 8.54083 10.6324 8.71077 10.4636C8.8807 10.2948 9.11117 10.2 9.35149 10.2ZM15.0903 11.1C15.0903 10.8613 15.1857 10.6324 15.3557 10.4636C15.5256 10.2948 15.7561 10.2 15.9964 10.2C16.2367 10.2 16.4672 10.2948 16.6371 10.4636C16.807 10.6324 16.9025 10.8613 16.9025 11.1C16.9025 11.3387 16.807 11.5676 16.6371 11.7364C16.4672 11.9052 16.2367 12 15.9964 12C15.7561 12 15.5256 11.9052 15.3557 11.7364C15.1857 11.5676 15.0903 11.3387 15.0903 11.1Z" fill="#262626"/>
</svg>
