<svg width="374" height="222" viewBox="0 0 374 222" fill="none" xmlns="http://www.w3.org/2000/svg">
    <mask id="mask0_9520_182207" maskUnits="userSpaceOnUse" x="0" y="0" width="376" height="222">
        <path d="M0.625 16C0.625 7.16345 7.78844 0 16.625 0H359.625C368.462 0 375.625 7.16344 375.625 16V222H0.625V16Z" fill="#ffffff"/>
    </mask>
    <g mask="url(#mask0_9520_182207)">
        <path d="M50.7425 126.509C58.3186 183.994 103.935 234.748 165.93 247.889C229.082 261.279 292.044 244.878 328.15 200.156C339.532 186.051 348.252 169.119 353.45 149.422C354.333 146.083 355.1 142.749 355.752 139.421C371.164 60.5678 323.222 -17.1546 244.463 -38.0031C199.894 -49.8011 158.742 -43.935 125.11 -22.6633C96.7848 -4.74605 73.8 24.0985 58.6375 62.5277C50.5777 82.827 47.8593 104.857 50.7425 126.509Z" fill="#79A5FE"/>
        <path opacity="0.33" d="M50.7425 126.509C58.3186 183.994 103.935 234.745 165.93 247.889C196.595 254.39 227.211 253.869 254.732 246.501C263.301 244.221 271.658 241.21 279.713 237.503C298.529 228.809 315.095 216.342 328.15 200.17C326.542 184.063 322.38 168.315 315.823 153.519C297.666 112.498 261.674 79.8761 214.745 67.4502C184.697 59.4993 156.194 59.5756 130.506 66.9923C98.8573 76.1261 71.478 96.4057 50.7425 126.509Z" fill="#DEECFF"/>
        <path d="M284.707 205.1C283.333 205.101 281.989 204.693 280.846 203.929C279.703 203.166 278.812 202.08 278.286 200.809C277.76 199.538 277.622 198.14 277.89 196.79C278.158 195.441 278.819 194.202 279.791 193.229C280.763 192.256 282.001 191.594 283.349 191.326C284.697 191.058 286.094 191.196 287.364 191.722C288.633 192.249 289.718 193.141 290.481 194.285C291.245 195.429 291.652 196.774 291.651 198.149C291.651 199.993 290.919 201.761 289.617 203.064C288.315 204.368 286.549 205.1 284.707 205.1Z" stroke="white" stroke-width="1.11944" stroke-miterlimit="10"/>
        <path d="M80.2935 46.4224V55.8331" stroke="white" stroke-width="1.11944" stroke-miterlimit="10" stroke-linecap="round"/>
        <path d="M80.2935 68.3589V77.7696" stroke="white" stroke-width="1.11944" stroke-miterlimit="10" stroke-linecap="round"/>
        <path d="M64.6252 62.0928H74.0337" stroke="white" stroke-width="1.11944" stroke-miterlimit="10" stroke-linecap="round"/>
        <path d="M86.5474 62.0928H95.9526" stroke="white" stroke-width="1.11944" stroke-miterlimit="10" stroke-linecap="round"/>
        <path d="M88.0093 69.9261L84.5356 66.4492" stroke="white" stroke-width="1.11944" stroke-miterlimit="10" stroke-linecap="round"/>
        <path d="M75.6943 57.5894L72.3672 54.2656" stroke="white" stroke-width="1.11944" stroke-miterlimit="10" stroke-linecap="round"/>
        <path d="M72.3629 69.9261L75.8398 66.4492" stroke="white" stroke-width="1.11944" stroke-miterlimit="10" stroke-linecap="round"/>
        <path d="M84.6886 57.5894L88.0093 54.2656" stroke="white" stroke-width="1.11944" stroke-miterlimit="10" stroke-linecap="round"/>
        <path d="M102.802 153.524L73.216 160.24C72.8831 160.316 72.5727 160.469 72.3102 160.688C72.0477 160.906 71.8404 161.183 71.7053 161.497C71.5701 161.811 71.5109 162.152 71.5324 162.493C71.5539 162.834 71.6556 163.165 71.8291 163.46L78.9001 175.458C79.1332 175.854 79.4864 176.166 79.9083 176.348C80.3303 176.53 80.7993 176.574 81.2474 176.471L102.786 171.583C103.239 171.481 103.647 171.236 103.95 170.884C104.253 170.532 104.435 170.092 104.469 169.628L105.446 155.802C105.471 155.463 105.416 155.123 105.286 154.81C105.157 154.496 104.955 154.217 104.698 153.995C104.441 153.773 104.136 153.615 103.806 153.533C103.477 153.45 103.133 153.446 102.802 153.521V153.524Z" stroke="white" stroke-width="1.11944" stroke-miterlimit="10"/>
        <path d="M105.298 158.015L72.9547 165.356" stroke="white" stroke-width="1.11944" stroke-miterlimit="10"/>
        <path d="M104.742 165.275L76.5656 171.671" stroke="white" stroke-width="1.11944" stroke-miterlimit="10"/>
        <path d="M96.0038 155.069L99.9658 172.558" stroke="white" stroke-width="1.11944" stroke-miterlimit="10"/>
        <path d="M88.0292 156.877L91.9912 174.366" stroke="white" stroke-width="1.11944" stroke-miterlimit="10"/>
        <path d="M92.8011 155.796L96.571 143.576C96.6838 143.212 96.699 142.825 96.615 142.454C96.5309 142.082 96.3507 141.739 96.0924 141.46C95.8341 141.18 95.5067 140.973 95.1433 140.86C94.7799 140.747 94.3931 140.732 94.0219 140.816L86.0459 142.628C85.672 142.712 85.3272 142.895 85.0469 143.156C84.7666 143.418 84.5608 143.75 84.4507 144.117L80.2185 158.155C80.1113 158.514 80.0979 158.894 80.1794 159.26L84.0144 176.204" stroke="white" stroke-width="1.11944" stroke-miterlimit="10"/>
        <path d="M96.2548 155.01L100.025 142.774C100.137 142.411 100.151 142.024 100.067 141.653C99.9827 141.282 99.8024 140.94 99.5442 140.66C99.2859 140.381 98.9589 140.175 98.5959 140.062C98.2328 139.949 97.8465 139.934 97.4757 140.018L89.4996 141.826C89.1252 141.91 88.78 142.093 88.4996 142.355C88.2192 142.618 88.0137 142.95 87.9044 143.319L83.3662 157.936" stroke="white" stroke-width="1.11944" stroke-miterlimit="10"/>
        <path d="M78.2666 108.799H94.8926" stroke="white" stroke-width="1.11944" stroke-linecap="round" stroke-linejoin="round"/>
        <path d="M91.015 117.64C90.9891 118.405 91.1174 119.167 91.3921 119.882C91.6667 120.596 92.0822 121.248 92.6138 121.798C93.1454 122.349 93.7822 122.786 94.4863 123.085C95.1904 123.384 95.9474 123.538 96.7122 123.538C97.477 123.538 98.234 123.384 98.9381 123.085C99.6422 122.786 100.279 122.349 100.811 121.798C101.342 121.248 101.758 120.596 102.032 119.882C102.307 119.167 102.435 118.405 102.409 117.64C102.409 117.088 102.331 116.539 102.175 116.01H91.2461C91.0906 116.539 91.0117 117.088 91.0118 117.64H91.015Z" stroke="white" stroke-width="1.11944" stroke-linecap="round" stroke-linejoin="round"/>
        <path d="M77.2288 123.345C76.1013 123.345 74.9992 123.01 74.0618 122.384C73.1243 121.757 72.3937 120.865 71.9623 119.823C71.5308 118.78 71.4179 117.633 71.6379 116.526C71.8578 115.419 72.4007 114.403 73.1979 113.605C73.9952 112.807 75.0109 112.263 76.1167 112.043C77.2224 111.823 78.3686 111.936 79.4102 112.368C80.4518 112.8 81.3421 113.531 81.9685 114.469C82.5949 115.408 82.9292 116.511 82.9292 117.639C82.9292 119.153 82.3286 120.604 81.2596 121.674C80.1906 122.744 78.7406 123.345 77.2288 123.345Z" stroke="white" stroke-width="1.11944" stroke-linecap="round" stroke-linejoin="round"/>
        <path d="M93.7815 96.3413H104.736V107.306H93.7815V96.3413Z" stroke="white" stroke-width="1.11944" stroke-linecap="round" stroke-linejoin="round"/>
        <path d="M88.2373 116.02H104.736V115.3C104.732 113.574 104.044 111.921 102.824 110.702C101.603 109.483 99.9493 108.799 98.2253 108.799H88.2243V116.02H88.2373Z" stroke="white" stroke-width="1.11944" stroke-linecap="round" stroke-linejoin="round"/>
        <path d="M77.2271 117.639L79.851 95.2887L85.5254 93.2554" stroke="white" stroke-width="1.11944" stroke-linecap="round" stroke-linejoin="round"/>
        <path d="M78.067 100.6C78.0074 101.111 77.8037 101.595 77.4797 101.995C77.1558 102.395 76.7249 102.694 76.2374 102.858L74.5478 103.425L75.0817 96.8755L76.8201 97.9932C77.2507 98.2672 77.5954 98.657 77.8148 99.1181C78.0342 99.5791 78.1193 100.093 78.0605 100.6H78.067Z" stroke="white" stroke-width="1.11944" stroke-linecap="round" stroke-linejoin="round"/>
        <path d="M111.748 56.8388L134.704 50.0457L140.349 69.1675L117.403 75.9573L111.748 56.8388Z" stroke="white" stroke-width="1.11944" stroke-linecap="round" stroke-linejoin="round"/>
        <path d="M119.903 54.4258L126.556 52.4558L132.201 71.5744L125.548 73.5443L119.903 54.4258Z" stroke="white" stroke-width="1.11944" stroke-linecap="round" stroke-linejoin="round"/>
        <path d="M123.131 53.1183L127.077 42.7635C127.259 42.2927 127.548 41.8708 127.922 41.531C128.295 41.1913 128.742 40.943 129.227 40.8057C129.713 40.6685 130.223 40.646 130.719 40.7402C131.215 40.8343 131.682 41.0424 132.083 41.3482C132.485 41.6539 132.81 42.0488 133.033 42.5018C133.255 42.9548 133.37 43.4534 133.368 43.9583C133.365 44.4633 133.245 44.9607 133.018 45.4114C132.79 45.862 132.461 46.2536 132.056 46.5552L123.131 53.1183Z" stroke="white" stroke-width="1.11944" stroke-linecap="round" stroke-linejoin="round"/>
        <path d="M123.05 53.145L114.115 46.5988C113.707 46.3032 113.235 46.1067 112.737 46.0248C112.239 45.9429 111.729 45.9779 111.247 46.127C110.766 46.2761 110.325 46.5353 109.96 46.884C109.595 47.2328 109.317 47.6616 109.146 48.1366C108.975 48.6116 108.917 49.1199 108.976 49.6213C109.035 50.1227 109.209 50.6035 109.486 51.0258C109.762 51.4481 110.133 51.8004 110.568 52.0548C111.004 52.3092 111.493 52.4588 111.996 52.4918L123.05 53.145Z" stroke="white" stroke-width="1.11944" stroke-linecap="round" stroke-linejoin="round"/>
        <path d="M123.051 53.1448C123.051 53.1448 125.036 44.3129 120.558 40.569" stroke="white" stroke-width="1.11944" stroke-linecap="round" stroke-linejoin="round"/>
        <path d="M180.04 48.8654L173.262 71.7471L151.31 60.4073L166.237 41.7324L180.04 48.8654Z" stroke="white" stroke-width="1.11944" stroke-linecap="round" stroke-linejoin="round"/>
        <path d="M184.181 51.0029L177.4 73.8878L173.262 71.7469L180.04 48.8652L184.181 51.0029Z" stroke="white" stroke-width="1.11944" stroke-linecap="round" stroke-linejoin="round"/>
        <path d="M177.631 47.6202L179.831 43.3483C180.444 42.1612 180.56 40.7793 180.155 39.5064C179.749 38.2335 178.855 37.1739 177.67 36.5607C176.484 35.9484 175.103 35.8324 173.832 36.2381C172.56 36.6438 171.502 37.538 170.888 38.7244L168.688 42.9963" stroke="white" stroke-width="1.11944" stroke-linecap="round" stroke-linejoin="round"/>
        <path d="M180.671 49.1907L182.872 44.9154C183.484 43.7284 183.601 42.3465 183.195 41.0736C182.79 39.8007 181.896 38.7411 180.71 38.1278V38.1278C179.524 37.5159 178.143 37.4004 176.872 37.8067C175.6 38.213 174.542 39.1079 173.929 40.2948L171.728 44.5668" stroke="white" stroke-width="1.11944" stroke-linecap="round" stroke-linejoin="round"/>
        <path d="M246.715 25.3066C246.715 25.3066 229.112 20.4664 229.3 39.0239C229.464 55.1907 231.637 61.8044 221.883 65.8265" stroke="#8C2521" stroke-width="0.701958" stroke-miterlimit="10" stroke-linecap="round"/>
        <path d="M268.204 32.0159C265.661 32.0159 263.599 29.9519 263.599 27.4059C263.599 24.8599 265.661 22.7959 268.204 22.7959C270.748 22.7959 272.81 24.8599 272.81 27.4059C272.81 29.9519 270.748 32.0159 268.204 32.0159Z" fill="#8B2A00"/>
        <path d="M267.411 50.5195C267.411 50.5195 272.519 60.7193 289.6 73.18C310.223 88.2249 296.795 124.208 296.795 124.208" stroke="#8C2521" stroke-width="0.701958" stroke-miterlimit="10" stroke-linecap="round"/>
        <path d="M213.927 66.2624C227.436 62.8674 231.302 60.3174 230.879 38.6368C230.824 36.5393 231.207 34.4534 232.005 32.513C238.054 18.0854 261.195 25.8724 263.735 35.5553L267.918 49.7012C275.749 72.4817 299.433 74.1964 299.433 110.537C299.433 185.515 145.373 136.671 188.07 82.8162C194.596 74.5834 203.742 68.8222 213.927 66.2624Z" fill="#8B2A00"/>
        <path d="M227.913 81.7776C227.913 81.7776 212.361 62.5955 187.233 36.1285L192.303 28.5864C192.303 28.5864 211.48 46.4679 232.455 62.5318L227.913 81.7776Z" fill="#FDC3A4"/>
        <path d="M219.027 114.701L243.127 123.777L265.052 82.0566L257.717 75.487L251.697 70.0907L235.793 64.2413L227.834 59.0508L224.697 59.744L219.027 114.701Z" fill="white"/>
        <path d="M233.568 67.9061C233.568 67.9061 252.167 76.9277 252.086 72.3887C251.842 59.2177 257.419 47.4478 257.419 47.4478L246.974 45.8188L244.896 49.2482L237.599 61.2728L233.568 67.9061Z" fill="#FDC3A4"/>
        <path d="M265.055 82.0542L281.657 101.121C282.752 102.38 283.543 103.875 283.967 105.489C284.391 107.104 284.437 108.795 284.102 110.43C283.767 112.066 283.059 113.601 282.034 114.918C281.009 116.235 279.694 117.298 278.191 118.023L261.487 128.634L258.447 120.477L268.887 107.855L255.183 96.6092L265.055 82.0542Z" fill="#FDC3A4"/>
        <path d="M273.607 91.8792L261.139 108.418C260.93 108.695 260.653 108.911 260.334 109.047C260.016 109.182 259.667 109.231 259.324 109.189C258.981 109.146 258.654 109.015 258.378 108.806C258.102 108.598 257.885 108.321 257.749 108.002L252.686 96.0973L265.054 82.0542L273.607 91.8792Z" fill="white"/>
        <path d="M217.045 50.1299L214.153 72.6311C214.013 73.7067 214.238 74.798 214.791 75.7305C215.344 76.6631 216.194 77.383 217.204 77.7751L224.353 80.5504L229.626 60.2366L217.045 50.1299Z" fill="white"/>
        <path d="M232.073 61.8164C232.18 70.0664 235.027 77.2949 246.115 78.6862C249.695 79.1369 255.121 77.6035 257.717 75.4871L251.697 70.0982L236.541 63.0142L232.073 61.8164Z" fill="#FDC3A4"/>
        <path d="M179.646 217.41L192.653 219.729L223.645 144.843L227.954 232.332C234.005 230.721 239.806 229.287 245.494 226.668L246.287 219.727C247.004 214.762 248.45 204.785 251.326 184.944C258.912 132.524 243.128 123.784 243.128 123.784L219.027 114.714C179.646 132.84 179.646 217.41 179.646 217.41Z" fill="#2D57FD"/>
        <path d="M260.334 121.832L258.459 120.478L255.637 119.067C252.295 117.396 248.384 117.565 244.779 119.535L234.471 125.169C234.069 125.491 233.778 125.933 233.642 126.431C233.505 126.929 233.529 127.458 233.71 127.941L234.283 129.291C234.875 130.692 236.084 131.471 237.428 131.314L248.758 129.997L248.9 130.07C252.804 132.081 257.466 131.54 261.486 128.635L260.336 121.827L260.334 121.832Z" fill="#FDC3A4"/>
        <path d="M235.345 129.827L244.06 127.811C244.675 127.672 245.218 127.314 245.589 126.804L246.177 126.05" stroke="#221F20" stroke-width="0.841496" stroke-miterlimit="10" stroke-linecap="round"/>
        <path d="M234.315 127.557L243.697 123.393" stroke="#221F20" stroke-width="0.841496" stroke-miterlimit="10" stroke-linecap="round"/>
        <path d="M192.616 29.2551L191.148 25.9433C190.686 24.8982 189.901 24.0292 188.909 23.4644L188.245 23.0872L177.397 16.1085C177.291 16.0398 177.168 16.0023 177.041 16.0001C176.915 15.9979 176.791 16.0313 176.682 16.0963C176.574 16.1614 176.486 16.2556 176.429 16.3681C176.371 16.4807 176.346 16.6072 176.357 16.7332C176.444 17.7979 176.894 18.8003 177.632 19.5722L181.77 23.9029L162.026 25.4265C161.665 25.4544 161.325 25.6108 161.069 25.8673C160.813 26.1239 160.657 26.4638 160.63 26.8255C160.602 27.1871 160.705 27.5467 160.919 27.8391C161.134 28.1315 161.445 28.3375 161.798 28.4198L183.85 33.5638L187.232 36.1284L192.616 29.2551Z" fill="#FDC3A4"/>
        <path d="M166.061 25.8872C166.061 25.8872 170.361 27.2785 176.599 27.7782" stroke="#221F20" stroke-width="0.841496" stroke-miterlimit="10" stroke-linecap="round"/>
        <path d="M181.797 24.4712C181.797 24.4712 181.34 27.9813 185.16 27.9666" stroke="#221F20" stroke-width="0.841496" stroke-miterlimit="10" stroke-linecap="round"/>
        <path opacity="0.25" d="M237.596 61.2703C238.727 61.5348 240.347 61.6646 242.623 61.574C254.34 61.1086 255.838 50.5169 255.838 50.5169L244.899 49.2432L237.596 61.2703Z" fill="#221F20"/>
        <path d="M258.124 46.8819C256.636 51.9279 247.165 57.5569 240.311 55.683C233.456 53.8091 234.134 47.7441 236.329 39.7024C237.094 36.8292 238.573 34.1966 240.629 32.0501C243.945 28.6208 248.477 27.0065 252.801 28.1921C257.83 29.5687 261.55 32.8756 262.084 38.5805C262.458 44.9125 258.124 46.8819 258.124 46.8819Z" fill="#FDC3A4"/>
        <path d="M240.394 50.2919C238.192 49.8265 237.788 47.1222 237.788 47.1222C237.788 47.1222 239.117 45.4884 244.151 46.5319C244.339 46.5706 244.513 46.6583 244.657 46.7862C244.8 46.9141 244.908 47.0777 244.968 47.2604C245.028 47.443 245.039 47.6384 244.999 47.8266C244.96 48.0148 244.871 48.1892 244.743 48.3323C243.747 49.4076 242.163 50.6593 240.394 50.2919Z" fill="white"/>
        <path d="M244.053 37.4196C244.053 37.4196 246.211 36.6014 247.594 39.024" stroke="#221F20" stroke-width="0.841496" stroke-miterlimit="10" stroke-linecap="round"/>
        <path d="M249.782 47.597C251.397 47.5137 252.659 46.5682 252.603 45.4831C252.547 44.3979 251.194 43.5847 249.578 43.668C247.963 43.7513 246.7 44.6968 246.757 45.7819C246.813 46.867 248.169 47.6901 249.782 47.597Z" fill="#FD9A65"/>
        <path d="M250.014 26.5654C250.014 26.5654 249.177 48.6111 263.136 45.8211C263.136 45.8211 270.39 29.985 250.014 26.5654Z" fill="#8B2A00"/>
        <path d="M254.168 29.6299C254.168 29.6299 252.301 34.4946 245.848 32.949C239.395 31.4033 238.017 35.5528 238.017 35.5528C238.017 35.5528 239.172 25.865 250.008 26.5655L254.168 29.6299Z" fill="#8B2A00"/>
        <path d="M261.763 48.3322C261.385 49.2117 260.674 49.9052 259.785 50.2602C258.897 50.6152 257.904 50.6028 257.025 50.2257C255.194 49.4369 255.826 47.9525 256.614 46.1178C257.402 44.2832 258.043 42.8036 259.871 43.5899C260.307 43.7767 260.701 44.0476 261.032 44.3871C261.363 44.7266 261.623 45.1281 261.799 45.5685C261.975 46.009 262.062 46.4798 262.056 46.954C262.05 47.4282 261.95 47.8965 261.763 48.3322Z" fill="#FDC3A4"/>
        <path d="M258.9 45.001C258.9 45.001 261.486 45.8167 260.226 48.3838" stroke="#221F20" stroke-width="0.841496" stroke-miterlimit="10" stroke-linecap="round"/>
        <path d="M244.053 40.9907L243.847 42.3037" stroke="#221F20" stroke-width="0.841496" stroke-miterlimit="10" stroke-linecap="round"/>
        <path d="M237.787 39.0215L237.582 40.3344" stroke="#221F20" stroke-width="0.841496" stroke-miterlimit="10" stroke-linecap="round"/>
        <path d="M237.318 45.363C237.232 45.2528 237.147 45.1377 237.073 45.0201C236.71 44.5105 236.556 43.8811 236.642 43.2611C236.728 42.6411 237.048 42.0777 237.536 41.6863C238.433 40.957 239.208 40.0897 239.834 39.1168C240.178 38.5978 240.374 37.9949 240.401 37.3727C240.428 36.4885 240.105 35.3715 238.444 34.9624" stroke="#221F20" stroke-width="0.841496" stroke-miterlimit="10" stroke-linecap="round"/>
        <path d="M252.289 67.022L251.541 70.3778L254.602 72.7048C254.602 72.7048 252.355 70.2921 252.289 67.022Z" fill="#FDC3A4"/>
        <path d="M227.306 71.0366L226.748 72.7513C226.448 73.6708 225.981 74.5269 225.37 75.2767L223.698 77.3245C222.723 78.5199 222.122 79.977 221.97 81.5131C221.819 83.0492 222.124 84.5958 222.847 85.9591L223.642 87.4606C224.317 88.7348 224.629 90.1704 224.543 91.6101" stroke="#221F20" stroke-width="0.841496" stroke-miterlimit="10" stroke-linecap="round"/>
        <path d="M253.663 93.8931C253.663 93.8931 248.495 100.906 241.371 94.988" stroke="#221F20" stroke-width="0.841496" stroke-miterlimit="10" stroke-linecap="round"/>
        <path opacity="0.25" d="M273.607 91.8794L264.533 104.274L267.318 106.559L273.607 91.8794Z" fill="#221F20"/>
        <path d="M242.05 132.84C242.05 132.84 240.452 142.354 249.69 145.578" stroke="#79A5FE" stroke-width="0.841496" stroke-miterlimit="10" stroke-linecap="round"/>
        <path opacity="0.25" d="M215.688 60.7194L197.356 46.9458L214.947 66.5248L215.688 60.7194Z" fill="#221F20"/>
        <path opacity="0.25" d="M223.645 144.855C223.645 144.855 222.392 143.905 217.061 138.57L214.171 167.734L223.645 144.855Z" fill="#221F20"/>
        <path d="M97.5032 223.38C104.637 231.114 114.971 237.66 126.227 242.777C133.719 246.158 141.472 248.931 149.409 251.067C152.324 251.854 155.2 252.537 158 253.115L158.151 253.145L179.711 260.046L188.978 263.011L204.012 267.822L203.908 260.696L202.75 180.872L194.286 175.642L188.274 171.747L187.889 171.497L186.564 170.633L171.081 159.744L151.07 160.682L148.672 161.373L133.679 163.878L130.525 164.395L126.125 165.133C115.527 167.454 107.081 174.767 103.949 184.296L102.97 190.211L99.3512 212.124L99.2385 212.804L98.9635 214.39L97.5032 223.38Z" fill="#F55905"/>
        <path d="M130.525 164.508C130.525 175.169 138.225 181.478 149.087 184.552C160.332 187.726 179.062 181.926 191.486 173.837L187.898 171.497L186.572 170.633L171.09 159.744L151.078 160.682L148.68 161.373L130.55 164.401C130.538 164.436 130.53 164.472 130.525 164.508Z" fill="white"/>
        <path d="M133.677 163.87C135.486 171.948 142.463 176.952 151.777 179.587C161.187 182.243 177.671 178.304 188.283 171.745L187.898 171.494L186.572 170.63L178.223 164.756L171.09 159.741L168.752 159.851L165.177 160.021L151.076 160.679L148.678 161.37L143.01 162.317L137.334 163.264L135.409 163.586L133.677 163.87Z" fill="#FDC3A4"/>
        <path d="M141.743 170.082L178.266 170.247L178.213 164.75L178.007 143.647L177.963 139.047L177.949 137.649L177.699 112.163L177.696 111.896V111.836L177.672 109.303L152.432 104.244L146.385 141.483L146.02 143.727L143.003 162.309L142.582 164.902L142.368 166.228L142.068 168.073L141.743 170.082Z" fill="#FDC3A4"/>
        <path opacity="0.25" d="M135.396 163.581C136.435 164.715 138.371 166.917 142.076 168.07C142.243 168.122 142.414 168.174 142.59 168.221C148.238 169.741 154.246 169.148 159.488 166.553C161.497 165.571 163.402 164.39 165.175 163.027C168.858 160.197 171.9 156.618 174.103 152.527C176.305 148.436 177.618 143.924 177.954 139.289C177.954 139.21 177.954 139.127 177.968 139.047C177.99 138.703 178.004 138.359 178.012 138.012L177.704 112.163V111.888L174.215 110.897C174.261 111.238 174.451 113.65 175.24 127.602C176.293 146.165 164.133 146.886 164.133 146.886C156.892 141.992 150.532 142.235 146.393 143.358L146.027 143.718L143.002 162.303L137.326 163.25L135.396 163.581Z" fill="#221F20"/>
        <path d="M178.163 159.57L178.213 164.748L183.036 168.164C183.036 168.164 178.735 164.916 178.163 159.57Z" fill="#FDC3A4"/>
        <path d="M181.117 103.435L181.135 103.436C181.131 103.299 181.117 103.435 181.117 103.435Z" stroke="#221F20" stroke-width="0.146073" stroke-miterlimit="10"/>
        <path d="M130.746 118.844C130.874 122.966 130.64 129.548 131.029 134.798C131.913 146.301 140.216 152.477 152.2 152.106C167.74 151.633 179.224 142.775 178.682 124.749C178.587 121.677 178.857 118.58 179.073 115.525C179.151 114.426 179.22 113.327 179.265 112.227C179.344 110.597 179.324 108.964 179.205 107.336C179.134 106.393 179.009 105.455 178.829 104.527C177.275 96.6057 173.451 90.1428 163.738 87.7967C160.769 87.0821 157.251 86.7389 153.08 86.8655C151.608 86.9055 150.142 87.0781 148.7 87.3813C139.55 89.3297 133.936 96.5382 131.762 106.607C130.931 110.63 130.59 114.739 130.746 118.844Z" fill="#FDC3A4"/>
        <path d="M149.632 115.918C149.632 115.918 154.124 112.567 158.921 117.265" stroke="#221F20" stroke-width="2.1911" stroke-miterlimit="10" stroke-linecap="round"/>
        <path d="M150.903 124.579L151.307 127.763" stroke="#221F20" stroke-width="1.46073" stroke-miterlimit="10" stroke-linecap="round"/>
        <path d="M135.888 124.848L136.292 128.03" stroke="#221F20" stroke-width="1.46073" stroke-miterlimit="10" stroke-linecap="round"/>
        <path d="M131.029 134.799C129.933 147.657 133.597 160.171 145.565 159.375C184.596 156.78 179.499 120.65 179.406 106.223L174.419 104.696C174.452 105.019 174.56 107.303 174.885 120.461C175.314 137.971 163.139 138.219 163.139 138.219C150.697 129.661 140.449 136.165 140.449 136.165L137.834 137.677C137.834 137.677 133.941 137.794 131.029 134.799Z" fill="#262626"/>
        <path d="M154.727 139.768C154.915 139.747 155.105 139.78 155.275 139.862C155.445 139.945 155.588 140.075 155.688 140.236C155.788 140.396 155.84 140.582 155.838 140.772C155.836 140.961 155.781 141.146 155.679 141.305C154.274 143.516 152.181 145.659 149.275 145.891C146.281 146.131 144.241 144.059 143.184 142.586C143.083 142.445 143.02 142.279 143.002 142.106C142.985 141.933 143.012 141.758 143.083 141.599C143.153 141.44 143.264 141.302 143.404 141.199C143.544 141.096 143.709 141.031 143.882 141.011L154.727 139.768Z" fill="white"/>
        <path opacity="0.25" d="M131.788 105.583L140.24 104.854C141.046 104.79 141.856 104.916 142.605 105.22C143.355 105.525 144.022 106 144.556 106.609C144.948 107.04 145.378 107.436 145.84 107.792C147.028 108.705 148.445 109.272 149.935 109.431C151.425 109.591 152.929 109.335 154.283 108.694L165.945 103.208C167.34 102.538 168.92 102.358 170.429 102.698C173.518 103.428 174.155 105.808 174.263 108.024L174.379 111.424L179.11 114.496L179.341 114.647L179.301 111.197L179.241 106.307L179.161 99.4515C179.005 94.3756 178.65 91.7465 175.092 88.1273C174.341 87.3919 173.532 86.7183 172.673 86.113C172.568 86.0385 172.443 85.9988 172.315 85.9996C172.186 86.0004 172.061 86.0417 171.958 86.1177C171.854 86.1936 171.777 86.3002 171.738 86.4224C171.698 86.5447 171.698 86.6762 171.738 86.7985L171.917 89.4929C171.917 89.4929 164.936 82.3585 162.95 84.0585C162.475 84.4685 163.163 85.7847 163.775 86.7623C164.179 87.4046 164.561 87.8919 164.561 87.8919C159.357 86.8244 154.055 86.3066 148.743 86.347C139.579 88.3115 133.962 95.5197 131.788 105.583Z" fill="#221F20"/>
        <path d="M140.365 83.5419C152.869 81.7517 164.665 84.4806 164.665 84.4806C164.665 84.4806 162.271 81.316 163.06 80.6364C165.047 78.9254 172.028 86.068 172.028 86.068L171.848 83.3764C171.808 83.2543 171.808 83.1228 171.847 83.0006C171.886 82.8784 171.963 82.7716 172.066 82.6955C172.17 82.6193 172.294 82.5776 172.422 82.5762C172.551 82.5749 172.676 82.614 172.781 82.688C173.64 83.2936 174.45 83.9672 175.202 84.7023C178.761 88.3216 179.108 90.9504 179.271 96.0266L179.449 111.219L174.501 107.994L174.396 104.597C174.287 102.39 173.651 100.001 170.562 99.2714C169.053 98.9313 167.473 99.1107 166.078 99.7806L154.416 105.267C153.062 105.908 151.557 106.164 150.067 106.004C148.578 105.844 147.161 105.276 145.973 104.362C145.506 104.008 145.073 103.611 144.678 103.178C144.143 102.569 143.473 102.092 142.722 101.787C141.971 101.482 141.159 101.357 140.351 101.421L130.527 102.271C129.675 102.286 128.852 101.964 128.236 101.375C127.62 100.786 127.262 99.9769 127.238 99.1245L127.24 99.0667C127.165 95.3235 128.457 91.6817 130.873 88.8237C133.289 85.9656 136.664 84.0877 140.365 83.5419Z" fill="#262626"/>
        <path d="M186.816 121.318C186.832 122.224 186.67 123.125 186.338 123.969C186.007 124.813 185.512 125.583 184.883 126.236C184.254 126.888 183.503 127.41 182.672 127.772C181.841 128.134 180.947 128.328 180.042 128.344C176.231 128.412 176.167 125.325 176.099 121.508C176.031 117.691 175.99 114.605 179.795 114.537C180.701 114.521 181.601 114.683 182.444 115.015C183.287 115.347 184.057 115.842 184.709 116.472C185.361 117.101 185.883 117.853 186.244 118.685C186.606 119.516 186.8 120.411 186.816 121.318Z" fill="#FDC3A4"/>
        <path d="M179.21 117.763C179.21 117.763 184.361 117.151 184.18 122.623" stroke="#221F20" stroke-width="0.945595" stroke-miterlimit="10" stroke-linecap="round"/>
        <path d="M125 127.217C124.914 122.385 128.093 118.411 132.1 118.339C136.107 118.268 139.425 122.127 139.512 126.959C139.598 131.791 136.419 135.766 132.412 135.838C128.405 135.909 125.086 132.05 125 127.217Z" stroke="white" stroke-width="0.945595" stroke-linecap="round" stroke-linejoin="round"/>
        <path d="M138.586 135.796C138.317 135.624 138.048 135.446 137.804 135.266C135.455 133.61 135.051 130.486 136.9 128.17C138.497 126.133 139.756 123.853 140.63 121.417C141.109 120.164 141.203 118.796 140.902 117.488C140.446 115.674 139.053 113.61 135.037 113.866L146.131 113.659L146.483 133.417L138.586 135.796Z" fill="#FDC3A4"/>
        <path d="M138.587 135.796C138.317 135.624 138.049 135.446 137.805 135.267C135.455 133.61 135.052 130.486 136.901 128.17C138.497 126.133 139.757 123.853 140.631 121.417C141.11 120.164 141.204 118.796 140.902 117.488C140.447 115.673 139.053 113.61 135.037 113.866" stroke="#221F20" stroke-width="0.945595" stroke-miterlimit="10" stroke-linecap="round"/>
        <path d="M151.908 135.477C147.083 135.305 143.311 131.251 143.482 126.421C143.654 121.592 147.705 117.816 152.53 117.989C157.355 118.161 161.128 122.215 160.956 127.045C160.784 131.874 156.734 135.65 151.908 135.477Z" stroke="white" stroke-width="0.945595" stroke-linecap="round" stroke-linejoin="round"/>
        <path d="M131.103 114.263C131.103 114.263 135.038 110.782 138.945 115.273" stroke="#221F20" stroke-width="2.1911" stroke-miterlimit="10" stroke-linecap="round"/>
        <path d="M138.576 122.853C138.576 122.853 140.136 119.603 144.164 123.327" stroke="white" stroke-width="0.945595" stroke-linecap="round" stroke-linejoin="round"/>
        <path d="M128.776 222.03L129.81 223.131L140.926 234.904L158.151 253.153L170.526 266.255C184.18 279 204.568 274.967 210.549 261.783L212.359 256.613L223.029 226.129C225.328 211.298 221.123 196.201 207.904 184.841L202.767 180.883L182.156 230.536L154.626 211.799L142.576 203.597L141.751 204.712L137.543 210.335L133.767 215.383L129.216 221.466L128.776 222.03Z" fill="#FA6E22"/>
        <path d="M122.471 167.413L133.429 215.109C133.609 215.9 133.609 216.722 133.428 217.513C133.248 218.304 132.891 219.045 132.386 219.679C131.88 220.314 131.238 220.826 130.508 221.179C129.777 221.531 128.977 221.714 128.166 221.715H108.162C106.942 221.714 105.757 221.301 104.801 220.54C103.845 219.78 103.175 218.718 102.899 217.528L91.7369 169.237C91.59 168.589 91.5874 167.916 91.7292 167.266C91.8711 166.616 92.1539 166.006 92.5577 165.478C92.9616 164.949 93.4765 164.517 94.066 164.21C94.6555 163.903 95.3053 163.73 95.9692 163.702L116.536 162.852C117.902 162.795 119.245 163.221 120.33 164.055C121.414 164.888 122.172 166.077 122.471 167.413Z" fill="#020775"/>
        <path d="M104.352 167.305C104.213 167.305 104.08 167.249 103.982 167.151C103.884 167.053 103.829 166.92 103.829 166.782C103.829 166.643 103.884 166.51 103.982 166.412C104.08 166.314 104.213 166.259 104.352 166.259L115.253 165.686C116.344 165.599 117.43 165.911 118.31 166.564C119.189 167.217 119.803 168.166 120.037 169.237L129.891 214.378L118.044 171.411C117.804 170.516 117.295 169.716 116.586 169.119C115.878 168.522 115.003 168.157 114.081 168.073L104.352 167.305Z" fill="#2D57FD"/>
        <path d="M96.5407 166.714L96.5434 166.713C97.7017 166.45 98.8536 167.177 99.1163 168.336L100.108 172.715C100.371 173.874 99.6452 175.027 98.487 175.29L98.4843 175.291C97.3261 175.554 96.1741 174.827 95.9114 173.668L94.9193 169.289C94.6565 168.13 95.3825 166.977 96.5407 166.714Z" fill="#2D57FD"/>
        <path d="M97.0494 170.465C96.2399 170.465 95.5837 169.808 95.5837 168.998C95.5837 168.188 96.2399 167.531 97.0494 167.531C97.8589 167.531 98.5151 168.188 98.5151 168.998C98.5151 169.808 97.8589 170.465 97.0494 170.465Z" fill="white"/>
        <path d="M93.4333 194.363L97.0468 208.739C97.0853 208.89 97.1265 209.039 97.1705 209.188C97.6886 210.883 98.6779 212.395 100.023 213.549C101.368 214.702 103.013 215.448 104.766 215.7L122.764 218.277C124.458 218.524 126.063 219.185 127.439 220.203L133.591 224.72L137.4 218.736L144.825 207.104L135.992 200.355C134.358 198.781 133.395 196.636 133.302 194.368L133.027 187.319C132.976 185.919 132.579 184.554 131.871 183.346C131.164 182.137 130.168 181.123 128.974 180.393L124.953 178.312L126.834 186.132C126.834 186.132 129.859 196.069 102.984 190.22C100.927 189.774 98.6894 189.23 96.2713 188.588L95.2813 184.985C95.2813 184.985 89.8254 186.46 93.4333 194.363Z" fill="#FDC3A4"/>
        <path d="M152.8 207.157C151.172 205.987 149.2 204.561 147.493 203.325C146.983 202.955 146.403 202.696 145.788 202.562C145.173 202.429 144.537 202.425 143.92 202.55C143.304 202.676 142.72 202.928 142.206 203.291C141.692 203.654 141.259 204.121 140.934 204.66L129.425 223.757C128.875 224.669 128.662 225.745 128.823 226.799C128.983 227.852 129.508 228.815 130.305 229.521L135.75 234.321C136.257 234.769 136.857 235.099 137.507 235.285C138.157 235.472 138.84 235.511 139.507 235.4C140.174 235.289 140.808 235.031 141.362 234.644C141.917 234.256 142.378 233.751 142.713 233.163L154.126 213.108C154.68 212.127 154.851 210.976 154.606 209.877C154.361 208.778 153.718 207.808 152.8 207.157Z" fill="#FCA06F"/>
        <path d="M99.4834 198.037C99.4834 198.037 96.3787 198.213 93.4335 194.362" stroke="#221F20" stroke-width="0.945595" stroke-miterlimit="10" stroke-linecap="round"/>
        <path d="M100.166 206.446C100.166 206.446 97.0498 205.876 95.5841 203.011" stroke="#221F20" stroke-width="0.945595" stroke-miterlimit="10" stroke-linecap="round"/>
        <path d="M191.486 208.023L182.139 230.545L169.228 221.759" stroke="#221F20" stroke-width="0.945595" stroke-miterlimit="10" stroke-linecap="round"/>
        <path opacity="0.25" d="M98.9887 214.393L97.5038 223.38L118.285 231.827C120.83 232.858 123.105 234.458 124.935 236.506L125.223 236.831C125.932 237.627 126.402 238.607 126.58 239.658C126.757 240.709 126.635 241.789 126.227 242.774C133.72 246.156 141.472 248.928 149.409 251.065C152.324 251.852 155.201 252.534 158 253.112L158.152 253.143L170.526 266.245C184.18 279 204.568 274.968 210.549 261.783L212.359 256.614C209.691 258.263 206.861 259.634 203.914 260.704C199.72 262.251 194.396 263.531 188.984 263.019C185.712 262.74 182.544 261.727 179.717 260.054C178 259.022 176.428 257.765 175.042 256.316C160.382 241.147 146.316 226.837 146.316 226.837L137.4 218.736L134.202 215.824L97.16 209.188C97.5704 210.537 98.2823 211.774 99.2417 212.807L98.9887 214.393Z" fill="#221F20"/>
    </g>
</svg>
