<svg width="22" height="22" viewBox="0 0 22 22" fill="none" xmlns="http://www.w3.org/2000/svg">
<path fill-rule="evenodd" clip-rule="evenodd" d="M8.62132 1.48528C9.93503 0.171573 12.065 0.171573 13.3787 1.48528L20.5147 8.62132C21.8284 9.93503 21.8284 12.065 20.5147 13.3787L13.3787 20.5147C12.065 21.8284 9.93503 21.8284 8.62132 20.5147L1.48528 13.3787C0.171573 12.065 0.171573 9.93503 1.48528 8.62132L8.62132 1.48528ZM10.25 11.75V6.5H11.75V11.75H10.25ZM11.0014 13.25C10.3783 13.25 9.875 13.754 9.875 14.375C9.875 14.9946 10.3783 15.5 11.0014 15.5C11.6217 15.5 12.125 14.9946 12.125 14.375C12.125 13.754 11.6217 13.25 11.0014 13.25Z" fill="#262626"/>
</svg>
