<svg width="25" height="24" viewBox="0 0 25 24" fill="none" xmlns="http://www.w3.org/2000/svg">
<path d="M12.125 3.46875C14.3876 3.46875 16.5576 4.36758 18.1575 5.9675C19.7574 7.56742 20.6562 9.73737 20.6562 12C20.6562 14.2626 19.7574 16.4326 18.1575 18.0325C16.5576 19.6324 14.3876 20.5312 12.125 20.5312C9.86237 20.5312 7.69242 19.6324 6.0925 18.0325C4.49258 16.4326 3.59375 14.2626 3.59375 12C3.59375 9.73737 4.49258 7.56742 6.0925 5.9675C7.69242 4.36758 9.86237 3.46875 12.125 3.46875ZM12.125 22.5C14.9098 22.5 17.5805 21.3938 19.5496 19.4246C21.5188 17.4555 22.625 14.7848 22.625 12C22.625 9.21523 21.5188 6.54451 19.5496 4.57538C17.5805 2.60625 14.9098 1.5 12.125 1.5C9.34023 1.5 6.66951 2.60625 4.70038 4.57538C2.73125 6.54451 1.625 9.21523 1.625 12C1.625 14.7848 2.73125 17.4555 4.70038 19.4246C6.66951 21.3938 9.34023 22.5 12.125 22.5ZM10.4844 15.2812C9.93887 15.2812 9.5 15.7201 9.5 16.2656C9.5 16.8111 9.93887 17.25 10.4844 17.25H13.7656C14.3111 17.25 14.75 16.8111 14.75 16.2656C14.75 15.7201 14.3111 15.2812 13.7656 15.2812H13.4375V11.6719C13.4375 11.1264 12.9986 10.6875 12.4531 10.6875H10.4844C9.93887 10.6875 9.5 11.1264 9.5 11.6719C9.5 12.2174 9.93887 12.6562 10.4844 12.6562H11.4688V15.2812H10.4844ZM12.125 9.375C12.4731 9.375 12.8069 9.23672 13.0531 8.99058C13.2992 8.74444 13.4375 8.4106 13.4375 8.0625C13.4375 7.7144 13.2992 7.38056 13.0531 7.13442C12.8069 6.88828 12.4731 6.75 12.125 6.75C11.7769 6.75 11.4431 6.88828 11.1969 7.13442C10.9508 7.38056 10.8125 7.7144 10.8125 8.0625C10.8125 8.4106 10.9508 8.74444 11.1969 8.99058C11.4431 9.23672 11.7769 9.375 12.125 9.375Z" fill="#262626"/>
</svg>
