<svg width="24" height="24" viewBox="0 0 24 24" fill="none" xmlns="http://www.w3.org/2000/svg">
<path fill-rule="evenodd" clip-rule="evenodd" d="M22.5 11.9995C22.5 6.20054 17.7998 1.5 12.0005 1.5C6.20107 1.5 1.5 6.20072 1.5 11.9995C1.5 17.7991 6.2009 22.5 12.0005 22.5C17.8 22.5 22.5 17.7993 22.5 11.9995ZM16.4951 18H7.5C7.08579 18 6.74505 17.6626 6.78887 17.2507C7.07612 14.5502 8.94385 12.75 12 12.75C15.0753 12.75 16.9077 14.5535 17.2067 17.2461C17.2526 17.6597 16.9112 18 16.4951 18ZM9.75 9C9.75 9.82843 9.07843 10.5 8.25 10.5C7.42157 10.5 6.75 9.82843 6.75 9C6.75 8.17157 7.42157 7.5 8.25 7.5C9.07843 7.5 9.75 8.17157 9.75 9ZM15.75 10.5C16.5784 10.5 17.25 9.82843 17.25 9C17.25 8.17157 16.5784 7.5 15.75 7.5C14.9216 7.5 14.25 8.17157 14.25 9C14.25 9.82843 14.9216 10.5 15.75 10.5Z" fill="#262626"/>
</svg>
