<svg width="25" height="24" viewBox="0 0 25 24" fill="none" xmlns="http://www.w3.org/2000/svg">
<path d="M13.7753 9.14844C13.4081 9.51562 13.4081 10.1094 13.7753 10.4727C14.1425 10.8359 14.7362 10.8398 15.0995 10.4727L20.3729 5.19922V8.5625C20.3729 9.08203 20.7909 9.5 21.3104 9.5C21.8299 9.5 22.2479 9.08203 22.2479 8.5625V2.9375C22.2479 2.41797 21.8299 2 21.3104 2H15.6893C15.1698 2 14.7519 2.41797 14.7519 2.9375C14.7519 3.45703 15.1698 3.875 15.6893 3.875H19.0526L13.7753 9.14844ZM10.7284 14.8516C11.0956 14.4844 11.0956 13.8906 10.7284 13.5273C10.3613 13.1641 9.76752 13.1602 9.40424 13.5273L4.12694 18.8008V15.4375C4.12694 14.918 3.70897 14.5 3.18945 14.5C2.66992 14.5 2.25195 14.918 2.25195 15.4375V21.0625C2.25195 21.582 2.66992 22 3.18945 22H8.8144C9.33393 22 9.75189 21.582 9.75189 21.0625C9.75189 20.543 9.33393 20.125 8.8144 20.125H5.45115L10.7284 14.8516Z" fill="#262626"/>
</svg>
