<svg xmlns="http://www.w3.org/2000/svg" width="130" height="63" viewBox="0 0 130 63">

    <path
        d="M 127.42 2.648 L 123.477 52.129 C 123.174 57.093 118.866 61.154 113.901 61.154 L 33.106 61.154 C 13.127 61.154 11.769 53.451 12.772 38.905 L 16.012 2.648 L 127.42 2.648 Z"
        fill="#ffffff" fill-rule="evenodd" />

    <path
        d="M 47.209 2.648 L 42.982 61.154 L 22.756 61.154 C 2.777 61.154 1.419 53.451 2.422 38.905 L 5.662 2.648 L 47.209 2.648 Z"
        fill="#f26724" fill-rule="evenodd" />

    <path
        d="M 51.928 26.325 L 51.202 37.026 C 50.914 41.272 54.107 44.746 58.298 44.746 L 61.549 44.746 C 65.74 44.746 69.404 41.272 69.692 37.026 L 70.94 18.605 L 60.07 18.605 C 55.88 18.605 52.216 22.079 51.928 26.325 L 51.928 26.325 Z M 63.088 37.026 C 63.051 37.575 62.544 38.056 62.003 38.056 L 58.752 38.056 C 58.21 38.056 57.768 37.575 57.805 37.026 L 58.531 26.325 C 58.568 25.777 59.075 25.296 59.617 25.296 L 63.884 25.296 L 63.088 37.026 Z"
        fill="#512772" fill-rule="evenodd" />

    <path
        d="M 112.187 18.605 L 101.316 18.605 L 100.067 37.026 C 100.019 37.747 100.077 38.445 100.217 39.108 C 100.068 39.117 99.921 39.127 99.766 39.127 C 96.343 39.127 94.685 36.733 94.99 32.239 L 95.519 24.435 L 95.482 24.435 L 95.669 21.694 C 95.784 19.996 94.507 18.605 92.83 18.605 L 89.18 18.605 C 89.18 18.605 89.087 19.996 88.97 21.694 L 88.47 29.07 C 88.461 29.215 88.451 29.355 88.441 29.494 L 88.394 30.211 C 88.373 30.509 88.354 30.785 88.339 31.03 L 88.313 31.389 C 88.3 31.589 88.288 31.756 88.281 31.882 L 88.272 31.989 C 88.271 32.008 88.27 32.027 88.27 32.044 L 88.265 32.114 C 88.262 32.141 88.261 32.159 88.261 32.159 L 88.133 34.049 C 88.021 35.701 88.118 37.188 88.4 38.509 C 87.641 38.92 86.766 39.127 85.782 39.127 C 82.827 39.127 79.009 38.171 79.009 33.024 L 79.779 21.694 C 79.894 19.996 78.616 18.605 76.939 18.605 L 73.29 18.605 C 73.29 18.605 73.196 19.996 73.08 21.694 L 71.335 48.308 C 71.219 50.006 70.94 54.118 70.94 54.118 L 74.59 54.118 C 76.267 54.118 77.732 52.729 77.848 51.031 L 78.231 44.507 C 79.23 45.072 81.89 45.373 83.432 45.373 C 85.868 45.373 88.261 44.372 90.103 42.345 C 91.646 44.309 94.052 45.373 97.244 45.373 C 99.329 45.373 101.381 44.755 103.132 43.507 C 103.624 44.07 104.579 44.644 105.412 44.85 L 105.415 44.851 C 105.973 44.989 106.555 45.068 107.163 45.068 L 110.414 45.068 C 114.604 45.068 118.269 41.595 118.557 37.35 L 119.283 26.326 C 119.571 22.08 116.377 18.605 112.187 18.605 L 112.187 18.605 Z M 111.953 37.35 C 111.916 37.897 111.41 38.379 110.868 38.379 L 107.617 38.379 C 107.076 38.379 106.633 37.897 106.671 37.35 L 107.465 25.296 L 111.733 25.296 C 112.274 25.296 112.716 25.778 112.679 26.326 L 111.953 37.35 Z"
        fill="#512772" fill-rule="evenodd" />

    <path
        d="M 55.724 12.297 L 55.624 13.769 C 55.52 15.307 56.676 16.566 58.194 16.566 L 59.372 16.566 C 60.89 16.566 62.217 15.307 62.322 13.769 L 62.611 9.501 L 58.673 9.501 C 57.156 9.501 55.828 10.759 55.724 12.297"
        fill="#512772" fill-rule="evenodd" />

    <path
        d="M 63.258 12.297 L 63.158 13.769 C 63.053 15.307 64.21 16.566 65.728 16.566 L 66.906 16.566 C 68.424 16.566 69.751 15.307 69.855 13.769 L 70.144 9.501 L 66.207 9.501 C 64.689 9.501 63.362 10.759 63.258 12.297"
        fill="#512772" fill-rule="evenodd" />

    <path
        d="M 76.051 16.522 L 77.523 16.53 C 79.104 16.552 80.33 15.505 80.345 13.987 L 80.432 12.811 C 80.543 11.225 79.718 9.564 78.179 9.549 L 73.592 9.504 L 73.285 13.439 C 73.27 14.957 74.514 16.402 76.051 16.522"
        fill="#eb6d25" fill-rule="evenodd" />

    <path
        d="M 79.497 49.944 L 79.397 51.416 C 79.293 52.954 80.45 54.212 81.967 54.212 L 83.145 54.212 C 84.663 54.212 85.99 52.954 86.094 51.416 L 86.384 47.148 L 82.446 47.148 C 80.928 47.148 79.601 48.406 79.497 49.944"
        fill="#512772" fill-rule="evenodd" />

    <path
        d="M 87.502 49.944 L 87.402 51.416 C 87.298 52.954 88.454 54.212 89.972 54.212 L 91.15 54.212 C 92.668 54.212 93.995 52.954 94.1 51.416 L 94.389 47.148 L 90.451 47.148 C 88.934 47.148 87.606 48.406 87.502 49.944"
        fill="#512772" fill-rule="evenodd" />

    <path
        d="M 92.358 16.345 C 92.08 16.345 91.803 16.346 91.525 16.345 C 91.359 16.343 91.311 16.291 91.322 16.127 C 91.404 14.967 91.489 13.807 91.565 12.646 C 91.583 12.358 91.586 12.066 91.564 11.776 C 91.535 11.398 91.362 11.241 90.986 11.236 C 90.671 11.233 90.359 11.256 90.046 11.268 C 89.969 11.271 89.927 11.297 89.943 11.388 C 90.035 11.933 89.97 12.465 89.931 12.998 C 89.874 13.773 89.819 14.548 89.762 15.322 C 89.741 15.596 89.717 15.869 89.697 16.142 C 89.686 16.288 89.611 16.348 89.463 16.347 C 88.907 16.342 88.353 16.346 87.798 16.345 C 87.618 16.344 87.574 16.298 87.587 16.124 C 87.675 14.931 87.767 13.74 87.85 12.547 C 87.868 12.283 87.872 12.015 87.856 11.748 C 87.835 11.409 87.681 11.258 87.345 11.24 C 87.034 11.223 86.724 11.233 86.413 11.228 C 86.327 11.226 86.321 11.278 86.316 11.343 C 86.264 12.086 86.209 12.828 86.156 13.571 C 86.095 14.416 86.037 15.261 85.976 16.105 C 85.962 16.293 85.905 16.344 85.713 16.345 C 85.163 16.346 84.613 16.346 84.063 16.345 C 83.883 16.344 83.837 16.29 83.85 16.108 C 83.938 14.86 84.025 13.611 84.113 12.362 C 84.171 11.532 84.23 10.701 84.289 9.87 C 84.302 9.691 84.34 9.643 84.547 9.613 C 84.974 9.551 85.401 9.483 85.832 9.448 C 86.531 9.391 87.234 9.368 87.945 9.468 C 88.342 9.523 88.734 9.6 89.111 9.767 C 89.165 9.791 89.243 9.785 89.298 9.767 C 90.046 9.512 90.824 9.375 91.638 9.412 C 91.969 9.427 92.308 9.481 92.634 9.569 C 93.261 9.737 93.596 10.181 93.709 10.797 C 93.801 11.294 93.757 11.781 93.722 12.268 C 93.647 13.289 93.573 14.31 93.498 15.331 C 93.479 15.6 93.457 15.869 93.434 16.138 C 93.42 16.297 93.368 16.344 93.204 16.345 C 92.922 16.346 92.64 16.345 92.358 16.345"
        fill="#512772" fill-rule="evenodd" />

    <path
        d="M 105.059 13.582 C 104.453 13.582 103.846 13.585 103.24 13.58 C 103.127 13.579 103.086 13.614 103.082 13.726 C 103.058 14.299 103.259 14.54 103.843 14.574 C 104.271 14.598 104.699 14.586 105.127 14.587 C 105.555 14.589 105.983 14.587 106.411 14.588 C 106.624 14.588 106.671 14.63 106.659 14.837 C 106.636 15.223 106.606 15.608 106.577 15.992 C 106.567 16.117 106.506 16.198 106.375 16.211 C 105.764 16.274 105.156 16.364 104.541 16.388 C 103.972 16.411 103.394 16.376 102.82 16.339 C 102.426 16.313 102.042 16.201 101.695 15.964 C 101.282 15.682 101.107 15.272 101.018 14.82 C 100.891 14.173 100.926 13.535 100.972 12.899 C 101.012 12.319 101.074 11.743 101.233 11.19 C 101.401 10.607 101.681 10.107 102.221 9.801 C 102.537 9.622 102.888 9.528 103.253 9.48 C 104.063 9.374 104.883 9.36 105.712 9.509 C 106.078 9.574 106.428 9.691 106.719 9.958 C 107.081 10.29 107.204 10.716 107.262 11.159 C 107.36 11.896 107.303 12.621 107.237 13.343 C 107.226 13.47 107.151 13.552 107.017 13.567 C 106.948 13.574 106.878 13.581 106.808 13.581 C 106.226 13.582 105.642 13.582 105.059 13.582 M 103.146 12.294 L 103.338 12.294 L 104.789 12.294 C 105.249 12.294 105.271 12.266 105.178 11.797 C 105.117 11.487 104.953 11.309 104.645 11.266 C 104.435 11.236 104.22 11.228 104.013 11.244 C 103.661 11.272 103.391 11.435 103.271 11.773 C 103.216 11.929 103.192 12.099 103.146 12.294"
        fill="#512772" fill-rule="evenodd" />

    <path
        d="M 98.353 13.582 C 97.756 13.582 97.159 13.588 96.561 13.578 C 96.412 13.575 96.383 13.636 96.384 13.762 C 96.385 14.327 96.569 14.529 97.139 14.576 C 97.304 14.589 97.469 14.587 97.634 14.587 C 98.334 14.588 99.034 14.587 99.735 14.588 C 99.922 14.588 99.973 14.636 99.962 14.816 C 99.939 15.212 99.908 15.606 99.879 16 C 99.87 16.12 99.808 16.197 99.685 16.21 C 99.093 16.272 98.502 16.349 97.907 16.39 C 97.249 16.434 96.584 16.424 95.918 16.312 C 95.615 16.261 95.321 16.171 95.052 16.002 C 94.613 15.727 94.419 15.309 94.326 14.84 C 94.182 14.116 94.224 13.403 94.296 12.696 C 94.344 12.222 94.411 11.749 94.515 11.289 C 94.656 10.664 94.949 10.129 95.52 9.804 C 95.836 9.624 96.186 9.53 96.551 9.481 C 97.362 9.374 98.181 9.36 99.011 9.508 C 99.386 9.575 99.746 9.694 100.04 9.975 C 100.397 10.317 100.537 10.748 100.564 11.196 C 100.598 11.735 100.583 12.273 100.583 12.81 C 100.582 12.983 100.561 13.154 100.543 13.324 C 100.529 13.47 100.45 13.558 100.298 13.571 C 100.233 13.576 100.168 13.582 100.102 13.582 C 99.519 13.582 98.936 13.582 98.353 13.582 L 98.353 13.582 Z M 98.518 12.286 C 98.502 12.103 98.499 11.934 98.47 11.768 C 98.42 11.483 98.247 11.307 97.962 11.268 C 97.752 11.239 97.537 11.227 97.33 11.243 C 96.76 11.288 96.477 11.679 96.492 12.286 L 98.518 12.286 Z"
        fill="#512772" fill-rule="evenodd" />

    <path
        d="M 116.14 11.229 C 115.726 11.229 115.313 11.23 114.899 11.229 C 114.722 11.228 114.668 11.177 114.679 11.008 C 114.706 10.609 114.742 10.211 114.769 9.812 C 114.777 9.689 114.841 9.632 114.953 9.611 C 115.908 9.433 116.88 9.37 117.87 9.42 C 118.3 9.442 118.729 9.493 119.149 9.633 C 119.942 9.899 120.255 10.417 120.234 11.17 C 120.21 12.023 120.13 12.871 120.073 13.72 C 120.029 14.365 119.978 15.01 119.937 15.655 C 119.915 16.008 119.824 16.113 119.48 16.176 C 118.289 16.39 117.076 16.456 115.845 16.378 C 115.551 16.359 115.251 16.309 114.96 16.236 C 114.404 16.094 114.078 15.713 113.976 15.164 C 113.859 14.536 113.899 13.927 114.116 13.35 C 114.354 12.715 114.855 12.4 115.508 12.293 C 115.841 12.238 116.183 12.215 116.524 12.203 C 116.997 12.185 117.473 12.189 117.948 12.189 C 118.04 12.189 118.089 12.166 118.077 12.066 C 118.074 12.042 118.076 12.019 118.077 11.995 C 118.104 11.496 117.876 11.245 117.368 11.234 C 116.958 11.226 116.549 11.233 116.14 11.233 C 116.14 11.232 116.14 11.23 116.14 11.229 M 117.967 13.471 C 117.504 13.471 117.057 13.459 116.615 13.475 C 116.322 13.486 116.106 13.624 116.055 13.935 C 116.04 14.025 116.034 14.119 116.036 14.212 C 116.046 14.51 116.17 14.647 116.471 14.683 C 116.927 14.738 117.372 14.698 117.81 14.62 C 117.844 14.614 117.887 14.569 117.89 14.537 C 117.919 14.186 117.942 13.834 117.967 13.471"
        fill="#512772" fill-rule="evenodd" />

    <path
        d="M 110.608 14.525 L 110.799 14.525 C 111.603 14.525 112.407 14.525 113.211 14.526 C 113.272 14.526 113.334 14.529 113.395 14.54 C 113.483 14.556 113.531 14.615 113.526 14.703 C 113.495 15.182 113.467 15.661 113.43 16.138 C 113.416 16.3 113.343 16.344 113.147 16.345 C 112.371 16.345 111.595 16.345 110.819 16.345 C 109.78 16.345 108.741 16.345 107.702 16.345 C 107.448 16.345 107.397 16.293 107.417 16.042 C 107.441 15.736 107.462 15.43 107.5 15.127 C 107.511 15.036 107.555 14.941 107.612 14.873 C 108.476 13.852 109.345 12.834 110.212 11.816 C 110.368 11.632 110.523 11.448 110.702 11.236 L 110.514 11.236 C 109.743 11.236 108.971 11.236 108.2 11.235 C 107.937 11.235 107.902 11.197 107.92 10.936 C 107.947 10.532 107.973 10.128 108 9.724 C 108.012 9.529 108.084 9.467 108.31 9.467 C 109.787 9.466 111.264 9.467 112.74 9.467 C 112.994 9.467 113.248 9.464 113.502 9.468 C 113.681 9.47 113.731 9.528 113.719 9.706 C 113.697 10.036 113.68 10.367 113.646 10.694 C 113.637 10.79 113.599 10.894 113.54 10.966 C 112.605 12.104 111.664 13.238 110.725 14.373 C 110.694 14.411 110.665 14.45 110.608 14.525"
        fill="#512772" fill-rule="evenodd" />

    <path
        d="M 99.446 47.543 C 97.875 47.543 96.5 48.914 96.391 50.591 L 96.154 54.241 L 114.725 54.241 C 116.297 54.241 117.671 52.869 117.78 51.193 L 118.018 47.543 L 99.446 47.543 Z"
        fill="#eb6d25" fill-rule="evenodd" />

    <path
        d="M 127.539 2.546 L 123.718 49.944 C 123.239 55.897 117.801 60.921 111.837 60.921 L 22.789 60.921 C 2.81 60.921 1.452 53.218 2.455 38.672 L 5.695 2.415 L 127.539 2.546 Z"
        fill="#000000" stroke="#ffffff" fill-opacity="0" stroke-width="3.258" fill-rule="evenodd" />

    <path
        d="M 34.35 40.208 L 13.823 40.208 C 12.137 40.208 10.864 38.836 10.987 37.149 L 11.761 26.526 C 11.884 24.839 13.357 23.467 15.043 23.467 L 35.57 23.467 C 37.257 23.467 38.529 24.839 38.406 26.526 L 37.632 37.149 C 37.509 38.836 36.036 40.208 34.35 40.208 L 34.35 40.208 Z M 14.891 25.555 C 14.356 25.555 13.888 25.99 13.85 26.526 L 13.075 37.149 C 13.036 37.684 13.44 38.12 13.975 38.12 L 34.502 38.12 C 35.037 38.12 35.505 37.684 35.544 37.149 L 36.318 26.526 C 36.357 25.99 35.953 25.555 35.418 25.555 L 14.891 25.555 Z"
        fill="#ffffff" fill-rule="evenodd" />

    <path d="M 12.883 32.07 L 13.105 29.023 L 37.082 29.023 L 36.86 32.07 Z" fill="#ffffff" fill-rule="evenodd" />
</svg>
