<svg width="25" height="24" viewBox="0 0 25 24" fill="none" xmlns="http://www.w3.org/2000/svg">
<path d="M15.9693 17.25C16.3647 15.9416 17.1845 14.826 17.996 13.7145C18.2102 13.4232 18.4244 13.132 18.6304 12.8367C19.446 11.6678 19.9238 10.2527 19.9238 8.72285C19.9238 4.73203 16.6778 1.5 12.6738 1.5C8.66985 1.5 5.42383 4.73203 5.42383 8.71875C5.42383 10.2486 5.90167 11.6678 6.71729 12.8326C6.92326 13.1279 7.13746 13.4191 7.35167 13.7104C8.16729 14.8219 8.98704 15.9416 9.37837 17.2459H15.9693V17.25ZM12.6738 22.5C14.4946 22.5 15.9693 21.0316 15.9693 19.2188V18.5625H9.37837V19.2188C9.37837 21.0316 10.8531 22.5 12.6738 22.5ZM9.37837 8.71875C9.37837 9.07969 9.08178 9.375 8.71928 9.375C8.35678 9.375 8.06019 9.07969 8.06019 8.71875C8.06019 6.17988 10.124 4.125 12.6738 4.125C13.0363 4.125 13.3329 4.42031 13.3329 4.78125C13.3329 5.14219 13.0363 5.4375 12.6738 5.4375C10.8531 5.4375 9.37837 6.90586 9.37837 8.71875Z" fill="#262626"/>
</svg>
