<svg width="25" height="24" viewBox="0 0 25 24" fill="none" xmlns="http://www.w3.org/2000/svg">
<path d="M20.6562 12C20.6562 9.73737 19.7574 7.56742 18.1575 5.9675C16.5576 4.36758 14.3876 3.46875 12.125 3.46875C9.86237 3.46875 7.69242 4.36758 6.0925 5.9675C4.49258 7.56742 3.59375 9.73737 3.59375 12C3.59375 14.2626 4.49258 16.4326 6.0925 18.0325C7.69242 19.6324 9.86237 20.5312 12.125 20.5312C14.3876 20.5312 16.5576 19.6324 18.1575 18.0325C19.7574 16.4326 20.6562 14.2626 20.6562 12ZM1.625 12C1.625 9.21523 2.73125 6.54451 4.70038 4.57538C6.66951 2.60625 9.34023 1.5 12.125 1.5C14.9098 1.5 17.5805 2.60625 19.5496 4.57538C21.5188 6.54451 22.625 9.21523 22.625 12C22.625 14.7848 21.5188 17.4555 19.5496 19.4246C17.5805 21.3938 14.9098 22.5 12.125 22.5C9.34023 22.5 6.66951 21.3938 4.70038 19.4246C2.73125 17.4555 1.625 14.7848 1.625 12ZM8.78633 17.2541C8.60176 17.7668 8.03984 18.0293 7.52715 17.8447C7.01445 17.6602 6.75195 17.0982 6.93652 16.5855C7.6502 14.6004 9.78301 13.3125 12.125 13.3125C14.467 13.3125 16.5998 14.6004 17.3176 16.5896C17.5021 17.1023 17.2355 17.6643 16.727 17.8488C16.2184 18.0334 15.6523 17.7668 15.4678 17.2582C15.0863 16.2041 13.8148 15.2812 12.125 15.2812C10.4352 15.2812 9.16367 16.2041 8.78633 17.2541ZM7.54766 10.0312C7.54766 9.68315 7.68594 9.34931 7.93208 9.10317C8.17822 8.85703 8.51206 8.71875 8.86016 8.71875C9.20825 8.71875 9.54209 8.85703 9.78823 9.10317C10.0344 9.34931 10.1727 9.68315 10.1727 10.0312C10.1727 10.3793 10.0344 10.7132 9.78823 10.9593C9.54209 11.2055 9.20825 11.3438 8.86016 11.3438C8.51206 11.3438 8.17822 11.2055 7.93208 10.9593C7.68594 10.7132 7.54766 10.3793 7.54766 10.0312ZM15.4227 8.71875C15.7708 8.71875 16.1046 8.85703 16.3507 9.10317C16.5969 9.34931 16.7352 9.68315 16.7352 10.0312C16.7352 10.3793 16.5969 10.7132 16.3507 10.9593C16.1046 11.2055 15.7708 11.3438 15.4227 11.3438C15.0746 11.3438 14.7407 11.2055 14.4946 10.9593C14.2484 10.7132 14.1102 10.3793 14.1102 10.0312C14.1102 9.68315 14.2484 9.34931 14.4946 9.10317C14.7407 8.85703 15.0746 8.71875 15.4227 8.71875Z" fill="#262626"/>
</svg>
