<svg width="25" height="24" viewBox="0 0 25 24" fill="none" xmlns="http://www.w3.org/2000/svg">
<path d="M12.9414 20.5312C13.2449 20.5312 14.0488 20.2359 14.8938 18.5461C15.2547 17.8201 15.5664 16.9383 15.7961 15.9375H10.0867C10.3164 16.9383 10.6281 17.8201 10.9891 18.5461C11.834 20.2359 12.6379 20.5312 12.9414 20.5312ZM9.7627 13.9688H16.1201C16.1857 13.3412 16.2227 12.6809 16.2227 12C16.2227 11.3191 16.1857 10.6588 16.1201 10.0312H9.7627C9.69707 10.6588 9.66016 11.3191 9.66016 12C9.66016 12.6809 9.69707 13.3412 9.7627 13.9688ZM10.0867 8.0625H15.7961C15.5664 7.06172 15.2547 6.17988 14.8938 5.45391C14.0488 3.76406 13.2449 3.46875 12.9414 3.46875C12.6379 3.46875 11.834 3.76406 10.9891 5.45391C10.6281 6.17988 10.3164 7.06172 10.0867 8.0625ZM18.0971 10.0312C18.1586 10.667 18.1873 11.3273 18.1873 12C18.1873 12.6727 18.1545 13.333 18.0971 13.9688H21.243C21.3906 13.3371 21.4727 12.6768 21.4727 12C21.4727 11.3232 21.3947 10.6629 21.243 10.0312H18.1012H18.0971ZM20.5088 8.0625C19.6311 6.37676 18.2078 5.02324 16.4729 4.23164C17.0512 5.28164 17.5105 6.59004 17.81 8.0625H20.5129H20.5088ZM8.06875 8.0625C8.36816 6.59004 8.82754 5.28574 9.40586 4.23164C7.6709 5.02324 6.24766 6.37676 5.36992 8.0625H8.07285H8.06875ZM4.63984 10.0312C4.49219 10.6629 4.41016 11.3232 4.41016 12C4.41016 12.6768 4.48809 13.3371 4.63984 13.9688H7.78574C7.72422 13.333 7.69551 12.6727 7.69551 12C7.69551 11.3273 7.72832 10.667 7.78574 10.0312H4.63984ZM16.4729 19.7684C18.2078 18.9768 19.6311 17.6232 20.5088 15.9375H17.81C17.5105 17.41 17.0512 18.7143 16.4729 19.7684ZM9.40996 19.7684C8.83164 18.7184 8.37227 17.41 8.07285 15.9375H5.36992C6.24766 17.6232 7.6709 18.9768 9.40586 19.7684H9.40996ZM12.9414 22.5C10.1566 22.5 7.48592 21.3938 5.51679 19.4246C3.54765 17.4555 2.44141 14.7848 2.44141 12C2.44141 9.21523 3.54765 6.54451 5.51679 4.57538C7.48592 2.60625 10.1566 1.5 12.9414 1.5C15.7262 1.5 18.3969 2.60625 20.366 4.57538C22.3352 6.54451 23.4414 9.21523 23.4414 12C23.4414 14.7848 22.3352 17.4555 20.366 19.4246C18.3969 21.3938 15.7262 22.5 12.9414 22.5Z" fill="#262626"/>
</svg>
