<svg width="25" height="24" viewBox="0 0 25 24" fill="none" xmlns="http://www.w3.org/2000/svg">
<path d="M11.1057 1.5C11.9218 1.5 12.7042 1.82164 13.2803 2.3977L21.7289 10.8467C22.929 12.0468 22.929 13.991 21.7289 15.1912L15.3204 21.5999C14.1204 22.8 12.1762 22.8 10.9761 21.5999L2.52747 13.1509C1.94662 12.5749 1.625 11.7972 1.625 10.9811V3.80426C1.625 2.53212 2.65708 1.5 3.92918 1.5H11.1057ZM3.92918 10.9811C3.92918 11.1827 4.01078 11.3795 4.15479 11.5235L12.6034 19.9725C12.9011 20.2701 13.3907 20.2701 13.6883 19.9725L20.0968 13.5638C20.3944 13.2661 20.3944 12.7765 20.0968 12.4789L11.6482 4.02989C11.5042 3.88587 11.3073 3.80426 11.1057 3.80426H3.92918V10.9811ZM7.00141 5.34044C7.40881 5.34044 7.79953 5.50229 8.08761 5.79037C8.37569 6.07846 8.53753 6.46919 8.53753 6.87661C8.53753 7.28403 8.37569 7.67477 8.08761 7.96285C7.79953 8.25094 7.40881 8.41279 7.00141 8.41279C6.59401 8.41279 6.20329 8.25094 5.91521 7.96285C5.62713 7.67477 5.46529 7.28403 5.46529 6.87661C5.46529 6.46919 5.62713 6.07846 5.91521 5.79037C6.20329 5.50229 6.59401 5.34044 7.00141 5.34044Z" fill="#262626"/>
</svg>
