<svg width="25" height="25" viewBox="0 0 25 25" fill="none" xmlns="http://www.w3.org/2000/svg">
<path d="M4.14258 7.00221C4.14258 5.78755 5.13011 4.79999 6.34473 4.79999H19.5577C20.7723 4.79999 21.7598 5.78755 21.7598 7.00221V18.0133C21.7598 19.228 20.7723 20.2156 19.5577 20.2156H6.34473C5.13011 20.2156 4.14258 19.228 4.14258 18.0133V7.00221ZM15.2841 10.6669C15.1293 10.4398 14.8747 10.3056 14.6028 10.3056C14.331 10.3056 14.0729 10.4398 13.9215 10.6669L10.928 15.0575L10.0161 13.9186C9.85786 13.7224 9.62044 13.6089 9.3727 13.6089C9.12496 13.6089 8.8841 13.7224 8.72926 13.9186L6.5271 16.6714C6.32753 16.9191 6.28968 17.2598 6.42732 17.5454C6.56495 17.831 6.85398 18.0133 7.17054 18.0133H10.4738H11.5749H18.7319C19.0381 18.0133 19.3203 17.8447 19.4613 17.5729C19.6024 17.3011 19.5852 16.9742 19.4132 16.723L15.2841 10.6669ZM7.99635 10.3056C8.43439 10.3056 8.85448 10.1315 9.16422 9.82179C9.47396 9.51204 9.64797 9.09193 9.64797 8.65388C9.64797 8.21583 9.47396 7.79573 9.16422 7.48598C8.85448 7.17623 8.43439 7.00221 7.99635 7.00221C7.55832 7.00221 7.13822 7.17623 6.82848 7.48598C6.51874 7.79573 6.34473 8.21583 6.34473 8.65388C6.34473 9.09193 6.51874 9.51204 6.82848 9.82179C7.13822 10.1315 7.55832 10.3056 7.99635 10.3056Z" fill="#262626"/>
</svg>
