<svg width="24" height="24" viewBox="0 0 24 24" fill="none" xmlns="http://www.w3.org/2000/svg">
<path fill-rule="evenodd" clip-rule="evenodd" d="M7.50011 6C7.50011 3.51472 9.51483 1.5 12.0001 1.5C14.4854 1.5 16.5001 3.51472 16.5001 6V6.75H22.5001L21.5584 18.0526C21.533 18.7269 21.4261 19.3297 21.2317 19.8574L7.50011 6.12584V6ZM9.00011 6V6.75H15.0001V6C15.0001 4.34315 13.657 3 12.0001 3C10.3433 3 9.00011 4.34315 9.00011 6Z" fill="#262626"/>
<path d="M3.83155 6.75L1 3.91845L2.06066 2.85779L21.5607 22.3578L20.5 23.4184L19.1167 22.0352C18.3739 22.3421 17.4511 22.5 16.3334 22.5H7.66685C4.4662 22.5 2.55011 20.925 2.44184 18.0526L1.50011 6.75H3.83155Z" fill="#262626"/>
</svg>
