<svg width="25" height="24" viewBox="0 0 25 24" fill="none" xmlns="http://www.w3.org/2000/svg">
<path d="M17.0378 12.788C16.3653 12.501 15.5861 12.6896 15.1227 13.2555L13.7613 14.9205C11.8749 13.8255 10.3002 12.2508 9.20526 10.3644L10.8661 9.00703C11.432 8.54363 11.6247 7.76447 11.3336 7.09193L9.3652 2.49898C9.05763 1.77723 8.28258 1.37534 7.51573 1.53938L2.92281 2.52358C2.16826 2.68351 1.62695 3.35195 1.62695 4.12701C1.62695 13.6082 8.81159 21.4162 18.0343 22.3963C18.4362 22.4373 18.8381 22.4701 19.2482 22.4865H19.2523C19.5024 22.4947 19.7485 22.5029 19.9986 22.5029C20.7737 22.5029 21.4421 21.9616 21.602 21.2071L22.5862 16.6141C22.7503 15.8472 22.3484 15.0722 21.6266 14.7646L17.0337 12.7962L17.0378 12.788ZM19.7321 20.5304C10.8866 20.3869 3.73887 13.2391 3.59945 4.39357L7.66746 3.52009L9.43081 7.63734L7.95862 8.84299C7.21227 9.45402 7.01953 10.5161 7.50343 11.3527C8.77058 13.5385 10.5913 15.3592 12.7771 16.6264C13.6136 17.1103 14.6758 16.9176 15.2868 16.1712L16.4924 14.699L20.6096 16.4624L19.7321 20.5304Z" fill="#262626"/>
</svg>
