<svg width="24" height="24" viewBox="0 0 24 24" fill="none" xmlns="http://www.w3.org/2000/svg">
<path d="M22.5 2.8125C22.5 7.47187 19.0301 11.3232 14.5348 11.918C14.2436 9.72773 13.2797 7.75078 11.8564 6.20449C13.4273 3.39902 16.4297 1.5 19.875 1.5H21.1875C21.9135 1.5 22.5 2.08652 22.5 2.8125ZM1.5 5.4375C1.5 4.71152 2.08652 4.125 2.8125 4.125H4.125C9.19863 4.125 13.3125 8.23887 13.3125 13.3125V14.625V21.1875C13.3125 21.9135 12.726 22.5 12 22.5C11.274 22.5 10.6875 21.9135 10.6875 21.1875V14.625C5.61387 14.625 1.5 10.5111 1.5 5.4375Z" fill="#262626"/>
</svg>
