<svg width="25" height="24" viewBox="0 0 25 24" fill="none" xmlns="http://www.w3.org/2000/svg">
<path d="M22.0696 8.33454C22.2022 8.69144 22.0903 9.08937 21.8043 9.34372L20.0098 10.9601C20.0554 11.3005 20.0802 11.6492 20.0802 12.0021C20.0802 12.3549 20.0554 12.7036 20.0098 13.0441L21.8043 14.6604C22.0903 14.9147 22.2022 15.3127 22.0696 15.6696C21.8872 16.1577 21.6675 16.6254 21.4147 17.0767L21.2199 17.409C20.9464 17.8602 20.6397 18.2869 20.304 18.6889C20.0595 18.9843 19.6534 19.0827 19.2886 18.9679L16.9802 18.2417C16.4248 18.6643 15.8115 19.0171 15.1567 19.2837L14.6386 21.6262C14.5557 21.9995 14.2656 22.2949 13.8843 22.3564C13.3124 22.4508 12.7239 22.5 12.1229 22.5C11.522 22.5 10.9335 22.4508 10.3615 22.3564C9.98026 22.2949 9.69015 21.9995 9.60726 21.6262L9.08921 19.2837C8.43439 19.0171 7.82101 18.6643 7.26566 18.2417L4.96135 18.972C4.59664 19.0868 4.19049 18.9843 3.94597 18.693C3.61027 18.291 3.30358 17.8643 3.03005 17.4131L2.83526 17.0808C2.58245 16.6295 2.3628 16.1618 2.18044 15.6737C2.04782 15.3168 2.15972 14.9188 2.44569 14.6645L4.24022 13.0482C4.19463 12.7036 4.16977 12.3549 4.16977 12.0021C4.16977 11.6492 4.19463 11.3005 4.24022 10.9601L2.44569 9.34372C2.15972 9.08937 2.04782 8.69144 2.18044 8.33454C2.3628 7.84636 2.58245 7.37869 2.83526 6.92743L3.03005 6.59514C3.30358 6.14388 3.61027 5.71723 3.94597 5.3152C4.19049 5.01983 4.59664 4.92137 4.96135 5.03624L7.2698 5.76236C7.82515 5.33981 8.43853 4.98701 9.09335 4.72036L9.6114 2.37791C9.69429 2.00459 9.9844 1.70922 10.3657 1.64769C10.9376 1.54923 11.5261 1.5 12.1271 1.5C12.728 1.5 13.3165 1.54923 13.8885 1.64358C14.2697 1.70512 14.5599 2.00049 14.6427 2.3738L15.1608 4.71625C15.8156 4.98291 16.429 5.33571 16.9843 5.75825L19.2928 5.03214C19.6575 4.91727 20.0637 5.01983 20.3082 5.3111C20.6439 5.71313 20.9506 6.13977 21.2241 6.59103L21.4189 6.92333C21.6717 7.37458 21.8913 7.84225 22.0737 8.33044L22.0696 8.33454ZM12.1271 15.2839C13.0064 15.2839 13.8497 14.9382 14.4715 14.3227C15.0933 13.7072 15.4426 12.8725 15.4426 12.0021C15.4426 11.1316 15.0933 10.2969 14.4715 9.6814C13.8497 9.06593 13.0064 8.72016 12.1271 8.72016C11.2477 8.72016 10.4044 9.06593 9.78263 9.6814C9.16084 10.2969 8.81153 11.1316 8.81153 12.0021C8.81153 12.8725 9.16084 13.7072 9.78263 14.3227C10.4044 14.9382 11.2477 15.2839 12.1271 15.2839Z" fill="#262626"/>
</svg>
