<svg width="24" height="24" viewBox="0 0 24 24" fill="none" xmlns="http://www.w3.org/2000/svg">
<path d="M10.5976 5.61447C12.0126 8.18984 13.1199 11.1482 14.5864 13.4929C15.5635 15.0568 16.6944 16.3428 18.1663 17.0793C18.6146 17.3035 19.0942 17.4776 19.6134 17.5952C19.5817 17.7238 19.5455 17.8517 19.505 17.9777C18.6398 17.7803 17.8716 17.4302 17.1855 16.9621C16.1099 16.229 15.2336 15.2115 14.4654 14.042C12.9309 11.7029 11.8198 8.74996 10.4471 6.17155C9.53381 4.45184 8.50634 2.90356 7.18067 1.81118C7.05009 1.70275 6.9153 1.59927 6.77785 1.5H7.42847C7.67856 1.70618 7.91796 1.92611 8.14743 2.15978C9.10312 3.13304 9.88967 4.32584 10.5976 5.61447Z" fill="#E90030"/>
<path d="M11.8499 13.6594C12.3986 15.2157 13.0546 16.6299 14.0313 17.7131C14.5899 18.3328 15.2519 18.8464 16.0656 19.2251C16.7632 19.5485 17.5726 19.7734 18.5264 19.8746C18.4237 20.0113 18.3156 20.1446 18.2022 20.2717C17.3447 20.1575 16.5925 19.9414 15.9297 19.6394C14.9449 19.1919 14.1611 18.5535 13.5227 17.7884C12.2455 16.2565 11.5426 14.2287 10.8939 12.1268C10.4616 10.7251 10.0554 9.28909 9.53152 7.94242C8.8328 6.1452 7.92674 4.51407 6.4869 3.31898C5.84392 2.78482 5.09289 2.33504 4.2002 1.99484V1.53284C5.3846 1.96009 6.34754 2.57291 7.13905 3.31593C8.07489 4.19335 8.77209 5.2506 9.33107 6.39415C10.4486 8.68276 11.026 11.3265 11.8499 13.6594Z" fill="#E90030"/>
<path d="M10.189 6.50373C11.4551 9.14896 12.2921 12.1569 13.609 14.5299C14.4864 16.1126 15.5673 17.4054 17.1163 18.1519C17.7276 18.4466 18.4141 18.657 19.1953 18.7654C19.1327 18.8979 19.0659 19.0289 18.9941 19.156C17.8643 18.9789 16.9109 18.5929 16.0973 18.0465C14.9877 17.3012 14.1427 16.2649 13.4417 15.0752C12.0412 12.6957 11.2004 9.6942 9.98932 7.05775C9.18292 5.29947 8.21692 3.70882 6.83436 2.56489C6.32921 2.1468 5.7687 1.78789 5.13794 1.5H6.03789C6.71561 1.89862 7.31049 2.38276 7.83625 2.93105C8.81141 3.94745 9.55481 5.18111 10.189 6.50373Z" fill="#E90030"/>
<path d="M17.7964 8.58884C17.7612 8.71025 17.7234 8.83014 17.6811 8.94736C15.8785 6.94625 14.0148 4.6248 12.2783 2.61338C11.9477 2.22927 11.6208 1.85662 11.3001 1.5H11.3398C11.4773 1.5 11.6113 1.50229 11.7415 1.50573C11.9049 1.68976 12.0706 1.87762 12.2363 2.06891C14.019 4.11316 15.9423 6.51862 17.7964 8.58884Z" fill="#E90030"/>
<path d="M18.0003 7.20016C18.0003 7.22422 17.9999 7.24789 17.9999 7.27156C16.2416 5.46518 14.4062 3.4656 12.7357 1.72069C12.6842 1.66647 12.633 1.61302 12.5815 1.56033C12.7503 1.57751 12.9121 1.59851 13.0675 1.62371C14.6376 3.26667 16.3435 5.12002 17.9873 6.81835C17.9957 6.94473 18.0003 7.07111 18.0003 7.20016Z" fill="#E90030"/>
<path d="M15.5643 12.4582C16.641 14.003 17.8216 15.2794 19.2167 16.0072C19.4061 16.1053 19.5989 16.1943 19.7975 16.2725C19.7929 16.4054 19.7853 16.5387 19.7723 16.6696C19.2415 16.4715 18.7433 16.2038 18.2733 15.8781C17.2313 15.1569 16.3241 14.1569 15.4894 13.0084C13.8216 10.7091 12.4391 7.80382 10.9053 5.28382C10.0206 3.82871 9.08594 2.50418 8.02792 1.5H8.56858C9.4605 2.41025 10.2566 3.52211 11.0073 4.72598C12.5712 7.23262 13.948 10.1417 15.5643 12.4582Z" fill="#E90030"/>
<path d="M11.0027 14.6743C11.4383 16.2531 12.0027 17.6803 12.9519 18.7712C13.4944 19.3966 14.1622 19.9139 15.0152 20.2973C15.7139 20.6111 16.5383 20.8337 17.5199 20.9433C17.3588 21.0808 17.1893 21.2098 17.0106 21.3309C15.5356 21.1037 14.3928 20.61 13.499 19.9124C12.2799 18.9617 11.5361 17.6501 11.005 16.1851C10.6506 15.2073 10.3895 14.1584 10.1436 13.0893C9.81674 11.6632 9.51701 10.2005 9.07372 8.82595C8.48152 6.99093 7.63732 5.31971 6.13983 4.07269C5.59001 3.61489 4.95123 3.21245 4.2002 2.87989V2.38773C5.25287 2.82911 6.11234 3.40145 6.81832 4.07116C7.78432 4.98715 8.46129 6.08105 8.97063 7.25896C9.98818 9.61364 10.3475 12.3074 11.0027 14.6743Z" fill="#E90030"/>
<path d="M17.187 9.99393C17.1236 10.1001 17.0575 10.1997 16.9903 10.2944C15.2401 8.18907 13.504 5.67938 11.8209 3.50493C11.2699 2.79131 10.7236 2.11435 10.1856 1.5H10.6396C11.0325 1.95818 11.428 2.44576 11.827 2.95282C13.5792 5.18684 15.3821 7.81145 17.187 9.99393Z" fill="#E90030"/>
<path d="M15.2302 2.36825C15.8327 2.94404 16.4459 3.53165 17.0598 4.11545C17.237 4.38044 17.3924 4.66069 17.5234 4.95584C16.4718 3.95776 15.4069 2.93678 14.3886 1.96467C14.6952 2.08036 14.9743 2.21553 15.2302 2.36825Z" fill="#E90030"/>
<path d="M6.10509 22.1804C5.47852 21.5871 4.83898 20.9727 4.2002 20.3557V19.9544C5.09785 20.8208 5.99856 21.686 6.86529 22.5H6.44376C6.3315 22.3942 6.21849 22.2877 6.10509 22.1804Z" fill="#E90030"/>
<path d="M4.2002 17.1313V16.6204C5.65225 18.3787 7.14974 20.2282 8.59225 21.8017C8.81141 22.0414 9.0302 22.2751 9.2463 22.5H8.7969C8.74421 22.4443 8.69152 22.3877 8.63845 22.3312C7.18143 20.7711 5.6679 18.9128 4.2002 17.1313Z" fill="#E90030"/>
<path d="M5.07418 22.5C4.78476 22.2499 4.49267 21.9964 4.2002 21.7421V21.382C4.6328 21.7585 5.0631 22.1323 5.48807 22.5H5.07418Z" fill="#E90030"/>
<path d="M5.47699 11.9229C7.00083 14.4039 8.32765 17.2794 9.90341 19.568C10.7129 20.7455 11.5869 21.7642 12.5784 22.4989C12.5166 22.4992 12.4536 22.5 12.3906 22.5H11.9664C11.1802 21.8437 10.4761 21.0254 9.82094 20.1121C8.19287 17.8388 6.86032 14.9675 5.3678 12.4754C4.99094 11.845 4.60378 11.2402 4.2002 10.6751V10.034C4.64654 10.6232 5.06883 11.2589 5.47699 11.9229Z" fill="#E90030"/>
<path d="M7.67512 22.5C6.5457 21.3576 5.3636 20.0896 4.2002 18.833V18.3806C5.51021 19.796 6.84658 21.2354 8.10772 22.5H7.67512Z" fill="#E90030"/>
<path d="M19.3611 14.7938C18.3534 14.0855 17.4142 13.1031 16.5127 11.9721C14.7113 9.71214 13.0588 6.855 11.3631 4.39533C10.6281 3.32738 9.88509 2.33504 9.12221 1.5H9.6075C10.2245 2.20255 10.8247 2.99558 11.4166 3.83902C13.1294 6.27769 14.7758 9.13865 16.5425 11.4246C17.5199 12.6922 18.5352 13.7793 19.6062 14.5238C19.6482 14.6895 19.6841 14.8575 19.7119 15.0274C19.594 14.9537 19.4775 14.8755 19.3611 14.7938Z" fill="#E90030"/>
<path d="M7.42312 10.1027C8.66976 12.7346 9.48151 15.7254 10.7778 18.085C11.6422 19.6585 12.7117 20.9433 14.2535 21.6844C14.6036 21.8532 14.9789 21.9941 15.3829 22.1041C15.145 22.1781 14.8934 22.2427 14.6284 22.2965C14.1225 22.1063 13.6617 21.8666 13.2394 21.5817C12.1351 20.841 11.299 19.8097 10.6079 18.6268C9.22683 16.2603 8.41089 13.2753 7.22 10.6526C6.44796 8.94813 5.52052 7.40138 4.2002 6.26891V5.73093C4.51978 5.98255 4.81721 6.25555 5.09594 6.54611C6.06461 7.55831 6.79961 8.78662 7.42312 10.1027Z" fill="#E90030"/>
<path d="M6.45025 11.0122C7.83549 13.5681 8.90496 16.502 10.3402 18.8258C11.2974 20.3759 12.4104 21.6482 13.872 22.379C13.893 22.3893 13.9137 22.3996 13.9343 22.4095C13.7071 22.4378 13.4707 22.4603 13.2237 22.4756C13.1122 22.408 13.0042 22.3385 12.8969 22.2656C11.8305 21.5386 10.9675 20.5294 10.2146 19.3699C8.70947 17.0503 7.63541 14.1221 6.2937 11.564C5.67325 10.3799 4.9959 9.27649 4.2002 8.34905V7.75304C5.07341 8.68773 5.79772 9.80836 6.45025 11.0122Z" fill="#E90030"/>
<path d="M4.50412 12.8347C6.16579 15.2409 7.75034 18.0595 9.46547 20.3118C10.0905 21.1327 10.7331 21.8776 11.4001 22.5H10.8782C10.3792 22.0059 9.89769 21.4504 9.42729 20.8525C7.6755 18.6253 6.08638 15.8105 4.44189 13.3841C4.36667 13.2731 4.29044 13.1624 4.2151 13.0529L4.2002 13.0313V12.4013C4.30138 12.5445 4.40256 12.6892 4.50412 12.8347Z" fill="#E90030"/>
<path d="M10.4429 15.4429C10.9847 16.9946 11.635 18.4039 12.6071 19.484C13.1622 20.1018 13.8216 20.6142 14.6345 20.9911C15.2107 21.2587 15.8655 21.4584 16.6146 21.5771C16.41 21.6917 16.1943 21.7982 15.9644 21.8937C15.4318 21.7726 14.9442 21.6092 14.4986 21.4061C13.5154 20.959 12.7335 20.3225 12.0981 19.56C10.8278 18.032 10.1336 16.0091 9.49296 13.9137C9.06723 12.5155 8.66556 11.0833 8.14667 9.73964C7.4552 7.94815 6.55487 6.32045 5.11885 5.12765C4.83478 4.89169 4.52932 4.67176 4.2002 4.47131V3.96845C4.78858 4.30216 5.30861 4.69047 5.77023 5.12384C6.70339 5.99973 7.3964 7.05469 7.95194 8.19556C9.06189 10.4788 9.6285 13.1161 10.4429 15.4429Z" fill="#E90030"/>
<path d="M10.3238 22.5C9.89234 22.0563 9.45974 21.5718 9.02867 21.056C7.40289 19.1156 5.78665 16.7544 4.2002 14.63V15.2061C5.7794 17.3413 7.39563 19.686 9.03287 21.5928C9.30434 21.9082 9.57619 22.2113 9.84843 22.5H10.3238Z" fill="#E90030"/>
</svg>
