<svg width="24" height="24" viewBox="0 0 24 24" fill="none" xmlns="http://www.w3.org/2000/svg">
<path fill-rule="evenodd" clip-rule="evenodd" d="M15 6V9.75H9V6C9 4.34315 10.3431 3 12 3C13.6569 3 15 4.34315 15 6ZM7.5 9.75V6C7.5 3.51472 9.51472 1.5 12 1.5C14.4853 1.5 16.5 3.51472 16.5 6V9.75H18.75C19.5784 9.75 20.25 10.4216 20.25 11.25V21C20.25 21.8284 19.5784 22.5 18.75 22.5H5.25C4.42157 22.5 3.75 21.8284 3.75 21V11.25C3.75 10.4216 4.42157 9.75 5.25 9.75H7.5ZM16.5 11.25H7.5H5.25L5.25 21H18.75V11.25H16.5Z" fill="#262626"/>
</svg>
