<svg width="281" height="44" viewBox="0 0 281 44" fill="none" xmlns="http://www.w3.org/2000/svg">
<path d="M18.886 30.1051C18.379 30.2869 17.8464 30.3794 17.31 30.3791C15.589 30.3791 14.7607 29.4403 14.0065 28.0404C13.8139 27.586 13.6837 27.1058 13.6198 26.6138V18.893H19.985L19.6627 15.816C19.5835 15.0823 19.2468 14.4045 18.7167 13.9116C18.1865 13.4187 17.5 13.1452 16.7879 13.1432H13.6198V3.61156C13.6198 3.61156 11.7151 3.74186 11.0802 3.79197C7.81866 4.05925 5.62067 6.30435 5.62067 8.93366V13.3704L0 13.5775V15.7959C0 16.6146 0.313744 17.3998 0.872213 17.9788C1.43068 18.5577 2.18813 18.8829 2.97792 18.8829H5.63356V26.7842L5.66901 27.9368C5.67742 29.5305 6.0966 31.0929 6.88316 32.4621C7.66972 33.8314 8.79507 34.9579 10.1427 35.7248C11.4903 36.4918 13.0112 36.8714 14.5478 36.8244C16.0845 36.7773 17.5811 36.3054 18.8827 35.4573L18.886 30.1051Z" fill="#FF5A00"/>
<path d="M60.6606 34.5452C58.9976 33.1954 58.1661 31.3089 58.1661 28.8856C58.1661 26.3688 58.9676 24.4355 60.5704 23.0858C62.1732 21.736 64.4722 21.0612 67.4673 21.0612C68.6464 21.0618 69.822 21.194 70.9738 21.4554C72.0149 21.6758 73.0258 22.0281 73.9839 22.5045V22.0401C73.9839 19.648 72.0964 18.4519 68.3214 18.4519C65.6851 18.4519 64.0704 18.6223 61.8756 19.678C61.8756 19.678 61.5791 17.4162 61.505 16.6511C61.3471 14.954 62.6362 13.6811 64.8052 13.2668H64.8503C66.4521 12.9689 68.0766 12.8213 69.704 12.8258C73.7197 12.8258 76.7535 13.6566 78.8053 15.3181C80.8572 16.9797 81.8864 19.2949 81.8928 22.2639V32.4905C81.8928 35.23 80.9679 35.8682 78.7828 35.8682H74.6833L74.477 33.9572C73.5986 34.8085 72.5578 35.4595 71.4218 35.8682C70.0681 36.356 68.6425 36.5946 67.2095 36.5731C64.5152 36.5731 62.3365 35.8971 60.6735 34.5452H60.6606ZM72.1405 30.9503C72.8708 30.6273 73.5049 30.1084 73.9775 29.4469V27.4891C72.6744 26.5891 71.1374 26.1228 69.5718 26.1527C68.5244 26.1527 67.7155 26.3833 67.145 26.851C66.857 27.0984 66.6295 27.4129 66.481 27.7688C66.3326 28.1247 66.2675 28.512 66.291 28.899C66.2725 29.27 66.3381 29.6403 66.4824 29.9802C66.6268 30.3202 66.846 30.6204 67.1225 30.8568C67.6768 31.3201 68.4782 31.5528 69.5267 31.555C70.4303 31.5552 71.3227 31.3487 72.1405 30.9503Z" fill="#FF5A00"/>
<path d="M116.671 34.5452C115.008 33.1954 114.176 31.3089 114.176 28.8856C114.176 26.3688 114.978 24.4355 116.581 23.0858C118.183 21.736 120.482 21.0612 123.477 21.0612C124.657 21.0618 125.832 21.194 126.984 21.4554C128.025 21.6748 129.036 22.0271 129.994 22.5045V22.0401C129.994 19.648 128.107 18.4519 124.332 18.4519C121.695 18.4519 120.084 18.6223 117.886 19.678C117.886 19.678 117.589 17.4162 117.518 16.6512C117.357 14.954 118.65 13.6811 120.815 13.2668H120.864C122.466 12.9687 124.09 12.8211 125.717 12.8258C129.731 12.8258 132.764 13.6566 134.815 15.3181C136.867 16.9797 137.897 19.2949 137.903 22.2639V32.4905C137.903 35.2301 136.981 35.8682 134.793 35.8682H130.7L130.494 33.9572C129.614 34.8085 128.572 35.4595 127.435 35.8682C126.078 36.3551 124.649 36.5914 123.213 36.5664C120.515 36.5664 118.335 35.8904 116.674 34.5385L116.671 34.5452ZM128.154 30.9503C128.887 30.6256 129.522 30.103 129.994 29.4369V27.4791C128.692 26.5791 127.156 26.1129 125.592 26.1427C124.541 26.1427 123.732 26.3733 123.165 26.841C122.876 27.0878 122.648 27.4022 122.5 27.7583C122.351 28.1144 122.287 28.5019 122.311 28.889C122.292 29.2599 122.358 29.6302 122.502 29.9702C122.647 30.3102 122.866 30.6104 123.142 30.8468C123.697 31.3111 124.496 31.545 125.547 31.545C126.447 31.5473 127.337 31.3443 128.154 30.9503Z" fill="#FF5A00"/>
<path d="M23.1949 34.5452C21.5319 33.1954 20.7004 31.3089 20.7004 28.8856C20.7004 26.3688 21.5018 24.4355 23.1047 23.0858C24.7075 21.736 27.0065 21.0612 30.0016 21.0612C31.1807 21.0618 32.3563 21.194 33.5081 21.4554C34.5491 21.6758 35.5601 22.0281 36.5182 22.5045V22.0401C36.5182 19.648 34.6307 18.4519 30.8556 18.4519C28.2193 18.4519 26.6047 18.6223 24.4099 19.678C24.4099 19.678 24.1134 17.4162 24.0393 16.6512C23.8814 14.954 25.1705 13.6811 27.3395 13.2668H27.3846C28.9864 12.9687 30.6109 12.8211 32.2382 12.8258C36.2539 12.8258 39.2877 13.6566 41.3396 15.3181C43.3915 16.9797 44.4207 19.2949 44.4271 22.2639V32.4905C44.4271 35.23 43.5021 35.8682 41.317 35.8682H37.2176L37.0113 33.9572C36.1329 34.8085 35.0921 35.4595 33.956 35.8682C32.5979 36.3553 31.1678 36.5916 29.7309 36.5664C27.0366 36.5664 24.8579 35.8904 23.1949 34.5385V34.5452ZM34.6747 30.9503C35.4086 30.6256 36.0451 30.103 36.5182 29.4369V27.4791C35.2152 26.5791 33.6781 26.1128 32.1126 26.1427C31.0651 26.1427 30.2562 26.3733 29.6857 26.841C29.3977 27.0884 29.1702 27.4029 29.0217 27.7588C28.8733 28.1147 28.8082 28.502 28.8317 28.889C28.8132 29.2599 28.8788 29.6302 29.0232 29.9702C29.1676 30.3102 29.3867 30.6104 29.6632 30.8468C30.2175 31.31 31.0189 31.5428 32.0674 31.545C32.9671 31.5515 33.8572 31.3531 34.6747 30.9637" fill="#FF5A00"/>
<path d="M55.43 35.8748V2.09135C55.43 2.09135 53.5478 2.22164 52.9194 2.2751C49.6965 2.53569 47.5308 4.76075 47.5308 7.36333V35.8748H55.43Z" fill="#FF5A00"/>
<path d="M110.367 18.5222C109.444 16.7456 108.048 15.2819 106.345 14.3059C104.501 13.2827 102.434 12.7695 100.344 12.8158C98.9472 12.8066 97.5583 13.0322 96.2314 13.484C95.0403 13.8724 93.9336 14.4977 92.9731 15.3249V2.08813C92.9731 2.08813 91.0845 2.21509 90.4561 2.26855C87.2332 2.52914 85.0513 4.75419 85.0513 7.35677V35.8682H92.4833L92.6927 33.6332C94.6974 35.5865 97.2434 36.5643 100.331 36.5665C102.411 36.6083 104.468 36.1038 106.309 35.0998C108.021 34.1527 109.43 32.7113 110.367 30.9504C111.354 29.0395 111.849 26.8968 111.804 24.7296C111.842 22.5642 111.347 20.4246 110.367 18.5121V18.5222ZM102.187 28.7587C101.197 29.7388 99.8937 30.2288 98.278 30.2288C97.137 30.2411 96.0172 29.9091 95.0551 29.2732C94.1166 28.6626 93.3915 27.7564 92.986 26.6874V22.7384C93.3915 21.6694 94.1166 20.7632 95.0551 20.1525C96.0166 19.5153 97.1368 19.1832 98.278 19.197C99.8958 19.197 101.199 19.6937 102.187 20.6871C103.176 21.6804 103.67 23.0313 103.67 24.7396C103.67 26.4502 103.176 27.7932 102.187 28.7688" fill="#FF5A00"/>
<path d="M157.405 30.1051C156.898 30.2869 156.365 30.3794 155.829 30.3791C154.111 30.3791 153.279 29.4403 152.525 28.0404C152.332 27.586 152.202 27.1058 152.138 26.6138V18.893H158.504L158.181 15.816C158.102 15.0817 157.765 14.4035 157.234 13.9105C156.703 13.4175 156.016 13.1444 155.303 13.1432H152.151V3.61156C152.151 3.61156 150.247 3.74186 149.612 3.79197C146.353 4.05925 144.152 6.30435 144.152 8.93366V13.3704L138.519 13.5775V15.7959C138.519 16.6146 138.832 17.3998 139.391 17.9788C139.949 18.5577 140.707 18.8829 141.497 18.8829H144.152V26.7842L144.188 27.9368C144.196 29.5305 144.615 31.0929 145.402 32.4621C146.188 33.8314 147.314 34.9579 148.661 35.7248C150.009 36.4918 151.53 36.8714 153.066 36.8244C154.603 36.7773 156.1 36.3054 157.401 35.4573L157.405 30.1051Z" fill="#FF5A00"/>
<path d="M217.988 25.5314C216.946 25.4874 215.917 25.7855 215.049 26.3833C214.65 26.6864 214.314 27.0699 214.061 27.5108C213.809 27.9517 213.645 28.4409 213.579 28.9492C213.398 30.0483 213.63 30.9303 214.265 31.5751C214.9 32.2199 215.79 32.4905 217.014 32.4905C218.046 32.488 219.065 32.2603 220.005 31.8224C220.906 31.4285 221.708 30.8276 222.352 30.065L222.461 29.9281L222.89 27.3221L222.596 27.0816C221.278 26.0299 219.65 25.4823 217.988 25.5314Z" fill="#FF5A00"/>
<path d="M167.795 0L160.418 44H273.096L280.418 0H167.795ZM205.825 20.2594L203.288 35.6811H196.933L199.321 21.1581C199.44 20.4364 199.495 19.6179 199.025 19.0399C198.554 18.462 197.761 18.3918 197.117 18.3918C195.439 18.4191 193.839 19.1296 192.663 20.3696L192.569 20.4565C192.26 20.7806 192.062 21.2007 192.005 21.6525L189.701 35.6844H183.342L185.73 21.1614C185.849 20.4398 185.908 19.6213 185.437 19.0433C184.966 18.4653 184.17 18.3951 183.529 18.3951C181.851 18.4214 180.251 19.132 179.075 20.373L178.978 20.4632C178.668 20.785 178.47 21.2045 178.414 21.6559L176.11 35.6878H169.751L172.887 16.6211C173.209 14.6867 174.918 13.1131 176.709 13.1131H178.695L178.398 15.2647L179.523 14.6166C181.531 13.4539 183.79 12.7857 185.721 12.7857C188.383 12.7857 190.281 13.5341 191.367 15.0108L191.725 15.4986L192.218 15.1645C194.796 13.4105 197.568 12.7857 199.308 12.7857C201.845 12.7857 203.759 13.494 204.848 14.8304C205.876 16.1033 206.208 17.9207 205.825 20.2594ZM230.457 22.0401L228.701 32.7311C228.285 35.2601 227.528 35.7112 225.607 35.7112H222.145L222.316 32.868L221.178 33.8703C220.224 34.6949 219.131 35.3312 217.956 35.7479C216.612 36.2226 215.201 36.4565 213.782 36.4395C211.242 36.4395 209.27 35.788 207.965 34.5018C206.66 33.2155 206.231 31.4949 206.611 29.1763C207.017 26.7007 208.055 24.8565 209.782 23.5368C211.51 22.2172 213.846 21.5323 216.718 21.5323C217.841 21.5325 218.96 21.6659 220.054 21.9298C220.993 22.1408 221.899 22.4872 222.745 22.9588L223.531 23.4199L223.763 22.01C223.957 20.8374 223.744 19.8651 223.138 19.1168C222.248 18.0243 220.579 17.4931 218.039 17.4931C215.642 17.4931 214.011 17.6434 212.006 18.4319C212.035 17.6969 212.077 16.7614 212.109 16.3204C212.216 14.8905 213.515 13.7646 215.503 13.3804H215.561C217.162 13.0795 218.785 12.9285 220.411 12.9294C224.279 12.9294 227.08 13.7479 228.736 15.3582C230.393 16.9686 230.931 19.1301 230.457 22.0401ZM250.287 15.5186C250.118 16.477 249.755 17.3877 249.224 18.1913L248.702 19.0466L247.69 18.5889H247.654C246.922 18.3637 246.162 18.2456 245.398 18.2381C243.31 18.2381 241.908 19.2571 240.706 20.3629L240.622 20.4331C240.307 20.7391 240.107 21.1511 240.058 21.5957L237.744 35.6777H231.369L234.476 16.7013C234.798 14.6667 236.613 13.0263 238.495 13.0263H240.132L240.3 15.0709L241.163 14.5798C243.232 13.4109 245.538 12.7631 247.893 12.6888C248.537 12.6888 249.424 12.8191 249.926 13.4372C250.429 14.0553 250.387 14.9139 250.287 15.5186ZM270.314 17.1089H264.226L262.805 25.7686V25.812C262.775 26.4035 262.84 26.996 262.995 27.566C263.491 28.9759 264.304 30.4358 266.521 30.4358C266.805 30.4356 267.088 30.4121 267.369 30.3657L266.659 34.6788C265.347 35.4441 263.869 35.8543 262.363 35.8715C261.401 35.895 260.446 35.6975 259.566 35.2932C258.686 34.8888 257.904 34.2877 257.275 33.5329C255.947 31.9125 255.425 29.7109 255.802 27.3355L255.966 26.1127L257.449 17.0922H254.01C253.737 17.0985 253.466 17.0419 253.217 16.9263C252.968 16.8107 252.746 16.6392 252.569 16.424C252.379 16.1772 252.243 15.8902 252.171 15.5831C252.099 15.276 252.093 14.9564 252.153 14.6466L252.637 12.6421L258.17 12.5986L258.883 8.66636C259.292 6.15065 261.751 4.11936 264.706 3.88884L266.495 3.7552L265.892 7.43022L264.893 12.7122H268.848C269.125 12.6969 269.402 12.7402 269.663 12.8396C269.923 12.939 270.161 13.0923 270.363 13.2902C270.504 13.4525 270.611 13.6436 270.678 13.8512C270.745 14.0588 270.769 14.2784 270.749 14.4963L270.314 17.1089Z" fill="#FF5A00"/>
</svg>
