<svg width="29" height="44" viewBox="0 0 29 44" fill="none" xmlns="http://www.w3.org/2000/svg">
<path fill-rule="evenodd" clip-rule="evenodd" d="M25.4529 34.1947C24.8105 34.421 24.1344 34.537 23.454 34.5356C21.2706 34.5356 20.2183 33.3786 19.2646 31.6404C18.9434 31.0888 18.773 29.8795 18.773 29.8795V20.3551H26.8474L26.4108 16.5589C26.2023 14.6877 24.6358 13.2704 22.7694 13.2634H18.773V1.49152C18.773 1.49152 16.3557 1.65418 15.5472 1.71217C11.4141 2.03889 8.62076 4.81672 8.62076 8.0613L8.63907 13.5378L1.49152 13.8065V16.5461C1.49152 18.6493 3.18191 20.3551 5.26955 20.3551H8.63907V30.11L8.6926 31.5315C8.71514 35.5384 10.8887 39.2186 14.3695 41.1464C17.8531 43.0742 22.0988 42.9483 25.4613 40.8154L25.4529 34.1961V34.1947Z" fill="#FF5A00"/>
</svg>
