<svg width="183" height="44" viewBox="0 0 183 44" fill="none" xmlns="http://www.w3.org/2000/svg">
<path fill-rule="evenodd" clip-rule="evenodd" d="M24.0177 33.382C23.4442 33.5817 22.8406 33.684 22.2332 33.6828C20.284 33.6828 19.3446 32.6621 18.4933 31.1286C18.2066 30.642 18.0544 29.5751 18.0544 29.5751V21.1727H25.2626L24.8728 17.8237C24.6867 16.1729 23.2883 14.9227 21.622 14.9164H18.0544V4.53134C18.0544 4.53134 15.8964 4.67484 15.1746 4.72599C11.485 5.01423 8.99128 7.46483 8.99128 10.3272L9.00763 15.1585L2.62686 15.3956V17.8125C2.62686 19.6679 4.13591 21.1727 5.99959 21.1727H9.00763V29.7785L9.05542 31.0325C9.07554 34.5674 11.0159 37.8141 14.1233 39.5148C17.2332 41.2155 21.0234 41.1044 24.0252 39.2228L24.0177 33.3833V33.382ZM69.5369 38.4754C67.6858 36.9856 66.7602 34.9068 66.7615 32.2366C66.7615 29.4641 67.6544 27.3329 69.4401 25.8443C71.227 24.3558 73.7861 23.6108 77.1161 23.6096C78.4277 23.6121 79.7356 23.7581 81.017 24.0463C82.1765 24.2896 83.302 24.6777 84.3696 25.2017V24.6889C84.3696 22.0524 82.2695 20.7335 78.0681 20.7335C75.1342 20.7335 73.3384 20.9307 70.9051 22.0861C70.9051 22.0861 70.5744 19.5943 70.4939 18.7446C70.3153 16.8729 71.7539 15.473 74.1659 15.0113L74.2162 15.0013C75.9994 14.6719 77.8078 14.5084 79.6186 14.5147C84.0841 14.5147 87.4606 15.4305 89.7456 17.2647C92.0306 19.0989 93.1724 21.6581 93.1699 24.9422V36.212C93.1699 39.2315 92.1437 39.9365 89.7091 39.9365H85.1468L84.9116 37.839C83.9345 38.7774 82.7763 39.4948 81.5125 39.944C80.0022 40.4806 78.4101 40.7426 76.8118 40.7139C73.81 40.7139 71.3855 39.969 69.5382 38.4804M82.316 34.525C83.1334 34.1669 83.8402 33.5917 84.3658 32.8567V30.6944C82.9184 29.6974 81.2081 29.1771 79.4639 29.2045C78.2982 29.2045 77.3978 29.4616 76.764 29.9757C76.1302 30.4885 75.8108 31.2421 75.807 32.2354C75.807 33.1525 76.1151 33.8737 76.7326 34.3977C77.3513 34.9218 78.2441 35.1788 79.4124 35.1676C80.4146 35.1751 81.4056 34.9555 82.3148 34.525M133.672 38.4704C131.82 36.9806 130.895 34.9018 130.896 32.2316C130.896 29.4566 131.789 27.3242 133.576 25.8356C135.362 24.347 137.921 23.6021 141.252 23.6009C142.564 23.6021 143.871 23.7493 145.153 24.0376C146.312 24.2809 147.438 24.6689 148.506 25.193V24.6802C148.506 22.0424 146.405 20.7248 142.204 20.7248C139.269 20.7248 137.473 20.9207 135.039 22.0773C135.039 22.0773 134.709 19.5843 134.629 18.7346C134.451 16.8617 135.889 15.4617 138.301 14.9988L138.351 14.9901C140.134 14.6644 141.941 14.5047 143.752 14.5134C148.219 14.5134 151.594 15.4318 153.878 17.266C156.163 19.1002 157.305 21.6606 157.305 24.9447V36.2182C157.305 39.2403 156.277 39.944 153.844 39.944H149.28L149.05 37.8378C148.073 38.7774 146.913 39.4948 145.648 39.944C144.139 40.4806 142.547 40.7426 140.949 40.7139C137.948 40.7139 135.524 39.969 133.675 38.4791M146.452 34.5238C147.269 34.1656 147.979 33.5892 148.506 32.8542V30.6919C147.057 29.6937 145.347 29.1746 143.602 29.2021C142.435 29.2021 141.535 29.4591 140.901 29.9719C140.269 30.486 139.949 31.2396 139.945 32.2329C139.945 33.15 140.252 33.8712 140.87 34.3952C141.486 34.9193 142.379 35.1763 143.548 35.1663C144.551 35.1738 145.54 34.9542 146.449 34.5238M28.038 38.4829C26.1882 36.9931 25.2626 34.9143 25.2626 32.2441C25.2626 29.4678 26.1555 27.3367 27.9412 25.8481C29.7282 24.3582 32.2873 23.6146 35.6172 23.6121C36.9288 23.6146 38.2367 23.7618 39.5181 24.0488C40.6776 24.2921 41.8031 24.6802 42.8707 25.2042V24.6926C42.8707 22.0549 40.7706 20.736 36.5692 20.736C33.6353 20.736 31.8396 20.9331 29.4062 22.0886C29.4062 22.0886 29.0755 19.5955 28.995 18.7458C28.8164 16.8729 30.2551 15.473 32.667 15.0113L32.7173 15.0013C34.5005 14.6719 36.3089 14.5084 38.1197 14.5147C42.5853 14.5147 45.9605 15.4305 48.2442 17.266C50.5292 19.1002 51.671 21.6606 51.671 24.9447V36.2182C51.671 39.2403 50.6436 39.944 48.2102 39.944H43.6479L43.4165 37.8378C42.4394 38.7774 41.2812 39.4948 40.0161 39.944C38.5058 40.4806 36.915 40.7426 35.3167 40.7139C32.3149 40.7139 29.8904 39.969 28.043 38.4791M40.8209 34.5238C41.6383 34.1656 42.3463 33.5879 42.8707 32.8542V30.6919C41.4233 29.6937 39.713 29.1746 37.9701 29.2021C36.8018 29.2021 35.9014 29.4578 35.2689 29.9719C34.6363 30.486 34.3169 31.2396 34.3119 32.2329C34.3119 33.15 34.62 33.8712 35.2362 34.3952C35.8549 34.9093 36.7452 35.1663 37.9148 35.1663C38.917 35.1738 39.908 34.9542 40.8172 34.5238M64.2464 39.4686L64.2389 3.28358C64.2389 3.28358 62.1426 3.42333 61.4434 3.47449C57.8707 3.75773 55.4436 6.14844 55.4436 8.92845V39.4686H64.2464ZM126.765 21.1178C125.725 19.1888 124.148 17.6004 122.224 16.5423C120.283 15.4642 118.024 14.9239 115.451 14.9239C113.874 14.9165 112.307 15.1648 110.811 15.6576C109.46 16.0756 108.208 16.7544 107.121 17.6553L107.146 3.28358C107.146 3.28358 105.013 3.42458 104.304 3.47699C100.659 3.76148 98.2001 6.18712 98.2001 9.00332V39.9577H106.59L106.827 37.5309C109.09 39.652 111.966 40.7151 115.451 40.7164C117.989 40.7164 120.238 40.1848 122.199 39.123C124.126 38.0948 125.713 36.5302 126.765 34.6211C127.843 32.6846 128.381 30.4323 128.381 27.8657C128.381 25.3377 127.84 23.0868 126.759 21.1153M117.525 32.2404C116.409 33.3034 114.938 33.835 113.111 33.8337C111.818 33.8512 110.548 33.4906 109.456 32.7981C108.4 32.1343 107.583 31.1511 107.126 29.9906V25.6959C107.583 24.5354 108.399 23.5534 109.456 22.8884C110.547 22.1959 111.818 21.8353 113.111 21.8527C114.937 21.8527 116.408 22.3918 117.525 23.4698C118.641 24.5492 119.202 26.0153 119.206 27.8657C119.206 29.7224 118.648 31.181 117.534 32.2404M178.695 33.3796C178.122 33.5792 177.52 33.6815 176.912 33.6815C174.964 33.6815 174.024 32.6608 173.172 31.1261C172.887 30.6407 172.735 29.5739 172.735 29.5739V21.1727H179.94L179.561 17.8287C179.377 16.1717 177.972 14.9177 176.301 14.9164H172.735V4.53134C172.735 4.53134 170.577 4.67484 169.856 4.72599C166.168 5.01423 163.666 7.46483 163.666 10.3272L163.683 15.1573L157.305 15.3943V17.8113C157.305 19.6679 158.814 21.1727 160.675 21.1727H163.683V29.7773L163.723 31.0338C163.743 34.5674 165.682 37.8141 168.791 39.5148C171.897 41.2155 175.686 41.1044 178.688 39.2228L178.695 33.3808V33.3796Z" fill="#FF5A00"/>
</svg>
