<svg width="24" height="24" viewBox="0 0 24 24" fill="none" xmlns="http://www.w3.org/2000/svg">
<path d="M14.2468 3.75H9.74791V5.25H14.2468V3.75Z" fill="#262626"/>
<path fill-rule="evenodd" clip-rule="evenodd" d="M22.5 17.25C22.4993 16.8003 22.4616 16.2929 22.3789 15.75C21.8177 12.0669 19.1857 6.75 11.9978 6.75C4.92706 6.75 2.21134 12.0669 1.63025 15.75C1.5446 16.2929 1.50532 16.8003 1.50532 17.25H22.5ZM3.15115 15.75H20.8595C20.629 14.4365 20.0969 12.9009 19.1278 11.571C17.8057 9.75653 15.6248 8.25 11.9978 8.25C8.445 8.25 6.25978 9.75097 4.91709 11.5764C3.93687 12.9091 3.3896 14.4433 3.15115 15.75Z" fill="#262626"/>
<path d="M1.5 18.75H22.4947V20.25H1.5V18.75Z" fill="#262626"/>
</svg>
