<svg width="25" height="24" viewBox="0 0 25 24" fill="none" xmlns="http://www.w3.org/2000/svg">
<path d="M8.34766 1.5C6.8998 1.5 5.72266 2.67715 5.72266 4.125V19.875C5.72266 21.3229 6.8998 22.5 8.34766 22.5H17.5352C18.983 22.5 20.1602 21.3229 20.1602 19.875V4.125C20.1602 2.67715 18.983 1.5 17.5352 1.5H8.34766ZM11.6289 19.2188H14.2539C14.6148 19.2188 14.9102 19.5141 14.9102 19.875C14.9102 20.2359 14.6148 20.5312 14.2539 20.5312H11.6289C11.268 20.5312 10.9727 20.2359 10.9727 19.875C10.9727 19.5141 11.268 19.2188 11.6289 19.2188Z" fill="#262626"/>
</svg>
