<svg width="24" height="24" viewBox="0 0 24 24" fill="none" xmlns="http://www.w3.org/2000/svg">
<path d="M17.2381 8.26196C18.0653 8.26196 18.736 7.59152 18.736 6.7645C18.736 5.93747 18.0653 5.26703 17.2381 5.26703C16.4108 5.26703 15.7402 5.93747 15.7402 6.7645C15.7402 7.59152 16.4108 8.26196 17.2381 8.26196Z" fill="#262626"/>
<path fill-rule="evenodd" clip-rule="evenodd" d="M20.2569 1.50001C21.4978 1.50001 22.5037 2.50566 22.5037 3.7462L22.5037 10.7308C22.5037 11.3266 22.267 11.8979 21.8457 12.3192L20.9231 13.2415L18.8797 20.8367C18.5574 22.0346 17.3247 22.7446 16.1264 22.4223L12.6696 21.4928L12.322 21.8404C11.4446 22.7176 10.022 22.7176 9.14454 21.8404L2.15807 14.8557C1.28064 13.9785 1.28064 12.5563 2.15807 11.6791L11.6818 2.1579C12.1031 1.73665 12.6746 1.5 13.2705 1.5L20.2569 1.50001ZM21.0059 3.74621C21.0059 3.33269 20.6706 2.99747 20.2569 2.99747L13.2705 2.99747C13.0719 2.99747 12.8814 3.07635 12.7409 3.21677L3.21722 12.738C2.92474 13.0304 2.92474 13.5044 3.21722 13.7968L10.2037 20.7815C10.4962 21.0739 10.9704 21.0739 11.2628 20.7815L20.7865 11.2603C20.927 11.1199 21.0059 10.9294 21.0059 10.7308L21.0059 3.74621ZM13.8919 20.2708L18.8013 15.3627L17.4332 20.4477C17.3258 20.847 16.9149 21.0837 16.5155 20.9763L13.8919 20.2708Z" fill="#262626"/>
</svg>
