<svg width="141" height="118" viewBox="0 0 141 118" fill="none" xmlns="http://www.w3.org/2000/svg">
    <path opacity="0.6" fill-rule="evenodd" clip-rule="evenodd"
        d="M134.342 74.4409C130.796 71.9151 127.791 67.0409 128.816 62.8094C129.604 59.5529 130.022 56.1545 130.022 52.66C130.022 28.6039 110.23 9.10254 85.8146 9.10254C69.6337 9.10254 55.4832 17.668 47.7789 30.4481C41.9311 40.1486 32.971 49.4091 21.6442 49.4091C9.69044 49.4091 0 59.0996 0 71.0533V83.4339C0 95.5842 9.84974 105.434 22 105.434H94.1004C95.1906 105.434 96.2224 105.184 97.1419 104.739C98.651 104.008 100.195 103.179 101.872 103.179H125.167C133.911 103.179 141 96.0906 141 87.3462C141 82.0217 138.372 77.3111 134.342 74.4409Z"
        fill="white" />
    <path
        d="M124.824 102.235C126.859 102.45 127.296 105.219 125.427 106.051L102.265 116.361C100.762 117.03 99.0903 117.219 97.4764 116.904L34.3922 104.571C33.2353 104.345 33.3542 102.653 34.5313 102.591L96.9761 99.2925L124.824 102.235Z"
        fill="#0B0000" fill-opacity="0.15" />
    <path
        d="M106.808 55.498H89.2791V111.312C89.2791 111.312 102.365 107.353 111.771 103.076C112.591 102.703 113.043 101.824 112.895 100.935C112.149 96.4623 109.838 81.849 106.808 55.498Z"
        fill="#FCA06F" />
    <path
        d="M89.4967 111.312V57.8372C89.4967 57.8372 85.7618 55.6066 84.0242 55.5344C80.5973 55.3921 78.1972 55.7266 75.9969 55.5344L62.2661 55.5344C58.0795 56.4215 47.6903 57.8372 47.6903 57.8372L41.6208 102.437C41.4726 103.526 42.2307 104.53 43.3184 104.686L89.4967 111.312Z"
        fill="#F55905" />
    <path
        d="M81.1843 52.9611C81.1843 52.9611 101.48 56.7666 112.897 39.7686L106.301 39.7686L104.779 34.6946C104.779 34.6946 97.4207 49.1511 79.4083 50.9315L81.1843 52.9611Z"
        fill="#F55905" />
    <path
        d="M102.432 31.7249C103.98 34.9484 76.0796 57.5356 76.0796 57.5356C76.0796 57.5356 76.2652 55.8383 76.5906 53.1716L76.5922 53.1666C77.7813 43.4278 80.8421 20.7522 83.6164 20.3608C83.8951 20.321 84.2368 20.3388 84.6303 20.4052C89.2386 21.1923 101.007 28.7565 102.432 31.7249Z"
        fill="#F55905" />
    <path
        d="M85.1204 23.4933C84.0311 27.3259 76.7068 52.7703 76.592 53.1669C77.7811 43.4281 80.842 20.7525 83.6162 20.3611C83.6162 20.3611 84.1476 20.2116 84.6301 20.4054C85.2128 20.6408 85.722 21.3771 85.1204 23.4933Z"
        fill="#8B2A00" />
    <path
        d="M79.4161 53.7103C79.4161 53.7103 77.5792 52.8556 74.8568 51.5348C67.6299 48.0276 54.1674 41.2313 52.2804 38.3873C49.3151 33.9191 63.1678 23.5636 67.8762 23.0341C72.5835 22.5061 79.4161 53.7103 79.4161 53.7103Z"
        fill="#F55905" />
    <path
        d="M74.8622 51.5363L74.857 51.5346C67.6301 48.0273 54.1676 41.2311 52.2806 38.387C52.1867 34.7775 55.2525 35.4852 57.4959 35.9645C59.7371 36.4431 74.8622 51.5363 74.8622 51.5363Z"
        fill="#8B2A00" />
    <path
        d="M67.2305 53.9759C67.2305 53.9759 70.6729 46.2988 77.4471 45.8741C84.5232 45.4302 88.5414 53.9759 88.5414 53.9759H67.2305Z"
        fill="#F55905" />
    <path
        d="M108.968 53.3555H88.696C88.1438 53.3555 87.696 53.8032 87.696 54.3555V62.0995C87.696 62.6518 88.1438 63.0995 88.696 63.0995H108.968C109.52 63.0995 109.968 62.6518 109.968 62.0995V54.3555C109.968 53.8032 109.52 53.3555 108.968 53.3555Z"
        fill="#FA6E22" />
    <path
        d="M92.2639 53.3555H46.9358C46.3835 53.3555 45.9358 53.8032 45.9358 54.3555V62.0995C45.9358 62.6518 46.3835 63.0995 46.9358 63.0995H92.2639C92.8162 63.0995 93.2639 62.6518 93.2639 62.0995V54.3555C93.2639 53.8032 92.8162 53.3555 92.2639 53.3555Z"
        fill="#AB3601" />
    <path
        d="M75.5298 52.6081C75.5298 52.6081 61.7743 43.4254 53.0159 44.0801C42.9203 44.8345 35.7717 52.6081 35.7717 52.6081L43.6365 54.737L44.6513 61.8407C44.6513 61.8407 51.0317 51.1432 59.1122 51.1852C65.4548 51.1852 69.7677 53.2148 69.7677 53.2148L75.5298 52.6081Z"
        fill="#F55905" />
    <path
        d="M26.5396 89.8928C26.5396 89.8928 18.1641 86.5925 21.4528 77.7291L15.8896 74.1138C15.8896 74.1138 13.6075 79.2543 21.9177 87.9103C27.3541 93.5734 26.5396 89.8928 26.5396 89.8928Z"
        fill="#0626FC" />
    <path
        d="M34.7577 93.1629C34.7577 93.1629 26.7318 96.0982 18.314 83.4888C18.314 83.4888 21.9139 87.9147 30.5123 87.5152L34.7577 93.1629Z"
        fill="#79A5FE" />
    <path
        d="M116.306 73.4972C116.306 73.4972 119.953 70.6794 120.338 67.2759C120.338 67.2759 123.888 67.5095 124.658 68.9183C124.658 68.9183 123.027 74.5538 121.108 75.6105C121.108 75.6105 116.788 75.9627 116.309 73.4972H116.306Z"
        fill="#FF3F8F" />
    <path
        d="M23.5848 50.2137C23.5848 50.2137 23.4309 47.9362 26.3048 46.2364C27.1751 45.5952 29.8576 44.9041 29.8576 44.9041L27.193 41.7954C27.193 41.7954 26.0212 42.5526 24.925 43.7429C24.1098 44.6281 23.2644 46.7072 23.0893 47.9283C22.8972 49.2729 23.5862 50.2156 23.5862 50.2156L23.5848 50.2137Z"
        fill="#E90061" />
    <path
        d="M26.3045 50.2332L23.1958 55.1183C23.1958 55.1183 19.6431 52.0096 24.5349 44.2519C24.5349 44.2519 23.1959 48.4568 26.3045 50.2332Z"
        fill="#FF81B5" />
    <path
        d="M121.55 38.3207C121.55 38.3207 123.755 38.9085 124.439 42.1767C124.766 43.2071 124.556 45.9693 124.556 45.9693L128.357 44.4479C128.357 44.4479 128.018 43.0947 127.244 41.6735C126.669 40.6167 124.973 39.1467 123.873 38.5877C122.662 37.9727 121.547 38.3214 121.547 38.3214L121.55 38.3207Z"
        fill="#0626FC" />
    <path
        d="M120.655 40.8889L117.032 36.3726C117.032 36.3726 121.119 34.0104 126.888 41.14C126.888 41.14 123.338 38.5181 120.655 40.8889Z"
        fill="#79A5FE" />
    <path fill-rule="evenodd" clip-rule="evenodd"
        d="M74.2773 93.9954C73.8259 94.1281 73.3539 94.1862 72.8823 94.166C71.3686 94.104 70.6707 93.3029 70.057 92.117C69.8494 91.7402 69.7642 90.9292 69.7642 90.9292L70.024 84.5798L75.6217 84.8088L75.4225 82.2657C75.329 81.0124 74.2818 80.0231 72.988 79.9655L70.2175 79.8521L70.5386 72.0044C70.5386 72.0044 68.8584 72.0443 68.2963 72.06C65.4221 72.1606 63.4098 73.9331 63.3213 76.0961L63.1846 79.7475L58.2221 79.7239L58.1474 81.5503C58.09 82.9524 59.2154 84.1374 60.6627 84.1967L62.9986 84.2923L62.7325 90.7954L62.7308 91.7445C62.6371 94.4164 64.0436 96.9314 66.4041 98.3153C68.7665 99.6993 71.7133 99.7358 74.1026 98.4094L74.2773 93.9964L74.2773 93.9954Z"
        fill="#AB3601" />
    <path fill-rule="evenodd" clip-rule="evenodd"
        d="M72.0835 93.9954C71.632 94.1281 71.1601 94.1862 70.6884 94.166C69.1748 94.104 68.4768 93.3029 67.8631 92.117C67.6555 91.7402 67.5703 90.9292 67.5703 90.9292L67.8302 84.5798L73.4278 84.8088L73.2287 82.2657C73.1352 81.0124 72.0879 80.0231 70.7942 79.9655L68.0236 79.8521L68.3448 72.0044C68.3448 72.0044 66.6645 72.0443 66.1024 72.06C63.2283 72.1606 61.2159 73.9331 61.1274 76.0961L60.9907 79.7475L56.0283 79.7239L55.9536 81.5503C55.8962 82.9524 57.0215 84.1374 58.4688 84.1967L60.8048 84.2923L60.5386 90.7954L60.537 91.7445C60.4433 94.4164 61.8497 96.9314 64.2102 98.3153C66.5727 99.6993 69.5195 99.7358 71.9087 98.4094L72.0835 93.9964L72.0835 93.9954Z"
        fill="#FEE9DD" />
    <path d="M47.3278 62.4038L107.184 63.0998L107.88 69.3638L46.6318 68.6678L47.3278 62.4038Z"
        fill="#0B0000" fill-opacity="0.2" />
    <path
        d="M48.5557 12.9132C48.5557 12.9132 46.8782 17.0531 43.2297 18.9861C40.5232 20.4184 36.4598 19.7344 36.2594 19.6432L36.5756 24.5044C36.5756 24.5044 43.0658 24.2311 46.5198 20.8258C47.5787 19.7833 48.7452 17.2634 49.0312 15.7692C49.3486 14.1218 48.5533 12.9173 48.5533 12.9173L48.5557 12.9132Z"
        fill="#E90061" />
    <path
        d="M43.6 5.6419L47.2792 0.155093C47.2792 0.155093 53.6096 11.1788 47.0315 20.2119C47.0315 20.2119 47.7331 9.31477 43.5991 5.63868L43.6 5.6419Z"
        fill="#FF81B5" />
</svg>
