<svg width="32" height="32" viewBox="0 0 32 32" fill="none" xmlns="http://www.w3.org/2000/svg">
<path d="M25.681 10.2761L24.5 15L22.0162 17.5183C20.7243 18.8282 20 20.594 20 22.4338V26.5H25V24.5017C25 24.1785 25.1186 23.8666 25.3333 23.625L28.4409 20.129C28.8011 19.7238 29 19.2006 29 18.6585V10.6847C29 9.75425 28.2458 9 27.3153 9C26.5423 9 25.8685 9.52611 25.681 10.2761Z" stroke="black" stroke-width="2" stroke-linecap="round" stroke-linejoin="round"/>
<path d="M24.5 20L26.3829 17.8032C26.9937 17.0907 26.8925 16.014 26.1597 15.4277V15.4277C25.4995 14.8996 24.5477 14.9523 23.9499 15.5501L23.5 16" stroke="black" stroke-width="2" stroke-linecap="round" stroke-linejoin="round"/>
<path d="M7.31902 10.2761L8.5 15L10.9838 17.5183C12.2757 18.8282 13 20.594 13 22.4338V26.5H8V24.5017C8 24.1785 7.88139 23.8666 7.66667 23.625L4.55908 20.129C4.19894 19.7238 4 19.2006 4 18.6585V10.6847C4 9.75425 4.75425 9 5.68466 9C6.45769 9 7.13153 9.52611 7.31902 10.2761Z" stroke="black" stroke-width="2" stroke-linecap="round" stroke-linejoin="round"/>
<path d="M8.5 20L6.61705 17.8032C6.00634 17.0907 6.10755 16.014 6.84033 15.4277V15.4277C7.50053 14.8996 8.45229 14.9523 9.05013 15.5501L9.5 16" stroke="black" stroke-width="2" stroke-linecap="round" stroke-linejoin="round"/>
<path d="M16.5049 5.92574C16.4946 5.91738 16.4842 5.90901 16.4737 5.90064C15.9366 5.47141 15.0982 5 14.0077 5C11.8243 5 10.0386 6.74455 10.0101 8.92279C9.93977 9.71848 10.2342 10.8547 10.9998 12.1229C11.803 13.4534 13.1677 15.006 15.3706 16.6104C15.643 16.8121 16.027 17 16.5049 17C16.9855 17 17.3713 16.8098 17.644 16.6068C19.2511 15.4104 20.5682 14.1229 21.4929 12.8474C22.4046 11.5896 23 10.2522 23 8.97585C23 6.77295 21.2031 5 19.002 5C17.9115 5 17.0731 5.47141 16.536 5.90064C16.5255 5.90901 16.5151 5.91738 16.5049 5.92574Z" stroke="black" stroke-width="2"/>
</svg>
