<svg width="28" height="28" viewBox="0 0 28 27" fill="none" xmlns="http://www.w3.org/2000/svg">
<path d="M27.7308 14.574C27.634 15.4567 27.4379 16.3256 27.1462 17.1642C26.4378 19.2594 25.1945 21.1332 23.5397 22.6001C21.2548 24.6428 18.3143 25.7997 15.2505 25.8616C13.7492 25.8965 12.2538 25.6643 10.8339 25.1755C7.97806 24.1986 5.55728 22.247 3.99602 19.6633C2.43476 17.0795 1.8327 14.0285 2.29544 11.0451C2.40724 10.3053 2.58444 9.57695 2.82493 8.86853C3.79574 6.02157 5.73415 3.60548 8.30254 2.04096C10.8709 0.47645 13.9066 -0.137355 16.8808 0.306527C17.649 0.416874 18.4046 0.601335 19.1373 0.85729C21.9259 1.80979 24.3021 3.69294 25.8669 6.1906C27.4316 8.68826 28.0898 11.6484 27.7308 14.574V14.574Z" fill="#838383"/>
<path d="M25.7303 14.574C25.6335 15.4567 25.4374 16.3256 25.1457 17.1642C24.4373 19.2594 23.1941 21.1332 21.5392 22.6001C19.2543 24.6428 16.3138 25.7997 13.25 25.8616C11.7487 25.8965 10.2533 25.6643 8.83337 25.1755C5.97757 24.1986 3.55679 22.247 1.99553 19.6633C0.434274 17.0795 -0.16779 14.0285 0.294952 11.0451C0.406756 10.3053 0.583948 9.57695 0.824444 8.86853C1.79525 6.02157 3.73366 3.60548 6.30205 2.04096C8.87045 0.47645 11.9061 -0.137355 14.8803 0.306527C15.6485 0.416874 16.4041 0.601335 17.1368 0.85729C19.9254 1.80979 22.3016 3.69294 23.8664 6.1906C25.4312 8.68826 26.0893 11.6484 25.7303 14.574V14.574Z" fill="#E5E5E5"/>
<path d="M12.8727 23.46C18.6404 23.5247 23.3685 18.9003 23.4333 13.1309C23.498 7.36163 18.8749 2.63219 13.1073 2.56744C7.33966 2.50269 2.61156 7.12715 2.54679 12.8965C2.48201 18.6658 7.1051 23.3952 12.8727 23.46Z" fill="#A6A6A6"/>
<path fill-rule="evenodd" clip-rule="evenodd" d="M17.506 17.0521C17.2646 17.1309 17.011 17.1698 16.7564 17.1664C15.939 17.1573 15.5498 16.7364 15.1998 16.1066C15.0818 15.9067 15.0229 15.4707 15.0229 15.4707L15.0614 12.0422L18.084 12.0761L17.9358 10.7077C17.8654 10.0333 17.2847 9.51655 16.586 9.50616L15.09 9.48936L15.1376 5.25183C15.1376 5.25183 14.2321 5.30022 13.9292 5.31769C12.3807 5.41794 11.3238 6.40614 11.3107 7.57409L11.2954 9.54554L8.61869 9.61224L8.60762 10.5984C8.59912 11.3555 9.22501 11.9766 10.0065 11.9854L11.2678 11.9996L11.2284 15.5111L11.2427 16.023C11.235 17.4655 12.0337 18.7994 13.329 19.5079C14.6252 20.2165 16.2151 20.1891 17.4824 19.4354L17.506 17.0526L17.506 17.0521Z" fill="#676767"/>
<path fill-rule="evenodd" clip-rule="evenodd" d="M15.924 17.0345C15.6826 17.1133 15.429 17.1522 15.1743 17.1489C14.357 17.1397 13.9677 16.7188 13.6178 16.089C13.4998 15.8891 13.4409 15.4531 13.4409 15.4531L13.4793 12.0246L16.5019 12.0585L16.3538 10.6902C16.2833 10.0157 15.7027 9.49897 15.004 9.48858L13.508 9.47178L13.5556 5.23425C13.5556 5.23425 12.65 5.28264 12.3471 5.30012C10.7987 5.40036 9.74175 6.38856 9.72864 7.55652L9.71336 9.52797L7.03666 9.59466L7.02559 10.5809C7.01709 11.3379 7.64298 11.9591 8.42446 11.9678L9.68581 11.982L9.64639 15.4935L9.66068 16.0054C9.65293 17.4479 10.4517 18.7818 11.7469 19.4904C13.0432 20.199 14.633 20.1715 15.9004 19.4178L15.924 17.0351L15.924 17.0345Z" fill="white"/>
<path opacity="0.3" d="M21.5391 22.6003C19.2542 24.6429 16.3137 25.7998 13.2499 25.8617C11.8264 25.1279 10.5929 24.0731 9.64674 22.7807C8.7006 21.4882 8.06774 19.9935 7.79811 18.4144C6.40033 12.4576 3.88228 11.813 0.2949 11.0452C0.406703 10.3055 0.583895 9.57707 0.824391 8.86865C1.90037 5.72559 4.14783 3.11939 7.09806 1.59349C13.6958 4.14305 16.0998 9.54538 15.8746 14.312C15.748 17.4832 19.1501 21.2599 21.5391 22.6003Z" fill="white"/>
<path opacity="0.3" d="M25.7304 14.5744L25.589 14.5728C24.1667 13.8361 22.9348 12.7791 21.9905 11.485C21.0462 10.1909 20.4153 8.69517 20.1474 7.11557C19.058 2.48579 17.2961 1.0716 14.8804 0.306885C15.6485 0.417232 16.4042 0.601693 17.1368 0.857647C19.9255 1.81015 22.3016 3.69329 23.8664 6.19095C25.4312 8.68861 26.0894 11.6487 25.7304 14.5744V14.5744Z" fill="white"/>
</svg>
