<svg width="32" height="32" viewBox="0 0 32 32" fill="none" xmlns="http://www.w3.org/2000/svg">
<path d="M14.4472 21.526C14.4472 23.5565 12.8054 25.2035 10.7749 25.2035C8.74442 25.2035 7.10254 23.5565 7.10254 21.526C7.10254 21.1683 7.15658 20.8157 7.25437 20.4863H14.2928C14.3906 20.8157 14.4447 21.1683 14.4447 21.526H14.4472Z" stroke="black" stroke-width="2" stroke-miterlimit="10" stroke-linecap="round"/>
<path d="M23.3276 25.1982C25.3558 25.1982 27 23.554 27 21.5259C27 19.4977 25.3558 17.8535 23.3276 17.8535C21.2994 17.8535 19.6553 19.4977 19.6553 21.5259C19.6553 23.554 21.2994 25.1982 23.3276 25.1982Z" stroke="black" stroke-width="2" stroke-miterlimit="10" stroke-linecap="round"/>
<path d="M12.1634 7.81982H6.10693C5.83079 7.81982 5.60693 8.04368 5.60693 8.31982V14.3763C5.60693 14.6524 5.83079 14.8763 6.10693 14.8763H12.1634C12.4395 14.8763 12.6634 14.6524 12.6634 14.3763V8.31982C12.6634 8.04368 12.4395 7.81982 12.1634 7.81982Z" stroke="black" stroke-width="2" stroke-miterlimit="10" stroke-linecap="round"/>
<path d="M16.2351 19.9834C16.2352 20.2596 16.0113 20.4836 15.7351 20.4836H6.07016C5.81433 20.4836 5.60693 20.2762 5.60693 20.0204V20.0204C5.60693 17.7094 7.48042 15.8359 9.7914 15.8359H15.7331C16.0091 15.8359 16.2329 16.0596 16.2331 16.3357L16.2351 19.9834Z" stroke="black" stroke-width="2" stroke-miterlimit="10" stroke-linecap="round"/>
<path d="M22.0002 15.8359H11.9482" stroke="black" stroke-width="2" stroke-miterlimit="10" stroke-linecap="round"/>
<path d="M23.3287 21.5261L21.8136 10.0197C21.7158 9.27686 21.211 8.65097 20.5056 8.39814L18 7.5" stroke="black" stroke-width="2" stroke-miterlimit="10" stroke-linecap="round"/>
<path d="M23.0124 10.3985C23.0921 11.0702 23.5502 11.6363 24.191 11.8499L25.7126 12.1861C25.7783 12.2006 25.8393 12.1474 25.8338 12.0803L25.5113 8.13786C25.5057 8.06995 25.4354 8.02736 25.3726 8.05393L23.8101 8.71544C23.244 9.07573 22.9326 9.72939 23.0124 10.3959V10.3985Z" stroke="black" stroke-width="2" stroke-miterlimit="10" stroke-linecap="round"/>
</svg>
