<svg width="40" height="71" viewBox="0 0 40 71" fill="none" xmlns="http://www.w3.org/2000/svg">
<path d="M32.9066 20.915H5.9458V27.8407H32.9066V20.915Z" fill="#79A5FE"/>
<path d="M31.1441 26.0017H7.32318C3.2787 26.0017 0 29.0347 0 32.7761V62.4048C0 66.1462 3.2787 69.1792 7.32318 69.1792H31.1441C35.1885 69.1792 38.4672 66.1462 38.4672 62.4048V32.7761C38.4672 29.0347 35.1885 26.0017 31.1441 26.0017Z" fill="#A7CBFF"/>
<path d="M31.1441 26.0017H7.32318C3.2787 26.0017 0 29.0347 0 32.7761V62.4048C0 66.1462 3.2787 69.1792 7.32318 69.1792H31.1441C35.1885 69.1792 38.4672 66.1462 38.4672 62.4048V32.7761C38.4672 29.0347 35.1885 26.0017 31.1441 26.0017Z" fill="#A7CBFF"/>
<path d="M31.1441 26.0017H7.32318C3.2787 26.0017 0 29.0347 0 32.7761V62.4048C0 66.1462 3.2787 69.1792 7.32318 69.1792H31.1441C35.1885 69.1792 38.4672 66.1462 38.4672 62.4048V32.7761C38.4672 29.0347 35.1885 26.0017 31.1441 26.0017Z" fill="#DEECFF"/>
<path d="M33.6236 18.9363H4.95378C3.70727 18.9363 2.69678 19.9468 2.69678 21.1933V21.5466C2.69678 22.7931 3.70727 23.8036 4.95378 23.8036H33.6236C34.8702 23.8036 35.8807 22.7931 35.8807 21.5466V21.1933C35.8807 19.9468 34.8702 18.9363 33.6236 18.9363Z" fill="#DEECFF"/>
<path d="M37.2898 62.1138H1.17773V62.9931C1.17773 65.5424 3.24439 67.6091 5.79373 67.6091H32.6738C35.2232 67.6091 37.2898 65.5424 37.2898 62.9931V62.1138Z" fill="#A7CBFF"/>
<path d="M30.3772 18.9363H24.8741C23.53 18.9363 22.4404 20.0259 22.4404 21.3699C22.4404 22.714 23.53 23.8036 24.8741 23.8036H30.3772C31.7213 23.8036 32.8109 22.714 32.8109 21.3699C32.8109 20.0259 31.7213 18.9363 30.3772 18.9363Z" fill="#A7CBFF"/>
<path d="M10.3116 18.9363H8.39605C7.99934 18.9363 7.67773 19.2579 7.67773 19.6546V23.0852C7.67773 23.482 7.99934 23.8036 8.39605 23.8036H10.3116C10.7083 23.8036 11.0299 23.482 11.0299 23.0852V19.6546C11.0299 19.2579 10.7083 18.9363 10.3116 18.9363Z" fill="#FCFDFF"/>
<path d="M12.1834 66.1347C12.4059 66.3924 12.9143 66.6027 13.6281 66.7549C14.7987 66.9779 15.9625 67.0901 17.0675 67.0865C18.6176 67.1085 20.1183 67.0439 21.55 66.8937L22.2112 66.8116C26.932 66.2604 30.1024 65.062 29.286 64.1253C28.9573 63.7475 28.0252 63.4742 26.7212 63.3168C24.9963 63.1045 22.6122 63.1003 20.1067 63.3413C19.8262 63.3676 19.5446 63.3986 19.2624 63.4319C17.8186 63.5958 16.4478 63.8403 15.1654 64.1626C12.8703 64.7662 11.6383 65.5134 12.1834 66.1347Z" fill="#517EFE"/>
<path d="M10.2068 61.3441L12.0487 65.1803C12.1661 65.3726 12.5478 65.4484 12.5478 65.4484C12.5218 65.4425 13.0323 65.5983 13.2571 65.6196C13.3991 65.6506 13.5496 65.6833 13.7187 65.6932C14.1439 65.7265 14.5712 65.7235 14.9958 65.6844C15.1237 65.6763 15.2621 65.6616 15.4014 65.6426C16.0834 65.5571 16.7589 65.4271 17.4236 65.2535L17.8103 65.1538C19.1877 64.768 20.5329 64.2769 21.8339 63.685C23.1026 63.1134 24.3271 62.4494 25.4972 61.6982C25.6081 61.6237 25.718 61.5535 25.8245 61.4781C26.3903 61.0951 26.9324 60.6786 27.4478 60.2308L27.751 59.9561C28.0585 59.6681 28.3432 59.3568 28.6025 59.0251C28.6955 58.8992 28.7812 58.7682 28.8592 58.6326C29.0131 58.4383 29.1168 58.2094 29.1611 57.9658C29.2055 57.7223 28.8986 57.201 28.8231 56.9649L27.1618 53.4807C25.4098 53.7045 21.9234 57.9109 19.5796 58.9698C17.3801 59.9661 11.5239 60.2409 10.2068 61.3441Z" fill="#FDB38C"/>
<path d="M10.2651 61.4079C10.4442 61.807 10.9094 62.0524 11.5836 62.1451C12.6932 62.2503 13.8126 62.1619 14.8916 61.884C16.4014 61.542 17.8757 61.0597 19.2952 60.4434L19.9528 60.1364C24.6418 58.0061 27.9134 55.117 27.2548 53.6681C26.9898 53.0837 26.1203 52.8314 24.8709 52.8744C23.2186 52.9244 20.8922 53.5027 18.4111 54.5426C18.1335 54.6577 17.854 54.7815 17.5736 54.9095C16.1403 55.5528 14.7661 56.3201 13.4669 57.2026C11.1377 58.8293 9.82481 60.4477 10.2651 61.4079Z" fill="#F55905"/>
<path fill-rule="evenodd" clip-rule="evenodd" d="M17.4377 59.7473C17.3656 59.7056 17.3149 59.6513 17.2882 59.5865C17.2017 59.3788 17.398 59.1795 17.7178 58.9396C17.8186 58.8618 18.0606 58.7418 18.0606 58.7418L19.843 57.9387L20.1827 58.6811L21.1043 58.3251C21.481 58.1447 21.7105 57.8742 21.6379 57.6961L21.4794 57.316L23.7146 56.275C23.7146 56.275 23.4189 55.6045 23.3749 55.5326C23.1437 55.1676 22.8147 55.6258 22.1471 55.9042L21.0211 56.3759L20.6823 55.7192L20.1186 55.9543C19.6859 56.1348 19.402 56.4419 19.4848 56.6404L19.6184 56.9608L17.6113 57.7979L17.3209 57.9249C16.4974 58.2709 15.8264 58.7934 15.5678 59.2898C15.4567 59.5032 14.9775 59.0092 15.0276 59.1722C15.0941 59.3886 15.4715 60.3221 15.7979 60.4001L17.4377 59.7473Z" fill="#AB3601"/>
<path fill-rule="evenodd" clip-rule="evenodd" d="M16.9383 58.97C16.8663 58.9284 16.8156 58.874 16.7889 58.8092C16.7023 58.6016 16.8986 58.4022 17.2185 58.1624C17.3192 58.0845 17.5613 57.9645 17.5613 57.9645L19.5209 57.1473L19.8412 57.9151L20.6049 57.5478C20.9817 57.3675 21.2111 57.0969 21.1386 56.9188L20.9801 56.5387L23.4022 55.5286C23.4022 55.5286 23.2728 55.3127 23.2288 55.2408C22.9977 54.8758 22.3154 54.8485 21.6478 55.1269L20.5217 55.5986L20.183 54.942L19.6193 55.177C19.1865 55.3575 18.9026 55.6646 18.9854 55.8631L19.119 56.1836L17.1119 57.0206L16.8216 57.1477C15.9981 57.4936 15.327 58.0161 15.0684 58.5125C14.8099 59.0092 15.0042 59.4022 15.5764 59.5389L16.938 58.9701L16.9383 58.97Z" fill="#FEE9DD"/>
<path opacity="0.39" d="M14.9714 61.891C16.4801 61.5569 17.953 61.084 19.3708 60.4785C20.384 59.4664 21.1128 58.2109 21.4861 56.8343C21.7104 55.9746 22.139 55.1811 22.7364 54.5194C23.3339 53.8576 24.0832 53.3466 24.9223 53.0285C23.2704 53.0735 20.9457 53.6391 18.4676 54.6606C18.203 55.3149 18.1837 56.0423 18.4133 56.7123C18.9765 58.2491 16.349 60.7234 14.9714 61.891Z" fill="white"/>
<path opacity="0.39" d="M10.254 61.4054C10.4184 61.8014 10.8549 62.0406 11.4907 62.125C11.854 61.8748 12.15 61.5288 12.3482 61.1224C12.5464 60.7161 12.6398 60.264 12.6187 59.8127C12.5773 58.887 12.8243 57.9651 13.322 57.1873C11.1096 58.8221 9.84973 60.4527 10.254 61.4054Z" fill="white"/>
<path d="M15.0065 42.4971C18.8883 41.1518 20.9442 36.9136 19.5986 33.0307C18.253 29.1478 14.0153 27.0906 10.1336 28.4358C6.25178 29.7811 4.19583 34.0193 5.54145 37.9022C6.88708 41.7851 11.1247 43.8423 15.0065 42.4971Z" fill="#F55905"/>
<path d="M18.8516 34.6082C18.9716 35.1081 19.0348 35.6199 19.04 36.134C19.064 37.4143 18.7533 38.6787 18.1387 39.8019C17.2934 41.3621 15.9176 42.568 14.2602 43.2014C13.449 43.5143 12.5887 43.6804 11.7193 43.6919C9.97198 43.7185 8.27095 43.1289 6.91454 42.0266C5.55813 40.9243 4.63292 39.3796 4.30118 37.6634C4.21732 37.2384 4.17131 36.8068 4.16371 36.3737C4.13551 34.6324 4.71889 32.9365 5.81221 31.5813C6.90553 30.2261 8.43953 29.2975 10.1471 28.9573C10.5872 28.8671 11.0351 28.8197 11.4844 28.8158C13.1904 28.789 14.8537 29.3501 16.1952 30.4048C17.5367 31.4596 18.4746 32.9437 18.8516 34.6082V34.6082Z" fill="#FCA06F"/>
<path d="M13.5853 41.9683C16.7408 40.8748 18.4121 37.4296 17.3182 34.2732C16.2244 31.1168 12.7796 29.4445 9.62413 30.5381C6.46866 31.6316 4.79738 35.0768 5.89124 38.2332C6.98509 41.3896 10.4298 43.0619 13.5853 41.9683Z" fill="#F55905"/>
<path fill-rule="evenodd" clip-rule="evenodd" d="M14.8551 37.5683C14.739 37.6585 14.6085 37.7293 14.469 37.7773C14.0218 37.9323 13.7274 37.7791 13.4134 37.5045C13.31 37.4186 13.1926 37.1926 13.1926 37.1926L12.5425 35.3168L14.1962 34.7437L13.8477 34.0271C13.6772 33.6734 13.2597 33.5055 12.877 33.6365L12.0585 33.9202L11.2551 31.6018C11.2551 31.6018 10.7711 31.8054 10.6095 31.8742C9.78534 32.2319 9.40284 32.9772 9.62428 33.6162L10.0018 34.6935L8.55632 35.2537L8.7433 35.7932C8.88684 36.2074 9.34945 36.4234 9.777 36.2752L10.4671 36.0361L11.1329 37.9572L11.2408 38.2333C11.5189 39.0209 12.2152 39.5914 13.0597 39.724C13.9047 39.8564 14.7656 39.5303 15.3087 38.8716L14.8552 37.5686L14.8551 37.5683Z" fill="#AB3601"/>
<path fill-rule="evenodd" clip-rule="evenodd" d="M13.9894 37.8684C13.8733 37.9585 13.7427 38.0293 13.6033 38.0774C13.1561 38.2323 12.8617 38.0792 12.5477 37.8045C12.4443 37.7187 12.3268 37.4926 12.3268 37.4926L11.6768 35.6169L13.3305 35.0438L12.9819 34.3272C12.8115 33.9734 12.394 33.8055 12.0113 33.9366L11.1928 34.2202L10.3894 31.9019C10.3894 31.9019 9.90541 32.1055 9.74377 32.1743C8.91962 32.532 8.53712 33.2773 8.75856 33.9163L9.13608 34.9935L7.69059 35.5537L7.87757 36.0933C8.02112 36.5075 8.48373 36.7234 8.91128 36.5753L9.60136 36.3361L10.2671 38.2573L10.3751 38.5334C10.6532 39.3209 11.3495 39.8914 12.194 40.024C13.039 40.1565 13.8999 39.8303 14.443 39.1716L13.9895 37.8686L13.9894 37.8684Z" fill="#FEE9DD"/>
<path opacity="0.2" d="M18.1384 39.8019C17.2932 41.3621 15.9173 42.568 14.2599 43.2014C13.3406 43.0801 12.4621 42.7468 11.6935 42.2277C10.925 41.7086 10.2877 41.018 9.83169 40.2103C7.90419 37.238 6.40594 37.3796 4.30091 37.6633C4.21705 37.2384 4.17105 36.8068 4.16344 36.3737C4.1346 34.4504 4.84917 32.5905 6.15811 31.1816C10.2522 31.2796 12.6195 33.7528 13.4296 36.3942C13.9814 38.147 16.5743 39.5391 18.1384 39.8019Z" fill="white"/>
<path opacity="0.2" d="M18.8515 34.6084L18.7742 34.6352C17.855 34.5121 16.9768 34.1773 16.209 33.6569C15.4412 33.1366 14.8047 32.445 14.3496 31.6367C12.8498 29.3272 11.6129 28.9014 10.147 28.9575C10.5871 28.8673 11.035 28.8199 11.4843 28.816C13.1903 28.7892 14.8536 29.3503 16.1951 30.405C17.5366 31.4598 18.4745 32.9439 18.8515 34.6084V34.6084Z" fill="white"/>
<path d="M22.8992 48.1964C25.5597 51.3268 30.2549 51.7071 33.3862 49.0458C36.5175 46.3845 36.8992 41.6894 34.2387 38.559C31.5782 35.4286 26.8829 35.0483 23.7516 37.7096C20.6203 40.3709 20.2386 45.066 22.8992 48.1964Z" fill="#F55905"/>
<path d="M31.6453 48.9214C31.2228 49.2143 30.7687 49.4587 30.2914 49.6499C29.1068 50.1362 27.8158 50.3049 26.5462 50.139C24.7857 49.9167 23.1632 49.0713 21.9723 47.7561C21.3867 47.1135 20.9201 46.3718 20.5943 45.5657C19.9363 43.9468 19.8694 42.1477 20.4052 40.4841C20.941 38.8204 22.0455 37.3983 23.5248 36.4671C23.8905 36.235 24.2761 36.0357 24.677 35.8717C26.2897 35.2143 28.0817 35.1435 29.741 35.6714C31.4003 36.1993 32.8217 37.2925 33.7576 38.7606C34.0011 39.1382 34.2076 39.5385 34.3741 39.9558C35.0173 41.5361 35.0971 43.2897 34.6002 44.9222C34.1033 46.5547 33.06 47.9668 31.6453 48.9214V48.9214Z" fill="#FCA06F"/>
<path d="M22.8768 46.6803C25.0396 49.225 28.8563 49.5341 31.4017 47.3708C33.9471 45.2074 34.2574 41.3908 32.0947 38.8461C29.9319 36.3014 26.1152 35.9923 23.5698 38.1556C21.0244 40.319 20.7141 44.1356 22.8768 46.6803Z" fill="#F55905"/>
<path fill-rule="evenodd" clip-rule="evenodd" d="M27.438 46.2694C27.3119 46.1939 27.1986 46.0979 27.1033 45.9853C26.7968 45.6247 26.8329 45.2947 26.9751 44.9026C27.0176 44.7751 27.1857 44.5837 27.1857 44.5837L28.6984 43.2981L29.8318 44.6317L30.3734 44.0471C30.6413 43.7601 30.6466 43.3101 30.3857 43.0009L29.8247 42.3409L31.6943 40.7519C31.6943 40.7519 31.3292 40.3746 31.2065 40.2489C30.5744 39.6104 29.7412 39.524 29.2259 39.962L28.3587 40.7042L27.3127 39.56L26.8776 39.9298C26.5436 40.2137 26.5099 40.7231 26.803 41.0679L27.2759 41.6244L25.7267 42.9411L25.5084 43.1418C24.8752 43.6864 24.5958 44.5421 24.7782 45.3773C24.961 46.2128 25.577 46.897 26.3877 47.1645L27.4378 46.2696L27.438 46.2694Z" fill="#AB3601"/>
<path fill-rule="evenodd" clip-rule="evenodd" d="M26.8448 45.5714C26.7187 45.4959 26.6053 45.3999 26.5101 45.2873C26.2036 44.9267 26.2396 44.5967 26.3818 44.2046C26.4244 44.0771 26.5925 43.8857 26.5925 43.8857L28.1052 42.6001L29.2385 43.9337L29.7802 43.3492C30.0481 43.0621 30.0533 42.6121 29.7924 42.3029L29.2315 41.6429L31.1011 40.0539C31.1011 40.0539 30.7359 39.6766 30.6132 39.5509C29.9812 38.9124 29.1479 38.826 28.6326 39.264L27.7654 40.0062L26.7194 38.862L26.2843 39.2318C25.9503 39.5157 25.9167 40.0251 26.2097 40.3699L26.6827 40.9264L25.1334 42.2431L24.9152 42.4438C24.2819 42.9884 24.0025 43.8441 24.185 44.6793C24.3678 45.5148 24.9837 46.199 25.7945 46.4665L26.8446 45.5716L26.8448 45.5714Z" fill="#FEE9DD"/>
<path opacity="0.2" d="M26.5462 50.139C24.7857 49.9166 23.1631 49.0713 21.9722 47.7561C21.7521 46.8554 21.7444 45.9157 21.9497 45.0113C22.155 44.107 22.5677 43.2626 23.1552 42.545C25.227 39.6713 24.552 38.3262 23.5247 36.4671C23.8904 36.235 24.276 36.0357 24.6769 35.8716C26.459 35.1478 28.4515 35.1397 30.2389 35.8491C31.6313 39.7005 30.184 42.8031 28.0158 44.5154C26.5821 45.6648 26.2243 48.586 26.5462 50.139Z" fill="white"/>
<path opacity="0.2" d="M31.6451 48.9214L31.592 48.8591C31.3736 47.9577 31.3675 47.018 31.5742 46.1138C31.7809 45.2096 32.1948 44.3657 32.7832 43.6486C34.3923 41.4138 34.3409 40.1067 33.7573 38.7607C34.0009 39.1383 34.2074 39.5386 34.3739 39.9559C35.017 41.5362 35.0969 43.2898 34.6 44.9223C34.1031 46.5548 33.0597 47.9669 31.6451 48.9214V48.9214Z" fill="white"/>
<path d="M24.4068 16.6973C28.6723 16.9704 32.3516 13.7329 32.6248 9.46625C32.898 5.19956 29.6616 1.51932 25.3961 1.24621C21.1307 0.973107 17.4514 4.21055 17.1782 8.47724C16.905 12.7439 20.1414 16.4242 24.4068 16.6973Z" fill="#F55905"/>
<path d="M31.2731 10.6789C31.1868 11.2067 31.0413 11.7232 30.8392 12.2184C30.3466 13.4562 29.5393 14.5439 28.4973 15.3738C27.058 16.53 25.2525 17.1326 23.4075 17.0726C22.5034 17.046 21.6112 16.8588 20.7726 16.5197C19.0857 15.8414 17.6915 14.5907 16.8344 12.9869C15.9772 11.3832 15.7119 9.52874 16.085 7.74883C16.1757 7.3074 16.3054 6.87487 16.4725 6.45637C17.1469 4.77465 18.3896 3.38282 19.9842 2.52323C21.5788 1.66365 23.4243 1.39077 25.1993 1.75218C25.6579 1.84293 26.1066 1.97788 26.5392 2.15509C28.1864 2.81656 29.556 4.02475 30.418 5.57683C31.2799 7.12891 31.5819 8.93039 31.2731 10.6789V10.6789Z" fill="#FCA06F"/>
<path d="M23.2567 15.6178C26.7241 15.8398 29.715 13.2081 29.937 9.73975C30.1591 6.27138 27.5283 3.27975 24.0609 3.05774C20.5936 2.83573 17.6027 5.46742 17.3806 8.93579C17.1585 12.4042 19.7894 15.3958 23.2567 15.6178Z" fill="#F55905"/>
<path fill-rule="evenodd" clip-rule="evenodd" d="M26.2473 11.9087C26.0996 11.9485 25.9459 11.9638 25.7928 11.9537C25.3014 11.9223 25.0806 11.6567 24.8901 11.2668C24.8255 11.1428 24.8039 10.8787 24.8039 10.8787L24.9358 8.81751L26.7529 8.93386L26.7073 8.10605C26.6863 7.6981 26.3534 7.36884 25.9334 7.34042L25.0341 7.28283L25.1972 4.73534C25.1972 4.73534 24.6509 4.73571 24.4682 4.73661C23.5335 4.74776 22.8664 5.30865 22.8215 6.01079L22.7497 7.19619L21.1375 7.15136L21.0995 7.74423C21.0704 8.19937 21.4271 8.59286 21.897 8.62294L22.6552 8.67149L22.5201 10.7825L22.5124 11.0909C22.462 11.9583 22.9001 12.7861 23.6568 13.2534C24.414 13.7208 25.3712 13.7547 26.1575 13.3416L26.2473 11.9091L26.2473 11.9087Z" fill="#AB3601"/>
<path fill-rule="evenodd" clip-rule="evenodd" d="M25.2962 11.848C25.1485 11.8877 24.9947 11.903 24.8416 11.8929C24.3502 11.8615 24.1294 11.5959 23.9389 11.206C23.8743 11.082 23.8527 10.8179 23.8527 10.8179L23.9846 8.75672L25.8018 8.87307L25.7561 8.04526C25.7351 7.63731 25.4022 7.30805 24.9823 7.27963L24.0829 7.22204L24.246 4.67455C24.246 4.67455 23.6998 4.67492 23.517 4.67581C22.5824 4.68697 21.9153 5.24785 21.8703 5.95L21.7985 7.1354L20.1863 7.09057L20.1483 7.68344C20.1192 8.13858 20.476 8.53207 20.9458 8.56215L21.7041 8.6107L21.5689 10.7217L21.5613 11.0301C21.5108 11.8976 21.949 12.7253 22.7056 13.1926C23.4628 13.66 24.4201 13.694 25.2063 13.2808L25.2961 11.8483L25.2962 11.848Z" fill="#FEE9DD"/>
<path opacity="0.2" d="M28.4973 15.3738C27.058 16.53 25.2525 17.1326 23.4075 17.0725C22.5745 16.5859 21.866 15.9123 21.3379 15.1049C20.8098 14.2974 20.4765 13.3782 20.3645 12.4198C19.7127 8.79216 18.2185 8.32451 16.085 7.74881C16.1757 7.30738 16.3054 6.87485 16.4725 6.45635C17.2195 4.59985 18.6542 3.10347 20.4772 2.27923C24.365 4.02228 25.6397 7.34824 25.3529 10.2083C25.1762 12.1119 27.1027 14.4917 28.4973 15.3738Z" fill="white"/>
<path opacity="0.2" d="M31.273 10.6789L31.188 10.6734C30.3558 10.1852 29.6484 9.51024 29.1214 8.70184C28.5944 7.89343 28.2624 6.97367 28.1514 6.015C27.643 3.19547 26.6281 2.28887 25.1992 1.7522C25.6578 1.84295 26.1065 1.9779 26.5391 2.15512C28.1863 2.81658 29.5559 4.02477 30.4179 5.57685C31.2799 7.12893 31.5818 8.93041 31.273 10.6789V10.6789Z" fill="white"/>
<path d="M4.29053 54.8606V36.7864C4.29053 33.6339 7.10097 31.0806 10.5709 31.0806" stroke="white" stroke-opacity="0.9" stroke-width="2" stroke-miterlimit="10" stroke-linecap="round"/>
<path d="M4.23926 59.924V58.8264" stroke="white" stroke-width="2" stroke-miterlimit="10" stroke-linecap="round"/>
</svg>
