<svg width="53" height="41" viewBox="0 0 53 41" fill="none" xmlns="http://www.w3.org/2000/svg">
<g clip-path="url(#clip0_3850_8366)">
<g clip-path="url(#clip1_3850_8366)">
<path d="M22.0291 7.21917L23.1699 9.88087C23.2293 10.0903 23.0326 10.4109 23.0326 10.4109C23.0456 10.3886 22.8212 10.8531 22.6888 11.0266C22.6176 11.1476 22.5421 11.276 22.4382 11.4024C22.1828 11.726 21.9003 12.0273 21.594 12.3029C21.5044 12.3884 21.4031 12.4769 21.2983 12.5633C20.7901 12.9912 20.2546 13.3852 19.6953 13.743L19.3709 13.952C18.1934 14.6763 16.9623 15.3086 15.6886 15.8435C14.4507 16.3688 13.1761 16.802 11.8753 17.1396C11.7497 17.1693 11.6278 17.2012 11.5044 17.2274C10.8614 17.3776 10.2102 17.489 9.55425 17.561L9.16039 17.5958C8.75423 17.6251 8.34656 17.6229 7.94102 17.5893C7.79069 17.5727 7.64148 17.5475 7.4941 17.5139C7.25529 17.4956 7.02483 17.419 6.82286 17.2907C6.62089 17.1624 6.45241 16.6026 6.33435 16.3941L5.32488 14.0915C6.63317 12.9952 11.9055 13.2809 14.1948 12.3125C16.3448 11.4053 20.3821 7.43001 22.0291 7.21917Z" fill="#BE8506"/>
<path d="M22.038 7.30317C22.2037 7.69218 22.0726 8.18322 21.6961 8.72254C21.0426 9.57892 20.2455 10.3153 19.3404 10.8987C18.1071 11.7456 16.7976 12.4753 15.4289 13.0784L14.7796 13.3436C10.1914 15.2733 5.99478 15.6993 5.39867 14.2813C5.15786 13.7098 5.54925 12.9273 6.39958 12.0689C7.51904 10.9292 9.45585 9.65775 11.8216 8.57942C12.0855 8.45798 12.3566 8.34085 12.6314 8.22587C14.0283 7.63078 15.4744 7.15908 16.9531 6.81618C19.6356 6.23056 21.6454 6.36076 22.038 7.30317Z" fill="#EAA407"/>
<path fill-rule="evenodd" clip-rule="evenodd" d="M19.9421 8.16957C19.4937 8.66658 18.981 9.10278 18.4171 9.46626L18.3962 9.47976L18.3756 9.49386C17.2361 10.2764 16.0266 10.9512 14.7626 11.5096L14.127 11.7692L14.1189 11.7727C11.9357 12.6909 9.90734 13.223 8.42178 13.3722C8.04635 13.4099 7.73029 13.4205 7.47149 13.4132C7.51411 13.367 7.56029 13.3187 7.61026 13.2683L7.61282 13.2657L7.61537 13.2631C8.53481 12.327 10.2677 11.1605 12.5284 10.1301L12.5313 10.1288L12.5342 10.1275C12.774 10.0171 13.0255 9.9083 13.2892 9.798L13.2943 9.79587L13.2994 9.79371C14.6014 9.239 15.9492 8.79904 17.3273 8.4788C18.4169 8.24161 19.3037 8.15139 19.9421 8.16957ZM16.9531 6.81618C15.4744 7.15908 14.0283 7.63078 12.6314 8.22587C12.3566 8.34085 12.0855 8.45798 11.8216 8.57942C9.45585 9.65775 7.51904 10.9292 6.39958 12.0689C5.54925 12.9273 5.15786 13.7098 5.39867 14.2813C5.99478 15.6993 10.1914 15.2733 14.7796 13.3436L15.4289 13.0784C16.7976 12.4753 18.1071 11.7456 19.3404 10.8987C20.2455 10.3153 21.0426 9.57892 21.6961 8.72254C22.0726 8.18322 22.2037 7.69218 22.038 7.30317C21.6454 6.36076 19.6356 6.23057 16.9531 6.81618ZM6.72109 13.3039C6.71082 13.298 6.70474 13.2955 6.70427 13.2957C6.7038 13.2959 6.70894 13.2989 6.72109 13.3039Z" fill="#FAC856"/>
<path opacity="0.47" d="M18.862 10.7065C17.679 11.5837 16.4297 12.3496 15.1304 12.9941C13.8291 13.0971 12.5538 12.8457 11.4287 12.2643C10.7317 11.8948 9.94622 11.713 9.13712 11.7337C8.32802 11.7544 7.51852 11.9771 6.77543 12.3833C7.86438 11.2249 9.71993 9.90449 11.9671 8.75526C12.5579 8.96904 13.0382 9.40409 13.3219 9.98241C13.9492 11.3352 17.2269 10.9752 18.862 10.7065Z" fill="white"/>
<path opacity="0.47" d="M21.5075 7.43245C21.6362 7.78279 21.5017 8.23894 21.1511 8.74944C20.7759 8.86704 20.3868 8.87985 20.0239 8.78656C19.661 8.69328 19.3374 8.49725 19.0861 8.21861C18.5696 7.64852 17.8738 7.28981 17.1047 7.19707C19.455 6.54596 21.2035 6.58333 21.5075 7.43245Z" fill="white"/>
<path d="M21.6081 15.6064L20.4673 18.2681C20.4079 18.4775 20.6046 18.7981 20.6046 18.7981C20.5916 18.7758 20.816 19.2403 20.9484 19.4138C21.0196 19.5348 21.0951 19.6632 21.199 19.7897C21.4544 20.1133 21.7369 20.4145 22.0432 20.6901C22.1329 20.7756 22.2341 20.8641 22.3389 20.9505C22.8471 21.3784 23.3826 21.7725 23.9419 22.1302L24.2663 22.3392C25.4438 23.0635 26.6749 23.6959 27.9486 24.2307C29.1865 24.756 30.4611 25.1892 31.7619 25.5268C31.8875 25.5565 32.0094 25.5885 32.1329 25.6146C32.7758 25.7648 33.427 25.8762 34.083 25.9482L34.4768 25.983C34.883 26.0123 35.2906 26.0101 35.6962 25.9765C35.8465 25.9599 35.9957 25.9348 36.1431 25.9011C36.3819 25.8829 36.6124 25.8062 36.8143 25.6779C37.0163 25.5496 37.1848 24.9898 37.3029 24.7813L38.3123 22.4787C37.004 21.3824 31.7317 21.6681 29.4424 20.6997C27.2924 19.7925 23.2551 15.8172 21.6081 15.6064Z" fill="#BE8506"/>
<path d="M21.5992 15.6904C21.4335 16.0794 21.5646 16.5704 21.9411 17.1097C22.5946 17.9661 23.3917 18.7025 24.2968 19.2859C25.5301 20.1328 26.8396 20.8626 28.2083 21.4656L28.8576 21.7308C33.4458 23.6605 37.6424 24.0865 38.2385 22.6685C38.4794 22.097 38.088 21.3145 37.2376 20.4561C36.1182 19.3164 34.1814 18.045 31.8156 16.9666C31.5518 16.8452 31.2806 16.7281 31.0058 16.6131C29.6089 16.018 28.1628 15.5463 26.6841 15.2034C24.0016 14.6178 21.9918 14.748 21.5992 15.6904Z" fill="#EAA407"/>
<path fill-rule="evenodd" clip-rule="evenodd" d="M23.6951 16.5568C24.1435 17.0538 24.6562 17.49 25.2201 17.8535L25.241 17.867L25.2616 17.8811C26.4011 18.6636 27.6106 19.3384 28.8746 19.8969L29.5102 20.1565L29.5183 20.1599C31.7015 21.0781 33.7299 21.6102 35.2154 21.7594C35.5909 21.7971 35.9069 21.8077 36.1657 21.8004C36.1231 21.7542 36.0769 21.7059 36.0269 21.6555L36.0244 21.6529L36.0218 21.6503C35.1024 20.7142 33.3695 19.5477 31.1088 18.5173L31.1059 18.516L31.103 18.5147C30.8632 18.4043 30.6117 18.2955 30.348 18.1852L30.3429 18.1831L30.3379 18.1809C29.0358 17.6262 27.688 17.1862 26.3099 16.866C25.2203 16.6288 24.3336 16.5386 23.6951 16.5568ZM26.6841 15.2034C28.1628 15.5463 29.6089 16.018 31.0058 16.6131C31.2806 16.7281 31.5518 16.8452 31.8156 16.9666C34.1814 18.045 36.1182 19.3164 37.2376 20.4561C38.088 21.3145 38.4794 22.097 38.2385 22.6685C37.6424 24.0865 33.4458 23.6605 28.8576 21.7308L28.2083 21.4656C26.8396 20.8626 25.5301 20.1328 24.2968 19.2859C23.3917 18.7025 22.5946 17.9661 21.9411 17.1097C21.5646 16.5704 21.4335 16.0794 21.5992 15.6904C21.9918 14.748 24.0016 14.6178 26.6841 15.2034ZM36.9161 21.6911C36.9264 21.6852 36.9325 21.6827 36.9329 21.6829C36.9334 21.6832 36.9283 21.6861 36.9161 21.6911Z" fill="#FAC856"/>
<path opacity="0.47" d="M24.7752 19.0937C25.9582 19.9709 27.2075 20.7368 28.5068 21.3813C29.8081 21.4843 31.0834 21.2329 32.2085 20.6515C32.9055 20.282 33.691 20.1002 34.5001 20.1209C35.3092 20.1416 36.1187 20.3643 36.8618 20.7706C35.7728 19.6121 33.9173 18.2917 31.6701 17.1425C31.0793 17.3562 30.599 17.7913 30.3154 18.3696C29.688 19.7224 26.4103 19.3624 24.7752 19.0937Z" fill="white"/>
<path opacity="0.47" d="M22.1297 15.8197C22.0011 16.17 22.1355 16.6261 22.4861 17.1366C22.8613 17.2542 23.2504 17.2671 23.6133 17.1738C23.9762 17.0805 24.2999 16.8845 24.5511 16.6058C25.0676 16.0357 25.7634 15.677 26.5325 15.5843C24.1822 14.9332 22.4337 14.9705 22.1297 15.8197Z" fill="white"/>
<path d="M19.4449 37.5388C23.2567 36.9075 25.8349 33.3048 25.2034 29.4919C24.572 25.679 20.97 23.0998 17.1582 23.731C13.3464 24.3623 10.7682 27.965 11.3997 31.7779C12.0311 35.5908 15.6331 38.1701 19.4449 37.5388Z" fill="#BE8506"/>
<path d="M24.2614 30.8365C24.2933 31.319 24.2707 31.8035 24.194 32.2809C24.0132 33.4715 23.5246 34.5943 22.7766 35.538C21.7456 36.8503 20.2789 37.7499 18.642 38.0741C17.8404 38.2355 17.0165 38.253 16.2088 38.1258C14.5848 37.8732 13.1015 37.0568 12.0189 35.8198C10.9364 34.5828 10.3238 33.0041 10.2885 31.3605C10.2782 30.9533 10.304 30.5459 10.3657 30.1432C10.6157 28.5246 11.4256 27.045 12.654 25.9622C13.8825 24.8794 15.4518 24.2619 17.0887 24.2174C17.511 24.2036 17.9337 24.2307 18.3509 24.2983C19.9365 24.5442 21.3894 25.3281 22.4657 26.5187C23.5419 27.7092 24.176 29.2338 24.2614 30.8365Z" fill="#FAC856"/>
<path d="M18.21 36.822C21.3086 36.3088 23.4044 33.3802 22.8911 30.2807C22.3778 27.1812 19.4498 25.0846 16.3512 25.5977C13.2526 26.1109 11.1568 29.0395 11.6701 32.139C12.1834 35.2385 15.1114 37.3351 18.21 36.822Z" fill="#EAA407"/>
<path opacity="0.47" d="M22.2792 35.2509C21.3267 36.4631 19.9719 37.2941 18.4599 37.5935C17.6904 37.355 16.9869 36.9408 16.4049 36.3837C15.8229 35.8266 15.3783 35.1418 15.1062 34.3834C13.8912 31.5557 12.5875 31.4574 10.7434 31.3919C10.7339 31.0158 10.7577 30.6394 10.8147 30.2675C11.0718 28.6164 11.9562 27.1284 13.2835 26.1137C16.775 26.7976 18.4397 29.2623 18.7464 31.6429C18.962 33.2246 20.9783 34.7966 22.2792 35.2509Z" fill="white"/>
<path opacity="0.47" d="M23.8319 30.9574L23.7638 30.9687C23.0177 30.7358 22.3359 30.3328 21.772 29.7914C21.2082 29.25 20.7777 28.5851 20.5145 27.8489C19.597 25.7172 18.6301 25.1877 17.4043 25.0259C17.7828 25.0135 18.1616 25.0378 18.5354 25.0984C19.9563 25.3187 21.2583 26.0212 22.2227 27.0881C23.1872 28.155 23.7553 29.5212 23.8319 30.9574Z" fill="white"/>
</g>
</g>
<defs>
<clipPath id="clip0_3850_8366">
<rect width="52" height="40" fill="white" transform="translate(0.567871 0.306641)"/>
</clipPath>
<clipPath id="clip1_3850_8366">
<rect x="0.567871" y="0.306641" width="40" height="40" rx="4" fill="white"/>
</clipPath>
</defs>
</svg>
