<svg width="32" height="32" viewBox="0 0 32 32" fill="none" xmlns="http://www.w3.org/2000/svg">
<path d="M13.1522 22.2463L21.3812 10.9201L19.7632 9.74451L11.5342 21.0707L13.1522 22.2463Z" fill="black"/>
<path fill-rule="evenodd" clip-rule="evenodd" d="M15.4577 12.9954C15.4577 14.6523 14.1146 15.9954 12.4577 15.9954C10.8009 15.9954 9.45771 14.6523 9.45771 12.9954C9.45771 11.3386 10.8009 9.99543 12.4577 9.99543C14.1146 9.99543 15.4577 11.3386 15.4577 12.9954ZM13.4577 12.9954C13.4577 13.5477 13.01 13.9954 12.4577 13.9954C11.9054 13.9954 11.4577 13.5477 11.4577 12.9954C11.4577 12.4431 11.9054 11.9954 12.4577 11.9954C13.01 11.9954 13.4577 12.4431 13.4577 12.9954Z" fill="black"/>
<path fill-rule="evenodd" clip-rule="evenodd" d="M20.4577 21.9954C22.1146 21.9954 23.4577 20.6523 23.4577 18.9954C23.4577 17.3386 22.1146 15.9954 20.4577 15.9954C18.8009 15.9954 17.4577 17.3386 17.4577 18.9954C17.4577 20.6523 18.8009 21.9954 20.4577 21.9954ZM20.4577 19.9954C21.01 19.9954 21.4577 19.5477 21.4577 18.9954C21.4577 18.4431 21.01 17.9954 20.4577 17.9954C19.9054 17.9954 19.4577 18.4431 19.4577 18.9954C19.4577 19.5477 19.9054 19.9954 20.4577 19.9954Z" fill="black"/>
<path fill-rule="evenodd" clip-rule="evenodd" d="M14.3831 2.83293C15.5432 1.72236 17.3722 1.72236 18.5323 2.83293L19.1667 3.44023C19.8271 4.0725 20.7398 4.36907 21.6458 4.24576L22.516 4.12732C24.1073 3.91073 25.587 4.98576 25.8727 6.56612L26.029 7.43032C26.1917 8.33004 26.7558 9.10646 27.5612 9.53921L28.3348 9.95487C29.7495 10.715 30.3147 12.4544 29.6169 13.9009L29.2354 14.6919C28.8382 15.5154 28.8382 16.4752 29.2354 17.2987L29.6169 18.0897C30.3147 19.5362 29.7495 21.2756 28.3348 22.0357L27.5612 22.4514C26.7558 22.8841 26.1917 23.6606 26.029 24.5603L25.8727 25.4245C25.587 27.0048 24.1073 28.0799 22.516 27.8633L21.6458 27.7448C20.7398 27.6215 19.8271 27.9181 19.1667 28.5504L18.5323 29.1577C17.3722 30.2682 15.5432 30.2682 14.3831 29.1577L13.7488 28.5504C13.0883 27.9181 12.1756 27.6215 11.2696 27.7448L10.3994 27.8633C8.8081 28.0799 7.32846 27.0048 7.0427 25.4245L6.88644 24.5603C6.72376 23.6606 6.15965 22.8841 5.35424 22.4514L4.58063 22.0357C3.16592 21.2756 2.60075 19.5362 3.29848 18.0897L3.68002 17.2987C4.07725 16.4752 4.07725 15.5154 3.68002 14.6919L3.29848 13.9009C2.60075 12.4544 3.16592 10.715 4.58063 9.95487L5.35424 9.53921C6.15965 9.10646 6.72376 8.33004 6.88644 7.43032L7.0427 6.56612C7.32846 4.98576 8.8081 3.91073 10.3994 4.12732L11.2696 4.24576C12.1756 4.36907 13.0883 4.0725 13.7488 3.44023L14.3831 2.83293ZM17.1492 4.27764L17.7836 4.88495C18.8844 5.93872 20.4056 6.433 21.9155 6.22749L22.7857 6.10905C23.3162 6.03685 23.8094 6.3952 23.9046 6.92198L24.0609 7.78618C24.332 9.28571 25.2722 10.5797 26.6145 11.301L27.3882 11.7167C27.8597 11.97 28.0481 12.5499 27.8155 13.032L27.434 13.823C26.772 15.1955 26.772 16.7951 27.434 18.1676L27.8155 18.9586C28.0481 19.4407 27.8597 20.0205 27.3882 20.2739L26.6146 20.6896C25.2722 21.4108 24.332 22.7049 24.0609 24.2044L23.9046 25.0686C23.8094 25.5954 23.3162 25.9537 22.7857 25.8815L21.9155 25.7631C20.4056 25.5576 18.8844 26.0519 17.7836 27.1056L17.1492 27.7129C16.7625 28.0831 16.1529 28.0831 15.7662 27.7129L15.1318 27.1056C14.031 26.0519 12.5098 25.5576 10.9999 25.7631L10.1297 25.8815C9.59926 25.9537 9.10604 25.5954 9.01079 25.0686L8.85453 24.2044C8.58339 22.7049 7.64321 21.4108 6.30086 20.6896L5.52725 20.2739C5.05568 20.0205 4.86729 19.4407 5.09986 18.9586L5.48141 18.1676C6.14345 16.7951 6.14345 15.1955 5.48141 13.823L5.09986 13.032C4.86729 12.5499 5.05568 11.97 5.52725 11.7167L6.30086 11.301C7.64321 10.5798 8.58338 9.28572 8.85453 7.78618L9.01079 6.92198C9.10604 6.3952 9.59926 6.03685 10.1297 6.10905L10.9999 6.22749C12.5098 6.433 14.031 5.93872 15.1318 4.88495L15.7662 4.27764C16.1529 3.90745 16.7625 3.90745 17.1492 4.27764Z" fill="black"/>
</svg>
