<svg width="107" height="143" viewBox="0 0 107 143" fill="none" xmlns="http://www.w3.org/2000/svg">
<path d="M63.6217 13.5811L89.2188 63.4528L89.3824 63.7681L102.876 90.0558C103.394 91.0648 103.523 92.279 103.492 93.3412C103.431 95.4397 101.9 98.3492 100.049 99.5403C99.8732 99.654 99.6878 99.7633 99.4931 99.8591L64.8173 117.642C64.263 117.929 63.2113 118.391 63.2113 118.391L61.6432 119.147C59.071 120.335 52.9506 121.522 45.3692 115.836L16.7873 38.3469C15.1439 35.145 16.4079 31.2168 19.6094 29.5753L55.0597 11.3227L47.5804 5.52255C60.3514 5.52255 62.0439 10.5165 63.6196 13.5795L63.6217 13.5811Z" fill="#8B2A00"/>
<path d="M43.1615 7.76241L8.42089 25.5745C4.51383 27.5777 2.97281 32.369 4.97768 36.2755L43.7421 111.808C45.7467 115.714 50.5382 117.258 54.4449 115.255L89.1855 97.4431C93.0925 95.4398 94.6335 90.6485 92.6287 86.742L53.8643 11.2093C51.8596 7.30318 47.0681 5.7594 43.1615 7.76241Z" fill="#FF5A00" stroke="#FF5A00" stroke-width="2.93935"/>
<path d="M50.7006 17.0119L85.9284 85.6441C87.3576 88.4264 86.2597 91.8444 83.4742 93.2725L54.4003 108.18C51.6148 109.609 48.1994 108.509 46.7698 105.723L11.5424 37.0942C10.1128 34.3083 11.2111 30.8939 13.9967 29.4659L43.0684 14.5563C45.854 13.1283 49.2714 14.2297 50.7006 17.0119Z" fill="#C2C2C2"/>
<path opacity="0.35" d="M50.7009 17.0119L75.9824 66.157C71.5437 66.5445 61.6958 66.3267 46.1717 50.9784C31.6772 36.648 17.7618 40.2396 13.1617 40.2512L11.5427 37.0941C10.1131 34.3082 11.2114 30.8939 13.997 29.4658L43.0687 14.5562C45.8543 13.1282 49.2717 14.2296 50.7009 17.0119Z" fill="#F5F5F5"/>
<path opacity="0.35" d="M79.0053 95.5622L54.4003 108.18C51.6147 109.608 48.1993 108.508 46.7697 105.722L29.4969 72.0739C36.6102 73.0582 44.7612 76.3376 52.3296 84.4643C61.7004 94.5253 71.4531 96.3502 79.0053 95.5622Z" fill="#F5F5F5"/>
<path d="M23.9136 32.3926L39.4548 24.3978" stroke="#8B2A00" stroke-width="5.8787" stroke-linecap="round" stroke-linejoin="round"/>
<path d="M39.9638 50.089C40.0695 48.2409 42.1363 47.2003 43.6839 48.2159L68.1128 64.2472C69.6605 65.2628 69.5283 67.573 67.8749 68.4055L41.7769 81.5459C40.1235 82.3784 38.189 81.1088 38.2947 79.2607L39.9638 50.089Z" fill="#DD1608"/>
<line x1="46.4094" y1="58.4624" x2="49.4542" y2="64.5096" stroke="white" stroke-width="4.80943" stroke-linecap="round"/>
<line x1="52.2927" y1="70.147" x2="52.2494" y2="70.0608" stroke="white" stroke-width="4.80943" stroke-linecap="round"/>
<ellipse cx="57.0091" cy="136.742" rx="41.4812" ry="6.25814" fill="#D1D1D1"/>
</svg>
