<svg width="133" height="165" viewBox="0 0 133 165" fill="none" xmlns="http://www.w3.org/2000/svg">
<g clip-path="url(#clip0_2346_20460)">
<path d="M1.15714 172.438C9.00113 231.899 56.2302 284.399 120.418 297.992C185.803 311.843 250.992 294.877 288.375 248.617C300.159 234.027 309.187 216.513 314.569 196.138C315.483 192.684 316.277 189.236 316.952 185.793C332.909 104.228 282.714 28.6519 201.17 7.08627C155.024 -5.11751 112.375 -6.25619 77.5547 15.7472C48.2276 34.2807 24.3598 61.4243 8.66101 101.175C0.316223 122.173 -1.82809 150.041 1.15714 172.438Z" fill="#FFB380"/>
<path opacity="0.33" d="M1.15695 172.437C9.00095 231.899 56.23 284.396 120.417 297.992C152.167 304.716 183.866 304.178 212.36 296.556C221.232 294.198 229.885 291.084 238.225 287.248C257.705 278.256 274.857 265.36 288.375 248.631C286.709 231.97 282.401 215.681 275.611 200.376C256.812 157.944 219.548 124.2 170.958 111.347C139.848 103.122 110.338 103.201 83.7415 110.873C50.9732 120.321 22.6257 141.298 1.15695 172.437Z" fill="#DEECFF"/>
<path opacity="0.43" d="M82.9729 109.049C101.56 152.342 141.563 187.112 192.057 197.809C220.444 203.819 248.795 204.027 274.846 198.552C289.223 195.59 303.13 190.684 316.183 183.969C332.14 102.403 282.503 22.0077 200.96 0.442117C143.299 -8.2673 97.2388 0.442004 77.3859 16.3095C67.737 47.9475 70.6543 80.3677 82.9729 109.049Z" fill="#FF5A00"/>
<path d="M113.078 115.135C112.359 115.136 111.656 114.923 111.058 114.524C110.461 114.125 109.995 113.557 109.719 112.893C109.444 112.229 109.372 111.498 109.512 110.793C109.652 110.088 109.998 109.441 110.507 108.932C111.015 108.424 111.663 108.078 112.368 107.938C113.073 107.798 113.803 107.87 114.468 108.145C115.132 108.42 115.699 108.886 116.098 109.484C116.497 110.082 116.71 110.785 116.71 111.503C116.71 112.467 116.327 113.391 115.646 114.072C114.965 114.753 114.041 115.135 113.078 115.135Z" stroke="white" stroke-width="1.1023" stroke-miterlimit="10"/>
<path d="M5.98096 151.96V155.076" stroke="white" stroke-width="1.1023" stroke-miterlimit="10" stroke-linecap="round"/>
<path d="M5.98096 159.224V162.341" stroke="white" stroke-width="1.1023" stroke-miterlimit="10" stroke-linecap="round"/>
<path d="M0.787155 157.149H3.90576" stroke="white" stroke-width="1.1023" stroke-miterlimit="10" stroke-linecap="round"/>
<path d="M8.05387 157.149H11.1714" stroke="white" stroke-width="1.1023" stroke-miterlimit="10" stroke-linecap="round"/>
<path d="M8.53857 159.743L7.38717 158.592" stroke="white" stroke-width="1.1023" stroke-miterlimit="10" stroke-linecap="round"/>
<path d="M4.45654 155.658L3.3537 154.557" stroke="white" stroke-width="1.1023" stroke-miterlimit="10" stroke-linecap="round"/>
<path d="M3.3524 159.743L4.50488 158.592" stroke="white" stroke-width="1.1023" stroke-miterlimit="10" stroke-linecap="round"/>
<path d="M7.43789 155.658L8.53857 154.557" stroke="white" stroke-width="1.1023" stroke-miterlimit="10" stroke-linecap="round"/>
<path d="M41.3759 34.2739L26.7077 37.6004C26.5426 37.6379 26.3888 37.7138 26.2586 37.822C26.1285 37.9302 26.0257 38.0676 25.9587 38.223C25.8917 38.3784 25.8623 38.5475 25.873 38.7164C25.8836 38.8853 25.934 39.0493 26.0201 39.195L29.5257 45.1379C29.6413 45.3342 29.8164 45.4887 30.0256 45.5789C30.2348 45.6692 30.4673 45.6905 30.6895 45.6398L41.3678 43.2188C41.5924 43.1682 41.7947 43.0467 41.945 42.8724C42.0952 42.698 42.1854 42.4799 42.2023 42.2504L42.6865 35.4021C42.699 35.2343 42.6719 35.0659 42.6075 34.9105C42.5432 34.7551 42.4432 34.6169 42.3158 34.507C42.1884 34.3972 42.037 34.3187 41.8738 34.2779C41.7105 34.2372 41.54 34.2352 41.3759 34.2723V34.2739Z" stroke="#FF5A00" stroke-width="1.1023" stroke-miterlimit="10"/>
<path d="M42.6138 36.498L26.5784 40.1344" stroke="#FF5A00" stroke-width="1.1023" stroke-miterlimit="10"/>
<path d="M42.3379 40.0942L28.3685 43.2626" stroke="#FF5A00" stroke-width="1.1023" stroke-miterlimit="10"/>
<path d="M38.0059 35.0391L39.9702 43.7015" stroke="#FF5A00" stroke-width="1.1023" stroke-miterlimit="10"/>
<path d="M34.0514 35.9348L36.0156 44.5973" stroke="#FF5A00" stroke-width="1.1023" stroke-miterlimit="10"/>
<path d="M36.4176 35.399L38.2867 29.3464C38.3426 29.1663 38.3501 28.9745 38.3084 28.7905C38.2668 28.6065 38.1774 28.4367 38.0494 28.2981C37.9213 28.1596 37.759 28.0572 37.5788 28.0012C37.3986 27.9453 37.2069 27.9377 37.0229 27.9794L33.0685 28.8768C32.8831 28.9186 32.7122 29.0089 32.5732 29.1385C32.4342 29.2681 32.3322 29.4323 32.2776 29.6144L30.1794 36.5676C30.1263 36.7453 30.1196 36.9337 30.16 37.1147L32.0614 45.5077" stroke="#FF5A00" stroke-width="1.1023" stroke-miterlimit="10"/>
<path d="M38.1301 35.0099L39.9991 28.9492C40.0547 28.7691 40.0619 28.5776 40.0201 28.3938C39.9783 28.21 39.8889 28.0405 39.7608 27.9022C39.6328 27.7638 39.4707 27.6616 39.2907 27.6057C39.1107 27.5498 38.9192 27.5423 38.7353 27.5837L34.781 28.4795C34.5953 28.5213 34.4242 28.6118 34.2852 28.7417C34.1461 28.8717 34.0443 29.0363 33.9901 29.2187L31.7401 36.4593" stroke="#FF5A00" stroke-width="1.1023" stroke-miterlimit="10"/>
<path d="M17.5968 56.6404H7.53369" stroke="#FF5A00" stroke-width="1.1023" stroke-linecap="round" stroke-linejoin="round"/>
<path d="M9.88046 61.9864C9.89611 62.4491 9.81848 62.9101 9.65223 63.3422C9.48598 63.7742 9.2345 64.1683 8.91275 64.5012C8.591 64.834 8.20558 65.0986 7.77942 65.2794C7.35326 65.4601 6.89509 65.5533 6.43218 65.5533C5.96928 65.5533 5.51109 65.4601 5.08494 65.2794C4.65878 65.0986 4.27335 64.834 3.9516 64.5012C3.62986 64.1683 3.37837 63.7742 3.21212 63.3422C3.04587 62.9101 2.96826 62.4491 2.9839 61.9864C2.98385 61.6529 3.03162 61.3212 3.12577 61.0012H9.74056C9.83471 61.3212 9.88248 61.6529 9.88242 61.9864H9.88046Z" stroke="#FF5A00" stroke-width="1.1023" stroke-linecap="round" stroke-linejoin="round"/>
<path d="M18.2252 65.4364C18.9075 65.4364 19.5746 65.234 20.142 64.8549C20.7094 64.4758 21.1516 63.9369 21.4128 63.3065C21.6739 62.676 21.7422 61.9823 21.6091 61.313C21.476 60.6437 21.1474 60.029 20.6649 59.5464C20.1823 59.0639 19.5675 58.7353 18.8983 58.6022C18.229 58.4691 17.5352 58.5374 16.9048 58.7985C16.2743 59.0597 15.7355 59.5019 15.3564 60.0693C14.9773 60.6367 14.7749 61.3037 14.7749 61.9861C14.7749 62.9012 15.1384 63.7788 15.7855 64.4258C16.4325 65.0729 17.3101 65.4364 18.2252 65.4364Z" stroke="#FF5A00" stroke-width="1.1023" stroke-linecap="round" stroke-linejoin="round"/>
<path d="M8.20526 49.1074H1.57471V55.738H8.20526V49.1074Z" stroke="#FF5A00" stroke-width="1.1023" stroke-linecap="round" stroke-linejoin="round"/>
<path d="M11.5609 61.0069H1.57471V60.5714C1.57732 59.5279 1.99366 58.5281 2.73244 57.7912C3.47122 57.0542 4.47211 56.6404 5.5156 56.6404H11.5688V61.0069H11.5609Z" stroke="#FF5A00" stroke-width="1.1023" stroke-linecap="round" stroke-linejoin="round"/>
<path d="M18.2253 61.9863L16.6371 48.471L13.2026 47.2415" stroke="#FF5A00" stroke-width="1.1023" stroke-linecap="round" stroke-linejoin="round"/>
<path d="M17.717 51.6829C17.7531 51.9921 17.8764 52.2846 18.0724 52.5264C18.2685 52.7682 18.5293 52.9492 18.8244 53.0484L19.847 53.3913L19.5239 49.4307L18.4717 50.1065C18.2111 50.2722 18.0024 50.5079 17.8696 50.7868C17.7368 51.0656 17.6853 51.3761 17.7209 51.6829H17.717Z" stroke="#FF5A00" stroke-width="1.1023" stroke-linecap="round" stroke-linejoin="round"/>
<path d="M9.45202 11.5026L22.3261 7.69645L25.4921 18.4103L12.6235 22.2146L9.45202 11.5026Z" stroke="#FF5A00" stroke-width="1.1023" stroke-linecap="round" stroke-linejoin="round"/>
<path d="M14.0246 10.1506L17.7558 9.04679L20.9218 19.7588L17.1906 20.8626L14.0246 10.1506Z" stroke="#FF5A00" stroke-width="1.1023" stroke-linecap="round" stroke-linejoin="round"/>
<path d="M15.8356 9.41825L18.0483 3.61653C18.1506 3.35275 18.3128 3.11634 18.5221 2.92597C18.7314 2.7356 18.982 2.59648 19.2543 2.51958C19.5266 2.44268 19.813 2.4301 20.0909 2.48284C20.3689 2.53559 20.6308 2.65221 20.856 2.8235C21.0811 2.9948 21.2634 3.21608 21.3884 3.46988C21.5134 3.72368 21.5778 4.00307 21.5763 4.28598C21.5749 4.5689 21.5077 4.84761 21.3801 5.10011C21.2525 5.35262 21.0679 5.57201 20.841 5.74098L15.8356 9.41825Z" stroke="#FF5A00" stroke-width="1.1023" stroke-linecap="round" stroke-linejoin="round"/>
<path d="M15.7902 9.4331L10.7795 5.76534C10.5502 5.59968 10.2855 5.48958 10.0064 5.4437C9.72726 5.39782 9.44129 5.41743 9.17104 5.50097C8.90078 5.58452 8.65364 5.72972 8.4491 5.92512C8.24456 6.12051 8.08823 6.36077 7.99242 6.62692C7.89662 6.89307 7.86396 7.17785 7.89704 7.45878C7.93011 7.73971 8.02802 8.00912 8.18303 8.24574C8.33803 8.48236 8.54589 8.67973 8.79022 8.82228C9.03455 8.96482 9.30866 9.04865 9.59093 9.06714L15.7902 9.4331Z" stroke="#FF5A00" stroke-width="1.1023" stroke-linecap="round" stroke-linejoin="round"/>
<path d="M15.79 9.43285C15.79 9.43285 16.9037 4.48438 14.3922 2.38669" stroke="#FF5A00" stroke-width="1.1023" stroke-linecap="round" stroke-linejoin="round"/>
<path d="M79.998 8.52596L76.3323 20.8893L64.4602 14.7622L72.5328 4.67188L79.998 8.52596Z" stroke="#FF5A00" stroke-width="1.1023" stroke-linecap="round" stroke-linejoin="round"/>
<path d="M82.2373 9.68087L78.5698 22.046L76.332 20.8893L79.9977 8.52588L82.2373 9.68087Z" stroke="#FF5A00" stroke-width="1.1023" stroke-linecap="round" stroke-linejoin="round"/>
<path d="M78.6947 7.85333L79.8849 5.5451C80.2162 4.90373 80.2791 4.15704 80.0599 3.46926C79.8407 2.78149 79.3572 2.20897 78.7158 1.87764C78.0744 1.54685 77.3279 1.48417 76.6402 1.70337C75.9526 1.92257 75.3801 2.40572 75.0484 3.04672L73.8582 5.35495" stroke="#FF5A00" stroke-width="1.1023" stroke-linecap="round" stroke-linejoin="round"/>
<path d="M80.3393 8.70213L81.5295 6.39214C81.8607 5.75077 81.9237 5.00408 81.7044 4.31631C81.4852 3.62853 81.0017 3.05601 80.3604 2.72468V2.72468C79.7187 2.39402 78.972 2.33161 78.2844 2.55114C77.5967 2.77068 77.0243 3.25422 76.6929 3.89552L75.5027 6.20375" stroke="#FF5A00" stroke-width="1.1023" stroke-linecap="round" stroke-linejoin="round"/>
<path d="M100.845 20.642C100.845 20.642 88.5965 17.2773 88.7276 30.1777C88.8417 41.4162 90.3538 46.0138 83.5664 48.8098" stroke="#8C2521" stroke-width="0.919514" stroke-miterlimit="10" stroke-linecap="round"/>
<path d="M115.797 25.3058C114.027 25.3058 112.592 23.8711 112.592 22.1012C112.592 20.3313 114.027 18.8965 115.797 18.8965C117.567 18.8965 119.001 20.3313 119.001 22.1012C119.001 23.8711 117.567 25.3058 115.797 25.3058Z" fill="#8B2A00"/>
<path d="M115.245 38.1689C115.245 38.1689 118.799 45.2594 130.685 53.9216C145.034 64.3802 135.691 89.3944 135.691 89.3944" stroke="#8C2521" stroke-width="0.919514" stroke-miterlimit="10" stroke-linecap="round"/>
<path d="M78.0304 49.113C87.4299 46.7529 90.1203 44.9803 89.8257 29.9087C89.7873 28.4507 90.0541 27.0006 90.609 25.6517C94.8183 15.6222 110.92 21.0354 112.688 27.7666L115.598 37.6003C121.047 53.4364 137.526 54.6283 137.526 79.8911C137.526 132.012 30.3298 98.0583 60.0386 60.6205C64.58 54.8974 70.9433 50.8924 78.0304 49.113Z" fill="#8B2A00"/>
<path d="M87.762 59.8985C87.762 59.8985 76.9406 46.5638 59.4562 28.1651L62.9845 22.9221C62.9845 22.9221 76.3276 35.3526 90.9224 46.5196L87.762 59.8985Z" fill="#FDC3A4"/>
<path d="M81.5789 82.7859L98.3481 89.0947L113.604 60.0926L108.5 55.5257L104.311 51.7744L93.2448 47.7081L87.7073 44.0999L85.5243 44.5817L81.5789 82.7859Z" fill="white"/>
<path d="M91.697 50.2553C91.697 50.2553 104.638 56.5267 104.582 53.3714C104.412 44.2155 108.292 36.0335 108.292 36.0335L101.025 34.9011L99.5792 37.285L94.5015 45.6441L91.697 50.2553Z" fill="#FDC3A4"/>
<path d="M113.605 60.0908L125.157 73.3454C125.92 74.2205 126.47 75.2597 126.765 76.3821C127.06 77.5045 127.092 78.6798 126.859 79.8167C126.625 80.9535 126.133 82.0212 125.42 82.9367C124.706 83.8521 123.791 84.5907 122.746 85.0948L111.123 92.4713L109.008 86.801L116.272 78.0265L106.736 70.2089L113.605 60.0908Z" fill="#FDC3A4"/>
<path d="M119.557 66.9208L110.881 78.4181C110.736 78.6102 110.543 78.7609 110.321 78.8549C110.1 78.9488 109.857 78.9829 109.618 78.9535C109.379 78.9242 109.152 78.8326 108.96 78.6878C108.768 78.543 108.617 78.3501 108.522 78.1286L104.999 69.853L113.605 60.0908L119.557 66.9208Z" fill="white"/>
<path d="M80.1995 37.8982L78.1868 53.5401C78.0897 54.2878 78.2461 55.0465 78.6311 55.6947C79.016 56.343 79.6072 56.8434 80.3102 57.116L85.2841 59.0453L88.9536 44.924L80.1995 37.8982Z" fill="white"/>
<path d="M90.6568 46.0222C90.7317 51.7573 92.7121 56.7822 100.427 57.7494C102.919 58.0627 106.694 56.9968 108.5 55.5256L104.312 51.7794L93.7661 46.8549L90.6568 46.0222Z" fill="#FDC3A4"/>
<path d="M54.1776 154.184L63.228 155.797L84.7923 103.739L87.0033 178.336C91.2131 177.217 97.6326 178.336 97.6326 178.336L100.547 155.795C101.046 152.344 102.052 145.408 104.053 131.616C109.331 95.1755 98.3484 89.0999 98.3484 89.0999L81.5791 82.7944C54.1776 95.3952 54.1776 154.184 54.1776 154.184Z" fill="#2D57FD"/>
<path d="M110.321 87.7426L109.016 86.801L107.053 85.8201C104.727 84.6588 102.006 84.7763 99.4975 86.1454L92.3253 90.0618C92.0451 90.2863 91.843 90.5935 91.7479 90.9397C91.6528 91.2859 91.6695 91.6533 91.7957 91.9894L92.1942 92.9276C92.6063 93.9017 93.4475 94.4431 94.3823 94.3342L102.266 93.4181L102.365 93.4691C105.081 94.8671 108.325 94.4908 111.123 92.4713L110.322 87.7392L110.321 87.7426Z" fill="#FDC3A4"/>
<path d="M92.9331 93.3005L98.9968 91.8991C99.4245 91.8022 99.8026 91.5536 100.061 91.1993L100.47 90.6748" stroke="#221F20" stroke-width="1.1023" stroke-miterlimit="10" stroke-linecap="round"/>
<path d="M92.2166 91.7219L98.7451 88.8271" stroke="#221F20" stroke-width="1.1023" stroke-miterlimit="10" stroke-linecap="round"/>
<path d="M63.2026 23.3868L62.181 21.0846C61.8597 20.3581 61.3135 19.754 60.6229 19.3613L60.1614 19.0991L52.6129 14.2478C52.5391 14.2 52.4534 14.1739 52.3655 14.1724C52.2776 14.1709 52.1911 14.1941 52.1157 14.2393C52.0403 14.2846 51.9791 14.35 51.9391 14.4283C51.8991 14.5065 51.8818 14.5944 51.8892 14.682C51.9497 15.4222 52.2629 16.119 52.7764 16.6556L55.6558 19.6661L41.9176 20.7253C41.6662 20.7447 41.43 20.8534 41.2518 21.0317C41.0737 21.2101 40.9652 21.4464 40.946 21.6978C40.9269 21.9492 40.9984 22.1991 41.1475 22.4024C41.2967 22.6057 41.5137 22.7489 41.7592 22.8061L57.1032 26.382L59.4565 28.1648L63.2026 23.3868Z" fill="#FDC3A4"/>
<path d="M44.7253 21.0454C44.7253 21.0454 47.7172 22.0126 52.0576 22.36" stroke="#221F20" stroke-width="1.1023" stroke-miterlimit="10" stroke-linecap="round"/>
<path d="M55.6745 20.0613C55.6745 20.0613 55.3561 22.5014 58.0142 22.4912" stroke="#221F20" stroke-width="1.1023" stroke-miterlimit="10" stroke-linecap="round"/>
<path opacity="0.25" d="M94.4997 45.6425C95.2864 45.8264 96.4136 45.9167 97.9972 45.8537C106.15 45.5301 107.192 38.1672 107.192 38.1672L99.5808 37.2817L94.4997 45.6425Z" fill="#221F20"/>
<path d="M108.783 35.6402C107.748 39.1479 101.158 43.061 96.3884 41.7583C91.6188 40.4557 92.0905 36.2396 93.6179 30.6493C94.1502 28.6519 95.1794 26.8219 96.6098 25.3297C98.9171 22.9458 102.071 21.8236 105.08 22.6478C108.579 23.6048 111.167 25.9035 111.538 29.8694C111.799 34.2711 108.783 35.6402 108.783 35.6402Z" fill="#FDC3A4"/>
<path d="M96.4465 38.0105C94.914 37.6869 94.633 35.807 94.633 35.807C94.633 35.807 95.5577 34.6713 99.0603 35.3967C99.1913 35.4236 99.3128 35.4845 99.4127 35.5735C99.5125 35.6624 99.5871 35.7761 99.6289 35.9031C99.6707 36.0301 99.6783 36.1658 99.6508 36.2967C99.6233 36.4275 99.5618 36.5488 99.4724 36.6482C98.7794 37.3958 97.6776 38.2659 96.4465 38.0105Z" fill="white"/>
<path d="M98.9921 29.0624C98.9921 29.0624 100.494 28.4937 101.456 30.1777" stroke="#221F20" stroke-width="1.1023" stroke-miterlimit="10" stroke-linecap="round"/>
<path d="M102.978 36.1375C104.102 36.0796 104.98 35.4223 104.941 34.668C104.902 33.9136 103.96 33.3483 102.836 33.4062C101.713 33.4641 100.834 34.1214 100.873 34.8757C100.912 35.63 101.856 36.2022 102.978 36.1375Z" fill="#FD9A65"/>
<path d="M103.14 21.5171C103.14 21.5171 102.558 36.8423 112.271 34.9028C112.271 34.9028 117.318 23.8942 103.14 21.5171Z" fill="#8B2A00"/>
<path d="M106.031 23.6473C106.031 23.6473 104.732 27.0291 100.242 25.9546C95.7514 24.8802 94.7927 27.7647 94.7927 27.7647C94.7927 27.7647 95.5965 21.0301 103.136 21.5171L106.031 23.6473Z" fill="#8B2A00"/>
<path d="M111.315 36.6484C111.052 37.2598 110.557 37.7419 109.939 37.9887C109.321 38.2355 108.63 38.2268 108.018 37.9647C106.745 37.4164 107.184 36.3845 107.732 35.1091C108.281 33.8337 108.727 32.8052 109.999 33.3518C110.302 33.4816 110.576 33.6699 110.806 33.9059C111.037 34.1419 111.218 34.421 111.34 34.7272C111.462 35.0334 111.523 35.3607 111.519 35.6903C111.514 36.02 111.445 36.3455 111.315 36.6484Z" fill="#FDC3A4"/>
<path d="M109.323 34.3325C109.323 34.3325 111.123 34.8996 110.246 36.6841" stroke="#221F20" stroke-width="1.1023" stroke-miterlimit="10" stroke-linecap="round"/>
<path d="M98.9922 31.5452L98.8492 32.4579" stroke="#221F20" stroke-width="1.1023" stroke-miterlimit="10" stroke-linecap="round"/>
<path d="M94.6328 30.176L94.4898 31.0887" stroke="#221F20" stroke-width="1.1023" stroke-miterlimit="10" stroke-linecap="round"/>
<path d="M94.3061 34.5844C94.2465 34.5077 94.1869 34.4277 94.1358 34.346C93.8832 33.9917 93.7758 33.5541 93.8356 33.1232C93.8955 32.6922 94.118 32.3005 94.4576 32.0284C95.0818 31.5215 95.6215 30.9185 96.0565 30.2422C96.2959 29.8814 96.4324 29.4623 96.4516 29.0298C96.4703 28.4151 96.2456 27.6386 95.0894 27.3542" stroke="#221F20" stroke-width="1.1023" stroke-miterlimit="10" stroke-linecap="round"/>
<path d="M104.724 49.6406L104.203 51.9735L106.333 53.5911C106.333 53.5911 104.77 51.9139 104.724 49.6406Z" fill="#FDC3A4"/>
<path d="M87.3398 52.4316L86.9516 53.6236C86.7428 54.2628 86.4178 54.858 85.9929 55.3792L84.8299 56.8027C84.1511 57.6337 83.7328 58.6467 83.6274 59.7145C83.522 60.7823 83.7341 61.8574 84.2373 62.8051L84.7907 63.8489C85.2605 64.7347 85.4773 65.7327 85.4174 66.7335" stroke="#221F20" stroke-width="1.1023" stroke-miterlimit="10" stroke-linecap="round"/>
<path d="M105.679 68.3203C105.679 68.3203 102.082 73.1954 97.1255 69.0815" stroke="#221F20" stroke-width="1.1023" stroke-miterlimit="10" stroke-linecap="round"/>
<path opacity="0.25" d="M119.557 66.9207L113.243 75.5368L115.18 77.1256L119.557 66.9207Z" fill="#221F20"/>
<path d="M97.5989 95.395C97.5989 95.395 96.487 102.009 102.915 104.25" stroke="#79A5FE" stroke-width="1.1023" stroke-miterlimit="10" stroke-linecap="round"/>
<path opacity="0.25" d="M79.2563 45.2594L66.5006 35.6846L78.7404 49.2951L79.2563 45.2594Z" fill="#221F20"/>
<path opacity="0.25" d="M84.7925 103.747C84.7925 103.747 83.9206 103.087 80.2119 99.3779L78.2009 119.652L84.7925 103.747Z" fill="#221F20"/>
<path d="M21.0787 171.55L30.7067 172.731L54.721 172.338L79.1292 172.731L85.3442 113.301L80.103 110.066L76.3807 107.656L76.1423 107.501L75.3215 106.967L65.7347 100.23L53.3434 100.811L51.8586 101.238L42.5749 102.788L40.6218 103.108L37.8973 103.564C31.3347 105 26.1054 109.524 24.1659 115.419L23.6206 118.797L21.0787 171.55Z" fill="#F55905"/>
<path d="M40.6219 103.178C40.6219 109.773 45.3897 113.676 52.1158 115.578C59.0786 117.541 70.6764 113.953 78.3696 108.949L76.1475 107.501L75.3267 106.967L65.7399 100.23L53.3486 100.811L51.8638 101.238L40.6372 103.111C40.63 103.133 40.6248 103.155 40.6219 103.178Z" fill="white"/>
<path d="M42.5732 102.783C43.6936 107.78 48.0136 110.876 53.781 112.506C59.608 114.149 69.8146 111.712 76.3857 107.654L76.1474 107.499L75.3266 106.965L70.1569 103.331L65.7398 100.229L64.2924 100.297L62.0788 100.402L53.3468 100.809L51.862 101.237L48.3525 101.822L44.8379 102.408L43.6459 102.607L42.5732 102.783Z" fill="#FDC3A4"/>
<path d="M47.5677 106.626L70.1826 106.728L70.1503 103.328L70.0226 90.2721L69.9953 87.4267L69.9868 86.5617L69.8318 70.7954L69.8301 70.6303V70.5928L69.8148 69.0262L54.1865 65.8965L50.442 88.9337L50.2155 90.3215L48.3476 101.817L48.087 103.421L47.9542 104.242L47.7686 105.383L47.5677 106.626Z" fill="#FDC3A4"/>
<path opacity="0.25" d="M43.6375 102.604C44.2812 103.305 45.48 104.668 47.7736 105.381C47.8775 105.413 47.9831 105.446 48.0921 105.475C51.5894 106.415 55.3094 106.048 58.5558 104.443C59.7994 103.835 60.9791 103.104 62.0772 102.262C64.3574 100.511 66.2412 98.2968 67.605 95.7658C68.9688 93.2349 69.7816 90.444 69.9901 87.5766C69.9901 87.5272 69.9901 87.4762 69.9986 87.4268C70.0123 87.2139 70.0208 87.0011 70.0259 86.7865L69.8352 70.7955V70.6252L67.6743 70.0122C67.7033 70.2234 67.8208 71.715 68.3095 80.3465C68.9616 91.8302 61.4318 92.2764 61.4318 92.2764C56.9483 89.2488 53.0098 89.3986 50.447 90.0934L50.2206 90.3164L48.3475 101.814L44.8329 102.4L43.6375 102.604Z" fill="#221F20"/>
<path d="M70.1193 100.123L70.15 103.326L73.1367 105.439C73.1367 105.439 70.4735 103.43 70.1193 100.123Z" fill="#FDC3A4"/>
<path opacity="0.25" d="M0.802691 97.4365L0.812655 97.4744C0.762836 97.5561 0.802691 97.4365 0.802691 97.4365Z" fill="#221F20"/>
<path d="M19.1476 102.712C18.4568 103.414 18.0601 104.355 18.0353 105.339L17.9021 110.612L6.96536 110.878L4.28191 110.943L4.60171 103.487C4.63918 102.605 4.31457 101.746 3.70288 101.11L3.60156 101.006C3.20534 100.592 2.88495 100.119 2.64988 99.6039C2.55871 99.4028 2.48088 99.1969 2.41878 98.9848C2.32774 98.6865 2.2653 98.3791 2.23098 98.0647L1.7641 93.7529C1.7505 93.2675 1.79739 92.7912 1.89951 92.3369C2.448 89.8582 4.61339 87.9644 7.26592 87.862L11.9007 87.6971L12.6666 78.7255C12.6797 78.5768 12.7047 78.4292 12.7401 78.2883C13.0443 77.0787 14.1531 76.2052 15.4407 76.2314C16.9198 76.2611 18.1051 77.4666 18.1111 78.9485L18.1614 92.1072L19.7798 92.6459C20.9063 93.0224 21.7133 94.0172 21.8498 95.1978L22.0845 97.2599C22.244 98.6549 21.7642 100.047 20.781 101.049L19.1476 102.712Z" fill="#FDC3A4"/>
<path d="M11.7134 87.9256C14.4096 90.5966 13.9557 93.5203 13.4604 95.4251C13.1323 96.6893 12.0292 97.5967 10.7286 97.7029C7.89532 97.9361 5.01049 97.9234 4.38646 97.248C3.06374 95.8156 3.4707 93.3763 3.4707 93.3763" stroke="#221F20" stroke-width="0.87525" stroke-linecap="round" stroke-linejoin="round"/>
<path d="M8.0127 88.0254C8.0127 88.0254 11.2895 91.1178 9.95103 97.6955" stroke="#221F20" stroke-width="0.87525" stroke-linecap="round" stroke-linejoin="round"/>
<path d="M4.44043 88.9822C4.44043 88.9822 7.35481 91.6554 6.54591 97.6898" stroke="#221F20" stroke-width="0.87525" stroke-linecap="round" stroke-linejoin="round"/>
<path d="M18.1617 92.1054L13.3319 90.7914C12.1947 90.4811 11.0262 91.1654 10.7388 92.3082C10.4676 93.3863 11.0829 94.4909 12.1428 94.8264L15.6387 95.9365C15.6387 95.9365 9.7029 96.1448 10.6445 102.265" fill="#FDC3A4"/>
<path d="M18.1617 92.1054L13.3319 90.7914C12.1947 90.4811 11.0262 91.1654 10.7388 92.3082C10.4676 93.3863 11.0829 94.4909 12.1428 94.8264L15.6387 95.9365C15.6387 95.9365 9.7029 96.1448 10.6445 102.265" stroke="#221F20" stroke-width="0.87525" stroke-linecap="round" stroke-linejoin="round"/>
<path opacity="0.25" d="M12.4931 80.2229C12.4931 80.2229 12.9824 88.2141 14.9956 91.1285L13.5221 90.8511L11.8712 87.7199L12.4912 80.2224L12.4931 80.2229Z" fill="#221F20"/>
<path opacity="0.25" d="M10.5657 101.147C10.5657 101.147 9.02744 101.554 7.08844 101.364L6.96578 110.879L4.28234 110.943L4.60214 103.487C4.6396 102.606 4.31499 101.746 3.7033 101.11L3.60198 101.006C3.20576 100.592 2.88537 100.119 2.65031 99.6042C2.55913 99.403 2.4813 99.1971 2.4192 98.985L2.42301 98.986C2.33197 98.6877 2.26572 98.3794 2.2314 98.0649L1.76452 93.7532C1.75092 93.2677 1.79781 92.7914 1.89993 92.3371C2.83566 93.2307 7.05723 96.8666 10.7801 93.8132C10.7801 93.8132 11.0686 95.2508 15.6393 95.9366C15.6393 95.9366 10.3892 96.2931 10.5657 101.147Z" fill="#221F20"/>
<path d="M2.13843 141.37L3.14942 114.073L17.3218 112.499L24.0144 121.947L22.046 150.685L16.209 152.369C8.99727 154.449 1.86063 148.871 2.13843 141.37Z" fill="#D24803"/>
<path d="M21.3031 114.544C21.3178 113.303 21.34 111.797 21.3598 110.492C21.3663 110.103 21.2917 109.716 21.1409 109.357C20.9901 108.997 20.7663 108.673 20.4837 108.405C20.2011 108.137 19.8659 107.93 19.4993 107.798C19.1326 107.667 18.7426 107.612 18.3539 107.639L4.58895 108.578C3.93136 108.622 3.3102 108.896 2.83361 109.351C2.35702 109.807 2.05518 110.415 1.98065 111.069L1.48185 115.535C1.43483 115.951 1.48113 116.372 1.6174 116.768C1.75367 117.163 1.97647 117.524 2.26958 117.823C2.5627 118.122 2.91875 118.352 3.31186 118.495C3.70496 118.639 4.12522 118.694 4.54205 118.655L18.7582 117.328C19.4517 117.261 20.0959 116.939 20.566 116.425C21.0361 115.911 21.2987 115.24 21.3031 114.544Z" fill="#FA6E22"/>
<path d="M71.9498 65.3946L71.9601 65.395C71.9578 65.3136 71.9498 65.3946 71.9498 65.3946Z" stroke="#221F20" stroke-width="0.17028" stroke-miterlimit="10"/>
<path d="M40.7593 74.9288C40.8389 77.479 40.6938 81.5512 40.9343 84.7988C41.4816 91.915 46.6224 95.7359 54.0425 95.5061C63.6645 95.2133 70.7758 89.733 70.4404 78.5811C70.382 76.6809 70.5491 74.7648 70.6828 72.8749C70.7309 72.195 70.7739 71.515 70.8015 70.8344C70.8504 69.8261 70.838 68.8156 70.7645 67.8087C70.7208 67.2254 70.643 66.6452 70.5316 66.071C69.5696 61.1704 67.2022 57.1723 61.1881 55.7211C59.35 55.279 57.1715 55.0668 54.589 55.1452C53.6773 55.17 52.7696 55.2768 51.877 55.4644C46.2112 56.67 42.7349 61.1296 41.3885 67.3587C40.8741 69.8475 40.6628 72.3893 40.7593 74.9288Z" fill="#FDC3A4"/>
<path d="M52.4529 73.1184C52.4529 73.1184 55.2342 71.045 58.2044 73.952" stroke="#221F20" stroke-width="2.55421" stroke-miterlimit="10" stroke-linecap="round"/>
<path d="M53.2401 78.4764L53.4903 80.4465" stroke="#221F20" stroke-width="1.7028" stroke-miterlimit="10" stroke-linecap="round"/>
<path d="M43.9428 78.6427L44.193 80.611" stroke="#221F20" stroke-width="1.7028" stroke-miterlimit="10" stroke-linecap="round"/>
<path d="M40.9344 84.799C40.2557 92.7541 42.5239 100.496 49.9346 100.003C74.1017 98.3966 70.9466 76.0451 70.8896 67.1199L67.8018 66.175C67.8219 66.375 67.8892 67.7883 68.0899 75.928C68.355 86.7605 60.8166 86.9146 60.8166 86.9146C53.1128 81.6205 46.7673 85.644 46.7673 85.644L45.1477 86.5797C45.1477 86.5797 42.7375 86.6523 40.9344 84.799Z" fill="#262626"/>
<path d="M55.6079 87.8724C55.7244 87.8595 55.8421 87.8798 55.9474 87.9311C56.0528 87.9823 56.1415 88.0623 56.2032 88.1619C56.2649 88.2615 56.2972 88.3765 56.2962 88.4936C56.2952 88.6108 56.261 88.7252 56.1977 88.8238C55.3277 90.1917 54.0315 91.5171 52.2322 91.6609C50.3782 91.8096 49.1153 90.5276 48.4611 89.6165C48.3983 89.529 48.3594 89.4266 48.3483 89.3195C48.3373 89.2124 48.3544 89.1042 48.398 89.0057C48.4417 88.9072 48.5103 88.8218 48.597 88.758C48.6838 88.6942 48.7858 88.6542 48.8928 88.642L55.6079 87.8724Z" fill="white"/>
<path d="M75.4778 76.4587C75.488 77.0196 75.3875 77.577 75.1822 78.0991C74.9768 78.6211 74.6706 79.0976 74.2811 79.5013C73.8915 79.905 73.4263 80.228 72.9119 80.4518C72.3975 80.6757 71.844 80.7959 71.2831 80.8058C68.9234 80.8479 68.8841 78.9381 68.8421 76.5767C68.8001 74.2154 68.7744 72.3061 71.1307 72.2639C71.6916 72.2538 72.249 72.3543 72.7711 72.5596C73.2931 72.765 73.7696 73.0711 74.1733 73.4607C74.577 73.8502 74.9 74.3155 75.1238 74.8299C75.3477 75.3443 75.468 75.8978 75.4778 76.4587Z" fill="#FDC3A4"/>
<path d="M70.7683 74.2598C70.7683 74.2598 73.9578 73.881 73.8458 77.266" stroke="#221F20" stroke-width="1.1023" stroke-miterlimit="10" stroke-linecap="round"/>
<path d="M37.2004 80.1087C37.1472 77.1196 39.1156 74.6606 41.597 74.6164C44.0784 74.5722 46.1331 76.9596 46.1864 79.9487C46.2396 82.9379 44.2711 85.3969 41.7897 85.4411C39.3083 85.4853 37.2536 83.0979 37.2004 80.1087Z" stroke="white" stroke-width="1.1023" stroke-linecap="round" stroke-linejoin="round"/>
<path d="M45.6132 85.4153C45.4466 85.3089 45.2801 85.199 45.129 85.088C43.6746 84.0633 43.4248 82.1307 44.5698 80.6976C45.5582 79.4377 46.3379 78.0273 46.8791 76.5202C47.1756 75.7447 47.2342 74.8985 47.0475 74.0896C46.7654 72.9669 45.9027 71.6906 43.4162 71.8491L50.2857 71.7207L50.503 83.9436L45.6132 85.4153Z" fill="#FDC3A4"/>
<path d="M45.6136 85.4155C45.447 85.3091 45.2806 85.1992 45.1295 85.0882C43.6751 84.0635 43.4253 82.1309 44.5702 80.6978C45.5586 79.4379 46.3383 78.0275 46.8795 76.5204C47.1761 75.7449 47.2347 74.8987 47.0479 74.0898C46.7659 72.9671 45.9031 71.6908 43.4166 71.8493" stroke="#221F20" stroke-width="1.1023" stroke-miterlimit="10" stroke-linecap="round"/>
<path d="M53.8621 85.2184C50.8743 85.112 48.5385 82.6037 48.645 79.6159C48.7514 76.6282 51.2597 74.2924 54.2474 74.3989C57.2352 74.5053 59.571 77.0136 59.4645 80.0013C59.3581 82.9891 56.8498 85.3248 53.8621 85.2184Z" stroke="white" stroke-width="1.1023" stroke-linecap="round" stroke-linejoin="round"/>
<path opacity="0.25" d="M40.9423 69.6259L45.6664 68.013C45.6664 68.013 45.2727 69.6259 46.4538 71.2007C48.4222 73.1308 51.3604 72.8829 53.9755 72.4074L54.3273 72.3434C54.3273 72.3434 56.6384 71.027 57.4768 70.63L63.382 67.6193C63.382 67.6193 61.8072 75.8865 68.4997 77.0675L68.4997 71.556L70.0745 71.556L70.0745 67.6192L70.0745 63.6825L66.7201 58.9584C66.2552 58.5034 66.9711 55.8877 66.4392 55.5132C66.3745 55.4671 66.252 57.2025 66.252 57.2025C66.252 57.2025 61.9297 52.7888 60.6995 53.8406C60.4059 54.0942 60.8319 54.9085 61.2107 55.5132C61.4607 55.9106 61.697 56.2121 61.697 56.2121C58.4748 55.5518 55.1921 55.2316 51.903 55.2567C46.2284 56.4722 42.517 60.5713 40.9423 69.6259Z" fill="#221F20"/>
<path d="M69.553 70.7665L68.8935 71.1622L68.4998 74.7053C65.0355 75.0202 64.8793 68.0132 65.5354 64.0764L54.0123 70.3318C52.6378 71.078 50.9546 70.9547 49.7035 70.0164C48.1568 68.8564 47.661 66.7562 48.5256 65.027L49.0009 64.0764L48.0348 64.6447C40.7655 68.9207 31.8324 65.7005 35.7205 58.2166C36.8008 56.1372 38.4166 54.0866 40.7337 52.2661C49.7035 46.7542 55.8497 48.5352 61.8074 50.6911C64.6286 51.7121 67.0105 54.4245 67.5038 57.3839C70.46 56.8815 73.1349 59.214 73.0397 62.2111L72.9517 64.9797C72.876 67.361 71.5958 69.5406 69.553 70.7665Z" fill="#262626"/>
<path d="M40.9797 72.0948C40.9797 72.0948 43.4163 69.941 45.8356 72.7193" stroke="#221F20" stroke-width="2.55421" stroke-miterlimit="10" stroke-linecap="round"/>
<path d="M45.607 77.4086C45.607 77.4086 46.5731 75.3983 49.0673 77.7022" stroke="white" stroke-width="1.1023" stroke-linecap="round" stroke-linejoin="round"/>
<path d="M39.5389 138.763L40.1791 139.444L47.0619 146.727L57.7282 158.017L65.3909 166.122C73.8453 174.006 86.4699 171.511 90.1735 163.355L91.2939 160.157L97.9008 141.299C99.3243 132.124 96.7207 122.784 88.5354 115.756L85.3545 113.308L72.592 144.025L55.5452 132.434L48.0836 127.359L47.5727 128.049L44.9674 131.528L42.6295 134.651L39.8113 138.414L39.5389 138.763Z" fill="#FA6E22"/>
<path d="M35.6343 104.974L42.42 134.48C42.5314 134.97 42.5312 135.478 42.4194 135.968C42.3075 136.457 42.0868 136.915 41.7738 137.308C41.4607 137.701 41.0632 138.018 40.6109 138.236C40.1585 138.454 39.6629 138.567 39.1608 138.567H26.7746C26.0187 138.567 25.285 138.311 24.6932 137.841C24.1014 137.37 23.6862 136.714 23.5154 135.977L16.6038 106.103C16.5128 105.702 16.5112 105.286 16.599 104.884C16.6868 104.482 16.862 104.104 17.112 103.777C17.3621 103.45 17.6809 103.183 18.0459 102.993C18.411 102.803 18.8133 102.696 19.2244 102.679L31.9596 102.153C32.8057 102.118 33.6371 102.381 34.3087 102.897C34.9803 103.413 35.4495 104.148 35.6343 104.974Z" fill="#020775"/>
<path d="M24.4146 104.908C24.3288 104.908 24.2465 104.874 24.1858 104.813C24.1251 104.752 24.091 104.67 24.091 104.584C24.091 104.498 24.1251 104.416 24.1858 104.355C24.2465 104.295 24.3288 104.261 24.4146 104.261L31.1645 103.906C31.8404 103.853 32.5128 104.046 33.0575 104.45C33.6022 104.853 33.9822 105.441 34.1274 106.103L40.2285 134.029L32.8928 107.448C32.7441 106.894 32.4291 106.399 31.9904 106.03C31.5516 105.661 31.0102 105.435 30.4391 105.383L24.4146 104.908Z" fill="#2D57FD"/>
<path d="M19.5781 104.542L19.5798 104.542C20.297 104.379 21.0103 104.829 21.173 105.546L21.7873 108.254C21.95 108.972 21.5005 109.685 20.7833 109.848L20.7816 109.848C20.0644 110.011 19.3511 109.561 19.1885 108.844L18.5741 106.135C18.4114 105.418 18.861 104.705 19.5781 104.542Z" fill="#2D57FD"/>
<path d="M19.8937 106.863C19.3924 106.863 18.9861 106.456 18.9861 105.955C18.9861 105.454 19.3924 105.047 19.8937 105.047C20.3949 105.047 20.8013 105.454 20.8013 105.955C20.8013 106.456 20.3949 106.863 19.8937 106.863Z" fill="white"/>
<path d="M17.6546 121.646L19.892 130.54C19.9159 130.634 19.9414 130.726 19.9687 130.818C20.2895 131.866 20.902 132.802 21.7349 133.515C22.5677 134.229 23.5864 134.69 24.6718 134.846L35.8167 136.44C36.865 136.593 37.8594 137.003 38.7114 137.632L42.5206 140.427L44.879 136.725L49.4766 129.529L44.0072 125.353C42.9956 124.379 42.399 123.053 42.3418 121.65L42.1715 117.289C42.1396 116.423 41.8937 115.578 41.4557 114.831C41.0177 114.083 40.4013 113.456 39.6616 113.005L37.1721 111.717L38.3368 116.555C38.3368 116.555 40.2099 122.702 23.5684 119.084C22.2947 118.808 20.9092 118.471 19.4119 118.074L18.7989 115.845C18.7989 115.845 15.4205 116.758 17.6546 121.646Z" fill="#FDC3A4"/>
<path d="M54.4144 129.561C53.4064 128.837 52.1855 127.955 51.128 127.191C50.8126 126.962 50.4531 126.801 50.0723 126.719C49.6915 126.636 49.2978 126.634 48.916 126.711C48.5341 126.789 48.1726 126.945 47.8543 127.17C47.536 127.395 47.2678 127.683 47.0668 128.017L39.9406 139.831C39.5998 140.395 39.4678 141.061 39.5673 141.712C39.6669 142.364 39.9918 142.96 40.4855 143.396L43.857 146.366C44.1708 146.643 44.5424 146.847 44.9449 146.962C45.3473 147.078 45.7704 147.102 46.1833 147.033C46.5963 146.965 46.9888 146.805 47.3322 146.565C47.6756 146.326 47.9613 146.013 48.1685 145.649L55.2352 133.243C55.5783 132.636 55.6843 131.924 55.5326 131.244C55.381 130.564 54.9826 129.964 54.4144 129.561Z" fill="#FCA06F"/>
<path d="M21.4009 123.919C21.4009 123.919 19.4784 124.028 17.6547 121.646" stroke="#221F20" stroke-width="1.1023" stroke-miterlimit="10" stroke-linecap="round"/>
<path d="M21.8228 129.122C21.8228 129.122 19.8935 128.769 18.9859 126.997" stroke="#221F20" stroke-width="1.1023" stroke-miterlimit="10" stroke-linecap="round"/>
<path d="M78.3696 130.097L72.5818 144.03L64.5871 138.594" stroke="#221F20" stroke-width="1.1023" stroke-miterlimit="10" stroke-linecap="round"/>
<path d="M62.9067 163.498L48.627 148.382" stroke="#221F20" stroke-width="1.1023" stroke-miterlimit="10" stroke-linecap="round"/>
<path d="M75.0391 143.762L72.8748 141.208C72.2516 140.472 70.8927 140.564 70.7718 141.739L70.3512 146.316" fill="#FA6E22"/>
<path d="M75.0391 143.762L72.8748 141.208C72.2516 140.472 70.8927 140.564 70.7718 141.739L70.3512 146.316" stroke="#221F20" stroke-width="1.1023" stroke-miterlimit="10" stroke-linecap="round"/>
<path opacity="0.25" d="M23.2269 134.923L22.4396 144.387H27.4074C30.2348 144.387 32.9044 145.69 34.6435 147.919C34.6435 147.919 33.4625 152.654 38.1789 155.409L52.3151 165.645L61.0199 171.55C71.6493 176.274 86.4699 171.511 90.1735 163.355L91.2939 160.157C89.6421 161.178 87.8898 162.025 86.0646 162.688C83.4679 163.645 80.1712 164.436 76.8201 164.12C74.7938 163.947 72.8325 163.32 71.0817 162.286C70.0184 161.647 69.0449 160.869 68.1869 159.973C57.0832 149.668 49.9969 142.418 49.9969 142.418L49.8996 142.404C46.4796 141.916 43.4705 139.891 41.7297 136.907L42.8986 134.923L19.9618 130.818C20.2159 131.652 20.6567 132.418 21.2508 133.057L23.2269 134.923Z" fill="#221F20"/>
</g>
<defs>
<clipPath id="clip0_2346_20460">
<rect width="137" height="164.557" fill="white"/>
</clipPath>
</defs>
</svg>
