<svg width="28" height="28" viewBox="0 0 28 28" fill="none" xmlns="http://www.w3.org/2000/svg">
<path d="M27.7308 15.5515C27.634 16.4342 27.4379 17.3031 27.1462 18.1417C26.4378 20.2369 25.1945 22.1108 23.5397 23.5777C21.2548 25.6204 18.3143 26.7773 15.2505 26.8391C13.7492 26.8741 12.2538 26.6418 10.8339 26.153C7.97806 25.1761 5.55728 23.2246 3.99602 20.6408C2.43476 18.0571 1.8327 15.006 2.29544 12.0226C2.40724 11.2829 2.58444 10.5545 2.82493 9.84606C3.79574 6.99911 5.73415 4.58302 8.30254 3.0185C10.8709 1.45399 13.9066 0.840184 16.8808 1.28407C17.649 1.39441 18.4046 1.57887 19.1373 1.83483C21.9259 2.78733 24.3021 4.67048 25.8669 7.16814C27.4316 9.6658 28.0898 12.6259 27.7308 15.5515V15.5515Z" fill="#0626FC"/>
<path d="M25.7303 15.5515C25.6335 16.4342 25.4374 17.3031 25.1457 18.1417C24.4373 20.2369 23.1941 22.1108 21.5392 23.5777C19.2543 25.6204 16.3138 26.7773 13.25 26.8391C11.7487 26.8741 10.2533 26.6418 8.83337 26.153C5.97757 25.1761 3.55679 23.2246 1.99553 20.6408C0.434274 18.0571 -0.16779 15.006 0.294952 12.0226C0.406756 11.2829 0.583948 10.5545 0.824444 9.84606C1.79525 6.99911 3.73366 4.58302 6.30205 3.0185C8.87045 1.45399 11.9061 0.840184 14.8803 1.28407C15.6485 1.39441 16.4041 1.57887 17.1368 1.83483C19.9254 2.78733 22.3016 4.67048 23.8664 7.16814C25.4312 9.6658 26.0893 12.6259 25.7303 15.5515V15.5515Z" fill="#79A5FE"/>
<path d="M12.8727 24.4375C18.6404 24.5023 23.3685 19.8778 23.4333 14.1085C23.498 8.33917 18.8749 3.60973 13.1073 3.54498C7.33966 3.48023 2.61156 8.10468 2.54679 13.874C2.48201 19.6433 7.1051 24.3728 12.8727 24.4375Z" fill="#0626FC"/>
<path fill-rule="evenodd" clip-rule="evenodd" d="M17.506 18.0297C17.2646 18.1084 17.011 18.1473 16.7564 18.144C15.939 18.1348 15.5498 17.7139 15.1998 17.0842C15.0818 16.8842 15.0229 16.4482 15.0229 16.4482L15.0614 13.0197L18.084 13.0536L17.9358 11.6853C17.8654 11.0108 17.2847 10.4941 16.586 10.4837L15.09 10.4669L15.1376 6.22937C15.1376 6.22937 14.2321 6.27776 13.9292 6.29523C12.3807 6.39547 11.3238 7.38368 11.3107 8.55163L11.2954 10.5231L8.61869 10.5898L8.60762 11.576C8.59912 12.3331 9.22501 12.9542 10.0065 12.963L11.2678 12.9771L11.2284 16.4886L11.2427 17.0005C11.235 18.443 12.0337 19.7769 13.329 20.4855C14.6252 21.1941 16.2151 21.1666 17.4824 20.413L17.506 18.0302L17.506 18.0297Z" fill="#020775"/>
<path fill-rule="evenodd" clip-rule="evenodd" d="M15.924 18.0121C15.6826 18.0909 15.429 18.1298 15.1743 18.1264C14.357 18.1172 13.9677 17.6963 13.6178 17.0666C13.4998 16.8667 13.4409 16.4306 13.4409 16.4306L13.4793 13.0021L16.5019 13.0361L16.3538 11.6677C16.2833 10.9932 15.7027 10.4765 15.004 10.4661L13.508 10.4493L13.5556 6.21179C13.5556 6.21179 12.65 6.26018 12.3471 6.27766C10.7987 6.3779 9.74175 7.3661 9.72864 8.53406L9.71336 10.5055L7.03666 10.5722L7.02559 11.5584C7.01709 12.3155 7.64298 12.9366 8.42446 12.9454L9.68581 12.9595L9.64639 16.471L9.66068 16.983C9.65293 18.4254 10.4517 19.7593 11.7469 20.4679C13.0432 21.1765 14.633 21.149 15.9004 20.3954L15.924 18.0126L15.924 18.0121Z" fill="white"/>
<path opacity="0.3" d="M21.5391 23.5778C19.2542 25.6205 16.3137 26.7774 13.2499 26.8392C11.8264 26.1054 10.5929 25.0506 9.64674 23.7582C8.7006 22.4658 8.06774 20.971 7.79811 19.392C6.40033 13.4351 3.88228 12.7905 0.2949 12.0228C0.406703 11.283 0.583895 10.5546 0.824391 9.84619C1.90037 6.70313 4.14783 4.09692 7.09806 2.57103C13.6958 5.12059 16.0998 10.5229 15.8746 15.2895C15.748 18.4608 19.1501 22.2375 21.5391 23.5778Z" fill="white"/>
<path opacity="0.3" d="M25.7304 15.5519L25.589 15.5503C24.1667 14.8136 22.9348 13.7566 21.9905 12.4625C21.0462 11.1684 20.4153 9.67271 20.1474 8.09311C19.058 3.46333 17.2961 2.04914 14.8804 1.28442C15.6485 1.39477 16.4042 1.57923 17.1368 1.83519C19.9255 2.78769 22.3016 4.67083 23.8664 7.16849C25.4312 9.66615 26.0894 12.6262 25.7304 15.5519V15.5519Z" fill="white"/>
</svg>
