<svg width="40" height="39" viewBox="0 0 40 39" fill="none" xmlns="http://www.w3.org/2000/svg">
<g clip-path="url(#clip0_2346_20146)">
<path d="M28.3531 3.73853L36.3015 11.3517C36.8509 11.8781 37.0068 12.6895 36.6507 13.3557C36.0691 14.4449 36.0817 15.7531 36.6855 16.8252C37.0532 17.4796 36.9056 18.2927 36.3548 18.8202L20.5713 33.9382C20.0145 34.4715 19.157 34.6179 18.4669 34.264C17.3262 33.6783 15.9285 33.6803 14.7835 34.2696C14.0905 34.6263 13.2322 34.4828 12.6784 33.9524L4.73773 26.3465C4.17709 25.8095 4.07028 24.9889 4.44098 24.3136C5.03983 23.2195 5.03332 21.8922 4.42353 20.8078C4.0515 20.146 4.20429 19.3231 4.76113 18.7897L20.5386 3.67758C21.0911 3.14836 21.9425 3.00779 22.6258 3.36333C23.7467 3.94496 25.1143 3.9603 26.254 3.40236C26.9513 3.0613 27.801 3.21139 28.3522 3.73935L28.3531 3.73853Z" fill="#9B0041"/>
<path d="M26.6665 5.35376L34.6149 12.967C35.1644 13.4933 35.3203 14.3047 34.9642 14.9709C34.3826 16.0601 34.3951 17.3684 34.9989 18.4404C35.3667 19.0949 35.2191 19.9079 34.6683 20.4355L18.8848 35.5534C18.3279 36.0868 17.4705 36.2331 16.7804 35.8792C15.6397 35.2935 14.242 35.2956 13.097 35.8848C12.404 36.2415 11.5457 36.098 10.9919 35.5676L3.05121 27.9618C2.49057 27.4248 2.38375 26.6042 2.75446 25.9289C3.3533 24.8347 3.34679 23.5075 2.73701 22.4231C2.36498 21.7613 2.51777 20.9383 3.0746 20.405L18.8521 5.29281C19.4046 4.76359 20.256 4.62303 20.9392 4.97857C22.0602 5.5602 23.4278 5.57553 24.5675 5.01759C25.2648 4.67654 26.1145 4.82662 26.6657 5.35459L26.6665 5.35376Z" fill="#FF3F8F"/>
<path d="M6.70654 21.7717L17.668 32.271" stroke="#9B0041" stroke-width="1.71325" stroke-miterlimit="10" stroke-linecap="round" stroke-dasharray="3.43 3.43"/>
<path d="M21.041 8.04175L32.0025 18.541" stroke="#9B0041" stroke-width="1.71325" stroke-miterlimit="10" stroke-linecap="round" stroke-dasharray="3.43 3.43"/>
<mask id="mask0_2346_20146" style="mask-type:alpha" maskUnits="userSpaceOnUse" x="2" y="4" width="34" height="33">
<path d="M26.6665 5.35376L34.6149 12.967C35.1644 13.4933 35.3203 14.3047 34.9642 14.9709C34.3826 16.0601 34.3951 17.3684 34.9989 18.4404C35.3667 19.0949 35.2191 19.9079 34.6683 20.4355L18.8848 35.5534C18.3279 36.0868 17.4705 36.2331 16.7804 35.8792C15.6397 35.2935 14.242 35.2956 13.097 35.8848C12.404 36.2415 11.5457 36.098 10.9919 35.5676L3.05121 27.9618C2.49057 27.4248 2.38375 26.6042 2.75446 25.9289C3.3533 24.8347 3.34679 23.5075 2.73701 22.4231C2.36498 21.7613 2.51777 20.9383 3.0746 20.405L18.8521 5.29282C19.4046 4.76359 20.256 4.62303 20.9392 4.97857C22.0602 5.5602 23.4278 5.57553 24.5675 5.01759C25.2648 4.67654 26.1153 4.8258 26.6665 5.35376Z" fill="#FF3F8F"/>
</mask>
<g mask="url(#mask0_2346_20146)">
<path opacity="0.3" d="M-2.06999 23.9048C-2.53682 23.2119 -2.75122 22.71 -2.75122 22.71L-2.06999 23.9048C-0.180019 26.71 5.84747 32.6456 18.5365 21.0793C26.351 13.9562 39.1453 16.915 39.1453 16.915L11.6792 48.0198L-2.06999 23.9048Z" fill="white"/>
</g>
<path fill-rule="evenodd" clip-rule="evenodd" d="M24.0481 20.9522C23.9352 21.1567 23.789 21.342 23.6155 21.4996C23.0599 22.0063 22.5339 21.9674 21.9032 21.7634C21.6984 21.7029 21.3851 21.4466 21.3851 21.4466L19.2594 19.1158L21.3142 17.2417L20.3558 16.4141C19.8851 16.0045 19.1702 16.0213 18.6936 16.4528L17.6766 17.3803L15.0493 14.4995C15.0493 14.4995 14.4704 15.1004 14.2776 15.3022C13.2987 16.3414 13.2078 17.6696 13.932 18.4636L15.1589 19.7995L13.3999 21.5242L14.0114 22.1946C14.4808 22.7093 15.2917 22.7344 15.8229 22.2499L16.6804 21.4678L18.8576 23.855L19.1885 24.1905C20.0885 25.1658 21.463 25.5619 22.7791 25.2258C24.0959 24.889 25.1483 23.8728 25.528 22.5704L24.0485 20.9525L24.0481 20.9522Z" fill="white"/>
</g>
<defs>
<clipPath id="clip0_2346_20146">
<rect width="39.0588" height="37.4118" fill="white" transform="translate(0.129395 0.934326)"/>
</clipPath>
</defs>
</svg>
