<svg width="24" height="12" viewBox="0 0 24 12" fill="none" xmlns="http://www.w3.org/2000/svg">
<path d="M5.48475 8.47683C6.08774 8.47683 6.61234 8.20257 6.87967 6.60764C7.147 5.0127 6.71887 4.73633 6.11387 4.73633C5.91309 4.74817 5.71656 4.80184 5.53574 4.8942C5.35491 4.98656 5.19341 5.11577 5.06064 5.2743C4.9119 5.44941 4.77723 5.69624 4.6707 6.32915L4.57422 6.90299C4.46769 7.53591 4.51191 7.76375 4.61241 7.95785C4.70054 8.11812 4.82789 8.25074 4.98126 8.34199C5.13464 8.43324 5.30847 8.4798 5.48475 8.47683V8.47683Z" fill="white"/>
<path d="M23.2593 0H1.98786L0 12H2.08836L3.52749 3.43882H4.70333L4.82392 4.13713C5.36816 3.63006 6.06434 3.33897 6.79168 3.31435C8.17052 3.31435 9.01671 4.21308 8.61472 6.60759C8.21273 9.00211 7.06303 9.89873 5.6862 9.89873C5.13921 9.91497 4.60728 9.70947 4.20083 9.32489L3.75261 12H21.2856L23.2593 0Z" fill="white"/>
<path d="M5.68623 9.89884C7.06305 9.89884 8.21276 9.00222 8.61475 6.6077C9.01674 4.21319 8.17055 3.31445 6.79171 3.31445C6.06437 3.33908 5.36818 3.63017 4.82395 4.13724L4.70335 3.43893H3.52752L2.08838 12.0001H3.75263L4.20086 9.325C4.6073 9.70957 5.13924 9.91507 5.68623 9.89884V9.89884ZM4.57471 6.89462L4.67119 6.32078C4.77772 5.68787 4.91239 5.44736 5.06113 5.26593C5.19407 5.10778 5.35565 4.97897 5.53646 4.88697C5.71728 4.79497 5.91371 4.74164 6.11435 4.73006C6.71734 4.73006 7.14747 5.00433 6.88014 6.60137C6.61282 8.19842 6.09023 8.47057 5.48523 8.47057C5.30735 8.47186 5.13243 8.42276 4.97891 8.32845C4.82539 8.23414 4.69894 8.09812 4.6129 7.93471C4.5124 7.75538 4.46818 7.52964 4.57471 6.89462Z" fill="#030CCB"/>
<path d="M14.2545 4.08849C14.194 4.44302 14.0602 4.77933 13.8625 5.07373C13.1631 4.78681 12.3852 4.88596 11.9109 5.31001C11.732 5.45882 11.6111 5.67119 11.5712 5.90706L10.922 9.77204H9.26172L10.325 3.44292H11.5008L11.6415 4.2425C12.2165 3.69473 12.9544 3.37271 13.7299 3.33111C14.2263 3.32689 14.3429 3.56318 14.2545 4.08849Z" fill="#030CCB"/>
<path d="M14.1463 6.56969C14.5242 4.32496 15.8588 3.30176 17.5934 3.30176C19.328 3.30176 20.331 4.26167 19.9451 6.56969C19.5592 8.87771 18.1944 9.91568 16.4839 9.91568C14.7734 9.91568 13.7463 8.95155 14.1463 6.56969ZM18.2105 6.56969C18.4778 4.97264 18.0577 4.64986 17.3683 4.64986C16.6789 4.64986 16.1502 4.97264 15.8809 6.56969C15.6116 8.16674 16.0216 8.56547 16.711 8.56547C17.4005 8.56547 17.9391 8.17939 18.2105 6.56969Z" fill="#030CCB"/>
</svg>
