<svg width="25" height="24" viewBox="0 0 25 24" fill="none" xmlns="http://www.w3.org/2000/svg">
<path d="M19.998 1.5C19.3418 1.5 14.748 2.8125 14.748 8.71875V13.3125C14.748 14.7604 15.9252 15.9375 17.373 15.9375H18.6855V21.1875C18.6855 21.9135 19.2721 22.5 19.998 22.5C20.724 22.5 21.3105 21.9135 21.3105 21.1875V15.9375V11.3438V2.8125C21.3105 2.08652 20.724 1.5 19.998 1.5ZM5.56055 2.15625C5.56055 1.81992 5.31035 1.54102 4.97402 1.5041C4.6377 1.46719 4.33828 1.68867 4.26445 2.0127L3.02168 7.60313C2.96426 7.86152 2.93555 8.12402 2.93555 8.38652C2.93555 10.2691 4.3752 11.8154 6.2168 11.9836V21.1875C6.2168 21.9135 6.80332 22.5 7.5293 22.5C8.25527 22.5 8.8418 21.9135 8.8418 21.1875V11.9836C10.6834 11.8154 12.123 10.2691 12.123 8.38652C12.123 8.12402 12.0943 7.86152 12.0369 7.60313L10.7941 2.0127C10.7203 1.68457 10.4127 1.46719 10.0805 1.5041C9.74824 1.54102 9.49805 1.81992 9.49805 2.15625V7.66055C9.49805 7.88203 9.31758 8.0625 9.09609 8.0625C8.88691 8.0625 8.71465 7.90254 8.69414 7.69336L8.18145 2.09883C8.15273 1.7584 7.86973 1.5 7.5293 1.5C7.18887 1.5 6.90586 1.7584 6.87715 2.09883L6.36855 7.69336C6.34805 7.90254 6.17578 8.0625 5.9666 8.0625C5.74512 8.0625 5.56465 7.88203 5.56465 7.66055V2.15625H5.56055ZM7.5416 8.39062H7.5293H7.51699L7.5293 8.36191L7.5416 8.39062Z" fill="#262626"/>
</svg>
