<svg width="563" height="363" xmlns="http://www.w3.org/2000/svg" fill="none">

 <g>
  <title>Layer 1</title>
  <g id="areaNotFound">
   <g id="Group 69">
    <path fill="#FFEDB2" d="m426.25,31.5c0,14.912 -12.089,27 -27,27c-14.912,0 -27,-12.088 -27,-27c0,-14.9123 12.088,-27 27,-27c14.911,0 27,12.0877 27,27z" clip-rule="evenodd" fill-rule="evenodd" id="Fill 1"/>
    <path stroke-linejoin="round" stroke-linecap="round" stroke="black" d="m235.75,93l19.5,183" id="Stroke 3"/>
    <path stroke-linejoin="round" stroke-linecap="round" stroke="black" d="m363.25,207l-3,87" id="Stroke 5"/>
    <path fill="#F4FFCC" d="m356.113,269.943c6.528,0.601 12.266,-3.65 12.819,-9.492l4.775,-50.612c0.58,-6.15 -4.802,-11.541 -11.697,-11.717l-4.65,-0.118c-6.588,-0.168 -11.969,4.508 -11.984,10.414l-0.126,50.731c-0.014,5.534 4.711,10.229 10.863,10.794z" clip-rule="evenodd" fill-rule="evenodd" id="Fill 7"/>
    <path stroke-linejoin="round" stroke-linecap="round" stroke="black" d="m359.775,268.452l0,0c6.076,0.557 11.46,-3.831 12.025,-9.801l4.901,-51.709c0.596,-6.284 -4.369,-11.74 -10.792,-11.859l-4.33,-0.081c-6.135,-0.114 -11.19,4.706 -11.257,10.735l-0.571,51.79c-0.062,5.649 4.297,10.402 10.024,10.925z" clip-rule="evenodd" fill-rule="evenodd" id="Stroke 9"/>
    <path stroke-linejoin="round" stroke-linecap="round" stroke="black" d="m372.25,213.75l13.5,0" id="Stroke 11"/>
    <path stroke-linejoin="round" stroke-linecap="round" stroke="black" d="m370.75,237.75l13.5,0" id="Stroke 13"/>
    <path stroke-linejoin="round" stroke-linecap="round" stroke="black" d="m370.75,249.75l13.5,0" id="Stroke 15"/>
    <path stroke-linejoin="round" stroke-linecap="round" stroke="black" d="m342.25,216.75l13.5,0" id="Stroke 17"/>
    <path stroke-linejoin="round" stroke-linecap="round" stroke="#191919" d="m345.666,36.8186l12.265,-0.321" id="Stroke 21"/>
    <path stroke-linejoin="round" stroke-linecap="round" stroke="#191919" d="m361.147,69.925l8.773,-9.748" id="Stroke 25"/>
    <path stroke-linejoin="round" stroke-linecap="round" stroke="#191919" d="m395.323,78.687l-4.404,-11.664" id="Stroke 29"/>
    <path stroke-linejoin="round" stroke-linecap="round" stroke="black" d="m345.25,228.75l13.5,0" id="Stroke 31"/>
    <path stroke-linejoin="round" stroke-linecap="round" stroke="black" d="m343.75,243.75l13.5,0" id="Stroke 33"/>
    <path stroke-linejoin="round" stroke-linecap="round" stroke="black" d="m343.75,255.75l13.5,0" id="Stroke 35"/>
    <path stroke-linejoin="round" stroke-linecap="round" stroke="black" d="m369.25,200.25l13.5,0" id="Stroke 37"/>
    <path stroke-linejoin="round" stroke-linecap="round" stroke="black" d="m342.25,200.25l13.5,0" id="Stroke 39"/>
    <path stroke-linejoin="round" stroke-linecap="round" stroke="black" d="m421.75,27c0,14.9123 -12.089,27 -27,27c-14.912,0 -27,-12.0877 -27,-27c0,-14.9123 12.088,-27 27,-27c14.911,0 27,12.0877 27,27z" clip-rule="evenodd" fill-rule="evenodd" id="Stroke 41"/>
    <path stroke-linejoin="round" stroke-linecap="round" stroke="black" d="m171.25,306c0,0 66.897,-64.125 135,0" id="Stroke 43"/>
    <path stroke-linejoin="round" stroke-linecap="round" stroke="black" d="m306.25,306c0,0 45.742,-43.875 112.5,0" id="Stroke 45"/>
    <path stroke-linejoin="round" stroke-linecap="round" stroke="black" d="m393.25,278.25l49.5,0" id="Stroke 47"/>
    <path stroke-linejoin="round" stroke-linecap="round" stroke="black" d="m120.25,306c0,0 26.992,-20.25 49.5,0" id="Stroke 49"/>
    <path fill="#FFDECC" d="m285.746,163.501c-27.641,-0.059 -55.046,2.364 -82.377,6.397c-12.288,1.811 -25.031,3.566 -36.998,6.95c-13.151,3.72 -24.261,13.075 -28.176,26.355c-3.575,12.121 -0.593,28.191 9.793,36.351c7.028,5.522 13.621,9.446 22.965,9.446c7.966,0 16.081,-5.186 22.963,-9.446c13.426,-8.31 23.569,-6.997 27.9,-7.624c1.181,-0.173 2.363,-0.34 3.545,-0.503c-4.297,0.566 -5.203,0.692 -2.716,0.377c2.371,-0.268 4.738,-0.575 7.111,-0.837c18.594,-2.054 37.283,-2.999 55.99,-2.958c16.989,0.037 33.261,-14.861 32.477,-32.254c-0.79,-17.506 -14.269,-32.215 -32.477,-32.254z" clip-rule="evenodd" fill-rule="evenodd" id="Fill 51"/>
    <path fill="#FFDECC" d="m169.416,131.883c40.292,-3.862 80.697,-9.98 120.247,-18.621c16.704,-3.651 28.029,-23.967 22.8,-40.099c-5.685,-17.543 -22.261,-26.678 -40.156,-22.768c-18.058,3.945 -36.269,7.182 -54.526,10.055c-4.767,0.75 -9.541,1.471 -14.318,2.163c-2.36,0.343 -4.721,0.668 -7.081,1.003c-6.696,0.953 8.029,-1.04 -0.268,0.035c-8.883,1.152 -17.78,2.181 -26.698,3.036c-8.849,0.849 -16.594,3.068 -23.083,9.547c-5.662,5.656 -9.925,14.932 -9.561,23.051c0.73,16.266 14.441,34.343 32.644,32.598z" clip-rule="evenodd" fill-rule="evenodd" id="Fill 53"/>
    <path stroke-linejoin="round" stroke-linecap="round" stroke="black" d="m166.998,236.998c1.969,1.176 4.268,1.682 6.547,1.445l143.205,-14.884l-6.599,-63.059l-143.29,14.891c-2.28,0.237 -4.424,1.207 -6.108,2.76l-26.53,24.006c-2.496,2.262 -3.766,5.572 -3.416,8.918c0.35,3.345 2.278,6.327 5.189,8.025l31.002,17.898z" clip-rule="evenodd" fill-rule="evenodd" id="Stroke 55"/>
    <path stroke-linejoin="round" stroke-linecap="round" stroke="black" d="m297.151,115.859c-1.684,1.554 -3.824,2.522 -6.107,2.759l-143.195,14.882l-6.599,-63.053l143.279,-14.89c2.282,-0.237 4.58,0.27 6.547,1.443l30.927,18.032c2.914,1.699 4.84,4.678 5.19,8.024c0.349,3.343 -0.918,6.656 -3.416,8.917l-26.626,23.886z" clip-rule="evenodd" fill-rule="evenodd" id="Stroke 57"/>
    <path fill="#F4B9B4" d="m164.421,97.46c34.64,-2.977 69.375,-4.536 104.142,-4.671c18.231,-0.072 18.267,-28.361 0,-28.289c-34.767,0.135 -69.502,1.694 -104.142,4.672c-7.624,0.655 -14.171,6.031 -14.171,14.143c0,7.145 6.503,14.804 14.171,14.145z" clip-rule="evenodd" fill-rule="evenodd" id="Fill 59"/>
    <path fill="#F4B9B4" d="m275.666,185.022c-5.369,0.232 -10.738,0.429 -16.108,0.605c-2.485,-4.08 -7.015,-6.804 -12.079,-6.932c-22.245,-0.564 -44.474,0.095 -66.646,1.979c-7.579,0.642 -14.083,5.988 -14.083,14.031c0,7.094 6.46,14.679 14.083,14.033c9.286,-0.788 18.584,-1.349 27.887,-1.708c2.39,4.278 6.682,7.513 12.006,7.47c18.322,-0.151 36.635,-0.621 54.94,-1.413c7.602,-0.328 14.084,-6.214 14.084,-14.032c0,-7.347 -6.448,-14.363 -14.084,-14.033z" clip-rule="evenodd" fill-rule="evenodd" id="Fill 61"/>
    <path stroke-linejoin="round" stroke-linecap="round" stroke="black" d="m163.75,84l94.5,-10.5" id="Stroke 63"/>
    <path stroke-linejoin="round" stroke-linecap="round" stroke="black" d="m177.25,193.5l67.5,-7.5" id="Stroke 65"/>
    <path stroke-linejoin="round" stroke-linecap="round" stroke="black" d="m222.25,201l36,-4.5" id="Stroke 67"/>
   </g>
  </g>
 </g>
</svg>