<svg width="24" height="24" viewBox="0 0 24 24" fill="none" xmlns="http://www.w3.org/2000/svg">
<path d="M1.5 4.5C1.5 3.87656 2.00156 3.375 2.625 3.375H21.375C21.9984 3.375 22.5 3.87656 22.5 4.5C22.5 5.12344 21.9984 5.625 21.375 5.625H2.625C2.00156 5.625 1.5 5.12344 1.5 4.5ZM1.5 12C1.5 11.3766 2.00156 10.875 2.625 10.875H21.375C21.9984 10.875 22.5 11.3766 22.5 12C22.5 12.6234 21.9984 13.125 21.375 13.125H2.625C2.00156 13.125 1.5 12.6234 1.5 12ZM22.5 19.5C22.5 20.1234 21.9984 20.625 21.375 20.625H2.625C2.00156 20.625 1.5 20.1234 1.5 19.5C1.5 18.8766 2.00156 18.375 2.625 18.375H21.375C21.9984 18.375 22.5 18.8766 22.5 19.5Z" fill="#262626"/>
</svg>
