<svg width="25" height="24" viewBox="0 0 25 24" fill="none" xmlns="http://www.w3.org/2000/svg">
<path d="M8.84375 4.33333V6H15.4062V4.33333C15.4062 4.15 15.2586 4 15.0781 4H9.17188C8.99141 4 8.84375 4.15 8.84375 4.33333ZM6.875 6V4.33333C6.875 3.04583 7.90449 2 9.17188 2H15.0781C16.3455 2 17.375 3.04583 17.375 4.33333V6H20C21.4479 6 22.625 7.19583 22.625 8.66667V13.6667V19.3333C22.625 20.8042 21.4479 22 20 22H4.25C2.80215 22 1.625 20.8042 1.625 19.3333V13.6667V8.66667C1.625 7.19583 2.80215 6 4.25 6H6.875ZM3.59375 14.6667V19.3333C3.59375 19.7 3.88906 20 4.25 20H20C20.3609 20 20.6562 19.7 20.6562 19.3333V14.6667H14.75V15.3333C14.75 16.0708 14.1635 16.6667 13.4375 16.6667H10.8125C10.0865 16.6667 9.5 16.0708 9.5 15.3333V14.6667H3.59375ZM9.5 12.6667H14.75H20.6562V8.66667C20.6562 8.3 20.3609 8 20 8H16.3906H7.85938H4.25C3.88906 8 3.59375 8.3 3.59375 8.66667V12.6667H9.5Z" fill="#262626"/>
</svg>
