<svg width="24" height="24" viewBox="0 0 24 24" fill="none" xmlns="http://www.w3.org/2000/svg">
<path fill-rule="evenodd" clip-rule="evenodd" d="M20.5816 21.515L3.11938 1.50317L1.98917 2.48939L3.08915 3.74997H1.5V20.25H17.487L19.4514 22.5012L20.5816 21.515ZM16.1781 18.75L12.082 14.0559L10.9736 15.872C10.4365 16.7519 9.1924 16.8404 8.53628 16.0452L7.50735 14.7984L4.51018 18.75H16.1781ZM11.048 12.8708L9.69322 15.0905L8.66429 13.8437C8.0483 13.0972 6.89709 13.1208 6.31222 13.8919L3 18.2589V5.24997H4.39804L5.86474 6.93081C5.06222 7.27461 4.5 8.07163 4.5 8.99997C4.5 10.2426 5.50736 11.25 6.75 11.25C7.56947 11.25 8.28661 10.8119 8.68002 10.1571L11.048 12.8708ZM7.08426 8.32839L7.46073 8.75983C7.48619 8.83522 7.5 8.91598 7.5 8.99997C7.5 9.41418 7.16421 9.74997 6.75 9.74997C6.33579 9.74997 6 9.41418 6 8.99997C6 8.58576 6.33579 8.24997 6.75 8.24997C6.87011 8.24997 6.98362 8.2782 7.08426 8.32839ZM21 18.75H20.1588L21.4652 20.247L21.4618 20.25H22.5V3.74997H7.0699L8.3788 5.24997H21V18.75Z" fill="#262626"/>
</svg>
