<svg width="24" height="24" viewBox="0 0 24 24" fill="none" xmlns="http://www.w3.org/2000/svg">
<path fill-rule="evenodd" clip-rule="evenodd" d="M14.5716 3.17285C15.336 2.13336 16.4991 1.5 18.0001 1.5V3C16.9698 3 16.258 3.41154 15.7801 4.06144C15.2816 4.73948 15.0001 5.73416 15.0001 6.91781V12.8483C15.0001 13.1774 15.21 13.4698 15.5219 13.575L16.1764 13.7957C16.9084 14.0426 17.7105 13.9695 18.3858 13.5944L19.1143 14.9056C18.0698 15.4859 16.8292 15.5989 15.697 15.2171L15.0425 14.9963C14.1207 14.6854 13.5001 13.821 13.5001 12.8483V6.91781C13.5001 5.52344 13.828 4.18422 14.5716 3.17285Z" fill="#262626"/>
<path d="M18.0001 1.5H19.5001V22.5H18.0001V1.5Z" fill="#262626"/>
<path d="M6 1.49988H7.5V22.4999H6V1.49988Z" fill="#262626"/>
<path fill-rule="evenodd" clip-rule="evenodd" d="M3 7.49988V1.49988H4.5V7.49988C4.5 7.73595 4.61115 7.95824 4.8 8.09988L7.2 9.89988L6.3 11.0999L3.9 9.29988C3.33344 8.87496 3 8.20808 3 7.49988Z" fill="#262626"/>
<path fill-rule="evenodd" clip-rule="evenodd" d="M10.5 7.49988V1.49988H9V7.49988C9 7.73595 8.88885 7.95824 8.7 8.09988L6.3 9.89988L7.2 11.0999L9.6 9.29988C10.1666 8.87496 10.5 8.20808 10.5 7.49988Z" fill="#262626"/>
</svg>
