<svg width="24" height="24" viewBox="0 0 24 24" fill="none" xmlns="http://www.w3.org/2000/svg">
<path fill-rule="evenodd" clip-rule="evenodd" d="M11.9875 7.38067L10.7657 5.61116C9.97232 4.46219 8.66315 3.75 7.31433 3.75C5.00536 3.75 3 5.74719 3 8.37802C3 10.7717 4.05704 12.8653 5.72803 14.7769C7.4085 16.6995 9.62139 18.3363 11.7563 19.7993L11.9919 19.9525L12.4938 19.6159C14.5844 18.1584 16.7337 16.5446 18.3622 14.6554C19.9792 12.7795 21 10.7283 21 8.37802C21 5.75263 19.0055 3.7597 16.7046 3.75004C15.3171 3.78673 14.0307 4.48125 13.2261 5.62292L11.9875 7.38067ZM16.6878 2.25C19.8981 2.25 22.5 4.99363 22.5 8.37802C22.5 14.0275 17.5488 17.921 13.3405 20.8542L12.0048 21.75L10.9235 21.047C6.62192 18.1004 1.5 14.1289 1.5 8.37802C1.5 4.99399 4.10366 2.25 7.31433 2.25C8.66695 2.25 9.96127 2.76177 10.9739 3.62411C11.3613 3.95405 11.7075 4.33531 12 4.75887C12.2984 4.33544 12.6469 3.95751 13.0347 3.63141C14.0486 2.77886 15.331 2.28061 16.6878 2.25Z" fill="#262626"/>
</svg>
