<svg width="25" height="24" viewBox="0 0 25 24" fill="none" xmlns="http://www.w3.org/2000/svg">
<path d="M2.44141 3.39062C2.44141 2.89707 2.83485 2.5 3.32389 2.5H4.99693C5.80587 2.5 6.52289 2.975 6.8575 3.6875H21.97C22.9371 3.6875 23.6431 4.61523 23.3894 5.55781L21.8818 11.2096C21.5692 12.3748 20.5213 13.1875 19.3263 13.1875H8.71807L8.91663 14.2451C8.99752 14.6645 9.36155 14.9688 9.7844 14.9688H20.3852C20.8743 14.9688 21.2677 15.3658 21.2677 15.8594C21.2677 16.3529 20.8743 16.75 20.3852 16.75H9.7844C8.51216 16.75 7.42008 15.8371 7.18476 14.5791L5.28742 4.52246C5.26168 4.38145 5.14034 4.28125 4.99693 4.28125H3.32389C2.83485 4.28125 2.44141 3.88418 2.44141 3.39062ZM7.14798 19.7188C7.14798 19.4848 7.19364 19.2532 7.28233 19.0371C7.37103 18.821 7.50104 18.6246 7.66493 18.4592C7.82882 18.2938 8.02339 18.1626 8.23753 18.0731C8.45166 17.9836 8.68117 17.9375 8.91295 17.9375C9.14473 17.9375 9.37424 17.9836 9.58838 18.0731C9.80251 18.1626 9.99708 18.2938 10.161 18.4592C10.3249 18.6246 10.4549 18.821 10.5436 19.0371C10.6323 19.2532 10.6779 19.4848 10.6779 19.7188C10.6779 19.9527 10.6323 20.1843 10.5436 20.4004C10.4549 20.6165 10.3249 20.8129 10.161 20.9783C9.99708 21.1437 9.80251 21.2749 9.58838 21.3644C9.37424 21.4539 9.14473 21.5 8.91295 21.5C8.68117 21.5 8.45166 21.4539 8.23753 21.3644C8.02339 21.2749 7.82882 21.1437 7.66493 20.9783C7.50104 20.8129 7.37103 20.6165 7.28233 20.4004C7.19364 20.1843 7.14798 19.9527 7.14798 19.7188ZM19.5028 17.9375C19.9709 17.9375 20.4198 18.1252 20.7508 18.4592C21.0818 18.7933 21.2677 19.2463 21.2677 19.7188C21.2677 20.1912 21.0818 20.6442 20.7508 20.9783C20.4198 21.3123 19.9709 21.5 19.5028 21.5C19.0347 21.5 18.5857 21.3123 18.2547 20.9783C17.9237 20.6442 17.7378 20.1912 17.7378 19.7188C17.7378 19.2463 17.9237 18.7933 18.2547 18.4592C18.5857 18.1252 19.0347 17.9375 19.5028 17.9375Z" fill="#262626"/>
</svg>
