<svg width="12" height="10" viewBox="0 0 12 10" fill="none" xmlns="http://www.w3.org/2000/svg">
<g clip-path="url(#clip0_4649_50007)">
<path d="M4.2 4.8C4.83652 4.8 5.44697 4.54714 5.89706 4.09706C6.34714 3.64697 6.6 3.03652 6.6 2.4C6.6 1.76348 6.34714 1.15303 5.89706 0.702944C5.44697 0.252856 4.83652 0 4.2 0C3.56348 0 2.95303 0.252856 2.50294 0.702944C2.05286 1.15303 1.8 1.76348 1.8 2.4C1.8 3.03652 2.05286 3.64697 2.50294 4.09706C2.95303 4.54714 3.56348 4.8 4.2 4.8ZM3.34312 5.7C1.49625 5.7 0 7.19625 0 9.04313C0 9.35063 0.249375 9.6 0.556875 9.6H7.84312C8.15062 9.6 8.4 9.35063 8.4 9.04313C8.4 7.19625 6.90375 5.7 5.05687 5.7H3.34312Z" fill="#838383"/>
<path opacity="0.4" d="M11.4245 9.59961H8.83891C8.94016 9.42336 9.00016 9.21898 9.00016 8.99961V8.84961C9.00016 7.71148 8.49203 6.68961 7.69141 6.00336C7.73641 6.00148 7.77953 5.99961 7.82453 5.99961H8.97578C10.6464 5.99961 12.0002 7.35336 12.0002 9.02398C12.0002 9.34273 11.7414 9.59961 11.4245 9.59961ZM8.10016 4.79961C7.51891 4.79961 6.99391 4.56336 6.61328 4.18273C6.98266 3.68398 7.20016 3.06711 7.20016 2.39961C7.20016 1.89711 7.07641 1.42273 6.85703 1.00648C7.20578 0.751484 7.63516 0.599609 8.10016 0.599609C9.26078 0.599609 10.2002 1.53898 10.2002 2.69961C10.2002 3.86023 9.26078 4.79961 8.10016 4.79961Z" fill="#838383"/>
</g>
<defs>
<clipPath id="clip0_4649_50007">
<rect width="12" height="9.6" fill="white"/>
</clipPath>
</defs>
</svg>
