<svg width="20" height="12" viewBox="0 0 20 12" fill="none" xmlns="http://www.w3.org/2000/svg">
<path d="M15.2929 4.83091C14.6675 4.83091 14.1893 5.10663 13.9496 6.46552C13.7098 7.82441 14.0804 8.165 14.7046 8.165C15.3288 8.165 15.8186 7.836 16.0607 6.46552C16.3027 5.09505 15.9171 4.83091 15.2929 4.83091Z" fill="white"/>
<path fill-rule="evenodd" clip-rule="evenodd" d="M19.1738 0.210938H2.79439C2.25358 0.210938 1.73362 0.674327 1.63634 1.22924L0.0150743 10.7635C-0.0798855 11.3242 0.283741 11.7829 0.825707 11.7829H1.77067L3.16033 3.87635H4.22689L4.34269 4.47065C4.83843 4.03956 5.46833 3.79389 6.12493 3.77556C7.37446 3.77556 8.14456 4.54016 7.78556 6.57907C7.42657 8.61798 6.38549 9.38142 5.13711 9.38142C4.64262 9.3954 4.16127 9.22108 3.7903 8.8937L3.27961 11.7899H17.2063C17.7459 11.7899 18.2659 11.3265 18.3643 10.7704L19.9856 1.23619C20.0782 0.668535 19.7146 0.210938 19.1738 0.210938ZM10.5498 5.47041C10.3897 5.59762 10.2814 5.77883 10.2453 5.98014L9.66624 9.27252H8.16078L9.11153 3.87867H10.1769L10.3055 4.55753C10.9169 4.01653 11.6951 3.78251 12.1966 3.78251C12.6494 3.78251 12.7536 3.98409 12.6748 4.4301C12.6231 4.73211 12.5044 5.0187 12.3274 5.26884C11.6824 5.02324 10.9806 5.10781 10.5498 5.47041ZM17.6324 6.46786C17.285 8.43726 16.054 9.31423 14.5057 9.31423C12.9331 9.31423 12.0217 8.49634 12.3795 6.46786C12.7165 4.55753 13.9244 3.68752 15.497 3.68752C17.0696 3.68752 17.9787 4.50193 17.6324 6.46554V6.46786Z" fill="white"/>
<path d="M6.21172 6.57326C5.972 7.9333 5.49952 8.165 4.95061 8.165C4.79167 8.16455 4.63567 8.1221 4.49841 8.04194C4.36114 7.96179 4.24747 7.84678 4.16892 7.70856C4.0786 7.54985 4.03691 7.3587 4.13187 6.81769L4.21756 6.32882C4.30905 5.78434 4.43064 5.58508 4.56497 5.43679C4.68583 5.30181 4.83213 5.19202 4.99547 5.11369C5.15882 5.03537 5.33601 4.99006 5.51689 4.98035C6.06117 4.98035 6.45144 5.21321 6.21172 6.57326Z" fill="white"/>
</svg>
