<svg width="149" height="54" viewBox="0 0 149 54" fill="none" xmlns="http://www.w3.org/2000/svg">
<path d="M72.5639 23.3003C70.1597 23.3003 68.6604 25.3168 68.0399 28.0571H69.074C72.2795 28.0571 74.632 27.1781 74.6578 25.0582C74.6837 23.8949 73.8823 23.3003 72.5639 23.3003Z" fill="#FF5C00"/>
<path fill-rule="evenodd" clip-rule="evenodd" d="M0.387878 45.1221L6.69554 8.87744H89.2121L82.9562 45.1221H0.387878ZM21.7925 36.3063L22.1802 38.4003V38.3486H26.0837L30.7369 12.0312C30.7369 12.0312 29.0825 12.1346 28.6689 12.1863C26.6266 12.3931 24.9722 14.151 24.5327 16.2192L24.5068 16.4002L23.7055 20.8726C22.568 19.7351 20.836 19.1146 19.0781 19.1146C14.7868 19.1146 11.1935 21.8033 9.92683 28.9384C8.66013 36.0736 11.2711 38.7622 15.5882 38.7622C17.527 38.7622 19.8278 37.9867 21.7925 36.3063ZM36.0101 38.2723H30.5814L33.7611 19.5036H39.1898L36.0101 38.2723ZM33.8904 15.393C33.8646 16.9441 34.666 17.6421 37.0701 17.6421C39.6035 17.6421 40.5083 16.608 40.5342 14.333C40.56 12.8336 39.7328 12.0839 37.3803 12.0839C34.8728 12.0839 33.9163 13.0921 33.8904 15.393ZM59.3543 25.5006L57.0794 38.4008H51.8833L54.0031 26.4313C54.2875 24.8285 53.9256 23.691 52.0384 23.691C50.8493 23.691 49.5567 24.2597 48.6261 25.1128C48.1091 25.5265 47.6954 26.1469 47.5662 26.9225L45.5498 38.4008H40.3537L43.6885 19.5288H47.3594L47.7989 21.933C49.9445 20.0458 52.5296 19.1927 54.3909 19.1927C58.6305 19.1668 60.0523 21.5452 59.3543 25.5006ZM67.7557 31.0843C68.5312 31.1619 69.3068 31.1877 69.9531 31.1877C75.4076 31.1877 79.6731 28.8869 79.7506 24.5437C79.7765 21.7517 77.8635 19.4509 73.3395 19.4509C66.3081 19.4509 62.2494 24.8798 62.1719 31.1877C62.1202 36.4099 65.3774 38.8917 70.3408 38.8917C72.6157 38.8917 74.7614 38.3746 76.3641 37.5991C77.5016 37.1079 77.9669 36.5908 77.9927 35.5568C77.9927 34.5227 77.5791 33.7213 76.6226 32.8423C74.7872 34.1607 72.8742 34.7812 71.2456 34.7812C69.0224 34.7812 67.7557 33.6954 67.7557 31.0843Z" fill="#FF5C00"/>
<path d="M19.7501 23.3794C17.8629 23.3794 16.2343 24.2067 15.3812 28.9635C14.554 33.7202 15.8724 34.5475 17.7854 34.5475C19.0521 34.5475 20.2671 33.7978 21.0426 32.9447C21.5338 32.4276 21.9216 31.7296 22.2576 29.8166L22.5678 28.1103C22.9039 26.2231 22.7488 25.551 22.4386 24.9822C21.9474 24.1291 21.0168 23.3794 19.7501 23.3794Z" fill="#FF5C00"/>
<path d="M118.298 25.88C118.298 27.16 118.154 28.3813 117.866 29.544C117.588 30.696 117.188 31.768 116.666 32.76C116.143 33.752 115.508 34.648 114.762 35.448C114.015 36.248 113.178 36.9307 112.25 37.496C111.332 38.0613 110.335 38.4987 109.258 38.808C108.18 39.1067 107.05 39.256 105.866 39.256C104.394 39.256 103.071 38.9947 101.898 38.472C100.724 37.9493 99.7216 37.2293 98.8896 36.312C98.0683 35.3947 97.439 34.312 97.0016 33.064C96.5643 31.816 96.3456 30.4613 96.3456 29C96.3456 27.72 96.4843 26.504 96.7616 25.352C97.0496 24.1893 97.455 23.112 97.9776 22.12C98.511 21.128 99.1456 20.232 99.8816 19.432C100.628 18.632 101.46 17.9493 102.378 17.384C103.306 16.808 104.308 16.3707 105.386 16.072C106.463 15.7627 107.599 15.608 108.794 15.608C110.266 15.608 111.588 15.8693 112.762 16.392C113.935 16.9147 114.932 17.6347 115.754 18.552C116.575 19.4693 117.204 20.5573 117.642 21.816C118.079 23.064 118.298 24.4187 118.298 25.88ZM114.042 25.976C114.042 24.9307 113.908 23.9813 113.642 23.128C113.386 22.2747 113.007 21.544 112.506 20.936C112.015 20.328 111.412 19.8587 110.698 19.528C109.983 19.1973 109.178 19.032 108.282 19.032C107.13 19.032 106.079 19.2667 105.13 19.736C104.191 20.2053 103.386 20.872 102.714 21.736C102.042 22.6 101.519 23.64 101.146 24.856C100.783 26.072 100.602 27.4213 100.602 28.904C100.602 29.9493 100.73 30.8987 100.986 31.752C101.242 32.6053 101.615 33.336 102.106 33.944C102.596 34.5413 103.194 35.0053 103.898 35.336C104.612 35.656 105.423 35.816 106.33 35.816C107.492 35.816 108.548 35.5813 109.498 35.112C110.447 34.6427 111.258 33.9813 111.93 33.128C112.602 32.2747 113.119 31.2453 113.482 30.04C113.855 28.824 114.042 27.4693 114.042 25.976ZM135.415 22.584L133.431 39H131.431C130.493 39 130.023 38.5467 130.023 37.64L130.119 35.752C129.287 36.9253 128.375 37.8 127.383 38.376C126.402 38.952 125.383 39.24 124.327 39.24C123.645 39.24 123.031 39.1013 122.487 38.824C121.943 38.5467 121.495 38.1467 121.143 37.624C120.791 37.0907 120.541 36.4347 120.391 35.656C120.253 34.8773 120.247 33.992 120.375 33L121.607 22.584H125.559L124.327 33C124.189 34.0773 124.242 34.8507 124.487 35.32C124.733 35.7787 125.181 36.008 125.831 36.008C126.258 36.008 126.69 35.8907 127.127 35.656C127.575 35.4213 128.007 35.0853 128.423 34.648C128.839 34.2107 129.223 33.688 129.575 33.08C129.927 32.4613 130.221 31.7733 130.455 31.016L131.463 22.584H135.415ZM138.488 35.656C138.488 35.5813 138.488 35.496 138.488 35.4C138.488 35.2933 138.493 35.144 138.504 34.952C138.525 34.7493 138.552 34.488 138.584 34.168C138.627 33.8373 138.68 33.416 138.744 32.904L139.656 25.544H138.104C137.912 25.544 137.752 25.4747 137.624 25.336C137.507 25.1973 137.469 24.9893 137.512 24.712L137.688 23.144L140.184 22.712L141.496 18.232C141.571 18.0187 141.683 17.8533 141.832 17.736C141.981 17.6187 142.168 17.56 142.392 17.56H144.504L143.864 22.728H147.832L147.496 25.544H143.512L142.632 32.696C142.579 33.1333 142.536 33.48 142.504 33.736C142.472 33.992 142.445 34.1947 142.424 34.344C142.413 34.4827 142.408 34.584 142.408 34.648C142.408 34.7013 142.408 34.7387 142.408 34.76C142.408 35.1653 142.504 35.4853 142.696 35.72C142.899 35.9547 143.181 36.072 143.544 36.072C143.768 36.072 143.96 36.0453 144.12 35.992C144.28 35.928 144.419 35.864 144.536 35.8C144.653 35.736 144.76 35.6773 144.856 35.624C144.952 35.56 145.043 35.528 145.128 35.528C145.245 35.528 145.336 35.56 145.4 35.624C145.464 35.6773 145.523 35.7627 145.576 35.88L146.424 37.8C145.837 38.28 145.187 38.6427 144.472 38.888C143.768 39.1333 143.048 39.256 142.312 39.256C141.149 39.256 140.227 38.9413 139.544 38.312C138.872 37.6827 138.52 36.7973 138.488 35.656Z" fill="#FF5A00"/>
</svg>
