<svg width="56" height="56" viewBox="0 0 56 56" fill="none" xmlns="http://www.w3.org/2000/svg">
<path fill-rule="evenodd" clip-rule="evenodd" d="M25.375 37.625C25.375 36.1761 26.5493 35 28.0033 35C29.4507 35 30.625 36.1761 30.625 37.625C30.625 39.0707 29.4507 40.25 28.0033 40.25C26.5493 40.25 25.375 39.0707 25.375 37.625Z" fill="#DD1608"/>
<path fill-rule="evenodd" clip-rule="evenodd" d="M26.25 19.25V31.5H29.75V19.25H26.25Z" fill="#DD1608"/>
<path fill-rule="evenodd" clip-rule="evenodd" d="M24.4036 7.33997L4.06179 42.7396C2.46462 45.5224 4.46309 49 7.66031 49H48.3421C51.5375 49 53.5351 45.5218 51.9382 42.7396L31.5982 7.33892C30.0015 4.55352 26.0009 4.55352 24.4036 7.33997ZM48.9027 44.4819L28.5618 9.07957C28.3102 8.64073 27.6931 8.63921 27.4401 9.08062L7.09733 44.4819C7.09731 44.4819 7.09736 44.4819 7.09733 44.4819C6.82458 44.9573 7.18344 45.5 7.66031 45.5H48.3421C48.8146 45.5 49.1766 44.9591 48.9027 44.4819Z" fill="#DD1608"/>
</svg>
