<svg width="24" height="24" viewBox="0 0 24 24" fill="none" xmlns="http://www.w3.org/2000/svg">
<path d="M20.775 11.9952C20.775 16.7172 16.947 20.5452 12.225 20.5452C7.50295 20.5452 3.67499 16.7172 3.67499 11.9952C3.67499 7.27316 7.50295 3.44519 12.225 3.44519C16.947 3.44519 20.775 7.27316 20.775 11.9952Z" fill="#EAA407"/>
<path d="M20.748 12C20.748 9.73737 19.8492 7.56742 18.2493 5.9675C16.6494 4.36758 14.4794 3.46875 12.2168 3.46875C9.95417 3.46875 7.78421 4.36758 6.18429 5.9675C4.58437 7.56742 3.68555 9.73737 3.68555 12C3.68555 14.2626 4.58437 16.4326 6.18429 18.0325C7.78421 19.6324 9.95417 20.5312 12.2168 20.5312C14.4794 20.5312 16.6494 19.6324 18.2493 18.0325C19.8492 16.4326 20.748 14.2626 20.748 12ZM1.7168 12C1.7168 9.21523 2.82304 6.54451 4.79218 4.57538C6.76131 2.60625 9.43202 1.5 12.2168 1.5C15.0016 1.5 17.6723 2.60625 19.6414 4.57538C21.6105 6.54451 22.7168 9.21523 22.7168 12C22.7168 14.7848 21.6105 17.4555 19.6414 19.4246C17.6723 21.3938 15.0016 22.5 12.2168 22.5C9.43202 22.5 6.76131 21.3938 4.79218 19.4246C2.82304 17.4555 1.7168 14.7848 1.7168 12ZM7.07754 14.3748C6.90527 13.817 7.36875 13.3125 7.95117 13.3125H16.667C17.2494 13.3125 17.7129 13.8211 17.5406 14.3748C16.8516 16.6102 14.768 18.2344 12.307 18.2344C9.84609 18.2344 7.7625 16.6102 7.07754 14.3748ZM10.6418 10.8844L10.6336 10.8762C10.6254 10.868 10.6172 10.8557 10.6049 10.8393C10.5803 10.8064 10.5393 10.7572 10.49 10.6998C10.3875 10.585 10.2439 10.4291 10.0717 10.2773C9.71074 9.95742 9.30059 9.70312 8.93555 9.70312C8.57051 9.70312 8.16035 9.95742 7.79941 10.2773C7.62715 10.4291 7.48359 10.585 7.38105 10.6998C7.33184 10.7572 7.29082 10.8064 7.26621 10.8393C7.25391 10.8557 7.2416 10.868 7.2375 10.8762L7.2293 10.8844C7.14316 10.9992 6.99551 11.0443 6.86426 10.9992C6.73301 10.9541 6.63867 10.8311 6.63867 10.6875C6.63867 9.95332 6.91348 9.22734 7.31953 8.68594C7.72148 8.15273 8.2998 7.73438 8.93555 7.73438C9.57129 7.73438 10.1496 8.15273 10.5516 8.68594C10.9576 9.22734 11.2324 9.95332 11.2324 10.6875C11.2324 10.827 11.1422 10.9541 11.0068 10.9992C10.8715 11.0443 10.7238 10.9992 10.6418 10.8844ZM17.2043 10.8844L17.1961 10.8762C17.1879 10.868 17.1797 10.8557 17.1674 10.8393C17.1428 10.8064 17.1018 10.7572 17.0525 10.6998C16.95 10.585 16.8064 10.4291 16.6342 10.2773C16.2732 9.95742 15.8631 9.70312 15.498 9.70312C15.133 9.70312 14.7229 9.95742 14.3619 10.2773C14.1896 10.4291 14.0461 10.585 13.9436 10.6998C13.8943 10.7572 13.8533 10.8064 13.8287 10.8393C13.8164 10.8557 13.8041 10.868 13.8 10.8762L13.7918 10.8844C13.7057 10.9992 13.558 11.0443 13.4268 10.9992C13.2955 10.9541 13.2012 10.8311 13.2012 10.6875C13.2012 9.95332 13.476 9.22734 13.882 8.68594C14.284 8.15273 14.8623 7.73438 15.498 7.73438C16.1338 7.73438 16.7121 8.15273 17.1141 8.68594C17.5201 9.22734 17.7949 9.95332 17.7949 10.6875C17.7949 10.827 17.7047 10.9541 17.5693 10.9992C17.434 11.0443 17.2863 10.9992 17.2043 10.8844Z" fill="#262626"/>
</svg>
