<svg width="24" height="24" viewBox="0 0 24 24" fill="none" xmlns="http://www.w3.org/2000/svg">
<path fill-rule="evenodd" clip-rule="evenodd" d="M6.14985 4.08566C2.94946 7.4635 2.94946 12.9472 6.15341 16.33L11.9993 22.5L17.8462 16.3301C20.9845 13.0177 21.0499 7.69103 18.0423 4.29579L17.8037 4.0371C14.5987 0.654309 9.40109 0.654309 6.19502 4.03704L6.14985 4.08566ZM7.2886 5.06376L7.24376 5.11202L7.23872 5.11733C4.58703 7.91605 4.58596 12.4935 7.24229 15.2983L11.9994 20.3192L16.7573 15.2984C19.3543 12.5574 19.4143 8.11828 16.929 5.30116L16.7082 5.06178C14.096 2.31223 9.90129 2.31259 7.2886 5.06376Z" fill="#262626"/>
<path fill-rule="evenodd" clip-rule="evenodd" d="M11.9997 7.75009C10.7572 7.75009 9.75006 8.7574 9.75006 10.0001C9.75006 11.2427 10.7572 12.25 11.9997 12.25C13.2422 12.25 14.25 11.2426 14.25 10.0001C14.25 8.7575 13.2422 7.75009 11.9997 7.75009Z" fill="#262626"/>
</svg>
