<svg width="24" height="24" viewBox="0 0 24 24" fill="none" xmlns="http://www.w3.org/2000/svg">
<path fill-rule="evenodd" clip-rule="evenodd" d="M3.86608 15.6566L4.54719 14.4769L3.18497 13.6904L2.50386 14.8701C1.293 16.9674 2.80658 19.589 5.2283 19.589H8.64205V18.016H5.2283C4.01744 18.016 3.26065 16.7052 3.86608 15.6566Z" fill="#262626"/>
<path fill-rule="evenodd" clip-rule="evenodd" d="M10.6766 3.85943C11.282 2.81079 12.7956 2.81079 13.401 3.85943L14.0821 5.03914L15.4444 4.25267L14.7633 3.07295C13.5524 0.975683 10.5252 0.975682 9.31439 3.07295L8.63057 4.25736L7.70867 5.87989L9.07628 6.65696L9.99685 5.0368L10.6766 3.85943Z" fill="#262626"/>
<path fill-rule="evenodd" clip-rule="evenodd" d="M18.6399 12.901L19.5312 14.4769L20.2123 15.6566C20.8178 16.7052 20.061 18.016 18.8501 18.016H17.4879V19.589H18.8501C21.2718 19.589 22.7854 16.9674 21.5746 14.8701L20.8952 13.6934L20.009 12.1266L18.6399 12.901Z" fill="#262626"/>
<path d="M11.0814 18.82L14.7606 22.5L15.8661 21.3947L14.074 19.6023L17.4953 19.5855L17.4909 18.0289L14.0724 18.0401L15.8658 16.247L14.7605 15.1415L11.0814 18.82Z" fill="#262626"/>
<path d="M7.05195 8.52641L2.02539 9.87271L2.42983 11.3827L4.87815 10.727L3.18208 13.6983L4.53236 14.4728L6.23183 11.5067L6.88799 13.9563L8.39804 13.5519L7.05195 8.52641Z" fill="#262626"/>
<path d="M17.9814 10.1802L19.3287 5.15393L17.8188 4.74917L17.1625 7.19735L15.4373 4.24285L14.0915 5.02498L15.8105 7.97983L13.3609 7.32324L12.9562 8.83322L17.9814 10.1802Z" fill="#262626"/>
</svg>
