<svg width="25" height="24" viewBox="0 0 25 24" fill="none" xmlns="http://www.w3.org/2000/svg">
<path d="M4.25 6.09875C3.88906 6.09875 3.59375 6.39407 3.59375 6.755V7.66145L10.6689 13.4693C11.518 14.1665 12.7361 14.1665 13.5852 13.4693L20.6562 7.66145V6.755C20.6562 6.39407 20.3609 6.09875 20 6.09875H4.25ZM3.59375 10.2085V17.255C3.59375 17.6159 3.88906 17.9113 4.25 17.9113H20C20.3609 17.9113 20.6562 17.6159 20.6562 17.255V10.2085L14.832 14.9909C13.257 16.2829 10.9889 16.2829 9.41797 14.9909L3.59375 10.2085ZM1.625 6.755C1.625 5.30715 2.80215 4.13 4.25 4.13H20C21.4479 4.13 22.625 5.30715 22.625 6.755V17.255C22.625 18.7029 21.4479 19.88 20 19.88H4.25C2.80215 19.88 1.625 18.7029 1.625 17.255V6.755Z" fill="#262626"/>
</svg>
