<svg width="25" height="24" viewBox="0 0 25 24" fill="none" xmlns="http://www.w3.org/2000/svg">
<path d="M12.6738 22.5C15.4586 22.5 18.1293 21.3938 20.0984 19.4246C22.0676 17.4555 23.1738 14.7848 23.1738 12C23.1738 9.21523 22.0676 6.54451 20.0984 4.57538C18.1293 2.60625 15.4586 1.5 12.6738 1.5C9.88905 1.5 7.21834 2.60625 5.24921 4.57538C3.28008 6.54451 2.17383 9.21523 2.17383 12C2.17383 14.7848 3.28008 17.4555 5.24921 19.4246C7.21834 21.3938 9.88905 22.5 12.6738 22.5ZM9.35156 8.67773C9.73711 8.29219 10.3605 8.29219 10.742 8.67773L12.6697 10.6055L14.5975 8.67773C14.983 8.29219 15.6064 8.29219 15.9879 8.67773C16.3693 9.06328 16.3734 9.68672 15.9879 10.0682L14.0602 11.9959L15.9879 13.9236C16.3734 14.3092 16.3734 14.9326 15.9879 15.3141C15.6023 15.6955 14.9789 15.6996 14.5975 15.3141L12.6697 13.3863L10.742 15.3141C10.3564 15.6996 9.73301 15.6996 9.35156 15.3141C8.97012 14.9285 8.96602 14.3051 9.35156 13.9236L11.2793 11.9959L9.35156 10.0682C8.96602 9.68262 8.96602 9.05918 9.35156 8.67773Z" fill="#262626"/>
</svg>
