<svg width="25" height="24" viewBox="0 0 25 24" fill="none" xmlns="http://www.w3.org/2000/svg">
<path d="M16.7917 4.28125C17.1125 4.28125 17.375 4.54844 17.375 4.875V19.7188H6.875V4.875C6.875 4.54844 7.1375 4.28125 7.45833 4.28125H16.7917ZM19.125 19.7188V4.875C19.125 3.56504 18.0786 2.5 16.7917 2.5H7.45833C6.17135 2.5 5.125 3.56504 5.125 4.875V19.7188H2.5C2.0151 19.7188 1.625 20.1158 1.625 20.6094C1.625 21.1029 2.0151 21.5 2.5 21.5H5.125H6.875H17.375H19.125H21.75C22.2349 21.5 22.625 21.1029 22.625 20.6094C22.625 20.1158 22.2349 19.7188 21.75 19.7188H19.125ZM15.0417 10.8125C14.7322 10.8125 14.4355 10.9376 14.2167 11.1603C13.9979 11.383 13.875 11.6851 13.875 12C13.875 12.3149 13.9979 12.617 14.2167 12.8397C14.4355 13.0624 14.7322 13.1875 15.0417 13.1875C15.3511 13.1875 15.6478 13.0624 15.8666 12.8397C16.0854 12.617 16.2083 12.3149 16.2083 12C16.2083 11.6851 16.0854 11.383 15.8666 11.1603C15.6478 10.9376 15.3511 10.8125 15.0417 10.8125Z" fill="#262626"/>
</svg>
