<svg width="24" height="24" viewBox="0 0 24 24" fill="none" xmlns="http://www.w3.org/2000/svg">
<path d="M7 6.53027L12.0313 1.5L17.0607 6.53022L15.9999 7.59079L12.7803 4.3706V15.5H11.2803V4.37198L8.06055 7.59104L7 6.53027Z" fill="#262626"/>
<path d="M4.75 11.7475C4.75 11.6094 4.86193 11.4975 5 11.4975H9.14286V9.99749H5C4.0335 9.99749 3.25 10.781 3.25 11.7475V20.7475C3.25 21.714 4.0335 22.4975 5 22.4975H19C19.9665 22.4975 20.75 21.714 20.75 20.7475V11.7475C20.75 10.781 19.9665 9.99749 19 9.99749H14.8571V11.4975H19C19.1381 11.4975 19.25 11.6094 19.25 11.7475V20.7475C19.25 20.8856 19.1381 20.9975 19 20.9975H5C4.86193 20.9975 4.75 20.8856 4.75 20.7475V11.7475Z" fill="#262626"/>
</svg>
