<svg width="24" height="24" viewBox="0 0 24 24" fill="none" xmlns="http://www.w3.org/2000/svg">
<path fill-rule="evenodd" clip-rule="evenodd" d="M9 3.525C9 3.23505 8.76495 3 8.475 3H3.525C3.23505 3 3 3.23505 3 3.525V8.475C3 8.76495 3.23505 9 3.525 9H8.475C8.76495 9 9 8.76495 9 8.475V3.525ZM10.5 3.525C10.5 2.40662 9.59338 1.5 8.475 1.5H3.525C2.40662 1.5 1.5 2.40662 1.5 3.525V8.475C1.5 9.59338 2.40662 10.5 3.525 10.5H8.475C9.59338 10.5 10.5 9.59338 10.5 8.475V3.525Z" fill="#262626"/>
<path fill-rule="evenodd" clip-rule="evenodd" d="M21 3.525C21 3.23505 20.7649 3 20.475 3H15.525C15.235 3 15 3.23505 15 3.525V8.475C15 8.76495 15.2351 9 15.525 9H20.475C20.7649 9 21 8.76495 21 8.475V3.525ZM22.5 3.525C22.5 2.40662 21.5934 1.5 20.475 1.5H15.525C14.4066 1.5 13.5 2.40662 13.5 3.525V8.475C13.5 9.59338 14.4066 10.5 15.525 10.5H20.475C21.5934 10.5 22.5 9.59338 22.5 8.475V3.525Z" fill="#262626"/>
<path fill-rule="evenodd" clip-rule="evenodd" d="M9 15.525C9 15.2351 8.76495 15 8.475 15H3.525C3.23505 15 3 15.235 3 15.525V20.475C3 20.7649 3.23505 21 3.525 21H8.475C8.76495 21 9 20.7649 9 20.475V15.525ZM10.5 15.525C10.5 14.4066 9.59338 13.5 8.475 13.5H3.525C2.40662 13.5 1.5 14.4066 1.5 15.525V20.475C1.5 21.5934 2.40662 22.5 3.525 22.5H8.475C9.59338 22.5 10.5 21.5934 10.5 20.475V15.525Z" fill="#262626"/>
<path fill-rule="evenodd" clip-rule="evenodd" d="M21 15.525C21 15.2351 20.7649 15 20.475 15H15.525C15.235 15 15 15.235 15 15.525V20.475C15 20.7649 15.2351 21 15.525 21H20.475C20.7649 21 21 20.7649 21 20.475V15.525ZM22.5 15.525C22.5 14.4066 21.5934 13.5 20.475 13.5H15.525C14.4066 13.5 13.5 14.4066 13.5 15.525V20.475C13.5 21.5934 14.4066 22.5 15.525 22.5H20.475C21.5934 22.5 22.5 21.5934 22.5 20.475V15.525Z" fill="#262626"/>
</svg>
