<svg width="24" height="24" viewBox="0 0 24 24" fill="none" xmlns="http://www.w3.org/2000/svg">
<path d="M17.7748 10.9502C15.1662 10.9502 13.0498 13.0666 13.0498 15.6752C13.0498 18.2838 15.1662 20.4002 17.7748 20.4002C20.3834 20.4002 22.4998 18.2838 22.4998 15.6752C22.4998 13.0666 20.3834 10.9502 17.7748 10.9502Z" fill="#DB3530"/>
<path d="M1.5 12.0002C1.5 8.9978 3.10125 6.22514 5.7 4.7256C8.29875 3.22607 11.5012 3.22607 14.1 4.7256C16.0786 5.86748 17.4797 7.74764 18.0342 9.90671C17.9489 9.90343 17.8603 9.90015 17.775 9.90015C17.3156 9.90015 16.8694 9.95265 16.4428 10.0544C15.9506 8.40389 14.8448 6.97326 13.3125 6.09061C11.1994 4.86998 8.60062 4.86998 6.4875 6.09061C4.37437 7.31123 3.075 9.56218 3.075 12.0002C3.075 14.4381 4.37437 16.6924 6.4875 17.9097C8.37094 18.9958 10.6448 19.1139 12.6136 18.2608C12.8564 18.7431 13.1616 19.1828 13.5225 19.5766C11.0386 20.7644 8.11172 20.6627 5.7 19.2714C3.10125 17.7752 1.5 15.0025 1.5 12.0002ZM9.1125 7.53764C9.1125 7.10123 9.46359 6.75014 9.9 6.75014C10.3364 6.75014 10.6875 7.10123 10.6875 7.53764C10.6875 8.88624 10.6875 10.2316 10.6875 11.5802C11.3569 12.0264 12.0295 12.4727 12.6989 12.9189C12.443 13.3881 12.2494 13.8967 12.1345 14.4348C11.2453 13.8409 10.3561 13.247 9.46359 12.6564C9.24375 12.5087 9.1125 12.2627 9.1125 12.0002C9.1125 10.5137 9.1125 9.02405 9.1125 7.53764Z" fill="#262626"/>
<path d="M15.8293 14.471C15.6259 14.2676 15.6259 13.9329 15.8293 13.7295C16.0328 13.526 16.3675 13.526 16.5709 13.7295L17.7751 14.9337L18.9793 13.7295C19.1828 13.526 19.5175 13.526 19.7209 13.7295C19.9243 13.9329 19.9243 14.2676 19.7209 14.471L18.5167 15.6753L19.7209 16.8795C19.9243 17.0829 19.9243 17.4176 19.7209 17.6211C19.5175 17.8245 19.1828 17.8245 18.9793 17.6211L17.7751 16.4168L16.5709 17.6211C16.3675 17.8245 16.0328 17.8245 15.8293 17.6211C15.6259 17.4176 15.6259 17.0829 15.8293 16.8795L17.0336 15.6753L15.8293 14.471Z" fill="white"/>
</svg>
