<svg fill="none" height="63" viewBox="0 0 68 63" width="68" xmlns="http://www.w3.org/2000/svg">
    <g clip-path="url(#clip0_969_16337)">
        <path
            d="M49.1357 5.09086L62.9736 17.6431C63.9303 18.5109 64.2016 19.8487 63.5817 20.9471C62.5691 22.7429 62.591 24.8999 63.6422 26.6675C64.2824 27.7465 64.0254 29.087 63.0665 29.9568L35.588 54.8825C34.6186 55.7618 33.1258 56.0031 31.9243 55.4197C29.9384 54.454 27.505 54.4573 25.5117 55.4288C24.3052 56.0169 22.8108 55.7804 21.8467 54.9058L8.02231 42.3658C7.04626 41.4804 6.86029 40.1274 7.50568 39.014C8.54824 37.21 8.53691 35.0217 7.47529 33.2339C6.82761 32.1427 7.09361 30.7859 8.06303 29.9065L35.5311 4.99036C36.493 4.11781 37.9752 3.88605 39.1647 4.47225C41.1163 5.43121 43.4972 5.4565 45.4814 4.5366C46.6953 3.97428 48.1746 4.22173 49.1342 5.09221L49.1357 5.09086Z"
            fill="#9B0041" />
        <path
            d="M46.2005 7.75419L60.0384 20.3065C60.995 21.1742 61.2663 22.512 60.6464 23.6105C59.6338 25.4062 59.6557 27.5633 60.7069 29.3308C61.3472 30.4098 61.0902 31.7503 60.1313 32.6201L32.6527 57.5458C31.6833 58.4251 30.1905 58.6664 28.9891 58.083C27.0031 57.1173 24.5697 57.1207 22.5764 58.0922C21.3699 58.6803 19.8756 58.4437 18.9115 57.5692L5.08707 45.0291C4.11101 44.1437 3.92505 42.7907 4.57044 41.6773C5.613 39.8733 5.60167 37.6851 4.54005 35.8972C3.89236 34.806 4.15837 33.4492 5.12779 32.5698L32.5958 7.65369C33.5577 6.78114 35.04 6.54938 36.2295 7.13558C38.181 8.09454 40.562 8.11983 42.5462 7.19993C43.76 6.63761 45.2394 6.88506 46.199 7.75554L46.2005 7.75419Z"
            fill="#FF3F8F" />
        <path d="M11.4515 34.823L30.535 52.1336" stroke="#9B0041" stroke-dasharray="5.89 5.89"
            stroke-linecap="round" stroke-miterlimit="10" stroke-width="2.9472" />
        <path d="M36.4066 12.186L55.4901 29.4966" stroke="#9B0041" stroke-dasharray="5.89 5.89"
            stroke-linecap="round" stroke-miterlimit="10" stroke-width="2.9472" />
        <mask style="mask-type:alpha" height="53" id="mask0_969_16337" maskUnits="userSpaceOnUse"
            width="58" x="4" y="6">
            <path
                d="M46.2005 7.75419L60.0384 20.3065C60.995 21.1742 61.2663 22.512 60.6464 23.6105C59.6338 25.4062 59.6557 27.5633 60.7069 29.3308C61.3472 30.4098 61.0902 31.7503 60.1313 32.6201L32.6527 57.5458C31.6833 58.4251 30.1905 58.6664 28.9891 58.083C27.0031 57.1173 24.5697 57.1207 22.5764 58.0922C21.3699 58.6803 19.8756 58.4437 18.9115 57.5692L5.08707 45.0291C4.11102 44.1437 3.92505 42.7907 4.57044 41.6773C5.613 39.8733 5.60167 37.6851 4.54005 35.8972C3.89236 34.806 4.15837 33.4492 5.12779 32.5698L32.5958 7.65369C33.5577 6.78114 35.04 6.54939 36.2295 7.13558C38.181 8.09454 40.562 8.11983 42.5462 7.19993C43.76 6.63761 45.2409 6.8837 46.2005 7.75419Z"
                fill="#FF3F8F" />
        </mask>
        <g mask="url(#mask0_969_16337)">
            <path
                d="M-3.78363 39.982C-4.58669 38.7901 -4.9555 37.9267 -4.9555 37.9267L-3.78363 39.982C-0.532425 44.8077 9.83629 55.0184 31.6644 35.1216C45.1073 22.8681 67.1165 27.9579 67.1165 27.9579L19.8683 81.4656L-3.78363 39.982Z"
                fill="white" opacity="0.3" />
        </g>
        <path clip-rule="evenodd"
            d="M41.1463 34.9032C40.952 35.2549 40.7005 35.5737 40.4021 35.8448C39.4463 36.7165 38.5414 36.6496 37.4565 36.2986C37.1042 36.1946 36.5652 35.7536 36.5652 35.7536L32.9085 31.7441L36.4433 28.5203L34.7946 27.0965C33.9849 26.392 32.7551 26.4209 31.9353 27.1631L30.1857 28.7587L25.6661 23.8031C25.6661 23.8031 24.6703 24.8367 24.3386 25.1839C22.6547 26.9716 22.4984 29.2563 23.7441 30.6221L25.8547 32.9203L22.8288 35.8871L23.8807 37.0405C24.6882 37.9258 26.0831 37.969 26.997 37.1355L28.4721 35.7902L32.2174 39.8967L32.7866 40.4738C34.3348 42.1516 36.6993 42.833 38.9633 42.2548C41.2285 41.6755 43.0388 39.9273 43.6919 37.687L41.1469 34.9038L41.1463 34.9032Z"
            fill="white" fill-rule="evenodd" />
    </g>
    <defs>
        <clipPath id="clip0_969_16337">
            <rect fill="white" height="61.6826" transform="translate(0 0.467529)" width="68" />
        </clipPath>
    </defs>
</svg>
