<svg width="25" height="25" viewBox="0 0 25 25" fill="none" xmlns="http://www.w3.org/2000/svg">
<path d="M19.5484 6.44313C19.8512 6.44313 20.099 6.69092 20.099 6.99376V17.9994L19.9269 17.7757L15.2466 11.7188C15.0917 11.5158 14.8474 11.3988 14.5927 11.3988C14.3381 11.3988 14.0972 11.5158 13.9389 11.7188L11.0825 15.4149L10.0329 13.9454C9.87801 13.7286 9.63023 13.6013 9.3618 13.6013C9.09337 13.6013 8.84559 13.7286 8.69072 13.9488L5.9376 17.8032L5.78273 18.0166V18.0063V6.99376C5.78273 6.69092 6.03052 6.44313 6.33336 6.44313H19.5484ZM6.33336 4.79126C5.11854 4.79126 4.13086 5.77894 4.13086 6.99376V18.0063C4.13086 19.2211 5.11854 20.2088 6.33336 20.2088H19.5484C20.7632 20.2088 21.7509 19.2211 21.7509 18.0063V6.99376C21.7509 5.77894 20.7632 4.79126 19.5484 4.79126H6.33336ZM9.08648 11.3988C9.30341 11.3988 9.51822 11.356 9.71863 11.273C9.91904 11.19 10.1011 11.0683 10.2545 10.9149C10.4079 10.7615 10.5296 10.5794 10.6126 10.379C10.6956 10.1786 10.7384 9.96381 10.7384 9.74688C10.7384 9.52996 10.6956 9.31515 10.6126 9.11474C10.5296 8.91432 10.4079 8.73222 10.2545 8.57883C10.1011 8.42544 9.91904 8.30377 9.71863 8.22075C9.51822 8.13774 9.30341 8.09501 9.08648 8.09501C8.86956 8.09501 8.65475 8.13774 8.45434 8.22075C8.25392 8.30377 8.07182 8.42544 7.91843 8.57883C7.76504 8.73222 7.64337 8.91432 7.56035 9.11474C7.47734 9.31515 7.43461 9.52996 7.43461 9.74688C7.43461 9.96381 7.47734 10.1786 7.56035 10.379C7.64337 10.5794 7.76504 10.7615 7.91843 10.9149C8.07182 11.0683 8.25392 11.19 8.45434 11.273C8.65475 11.356 8.86956 11.3988 9.08648 11.3988Z" fill="#262626"/>
</svg>
