<svg width="25" height="24" viewBox="0 0 25 24" fill="none" xmlns="http://www.w3.org/2000/svg">
<path d="M20.6562 12C20.6562 14.2626 19.7574 16.4326 18.1575 18.0325C16.5576 19.6324 14.3876 20.5312 12.125 20.5312C9.86237 20.5312 7.69242 19.6324 6.0925 18.0325C4.49258 16.4326 3.59375 14.2626 3.59375 12C3.59375 9.73737 4.49258 7.56742 6.0925 5.9675C7.69242 4.36758 9.86237 3.46875 12.125 3.46875C14.3876 3.46875 16.5576 4.36758 18.1575 5.9675C19.7574 7.56742 20.6562 9.73737 20.6562 12ZM12.125 1.5C9.34023 1.5 6.66951 2.60625 4.70038 4.57538C2.73125 6.54451 1.625 9.21523 1.625 12C1.625 14.7848 2.73125 17.4555 4.70038 19.4246C6.66951 21.3938 9.34023 22.5 12.125 22.5C14.9098 22.5 17.5805 21.3938 19.5496 19.4246C21.5188 17.4555 22.625 14.7848 22.625 12C22.625 9.21523 21.5188 6.54451 19.5496 4.57538C17.5805 2.60625 14.9098 1.5 12.125 1.5ZM8.86016 11.3438C9.20825 11.3438 9.54209 11.2055 9.78823 10.9593C10.0344 10.7132 10.1727 10.3793 10.1727 10.0312C10.1727 9.68315 10.0344 9.34931 9.78823 9.10317C9.54209 8.85703 9.20825 8.71875 8.86016 8.71875C8.51206 8.71875 8.17822 8.85703 7.93208 9.10317C7.68594 9.34931 7.54766 9.68315 7.54766 10.0312C7.54766 10.3793 7.68594 10.7132 7.93208 10.9593C8.17822 11.2055 8.51206 11.3438 8.86016 11.3438ZM16.7352 10.0312C16.7352 9.68315 16.5969 9.34931 16.3507 9.10317C16.1046 8.85703 15.7708 8.71875 15.4227 8.71875C15.0746 8.71875 14.7407 8.85703 14.4946 9.10317C14.2484 9.34931 14.1102 9.68315 14.1102 10.0312C14.1102 10.3793 14.2484 10.7132 14.4946 10.9593C14.7407 11.2055 15.0746 11.3438 15.4227 11.3438C15.7708 11.3438 16.1046 11.2055 16.3507 10.9593C16.5969 10.7132 16.7352 10.3793 16.7352 10.0312ZM9.17188 14.9531C8.62637 14.9531 8.1875 15.392 8.1875 15.9375C8.1875 16.483 8.62637 16.9219 9.17188 16.9219H15.0781C15.6236 16.9219 16.0625 16.483 16.0625 15.9375C16.0625 15.392 15.6236 14.9531 15.0781 14.9531H9.17188Z" fill="#262626"/>
</svg>
