<svg width="25" height="24" viewBox="0 0 25 24" fill="none" xmlns="http://www.w3.org/2000/svg">
<path d="M5.125 4.875C5.125 3.56504 6.17135 2.5 7.45833 2.5H16.7917C18.0786 2.5 19.125 3.56504 19.125 4.875V19.125H21.4583C22.1036 19.125 22.625 19.6557 22.625 20.3125C22.625 20.9693 22.1036 21.5 21.4583 21.5H17.375H6.875H2.79167C2.14635 21.5 1.625 20.9693 1.625 20.3125C1.625 19.6557 2.14635 19.125 2.79167 19.125H5.125V4.875ZM15.625 13.1875C15.9344 13.1875 16.2312 13.0624 16.45 12.8397C16.6687 12.617 16.7917 12.3149 16.7917 12C16.7917 11.6851 16.6687 11.383 16.45 11.1603C16.2312 10.9376 15.9344 10.8125 15.625 10.8125C15.3156 10.8125 15.0188 10.9376 14.8 11.1603C14.5812 11.383 14.4583 11.6851 14.4583 12C14.4583 12.3149 14.5812 12.617 14.8 12.8397C15.0188 13.0624 15.3156 13.1875 15.625 13.1875Z" fill="#262626"/>
</svg>
