<svg width="24" height="24" viewBox="0 0 24 24" fill="none" xmlns="http://www.w3.org/2000/svg">
<path d="M9.75003 3.74338C9.74437 2.59167 10.6481 1.51281 11.9776 1.50011C13.283 1.48797 14.2009 2.51995 14.2481 3.65952C14.2995 4.8948 13.3152 5.98863 11.9979 5.99992C10.7637 6.01037 9.75511 4.99137 9.75003 3.74338Z" fill="#262626"/>
<path d="M12.6896 11.9414C12.5893 12.394 12.4956 12.817 12.4021 13.2399C12.3475 13.4879 12.29 13.7353 12.2415 13.9848C12.2317 14.0402 12.241 14.0973 12.2679 14.1464C13.0771 15.4602 13.8882 16.7722 14.7011 18.0824C15.1722 18.8435 15.6565 19.5965 16.1095 20.3685C16.4545 20.9549 16.4625 21.465 16.094 21.9742C15.6301 22.6154 14.7675 22.6628 14.1903 22.1088C13.7422 21.6788 13.4231 21.1475 13.0572 20.6527C12.1981 19.4935 11.3536 18.3224 10.4878 17.1346C10.3777 17.466 10.2621 17.7738 10.1745 18.0895C10.1012 18.3546 9.93475 18.5551 9.78787 18.7704C9.08077 19.8065 8.38401 20.8503 7.65535 21.8705C7.37193 22.267 6.98101 22.5447 6.45672 22.494C5.93243 22.4434 5.55617 22.1615 5.34548 21.6656C5.22533 21.3822 5.22015 21.0977 5.32105 20.7944C5.4823 20.309 5.80308 19.9308 6.07816 19.5223C6.60246 18.7436 7.14543 17.9782 7.66139 17.1956C7.75998 17.0463 7.77866 16.8378 7.82063 16.6534C8.04886 15.6473 8.28053 14.6418 8.49496 13.6328C8.57516 13.2567 8.6016 12.8685 8.67691 12.4909C8.83386 11.7046 9.00689 10.9217 9.17303 10.1374C9.17407 10.1187 9.17321 10.1 9.17045 10.0815C8.92152 10.2938 8.66915 10.4894 8.44351 10.7135C8.37338 10.7833 8.36734 10.9282 8.34636 11.0416C8.17131 11.9944 8.00401 12.9486 7.82523 13.9005C7.72549 14.433 7.18079 14.8321 6.6312 14.7926C6.08161 14.7532 5.58779 14.2669 5.5875 13.7129C5.5875 13.4081 5.64873 13.1009 5.70248 12.7999C5.87753 11.8024 6.06465 10.8075 6.23999 9.81022C6.31243 9.39789 6.49495 9.053 6.79964 8.77733C7.28369 8.33879 7.76688 7.89966 8.25725 7.46848C8.80425 6.98694 9.44582 6.75368 10.1664 6.75133C10.6982 6.74956 11.2301 6.74956 11.762 6.75133C13.113 6.75245 13.2188 8.85 13.2188 8.85L14.6292 10.5062C14.6292 10.5062 16.3909 11.208 17.2774 11.5438C17.9589 11.8021 18.2231 12.6986 17.7865 13.2956C17.5051 13.6805 16.9681 13.9091 16.4482 13.6999C15.4076 13.282 14.3547 12.8971 13.3064 12.5001C13.1022 12.4256 12.926 12.2873 12.8028 12.1045C12.7712 12.0574 12.7384 12.0115 12.6896 11.9414Z" fill="#262626"/>
</svg>
