<svg width="25" height="24" viewBox="0 0 25 24" fill="none" xmlns="http://www.w3.org/2000/svg">
<path d="M12.9414 3.46875C14.7666 3.46875 16.245 4.93711 16.245 6.75V9.375H9.63783V6.75C9.63783 4.93711 11.1162 3.46875 12.9414 3.46875ZM7.65569 6.75V9.375H6.33426C4.87656 9.375 3.69141 10.5521 3.69141 12V19.875C3.69141 21.3229 4.87656 22.5 6.33426 22.5H19.5485C21.0063 22.5 22.1914 21.3229 22.1914 19.875V12C22.1914 10.5521 21.0063 9.375 19.5485 9.375H18.2271V6.75C18.2271 3.8502 15.8609 1.5 12.9414 1.5C10.0219 1.5 7.65569 3.8502 7.65569 6.75ZM6.33426 11.3438H19.5485C19.9119 11.3438 20.2093 11.6391 20.2093 12V19.875C20.2093 20.2359 19.9119 20.5312 19.5485 20.5312H6.33426C5.97087 20.5312 5.67355 20.2359 5.67355 19.875V12C5.67355 11.6391 5.97087 11.3438 6.33426 11.3438ZM13.9325 14.625C13.9325 14.0795 13.4906 13.6406 12.9414 13.6406C12.3922 13.6406 11.9503 14.0795 11.9503 14.625V17.25C11.9503 17.7955 12.3922 18.2344 12.9414 18.2344C13.4906 18.2344 13.9325 17.7955 13.9325 17.25V14.625Z" fill="#262626"/>
</svg>
