<svg width="24" height="24" viewBox="0 0 24 24" fill="none" xmlns="http://www.w3.org/2000/svg">
<path d="M4.50003 7.5H21V16.5H22.5V6H4.50003V7.5Z" fill="#262626"/>
<path fill-rule="evenodd" clip-rule="evenodd" d="M19.5 9H1.5V19.5H19.5V9ZM8.25 14.25C8.25 13.0073 9.25715 12 10.4996 12C11.7422 12 12.75 13.0074 12.75 14.25C12.75 15.4926 11.7422 16.5 10.4996 16.5C9.25715 16.5 8.25 15.4927 8.25 14.25ZM15.3748 13.125C14.7536 13.125 14.25 13.6287 14.25 14.25C14.25 14.8713 14.7536 15.375 15.3748 15.375C15.9961 15.375 16.5 14.8713 16.5 14.25C16.5 13.6287 15.9961 13.125 15.3748 13.125ZM4.5 14.25C4.5 13.6287 5.00358 13.125 5.62481 13.125C6.2461 13.125 6.75 13.6287 6.75 14.25C6.75 14.8713 6.2461 15.375 5.62481 15.375C5.00358 15.375 4.5 14.8713 4.5 14.25Z" fill="#262626"/>
</svg>
