<svg width="25" height="24" viewBox="0 0 25 24" fill="none" xmlns="http://www.w3.org/2000/svg">
<path d="M12.125 12C13.5269 12 14.8713 11.4469 15.8626 10.4623C16.8538 9.47775 17.4107 8.14239 17.4107 6.75C17.4107 5.35761 16.8538 4.02226 15.8626 3.03769C14.8713 2.05312 13.5269 1.5 12.125 1.5C10.7231 1.5 9.3787 2.05312 8.38743 3.03769C7.39617 4.02226 6.83929 5.35761 6.83929 6.75C6.83929 8.14239 7.39617 9.47775 8.38743 10.4623C9.3787 11.4469 10.7231 12 12.125 12ZM10.2378 13.9688C6.17031 13.9688 2.875 17.2418 2.875 21.2818C2.875 21.9545 3.42422 22.5 4.10145 22.5H20.1485C20.8258 22.5 21.375 21.9545 21.375 21.2818C21.375 17.2418 18.0797 13.9688 14.0122 13.9688H10.2378Z" fill="#262626"/>
</svg>
