<svg width="25" height="24" viewBox="0 0 25 24" fill="none" xmlns="http://www.w3.org/2000/svg">
<path d="M2.17383 5.8125C2.17383 4.6749 3.11555 3.75 4.27383 3.75H21.0738C22.2321 3.75 23.1738 4.6749 23.1738 5.8125V15.0938C23.1738 16.2313 22.2321 17.1562 21.0738 17.1562H4.27383C3.11555 17.1562 2.17383 16.2313 2.17383 15.0938V5.8125ZM6.11133 18.7031H19.2363C19.6727 18.7031 20.0238 19.0479 20.0238 19.4766C20.0238 19.9052 19.6727 20.25 19.2363 20.25H6.11133C5.67492 20.25 5.32383 19.9052 5.32383 19.4766C5.32383 19.0479 5.67492 18.7031 6.11133 18.7031Z" fill="#262626"/>
</svg>
