<svg width="25" height="24" viewBox="0 0 25 24" fill="none" xmlns="http://www.w3.org/2000/svg">
<path d="M12.1253 1.5C12.8187 1.5 13.4959 1.56973 14.1567 1.69688C14.479 1.7584 15.046 1.94707 15.356 2.52129C15.4376 2.67305 15.5029 2.83301 15.5437 3.00527L15.923 4.58437C15.9801 4.82227 16.3799 5.05605 16.6124 4.98633L18.1625 4.52695C18.3257 4.47773 18.4929 4.45312 18.6602 4.44902C19.3169 4.42852 19.7616 4.83457 19.9778 5.08066C20.8793 6.11016 21.5727 7.32012 22.0133 8.62031C22.1194 8.93203 22.2417 9.51445 21.9032 10.0723C21.8134 10.2199 21.7033 10.3594 21.5768 10.4824L20.4061 11.6021C20.2348 11.7662 20.2348 12.2379 20.4061 12.402L21.5768 13.5217C21.7033 13.6447 21.8134 13.7842 21.9032 13.9318C22.2377 14.4896 22.1153 15.0721 22.0133 15.3838C21.5727 16.684 20.8793 17.8898 19.9778 18.9234C19.7616 19.1695 19.3129 19.5756 18.6602 19.5551C18.4929 19.551 18.3257 19.5223 18.1625 19.4771L16.6124 19.0137C16.3799 18.9439 15.9801 19.1777 15.923 19.4156L15.5437 20.9947C15.5029 21.167 15.4376 21.3311 15.356 21.4787C15.0419 22.0529 14.4749 22.2375 14.1567 22.3031C13.4959 22.4303 12.8187 22.5 12.1253 22.5C11.4318 22.5 10.7546 22.4303 10.0938 22.3031C9.77156 22.2416 9.20455 22.0529 8.89452 21.4787C8.81294 21.327 8.74767 21.167 8.70688 20.9947L8.32751 19.4156C8.2704 19.1777 7.87064 18.9439 7.63812 19.0137L6.08802 19.473C5.92485 19.5223 5.7576 19.5469 5.59036 19.551C4.9336 19.5715 4.48897 19.1654 4.27277 18.9193C3.37534 17.8898 2.67779 16.6799 2.23723 15.3797C2.13118 15.068 2.0088 14.4855 2.34737 13.9277C2.43712 13.7801 2.54726 13.6406 2.67371 13.5176L3.84445 12.3979C4.01578 12.2338 4.01578 11.7621 3.84445 11.598L2.66963 10.4783C2.54318 10.3553 2.43304 10.2158 2.34329 10.0682C2.0088 9.51035 2.13118 8.92793 2.23723 8.62031C2.67779 7.32012 3.37126 6.11426 4.27277 5.08066C4.48897 4.83457 4.93768 4.42852 5.59036 4.44902C5.7576 4.45312 5.92485 4.48184 6.08802 4.52695L7.63812 4.98633C7.87064 5.05605 8.2704 4.82227 8.32751 4.58437L8.70688 3.00527C8.74767 2.83301 8.81294 2.66895 8.89452 2.52129C9.20862 1.94707 9.77564 1.7625 10.0938 1.69688C10.7546 1.56973 11.4318 1.5 12.1253 1.5ZM10.5792 3.6082L10.2325 5.04785C9.91433 6.37266 8.38462 7.25859 7.08335 6.87715L5.67602 6.45879C5.00295 7.25039 4.47265 8.16914 4.12591 9.15352L5.19467 10.1748C6.17368 11.11 6.17368 12.89 5.19467 13.8252L4.12591 14.8465C4.47265 15.8309 5.00295 16.7496 5.67602 17.5412L7.08743 17.1229C8.38462 16.7373 9.91841 17.6273 10.2366 18.9521L10.5833 20.3918C11.5868 20.5764 12.676 20.5764 13.6795 20.3918L14.0262 18.9521C14.3444 17.6273 15.8741 16.7414 17.1753 17.1229L18.5868 17.5412C19.2598 16.7496 19.7901 15.8309 20.1369 14.8465L19.0681 13.8252C18.0891 12.89 18.0891 11.11 19.0681 10.1748L20.1369 9.15352C19.7901 8.16914 19.2598 7.25039 18.5868 6.45879L17.1753 6.87715C15.8782 7.2627 14.3444 6.37266 14.0262 5.04785L13.6795 3.6082C12.676 3.42363 11.5868 3.42363 10.5833 3.6082H10.5792ZM10.1672 12C10.1672 12.5221 10.3735 13.0229 10.7407 13.3921C11.1079 13.7613 11.606 13.9688 12.1253 13.9688C12.6446 13.9688 13.1426 13.7613 13.5098 13.3921C13.877 13.0229 14.0833 12.5221 14.0833 12C14.0833 11.4779 13.877 10.9771 13.5098 10.6079C13.1426 10.2387 12.6446 10.0312 12.1253 10.0312C11.606 10.0312 11.1079 10.2387 10.7407 10.6079C10.3735 10.9771 10.1672 11.4779 10.1672 12ZM12.1253 15.9375C11.0867 15.9375 10.0906 15.5227 9.3562 14.7842C8.6218 14.0458 8.20922 13.0443 8.20922 12C8.20922 10.9557 8.6218 9.95419 9.3562 9.21577C10.0906 8.47734 11.0867 8.0625 12.1253 8.0625C13.1639 8.0625 14.1599 8.47734 14.8943 9.21577C15.6287 9.95419 16.0413 10.9557 16.0413 12C16.0413 13.0443 15.6287 14.0458 14.8943 14.7842C14.1599 15.5227 13.1639 15.9375 12.1253 15.9375Z" fill="#262626"/>
</svg>
