<svg width="24" height="24" viewBox="0 0 24 24" fill="none" xmlns="http://www.w3.org/2000/svg">
<path fill-rule="evenodd" clip-rule="evenodd" d="M17.6563 22.5C18.7434 22.5 19.6165 22.1254 20.3281 21.3544C20.3325 21.35 20.3412 21.3413 20.3456 21.3326C20.7701 20.8214 21.306 20.3697 21.8037 19.8516C22.7336 18.8846 22.7336 17.6562 21.7949 16.7197L19.1712 14.1018C18.285 13.1829 16.9758 13.204 16.0803 14.0974L14.5174 15.6568C12.0493 14.239 9.4815 12.1392 8.3182 9.45398C8.87412 8.95241 9.36856 8.42775 9.88547 7.91198C10.8096 6.98991 10.8165 5.69612 9.88547 4.77571C9.00958 3.90177 8.16148 2.98891 7.25299 2.14909C6.35485 1.27035 5.06401 1.2956 4.16211 2.15344L2.52936 3.78256C1.93563 4.37497 1.59948 5.0937 1.52963 5.92568C0.912195 13.675 10.067 22.5 17.6563 22.5Z" fill="#262626"/>
</svg>
