<svg width="24" height="24" viewBox="0 0 24 24" fill="none" xmlns="http://www.w3.org/2000/svg">
<path fill-rule="evenodd" clip-rule="evenodd" d="M2.4425 1.52508C2.04213 1.41887 1.63147 1.65732 1.52526 2.05769C1.41905 2.45805 1.65751 2.86872 2.05787 2.97493L4.48302 3.61828L7.9343 14.8206L6.34309 16.6364C5.49336 17.606 6.18194 19.125 7.47121 19.125H7.80101C7.60957 19.4559 7.5 19.8402 7.5 20.25C7.5 21.4926 8.50736 22.5 9.75 22.5C10.9926 22.5 12 21.4926 12 20.25C12 19.8402 11.8904 19.4559 11.699 19.125H15.301C15.1096 19.4559 15 19.8402 15 20.25C15 21.4926 16.0074 22.5 17.25 22.5C18.4926 22.5 19.5 21.4926 19.5 20.25C19.5 19.8402 19.3904 19.4559 19.199 19.125H20.2502C20.6644 19.125 21.0002 18.7892 21.0002 18.375C21.0002 17.9608 20.6644 17.625 20.2502 17.625L7.47121 17.625L9.11433 15.75H18.7354C19.2625 15.75 19.728 15.406 19.8826 14.9021L22.4336 6.5901C22.7296 5.62574 22.0084 4.65 20.9996 4.65H6.37045L5.91653 3.17664C5.76419 2.68216 5.36776 2.30111 4.86764 2.16843L2.4425 1.52508ZM9 20.25C9 20.6642 9.33579 21 9.75 21C10.1642 21 10.5 20.6642 10.5 20.25C10.5 19.8358 10.1642 19.5 9.75 19.5C9.33579 19.5 9 19.8358 9 20.25ZM16.5 20.25C16.5 20.6642 16.8358 21 17.25 21C17.6642 21 18 20.6642 18 20.25C18 19.8358 17.6642 19.5 17.25 19.5C16.8358 19.5 16.5 19.8358 16.5 20.25Z" fill="#262626"/>
</svg>
