<svg width="24" height="24" viewBox="0 0 24 24" fill="none" xmlns="http://www.w3.org/2000/svg">
<path d="M17.7748 10.9502C15.1662 10.9502 13.0498 13.0666 13.0498 15.6752C13.0498 18.2838 15.1662 20.4002 17.7748 20.4002C20.3834 20.4002 22.4998 18.2838 22.4998 15.6752C22.4998 13.0666 20.3834 10.9502 17.7748 10.9502Z" fill="#EAA407"/>
<path d="M1.5 12.0002C1.5 8.9978 3.10125 6.22514 5.7 4.7256C8.29875 3.22607 11.5012 3.22607 14.1 4.7256C16.0786 5.86748 17.4797 7.74764 18.0342 9.90671C17.9489 9.90343 17.8603 9.90015 17.775 9.90015C17.3156 9.90015 16.8694 9.95265 16.4428 10.0544C15.9506 8.40389 14.8448 6.97326 13.3125 6.09061C11.1994 4.86998 8.60062 4.86998 6.4875 6.09061C4.37437 7.31123 3.075 9.56218 3.075 12.0002C3.075 14.4381 4.37437 16.6924 6.4875 17.9097C8.37094 18.9958 10.6448 19.1139 12.6136 18.2608C12.8564 18.7431 13.1616 19.1828 13.5225 19.5766C11.0386 20.7644 8.11172 20.6627 5.7 19.2714C3.10125 17.7752 1.5 15.0025 1.5 12.0002ZM9.1125 7.53764C9.1125 7.10123 9.46359 6.75014 9.9 6.75014C10.3364 6.75014 10.6875 7.10123 10.6875 7.53764C10.6875 8.88624 10.6875 10.2316 10.6875 11.5802C11.3569 12.0264 12.0295 12.4727 12.6989 12.9189C12.443 13.3881 12.2494 13.8967 12.1345 14.4348C11.2453 13.8409 10.3561 13.247 9.46359 12.6564C9.24375 12.5087 9.1125 12.2627 9.1125 12.0002C9.1125 10.5137 9.1125 9.02405 9.1125 7.53764ZM16.9875 18.0377C16.9875 18.4741 17.3386 18.8252 17.775 18.8252C18.2114 18.8252 18.5625 18.4741 18.5625 18.0377C18.5625 17.6013 18.2114 17.2502 17.775 17.2502C17.3386 17.2502 16.9875 17.6013 16.9875 18.0377ZM17.25 13.0502V15.6752C17.25 15.9639 17.4862 16.2002 17.775 16.2002C18.0637 16.2002 18.3 15.9639 18.3 15.6752C18.3 14.7991 18.3 13.9262 18.3 13.0502C18.3 12.7614 18.0637 12.5252 17.775 12.5252C17.4862 12.5252 17.25 12.7614 17.25 13.0502Z" fill="#262626"/>
</svg>
