<svg width="25" height="24" viewBox="0 0 25 24" fill="none" xmlns="http://www.w3.org/2000/svg">
<path d="M21.6638 10.5517C22.2657 10.5517 22.75 10.0674 22.75 9.46551V2.94827C22.75 2.34633 22.2657 1.86206 21.6638 1.86206C21.0619 1.86206 20.5776 2.34633 20.5776 2.94827V6.57348L19.6724 5.50991C17.8168 3.28318 15.0153 1.86206 11.8879 1.86206C6.28944 1.86206 1.75 6.4015 1.75 12C1.75 17.5985 6.28944 22.1379 11.8879 22.1379C14.169 22.1379 16.278 21.3821 17.9707 20.1103C18.4504 19.7483 18.5455 19.0694 18.1879 18.5896C17.8304 18.1099 17.147 18.0149 16.6672 18.3724C15.3366 19.3726 13.6847 19.9655 11.8879 19.9655C7.48879 19.9655 3.92241 16.3991 3.92241 12C3.92241 7.60085 7.48879 4.03447 11.8879 4.03447C14.3455 4.03447 16.545 5.14784 18.0069 6.90387L18.0114 6.91292L19.2606 8.3793H15.1466C14.5446 8.3793 14.0603 8.86357 14.0603 9.46551C14.0603 10.0674 14.5446 10.5517 15.1466 10.5517H21.6638Z" fill="#262626"/>
</svg>
