<svg width="375" height="181" viewBox="0 0 375 181" fill="none" xmlns="http://www.w3.org/2000/svg">
<g clip-path="url(#clip0_1944_9037)">
<path d="M0 15.8322C0 6.9956 7.16344 -0.167847 16 -0.167847H359C367.837 -0.167847 375 6.9956 375 15.8322V180.832H0V15.8322Z" fill="#FFEEE5"/>
<path d="M262.404 56.0136C250.561 42.8647 240.248 36.1858 207.559 46.9331C197.12 48.1085 190.578 44.7994 181.328 42.5981C180.256 42.3447 179.182 42.1157 178.11 41.9172C172.392 40.8497 166.656 40.5554 161.083 41.0395C158.698 41.2425 156.346 41.5905 154.036 42.0796C119.059 46.8201 93.8708 73.1679 101.523 104.76C108.63 134.097 123.524 147.146 139.95 154.383C145.748 156.942 158.781 159.361 165.524 160.178C200.162 164.247 244.804 143.276 267.255 115.353C271.147 110.47 273.872 105.38 275.527 100.256C280.775 84.0506 275.479 70.5293 262.404 56.0136Z" fill="white"/>
<path d="M89.5692 59.6332L91.9387 60.639C92.751 60.9839 92.751 62.1352 91.9387 62.48L89.5692 63.4859C87.1523 64.5103 85.2452 66.5691 84.2893 69.1719L83.4396 71.4933C83.1194 72.3683 81.8818 72.3683 81.5615 71.4933L80.7118 69.1719C79.7605 66.574 77.8489 64.5152 75.432 63.4859L73.0624 62.48C72.2501 62.1352 72.2501 60.9839 73.0624 60.639L75.432 59.6332C77.8443 58.6087 79.756 56.55 80.7118 53.9472L81.5615 51.6258C81.8818 50.7507 83.1194 50.7507 83.4396 51.6258L84.2893 53.9472C85.2406 56.5451 87.1523 58.6038 89.5692 59.6332Z" fill="#FDC3A4"/>
<path d="M110.902 43.7858L111.842 44.1851C112.655 44.53 112.655 45.6813 111.842 46.0261L110.902 46.4254C109.246 47.1272 107.939 48.5377 107.285 50.3209L106.998 51.1034C106.678 51.9784 105.44 51.9784 105.12 51.1034L104.834 50.3209C104.182 48.541 102.872 47.1306 101.216 46.4254L100.276 46.0261C99.4635 45.6813 99.4635 44.53 100.276 44.1851L101.216 43.7858C102.869 43.084 104.179 41.6735 104.834 39.8903L105.12 39.1078C105.44 38.2328 106.678 38.2328 106.998 39.1078L107.285 39.8903C107.936 41.6702 109.246 43.0806 110.902 43.7858Z" fill="#FCA06F"/>
<path opacity="0.63" d="M289.657 99.5046L291.592 100.326C292.404 100.671 292.404 101.822 291.592 102.167L289.657 102.988C287.471 103.915 285.747 105.776 284.882 108.13L284.204 109.983C283.884 110.858 282.646 110.858 282.326 109.983L281.648 108.13C280.787 105.781 279.059 103.919 276.873 102.988L274.938 102.167C274.126 101.822 274.126 100.671 274.938 100.326L276.873 99.5046C279.055 98.5783 280.783 96.7167 281.648 94.3632L282.326 92.5098C282.646 91.6348 283.884 91.6348 284.204 92.5098L284.882 94.3632C285.743 96.7123 287.471 98.5738 289.657 99.5046Z" fill="#FCE2A6"/>
<path d="M189.704 44.9123C191.421 46.2149 192.449 48.102 192.72 50.0898C192.993 52.0817 192.513 54.1729 191.21 55.8892L175.295 76.8623C172.69 80.2949 167.749 80.9691 164.317 78.364C162.6 77.0614 161.572 75.1744 161.301 73.1865C161.03 71.1987 161.512 69.1019 162.811 67.3872L178.726 46.4141C181.331 42.9815 186.27 42.3031 189.703 44.9082L189.704 44.9123Z" fill="#517EFE"/>
<path d="M180.161 57.4875C181.878 58.7901 182.906 60.6772 183.177 62.665C183.45 64.6569 182.97 66.7481 181.667 68.4644L175.292 76.8636C172.687 80.2963 167.746 80.9705 164.314 78.3654C162.597 77.0628 161.569 75.1757 161.298 73.1879C161.027 71.2001 161.509 69.1033 162.808 67.3886L169.183 58.9893C171.788 55.5567 176.727 54.8783 180.16 57.4834L180.161 57.4875Z" fill="#F55905"/>
<path opacity="0.4" d="M179.744 47.9746L166.351 65.6199C165.939 66.163 166.045 66.9374 166.588 67.3496C167.131 67.7619 167.906 67.6557 168.318 67.1126L181.71 49.4674C182.123 48.9243 182.016 48.1498 181.473 47.7376C180.93 47.3254 180.156 47.4315 179.744 47.9746Z" fill="#E9F3FE"/>
<path d="M130.386 32.0314C132.072 30.9498 134.047 30.6556 135.869 31.0542C137.694 31.4527 139.366 32.54 140.447 34.2253L153.665 54.8174C155.828 58.1879 154.837 62.7152 151.467 64.8783C149.781 65.9599 147.806 66.254 145.984 65.8555C144.163 65.4569 142.487 64.3656 141.406 62.6844L128.188 42.0923C126.025 38.7217 127.012 34.1945 130.382 32.0314L130.386 32.0314Z" fill="#F8B825"/>
<path d="M138.311 44.3792C139.996 43.2977 141.972 43.0035 143.793 43.4021C145.619 43.8006 147.29 44.8878 148.372 46.5731L153.664 54.8213C155.827 58.1919 154.837 62.7191 151.466 64.8823C149.781 65.9638 147.806 66.258 145.984 65.8594C144.163 65.4609 142.487 64.3696 141.406 62.6884L136.113 54.4402C133.95 51.0696 134.936 46.5424 138.307 44.3793L138.311 44.3792Z" fill="#517EFE"/>
<path opacity="0.4" d="M129.876 41.7033L140.995 59.0303C141.338 59.5636 142.047 59.7185 142.581 59.3762C143.114 59.034 143.269 58.3242 142.927 57.7909L131.807 40.4639C131.465 39.9306 130.755 39.7757 130.222 40.1179C129.689 40.4602 129.534 41.17 129.876 41.7033Z" fill="#E9F3FE"/>
<path opacity="0.8" d="M112.145 146.591L95.872 137.561L87.2626 132.785C83.9217 130.931 82.7055 126.68 84.5596 123.339L106.012 84.706C107.866 81.365 112.113 80.1469 115.458 82.003L123.09 86.2399L140.339 95.8123C143.679 97.6664 144.896 101.918 143.042 105.258L121.591 143.897C119.737 147.238 115.486 148.454 112.145 146.6L112.145 146.591Z" fill="#F9D481"/>
<path d="M149.423 95.5962L149.084 96.216L146.282 101.257C145.924 101.912 145.093 102.144 144.444 101.784L121.332 88.9557L108.216 81.6796C107.563 81.318 107.329 80.4904 107.689 79.8408L110.474 74.8224L110.828 74.1744C111.195 73.5287 112.019 73.2932 112.669 73.6529L125.77 80.9213L126.93 81.5692L148.9 93.7593C149.549 94.119 149.785 94.9431 149.423 95.5962Z" fill="#F55905"/>
<path d="M152.137 95.3655L151.682 96.1139C151.323 96.7635 150.493 97.0007 149.845 96.6374L149.078 96.2177L125.923 83.3931L122.64 81.5752L110.473 74.8225L109.523 74.2937C108.873 73.934 108.636 73.1044 108.999 72.4568L109.452 71.7119C109.812 71.0623 110.638 70.8232 111.291 71.1849L124.387 78.4549L124.39 78.4568L127.649 80.2612L151.614 93.5286C152.263 93.8883 152.497 94.7159 152.137 95.3655Z" fill="#F55905"/>
<path d="M126.531 79.6454C127.151 79.9843 127.37 80.7628 127.033 81.3791L126.929 81.5693L125.923 83.3931L123.15 88.4227C122.791 89.0633 121.977 89.3047 121.331 88.9558L108.215 81.6797C107.562 81.3181 107.328 80.4905 107.688 79.8409L110.473 74.8225L109.523 74.2937C108.873 73.934 108.636 73.1044 108.999 72.4568L109.452 71.7119C109.812 71.0623 110.638 70.8232 111.291 71.1849L124.387 78.4549L124.39 78.4568L126.533 79.6419L126.531 79.6454Z" fill="#FCA06F"/>
<path d="M104.453 128.675L104.453 128.671C104.756 126.453 103.204 124.409 100.986 124.106L92.3167 122.922C90.0985 122.619 88.0548 124.171 87.7518 126.39L87.7512 126.394C87.4483 128.612 89.0009 130.655 91.219 130.958L99.8879 132.142C102.106 132.445 104.15 130.893 104.453 128.675Z" fill="#EAA407"/>
<path d="M103.958 136.624L103.962 136.623C106.144 136.125 107.51 133.952 107.013 131.77L105.068 123.239C104.57 121.056 102.398 119.69 100.215 120.188L100.211 120.189C98.0281 120.686 96.6621 122.859 97.1597 125.042L99.1044 133.573C99.6021 135.755 101.775 137.121 103.958 136.624Z" fill="#EAA407"/>
<path d="M109.347 141.009L109.351 141.01C111.53 141.525 113.714 140.177 114.229 137.998L116.243 129.484C116.758 127.305 115.41 125.121 113.231 124.606L113.227 124.605C111.049 124.09 108.865 125.438 108.35 127.617L106.336 136.131C105.82 138.31 107.169 140.494 109.347 141.009Z" fill="#EAA407"/>
<path d="M113.156 143.105L113.159 143.108C114.967 144.429 117.503 144.035 118.824 142.227L123.987 135.164C125.309 133.357 124.914 130.82 123.107 129.499L123.104 129.497C121.296 128.176 118.76 128.57 117.439 130.377L112.276 137.44C110.954 139.248 111.349 141.784 113.156 143.105Z" fill="#EAA407"/>
<path d="M95.4097 116.393L95.4067 116.395C93.6996 117.844 93.4898 120.402 94.9382 122.109L100.599 128.78C102.047 130.488 104.605 130.697 106.312 129.249L106.315 129.246C108.022 127.798 108.232 125.24 106.784 123.533L101.123 116.861C99.6749 115.154 97.1168 114.944 95.4097 116.393Z" fill="#EAA407"/>
<path d="M106.791 119.381L106.789 119.384C105.634 121.302 106.253 123.793 108.171 124.948L115.667 129.46C117.585 130.615 120.076 129.996 121.23 128.078L121.233 128.075C122.387 126.157 121.768 123.666 119.85 122.511L112.354 117.999C110.436 116.844 107.945 117.463 106.791 119.381Z" fill="#EAA407"/>
<path d="M94.4562 113.439L94.4567 113.443C94.7098 115.667 96.7183 117.265 98.9427 117.012L107.636 116.023C109.86 115.77 111.458 113.761 111.205 111.537L111.205 111.533C110.952 109.308 108.943 107.71 106.719 107.963L98.0255 108.953C95.8011 109.206 94.2031 111.214 94.4562 113.439Z" fill="#EAA407"/>
<path d="M119.68 112.834L119.677 112.835C117.524 113.452 116.28 115.697 116.897 117.849L119.307 126.26C119.924 128.412 122.169 129.656 124.321 129.039L124.325 129.038C126.477 128.422 127.721 126.177 127.105 124.025L124.694 115.614C124.077 113.462 121.832 112.217 119.68 112.834Z" fill="#EAA407"/>
<path d="M117.598 110.227L117.595 110.224C115.885 108.779 113.327 108.993 111.882 110.702L106.232 117.383C104.787 119.093 105.001 121.65 106.71 123.096L106.713 123.099C108.423 124.544 110.981 124.33 112.426 122.621L118.076 115.94C119.521 114.23 119.307 111.672 117.598 110.227Z" fill="#EAA407"/>
<path d="M107.421 97.7529L107.418 97.751C105.46 96.6654 102.992 97.3725 101.907 99.3304L97.6641 106.982C96.5784 108.94 97.2856 111.407 99.2435 112.493L99.247 112.495C101.205 113.581 103.672 112.874 104.758 110.916L109.001 103.264C110.086 101.306 109.379 98.8385 107.421 97.7529Z" fill="#EAA407"/>
<path d="M124.781 106.092L124.781 106.088C124.743 103.85 122.897 102.067 120.658 102.105L111.91 102.257C109.672 102.296 107.888 104.142 107.927 106.38L107.927 106.384C107.966 108.623 109.812 110.406 112.051 110.367L120.799 110.215C123.037 110.177 124.82 108.331 124.781 106.092Z" fill="#EAA407"/>
<path d="M129.551 122.781L129.555 122.78C131.707 122.163 132.952 119.918 132.335 117.766L129.925 109.355C129.308 107.203 127.063 105.958 124.911 106.575L124.907 106.576C122.755 107.193 121.51 109.438 122.127 111.59L124.538 120.001C125.155 122.153 127.399 123.397 129.551 122.781Z" fill="#EAA407"/>
<path d="M106.278 91.2915L106.275 91.2942C104.639 92.8228 104.552 95.388 106.081 97.0236L112.055 103.416C113.583 105.052 116.149 105.138 117.784 103.61L117.787 103.607C119.423 102.078 119.51 99.5133 117.981 97.8777L112.007 91.4853C110.478 89.8496 107.913 89.7629 106.278 91.2915Z" fill="#EAA407"/>
<path d="M133.332 103.196L133.328 103.195C131.127 102.788 129.011 104.241 128.604 106.443L127.009 115.046C126.602 117.247 128.055 119.362 130.257 119.77L130.261 119.771C132.462 120.179 134.577 118.725 134.985 116.523L136.579 107.921C136.987 105.719 135.533 103.604 133.332 103.196Z" fill="#EAA407"/>
<g style="mix-blend-mode:screen" opacity="0.4">
<rect x="112.007" y="88.6494" width="7.15602" height="44.8148" rx="3.57801" transform="rotate(28.6858 112.007 88.6494)" fill="white"/>
</g>
<path d="M207.912 160.847L203.013 102.799C202.711 99.2218 199.567 96.5668 195.99 96.8687L161.486 99.7806C157.909 100.083 155.254 103.227 155.556 106.804L160.455 164.852C160.757 168.429 163.901 171.084 167.478 170.782L201.982 167.87C205.559 167.568 208.214 164.424 207.912 160.847Z" fill="#79A5FE"/>
<path d="M210.29 160.646L205.391 102.598C205.089 99.021 201.945 96.366 198.368 96.6679L163.864 99.5798C160.287 99.8817 157.632 103.026 157.934 106.603L162.833 164.651C163.135 168.228 166.279 170.883 169.856 170.581L204.36 167.669C207.937 167.367 210.592 164.223 210.29 160.646Z" fill="#C8DFFF"/>
<path d="M192.081 119.637C188.427 119.942 185.205 117.032 184.883 113.137C184.557 109.244 187.253 105.838 190.907 105.533C191.985 105.442 193.371 105.348 193.371 105.348C195.615 106.335 197.876 109.287 198.105 112.034C198.346 114.886 196.605 118.098 194.414 119.401C194.414 119.401 193.059 119.554 192.081 119.637Z" fill="#517EFE"/>
<path d="M191.404 119.242C187.642 118.182 185.453 114.271 186.517 110.512C187.578 106.753 191.485 104.561 195.247 105.625C199.006 106.686 201.198 110.596 200.134 114.355C199.073 118.114 195.163 120.303 191.404 119.242Z" fill="#79A5FE"/>
<path d="M200.134 114.355L186.514 110.513C187.575 106.754 191.482 104.562 195.244 105.625C199.003 106.686 201.195 110.596 200.131 114.355L200.134 114.355Z" fill="#A7CBFF"/>
<path d="M170.06 121.495C166.406 121.801 163.184 118.891 162.862 114.995C162.536 111.103 165.232 107.697 168.886 107.392C169.964 107.301 171.35 107.207 171.35 107.207C173.594 108.194 175.855 111.146 176.084 113.892C176.325 116.745 174.584 119.957 172.393 121.26C172.393 121.26 171.038 121.413 170.06 121.495Z" fill="#517EFE"/>
<path d="M167.483 120.114C164.258 117.906 163.434 113.5 165.642 110.278C167.849 107.053 172.252 106.23 175.477 108.437C178.702 110.645 179.526 115.051 177.318 118.273C175.11 121.498 170.704 122.321 167.483 120.114Z" fill="#79A5FE"/>
<path d="M177.318 118.273L165.642 110.278C167.849 107.053 172.252 106.23 175.477 108.437C178.702 110.645 179.526 115.051 177.318 118.273Z" fill="#A7CBFF"/>
<path d="M195.547 162.634C191.894 162.94 188.671 160.03 188.349 156.134C188.024 152.242 190.72 148.836 194.373 148.531C195.451 148.44 196.837 148.346 196.837 148.346C199.082 149.333 201.343 152.285 201.571 155.031C201.812 157.884 200.071 161.096 197.88 162.399C197.88 162.399 196.525 162.552 195.547 162.634Z" fill="#517EFE"/>
<path d="M192.97 161.253C189.745 159.045 188.921 154.64 191.129 151.418C193.337 148.193 197.74 147.369 200.965 149.577C204.19 151.784 205.013 156.19 202.805 159.412C200.598 162.637 196.192 163.461 192.97 161.253Z" fill="#79A5FE"/>
<path d="M202.805 159.412L191.129 151.418C193.337 148.193 197.74 147.369 200.965 149.577C204.19 151.784 205.013 156.19 202.805 159.412Z" fill="#A7CBFF"/>
<path d="M173.994 164.602C170.341 164.907 167.118 161.997 166.796 158.101C166.471 154.209 169.167 150.803 172.82 150.498C173.898 150.407 175.284 150.313 175.284 150.313C177.529 151.3 179.79 154.252 180.018 156.998C180.259 159.851 178.518 163.063 176.327 164.366C176.327 164.366 174.972 164.519 173.994 164.602Z" fill="#517EFE"/>
<path d="M171.417 163.22C168.192 161.013 167.369 156.607 169.577 153.385C171.784 150.16 176.187 149.337 179.412 151.544C182.637 153.752 183.461 158.158 181.253 161.379C179.045 164.605 174.639 165.428 171.417 163.22Z" fill="#79A5FE"/>
<path d="M181.253 161.379L169.577 153.385C171.784 150.16 176.187 149.337 179.412 151.544C182.637 153.752 183.461 158.158 181.253 161.379Z" fill="#A7CBFF"/>
<path d="M194.087 142.622C190.434 142.927 187.211 140.017 186.889 136.122C186.563 132.23 189.26 128.824 192.913 128.518C193.991 128.428 195.377 128.333 195.377 128.333C197.622 129.32 199.882 132.272 200.111 135.019C200.352 137.871 198.611 141.083 196.42 142.386C196.42 142.386 195.065 142.539 194.087 142.622Z" fill="#517EFE"/>
<path d="M191.51 141.24C188.285 139.033 187.462 134.627 189.67 131.405C191.877 128.18 196.28 127.357 199.505 129.564C202.73 131.772 203.554 136.178 201.346 139.4C199.138 142.625 194.732 143.448 191.51 141.24Z" fill="#79A5FE"/>
<path d="M201.346 139.4L189.67 131.405C191.877 128.18 196.28 127.357 199.505 129.564C202.73 131.772 203.554 136.178 201.346 139.4Z" fill="#A7CBFF"/>
<path d="M171.51 144.073C167.856 144.378 164.634 141.468 164.312 137.572C163.986 133.68 166.682 130.274 170.336 129.969C171.414 129.878 172.8 129.784 172.8 129.784C175.044 130.771 177.305 133.723 177.534 136.469C177.775 139.322 176.034 142.534 173.843 143.837C173.843 143.837 172.488 143.99 171.51 144.073Z" fill="#517EFE"/>
<path d="M168.933 142.691C165.708 140.483 164.884 136.078 167.092 132.856C169.3 129.631 173.702 128.807 176.927 131.015C180.152 133.223 180.976 137.628 178.768 140.85C176.56 144.075 172.155 144.899 168.933 142.691Z" fill="#79A5FE"/>
<path d="M178.768 140.85L167.092 132.856C169.3 129.631 173.702 128.807 176.927 131.015C180.152 133.223 180.976 137.628 178.768 140.85Z" fill="#A7CBFF"/>
<path d="M266.628 37.1577L204.316 54.9998L200.891 58.3695C199.054 60.1796 198.526 62.9722 199.675 65.2804C199.713 65.3566 199.751 65.4301 199.792 65.5036L254.407 166.375C256.451 170.147 261.339 171.274 264.829 168.775L317.623 130.933C320.562 128.826 321.458 124.855 319.708 121.689L274.848 40.5574C273.237 37.6449 269.826 36.235 266.628 37.1604V37.1577Z" fill="#2D57FD"/>
<path d="M269.643 35.3232L207.091 53.4265C202.723 54.6922 200.64 59.6678 202.804 63.6663L257.419 164.537C259.463 168.31 264.352 169.437 267.842 166.938L320.636 129.095C323.575 126.989 324.471 123.017 322.72 119.852L277.861 38.7201C276.249 35.8077 272.839 34.3977 269.641 35.3232H269.643Z" fill="#79A5FE"/>
<path d="M272.164 41.2977L212.664 60.4762C211.627 60.811 211.145 62.0032 211.662 62.9641L255.269 144.115C256.707 146.788 258.359 149.338 260.21 151.739C261.293 153.143 262.676 154.303 264.284 155.051C266.772 156.211 269.244 156.222 271.819 154.349L318.782 122.046C319.882 121.289 319.975 119.699 318.965 118.826C315.369 115.709 307.601 107.848 299.391 92.3361C293.716 81.6145 278.272 49.8472 274.633 42.3484C274.187 41.4311 273.136 40.982 272.164 41.295V41.2977Z" fill="#E5E5E5"/>
<path d="M232.732 47.1253C230.121 44.7028 228.183 38.1348 233.627 36.5779L243.565 33.494C247.082 32.7836 249.224 34.2725 251.562 39.7408L251.872 40.3341" stroke="#A6A6A6" stroke-width="4.85748" stroke-miterlimit="10"/>
<path d="M272.608 41.1534L212.487 60.5334C211.539 60.8382 211.101 61.927 211.572 62.8035L248.53 131.738C248.576 131.823 250.574 134.256 250.634 134.332C251.208 135.051 253.762 137.1 255.803 138.184C258.479 139.602 260.79 141.769 267.796 139.888C273.338 138.399 303.981 115.124 309.819 110.034C310.383 109.541 309.876 106.999 309.514 106.343L274.492 41.902C274.124 41.2324 273.335 40.9194 272.608 41.1534Z" fill="white"/>
<path d="M248.533 131.736C248.533 131.736 253.789 139.534 264.124 138.603C272.954 137.805 278.076 129.093 273.302 122.664C272.69 121.836 272.85 120.671 273.667 120.045L314.338 88.9528C315.312 88.207 316.73 88.5799 317.209 89.7095C318.951 93.8141 321.281 103.033 311.433 110.124C300.823 117.761 280.76 132.492 273.613 137.748C270.564 139.988 266.846 141.167 263.068 140.979C258.552 140.756 252.934 138.772 248.533 131.738V131.736Z" fill="#A6A6A6"/>
<path d="M219.43 49.8663C221.708 50.4324 224.92 51.8723 226.104 55.5278C226.765 57.572 228.962 58.6988 231.001 58.0265L262.572 47.6098C264.526 46.9647 265.642 44.9042 265.095 42.92C264.374 40.3042 262.681 37.1958 258.723 36.8528L219.397 48.7639C218.839 48.9326 218.866 49.7247 219.43 49.8635V49.8663Z" fill="#838383"/>
<path d="M219.321 48.7666C219.321 48.7666 225.502 49.1776 227.405 55.1195C228.058 57.1555 230.263 58.2579 232.294 57.5883L263.865 47.1716C265.819 46.5265 266.935 44.466 266.388 42.4817C265.667 39.866 263.974 36.7576 260.016 36.4146L219.321 48.7666Z" fill="#A6A6A6"/>
<path d="M233.818 53.3743C235.257 53.3743 236.425 52.2071 236.425 50.7672C236.425 49.3273 235.257 48.1601 233.818 48.1601C232.378 48.1601 231.21 49.3273 231.21 50.7672C231.21 52.2071 232.378 53.3743 233.818 53.3743Z" fill="#E5E5E5"/>
<path d="M259.818 44.3743C261.257 44.3743 262.425 43.2071 262.425 41.7672C262.425 40.3273 261.257 39.1601 259.818 39.1601C258.378 39.1601 257.21 40.3273 257.21 41.7672C257.21 43.2071 258.378 44.3743 259.818 44.3743Z" fill="#E5E5E5"/>
<path d="M247.566 71.4499L247.566 71.4497C245.12 66.2409 239.109 63.3462 233.575 65.2485L233.574 65.2487C227.378 67.3828 224.306 74.5509 227.313 80.9597L227.313 80.9598C230.32 87.3658 237.799 89.5834 243.399 86.1777L243.399 86.1775C248.398 83.1344 250.011 76.6612 247.566 71.4499Z" stroke="#0EC335" stroke-width="1.86341"/>
<path d="M252.223 66.6278L274.97 57.2862" stroke="#A6A6A6" stroke-width="2.49834" stroke-miterlimit="10" stroke-linecap="round"/>
<path d="M253.851 92.9839L287.042 76.3095" stroke="#A6A6A6" stroke-width="2.49834" stroke-miterlimit="10" stroke-linecap="round"/>
<path d="M256.184 97.5458L282.039 84.2766" stroke="#A6A6A6" stroke-width="2.49834" stroke-miterlimit="10" stroke-linecap="round"/>
<path d="M255.141 72.6758L270.046 66.3038" stroke="#A6A6A6" stroke-width="2.49834" stroke-miterlimit="10" stroke-linecap="round"/>
<path d="M249.7 102.837L245.876 105.194C244.885 105.807 243.549 105.371 242.964 104.247L240.715 99.9274C240.13 98.8033 240.541 97.4559 241.613 96.9959L245.767 95.2131C246.744 94.7939 247.917 95.2703 248.445 96.2991L250.367 100.042C250.892 101.062 250.601 102.282 249.703 102.834L249.7 102.837Z" fill="white" stroke="#C9C9C9" stroke-width="1.86341" stroke-miterlimit="10" stroke-linecap="round"/>
<path d="M242.436 98.0541L246.047 100.267L249.541 90.3675" stroke="#2D57FD" stroke-width="4" stroke-linecap="round" stroke-linejoin="round"/>
<path d="M262.796 110.842L295.339 92.5566" stroke="#A6A6A6" stroke-width="2.49834" stroke-miterlimit="10" stroke-linecap="round"/>
<path d="M265.242 115.344L290.586 100.632" stroke="#A6A6A6" stroke-width="2.49834" stroke-miterlimit="10" stroke-linecap="round"/>
<path d="M258.895 120.799L255.13 123.254C254.156 123.891 252.808 123.491 252.193 122.38L249.836 118.121C249.221 117.01 249.599 115.655 250.661 115.167L254.768 113.281C255.735 112.837 256.919 113.281 257.474 114.299L259.488 117.99C260.038 118.997 259.779 120.222 258.895 120.799Z" fill="white" stroke="#C9C9C9" stroke-width="1.86341" stroke-miterlimit="10" stroke-linecap="round"/>
<path d="M253.977 149.618C253.977 149.618 262.393 133.2 242.626 119.659C240.5 118.202 238.758 116.243 237.615 113.934C236.812 112.315 236.034 110.29 235.587 107.949C234.501 102.252 232.425 91.8434 222.887 90.3327C220.944 90.0252 219.172 91.5358 219.161 93.501C219.153 94.8892 219.362 96.8245 220.018 99.4947L223.897 115.671L221.412 105.349L219.713 102.306C219.713 102.306 214.087 133.899 228.916 146.355L229.213 166.374L238.342 171.181L252.52 173.498L253.977 149.618Z" fill="#F8BAA0"/>
<path d="M220.623 104.563L224.803 120.078C225.269 121.866 226.042 123.556 227.093 125.078L228.252 126.757C229.273 128.235 229.91 129.945 230.108 131.73L230.4 134.349" stroke="#221F20" stroke-width="2" stroke-linecap="round" stroke-linejoin="round"/>
<path opacity="0.16" d="M239.199 150.517C239.148 146.698 238.758 143.472 235.851 140.995C229.436 135.527 230.389 131.052 228.598 128.034C223.655 119.71 221.61 105.747 221.61 105.747L219.713 102.309C219.713 102.309 214.087 133.902 228.916 146.358L229.213 166.377L238.342 171.184C238.47 164.989 239.256 154.899 239.199 150.519V150.517Z" fill="#221F20"/>
<path d="M227.609 151.443L259.88 153.006C261.583 153.089 262.887 154.421 262.79 155.979L259.889 202.032L221.573 199.954L224.577 153.92C224.67 152.473 226.024 151.366 227.609 151.443Z" fill="white"/>
<path d="M254.658 166.194C257.128 166.194 259.13 164.192 259.13 161.722C259.13 159.252 257.128 157.25 254.658 157.25C252.188 157.25 250.186 159.252 250.186 161.722C250.186 164.192 252.188 166.194 254.658 166.194Z" fill="#C9C9C9"/>
<path d="M409.057 112.795C408.858 113.61 408.636 114.431 408.391 115.254C404.829 127.261 397.625 135.714 392.305 134.134C391.917 134.021 391.552 133.848 391.204 133.635L343.711 111.689L345.054 107.166L350.415 89.0862L355.534 71.8351L355.694 71.292L358.208 71.9344L405.205 90.6535C410.161 92.1251 411.737 101.778 409.057 112.795Z" fill="white"/>
<path d="M364.907 113.654C367.647 113.654 369.868 111.433 369.868 108.694C369.868 105.954 367.647 103.733 364.907 103.733C362.167 103.733 359.946 105.954 359.946 108.694C359.946 111.433 362.167 113.654 364.907 113.654Z" fill="#C9C9C9"/>
<path d="M359.814 92.6017C359.668 93.1799 359.507 93.7639 359.335 94.3479C357.312 101.178 353.904 106.734 350.345 109.657C348.088 111.508 345.775 112.3 343.711 111.687C341.144 110.927 339.436 108.127 338.726 104.185C338.265 101.613 338.227 98.5468 338.656 95.2414C338.656 95.2209 338.656 95.2005 338.662 95.1801C338.939 93.0719 339.404 90.8673 340.069 88.6306C340.379 87.5882 340.721 86.575 341.088 85.5968C344.064 77.7217 348.838 72.0833 353.133 71.2073C354.015 71.0292 354.876 71.0496 355.697 71.292C356.409 71.5051 357.055 71.873 357.633 72.3811C361.146 75.45 362.097 83.6141 359.817 92.6017H359.814Z" fill="#C9C9C9"/>
<path d="M294.342 56.5691L301.926 45.2536C305.771 39.5166 313.335 37.6244 319.429 40.8779L325.561 44.1515L294.345 56.5691H294.342Z" fill="#E59A7A"/>
<path d="M360.594 89.7555C360.468 90.2537 360.336 90.9085 360.188 91.4118C358.444 97.2972 356.813 101.969 354.313 105.187L347.188 102.031L341.649 99.6092L332.508 95.3039C331.454 95.1001 330.452 94.8736 329.506 94.622C328.792 94.4308 328.107 94.2295 327.45 94.0156C327.448 94.0156 327.445 94.0156 327.443 94.0131C314.816 89.9066 312.912 81.7439 312.912 81.7439L311.198 81.1602L305.833 79.3334L302.545 78.2137L302.125 77.4336L298.627 70.9544L296.549 67.0995L296.395 66.8177C292.847 68.4432 291.139 70.0359 288.076 69.5528C285.857 69.2056 284.357 67.5952 283.419 66.1131C282.523 64.6889 282.885 62.8194 284.229 61.8104C288.361 58.7104 292.362 56.1036 296.118 53.9145C296.395 53.7534 296.669 53.5949 296.941 53.4414C296.954 53.4339 296.966 53.4263 296.976 53.4213C306.747 47.8378 314.779 45.1127 319.011 43.9225C319.2 43.8672 319.386 43.8168 319.572 43.7665C319.688 43.7363 319.801 43.7061 319.909 43.6759C320.178 43.6055 320.428 43.5426 320.654 43.4847C320.79 43.452 320.918 43.4193 321.036 43.3916C321.077 43.3815 321.117 43.3715 321.155 43.3639C321.23 43.3463 321.301 43.3287 321.369 43.3136C321.404 43.306 321.439 43.296 321.474 43.2884C321.6 43.2607 321.713 43.2356 321.809 43.2155C321.822 43.2155 321.832 43.2104 321.844 43.2079C321.927 43.1878 321.998 43.1752 322.056 43.1626C322.131 43.1475 322.204 43.1324 322.28 43.1173L323.19 42.8858L323.593 42.7827C323.986 42.6845 324.381 42.6367 324.768 42.6367C326.836 42.6367 328.731 44.0055 329.317 46.084L330.294 47.7673L337.618 60.3912L339.984 64.465C341.322 66.7749 343.534 68.4532 346.118 69.1251L354.065 71.1909L355.281 71.443L356.781 71.7187C360.344 73.5312 362.313 80.9062 360.594 89.7555Z" fill="#F8BAA0"/>
<path d="M296.089 53.9095C296.089 53.9095 312.08 44.9668 322.872 43.0042" stroke="#221F20" stroke-width="2" stroke-miterlimit="10" stroke-linecap="round"/>
<path d="M284.723 83.3852L284.721 83.3851L275.347 84.2694L273.794 84.4169C273.072 84.4849 272.501 84.0951 272.226 83.553C271.938 82.985 271.979 82.2489 272.519 81.7095L273.338 80.8934L280.345 73.8963L282.651 78.8918L284.723 83.3852Z" fill="#FCE2A6"/>
<path d="M358.191 53.0346L356.911 53.5654L343.62 59.0542L343.617 59.054L337.619 61.5335L318.108 69.5952L309.972 72.9555L302.684 75.9651L301.229 76.5667L298.68 77.6187L284.726 83.3854L284.723 83.3853C283.189 82.435 281.991 81.0903 281.224 79.5327C280.513 78.0943 280.168 76.4772 280.26 74.8241C280.27 74.6557 280.282 74.4876 280.301 74.3198L280.347 73.8965L296.239 65.9372L331.009 48.52L337.511 45.2674C337.511 45.2674 337.511 45.2648 337.514 45.265L350.421 38.8021L350.423 38.8022L352.073 37.9721L356.946 49.971L358.191 53.0346Z" fill="#F55905"/>
<path d="M359.404 53.1529L359.355 53.1729L358.672 53.4547L358.666 53.4569L345.643 58.8045C345.01 59.0815 344.323 59.1565 343.618 59.0541L343.615 59.0539C341.546 58.7542 339.327 56.9214 337.917 54.1888C337.792 53.9524 337.677 53.7091 337.567 53.461C336.201 50.3529 336.26 47.1505 337.512 45.2674C337.512 45.2674 337.512 45.2649 337.514 45.265C337.919 44.6551 338.452 44.1834 339.1 43.8971L351.582 37.6423L352.117 37.3748L358.35 50.8687L359.402 53.1478L359.402 53.1528L359.404 53.1529Z" fill="#FAC856"/>
<path d="M275.347 84.2694L273.794 84.4169C273.072 84.4848 272.501 84.0951 272.226 83.553C271.938 82.9849 271.979 82.2488 272.519 81.7094L273.338 80.8934C273.26 81.2116 273.083 82.1669 273.478 82.9929C273.753 83.5653 274.302 84.0748 275.347 84.2694Z" fill="#2D57FD"/>
<g style="mix-blend-mode:multiply" opacity="0.15">
<path d="M359.402 53.1477L359.401 53.1528L359.355 53.1728C359.272 53.2186 359.184 53.2615 359.096 53.2995C358.956 53.3597 358.815 53.4123 358.671 53.4547C358.671 53.4572 358.666 53.4569 358.666 53.4569L345.643 58.8044C345.01 59.0815 344.323 59.1565 343.618 59.054L343.615 59.0539L337.617 61.5333L318.106 69.595L309.969 72.9554L302.682 75.965L301.227 76.5666L298.678 77.6185L284.724 83.3852L284.721 83.3851L275.347 84.2694L273.794 84.4169C273.072 84.4849 272.501 84.0951 272.227 83.553L273.478 82.993L281.222 79.5326L282.651 78.8918L337.917 54.1887L350.857 48.403L353.002 47.4444L356.946 49.971L358.35 50.8686L360.491 52.2409C360.18 52.6116 359.815 52.9163 359.402 53.1477Z" fill="#8B2A00"/>
</g>
<path d="M360.491 52.241C360.18 52.6117 359.815 52.9164 359.402 53.1478C359.386 53.157 359.371 53.1637 359.355 53.1729C359.272 53.2186 359.184 53.2616 359.096 53.2995C358.956 53.3598 358.815 53.4123 358.671 53.4547C358.671 53.4572 358.666 53.4569 358.666 53.4569C358.107 53.6248 357.513 53.6545 356.911 53.5654C354.714 53.2358 352.366 51.295 350.859 48.4032C350.718 48.1383 350.587 47.8663 350.464 47.5847C349 44.2493 349.069 40.8131 350.423 38.8022L350.426 38.8024C350.742 38.3286 351.13 37.937 351.585 37.6424C351.749 37.5357 351.923 37.4421 352.104 37.3615C354.941 36.1165 358.805 38.6739 360.739 43.0764C362.299 46.6339 362.119 50.3058 360.493 52.2411L360.491 52.241Z" fill="#F8B825"/>
<path d="M341.622 91.8844C341.622 91.8844 341.599 91.8969 341.589 91.902C336.809 94.6019 332.785 95.2637 329.506 94.622C328.784 94.4811 328.1 94.2773 327.451 94.0156C327.448 94.0156 327.446 94.0156 327.443 94.0131C325.221 93.1249 323.417 91.59 322.028 89.7204C318.382 84.8213 317.013 82.6574 317.013 82.6574L311.198 81.1602L308.098 80.3626C307.266 80.1487 306.506 79.7964 305.834 79.3334C304.863 78.6691 304.08 77.7759 303.544 76.7518C303.013 75.7453 302.721 74.6079 302.721 73.4303C302.721 72.9623 302.769 72.4868 302.865 72.0087C302.925 71.7042 303.013 71.4123 303.121 71.133C304.035 68.7602 306.533 67.3033 309.117 67.7814L318.589 69.5302L326.13 70.9217L335.085 83.0398L341.594 91.8491L341.622 91.8844Z" fill="#F8BAA0"/>
<path opacity="0.16" d="M341.375 92.4726L358.938 95.1874C358.75 97.4374 356.344 102.719 354.281 105.219L332.969 95.7187L341.375 92.4726Z" fill="#221F20"/>
<path opacity="0.11" d="M223.094 176.065L261.847 170.753L261.002 182.765L222.672 183.55L223.094 176.065Z" fill="#221F20"/>
<path d="M341.622 91.8843C341.622 91.8843 341.599 91.8969 341.589 91.9019C336.809 94.6018 332.785 95.2636 329.506 94.6219C328.784 94.481 328.1 94.2772 327.451 94.0155C327.448 94.0155 327.446 94.0155 327.443 94.0155C325.221 93.1273 323.417 91.5924 322.028 89.7229C318.382 84.8238 317.013 82.6598 317.013 82.6598L311.198 81.1626L308.098 80.365C307.266 80.1511 306.506 79.7988 305.834 79.3359C304.863 78.6716 304.08 77.7783 303.544 76.7542C303.013 75.7477 302.721 74.6104 302.721 73.4328C302.721 72.9648 302.769 72.4892 302.865 72.0111C302.925 71.7067 303.013 71.4148 303.121 71.1355C304.035 68.7627 306.533 67.3058 309.117 67.7839L318.589 69.5326L326.13 70.9241" stroke="#221F20" stroke-width="2" stroke-miterlimit="10" stroke-linecap="round"/>
<path d="M230.453 76.0196C230.452 80.4487 237.293 81.7104 240.429 82.4217C242.935 79.2321 245.891 73.6418 242.188 70.75C239.768 68.8604 236.983 71.3212 236.692 72.8191C234.785 71.2134 230.453 72.3341 230.453 76.0196Z" fill="#0EC335"/>
</g>
<defs>
<clipPath id="clip0_1944_9037">
<rect width="375" height="181" fill="white"/>
</clipPath>
</defs>
</svg>
