<svg width="25" height="24" viewBox="0 0 25 24" fill="none" xmlns="http://www.w3.org/2000/svg">
<path d="M13.1973 1.78732C12.8117 1.40178 12.1883 1.40178 11.8068 1.78732L7.20898 6.381C6.82344 6.76654 6.82344 7.38997 7.20898 7.77141C7.59453 8.15285 8.21797 8.15695 8.59941 7.77141L11.5115 4.85934V14.9531C11.5115 15.4986 11.9504 15.9375 12.4959 15.9375C13.0414 15.9375 13.4803 15.4986 13.4803 14.9531V4.85934L16.3924 7.77141C16.7779 8.15695 17.4014 8.15695 17.7828 7.77141C18.1643 7.38587 18.1684 6.76244 17.7828 6.381L13.1973 1.78732ZM4.95312 2.8127C3.3207 2.8127 2 4.13338 2 5.76578V19.5468C2 21.1792 3.3207 22.4999 4.95312 22.4999H20.0469C21.6793 22.4999 23 21.1792 23 19.5468V5.76578C23 4.13338 21.6793 2.8127 20.0469 2.8127H19.7188C19.1732 2.8127 18.7344 3.25156 18.7344 3.79706C18.7344 4.34256 19.1732 4.78142 19.7188 4.78142H20.0469C20.5924 4.78142 21.0312 5.22028 21.0312 5.76578V19.5468C21.0312 20.0923 20.5924 20.5312 20.0469 20.5312H4.95312C4.40762 20.5312 3.96875 20.0923 3.96875 19.5468V5.76578C3.96875 5.22028 4.40762 4.78142 4.95312 4.78142H5.28125C5.82676 4.78142 6.26562 4.34256 6.26562 3.79706C6.26562 3.25156 5.82676 2.8127 5.28125 2.8127H4.95312Z" fill="#262626"/>
</svg>
