<svg width="24" height="24" viewBox="0 0 24 24" fill="none" xmlns="http://www.w3.org/2000/svg">
<path fill-rule="evenodd" clip-rule="evenodd" d="M18 10.5L17.2601 19.1115C17.175 21.3 15.9284 22.5 13.1547 22.5H6.34529C3.8305 22.5 2.325 21.3 2.23993 19.1115L1.5 10.5H6V10.125C6 9.16056 6.25545 8.14258 6.86836 7.34698C7.24153 6.86258 7.73259 6.481 8.33477 6.24947C8.7535 6.08847 9.226 6 9.75001 6C11.0277 6 11.9992 6.52597 12.6316 7.34698C12.7082 7.44637 12.7792 7.54923 12.8448 7.65504C13.3041 8.39568 13.5 9.28042 13.5 10.125V10.5H18ZM8.47157 7.86261C8.30923 7.97652 8.17231 8.11225 8.05664 8.2624C7.69455 8.73242 7.5 9.40194 7.5 10.125V10.5H12V10.125C12 9.77537 11.9545 9.43826 11.8666 9.13017C11.854 9.08617 11.8406 9.04276 11.8263 9C11.7338 8.72283 11.6053 8.47262 11.4434 8.2624C11.4006 8.20687 11.3549 8.15331 11.3061 8.1021C10.9645 7.74361 10.47 7.5 9.75001 7.5C9.71596 7.5 9.68242 7.50055 9.64937 7.50162C9.1537 7.51776 8.76973 7.65341 8.47157 7.86261Z" fill="#262626"/>
<path fill-rule="evenodd" clip-rule="evenodd" d="M13.8199 6.43156C13.3403 5.80898 12.728 5.31194 12.0074 4.97804C12.0504 4.19232 12.2832 3.38399 12.7758 2.73432C13.3457 1.9828 14.2242 1.5 15.375 1.5C16.5259 1.5 17.4043 1.9828 17.9742 2.73432C18.5239 3.45928 18.75 4.38178 18.75 5.25L22.5 5.25L21.861 12.7851C21.7956 14.4896 20.9354 15.5088 19.0577 15.7122L19.6344 9H14.9071C14.7591 8.11658 14.423 7.21436 13.8199 6.43156ZM13.5 5.25C13.5 4.61822 13.6677 4.04072 13.971 3.64068C14.2543 3.2672 14.6884 3 15.375 3C16.0617 3 16.4957 3.2672 16.779 3.64068C17.0823 4.04072 17.25 4.61822 17.25 5.25L13.5 5.25Z" fill="#262626"/>
</svg>
