<svg width="25" height="24" viewBox="0 0 25 24" fill="none" xmlns="http://www.w3.org/2000/svg">
<path d="M3.32389 2.5C2.83485 2.5 2.44141 2.89707 2.44141 3.39062C2.44141 3.88418 2.83485 4.28125 3.32389 4.28125H4.99693C5.13666 4.28125 5.258 4.38145 5.28742 4.52246L7.18476 14.5791C7.42376 15.8408 8.51583 16.75 9.7844 16.75H20.3852C20.8743 16.75 21.2677 16.3529 21.2677 15.8594C21.2677 15.3658 20.8743 14.9688 20.3852 14.9688H9.7844C9.36155 14.9688 8.99752 14.6645 8.91663 14.2451L8.71807 13.1875H19.3263C20.525 13.1875 21.5729 12.3785 21.8818 11.2096L23.3894 5.55781C23.6431 4.61523 22.9371 3.6875 21.97 3.6875H6.8575C6.52289 2.975 5.80955 2.5 4.99693 2.5H3.32389ZM7.26197 5.46875H21.5876L20.1793 10.7457C20.0764 11.1354 19.7271 11.4062 19.3263 11.4062H8.38346L7.26197 5.46875ZM8.91295 21.5C9.38105 21.5 9.82998 21.3123 10.161 20.9783C10.492 20.6442 10.6779 20.1912 10.6779 19.7188C10.6779 19.2463 10.492 18.7933 10.161 18.4592C9.82998 18.1252 9.38105 17.9375 8.91295 17.9375C8.44485 17.9375 7.99593 18.1252 7.66493 18.4592C7.33394 18.7933 7.14798 19.2463 7.14798 19.7188C7.14798 20.1912 7.33394 20.6442 7.66493 20.9783C7.99593 21.3123 8.44485 21.5 8.91295 21.5ZM21.2677 19.7188C21.2677 19.2463 21.0818 18.7933 20.7508 18.4592C20.4198 18.1252 19.9709 17.9375 19.5028 17.9375C19.0347 17.9375 18.5857 18.1252 18.2547 18.4592C17.9237 18.7933 17.7378 19.2463 17.7378 19.7188C17.7378 20.1912 17.9237 20.6442 18.2547 20.9783C18.5857 21.3123 19.0347 21.5 19.5028 21.5C19.9709 21.5 20.4198 21.3123 20.7508 20.9783C21.0818 20.6442 21.2677 20.1912 21.2677 19.7188Z" fill="#262626"/>
</svg>
