<svg width="25" height="24" viewBox="0 0 25 24" fill="none" xmlns="http://www.w3.org/2000/svg">
<path d="M5.23438 2.75C3.24102 2.75 1.625 4.37701 1.625 6.38393V17.6161C1.625 19.623 3.24102 21.25 5.23438 21.25H19.0156C21.009 21.25 22.625 19.623 22.625 17.6161V10.3482C22.625 8.34129 21.009 6.71429 19.0156 6.71429H6.54688C6.00137 6.71429 5.5625 7.15614 5.5625 7.70536C5.5625 8.25458 6.00137 8.69643 6.54688 8.69643H19.0156C19.9221 8.69643 20.6562 9.4356 20.6562 10.3482V17.6161C20.6562 18.5287 19.9221 19.2679 19.0156 19.2679H5.23438C4.32793 19.2679 3.59375 18.5287 3.59375 17.6161V6.38393C3.59375 5.47132 4.32793 4.73214 5.23438 4.73214H20.3281C20.8736 4.73214 21.3125 4.29029 21.3125 3.74107C21.3125 3.19185 20.8736 2.75 20.3281 2.75H5.23438ZM17.375 15.3036C17.7231 15.3036 18.0569 15.1643 18.3031 14.9165C18.5492 14.6687 18.6875 14.3326 18.6875 13.9821C18.6875 13.6317 18.5492 13.2956 18.3031 13.0478C18.0569 12.7999 17.7231 12.6607 17.375 12.6607C17.0269 12.6607 16.6931 12.7999 16.4469 13.0478C16.2008 13.2956 16.0625 13.6317 16.0625 13.9821C16.0625 14.3326 16.2008 14.6687 16.4469 14.9165C16.6931 15.1643 17.0269 15.3036 17.375 15.3036Z" fill="#262626"/>
</svg>
