<svg width="24" height="24" viewBox="0 0 24 24" fill="none" xmlns="http://www.w3.org/2000/svg">
<path d="M22.0912 6H4.07382C3.47894 6 2.90698 6.51026 2.79997 7.12129L1.01658 17.6198C0.912126 18.2372 1.31212 18.7423 1.90828 18.7423L19.9269 18.75C20.5205 18.75 21.0925 18.2397 21.2008 17.6274L22.9841 7.12894C23.0861 6.50388 22.6861 6 22.0912 6Z" fill="#030CCB"/>
<path d="M17.8222 11.0872C17.1343 11.0872 16.6082 11.3908 16.3445 12.8871C16.0808 14.3835 16.4884 14.7585 17.1751 14.7585C17.8617 14.7585 18.4005 14.3962 18.6667 12.8871C18.933 11.3781 18.5088 11.0872 17.8222 11.0872Z" fill="white"/>
<path fill-rule="evenodd" clip-rule="evenodd" d="M22.0912 6H4.07382C3.47894 6 2.90698 6.51026 2.79997 7.12129L1.01658 17.6198C0.912126 18.2372 1.31212 18.7423 1.90828 18.7423H2.94774L4.47636 10.0361H5.64958L5.77696 10.6905C6.32227 10.2158 7.01516 9.94532 7.73742 9.92514C9.11191 9.92514 9.95901 10.7671 9.56412 13.0122C9.16923 15.2573 8.02403 16.0979 6.65082 16.0979C6.10688 16.1133 5.57739 15.9214 5.16933 15.5609L4.60757 18.75H19.9269C20.5205 18.75 21.0925 18.2397 21.2008 17.6274L22.9841 7.12894C23.0861 6.50388 22.6861 6 22.0912 6ZM12.6048 11.7914C12.4287 11.9315 12.3096 12.131 12.2698 12.3527L11.6329 15.978H9.97685L11.0227 10.0387H12.1946L12.336 10.7862C13.0086 10.1905 13.8646 9.93279 14.4162 9.93279C14.9143 9.93279 15.0289 10.1548 14.9423 10.6459C14.8854 10.9784 14.7548 11.294 14.5602 11.5694C13.8506 11.299 13.0787 11.3921 12.6048 11.7914ZM20.3957 12.8897C20.0135 15.0583 18.6594 16.024 16.9563 16.024C15.2264 16.024 14.2239 15.1234 14.6175 12.8897C14.9882 10.7862 16.3168 9.82819 18.0467 9.82819C19.7766 9.82819 20.7766 10.725 20.3957 12.8872V12.8897Z" fill="white"/>
<path d="M7.83289 13.0058C7.5692 14.5034 7.04947 14.7585 6.44567 14.7585C6.27083 14.758 6.09924 14.7113 5.94825 14.623C5.79725 14.5347 5.67222 14.4081 5.58582 14.2559C5.48646 14.0811 5.4406 13.8707 5.54505 13.2749L5.63932 12.7366C5.73995 12.1371 5.8737 11.9177 6.02147 11.7544C6.15441 11.6057 6.31534 11.4848 6.49502 11.3986C6.6747 11.3124 6.86961 11.2625 7.06858 11.2518C7.66729 11.2518 8.09658 11.5082 7.83289 13.0058Z" fill="white"/>
</svg>
