<svg width="25" height="24" viewBox="0 0 25 24" fill="none" xmlns="http://www.w3.org/2000/svg">
<path d="M20.6562 12C20.6562 9.73737 19.7574 7.56742 18.1575 5.9675C16.5576 4.36758 14.3876 3.46875 12.125 3.46875C9.86237 3.46875 7.69242 4.36758 6.0925 5.9675C4.49258 7.56742 3.59375 9.73737 3.59375 12C3.59375 14.2626 4.49258 16.4326 6.0925 18.0325C7.69242 19.6324 9.86237 20.5312 12.125 20.5312C14.3876 20.5312 16.5576 19.6324 18.1575 18.0325C19.7574 16.4326 20.6562 14.2626 20.6562 12ZM1.625 12C1.625 9.21523 2.73125 6.54451 4.70038 4.57538C6.66951 2.60625 9.34023 1.5 12.125 1.5C14.9098 1.5 17.5805 2.60625 19.5496 4.57538C21.5188 6.54451 22.625 9.21523 22.625 12C22.625 14.7848 21.5188 17.4555 19.5496 19.4246C17.5805 21.3938 14.9098 22.5 12.125 22.5C9.34023 22.5 6.66951 21.3938 4.70038 19.4246C2.73125 17.4555 1.625 14.7848 1.625 12ZM6.98574 14.3748C6.81348 13.817 7.27695 13.3125 7.85938 13.3125H16.5752C17.1576 13.3125 17.6211 13.8211 17.4488 14.3748C16.7598 16.6102 14.6762 18.2344 12.2152 18.2344C9.7543 18.2344 7.6707 16.6102 6.98574 14.3748ZM10.55 10.8844L10.5418 10.8762C10.5336 10.868 10.5254 10.8557 10.5131 10.8393C10.4885 10.8064 10.4475 10.7572 10.3982 10.6998C10.2957 10.585 10.1521 10.4291 9.97988 10.2773C9.61895 9.95742 9.20879 9.70312 8.84375 9.70312C8.47871 9.70312 8.06855 9.95742 7.70762 10.2773C7.53535 10.4291 7.3918 10.585 7.28926 10.6998C7.24004 10.7572 7.19902 10.8064 7.17441 10.8393C7.16211 10.8557 7.14981 10.868 7.1457 10.8762L7.1375 10.8844C7.05137 10.9992 6.90371 11.0443 6.77246 10.9992C6.64121 10.9541 6.54688 10.8311 6.54688 10.6875C6.54688 9.95332 6.82168 9.22734 7.22773 8.68594C7.62969 8.15273 8.20801 7.73438 8.84375 7.73438C9.47949 7.73438 10.0578 8.15273 10.4598 8.68594C10.8658 9.22734 11.1406 9.95332 11.1406 10.6875C11.1406 10.827 11.0504 10.9541 10.915 10.9992C10.7797 11.0443 10.632 10.9992 10.55 10.8844ZM17.1125 10.8844L17.1043 10.8762C17.0961 10.868 17.0879 10.8557 17.0756 10.8393C17.051 10.8064 17.01 10.7572 16.9607 10.6998C16.8582 10.585 16.7146 10.4291 16.5424 10.2773C16.1814 9.95742 15.7713 9.70312 15.4062 9.70312C15.0412 9.70312 14.6311 9.95742 14.2701 10.2773C14.0979 10.4291 13.9543 10.585 13.8518 10.6998C13.8025 10.7572 13.7615 10.8064 13.7369 10.8393C13.7246 10.8557 13.7123 10.868 13.7082 10.8762L13.7 10.8844C13.6139 10.9992 13.4662 11.0443 13.335 10.9992C13.2037 10.9541 13.1094 10.8311 13.1094 10.6875C13.1094 9.95332 13.3842 9.22734 13.7902 8.68594C14.1922 8.15273 14.7705 7.73438 15.4062 7.73438C16.042 7.73438 16.6203 8.15273 17.0223 8.68594C17.4283 9.22734 17.7031 9.95332 17.7031 10.6875C17.7031 10.827 17.6129 10.9541 17.4775 10.9992C17.3422 11.0443 17.1945 10.9992 17.1125 10.8844Z" fill="#262626"/>
</svg>
