<svg width="25" height="24" viewBox="0 0 25 24" fill="none" xmlns="http://www.w3.org/2000/svg">
<path d="M4.70833 1.58955C5.0625 1.42958 5.47917 1.48701 5.775 1.73722L7.45833 3.15645L9.14167 1.73722C9.51667 1.42138 10.0708 1.42138 10.4417 1.73722L12.125 3.15645L13.8083 1.73722C14.1833 1.42138 14.7375 1.42138 15.1083 1.73722L16.7917 3.15645L18.475 1.73722C18.7708 1.48701 19.1875 1.42958 19.5417 1.58955C19.8958 1.74952 20.125 2.09818 20.125 2.48375V21.5162C20.125 21.9018 19.8958 22.2505 19.5417 22.4104C19.1875 22.5704 18.7708 22.513 18.475 22.2628L16.7917 20.8435L15.1083 22.2628C14.7333 22.5786 14.1792 22.5786 13.8083 22.2628L12.125 20.8435L10.4417 22.2628C10.0667 22.5786 9.5125 22.5786 9.14167 22.2628L7.45833 20.8435L5.775 22.2628C5.47917 22.513 5.0625 22.5704 4.70833 22.4104C4.35417 22.2505 4.125 21.9018 4.125 21.5162V2.48375C4.125 2.09818 4.35417 1.74952 4.70833 1.58955ZM8.125 7.40595C7.75833 7.40595 7.45833 7.70128 7.45833 8.06224C7.45833 8.4232 7.75833 8.71853 8.125 8.71853H16.125C16.4917 8.71853 16.7917 8.4232 16.7917 8.06224C16.7917 7.70128 16.4917 7.40595 16.125 7.40595H8.125ZM7.45833 15.9378C7.45833 16.2987 7.75833 16.5941 8.125 16.5941H16.125C16.4917 16.5941 16.7917 16.2987 16.7917 15.9378C16.7917 15.5768 16.4917 15.2815 16.125 15.2815H8.125C7.75833 15.2815 7.45833 15.5768 7.45833 15.9378ZM8.125 11.3437C7.75833 11.3437 7.45833 11.639 7.45833 12C7.45833 12.361 7.75833 12.6563 8.125 12.6563H16.125C16.4917 12.6563 16.7917 12.361 16.7917 12C16.7917 11.639 16.4917 11.3437 16.125 11.3437H8.125Z" fill="#262626"/>
</svg>
