<svg width="25" height="24" viewBox="0 0 25 24" fill="none" xmlns="http://www.w3.org/2000/svg">
<path d="M14.5164 3.60046C13.6469 3.60046 12.9414 4.30593 12.9414 5.17546V8.65031L15.0414 10.5764V10.4255C15.0414 10.1367 15.2777 9.90046 15.5664 9.90046H16.6164C16.9052 9.90046 17.1414 10.1367 17.1414 10.4255V11.4755C17.1414 11.7642 16.9052 12.0005 16.6164 12.0005H15.9995C16.0619 12.2236 16.0914 12.4566 16.0914 12.6928V13.0505H16.6164C16.9052 13.0505 17.1414 13.2867 17.1414 13.5755V14.6255C17.1414 14.9142 16.9052 15.1505 16.6164 15.1505H16.0914V18.8255C16.0914 19.4161 15.8945 19.9608 15.5664 20.4005H21.8664C22.7359 20.4005 23.4414 19.695 23.4414 18.8255V5.17546C23.4414 4.30593 22.7359 3.60046 21.8664 3.60046H14.5164ZM19.2414 10.4255C19.2414 10.1367 19.4777 9.90046 19.7664 9.90046H20.8164C21.1052 9.90046 21.3414 10.1367 21.3414 10.4255V11.4755C21.3414 11.7642 21.1052 12.0005 20.8164 12.0005H19.7664C19.4777 12.0005 19.2414 11.7642 19.2414 11.4755V10.4255ZM19.7664 13.0505H20.8164C21.1052 13.0505 21.3414 13.2867 21.3414 13.5755V14.6255C21.3414 14.9142 21.1052 15.1505 20.8164 15.1505H19.7664C19.4777 15.1505 19.2414 14.9142 19.2414 14.6255V13.5755C19.2414 13.2867 19.4777 13.0505 19.7664 13.0505ZM15.5664 6.75046H16.6164C16.9052 6.75046 17.1414 6.98671 17.1414 7.27546V8.32546C17.1414 8.61421 16.9052 8.85046 16.6164 8.85046H15.5664C15.2777 8.85046 15.0414 8.61421 15.0414 8.32546V7.27546C15.0414 6.98671 15.2777 6.75046 15.5664 6.75046ZM19.2414 7.27546C19.2414 6.98671 19.4777 6.75046 19.7664 6.75046H20.8164C21.1052 6.75046 21.3414 6.98671 21.3414 7.27546V8.32546C21.3414 8.61421 21.1052 8.85046 20.8164 8.85046H19.7664C19.4777 8.85046 19.2414 8.61421 19.2414 8.32546V7.27546ZM2.44141 12.6928V18.8255C2.44141 19.695 3.14687 20.4005 4.01641 20.4005H13.4664C14.3359 20.4005 15.0414 19.695 15.0414 18.8255V12.6928C15.0414 12.2498 14.8577 11.8298 14.5295 11.5312L9.80453 7.19999C9.20078 6.64874 8.27875 6.64874 7.675 7.19999L2.95 11.5312C2.62516 11.8298 2.44141 12.2531 2.44141 12.6928ZM7.16641 13.313C7.16641 12.8766 7.5175 12.5255 7.95391 12.5255H9.52891C9.96531 12.5255 10.3164 12.8766 10.3164 13.313V14.888C10.3164 15.3244 9.96531 15.6755 9.52891 15.6755H7.95391C7.5175 15.6755 7.16641 15.3244 7.16641 14.888V13.313Z" fill="#262626"/>
</svg>
