<svg width="24" height="24" viewBox="0 0 24 24" fill="none" xmlns="http://www.w3.org/2000/svg">
<path fill-rule="evenodd" clip-rule="evenodd" d="M17.5178 18.2435C17.1889 18.3594 16.8428 18.4187 16.4944 18.418C15.3765 18.418 14.8378 17.8257 14.3495 16.9357C14.1851 16.6533 14.0978 16.0342 14.0978 16.0342V11.1578H18.2318L18.0082 9.21423C17.9015 8.2562 17.0995 7.53061 16.1439 7.52699H14.0978V1.5C14.0978 1.5 12.8602 1.58328 12.4463 1.61297C10.3302 1.78024 8.90005 3.20245 8.90005 4.86362L8.90943 7.66748L5.25 7.80506V9.20772C5.25 10.2845 6.11545 11.1578 7.18429 11.1578H8.90943V16.1522L8.93684 16.8799C8.94838 18.9314 10.0612 20.8156 11.8433 21.8026C13.6269 22.7896 15.8006 22.7252 17.5221 21.6332L17.5178 18.2442V18.2435Z" fill="#262626"/>
</svg>
