<svg width="24" height="24" viewBox="0 0 24 24" fill="none" xmlns="http://www.w3.org/2000/svg">
<path d="M13.5 15.75V17.25H1.5V15.75H13.5Z" fill="#262626"/>
<path d="M22.5 6.75V8.25H10.5V6.75H22.5Z" fill="#262626"/>
<path d="M5.25 6.75V8.25H1.5V6.75H5.25Z" fill="#262626"/>
<path d="M22.5 15.75V17.25H18.75V15.75H22.5Z" fill="#262626"/>
<path fill-rule="evenodd" clip-rule="evenodd" d="M8.25 9.75C9.49264 9.75 10.5 8.74264 10.5 7.5C10.5 6.25736 9.49264 5.25 8.25 5.25C7.00736 5.25 6 6.25736 6 7.5C6 8.74264 7.00736 9.75 8.25 9.75ZM8.25 11.25C10.3211 11.25 12 9.57107 12 7.5C12 5.42893 10.3211 3.75 8.25 3.75C6.17893 3.75 4.5 5.42893 4.5 7.5C4.5 9.57107 6.17893 11.25 8.25 11.25Z" fill="#262626"/>
<path fill-rule="evenodd" clip-rule="evenodd" d="M15.75 18.75C16.9926 18.75 18 17.7426 18 16.5C18 15.2574 16.9926 14.25 15.75 14.25C14.5074 14.25 13.5 15.2574 13.5 16.5C13.5 17.7426 14.5074 18.75 15.75 18.75ZM15.75 20.25C17.8211 20.25 19.5 18.5711 19.5 16.5C19.5 14.4289 17.8211 12.75 15.75 12.75C13.6789 12.75 12 14.4289 12 16.5C12 18.5711 13.6789 20.25 15.75 20.25Z" fill="#262626"/>
</svg>
