<svg width="25" height="24" viewBox="0 0 25 24" fill="none" xmlns="http://www.w3.org/2000/svg">
<path d="M10.2576 6.60002V8.40002H15.0903V6.60002C15.0903 5.27627 14.0067 4.20002 12.6739 4.20002C11.3412 4.20002 10.2576 5.27627 10.2576 6.60002ZM8.44537 10.2H6.02904V18C6.02904 18.9938 6.84078 19.8 7.84129 19.8H17.5066C18.5071 19.8 19.3188 18.9938 19.3188 18V10.2H16.9025V12.3C16.9025 12.7988 16.4985 13.2 15.9964 13.2C15.4942 13.2 15.0903 12.7988 15.0903 12.3V10.2H10.2576V12.3C10.2576 12.7988 9.85363 13.2 9.35149 13.2C8.84935 13.2 8.44537 12.7988 8.44537 12.3V10.2ZM8.44537 8.40002V6.60002C8.44537 4.27877 10.3369 2.40002 12.6739 2.40002C15.011 2.40002 16.9025 4.27877 16.9025 6.60002V8.40002H19.3188C20.3193 8.40002 21.1311 9.20627 21.1311 10.2V18C21.1311 19.9875 19.5076 21.6 17.5066 21.6H7.84129C5.84027 21.6 4.2168 19.9875 4.2168 18V10.2C4.2168 9.20627 5.02853 8.40002 6.02904 8.40002H8.44537Z" fill="#262626"/>
</svg>
