<svg width="24" height="24" viewBox="0 0 24 24" fill="none" xmlns="http://www.w3.org/2000/svg">
<path d="M18.5625 15.2812H10.6875C10.3266 15.2812 10.0312 14.9859 10.0312 14.625V4.125C10.0312 3.76406 10.3266 3.46875 10.6875 3.46875H16.4338L19.2188 6.25371V14.625C19.2188 14.9859 18.9234 15.2812 18.5625 15.2812ZM10.6875 17.25H18.5625C20.0104 17.25 21.1875 16.0729 21.1875 14.625V6.25371C21.1875 5.73281 20.9783 5.23242 20.6092 4.86328L17.8283 2.07832C17.4592 1.70918 16.9588 1.5 16.4379 1.5H10.6875C9.23965 1.5 8.0625 2.67715 8.0625 4.125V14.625C8.0625 16.0729 9.23965 17.25 10.6875 17.25ZM5.4375 6.75C3.98965 6.75 2.8125 7.92715 2.8125 9.375V19.875C2.8125 21.3229 3.98965 22.5 5.4375 22.5H13.3125C14.7604 22.5 15.9375 21.3229 15.9375 19.875V18.5625H13.9688V19.875C13.9688 20.2359 13.6734 20.5312 13.3125 20.5312H5.4375C5.07656 20.5312 4.78125 20.2359 4.78125 19.875V9.375C4.78125 9.01406 5.07656 8.71875 5.4375 8.71875H6.75V6.75H5.4375Z" fill="#262626"/>
</svg>
