<svg width="24" height="24" viewBox="0 0 24 24" fill="none" xmlns="http://www.w3.org/2000/svg">
<path fill-rule="evenodd" clip-rule="evenodd" d="M19.7197 18.5303L3.96967 2.78033L5.03033 1.71967L20.7803 17.4697L19.7197 18.5303Z" fill="#262626"/>
<path fill-rule="evenodd" clip-rule="evenodd" d="M19.4233 13.9992C20.8751 10.8541 20.4147 6.97402 18.0423 4.29579L17.8037 4.0371C15.1517 1.23804 11.1355 0.755038 8.01216 2.58806L9.11722 3.69311C11.5954 2.43403 14.6453 2.8904 16.7082 5.06178L16.929 5.30116C18.7628 7.37976 19.2108 10.3414 18.2765 12.8524L19.4233 13.9992ZM18.6493 15.3465L17.5686 14.2658C17.3333 14.6299 17.0629 14.9759 16.7573 15.2984L11.9994 20.3192L7.24229 15.2983C4.58596 12.4935 4.58703 7.91605 7.23872 5.11733L7.24376 5.11202L7.2886 5.06376C7.46642 4.87651 7.65156 4.70201 7.84304 4.54025L6.77923 3.47645C6.57817 3.65166 6.38317 3.83853 6.19502 4.03704L6.14985 4.08566C2.94946 7.4635 2.94946 12.9472 6.15341 16.33L11.9993 22.5L17.8462 16.3301C18.141 16.0189 18.4087 15.69 18.6493 15.3465ZM11.1994 7.89661C10.3521 8.21925 9.75006 9.03932 9.75006 10.0001C9.75006 11.2427 10.7572 12.25 11.9997 12.25C12.9603 12.25 13.7806 11.6479 14.1034 10.8006L11.1994 7.89661Z" fill="#262626"/>
</svg>
