<svg width="25" height="24" viewBox="0 0 25 24" fill="none" xmlns="http://www.w3.org/2000/svg">
<path d="M4.69141 3.75V8.25H9.19141V3.75H4.69141ZM2.44141 3.75C2.44141 2.50781 3.44922 1.5 4.69141 1.5H9.19141C10.4336 1.5 11.4414 2.50781 11.4414 3.75V8.25C11.4414 9.49219 10.4336 10.5 9.19141 10.5H4.69141C3.44922 10.5 2.44141 9.49219 2.44141 8.25V3.75ZM4.69141 15.75V20.25H9.19141V15.75H4.69141ZM2.44141 15.75C2.44141 14.5078 3.44922 13.5 4.69141 13.5H9.19141C10.4336 13.5 11.4414 14.5078 11.4414 15.75V20.25C11.4414 21.4922 10.4336 22.5 9.19141 22.5H4.69141C3.44922 22.5 2.44141 21.4922 2.44141 20.25V15.75ZM21.1914 3.75H16.6914V8.25H21.1914V3.75ZM16.6914 1.5H21.1914C22.4336 1.5 23.4414 2.50781 23.4414 3.75V8.25C23.4414 9.49219 22.4336 10.5 21.1914 10.5H16.6914C15.4492 10.5 14.4414 9.49219 14.4414 8.25V3.75C14.4414 2.50781 15.4492 1.5 16.6914 1.5ZM16.6914 15.75V20.25H21.1914V15.75H16.6914ZM14.4414 15.75C14.4414 14.5078 15.4492 13.5 16.6914 13.5H21.1914C22.4336 13.5 23.4414 14.5078 23.4414 15.75V20.25C23.4414 21.4922 22.4336 22.5 21.1914 22.5H16.6914C15.4492 22.5 14.4414 21.4922 14.4414 20.25V15.75Z" fill="#262626"/>
</svg>
