<svg width="25" height="25" viewBox="0 0 25 25" fill="none" xmlns="http://www.w3.org/2000/svg">
<path d="M15.2716 7.535C15.2716 7.05011 15.6617 6.66 16.1466 6.66H22.5632C23.0481 6.66 23.4382 7.05011 23.4382 7.535V13.9517C23.4382 14.4366 23.0481 14.8267 22.5632 14.8267C22.0783 14.8267 21.6882 14.4366 21.6882 13.9517V9.64594L14.7247 16.6131C14.382 16.9558 13.8278 16.9558 13.4887 16.6131L9.44186 12.5663L3.93301 18.0715C3.5903 18.4142 3.03613 18.4142 2.69707 18.0715C2.35801 17.7288 2.35436 17.1746 2.69707 16.8355L8.81843 10.7069C9.16113 10.3642 9.7153 10.3642 10.0544 10.7069L14.1012 14.7538L20.4523 8.41H16.1466C15.6617 8.41 15.2716 8.0199 15.2716 7.535Z" fill="#262626"/>
</svg>
