<svg width="25" height="24" viewBox="0 0 25 24" fill="none" xmlns="http://www.w3.org/2000/svg">
<path d="M13.3075 2.23828C13.0902 1.78711 12.631 1.5 12.1267 1.5C11.6225 1.5 11.1674 1.78711 10.946 2.23828L8.3097 7.66465L2.42219 8.53418C1.93019 8.60801 1.5202 8.95254 1.3685 9.42422C1.2168 9.8959 1.3398 10.4168 1.6924 10.7654L5.96453 14.9941L4.95595 20.9701C4.87395 21.4623 5.07895 21.9627 5.48484 22.2539C5.89073 22.5451 6.42783 22.582 6.87062 22.3482L12.1308 19.5387L17.3911 22.3482C17.8339 22.582 18.371 22.5492 18.7768 22.2539C19.1827 21.9586 19.3877 21.4623 19.3057 20.9701L18.2931 14.9941L22.5652 10.7654C22.9178 10.4168 23.0449 9.8959 22.8891 9.42422C22.7333 8.95254 22.3274 8.60801 21.8354 8.53418L15.9438 7.66465L13.3075 2.23828Z" fill="#262626"/>
</svg>
