<svg width="24" height="24" viewBox="0 0 24 24" fill="none" xmlns="http://www.w3.org/2000/svg">
<path fill-rule="evenodd" clip-rule="evenodd" d="M11.83 20.949L22.5 11.2871L11.83 2.25L11.829 8.30833L11.7614 8.31192C6.29643 8.62205 1.88308 13.1109 1.52365 18.7236C1.51764 18.8173 1.51277 18.9114 1.50904 19.0058C1.50869 19.0146 1.50835 19.0234 1.50803 19.0322C1.50325 19.1605 1.50059 19.2894 1.50009 19.4187C1.50006 19.4263 1.50004 19.4339 1.50002 19.4414C1.50001 19.4491 1.5 19.4567 1.5 19.4643V21.75L2.49501 20.0106L2.66691 19.7217C2.72061 19.6348 2.77553 19.549 2.83165 19.4643C2.88761 19.3798 2.94476 19.2965 3.00308 19.2141C4.64906 16.8911 7.22694 15.4319 10.329 14.9929C10.7446 14.9341 11.1696 14.8935 11.6031 14.8717L11.829 14.8629L11.83 20.949ZM3.45953 16.4692C5.58091 14.5833 8.39855 13.5311 11.5277 13.3736L11.5359 13.3732L13.3287 13.3027L13.3294 17.5676L20.2236 11.3248L13.3295 5.48569L13.3287 9.7308L11.8464 9.80951C11.8456 9.80956 11.8447 9.80961 11.8438 9.80966C7.94989 10.0318 4.6379 12.7453 3.45953 16.4692Z" fill="#262626"/>
</svg>
