<svg width="25" height="24" viewBox="0 0 25 24" fill="none" xmlns="http://www.w3.org/2000/svg">
<path d="M12.3621 4.90971C12.4277 4.79821 12.5467 4.73214 12.6738 4.73214C12.801 4.73214 12.9199 4.79821 12.9855 4.90971L21.1189 18.3594C21.1764 18.4544 21.2051 18.5617 21.2051 18.6691C21.2051 18.9994 20.9385 19.2679 20.6104 19.2679H4.7373C4.40918 19.2679 4.14258 18.9994 4.14258 18.6691C4.14258 18.5576 4.17129 18.4502 4.22871 18.3594L12.3621 4.90971ZM10.6805 3.87734L2.54707 17.327C2.30098 17.7317 2.17383 18.1942 2.17383 18.6691C2.17383 20.0938 3.32227 21.25 4.7373 21.25H20.6104C22.0254 21.25 23.1738 20.0938 23.1738 18.6691C23.1738 18.1942 23.0426 17.7317 22.8006 17.327L14.6672 3.87734C14.2447 3.17946 13.49 2.75 12.6738 2.75C11.8576 2.75 11.1029 3.17946 10.6805 3.87734ZM13.9863 16.625C13.9863 16.2745 13.848 15.9384 13.6019 15.6906C13.3558 15.4428 13.0219 15.3036 12.6738 15.3036C12.3257 15.3036 11.9919 15.4428 11.7458 15.6906C11.4996 15.9384 11.3613 16.2745 11.3613 16.625C11.3613 16.9755 11.4996 17.3116 11.7458 17.5594C11.9919 17.8072 12.3257 17.9464 12.6738 17.9464C13.0219 17.9464 13.3558 17.8072 13.6019 17.5594C13.848 17.3116 13.9863 16.9755 13.9863 16.625ZM13.6582 9.02679C13.6582 8.47757 13.2193 8.03571 12.6738 8.03571C12.1283 8.03571 11.6895 8.47757 11.6895 9.02679V12.9911C11.6895 13.5403 12.1283 13.9821 12.6738 13.9821C13.2193 13.9821 13.6582 13.5403 13.6582 12.9911V9.02679Z" fill="#262626"/>
</svg>
