<svg width="25" height="24" viewBox="0 0 25 24" fill="none" xmlns="http://www.w3.org/2000/svg">
<path d="M12.125 1.5C14.9098 1.5 17.5805 2.60625 19.5496 4.57538C21.5188 6.54451 22.625 9.21523 22.625 12C22.625 14.7848 21.5188 17.4555 19.5496 19.4246C17.5805 21.3938 14.9098 22.5 12.125 22.5C9.34023 22.5 6.66951 21.3938 4.70038 19.4246C2.73125 17.4555 1.625 14.7848 1.625 12C1.625 9.21523 2.73125 6.54451 4.70038 4.57538C6.66951 2.60625 9.34023 1.5 12.125 1.5ZM11.1406 6.42188V12C11.1406 12.3281 11.3047 12.6357 11.5795 12.8203L15.517 15.4453C15.9682 15.7488 16.5793 15.6258 16.8828 15.1705C17.1863 14.7152 17.0633 14.1082 16.608 13.8047L13.1094 11.475V6.42188C13.1094 5.87637 12.6705 5.4375 12.125 5.4375C11.5795 5.4375 11.1406 5.87637 11.1406 6.42188Z" fill="#262626"/>
</svg>
