<svg width="25" height="24" viewBox="0 0 25 24" fill="none" xmlns="http://www.w3.org/2000/svg">
<path d="M12.125 22.5C14.9098 22.5 17.5805 21.3938 19.5496 19.4246C21.5188 17.4555 22.625 14.7848 22.625 12C22.625 9.21523 21.5188 6.54451 19.5496 4.57538C17.5805 2.60625 14.9098 1.5 12.125 1.5C9.34023 1.5 6.66951 2.60625 4.70038 4.57538C2.73125 6.54451 1.625 9.21523 1.625 12C1.625 14.7848 2.73125 17.4555 4.70038 19.4246C6.66951 21.3938 9.34023 22.5 12.125 22.5ZM10.4844 15.2812H11.4688V12.6562H10.4844C9.93887 12.6562 9.5 12.2174 9.5 11.6719C9.5 11.1264 9.93887 10.6875 10.4844 10.6875H12.4531C12.9986 10.6875 13.4375 11.1264 13.4375 11.6719V15.2812H13.7656C14.3111 15.2812 14.75 15.7201 14.75 16.2656C14.75 16.8111 14.3111 17.25 13.7656 17.25H10.4844C9.93887 17.25 9.5 16.8111 9.5 16.2656C9.5 15.7201 9.93887 15.2812 10.4844 15.2812ZM12.125 6.75C12.4731 6.75 12.8069 6.88828 13.0531 7.13442C13.2992 7.38056 13.4375 7.7144 13.4375 8.0625C13.4375 8.4106 13.2992 8.74444 13.0531 8.99058C12.8069 9.23672 12.4731 9.375 12.125 9.375C11.7769 9.375 11.4431 9.23672 11.1969 8.99058C10.9508 8.74444 10.8125 8.4106 10.8125 8.0625C10.8125 7.7144 10.9508 7.38056 11.1969 7.13442C11.4431 6.88828 11.7769 6.75 12.125 6.75Z" fill="#262626"/>
</svg>
