<svg width="25" height="24" viewBox="0 0 25 24" fill="none" xmlns="http://www.w3.org/2000/svg">
<path fill-rule="evenodd" clip-rule="evenodd" d="M5.04297 20.1667C5.04297 21.4536 6.08932 22.5 7.3763 22.5H10.203C10.5712 22.5 10.903 22.2667 11.0269 21.9167C11.2675 21.2349 11.9165 20.75 12.6785 20.75C13.4405 20.75 14.0894 21.2349 14.33 21.9167C14.454 22.2667 14.7821 22.5 15.154 22.5H17.9705C19.2575 22.5 20.3039 21.4536 20.3039 20.1667L20.3039 3.83333C20.3039 2.54635 19.2575 1.5 17.9705 1.5H15.125C14.7568 1.5 14.425 1.73333 14.301 2.08333C14.0604 2.7651 13.4114 3.25 12.6495 3.25C11.8875 3.25 11.2385 2.7651 10.9979 2.08333C10.8739 1.73333 10.5458 1.5 10.1739 1.5H7.3763C6.08932 1.5 5.04297 2.54635 5.04297 3.83333V20.1667ZM14.668 12.875C15.1512 12.875 15.543 12.4832 15.543 12C15.543 11.5168 15.1512 11.125 14.668 11.125H10.6797C10.1964 11.125 9.80469 11.5168 9.80469 12C9.80469 12.4832 10.1964 12.875 10.6797 12.875H14.668Z" fill="#262626"/>
</svg>
