<svg width="24" height="24" viewBox="0 0 24 24" fill="none" xmlns="http://www.w3.org/2000/svg">
<path fill-rule="evenodd" clip-rule="evenodd" d="M3.75044 9.75C2.50739 9.75 1.5 10.7579 1.5 12C1.5 13.2427 2.50713 14.25 3.75044 14.25C4.99244 14.25 6 13.2423 6 12C6 10.7583 4.99217 9.75 3.75044 9.75Z" fill="#262626"/>
<path fill-rule="evenodd" clip-rule="evenodd" d="M12 9.75C10.7572 9.75 9.75 10.7579 9.75 12C9.75 13.2427 10.7569 14.25 12 14.25C13.2419 14.25 14.25 13.2422 14.25 12C14.25 10.7584 13.2416 9.75 12 9.75Z" fill="#262626"/>
<path fill-rule="evenodd" clip-rule="evenodd" d="M20.25 9.75C19.0078 9.75 18 10.7581 18 12C18 13.2425 19.0075 14.25 20.25 14.25C21.4919 14.25 22.5 13.2422 22.5 12C22.5 10.7584 21.4916 9.75 20.25 9.75Z" fill="#262626"/>
</svg>
