<svg width="25" height="24" viewBox="0 0 25 24" fill="none" xmlns="http://www.w3.org/2000/svg">
<path d="M12.9414 4.125C14.7666 4.125 16.245 5.59336 16.245 7.40625V9.375H9.63783V7.40625C9.63783 5.59336 11.1162 4.125 12.9414 4.125ZM6.99498 7.40625V9.375H6.33426C4.87656 9.375 3.69141 10.5521 3.69141 12V19.875C3.69141 21.3229 4.87656 22.5 6.33426 22.5H19.5485C21.0063 22.5 22.1914 21.3229 22.1914 19.875V12C22.1914 10.5521 21.0063 9.375 19.5485 9.375H18.8878V7.40625C18.8878 4.14551 16.2243 1.5 12.9414 1.5C9.65848 1.5 6.99498 4.14551 6.99498 7.40625ZM14.2628 14.625V17.25C14.2628 17.976 13.6723 18.5625 12.9414 18.5625C12.2105 18.5625 11.62 17.976 11.62 17.25V14.625C11.62 13.899 12.2105 13.3125 12.9414 13.3125C13.6723 13.3125 14.2628 13.899 14.2628 14.625Z" fill="#262626"/>
</svg>
