<svg width="24" height="24" viewBox="0 0 24 24" fill="none" xmlns="http://www.w3.org/2000/svg">
<path d="M9.0174 9.12221L6.18011 15.8158H4.32899L2.93275 10.4745C2.84798 10.1454 2.77473 10.0249 2.51658 9.8864C2.09568 9.6605 1.40061 9.44878 0.789062 9.31719L0.831164 9.12221H3.81101C4.19072 9.12221 4.53216 9.37222 4.61839 9.80481L5.35579 13.6776L7.17824 9.12177L9.0174 9.12221ZM16.2704 13.6304C16.2778 11.8638 13.7998 11.7666 13.8169 10.9773C13.8222 10.7371 14.0539 10.4818 14.5597 10.4165C14.8106 10.3841 15.502 10.3592 16.2866 10.7161L16.5942 9.29666C16.1729 9.14554 15.6307 9 14.9562 9C13.2253 9 12.0072 9.90984 11.9969 11.2126C11.9856 12.1763 12.866 12.714 13.5298 13.0341C14.2124 13.3621 14.4413 13.5727 14.4388 13.8661C14.4338 14.3152 13.8944 14.5135 13.3902 14.5212C12.5098 14.5346 11.9993 14.2857 11.592 14.0984L11.2746 15.5648C11.6838 15.7506 12.439 15.9125 13.2221 15.9205C15.062 15.9205 16.2653 15.022 16.271 13.6304H16.2704ZM20.8416 15.8158H22.4613L21.0467 9.12221H19.5521C19.3924 9.12085 19.2361 9.16694 19.1032 9.2545C18.9704 9.34206 18.8672 9.46706 18.8071 9.61329L16.1792 15.8158H18.018L18.3829 14.8161H20.6297L20.8416 15.8158ZM18.8877 13.4442L19.8094 10.9308L20.3399 13.4442H18.8877ZM11.5195 9.12221L10.0714 15.8158H8.32029L9.7689 9.12221H11.5195Z" fill="#1434CB"/>
</svg>
