<svg width="25" height="24" viewBox="0 0 25 24" fill="none" xmlns="http://www.w3.org/2000/svg">
<path d="M22.7947 4.15265C23.0316 4.31392 23.1738 4.57912 23.1738 4.86224V16.9039C23.1738 17.2623 22.9478 17.5812 22.6087 17.7066L16.4837 20.0003C16.2941 20.072 16.0863 20.0756 15.8967 20.011L9.19206 17.8177L3.35872 20.0039C3.08893 20.1042 2.78633 20.0684 2.54935 19.9071C2.31237 19.7458 2.17383 19.4806 2.17383 19.1975V7.15589C2.17383 6.7975 2.39622 6.47854 2.73893 6.35311L8.86393 4.05947C9.05352 3.98779 9.26133 3.98421 9.45091 4.04871L16.1556 6.24201L21.9889 4.05588C22.2587 3.95554 22.5613 3.99137 22.7983 4.15265H22.7947ZM3.92383 7.74722V17.9503L8.29883 16.3125V6.10941L3.92383 7.74722ZM15.2988 18.0041V7.77589L10.0488 6.05565V16.2839L15.2988 18.0041ZM17.0488 17.9503L21.4238 16.3125V6.10941L17.0488 7.74722V17.9503Z" fill="#262626"/>
</svg>
