<svg width="40" height="40" viewBox="0 0 40 40" fill="none" xmlns="http://www.w3.org/2000/svg">
<path d="M28.372 29.1041C26.7084 28.8097 25.5997 27.2228 25.894 25.5591C26.1884 23.8955 27.7765 22.7856 29.439 23.0812C31.1026 23.3755 32.2125 24.9636 31.917 26.6272C31.6226 28.2909 30.0345 29.3996 28.3709 29.1052L28.372 29.1041Z" fill="#262626"/>
<path d="M29.4326 23.1162C27.7899 22.8249 26.2208 23.9216 25.9292 25.5659C25.6375 27.2102 26.7342 28.7793 28.3769 29.0706C30.0212 29.3622 31.5903 28.2655 31.882 26.6212C32.1736 24.9769 31.0769 23.4078 29.4326 23.1162ZM32.9169 27.0782C32.7301 27.8471 32.3345 28.5169 31.8023 29.0393C31.7398 29.0998 31.6768 29.1579 31.6102 29.2144C31.2329 29.5422 30.7982 29.7997 30.3262 29.9719C30.2547 29.9979 30.182 30.0227 30.1089 30.045C29.667 30.1803 29.1966 30.2429 28.7157 30.2197C28.6564 30.2173 28.5971 30.2128 28.5369 30.2079C28.4191 30.1978 28.3022 30.1815 28.1835 30.1604C27.8683 30.1043 27.5673 30.0138 27.283 29.8939H27.2818C27.19 29.8541 27.1002 29.8111 27.0121 29.766C25.9036 29.1949 25.1131 28.1493 24.8613 26.9397C24.8349 26.8166 24.815 26.6919 24.8008 26.5648C24.7557 26.1773 24.7654 25.7763 24.8373 25.3722C24.9409 24.7881 25.1623 24.2555 25.473 23.7925C25.5226 23.7177 25.5741 23.6458 25.629 23.5748C25.986 23.1121 26.4365 22.7303 26.9467 22.4545C27.0141 22.4183 27.0828 22.3834 27.153 22.3513C27.6502 22.1177 28.1965 21.9821 28.7636 21.9638C28.8688 21.9601 28.9732 21.9597 29.0792 21.9658H29.0804C29.2612 21.9735 29.4419 21.9926 29.6255 22.0251C30.245 22.1348 30.8088 22.3781 31.2909 22.7197C31.3827 22.7851 31.4717 22.8538 31.5562 22.9253C31.9664 23.2681 32.3052 23.6885 32.5542 24.1581C32.6107 24.2645 32.6627 24.3733 32.7098 24.485V24.4863C32.997 25.163 33.107 25.9213 32.9917 26.6984C32.986 26.7374 32.9791 26.776 32.9722 26.8146C32.9563 26.9035 32.9373 26.9917 32.9161 27.0782H32.9169Z" fill="#262626"/>
<path d="M28.317 29.409C26.4847 29.0841 25.264 27.3379 25.589 25.5055C25.914 23.6732 27.6606 22.4513 29.4929 22.7763C31.3253 23.1012 32.5467 24.8491 32.2222 26.6814C31.8972 28.5138 30.1494 29.734 28.3174 29.4095L28.317 29.409ZM29.3512 23.5749C27.9616 23.3287 26.6345 24.256 26.388 25.6469C26.1414 27.0377 27.0692 28.3651 28.4584 28.6113C29.8492 28.8578 31.1766 27.9301 31.4228 26.5393C31.6693 25.1485 30.7416 23.821 29.3508 23.5749H29.3512Z" fill="#262626"/>
<path d="M8.32957 20.6911C8.30113 20.9809 8.52704 21.2309 8.81842 21.2341L19.5387 21.8432C19.7378 21.8448 19.9004 21.6822 19.902 21.4831L19.9004 20.9529V20.5929C19.9004 20.4051 19.7282 19.1945 19.5387 19.1816H8.95901C8.68963 19.1623 8.45567 19.3614 8.43045 19.6291L8.37303 20.236L8.3301 20.6916L8.32957 20.6911Z" fill="#2F2E30"/>
<path d="M27.8906 18.471C27.6826 17.8617 27.46 17.2305 27.3593 16.9466C27.3284 16.8597 27.2346 16.8134 27.1468 16.841L26.2292 17.1306C26.1358 17.1598 26.0863 17.261 26.12 17.3528C26.2666 17.7476 26.6277 18.716 26.7179 18.9114C26.9579 19.4313 28.1713 19.2912 27.891 18.4714L27.8906 18.471Z" fill="#2F2E30"/>
<path d="M25.009 16.816L25.7991 18.8226L26.4043 20.4799L27.5108 23.5162L27.7289 23.4525L27.8373 23.42L27.9759 23.3789L28.5063 23.2251L27.5108 20.3788L26.9332 18.7309L26.0805 16.494C26.0635 16.4469 26.0131 16.4205 25.9648 16.4351L25.4128 16.5939L25.2779 16.6337L25.1045 16.6844L25.0707 16.6942C25.0188 16.7088 24.9895 16.7653 25.009 16.816Z" fill="#2F2E30"/>
<path d="M28.3904 23.0703L27.3501 23.457L27.4435 23.777L28.4968 23.3903L28.3904 23.0703Z" fill="#2F2E30"/>
<path d="M11.2007 29.1478C9.53571 28.8529 8.42536 27.2637 8.72031 25.5987C9.01527 23.9338 10.6044 22.8223 12.2694 23.1184C13.9344 23.4133 15.0447 25.0035 14.7498 26.6685C14.4548 28.3335 12.8657 29.4438 11.2007 29.1489V29.1478Z" fill="#262626"/>
<path fill-rule="evenodd" clip-rule="evenodd" d="M14.6314 29.0792C15.1636 28.5569 15.5592 27.887 15.746 27.1181H15.7452C15.7664 27.0316 15.7854 26.9434 15.8013 26.8545L15.8013 26.8544C15.8082 26.8158 15.8151 26.7773 15.8208 26.7383C15.9361 25.9613 15.8261 25.2029 15.5389 24.5262V24.525C15.4918 24.4133 15.4398 24.3044 15.3833 24.198C15.1343 23.7284 14.7955 23.308 14.3853 22.9652C14.3008 22.8937 14.2118 22.825 14.12 22.7596C13.6379 22.418 13.0741 22.1747 12.4546 22.065C12.271 22.0325 12.0903 22.0135 11.9095 22.0057H11.9083C11.8023 21.9996 11.6979 22 11.5927 22.0037C11.0256 22.022 10.4793 22.1577 9.98213 22.3912C9.91186 22.4233 9.84321 22.4582 9.77578 22.4944C9.2656 22.7702 8.81513 23.152 8.45809 23.6147C8.40325 23.6858 8.35166 23.7577 8.30211 23.8324C7.99137 24.2955 7.76999 24.828 7.66641 25.4121C7.59452 25.8163 7.58477 26.2172 7.62985 26.6047C7.64407 26.7318 7.66398 26.8565 7.69038 26.9796C7.94222 28.1892 8.73268 29.2348 9.84118 29.8059C9.92933 29.851 10.0191 29.894 10.1109 29.9339H10.1121C10.3965 30.0537 10.6974 30.1443 11.0127 30.2003C11.1313 30.2214 11.2482 30.2377 11.366 30.2478C11.4262 30.2527 11.4855 30.2572 11.5448 30.2596C12.0257 30.2828 12.4961 30.2202 12.938 30.085C13.0111 30.0626 13.0838 30.0378 13.1553 30.0118C13.6273 29.8396 14.062 29.5821 14.4393 29.2543C14.5059 29.1978 14.5689 29.1397 14.6314 29.0792ZM9.21699 25.687C9.46355 24.2961 10.7906 23.3688 12.1802 23.6149H12.1798C13.5706 23.8611 14.4983 25.1885 14.2518 26.5794C14.0056 27.9702 12.6782 28.8979 11.2874 28.6514C9.89818 28.4052 8.97043 27.0778 9.21699 25.687Z" fill="#262626"/>
<path d="M14.139 20.6902C14.4033 20.7781 14.3604 21.0541 14.2302 21.2036C14.112 21.3397 13.9988 21.4785 13.9203 21.6393C13.7279 22.0316 13.4416 22.5899 13.4416 22.5899L13.0933 22.4838L13.5713 21.4287C13.6367 21.2845 13.6812 21.1318 13.7016 20.9753C13.7241 20.8033 13.8131 20.582 14.1384 20.6897L14.139 20.6902Z" fill="#262626"/>
<path d="M12.3715 23.968C12.3568 23.9952 11.9137 25.0306 11.7593 25.3998C11.6809 25.5875 12.0944 25.7938 12.2195 25.5826C12.3142 25.4234 12.8825 24.1922 12.8825 24.1922L12.3715 23.968Z" fill="#262626"/>
<path d="M13.4782 19.5391L10.7666 25.8154L12.7085 26.7595L15.42 20.4832L13.4782 19.5391Z" fill="#262626"/>
<path d="M27.7471 19.1803L25.8384 19.9222C25.8384 19.9222 25.9479 20.2357 26.1118 20.7162C26.4654 21.7504 27.7598 25.0324 28.1443 26.0734C28.2569 26.3786 28.5923 26.5373 28.8998 26.4315C29.2118 26.3235 30.1067 25.6881 29.9995 25.3769L27.7471 19.1811V19.1803Z" fill="#262626"/>
<path d="M28.8599 27.4211C28.0377 27.2756 27.4897 26.4913 27.6352 25.6691C27.7807 24.8469 28.5656 24.2984 29.3872 24.4444C30.2094 24.5899 30.7579 25.3748 30.6119 26.197C30.4664 27.0192 29.6815 27.5671 28.8593 27.4216L28.8599 27.4211Z" fill="#FEE9DD"/>
<path d="M22.7697 24.926C22.6908 24.9366 22.608 24.9435 22.5225 24.9433L22.516 24.9433L22.516 24.9432L22.5086 24.943L22.515 24.7577L22.3156 24.7368L22.3156 24.7362L22.3226 24.5363L22.3533 24.5374C22.5875 23.5072 23.3844 21.949 24.814 20.8327C26.3337 19.6461 28.5585 18.9666 31.5506 19.9234L31.5563 19.9236L31.5861 19.9344C31.5934 19.937 31.6045 19.9405 31.6217 19.9458C31.6385 19.951 31.661 19.958 31.6916 19.9678C31.7461 19.9852 31.8147 20.0084 31.883 20.0363C31.9496 20.0634 32.0247 20.0985 32.0879 20.1419C32.1393 20.1772 32.2349 20.2524 32.2548 20.3754C32.2703 20.4649 32.2414 20.5403 32.2105 20.5907C32.1478 20.6952 32.0336 20.7646 31.9536 20.8078C31.8863 20.8442 31.8097 20.8787 31.7464 20.9072C31.7278 20.9156 31.7103 20.9235 31.6946 20.9308C31.3169 21.1145 30.8825 21.1656 30.4609 21.0668L30.4609 21.0668C29.7089 20.8904 28.6117 20.7575 27.585 21.0818C25.9483 21.6011 24.9303 22.5244 24.3233 23.7812C24.1081 24.2305 23.7437 24.5842 23.3006 24.7766C23.1347 24.8491 22.9567 24.902 22.7697 24.926ZM22.7697 24.926C22.7695 24.926 22.7692 24.926 22.769 24.9261L22.7437 24.7277L22.7705 24.9258C22.7703 24.9259 22.77 24.9259 22.7697 24.926Z" fill="#F55905" stroke="#F55905" stroke-width="0.4"/>
<path d="M19.589 21.1238C19.3892 21.084 17.5093 22.0438 17.5093 22.3237C17.5093 22.6035 18.909 24.7434 18.909 24.7434L20.5687 23.5236C20.5687 23.5236 19.7888 21.164 19.589 21.1238Z" fill="#1F1F21"/>
<path d="M16.8611 27.6826C16.8611 27.6826 17.6844 21.2602 11.2437 20.9557L13.9541 20.4507L18.4686 20.4507L19.3312 27.6826H16.8611Z" fill="#262626"/>
<path d="M20.0436 23.3884L17.2397 24.067C17.2397 24.067 17.9936 25.6347 18.1592 25.9663C18.3247 26.2978 18.4154 26.3732 18.7168 26.3583C19.0181 26.3434 20.3296 26.3583 20.3296 26.3583L20.0431 23.3889L20.0436 23.3884Z" fill="#262626"/>
<path d="M22.1984 20.9736L22.4584 20.3538L21.8986 20.3038L21.6387 20.9334L22.1984 20.9736Z" fill="#2F2E30"/>
<path d="M23.9882 20.4239L23.5784 21.6437L23.1084 21.5739L23.5182 20.3939L23.9882 20.4239Z" fill="#2F2E30"/>
<path d="M25.8747 20.5945L23.1193 27.6827H18.6318L20.17 20.2784L25.8747 20.5945Z" fill="#2F2E30"/>
<path d="M19.7092 20.2437C19.6092 20.2636 16.7695 23.8633 16.7695 23.8633L17.1696 24.3832L20.5492 20.2636L19.7092 20.2437Z" fill="#262626"/>
<path d="M11.4868 27.5592C10.7151 27.4227 10.2008 26.6865 10.3374 25.9148C10.4739 25.1431 11.2106 24.6283 11.9818 24.7654C12.7535 24.9019 13.2683 25.6386 13.1312 26.4103C12.9947 27.182 12.258 27.6963 11.4863 27.5598L11.4868 27.5592Z" fill="#FEE9DD"/>
<path d="M17.6501 18.9916C17.484 18.5764 11.9207 18.522 11.6811 18.7417C11.441 18.9619 11.3508 19.6914 11.5909 19.7515C11.8309 19.8117 17.4502 20.0513 17.6103 19.9116C17.7703 19.7714 17.6903 19.0919 17.6501 18.9916Z" fill="#262626"/>
<path d="M25.7148 19.0278C25.6793 18.9218 25.5831 18.8511 25.4761 18.8535C25.4131 18.8547 25.3486 18.8564 25.2841 18.8584C25.2369 18.8596 25.1902 18.8608 25.1419 18.862C25.087 18.8633 25.0318 18.8645 24.9758 18.8657C24.924 18.8669 24.8726 18.8681 24.8197 18.8694C24.6648 18.873 24.5091 18.8779 24.3541 18.8828C23.2442 18.9153 22.1837 18.9575 22.13 19.0046C22.0577 19.0672 21.4786 19.4677 21.0567 19.7581C20.7654 19.9571 20.4227 19.6578 20.0754 19.6432L9.16812 19.5266C9.03096 19.5254 8.91854 19.6415 8.91815 19.7861L8.91699 20.1278C8.91661 20.2707 9.02556 20.3877 9.16194 20.3889C11.4147 20.4137 24.8958 20.5307 24.8958 20.5307C25.0735 20.5307 25.2408 20.5295 25.3957 20.527C25.4587 20.5258 25.5186 20.5246 25.5769 20.5234C25.6287 20.5222 25.6777 20.5209 25.7249 20.5197C25.7743 20.5185 25.8211 20.5161 25.8671 20.5149C25.8682 20.5149 25.8698 20.5149 25.8709 20.5149C26.0378 20.5084 26.1506 20.3341 26.0954 20.1684L25.7152 19.0282L25.7148 19.0278Z" fill="#2F2E30"/>
<path d="M25.1475 18.8823L25.7165 20.5302C25.9034 20.5302 26.0793 20.529 26.2422 20.5265L25.6369 18.8693C25.474 18.8729 25.3103 18.8778 25.1475 18.8827V18.8823Z" fill="#2C1511"/>
<path d="M17.2783 19.8151C17.3481 19.9768 17.5098 20.0946 17.704 20.097L21.7952 20.1559L24.2709 20.1921C24.4529 20.1945 24.6194 20.0922 24.6986 19.9281C24.8542 19.6039 25.0902 19.0507 25.1109 18.625C25.1182 18.467 25.0951 18.3273 25.0277 18.2237C24.6877 17.7029 20.6087 16.9433 20.0481 17.0835C19.7902 17.1473 19.3117 17.4332 18.8393 17.7683C18.286 18.1591 17.7409 18.6156 17.5687 18.8642C17.4253 19.0702 17.3205 19.2968 17.2588 19.5044C17.2263 19.6129 17.2372 19.7213 17.2779 19.8156L17.2783 19.8151Z" fill="#2F2E30"/>
<path d="M23.9357 21.3726L20.8986 20.8303C20.8117 20.8149 20.726 20.8628 20.6935 20.9449L20.5834 21.2252C20.555 21.297 20.5992 21.3771 20.6748 21.3917L23.8988 22.018C23.969 22.0319 24.036 21.9831 24.045 21.912L24.0868 21.5777C24.099 21.4798 24.0324 21.3897 23.9357 21.3722V21.3726Z" fill="#2F2E30"/>
<path d="M22.2894 21.2432L22.3083 21.1915C22.3719 21.0166 22.2701 20.8251 22.0895 20.7799L21.8825 20.7282C21.7234 20.6884 21.5606 20.7778 21.5088 20.9333L21.4629 21.071L22.2894 21.2432Z" fill="#2F2E30"/>
<path d="M22.5045 20.435L24.5202 21.6339C24.8764 21.8456 25.6285 21.9312 25.9175 21.6339C26.3598 21.1783 26.9645 20.5579 27.1288 20.4047C27.3966 20.1561 28.7744 19.8519 28.8987 19.5675C28.8931 19.6467 28.9138 19.5335 28.8987 19.5675C28.8987 19.5675 29.5461 19.2684 29.6214 17.8098C29.6214 16.6358 28.5407 15.7287 28.4022 15.6574C27.691 15.2907 26.3837 14.6425 25.5237 14.218C25.0549 13.9866 24.4883 14.1713 24.2441 14.6335C23.9883 15.1177 24.1853 15.7174 24.6783 15.9556L26.8314 16.9959C27.1858 17.4713 27.0518 18.1966 26.5834 18.4451C26.2092 18.6444 24.3886 18.8409 23.3067 18.9076C23.0195 18.9251 22.7512 19.0549 22.5584 19.2684C22.3651 19.4824 22.2634 19.7631 22.2754 20.0512C22.2818 20.21 22.3679 20.354 22.5045 20.435Z" fill="#F55905"/>
<path d="M13.6068 11.6693H7.03743C6.67428 11.6693 6.37988 11.9636 6.37988 12.3268V18.8819C6.37988 19.2451 6.67428 19.5395 7.03743 19.5395H13.6068C13.97 19.5395 14.2644 19.2451 14.2644 18.8819V12.3268C14.2644 11.9636 13.97 11.6693 13.6068 11.6693Z" fill="#F55905"/>
<path d="M11.6603 17.251C11.5766 17.2789 11.4867 17.2929 11.3938 17.2917C11.1036 17.2874 10.9652 17.132 10.8419 16.9007C10.8006 16.8272 10.78 16.6676 10.78 16.6676L10.7994 15.4102L11.8747 15.4266L11.8255 14.9245C11.8012 14.6768 11.5948 14.4867 11.3458 14.4831L10.814 14.4746L10.8274 13.6198L10.8383 12.9197C10.8383 12.9197 10.5159 12.9361 10.4084 12.9428C9.85716 12.9774 9.48013 13.3381 9.47345 13.7661L9.46434 14.4892L8.51236 14.5098L8.5069 14.8717C8.50265 15.1491 8.72425 15.378 9.00232 15.3823L9.45099 15.3889L9.43095 16.6767L9.43399 16.8649C9.42609 17.6657 10.0672 18.3238 10.8692 18.336C11.154 18.3402 11.4211 18.2625 11.6482 18.1247L11.6616 17.2504L11.6603 17.251Z" fill="white"/>
<path d="M14.1683 17.9783C14.1822 18.2954 14.253 18.5962 14.3761 18.763C14.5404 18.9842 14.85 19.1597 15.2279 19.3273C15.5672 19.479 15.9652 19.6231 16.3569 19.7886C17.1822 20.1367 19.4633 21.1091 19.4633 21.1091L18.6646 23.0904L19.2606 23.2757L19.4633 23.4672L20.0503 24.0193C20.0503 24.0193 21.6157 21.6403 21.8356 21.1091C22.0556 20.577 21.909 20.0449 21.7074 19.7886C21.134 19.3273 19.2884 18.1194 17.6336 17.3251C17.298 17.1634 16.8094 17.349 16.4927 17.2196C16.3808 17.1735 16.2702 17.1299 16.1621 17.0889C15.4147 16.8103 14.7947 16.6775 14.506 16.8367C14.3032 16.9485 14.1939 17.3117 14.1717 17.703C14.1667 17.794 14.1654 17.887 14.1692 17.9779L14.1683 17.9783Z" fill="#79A5FE"/>
<path d="M17.5888 24.9465C17.7741 25.0754 18.022 25.2485 18.2947 25.4395C18.723 25.7376 19.2112 26.0793 19.6149 26.3602C19.687 26.4111 19.757 26.4603 19.8239 26.506C20.0301 26.6512 20.2014 26.7708 20.3106 26.8468C20.3868 26.9005 20.4933 26.8787 20.5424 26.7997C20.5651 26.7632 20.5875 26.7203 20.6082 26.674C20.6697 26.5417 20.715 26.3725 20.681 26.1979C20.6038 25.8133 19.8533 24.7801 19.8533 24.7801L20.4615 23.5418C20.4827 23.4993 20.4674 23.4491 20.4258 23.4264L20.0603 23.2192L19.852 23.1L18.9448 22.5824C18.9029 22.5584 18.8509 22.5716 18.8251 22.6114C18.7969 22.657 18.7572 22.7237 18.7069 22.8031C18.6827 22.8438 18.6566 22.8876 18.6275 22.9347C18.4747 23.1827 18.2711 23.5166 18.0759 23.8392C17.9065 24.1169 17.744 24.3863 17.6295 24.5822C17.5965 24.6394 17.5668 24.6893 17.5419 24.7328C17.4992 24.8063 17.5212 24.8984 17.5896 24.9463L17.5888 24.9465Z" fill="#FDFDFD"/>
<path d="M22.1086 10.5765L22.0755 10.5953L22.0445 10.6129L21.8979 10.6976L19.9443 11.817L20.9544 13.3235L21.2267 13.0902L21.4081 12.9347L22.3529 12.1262L22.357 12.1224L22.1078 10.5765H22.1086Z" fill="#E6A37F"/>
<path d="M20.9364 10.7635C20.9167 10.9546 21.0554 11.1259 21.2469 11.1456C21.4383 11.1653 21.4547 11.0107 21.4744 10.8193C21.494 10.6278 21.5096 10.4728 21.3185 10.4531C21.1275 10.4334 20.9561 10.5721 20.9364 10.7635Z" fill="#FDC3A4"/>
<path d="M21.3341 10.6176C21.3341 10.6176 21.0777 10.5649 21.0635 10.8401" stroke="#221F20" stroke-width="0.313704" stroke-miterlimit="10" stroke-linecap="round"/>
<path d="M21.0623 10.5518C21.0547 10.6232 21.0542 10.6952 21.058 10.7655C21.0711 10.9644 21.1294 11.1579 21.2215 11.34C21.5524 12.0001 22.3176 12.513 22.9395 12.5773C23.6912 12.6552 23.9812 12.0519 24.1109 11.2244C24.1283 11.1111 24.1436 10.9939 24.1561 10.8729C24.1883 10.5605 24.1507 10.2597 24.0591 9.99041C23.9964 9.80836 23.9087 9.64048 23.7986 9.49386C23.5544 9.16518 23.2039 8.94388 22.7973 8.90137C21.9568 8.81416 21.1904 9.52874 21.0689 10.5055C21.0662 10.5202 21.0645 10.5366 21.0629 10.5518H21.0623Z" fill="#E6A37F"/>
<path d="M24.0916 10.1033C24.0916 10.1033 24.5521 10.459 24.7893 10.9591C24.8501 11.0875 24.7611 11.2327 24.6099 11.2547L23.9624 11.3505L24.0916 10.1041V10.1033Z" fill="#E6A37F"/>
<path d="M21.068 10.5055C21.068 10.5055 20.9781 10.941 21.2212 11.3405C21.5182 12.0295 22.6482 12.7637 23.269 12.828C24.0206 12.906 24.2621 11.975 24.11 11.2255C23.831 10.9083 23.269 10.6981 22.6829 11.0819L22.0802 10.7764L22.1009 10.578L21.068 10.5055Z" fill="#8B2A00"/>
<path opacity="0.25" d="M23.1329 9.71337C23.3535 10.3911 23.9881 10.2007 24.0998 10.108C24.0372 9.92594 23.9494 9.75806 23.8393 9.61144C23.3209 9.47354 23.0571 9.44574 23.0571 9.44574L23.1329 9.71337Z" fill="#221F20"/>
<path d="M24.442 9.92322C24.442 9.92322 24.3847 9.91407 24.2956 9.90186C24.2309 9.8921 24.1486 9.88051 24.0577 9.86831C23.6806 9.81767 23.1547 9.75726 23.1028 9.8079C23.0876 9.82255 23.054 9.89576 23.0095 10.0068C22.9045 10.2661 22.738 10.7274 22.6037 11.1075C22.5854 11.1599 22.5616 11.2087 22.5342 11.2539C22.533 11.2557 22.5324 11.2576 22.5311 11.2594C22.3646 11.5291 22.0479 11.6779 21.7245 11.6224C21.3115 11.551 20.799 11.4546 20.4829 11.3619C20.4311 11.3466 20.3841 11.332 20.3438 11.3167C20.2438 11.2789 20.1742 11.249 20.1456 11.2313C19.9698 11.0605 19.6727 9.4638 20.2914 8.67003C20.9393 7.83538 21.7795 7.62611 22.5189 7.70786C23.1046 7.77254 24.6062 8.37656 24.4414 9.92322H24.442Z" fill="#F55905"/>
<path d="M23.2179 9.78655L25.0995 10.0178C25.1111 10.019 25.1233 10.0196 25.1355 10.0178C25.1904 10.0086 25.2368 9.96227 25.2417 9.90186C25.2466 9.85183 25.2215 9.80363 25.1782 9.77862L24.4143 9.27405L23.7658 9.54311L23.2173 9.78655H23.2179Z" fill="#221F20"/>
<path d="M23.2179 9.78641L25.0995 10.0176C25.1111 10.0189 25.1233 10.0195 25.1355 10.0176C25.1904 10.0085 25.2368 9.96212 25.2417 9.90172C25.2466 9.85169 25.2215 9.80349 25.1782 9.77848L23.7658 9.54297L23.2173 9.78641H23.2179Z" fill="#525151"/>
<path d="M22.2531 13.2919L21.2492 13.8335L18.198 17.81C18.0826 17.9365 17.7971 17.9767 17.5515 17.9062C17.5515 17.9062 14.2505 17.1906 14.208 17.1327C14.0734 16.9478 13.9131 16.7628 14.0806 16.6069L14.208 16.4886C14.208 16.4886 13.9739 16.1551 14.3393 16.0021L14.3659 15.9302C14.6144 15.2564 14.9504 14.6178 15.3717 14.0362C16.312 12.7397 17.5153 11.479 20.0473 11.7778C20.0961 11.7836 20.2887 11.5934 20.3205 11.5297C20.3596 11.451 20.4817 11.4394 20.5368 11.5152L22.3405 13.0482C22.4056 13.1374 22.3603 13.2644 22.2531 13.2919Z" fill="#F55905"/>
<path d="M23.8027 18.6378C23.8618 18.6877 23.9347 18.7128 24.0088 18.7107C24.0746 18.709 24.1421 18.6843 24.1965 18.6378C24.489 18.3827 25.489 17.497 25.5619 17.4333C25.6628 17.3462 25.4752 16.8275 25.1467 17.0425C24.9502 17.1715 24.1048 17.9658 23.8274 18.1585C23.6632 18.2721 23.6511 18.5096 23.8031 18.6378H23.8027Z" fill="#262626"/>
<path d="M25.7152 18.3634C25.7152 18.3634 25.7101 18.3634 25.7078 18.3634C25.5836 18.3594 25.4864 18.2555 25.4903 18.1318L25.5122 17.4416C25.5139 17.3854 25.4875 17.3326 25.442 17.3005L24.9423 16.9498C24.8406 16.8784 24.8164 16.7384 24.8872 16.6367C24.9586 16.535 25.0986 16.5102 25.2003 16.5816L25.7 16.9324C25.8703 17.0521 25.9681 17.2477 25.9613 17.4556L25.9394 18.1459C25.9355 18.2673 25.8354 18.3634 25.7146 18.3634H25.7152Z" fill="#FDC3A4"/>
<path d="M25.3278 18.4092C25.2047 18.4092 25.1047 18.3103 25.103 18.1872L25.0962 17.6296V17.6246C25.0979 17.5684 25.0715 17.5155 25.026 17.4835L24.5263 17.1328C24.4246 17.0614 24.4004 16.9214 24.4712 16.8197C24.5426 16.718 24.6826 16.6932 24.7843 16.7646L25.284 17.1153C25.4531 17.2339 25.5504 17.4273 25.5459 17.6336L25.5526 18.1821C25.5543 18.3064 25.4548 18.4081 25.3306 18.4098C25.3295 18.4098 25.3289 18.4098 25.3278 18.4098V18.4092Z" fill="#FDC3A4"/>
<path d="M24.9132 18.3546C24.7907 18.3546 24.6906 18.2562 24.6884 18.1337L24.6822 17.7515V17.7459C24.6839 17.6896 24.658 17.6368 24.6119 17.6048L24.1122 17.254C24.0105 17.1827 23.9863 17.0427 24.0572 16.941C24.1285 16.8392 24.2685 16.8151 24.3702 16.8859L24.8699 17.2366C25.0385 17.3552 25.1363 17.548 25.1318 17.7537L25.138 18.1252C25.1403 18.2495 25.0413 18.3518 24.9171 18.354C24.916 18.354 24.9143 18.354 24.9132 18.354V18.3546Z" fill="#FDC3A4"/>
<path d="M25.6486 16.8856C25.5064 16.9328 25.3946 17.0436 25.3462 17.1852L25.3288 17.2352L25.2844 17.2577C25.2186 17.2909 25.1613 17.3364 25.1152 17.392C25.0691 17.4471 25.0343 17.5118 25.0129 17.582L24.6594 17.9687C24.5402 17.7686 24.443 17.8411 24.2901 17.9187C24.0956 18.0171 23.8506 18.012 23.6387 17.9625L23.3262 17.8827L23.7663 16.4624L24.2794 16.359L24.3424 16.346C24.502 16.3134 24.6807 16.3393 24.8595 16.4C25.0562 16.4658 25.2529 16.5737 25.4232 16.6917L25.6486 16.8856Z" fill="#A6A6A6"/>
<path d="M20.4707 17.8445C19.9381 17.6408 19.5061 17.3183 19.3382 16.7727L18.4963 13.924C18.3372 13.4549 18.8743 12.6555 19.3382 12.482L19.5163 12.4154C20.0398 12.2197 20.6151 12.5311 20.7389 13.0754L21.5152 15.5156C21.5271 15.5463 21.5527 15.5717 21.5827 15.5828L21.5886 15.585L21.6165 15.5959L24.1682 16.4161L23.2348 18.4086L20.4707 17.8445Z" fill="#F55905"/>
</svg>
