<svg width="40" height="40" viewBox="0 0 40 40" fill="none" xmlns="http://www.w3.org/2000/svg">
<g id="Star">
<g id="Group 1729">
<g id="Group 1716">
<path id="Star 2" d="M19.0636 10.4893C19.6903 9.34014 21.3404 9.34014 21.9672 10.4893L24.3624 14.8813C24.6002 15.3174 25.0215 15.6235 25.5098 15.7149L31.4724 16.2588L31.7601 17.5807C31.8746 18.29 31.8067 18.8869 31.3242 19.3973L27.8874 23.0324C27.5461 23.3934 27.3852 23.8887 27.4491 24.3813L27.9474 27.7042L28.0929 29.3424C28.2613 30.6405 26.9263 31.6104 25.7438 31.0491L21.2245 28.9038C20.7757 28.6908 20.255 28.6908 19.8062 28.9038L15.2869 31.0491C14.1044 31.6104 12.7694 30.6405 12.9378 29.3424L13.0846 27.6613L13.5816 24.3813C13.6455 23.8887 13.4846 23.3934 13.1433 23.0324L9.70647 19.3973C9.30234 18.9698 9.1828 18.4175 9.29046 17.917C9.34534 17.6619 9.48421 16.5252 9.48421 16.5252C9.71628 16.2378 10.1901 16.7132 10.6037 16.6358L15.5209 15.7149C16.0092 15.6235 16.4305 15.3174 16.6683 14.8813L19.0636 10.4893Z" fill="#C44100"/>
<g id="Group 1670">
<path id="Star 2_2" d="M19.0916 9.14106C19.7064 8.01385 21.3249 8.01385 21.9396 9.14106L24.289 13.449C24.5223 13.8767 24.9356 14.177 25.4145 14.2667L30.2375 15.1698C31.4995 15.4062 31.9997 16.9455 31.1176 17.8785L27.7466 21.4441C27.4118 21.7982 27.254 22.2839 27.3167 22.7671L27.9481 27.6333C28.1133 28.9065 26.8039 29.8579 25.644 29.3073L21.2112 27.2031C20.771 26.9941 20.2602 26.9941 19.8201 27.2031L15.3872 29.3073C14.2273 29.8579 12.9179 28.9065 13.0831 27.6333L13.7146 22.7671C13.7773 22.2839 13.6194 21.7982 13.2847 21.4441L9.91361 17.8785C9.03154 16.9455 9.5317 15.4062 10.7937 15.1698L15.6168 14.2667C16.0957 14.177 16.5089 13.8767 16.7422 13.449L19.0916 9.14106Z" fill="#FF5A00"/>
<g id="Mask group">
<mask id="mask0_5866_12427" style="mask-type:alpha" maskUnits="userSpaceOnUse" x="9" y="8" width="23" height="22">
<path id="Star 7" d="M19.0916 9.14106C19.7064 8.01385 21.3249 8.01385 21.9396 9.14106L24.289 13.449C24.5223 13.8767 24.9356 14.177 25.4145 14.2667L30.2375 15.1698C31.4995 15.4062 31.9997 16.9455 31.1176 17.8785L27.7466 21.4441C27.4118 21.7982 27.254 22.2839 27.3167 22.7671L27.9481 27.6333C28.1133 28.9065 26.8039 29.8579 25.644 29.3073L21.2112 27.2031C20.771 26.9941 20.2602 26.9941 19.8201 27.2031L15.3872 29.3073C14.2273 29.8579 12.9179 28.9065 13.0831 27.6333L13.7146 22.7671C13.7773 22.2839 13.6194 21.7982 13.2847 21.4441L9.91361 17.8785C9.03154 16.9455 9.5317 15.4062 10.7937 15.1698L15.6168 14.2667C16.0957 14.177 16.5089 13.8767 16.7422 13.449L19.0916 9.14106Z" fill="#FF5A00"/>
</mask>
<g mask="url(#mask0_5866_12427)">
<path id="Rectangle 674" d="M28.7291 14.4697C33.9628 14.2917 41.5825 19.1983 41.5825 19.1983L16.3211 39.9856L6.55741 23.2821C6.55741 23.2821 11.8133 27.4125 18.4553 22.938C21.5399 20.86 23.6531 14.6423 28.7291 14.4697Z" fill="#FF8B4B"/>
</g>
</g>
</g>
</g>
<path id="Vector" d="M12.1559 25.7985L12.1914 25.8134C12.4631 25.9272 12.4631 26.3122 12.1914 26.426L12.1559 26.4409C11.7474 26.6117 11.4252 26.9549 11.2636 27.3889C11.1596 27.6692 10.7631 27.6692 10.6591 27.3889C10.4983 26.9557 10.1753 26.6125 9.76685 26.4409L9.73133 26.426C9.45961 26.3122 9.45961 25.9272 9.73133 25.8134L9.76685 25.7985C10.1745 25.6277 10.4976 25.2845 10.6591 24.8505C10.7631 24.5702 11.1596 24.5702 11.2636 24.8505C11.4244 25.2837 11.7474 25.6269 12.1559 25.7985Z" fill="#FFD659"/>
<path id="Vector_2" d="M26.848 7.9742L26.8836 7.98908C27.1553 8.10288 27.1553 8.48786 26.8836 8.60166L26.848 8.61654C26.4396 8.78734 26.1173 9.13058 25.9558 9.56453C25.8518 9.84489 25.4553 9.84489 25.3513 9.56453C25.1905 9.1314 24.8675 8.78816 24.459 8.61654L24.4235 8.60166C24.1518 8.48786 24.1518 8.10288 24.4235 7.98908L24.459 7.9742C24.8667 7.80339 25.1897 7.46016 25.3513 7.02621C25.4553 6.74585 25.8518 6.74585 25.9558 7.02621C26.1166 7.45934 26.4396 7.80258 26.848 7.9742Z" fill="#FFF9E5"/>
</g>
</g>
</svg>
