<svg width="35" height="35" viewBox="0 0 35 35" fill="none" xmlns="http://www.w3.org/2000/svg">
<g id="Restaurant" clip-path="url(#clip0_5866_12446)">
<g id="Group 1545">
<g id="Moto">
<g id="Group">
<path id="Vector" d="M22.933 24.7704C21.1982 24.4635 20.042 22.8086 20.349 21.0738C20.656 19.3389 22.312 18.1816 24.0456 18.4897C25.7805 18.7967 26.9378 20.4528 26.6297 22.1876C26.3227 23.9224 24.6667 25.0786 22.9318 24.7716L22.933 24.7704Z" fill="#C44100"/>
<path id="Vector_2" d="M24.0392 18.5259C22.3262 18.2222 20.6899 19.3658 20.3858 21.0805C20.0817 22.7951 21.2253 24.4314 22.9383 24.7351C24.6529 25.0393 26.2892 23.8956 26.5934 22.181C26.8975 20.4663 25.7538 18.83 24.0392 18.5259ZM27.6726 22.6575C27.4778 23.4593 27.0652 24.1578 26.5103 24.7025C26.4451 24.7656 26.3795 24.8262 26.31 24.8851C25.9165 25.2269 25.4632 25.4955 24.971 25.6751C24.8965 25.7022 24.8207 25.728 24.7444 25.7513C24.2836 25.8924 23.7931 25.9576 23.2916 25.9335C23.2297 25.9309 23.1679 25.9263 23.1052 25.9212C22.9823 25.9106 22.8603 25.8936 22.7367 25.8716C22.408 25.8132 22.0941 25.7187 21.7976 25.5937H21.7963C21.7006 25.5522 21.607 25.5073 21.5151 25.4603C20.3591 24.8648 19.5348 23.7745 19.2722 22.513C19.2447 22.3847 19.2239 22.2547 19.2091 22.1221C19.1621 21.718 19.1722 21.2999 19.2472 20.8784C19.3552 20.2693 19.5861 19.714 19.9101 19.2311C19.9618 19.1532 20.0156 19.0782 20.0728 19.0041C20.4451 18.5217 20.9148 18.1235 21.4469 17.8359C21.5172 17.7982 21.5888 17.7617 21.662 17.7283C22.1805 17.4847 22.7502 17.3433 23.3415 17.3242C23.4512 17.3204 23.5601 17.32 23.6707 17.3263H23.6719C23.8604 17.3344 24.0489 17.3543 24.2404 17.3882C24.8863 17.5025 25.4743 17.7562 25.977 18.1125C26.0728 18.1807 26.1655 18.2523 26.2536 18.3268C26.6815 18.6843 27.0347 19.1227 27.2944 19.6124C27.3533 19.7233 27.4075 19.8369 27.4566 19.9534V19.9546C27.7561 20.6603 27.8709 21.4511 27.7506 22.2614C27.7446 22.3021 27.7374 22.3423 27.7302 22.3826C27.7137 22.4753 27.6938 22.5673 27.6718 22.6575H27.6726Z" fill="#C44100"/>
</g>
<path id="Vector_3" d="M2.03371 15.9974C2.00405 16.2996 2.23964 16.5604 2.54349 16.5637L13.7226 17.1989C13.9302 17.2005 14.0998 17.031 14.1015 16.8234L14.0998 16.2705V15.895C14.0998 15.6992 13.9202 14.4368 13.7226 14.4233H2.6901C2.40919 14.4032 2.16521 14.6108 2.13891 14.89L2.07904 15.5229L2.03427 15.998L2.03371 15.9974Z" fill="#C44100"/>
<path id="Vector_4" d="M22.4316 13.6823C22.2147 13.0469 21.9826 12.3886 21.8775 12.0926C21.8454 12.0019 21.7475 11.9536 21.656 11.9824L20.6991 12.2844C20.6017 12.3149 20.55 12.4204 20.5852 12.5161C20.7381 12.9279 21.1147 13.9377 21.2087 14.1414C21.459 14.6836 22.7243 14.5375 22.432 13.6827L22.4316 13.6823Z" fill="#C44100"/>
<g id="Group_2">
<g id="Group_3">
<g id="Group_4">
<path id="Vector_5" d="M19.4272 11.9567L20.251 14.0492L20.8822 15.7774L22.036 18.9437L22.2635 18.8772L22.3766 18.8433L22.521 18.8005L23.0742 18.64L22.036 15.672L21.4337 13.9535L20.5446 11.6209C20.5268 11.5718 20.4743 11.5442 20.4239 11.5595L19.8482 11.725L19.7076 11.7665L19.5267 11.8195L19.4916 11.8296C19.4373 11.8449 19.4068 11.9038 19.4272 11.9567Z" fill="#C44100"/>
</g>
<path id="Vector_6" d="M22.9529 18.4786L21.8681 18.8819L21.9655 19.2157L23.0639 18.8124L22.9529 18.4786Z" fill="#2F2E30"/>
</g>
</g>
<g id="Group_5">
<path id="Vector_7" d="M5.02748 24.8164C3.29123 24.5088 2.13336 22.8517 2.44094 21.1155C2.74851 19.3792 4.40564 18.2202 6.14189 18.5289C7.87814 18.8365 9.03601 20.4947 8.72843 22.231C8.42086 23.9672 6.76373 25.1251 5.02748 24.8175V24.8164Z" fill="#C44100"/>
<path id="Union" d="M6.13387 18.5684C4.42092 18.2647 2.78463 19.4083 2.4805 21.123C2.17637 22.8376 3.32003 24.4739 5.03299 24.7776C6.74764 25.0818 8.38393 23.9381 8.68806 22.2234C8.99219 20.5088 7.84853 18.8725 6.13387 18.5684ZM9.76734 22.7C9.5725 23.5018 9.15993 24.2003 8.60504 24.745C8.53981 24.8081 8.47415 24.8687 8.40469 24.9276C8.01118 25.2694 7.55795 25.538 7.06575 25.7176C6.9912 25.7447 6.91538 25.7705 6.83914 25.7938C6.37828 25.9348 5.88777 26.0001 5.38626 25.9759C5.32441 25.9734 5.26257 25.9687 5.19988 25.9636C5.07704 25.9531 4.95505 25.9361 4.83137 25.9141C4.50267 25.8556 4.1888 25.7612 3.89229 25.6362H3.89102C3.79529 25.5947 3.70168 25.5498 3.60976 25.5028C2.45381 24.9072 1.62952 23.8169 1.36691 22.5555C1.33937 22.4272 1.31862 22.2971 1.30379 22.1646C1.25677 21.7605 1.26694 21.3424 1.34191 20.9209C1.44993 20.3118 1.68078 19.7565 2.00482 19.2736C2.05649 19.1957 2.11029 19.1207 2.16747 19.0466C2.5398 18.5641 3.00955 18.166 3.54156 17.8784C3.61188 17.8407 3.68346 17.8042 3.75674 17.7708C4.27521 17.5272 4.84492 17.3857 5.43624 17.3667C5.54595 17.3629 5.65481 17.3624 5.76536 17.3688H5.76663C5.95512 17.3768 6.14362 17.3967 6.33508 17.4306C6.98104 17.545 7.56896 17.7987 8.07175 18.155C8.16748 18.2231 8.26025 18.2947 8.34835 18.3693C8.77617 18.7268 9.12943 19.1652 9.38909 19.6549C9.44797 19.7658 9.50218 19.8793 9.55132 19.9958V19.9971C9.85079 20.7028 9.96558 21.4936 9.84528 22.3039C9.83935 22.3446 9.83215 22.3848 9.82495 22.4251C9.80843 22.5178 9.78852 22.6097 9.7665 22.7H9.76734Z" fill="#C44100"/>
<g id="Group 1553">
<path id="Vector_8" d="M8.09129 15.9973C8.36691 16.089 8.32221 16.3768 8.18641 16.5327C8.06321 16.6746 7.94516 16.8194 7.86322 16.987C7.66266 17.3961 7.36412 17.9783 7.36412 17.9783L7.00082 17.8677L7.49935 16.7674C7.56754 16.6171 7.61396 16.4578 7.63516 16.2946C7.65865 16.1152 7.75148 15.8845 8.09071 15.9968L8.09129 15.9973Z" fill="#C44100"/>
<path id="Vector_9" d="M6.24908 19.4152C6.23383 19.4435 5.77171 20.5232 5.61075 20.9083C5.52899 21.104 5.9602 21.3192 6.09066 21.0989C6.18936 20.9328 6.78194 19.649 6.78194 19.649L6.24908 19.4152Z" fill="#C44100"/>
<path id="Vector_10" d="M7.40264 14.7968L4.57504 21.3417L6.60002 22.3262L9.42762 15.7813L7.40264 14.7968Z" fill="#C44100"/>
</g>
</g>
<path id="Vector_11" d="M22.2823 14.422L20.2918 15.1957C20.2918 15.1957 20.4061 15.5226 20.577 16.0236C20.9457 17.1021 22.2955 20.5246 22.6965 21.6101C22.8139 21.9284 23.1637 22.0939 23.4843 21.9836C23.8097 21.8709 24.7429 21.2083 24.631 20.8838L22.2823 14.4228V14.422Z" fill="#C44100"/>
<path id="Vector_12" d="M23.2147 23.1822C22.3573 23.0305 21.7859 22.2126 21.9377 21.3552C22.0894 20.4978 22.9078 19.9258 23.7646 20.0781C24.622 20.2299 25.194 21.0483 25.0417 21.9057C24.89 22.7631 24.0715 23.3345 23.2141 23.1828L23.2147 23.1822Z" fill="#FDFDFD"/>
<g id="Group_6">
<path id="Vector_13" d="M19.3068 15.1498L17.4557 23.2885H12.7762L14.2975 15.0186L19.3068 15.1498Z" fill="#C44100"/>
<path id="Vector_14" d="M13.7742 16.4491C13.5658 16.4076 11.6054 17.4085 11.6054 17.7004C11.6054 17.9922 13.0651 20.2236 13.0651 20.2236L14.7958 18.9516C14.7958 18.9516 13.9826 16.4911 13.7742 16.4491Z" fill="#C44100"/>
<path id="Vector_15" d="M10.9299 23.2883C10.9299 23.2883 11.7886 16.591 5.07211 16.2735L7.8986 15.7468L12.6063 15.7468L13.5058 23.2883H10.9299Z" fill="#C44100"/>
<path id="Vector_16" d="M5.29586 23.3263C4.39898 23.1676 3.80126 22.3121 3.95996 21.4152C4.11867 20.5183 4.97481 19.92 5.87109 20.0793C6.76797 20.238 7.3663 21.0941 7.20699 21.991C7.04828 22.8879 6.19214 23.4856 5.29526 23.3269L5.29586 23.3263Z" fill="#FDFDFD"/>
<path id="Vector_17" d="M11.7525 14.2251C11.5793 13.7922 5.77793 13.7354 5.52802 13.9646C5.27769 14.1942 5.18365 14.9549 5.43399 15.0176C5.68432 15.0803 11.5441 15.3302 11.711 15.1845C11.8779 15.0384 11.7945 14.3297 11.7525 14.2251Z" fill="#C44100"/>
<path id="Vector_18" d="M19.5702 14.1112L20.1636 15.8297C20.3584 15.8297 20.5419 15.8284 20.7117 15.8259L20.0806 14.0977C19.9107 14.1015 19.74 14.1066 19.5702 14.1116V14.1112Z" fill="#2C1511"/>
<path id="Vector_19" d="M11.3652 15.0843C11.4381 15.2529 11.6066 15.3757 11.8091 15.3782L16.0754 15.4397L18.6571 15.4774C18.8469 15.4799 19.0206 15.3732 19.1032 15.202C19.2654 14.864 19.5115 14.2871 19.5331 13.8432C19.5407 13.6784 19.5166 13.5327 19.4463 13.4247C19.0917 12.8817 14.8381 12.0896 14.2536 12.2357C13.9846 12.3022 13.4856 12.6004 12.993 12.9499C12.4161 13.3573 11.8477 13.8334 11.6681 14.0927C11.5185 14.3074 11.4093 14.5438 11.3449 14.7602C11.311 14.8733 11.3224 14.9864 11.3648 15.0847L11.3652 15.0843Z" fill="#C44100"/>
</g>
<g id="Group_7">
<path id="Vector_20" d="M16.8171 15.7322L18.919 16.9824C19.2905 17.2031 20.0748 17.2924 20.3761 16.9824C20.8373 16.5073 21.4679 15.8603 21.6392 15.7005C21.9185 15.4414 23.3553 15.1242 23.4848 14.8276C23.4791 14.9101 23.5007 14.7921 23.4848 14.8276C23.4848 14.8276 24.16 14.5156 24.2385 12.9947C24.2385 11.7704 23.1115 10.8245 22.9671 10.7501C22.2255 10.3678 20.8622 9.69178 19.9654 9.24909C19.4766 9.00777 18.8857 9.20038 18.631 9.68242C18.3644 10.1873 18.5698 10.8126 19.0839 11.061L21.3291 12.1459C21.6986 12.6416 21.559 13.398 21.0704 13.6571C20.6803 13.8649 18.7818 14.0698 17.6535 14.1394C17.3541 14.1576 17.0743 14.293 16.8732 14.5156C16.6717 14.7388 16.5656 15.0315 16.5781 15.332C16.5848 15.4975 16.6745 15.6478 16.8171 15.7322Z" fill="#FF5A00"/>
</g>
<g id="Group_8">
<path id="Vector_21" d="M7.29269 6.58923L0.663472 6.58923C0.297013 6.58923 -6.10352e-05 6.88631 -6.10352e-05 7.25277V13.8676C-6.10352e-05 14.234 0.297013 14.5311 0.663472 14.5311H7.29269C7.65915 14.5311 7.95622 14.234 7.95622 13.8676V7.25277C7.95622 6.88631 7.65915 6.58923 7.29269 6.58923Z" fill="#FF5A00"/>
</g>
</g>
<g id="Rider">
<g id="Group_9">
<path id="Vector_22" d="M8.12245 13.1681C8.13687 13.4988 8.2107 13.8125 8.33914 13.9863C8.5104 14.217 8.83325 14.4001 9.22731 14.5748C9.58118 14.733 9.99622 14.8833 10.4047 15.0558C11.2653 15.4189 13.6441 16.4329 13.6441 16.4329L12.8111 18.4989L13.4326 18.6922L13.6441 18.8919L14.2561 19.4677C14.2561 19.4677 15.8885 16.9868 16.1179 16.4329C16.3473 15.878 16.1944 15.3232 15.9842 15.0558C15.3862 14.5748 13.4617 13.3152 11.736 12.4869C11.3861 12.3183 10.8765 12.5119 10.5462 12.3769C10.4296 12.3288 10.3143 12.2834 10.2015 12.2406C9.42216 11.9501 8.77558 11.8116 8.47458 11.9776C8.26313 12.0942 8.1491 12.473 8.12595 12.881C8.12071 12.9759 8.11939 13.0728 8.12333 13.1676L8.12245 13.1681Z" fill="#FF5A00"/>
<g id="Group_10">
<path id="Vector_23" d="M11.6894 20.4346C11.8826 20.569 12.1411 20.7495 12.4255 20.9487C12.8722 21.2595 13.3812 21.6158 13.8022 21.9088C13.8774 21.9619 13.9503 22.0132 14.0201 22.0609C14.2352 22.2123 14.4138 22.3369 14.5276 22.4162C14.6072 22.4722 14.7181 22.4494 14.7694 22.367C14.7931 22.329 14.8164 22.2843 14.838 22.236C14.9021 22.0981 14.9493 21.9216 14.9139 21.7395C14.8334 21.3385 14.0508 20.261 14.0508 20.261L14.685 18.9698C14.7071 18.9254 14.6912 18.8731 14.6478 18.8494L14.2666 18.6333L14.0494 18.509L13.1034 17.9692C13.0597 17.9443 13.0055 17.958 12.9786 17.9996C12.9492 18.0471 12.9078 18.1167 12.8553 18.1994C12.8301 18.2419 12.8029 18.2875 12.7725 18.3367C12.6132 18.5952 12.4009 18.9434 12.1974 19.2799C12.0207 19.5695 11.8513 19.8504 11.7318 20.0547C11.6974 20.1144 11.6664 20.1664 11.6405 20.2117C11.5959 20.2884 11.6189 20.3844 11.6902 20.4344L11.6894 20.4346Z" fill="#FDFDFD"/>
</g>
</g>
<g id="Group_11">
<g id="Group_12">
<path id="Vector_24" d="M15.1807 5.64476C15.1601 5.84398 15.3047 6.02266 15.5044 6.04319C15.7041 6.06372 15.7211 5.90252 15.7416 5.70286C15.7622 5.50321 15.7783 5.34157 15.5791 5.32103C15.3799 5.3005 15.2012 5.44511 15.1807 5.64476Z" fill="#FFA671"/>
<path id="Vector_25" d="M15.5957 5.49276C15.5957 5.49276 15.3284 5.43771 15.3135 5.72474" stroke="#221F20" stroke-width="0.348906" stroke-miterlimit="10" stroke-linecap="round"/>
</g>
<g id="Group 1554">
<g id="Group 1733">
<path id="Vector_26" d="M16.4032 5.45007L16.3687 5.46973L16.3364 5.48808L16.1835 5.57633L14.1463 6.74366L15.1996 8.31467L15.4836 8.07133L15.6727 7.90925L16.6579 7.06608L16.6623 7.06215L16.4023 5.45007H16.4032Z" fill="#FFA671"/>
<path id="Vector_27" d="M15.3114 5.4238C15.3035 5.49826 15.3029 5.57329 15.3069 5.64661C15.3205 5.85407 15.3813 6.05585 15.4774 6.2457C15.8224 6.93402 16.6204 7.46888 17.269 7.53595C18.0528 7.61723 18.3552 6.98802 18.4904 6.1252C18.5086 6.00697 18.5245 5.88477 18.5376 5.75858C18.5712 5.43289 18.5319 5.11914 18.4364 4.83835C18.3711 4.64851 18.2796 4.47344 18.1648 4.32055C17.9101 3.97781 17.5446 3.74704 17.1206 3.7027C16.2441 3.61176 15.445 4.35692 15.3182 5.37549C15.3154 5.39083 15.3137 5.40788 15.312 5.4238H15.3114Z" fill="#FFA671"/>
<path id="Vector_28" d="M18.4706 4.9563C18.4706 4.9563 18.9509 5.32719 19.1981 5.84866C19.2615 5.98259 19.1688 6.13396 19.0111 6.15695L18.3359 6.2568L18.4706 4.95709V4.9563Z" fill="#FFA671"/>
</g>
<path id="Vector_29" d="M15.3176 5.37549C15.3176 5.37549 15.2239 5.82963 15.4774 6.24627C15.7871 6.96472 16.9654 7.73035 17.6128 7.79742C18.3966 7.8787 18.6484 6.90788 18.4898 6.12634C18.1988 5.79553 17.6128 5.5763 17.0017 5.97656L16.3731 5.65798L16.3947 5.45108L15.3176 5.37549Z" fill="#C44100"/>
<g id="Group_13">
<path id="Vector_30" d="M18.8359 4.76867C18.8359 4.76867 18.7761 4.75913 18.6832 4.7464C18.6157 4.73623 18.5298 4.72414 18.435 4.71141C18.0419 4.6586 17.4934 4.59562 17.4393 4.64842C17.4234 4.66369 17.3884 4.74004 17.342 4.85584C17.2326 5.12624 17.0589 5.60723 16.9189 6.00361C16.8998 6.05832 16.875 6.10922 16.8464 6.1563C16.8451 6.15821 16.8445 6.16012 16.8432 6.16203C16.6695 6.44324 16.3393 6.59848 16.0021 6.54059C15.5714 6.46615 15.0369 6.36562 14.7073 6.26892C14.6533 6.25301 14.6043 6.23774 14.5623 6.22183C14.4579 6.18239 14.3854 6.15121 14.3555 6.13276C14.1723 5.95462 13.8624 4.28959 14.5076 3.46185C15.1833 2.59148 16.0593 2.37325 16.8305 2.4585C17.4412 2.52594 19.007 3.15582 18.8352 4.76867H18.8359Z" fill="#FF5A00"/>
<path id="Vector_31" d="M17.5602 4.62623L19.5224 4.86737C19.5345 4.86864 19.5472 4.86928 19.5599 4.86737C19.6172 4.85782 19.6655 4.80947 19.6706 4.74648C19.6757 4.69431 19.6496 4.64405 19.6045 4.61796L18.8079 4.0918L18.1316 4.37238L17.5596 4.62623H17.5602Z" fill="#C44100"/>
<path id="Vector_32" d="M17.5602 4.62544L19.5224 4.86657C19.5345 4.86785 19.5472 4.86848 19.5599 4.86657C19.6172 4.85703 19.6655 4.80868 19.6706 4.74569C19.6757 4.69352 19.6496 4.64325 19.6045 4.61717L18.1316 4.37158L17.5596 4.62544H17.5602Z" fill="#C44100"/>
</g>
</g>
</g>
<g id="Group_14">
<path id="Vector_33" d="M16.5524 8.28126L15.5055 8.84599L12.3238 12.9928C12.2035 13.1246 11.9058 13.1665 11.6496 13.093L8.16303 12.2864C8.19984 11.6948 8.31527 11.1084 8.55589 10.5667C8.79773 10.0222 9.09135 9.45105 9.37655 9.05739C10.357 7.70546 11.6118 6.39077 14.2523 6.70233C14.3031 6.70837 14.5039 6.51006 14.5371 6.44362C14.5779 6.36158 14.7052 6.3495 14.7626 6.42852L16.6435 8.02708C16.7115 8.1202 16.6642 8.25257 16.5524 8.28126Z" fill="#FF5A00"/>
</g>
<g id="Group_15">
<path id="Vector_34" d="M18.1694 13.8562C18.231 13.9082 18.307 13.9344 18.3843 13.9323C18.4529 13.9305 18.5232 13.9047 18.58 13.8562C18.885 13.5902 19.9278 12.6666 20.0038 12.6002C20.1091 12.5094 19.9134 11.9685 19.5709 12.1926C19.366 12.3272 18.4843 13.1555 18.1951 13.3565C18.0239 13.4749 18.0112 13.7226 18.1698 13.8562H18.1694Z" fill="#C44100"/>
</g>
<g id="Group_16">
<g id="Group 1555">
<path id="Vector_35" d="M20.1634 13.5697C20.1634 13.5697 20.1581 13.5697 20.1558 13.5697C20.0263 13.5656 19.9249 13.4572 19.929 13.3283L19.9518 12.6085C19.9536 12.5499 19.926 12.4948 19.8785 12.4614L19.3575 12.0956C19.2514 12.0212 19.2262 11.8753 19.3 11.7692C19.3745 11.6631 19.5204 11.6373 19.6265 11.7117L20.1476 12.0775C20.3252 12.2023 20.4272 12.4063 20.4201 12.6232L20.3973 13.3429C20.3932 13.4695 20.2888 13.5697 20.1628 13.5697H20.1634Z" fill="#FFA671"/>
<path id="Vector_36" d="M19.7597 13.6176C19.6313 13.6176 19.527 13.5145 19.5253 13.3861L19.5182 12.8047V12.7994C19.52 12.7408 19.4924 12.6857 19.445 12.6523L18.9239 12.2866C18.8178 12.2121 18.7926 12.0662 18.8665 11.9601C18.9409 11.854 19.0868 11.8282 19.1929 11.9027L19.714 12.2684C19.8904 12.3921 19.9918 12.5937 19.9871 12.8088L19.9942 13.3808C19.9959 13.5104 19.8922 13.6165 19.7626 13.6182C19.7615 13.6182 19.7609 13.6182 19.7597 13.6182V13.6176Z" fill="#FFA671"/>
<path id="Vector_37" d="M19.3275 13.5604C19.1997 13.5604 19.0954 13.4578 19.093 13.3301L19.0866 12.9315V12.9256C19.0883 12.867 19.0614 12.8119 19.0133 12.7785L18.4923 12.4128C18.3862 12.3383 18.361 12.1924 18.4348 12.0863C18.5093 11.9802 18.6552 11.955 18.7613 12.0289L19.2823 12.3946C19.4582 12.5183 19.5602 12.7193 19.5555 12.9338L19.5619 13.3213C19.5643 13.4508 19.4611 13.5575 19.3316 13.5598C19.3304 13.5598 19.3286 13.5598 19.3275 13.5598V13.5604Z" fill="#FFA671"/>
<path id="Vector_38" d="M20.0937 12.0287C19.9454 12.0779 19.8287 12.1934 19.7783 12.3411L19.7602 12.3932L19.7139 12.4167C19.6453 12.4512 19.5855 12.4987 19.5374 12.5567C19.4894 12.6142 19.453 12.6816 19.4308 12.7549L19.0621 13.1581C18.9378 12.9494 18.8364 13.0251 18.677 13.1059C18.4742 13.2085 18.2187 13.2032 17.9977 13.1517L17.6718 13.0684L18.1308 11.5873L18.6659 11.4795L18.7315 11.466C18.898 11.432 19.0844 11.4589 19.2708 11.5222C19.4759 11.5908 19.681 11.7034 19.8586 11.8264L20.0937 12.0287Z" fill="#FFA671"/>
</g>
<path id="Union_2" d="M14.694 13.0289C14.1387 12.8164 13.6882 12.4802 13.5131 11.9113L12.6352 8.94064C12.4693 8.45144 13.0293 7.61782 13.5131 7.43692L13.6989 7.36748C14.2447 7.16336 14.8447 7.48806 14.9738 8.05566L15.7833 10.6003C15.7957 10.6323 15.8224 10.6588 15.8537 10.6704L15.8598 10.6726L15.8889 10.6841L18.5498 11.5393L17.5764 13.6171L14.694 13.0289Z" fill="#FF5A00"/>
</g>
</g>
</g>
<path id="Vector_39" d="M17.093 20.4277C17.2894 20.4026 17.4763 20.347 17.6503 20.2709C18.1155 20.0689 18.4979 19.6977 18.7238 19.2262C19.3549 17.9194 20.4134 16.9591 22.1165 16.4186C23.1838 16.0815 24.3251 16.2194 25.1084 16.4031L25.1592 16.1866L25.1084 16.4031C25.551 16.507 26.0072 16.4533 26.4039 16.2603C26.4201 16.2529 26.4381 16.2448 26.4574 16.2361C26.5234 16.2063 26.604 16.17 26.6747 16.1318C26.7581 16.0867 26.8803 16.013 26.9478 15.9004C26.9811 15.846 27.0128 15.764 26.9958 15.6664C26.9741 15.5321 26.8701 15.4509 26.816 15.4137C26.7489 15.3676 26.6695 15.3306 26.5997 15.3022C26.528 15.2729 26.456 15.2486 26.3991 15.2304C26.3666 15.2199 26.3429 15.2126 26.3256 15.2073C26.308 15.2019 26.297 15.1984 26.2896 15.1958L26.2565 15.1837L26.2502 15.1835C23.1267 14.1852 20.8024 14.8944 19.2144 16.1342C17.6354 17.3671 16.795 19.1159 16.607 20.1848L16.5627 20.4368L16.8184 20.4456L16.8261 20.4459L16.8261 20.446L16.8333 20.446C16.9232 20.4462 17.0102 20.4389 17.093 20.4277ZM17.093 20.4277C17.0927 20.4278 17.0924 20.4278 17.0921 20.4279L17.064 20.2072L17.0939 20.4276C17.0936 20.4277 17.0933 20.4277 17.093 20.4277ZM16.8376 20.0011L16.8414 20.0012L16.8355 20.172C16.8462 20.1167 16.8586 20.0595 16.8729 20.0006C16.8611 20.0009 16.8493 20.0011 16.8376 20.0011ZM16.8376 20.0011C16.8364 20.0011 16.8353 20.0011 16.8341 20.0011L16.8338 20.1809C16.8311 20.1952 16.8285 20.2093 16.8261 20.2233M16.8376 20.0011L16.8337 20.001L16.8261 20.2233M16.8261 20.2233L16.8337 20.2246L16.8337 20.2246L17.0451 20.2618C17.0482 20.2442 17.0515 20.2264 17.055 20.2084C16.9827 20.2179 16.9087 20.2237 16.8337 20.2236L16.8261 20.2233Z" fill="#FF5A00" stroke="#FF5A00" stroke-width="0.444887"/>
</g>
<defs>
<clipPath id="clip0_5866_12446">
<rect width="28" height="28" fill="white" transform="translate(0 0.211426)"/>
</clipPath>
</defs>
</svg>
