<svg width="40" height="40" viewBox="0 0 40 40" fill="none" xmlns="http://www.w3.org/2000/svg">
<g id="Burger lovers">
<path id="Vector" d="M12.7369 5.19915C12.5359 4.99166 12.2973 4.82707 12.0346 4.71477C11.772 4.60248 11.4905 4.54468 11.2062 4.54468C10.9219 4.54468 10.6403 4.60248 10.3777 4.71477C10.115 4.82707 9.87641 4.99166 9.67543 5.19915L9.25832 5.62955L8.8412 5.19915C8.43523 4.78024 7.88461 4.54489 7.31048 4.54489C6.73634 4.54489 6.18573 4.78024 5.77975 5.19915C5.37378 5.61806 5.14571 6.18622 5.14571 6.77865C5.14571 7.37108 5.37378 7.93924 5.77975 8.35815L6.19687 8.78856L8.47215 11.1363C8.90229 11.5802 9.61434 11.5802 10.0445 11.1363L12.3198 8.78856L12.7369 8.35815C12.938 8.15076 13.0975 7.90453 13.2063 7.63351C13.3151 7.3625 13.3711 7.07201 13.3711 6.77865C13.3711 6.48529 13.3151 6.1948 13.2063 5.92379C13.0975 5.65277 12.938 5.40653 12.7369 5.19915Z" fill="#FF5A00"/>
<path id="Vector_2" d="M32.7713 8.65291C32.6463 8.52394 32.498 8.42163 32.3347 8.35183C32.1715 8.28202 31.9965 8.24609 31.8198 8.24609C31.643 8.24609 31.4681 8.28202 31.3048 8.35183C31.1415 8.42163 30.9932 8.52394 30.8683 8.65291L30.609 8.92045L30.3497 8.65291C30.0974 8.39252 29.7551 8.24623 29.3982 8.24623C29.0413 8.24623 28.6991 8.39252 28.4467 8.65291C28.1944 8.91331 28.0526 9.26648 28.0526 9.63473C28.0526 10.003 28.1944 10.3562 28.4467 10.6166L28.706 10.8841L30.1203 12.3435C30.3877 12.6194 30.8303 12.6194 31.0977 12.3435L32.512 10.8841L32.7713 10.6166C32.8963 10.4876 32.9954 10.3346 33.0631 10.1661C33.1307 9.99765 33.1655 9.81709 33.1655 9.63473C33.1655 9.45238 33.1307 9.27181 33.0631 9.10335C32.9954 8.93489 32.8963 8.78183 32.7713 8.65291Z" fill="#FF5A00"/>
<g id="Artboard">
<g id="Asset-45">
<g id="Burger">
<path id="Path" d="M8.12459 27.76C8.12459 27.76 7.53092 28.9967 7.61367 30.1307C7.67206 30.9307 8.46629 32.5635 10.6249 32.9825C12.2628 33.3004 15.68 34.1112 20.2584 34.0951C25.001 34.0784 29.6877 33.0373 30.5029 32.3905C31.3181 31.7437 32.4873 30.3787 31.4117 27.61C31.4117 27.61 19.2428 30.8327 8.12459 27.76Z" fill="#FCA06F"/>
<path id="Path_2" d="M20.887 30.0901C16.9071 30.1767 12.9272 29.8243 8.98998 29.0368C8.40521 28.9107 7.95953 28.283 7.90889 27.514L7.79685 25.9045C7.75346 25.4683 7.88135 25.3188 8.02173 25.3516C9.91007 25.8139 20.6538 28.4387 30.8802 25.4101C31.109 25.342 31.6818 25.6773 31.6568 25.9817L31.5318 27.4946C31.4715 28.2145 31.065 28.8018 30.5218 28.954C27.0709 29.9144 24.1818 30.0346 20.887 30.0901Z" fill="#FF5A00"/>
<path id="Path_3" d="M33.4794 23.6319C33.3854 22.8866 31.9192 22.818 31.3135 22.9894C29.5896 23.483 31.6081 20.5428 30.8696 20.4379C29.2347 20.2258 29.4865 21.8001 27.8417 21.894C26.2217 21.986 22.7035 20.5905 21.1201 20.9738C20.7445 21.0663 20.3703 21.1588 19.9976 21.271C19.6231 21.1703 19.2474 21.0785 18.8703 20.9921C17.2823 20.6347 13.045 23.5339 11.4223 23.4685C9.77343 23.4014 10.6796 23.691 9.04837 23.9298C8.31163 24.0378 10.6712 21.9859 9.06745 23.0708C8.52106 23.4438 6.62433 23.4683 6.54251 24.2151C6.46975 24.892 6.66803 25.2876 7.19343 25.7092C7.78667 26.1946 8.46597 25.9493 9.13611 26.0959C9.80624 26.2425 10.2334 26.9082 10.595 27.4617C10.9567 28.0152 11.3627 28.6167 11.9152 28.9933C13.0643 29.7604 14.1365 29.0217 14.9977 28.1719C15.4065 27.7695 15.8324 27.2704 16.3803 27.087C17.0105 26.8815 17.5497 27.3155 18.0498 27.6692C18.1355 27.7294 18.2225 27.7859 18.3095 27.846C18.6947 28.1164 19.1157 28.2885 19.5499 28.353L19.6338 28.3666L19.7589 28.3799C19.8152 28.3795 19.8703 28.3915 19.9266 28.3947L19.9582 28.3944C19.9939 28.3941 20.0269 28.3938 20.0612 28.3936C20.0955 28.3933 20.1299 28.393 20.1642 28.3927L20.1958 28.3925C20.2535 28.392 20.3084 28.3915 20.3632 28.375L20.4881 28.3597L20.5718 28.3447C21.0022 28.2718 21.4175 28.0923 21.7955 27.8158C21.8829 27.7596 21.9676 27.7017 22.0522 27.6348C22.5465 27.2729 23.08 26.8301 23.7134 27.0254C24.2643 27.1998 24.6982 27.6883 25.1122 28.0875C25.9871 28.9231 27.0713 29.6443 28.2077 28.8585C28.7636 28.4728 29.142 27.8811 29.5054 27.3037C29.8688 26.7264 30.2824 26.0699 30.9404 25.9143C31.5985 25.7586 32.2927 25.9909 32.8779 25.4959C33.3474 25.0892 33.5841 24.3557 33.4794 23.6319Z" fill="#AB3601"/>
<path id="Path_4" d="M20.466 23.096L20.4659 23.0781C21.0132 22.816 21.3308 22.5164 21.3269 22.2051C21.319 21.2461 18.3269 20.519 14.6558 20.5812C10.9847 20.6434 8.019 21.471 8.03227 22.4245L8.05628 24.1868C8.12306 25.131 11.4772 25.5863 14.723 25.782C18.6974 26.0218 29.0779 25.888 29.0661 24.9344C29.0676 24.6231 21.023 23.3401 20.466 23.096Z" fill="#FF5A00"/>
<path id="Path_5" d="M24.6352 20.4408C20.9641 20.503 17.9984 21.3306 18.0116 22.2842C18.0142 22.6008 18.3449 22.8898 18.9155 23.1356C18.3518 23.4015 18.0315 23.7029 18.0354 24.0196C18.0433 24.9785 21.034 25.7038 24.7051 25.6416C28.3762 25.5795 31.3419 24.7519 31.3286 23.7983L31.3062 22.0629C31.2929 21.1057 28.3063 20.3786 24.6352 20.4408Z" fill="#FF5A00"/>
<path id="Path_6" d="M30.5558 21.5601L26.5627 27.841C26.5627 27.841 26.2137 28.4502 25.4282 27.8503C24.6427 27.2503 16.8933 23.0781 15.5164 23.1032C14.1396 23.1283 27.6736 22.559 30.5558 21.5601Z" fill="white"/>
<path id="Path_7" d="M19.1613 10.9158C11.3361 11.4414 8.70946 16.3555 8.01553 18.8465C8.01553 18.8465 7.55622 20.1325 7.70937 20.8827C7.70937 20.8827 7.78318 22.0165 8.80577 22.2622C9.82835 22.5079 11.8166 23.7675 19.9544 23.3414C28.0922 22.9153 31.5485 22.4703 31.9299 21.2032C32.3112 19.936 31.8469 18.8178 31.6543 18.1716C31.4616 17.5255 29.1741 10.7005 19.1613 10.9158Z" fill="#FCA06F"/>
</g>
</g>
<path id="Ellipse 4" d="M13.6673 15.0371C13.5039 14.8088 13.7417 14.3589 14.1983 14.0322C14.6549 13.7056 15.1575 13.6259 15.3208 13.8542C15.4841 14.0825 15.2464 14.5324 14.7898 14.859C14.3331 15.1857 13.8306 15.2654 13.6673 15.0371Z" fill="#AB3601"/>
<path id="Ellipse 5" d="M17.6863 17.8834C17.6807 17.6027 18.1313 17.3662 18.6926 17.3551C19.2539 17.344 19.7134 17.5625 19.719 17.8431C19.7245 18.1238 19.274 18.3603 18.7127 18.3714C18.1514 18.3825 17.6919 18.164 17.6863 17.8834Z" fill="#AB3601"/>
<path id="Ellipse 6" d="M12.3859 20.1352C12.455 19.8632 12.9522 19.7547 13.4963 19.893C14.0404 20.0312 14.4255 20.3639 14.3564 20.6359C14.2872 20.908 13.7901 21.0165 13.246 20.8782C12.7018 20.7399 12.3168 20.4073 12.3859 20.1352Z" fill="#AB3601"/>
<path id="Ellipse 7" d="M21.1254 13.0523C21.3063 12.8376 21.801 12.9568 22.2303 13.3186C22.6597 13.6803 22.8611 14.1476 22.6802 14.3623C22.4994 14.577 22.0047 14.4577 21.5753 14.096C21.146 13.7342 20.9446 13.267 21.1254 13.0523Z" fill="#AB3601"/>
<path id="Ellipse 9" d="M24.0936 20.9453C24.0529 20.6676 24.4703 20.3765 25.0258 20.2953C25.5814 20.2141 26.0646 20.3734 26.1052 20.6511C26.1459 20.9289 25.7285 21.2199 25.1729 21.3012C24.6174 21.3824 24.1342 21.2231 24.0936 20.9453Z" fill="#AB3601"/>
<path id="Ellipse 12" d="M27.453 15.7953C27.7106 15.9068 27.7386 16.4149 27.5155 16.9301C27.2925 17.4453 26.9028 17.7726 26.6452 17.661C26.3876 17.5495 26.3596 17.0414 26.5827 16.5262C26.8057 16.011 27.1954 15.6838 27.453 15.7953Z" fill="#AB3601"/>
</g>
</g>
</svg>
