<svg width="24" height="24" viewBox="0 0 24 24" fill="none" xmlns="http://www.w3.org/2000/svg">
<path fill-rule="evenodd" clip-rule="evenodd" d="M16.5 16.5H7.5V15H16.5V16.5Z" fill="#262626"/>
<path fill-rule="evenodd" clip-rule="evenodd" d="M21 11.9995C21 7.02893 16.9713 3 12.0005 3C7.02937 3 3 7.02928 3 11.9995C3 16.9707 7.02932 21 12.0005 21C16.9714 21 21 16.971 21 11.9995ZM22.5 11.9995C22.5 6.20054 17.7998 1.5 12.0005 1.5C6.20107 1.5 1.5 6.20072 1.5 11.9995C1.5 17.7991 6.2009 22.5 12.0005 22.5C17.8 22.5 22.5 17.7993 22.5 11.9995Z" fill="#262626"/>
<path d="M9.75 9C9.75 9.82843 9.07843 10.5 8.25 10.5C7.42157 10.5 6.75 9.82843 6.75 9C6.75 8.17157 7.42157 7.5 8.25 7.5C9.07843 7.5 9.75 8.17157 9.75 9Z" fill="#262626"/>
<path d="M17.25 9C17.25 9.82843 16.5784 10.5 15.75 10.5C14.9216 10.5 14.25 9.82843 14.25 9C14.25 8.17157 14.9216 7.5 15.75 7.5C16.5784 7.5 17.25 8.17157 17.25 9Z" fill="#262626"/>
</svg>
