<svg width="24" height="24" viewBox="0 0 24 24" fill="none" xmlns="http://www.w3.org/2000/svg">
<path d="M9.74997 2.25V6H8.24997V2.25H9.74997Z" fill="#262626"/>
<path d="M6.74997 6H5.24997L5.24997 3.75L6.74997 3.75V6Z" fill="#262626"/>
<path fill-rule="evenodd" clip-rule="evenodd" d="M1.5 7.49994H22.5V9.99994C22.5 15.1386 17.9839 19.3417 12.3115 19.4958L12 19.4999C6.20088 19.4999 1.5 15.2468 1.5 9.99994V7.49994ZM11.9903 17.9999L12.2807 17.9961C17.2759 17.8556 21 14.1901 21 9.99994V8.99994H3V9.99994C3 14.2779 6.87962 17.9952 11.9903 17.9999Z" fill="#262626"/>
<path d="M6.75 17.9999H17.25V19.4999C17.25 20.3284 16.5784 20.9999 15.75 20.9999H8.25C7.42157 20.9999 6.75 20.3284 6.75 19.4999V17.9999Z" fill="#262626"/>
</svg>
