<svg width="24" height="24" viewBox="0 0 24 24" fill="none" xmlns="http://www.w3.org/2000/svg">
<path fill-rule="evenodd" clip-rule="evenodd" d="M3.93938 17.962L3.94066 17.9961C3.98199 19.0924 4.34978 19.7751 4.86163 20.2068C5.40187 20.6624 6.2961 21 7.66673 21H16.3333C17.9026 21 18.7634 20.6471 19.2354 20.2297C19.683 19.834 20.015 19.1721 20.0593 17.9961L20.0606 17.962L20.8698 8.25H3.13018L3.93938 17.962ZM2.44173 18.0526C2.55 20.925 4.46609 22.5 7.66673 22.5H16.3333C19.8635 22.5 21.45 20.925 21.5583 18.0526L22.5 6.75H1.5L2.44173 18.0526Z" fill="#262626"/>
<path fill-rule="evenodd" clip-rule="evenodd" d="M7.5 6C7.5 3.51472 9.51472 1.5 12 1.5C14.4853 1.5 16.5 3.51472 16.5 6V11.25H15V6C15 4.34315 13.6569 3 12 3C10.3431 3 9 4.34315 9 6V11.25H7.5V6Z" fill="#262626"/>
</svg>
