<svg width="127" height="138" viewBox="0 0 127 138" fill="none" xmlns="http://www.w3.org/2000/svg">
<g clip-path="url(#clip0_9482_119218)">
<path fill-rule="evenodd" clip-rule="evenodd" d="M66.2776 0.015625C102.622 0.015625 132.085 29.4784 132.085 65.8229C132.085 102.167 102.622 131.629 66.2776 131.629C29.9337 131.629 0.470703 102.167 0.470703 65.8229C0.470703 55.1633 3.02282 44.827 7.84034 35.5432C12.9356 25.7242 25.026 21.8949 34.845 26.9902C44.5657 32.0345 48.4161 43.9348 43.5482 53.6997L43.398 53.9949C41.5216 57.6109 40.5307 61.6238 40.5307 65.8229C40.5307 80.042 52.0581 91.5693 66.2776 91.5693C80.4971 91.5693 92.0245 80.042 92.0245 65.8229C92.0245 51.6031 80.4972 40.0758 66.2776 40.0758C65.6425 40.0758 65.0141 40.0983 64.3927 40.1428L63.9279 40.1803C52.9101 41.1706 43.1755 33.0417 42.1852 22.0238C41.1949 11.0059 49.3238 1.27126 60.3417 0.280942C62.308 0.104205 64.2881 0.015625 66.2776 0.015625Z" fill="white"/>
<path d="M36.1573 58.9283L37.4436 59.4635C37.7272 59.5815 37.7272 59.9833 37.4436 60.1013L36.1573 60.6365C35.0641 61.0908 34.2015 62.0036 33.7692 63.1577L33.2837 64.458C33.1719 64.7574 32.7484 64.7574 32.6366 64.458L32.1511 63.1577C31.7208 62.0058 30.8562 61.093 29.763 60.6365L28.4767 60.1013C28.1931 59.9833 28.1931 59.5815 28.4767 59.4635L29.763 58.9283C30.8541 58.474 31.7187 57.5612 32.1511 56.4071L32.6366 55.1068C32.7484 54.8074 33.1719 54.8074 33.2837 55.1068L33.7692 56.4071C34.1995 57.559 35.0641 58.4718 36.1573 58.9283Z" fill="#FFA6CB"/>
<path d="M113.799 87.2305C113.799 87.2305 111.554 81.5816 105.576 83.8191L103.124 80.0696C103.124 80.0696 106.591 78.5189 112.451 84.1136C116.285 87.7735 113.799 87.2305 113.799 87.2305Z" fill="#FF3F8F"/>
<path d="M116.022 92.773C116.022 92.773 117.989 87.3482 109.458 81.6885C109.458 81.6885 112.454 84.1108 112.2 89.9172L116.022 92.773V92.773Z" fill="#FFB8D5"/>
<path d="M95.7356 19.9438C95.7356 19.9438 94.18 18.2979 91.0061 19.2468C89.9529 19.4491 87.6428 20.938 87.6428 20.938L87.1724 16.9031C87.1724 16.9031 88.5133 16.5593 90.1188 16.5623C91.3126 16.5645 93.3967 17.3489 94.4043 18.0437C95.5133 18.8092 95.736 19.9461 95.736 19.9461L95.7356 19.9438Z" fill="#FFB8D5"/>
<path d="M93.9181 21.9387L99.5707 22.9639C99.5707 22.9639 99.6985 18.2819 90.7521 16.6213C90.7521 16.6213 94.7174 18.4776 93.9181 21.9387Z" fill="#FF3F8F"/>
<path d="M25.8301 38.5112C25.8301 38.5112 24.2745 36.8653 21.1006 37.8142C20.0474 38.0165 17.7372 39.5054 17.7372 39.5054L17.2669 35.4704C17.2669 35.4704 18.6078 35.1267 20.2133 35.1297C21.4071 35.1319 23.4912 35.9162 24.4987 36.6111C25.6078 37.3766 25.8305 38.5134 25.8305 38.5134L25.8301 38.5112Z" fill="#FFB8D5"/>
<path d="M24.0126 40.5061L29.6652 41.5312C29.6652 41.5312 29.793 36.8493 20.8466 35.1887C20.8466 35.1887 24.8119 37.045 24.0126 40.5061Z" fill="#FF3F8F"/>
<path d="M60.9002 17.0959C60.9002 17.0959 64.0324 16.763 65.6588 12.4521C66.3231 11.1166 66.624 7.30591 66.624 7.30591L71.4837 10.1877C71.4837 10.1877 70.7334 11.9606 69.3764 13.734C68.3674 15.0527 65.7426 16.6967 64.1245 17.2254C62.3427 17.8067 60.8974 17.0945 60.8974 17.0945L60.9002 17.0959Z" fill="#FF3F8F"/>
<path d="M60.226 13.4036L54.326 18.7918C54.326 18.7918 59.3971 22.8807 68.7771 14.3849C68.7771 14.3849 63.3805 17.2059 60.226 13.4036Z" fill="#FFB8D5"/>
<path d="M18.4588 77.1149C18.4588 77.1149 16.0587 77.9085 15.5159 81.566C15.2219 82.7264 15.6337 85.7664 15.6337 85.7664L11.3323 84.3322C11.3323 84.3322 11.6194 82.8141 12.3822 81.1926C12.9495 79.9867 14.7286 78.2512 15.9079 77.5615C17.2066 76.8027 18.4612 77.1155 18.4612 77.1155L18.4588 77.1149Z" fill="#FFB8D5"/>
<path d="M19.6151 79.9481L23.3266 74.7191C23.3266 74.7191 18.6542 72.3741 12.7415 80.632C12.7415 80.632 16.4946 77.5021 19.6151 79.9481Z" fill="#FF3F8F"/>
<ellipse opacity="0.5" cx="67.224" cy="131.63" rx="38.3112" ry="6.11439" fill="#801434"/>
<rect x="41.1245" y="92.605" width="50.4292" height="39.0241" rx="2.38253" fill="#F55905"/>
<mask id="mask0_9482_119218" style="mask-type:alpha" maskUnits="userSpaceOnUse" x="41" y="92" width="51" height="40">
<rect x="41.1245" y="92.605" width="50.4292" height="39.0241" rx="2.38253" fill="#F8B825"/>
</mask>
<g mask="url(#mask0_9482_119218)">
<path fill-rule="evenodd" clip-rule="evenodd" d="M76.8565 108.274C84.9736 105.713 93.6297 110.217 96.1904 118.334C98.7511 126.451 94.2467 135.108 86.1296 137.668C78.0126 140.229 69.3565 135.725 66.7958 127.608C66.0447 125.227 65.8865 122.739 66.3083 120.326C66.7544 117.774 69.1849 116.067 71.7369 116.513C74.2633 116.954 75.9617 119.341 75.5625 121.865L75.5498 121.941C75.3855 122.881 75.4469 123.847 75.7428 124.785C76.7446 127.961 80.1313 129.723 83.3071 128.721C86.4829 127.719 88.2452 124.333 87.2434 121.157C86.2415 117.981 82.8548 116.219 79.679 117.221C79.5372 117.265 79.3984 117.315 79.2628 117.368L79.1616 117.41C76.7707 118.407 74.0238 117.277 73.0263 114.886C72.0289 112.495 73.1585 109.749 75.5495 108.751C75.9762 108.573 76.4122 108.414 76.8565 108.274Z" fill="#F8B825"/>
</g>
<rect x="38.21" y="92.7485" width="56.2584" height="16.6149" rx="2.38253" fill="#AB3601"/>
<rect x="38.21" y="85.7217" width="56.2584" height="16.3941" rx="2.38253" fill="#F55905"/>
<rect x="45.5928" y="89.9399" width="41.2846" height="7.9579" rx="3.97895" fill="#8B2A00"/>
<rect x="62.0725" y="54.7134" width="8.40284" height="20.2401" rx="4.20142" transform="rotate(-9.44451 62.0725 54.7134)" fill="#E59A7A"/>
<path d="M132.396 29.6145C132.742 30.1775 133.078 30.7569 133.402 31.3509C138.142 40.0047 138.875 48.7239 135.04 50.8236C134.76 50.9776 134.462 51.0862 134.15 51.1624L119.745 56.647L117.96 53.3864L110.82 40.3571L104.01 27.9233L103.795 27.5321L105.549 26.4822L117.873 19.4852C121.446 17.5297 127.72 22.0031 132.396 29.6145Z" fill="#F55905"/>
<path d="M118.001 37.0501C118.244 37.4525 118.481 37.8663 118.712 38.2867C121.41 43.2076 122.628 48.1964 122.289 51.8091C122.072 54.0987 121.232 55.8314 119.743 56.646C117.895 57.6606 115.381 57.0626 112.782 55.2726C111.087 54.1036 109.351 52.4239 107.74 50.3501C107.729 50.3387 107.717 50.3274 107.709 50.3128C106.684 48.988 105.708 47.5053 104.826 45.892C104.415 45.1406 104.037 44.3874 103.694 43.6389C100.94 37.6056 100.434 31.8069 102.327 28.9182C102.717 28.3261 103.206 27.8556 103.797 27.5311C104.311 27.2508 104.875 27.0939 105.48 27.0524C109.146 26.7899 114.241 30.7867 118.003 37.0485L118.001 37.0501Z" fill="#AB3601"/>
<path d="M54.5183 61.112L52.0553 48.9042C50.8064 42.715 54.4475 36.5868 60.4829 34.7253L66.5557 32.8522L54.5199 61.1103L54.5183 61.112Z" fill="#E59A7A"/>
<path d="M118.001 37.0496C118.244 37.452 118.481 37.8658 118.712 38.2862C121.41 43.2071 122.628 48.1959 122.288 51.8086L117.96 53.3865L112.78 55.2738L104.1 58.4363C103.289 58.9894 102.498 59.4937 101.725 59.9459C101.141 60.2867 100.57 60.6014 100.008 60.89C100.006 60.8916 100.005 60.8932 100.002 60.8933C89.2071 66.4459 82.6821 62.4274 82.6821 62.4274L81.2 63.164L76.5605 65.4703L74.7058 68.0711L71.5184 69.9276L65.6126 68.4764L62.6415 63.6215L62.3598 63.5397C61.1309 66.8893 67.0232 67.6813 64.7382 69.3581C63.084 70.5752 61.0731 70.5119 59.5069 70.1671C58.0057 69.8317 57.0253 68.3929 57.2354 66.8711C55.191 62.4245 52.808 59.2604 53.8055 55.4125C53.8792 55.1291 53.9528 54.849 54.0281 54.5738C54.0313 54.5608 54.0345 54.5478 54.0377 54.538C56.7034 44.6009 60.1051 37.6328 62.0572 34.1192C62.1428 33.9611 62.23 33.8078 62.3172 33.6545C62.3721 33.5599 62.4254 33.467 62.4755 33.3773C62.6031 33.1572 62.7226 32.955 62.8308 32.7707C62.8971 32.6615 62.9585 32.5571 63.0166 32.4625C63.036 32.4299 63.0554 32.3973 63.0748 32.3679C63.112 32.3076 63.1459 32.2505 63.1798 32.1967C63.1976 32.169 63.2137 32.1396 63.2315 32.1119C63.2945 32.0124 63.3689 31.895 63.4174 31.8199C63.3786 31.8787 63.4562 31.7612 63.4174 31.8199C65.1376 28.6936 69.6222 28.5107 72.0328 29.0708L84.727 32.6426L88.8942 33.7298C91.2555 34.3479 93.7688 33.9927 95.8686 32.7477L102.325 28.9193L104.01 27.9234L105.478 27.0535C109.144 26.791 114.239 30.7878 118.001 37.0496Z" fill="#FDC3A4"/>
<rect x="55.2139" y="50.1089" width="10.0226" height="26.5505" rx="5.01129" transform="rotate(-0.441059 55.2139 50.1089)" fill="#FDC3A4"/>
<path d="M62.8323 33.3737C58.9692 39.7099 56.1974 47.1686 54.5495 52.3209C53.2342 56.4329 53.2103 60.739 54.7276 64.7809C55.196 66.0285 55.7216 67.4886 56.2775 69.2538" stroke="#221F20" stroke-width="1.94806" stroke-miterlimit="10" stroke-linecap="round"/>
<mask id="mask1_9482_119218" style="mask-type:alpha" maskUnits="userSpaceOnUse" x="38" y="51" width="58" height="47">
<rect x="38.9446" y="51.4448" width="56.2581" height="46.4682" fill="#8B2A00"/>
</mask>
<g mask="url(#mask1_9482_119218)">
<ellipse cx="51.4421" cy="69.7008" rx="5.3559" ry="5.15248" fill="#9B0041"/>
<path d="M87.9962 58.4607C86.7344 57.2075 85.2362 56.2134 83.5872 55.5352C81.9382 54.8569 80.1708 54.5078 78.3859 54.5078C76.601 54.5078 74.8335 54.8569 73.1845 55.5352C71.5356 56.2134 70.0374 57.2075 68.7755 58.4607L66.1568 61.0603L63.538 58.4607C60.9892 55.9305 57.5323 54.5091 53.9277 54.5091C50.3231 54.5091 46.8662 55.9305 44.3174 58.4607C41.7686 60.9908 40.3367 64.4225 40.3367 68.0006C40.3367 71.5788 40.3367 75.0882 40.3367 75.0882L46.9361 80.1401L64.6375 97.7118C65.4784 98.5465 66.8352 98.5465 67.6761 97.7118L85.3774 80.1401L87.9962 77.5406C89.2586 76.288 91.295 76.895 91.9782 75.2581C91.9782 75.2581 91.9782 69.7725 91.9782 68.0006C91.9782 66.2288 91.6266 64.4743 90.9433 62.8374C90.2601 61.2005 89.2586 59.7133 87.9962 58.4607Z" fill="#D01663"/>
<ellipse cx="51.4421" cy="75.5026" rx="5.3559" ry="5.15248" fill="#9B0041"/>
<path d="M87.1062 64.8963C85.8434 63.6422 84.3444 62.6478 82.6951 61.9694C81.0457 61.291 79.2781 60.9419 77.4931 60.9419C75.7082 60.9419 73.9405 61.291 72.2911 61.9694C70.6418 62.6478 69.1428 63.6423 67.8799 64.8965C67.8799 64.8966 67.8798 64.8966 67.8797 64.8967L66.1568 66.6069L64.4338 64.8965C61.8829 62.3643 58.4248 60.9431 54.8205 60.9431C51.2163 60.9431 47.7581 62.3643 45.2073 64.8965C42.6562 67.4289 41.2217 70.8651 41.2217 74.4497C41.2217 78.0342 42.6562 81.4705 45.2073 84.0028L47.6349 86.4126L63.933 102.591C65.1638 103.813 67.1498 103.813 68.3806 102.591L84.6788 86.4126L87.1062 84.003C87.1063 84.003 87.1063 84.0029 87.1064 84.0028C88.3698 82.7492 89.3725 81.2604 90.0567 79.6212C90.7409 77.9819 91.0932 76.2246 91.0932 74.4497C91.0932 72.6748 90.7409 70.9175 90.0567 69.2782C89.3724 67.6389 88.3697 66.15 87.1062 64.8963Z" fill="#FF3F8F" stroke="#FF85B8" stroke-width="2"/>
<path d="M55.4733 72.1963L57.1833 72.9079C57.4669 73.0259 57.4669 73.4276 57.1833 73.5457L55.4733 74.2573C54.1545 74.8053 53.1138 75.9065 52.5922 77.2989L51.9397 79.0465C51.8279 79.3459 51.4044 79.3459 51.2926 79.0465L50.64 77.2989C50.121 75.9092 49.0778 74.8079 47.759 74.2573L46.0489 73.5457C45.7654 73.4276 45.7654 73.0259 46.0489 72.9079L47.759 72.1963C49.0753 71.6483 50.1185 70.547 50.64 69.1547L51.2926 67.4071C51.4044 67.1077 51.8279 67.1077 51.9397 67.4071L52.5922 69.1547C53.1113 70.5444 54.1545 71.6457 55.4733 72.1963Z" fill="#FFA6CB"/>
</g>
<path d="M107.748 50.3183C107.748 50.3183 107.742 50.3411 107.739 50.3508C106.413 55.1925 104.253 58.2303 101.725 59.9455C101.169 60.3236 100.596 60.6367 100.008 60.8896C100.007 60.8912 100.005 60.8929 100.002 60.8929C97.9949 61.7633 95.837 61.9463 93.7292 61.6444C88.2018 60.8572 85.9158 60.3526 85.9158 60.3526L75.5106 67.6758L72.9971 69.1746C72.3221 69.5776 71.6042 69.8441 70.8711 69.9821C69.8146 70.185 68.731 70.1179 67.7211 69.8065C66.726 69.5032 65.7998 68.9604 65.0354 68.2023C64.7316 67.901 64.4536 67.5638 64.2048 67.194C64.0461 66.9588 63.9133 66.7137 63.8016 66.4636C62.8494 64.3431 63.5122 61.7833 65.4862 60.4135L78.4085 50.8791L84.1666 46.8796L97.7983 48.8678L107.707 50.3136L107.748 50.3183Z" fill="#FDC3A4"/>
<path d="M107.748 50.3187C107.748 50.3187 107.742 50.3414 107.739 50.3512C106.413 55.1928 104.253 58.2307 101.725 59.9459C101.169 60.324 100.596 60.637 100.008 60.89C100.007 60.8916 100.005 60.8932 100.002 60.8933C97.9949 61.7637 95.837 61.9467 93.7292 61.6448C88.2018 60.8576 85.9158 60.353 85.9158 60.353L81.2003 63.164L73.0352 68.95C72.3602 69.353 71.6423 69.6195 70.9092 69.7575C69.8527 69.9604 68.7691 69.8933 67.7592 69.5819C66.7641 69.2786 65.8379 68.7358 65.0735 67.9777C64.7696 67.6764 64.4917 67.3392 64.2429 66.9694C64.0842 66.7342 63.9514 66.4891 63.8397 66.239C62.8875 64.1185 63.5503 61.5587 65.5243 60.1889L78.4085 50.8795L84.1666 46.88" stroke="#221F20" stroke-width="1.94806" stroke-miterlimit="10" stroke-linecap="round"/>
<path d="M65.7095 59.5219C67.9735 57.239 69.5171 52.4463 69.5069 49.9886" stroke="#221F20" stroke-width="1.94806" stroke-miterlimit="10" stroke-linecap="round"/>
<path d="M69.1504 53.5546C71.7371 53.5546 75.964 52.419 78.4875 50.7156" stroke="#221F20" stroke-width="1.94806" stroke-miterlimit="10" stroke-linecap="round"/>
<g style="mix-blend-mode:multiply" opacity="0.15">
<path d="M132.5 29.5098C132.846 30.0728 133.182 30.6521 133.506 31.2461C138.246 39.9 138.979 48.6191 135.144 50.7188C134.865 50.8729 134.566 50.9815 134.254 51.0576L119.849 56.5423C117.999 57.5553 115.485 56.9573 112.886 55.1674L104.206 58.3298C103.395 58.883 102.604 59.3873 101.831 59.8395C101.275 60.2175 100.702 60.5306 100.114 60.7835C100.113 60.7852 100.111 60.7868 100.108 60.7868C93.8977 62.6643 86.0308 60.2471 86.0308 60.2471L81.3062 63.0575L78.7926 64.5563C78.1176 64.9593 77.1312 66.8327 76.3981 66.9708L72.9765 69.0847L68.3661 69.7748L64.115 67.0273L75.7507 59.4548L83.5417 54.1454C83.5417 54.1454 91.6551 54.0304 97.9008 48.7618C99.2593 47.6175 100.529 46.2263 101.608 44.5398L103.795 43.5336L110.923 40.2507L118.104 36.9432L124.317 34.0821L132.499 29.5081L132.5 29.5098Z" fill="#8B2A00"/>
</g>
<g style="mix-blend-mode:multiply" opacity="0.15">
<path d="M83.3535 47.172L65.0966 60.3718C65.0966 60.3718 53.5373 56.7547 53.7362 54.6585C53.8834 53.1069 57.0848 46.7781 57.0848 46.7781C62.3385 53.5421 70.8416 46.7391 72.1234 45.9901C77.482 42.8586 83.3535 47.172 83.3535 47.172Z" fill="#8B2A00"/>
</g>
</g>
<defs>
<clipPath id="clip0_9482_119218">
<rect width="127" height="138" fill="white"/>
</clipPath>
</defs>
</svg>
