<svg width="25" height="24" viewBox="0 0 25 24" fill="none" xmlns="http://www.w3.org/2000/svg">
<path d="M16.8789 12C16.8789 12.9105 16.8297 13.7883 16.7436 14.625H9.13926C9.04902 13.7883 9.00391 12.9105 9.00391 12C9.00391 11.0895 9.05312 10.2117 9.13926 9.375H16.7436C16.8338 10.2117 16.8789 11.0895 16.8789 12ZM18.0602 9.375H23.1092C23.3266 10.2158 23.4414 11.0936 23.4414 12C23.4414 12.9064 23.3266 13.7842 23.1092 14.625H18.0602C18.1463 13.7801 18.1914 12.9023 18.1914 12C18.1914 11.0977 18.1463 10.2199 18.0602 9.375ZM22.6785 8.0625H17.892C17.4818 5.4416 16.6697 3.24727 15.6238 1.84453C18.8354 2.69355 21.448 5.02324 22.6744 8.0625H22.6785ZM16.5631 8.0625H9.31973C9.56992 6.56953 9.95547 5.24883 10.4271 4.17832C10.8578 3.21035 11.3377 2.50898 11.8012 2.06602C12.2605 1.63125 12.642 1.5 12.9414 1.5C13.2408 1.5 13.6223 1.63125 14.0816 2.06602C14.5451 2.50898 15.025 3.21035 15.4557 4.17832C15.9314 5.24473 16.3129 6.56543 16.5631 8.0625ZM7.99082 8.0625H3.2043C4.43477 5.02324 7.04336 2.69355 10.259 1.84453C9.21309 3.24727 8.40098 5.4416 7.99082 8.0625ZM2.77363 9.375H7.82266C7.73652 10.2199 7.69141 11.0977 7.69141 12C7.69141 12.9023 7.73652 13.7801 7.82266 14.625H2.77363C2.55625 13.7842 2.44141 12.9064 2.44141 12C2.44141 11.0936 2.55625 10.2158 2.77363 9.375ZM10.4271 19.8176C9.95137 18.7512 9.56992 17.4305 9.31973 15.9375H16.5631C16.3129 17.4305 15.9273 18.7512 15.4557 19.8176C15.025 20.7855 14.5451 21.4869 14.0816 21.9299C13.6223 22.3687 13.2408 22.5 12.9414 22.5C12.642 22.5 12.2605 22.3687 11.8012 21.934C11.3377 21.491 10.8578 20.7896 10.4271 19.8217V19.8176ZM7.99082 15.9375C8.40098 18.5584 9.21309 20.7527 10.259 22.1555C7.04336 21.3064 4.43477 18.9768 3.2043 15.9375H7.99082ZM22.6785 15.9375C21.448 18.9768 18.8395 21.3064 15.6279 22.1555C16.6738 20.7527 17.4818 18.5584 17.8961 15.9375H22.6785Z" fill="#262626"/>
</svg>
