<svg width="25" height="24" viewBox="0 0 25 24" fill="none" xmlns="http://www.w3.org/2000/svg">
<path d="M8.73633 16.5938C9.82324 16.5938 10.7051 17.4756 10.7051 18.5625V19.2188L13.6787 16.9875C14.0191 16.7332 14.4334 16.5938 14.86 16.5938H20.5488C20.9098 16.5938 21.2051 16.2984 21.2051 15.9375V4.125C21.2051 3.76406 20.9098 3.46875 20.5488 3.46875H4.79883C4.43789 3.46875 4.14258 3.76406 4.14258 4.125V15.9375C4.14258 16.2984 4.43789 16.5938 4.79883 16.5938H8.73633ZM10.7051 21.6797L10.6969 21.6879L10.4877 21.8438L9.78633 22.3687C9.58945 22.5164 9.32285 22.541 9.09727 22.4303C8.87168 22.3195 8.73633 22.0939 8.73633 21.8438V20.9701V20.7076V20.6953V20.5312V18.5625H6.76758H4.79883C3.35098 18.5625 2.17383 17.3854 2.17383 15.9375V4.125C2.17383 2.67715 3.35098 1.5 4.79883 1.5H20.5488C21.9967 1.5 23.1738 2.67715 23.1738 4.125V15.9375C23.1738 17.3854 21.9967 18.5625 20.5488 18.5625H14.86L10.7051 21.6797Z" fill="#262626"/>
</svg>
