<svg width="25" height="24" viewBox="0 0 25 24" fill="none" xmlns="http://www.w3.org/2000/svg">
<path d="M11.4414 3.75C11.4414 2.50781 10.4336 1.5 9.19141 1.5H4.69141C3.44922 1.5 2.44141 2.50781 2.44141 3.75V8.25C2.44141 9.49219 3.44922 10.5 4.69141 10.5H9.19141C10.4336 10.5 11.4414 9.49219 11.4414 8.25V3.75ZM11.4414 15.75C11.4414 14.5078 10.4336 13.5 9.19141 13.5H4.69141C3.44922 13.5 2.44141 14.5078 2.44141 15.75V20.25C2.44141 21.4922 3.44922 22.5 4.69141 22.5H9.19141C10.4336 22.5 11.4414 21.4922 11.4414 20.25V15.75ZM14.4414 3.75V8.25C14.4414 9.49219 15.4492 10.5 16.6914 10.5H21.1914C22.4336 10.5 23.4414 9.49219 23.4414 8.25V3.75C23.4414 2.50781 22.4336 1.5 21.1914 1.5H16.6914C15.4492 1.5 14.4414 2.50781 14.4414 3.75ZM23.4414 15.75C23.4414 14.5078 22.4336 13.5 21.1914 13.5H16.6914C15.4492 13.5 14.4414 14.5078 14.4414 15.75V20.25C14.4414 21.4922 15.4492 22.5 16.6914 22.5H21.1914C22.4336 22.5 23.4414 21.4922 23.4414 20.25V15.75Z" fill="#262626"/>
</svg>
