<svg width="25" height="24" viewBox="0 0 25 24" fill="none" xmlns="http://www.w3.org/2000/svg">
<path d="M9.17188 4H15.0781C15.2586 4 15.4062 4.15 15.4062 4.33333V6H8.84375V4.33333C8.84375 4.15 8.99141 4 9.17188 4ZM6.875 4.33333V6H4.25C2.80215 6 1.625 7.19583 1.625 8.66667V12.6667H9.5H14.75H22.625V8.66667C22.625 7.19583 21.4479 6 20 6H17.375V4.33333C17.375 3.04583 16.3455 2 15.0781 2H9.17188C7.90449 2 6.875 3.04583 6.875 4.33333ZM22.625 14H14.75V15.3333C14.75 16.0708 14.1635 16.6667 13.4375 16.6667H10.8125C10.0865 16.6667 9.5 16.0708 9.5 15.3333V14H1.625V19.3333C1.625 20.8042 2.80215 22 4.25 22H20C21.4479 22 22.625 20.8042 22.625 19.3333V14Z" fill="#262626"/>
</svg>
