<svg width="25" height="24" viewBox="0 0 25 24" fill="none" xmlns="http://www.w3.org/2000/svg">
<path d="M8.55684 4.10446L8.13027 5.39286H5.06641C3.61855 5.39286 2.44141 6.57801 2.44141 8.03571V18.6071C2.44141 20.0648 3.61855 21.25 5.06641 21.25H20.8164C22.2643 21.25 23.4414 20.0648 23.4414 18.6071V8.03571C23.4414 6.57801 22.2643 5.39286 20.8164 5.39286H17.7525L17.326 4.10446C17.0594 3.29509 16.3088 2.75 15.4598 2.75H10.423C9.57402 2.75 8.82344 3.29509 8.55684 4.10446ZM12.9414 9.35714C13.9857 9.35714 14.9872 9.77481 15.7256 10.5183C16.4641 11.2617 16.8789 12.27 16.8789 13.3214C16.8789 14.3728 16.4641 15.3812 15.7256 16.1246C14.9872 16.868 13.9857 17.2857 12.9414 17.2857C11.8971 17.2857 10.8956 16.868 10.1572 16.1246C9.41875 15.3812 9.00391 14.3728 9.00391 13.3214C9.00391 12.27 9.41875 11.2617 10.1572 10.5183C10.8956 9.77481 11.8971 9.35714 12.9414 9.35714Z" fill="#262626"/>
</svg>
