<svg width="25" height="24" viewBox="0 0 25 24" fill="none" xmlns="http://www.w3.org/2000/svg">
<path d="M22.4416 3.29064C22.8528 2.87924 22.8528 2.214 22.4416 1.80697C22.0305 1.39995 21.3656 1.39557 20.9588 1.80697L15.0538 7.71537V3.94713C15.0538 3.36504 14.5858 2.89674 14.004 2.89674C13.4223 2.89674 12.9542 3.36504 12.9542 3.94713V10.2494C12.9542 10.8315 13.4223 11.2998 14.004 11.2998H20.2983C20.8801 11.2998 21.3481 10.8315 21.3481 10.2494C21.3481 9.66734 20.8801 9.19904 20.2983 9.19904H16.5322L22.4416 3.29064ZM2.05837 20.7095C1.64721 21.1209 1.64721 21.7861 2.05837 22.1931C2.46954 22.6002 3.1344 22.6045 3.54119 22.1931L9.44621 16.2847V20.053C9.44621 20.6351 9.91424 21.1034 10.496 21.1034C11.0777 21.1034 11.5458 20.6351 11.5458 20.053V13.7507C11.5458 13.1686 11.0777 12.7003 10.496 12.7003H4.20168C3.61992 12.7003 3.1519 13.1686 3.1519 13.7507C3.1519 14.3328 3.61992 14.8011 4.20168 14.8011H7.96777L2.05837 20.7095Z" fill="#262626"/>
</svg>
