<svg width="25" height="24" viewBox="0 0 25 24" fill="none" xmlns="http://www.w3.org/2000/svg">
<path d="M4.25 2.75C2.80215 2.75 1.625 3.93516 1.625 5.39286V18.6071C1.625 20.0648 2.80215 21.25 4.25 21.25H20C21.4479 21.25 22.625 20.0648 22.625 18.6071V9.35714C22.625 7.89944 21.4479 6.71429 20 6.71429H4.90625C4.54531 6.71429 4.25 6.41696 4.25 6.05357C4.25 5.69018 4.54531 5.39286 4.90625 5.39286H20C20.726 5.39286 21.3125 4.80234 21.3125 4.07143C21.3125 3.34051 20.726 2.75 20 2.75H4.25ZM18.6875 12.6607C19.0356 12.6607 19.3694 12.7999 19.6156 13.0478C19.8617 13.2956 20 13.6317 20 13.9821C20 14.3326 19.8617 14.6687 19.6156 14.9165C19.3694 15.1643 19.0356 15.3036 18.6875 15.3036C18.3394 15.3036 18.0056 15.1643 17.7594 14.9165C17.5133 14.6687 17.375 14.3326 17.375 13.9821C17.375 13.6317 17.5133 13.2956 17.7594 13.0478C18.0056 12.7999 18.3394 12.6607 18.6875 12.6607Z" fill="#262626"/>
</svg>
