<svg width="24" height="24" viewBox="0 0 24 24" fill="none" xmlns="http://www.w3.org/2000/svg">
<path fill-rule="evenodd" clip-rule="evenodd" d="M20.5814 21.5118L3.11914 1.5L1.98893 2.48622L3.08891 3.7468H1.5V20.2468H17.4867L19.4512 22.4981L20.5814 21.5118ZM11.0479 12.8678L9.69322 15.0874L8.66429 13.8405C8.0483 13.094 6.89709 13.1176 6.31222 13.8887L3 18.2557V5.2468H4.3978L5.86456 6.92771C5.06214 7.27155 4.5 8.06853 4.5 8.9968C4.5 10.2394 5.50736 11.2468 6.75 11.2468C7.5694 11.2468 8.28649 10.8088 8.67992 10.1541L11.0479 12.8678ZM21 18.7468H20.1591L21.4655 20.2439L21.4621 20.2468H22.5V3.7468H7.07021L8.3791 5.2468H21V18.7468Z" fill="#262626"/>
</svg>
