<svg width="24" height="24" viewBox="0 0 24 24" fill="none" xmlns="http://www.w3.org/2000/svg">
<path d="M8.475 1.49988C9.59338 1.49988 10.5 2.4065 10.5 3.52488V8.47488C10.5 9.59325 9.59338 10.4999 8.475 10.4999H3.525C2.40662 10.4999 1.5 9.59325 1.5 8.47488V3.52488C1.5 2.4065 2.40662 1.49988 3.525 1.49988H8.475Z" fill="#262626"/>
<path d="M20.475 1.49988C21.5934 1.49988 22.5 2.4065 22.5 3.52488V8.47488C22.5 9.59325 21.5934 10.4999 20.475 10.4999H15.525C14.4066 10.4999 13.5 9.59325 13.5 8.47488V3.52488C13.5 2.4065 14.4066 1.49988 15.525 1.49988H20.475Z" fill="#262626"/>
<path d="M8.475 13.4999C9.59338 13.4999 10.5 14.4065 10.5 15.5249V20.4749C10.5 21.5933 9.59338 22.4999 8.475 22.4999H3.525C2.40662 22.4999 1.5 21.5933 1.5 20.4749V15.5249C1.5 14.4065 2.40662 13.4999 3.525 13.4999H8.475Z" fill="#262626"/>
<path d="M20.475 13.4999C21.5934 13.4999 22.5 14.4065 22.5 15.5249V20.4749C22.5 21.5933 21.5934 22.4999 20.475 22.4999H15.525C14.4066 22.4999 13.5 21.5933 13.5 20.4749V15.5249C13.5 14.4065 14.4066 13.4999 15.525 13.4999H20.475Z" fill="#262626"/>
</svg>
