<svg width="24" height="24" viewBox="0 0 24 24" fill="none" xmlns="http://www.w3.org/2000/svg">
<path fill-rule="evenodd" clip-rule="evenodd" d="M22.442 1.5H1.5V22.5H22.442V1.5ZM22.4413 3.25H3.82617V20.75H22.4413V3.25Z" fill="#0071CE"/>
<path d="M19.7077 20.1666L18.2534 18.5333L16.7409 20.1666H13.7741H7.37517V12.6416H4.35021L8.07324 4.18333H11.6799L12.9597 7.09999V4.18333H17.439L18.1952 6.39999L18.9514 4.18333H22.442V2.9C22.442 2.14166 21.7437 1.5 20.9875 1.5H2.89579C2.13955 1.5 1.5 2.14166 1.5 2.9V21.1C1.5 21.8583 2.13955 22.5 2.89579 22.5H21.0456C21.8019 22.5 22.4418 21.8583 22.4418 21.1V20.1666H19.7077Z" fill="#0071CE"/>
<path d="M20.1145 19.2915H22.4414L19.3583 15.9665L22.4414 12.7582H20.1727L18.1948 14.8582L16.3333 12.7582H13.9482L17.0314 16.0248L13.9482 19.2915H16.217L18.1948 17.1915L20.1145 19.2915Z" fill="#0071CE"/>
<path d="M10.1686 17.7748V16.7832H13.8334V15.2665H10.1686V14.2748H13.9498V12.7582H8.36523V19.2915H13.9498V17.7748H10.1686Z" fill="#0071CE"/>
<path d="M20.6962 11.7666H22.4414V5.17493L19.7073 5.23326L18.253 9.31658L16.7405 5.23326H13.9482V11.7666H15.7516V7.15826L17.4386 11.7666H19.0092L20.6962 7.15826V11.7666Z" fill="#0071CE"/>
<path d="M11.0402 5.23328H8.7133L5.80469 11.8249H7.78254L8.30609 10.4833H11.3311L11.9128 11.8249H13.9488L11.0402 5.23328ZM8.94599 8.9666L9.81857 6.80827L10.6912 8.9666H8.94599Z" fill="#0071CE"/>
<path d="M20.8125 15.7916L22.4413 17.5999L22.4995 13.9833L20.8125 15.7916Z" fill="#0071CE"/>
</svg>
