<svg width="25" height="24" viewBox="0 0 25 24" fill="none" xmlns="http://www.w3.org/2000/svg">
<path d="M12.1284 1.5C12.5057 1.5 12.8503 1.71328 13.0143 2.05371L15.828 7.84922L22.1116 8.77617C22.4807 8.82949 22.7883 9.08789 22.9032 9.44473C23.018 9.80156 22.9237 10.1871 22.6612 10.4496L18.1044 14.9695L19.179 21.3516C19.2405 21.7207 19.0887 22.0939 18.7852 22.3154C18.4817 22.5369 18.0756 22.5615 17.7475 22.3852L12.1284 19.3828L6.51334 22.3811C6.18111 22.5574 5.77916 22.5328 5.47564 22.3113C5.17213 22.0898 5.01627 21.7166 5.07779 21.3475L6.1524 14.9654L1.59556 10.4496C1.32896 10.1871 1.23873 9.79746 1.35357 9.44473C1.46842 9.09199 1.77603 8.83359 2.14517 8.77617L8.42877 7.84922L11.2424 2.05371C11.4106 1.71328 11.751 1.5 12.1284 1.5ZM12.1284 4.74023L9.97506 9.17812C9.8315 9.46934 9.5567 9.67441 9.23267 9.72363L4.38052 10.4373L7.90377 13.9277C8.12935 14.1533 8.23599 14.4732 8.18267 14.7891L7.35006 19.6986L11.6649 17.3936C11.9561 17.2377 12.3047 17.2377 12.5919 17.3936L16.9067 19.6986L16.0782 14.7932C16.0249 14.4773 16.1274 14.1574 16.3571 13.9318L19.8803 10.4414L15.0282 9.72363C14.7083 9.67441 14.4294 9.47344 14.2858 9.17812L12.1284 4.74023Z" fill="#262626"/>
</svg>
