<svg width="25" height="24" viewBox="0 0 25 24" fill="none" xmlns="http://www.w3.org/2000/svg">
<path d="M11.4306 22.1531C11.6415 22.3734 11.9368 22.5 12.2462 22.5C12.5556 22.5 12.8462 22.3734 13.0618 22.1531L20.9368 13.9031C21.3681 13.4531 21.3493 12.7406 20.8993 12.3141C20.4493 11.8875 19.7368 11.9016 19.3102 12.3516L13.3712 18.5672V2.625C13.3712 2.00156 12.8696 1.5 12.2462 1.5C11.6227 1.5 11.1212 2.00156 11.1212 2.625V18.5672L5.18681 12.3469C4.75556 11.8969 4.04775 11.8828 3.59775 12.3094C3.14775 12.7359 3.13368 13.4484 3.56025 13.8984L11.4352 22.1484L11.4306 22.1531Z" fill="#262626"/>
</svg>
