<svg width="24" height="24" viewBox="0 0 24 24" fill="none" xmlns="http://www.w3.org/2000/svg">
<path fill-rule="evenodd" clip-rule="evenodd" d="M13.8316 9.14385L14.6745 7.65785C15.8984 5.37069 15.2649 2.877 12.7583 1.70101L12.3299 1.5L6.84522 9.46902C6.51196 9.95321 5.95551 10.2437 5.36052 10.2437H1.5V22.5H17.6691C19.306 22.5 22.3411 18.9601 22.4908 15.5347C22.5836 13.3963 21.9679 11.9263 20.8134 11.0643C20.0255 10.4761 19.1341 10.2555 18.2747 10.2441L14.4917 10.2437C13.7107 10.2585 13.4682 9.86183 13.8316 9.14385ZM18.2639 11.7441L14.5037 11.7437C13.9763 11.7512 12.9908 11.6433 12.448 10.7433C11.9127 9.85569 12.2583 8.93064 12.4932 8.46651L12.5093 8.43473L13.36 6.93501C13.8071 6.09159 13.865 5.31159 13.6793 4.69602C13.5492 4.26497 13.2758 3.83318 12.798 3.46565L8.08086 10.3194C7.46388 11.2158 6.44238 11.7437 5.36052 11.7437H3V21H17.6585C17.655 21 17.6531 20.9998 17.6531 20.9994C17.6524 20.9952 17.833 20.9609 18.1956 20.6907C18.5746 20.4082 19.0133 19.9692 19.4364 19.4035C20.2964 18.2536 20.9341 16.7962 20.9922 15.4697C21.0714 13.6466 20.5472 12.7375 19.916 12.2663C19.4365 11.9083 18.8754 11.7537 18.2639 11.7441Z" fill="#262626"/>
</svg>
