<svg width="172" height="140" viewBox="0 0 172 140" fill="none" xmlns="http://www.w3.org/2000/svg">
<circle cx="80.5931" cy="70" r="70" fill="#F5F5F5"/>
<path d="M108.318 65.8755L105.088 69.6972" stroke="#D1D1D1" stroke-width="4.31682" stroke-linecap="round"/>
<path d="M99.5881 64.5685L99.5881 67.4805" stroke="#D1D1D1" stroke-width="4.31682" stroke-linecap="round"/>
<path d="M110.86 75.3804L107.516 75.3804" stroke="#D1D1D1" stroke-width="4.31682" stroke-linecap="round"/>
<ellipse cx="80.9539" cy="120.828" rx="26.6337" ry="3.57147" fill="#D1D1D1"/>
<path d="M64.4686 76.1429L65.0626 68.8197C65.2091 67.0082 66.0031 65.3094 67.3 64.0338L72.7251 58.6961L86.1712 58.7376L90.0481 61.534C92.2478 63.1201 93.7803 65.4656 94.3506 68.1157L95.8633 75.1521H86.6425L86.4781 66.403L73.1726 66.3318L73.1191 75.5259L64.4705 76.1449L64.4686 76.1429Z" fill="#FF5A00"/>
<path d="M72.7252 58.6961L73.1726 66.3299L77.6217 66.3734L72.7252 58.6961Z" fill="#C44100"/>
<path d="M86.1713 58.7376L86.4782 66.401H82.1282L86.1713 58.7376Z" fill="#C44100"/>
<path d="M60.7106 119.622H87.2464C90.1055 119.622 92.4756 117.409 92.6676 114.559L95.0852 78.5756C95.2951 75.441 92.8042 72.7831 89.658 72.785L63.7558 72.8107C60.9343 72.8127 58.586 74.9723 58.3484 77.7786L55.2973 113.736C55.028 116.902 57.5287 119.622 60.7106 119.622Z" fill="#C44100"/>
<path d="M101.094 119.608L75.4634 119.545C72.8993 119.539 70.7708 117.569 70.5669 115.016L67.6246 78.0555C67.3969 75.2057 69.6422 72.7633 72.5053 72.7474L98.3343 72.5952C100.924 72.5793 103.084 74.5708 103.274 77.1517L106.019 114.328C106.228 117.183 103.963 119.616 101.094 119.608Z" fill="#FF5A00"/>
<path d="M85.0313 102.484C89.7576 103.057 92.9546 99.7326 93.0895 97.6354L79.1644 95.9461C79.0487 97.7495 80.305 101.911 85.0313 102.484Z" fill="white"/>
<path d="M93.0895 97.6354L94.4005 97.7196C94.4452 97.0243 93.9393 96.4151 93.2477 96.3312L93.0895 97.6354ZM85.0313 102.484L84.8731 103.788L85.0313 102.484ZM79.1644 95.9461L79.3227 94.6419C78.9639 94.5984 78.6031 94.7045 78.3252 94.9354C78.0472 95.1662 77.8765 95.5013 77.8534 95.8619L79.1644 95.9461ZM91.7784 97.5511C91.7449 98.072 91.2323 99.1107 90.0102 99.9982C88.8519 100.839 87.1997 101.424 85.1895 101.18L84.8731 103.788C87.5892 104.118 89.8986 103.327 91.5542 102.124C93.1459 100.968 94.2992 99.2959 94.4005 97.7196L91.7784 97.5511ZM85.1895 101.18C83.2386 100.943 82.0715 99.9935 81.3757 98.9483C80.6439 97.8492 80.4362 96.6432 80.4755 96.0302L77.8534 95.8619C77.777 97.0524 78.1394 98.8287 79.1885 100.404C80.2735 102.034 82.0977 103.452 84.8731 103.788L85.1895 101.18ZM79.0062 97.2503L92.9312 98.9396L93.2477 96.3312L79.3227 94.6419L79.0062 97.2503Z" fill="white"/>
<path d="M88.6645 101.165C86.0519 96.8737 82.6401 96.9046 80.2571 98.7073C79.9347 98.9511 79.9128 99.4174 80.1921 99.7095C82.4722 102.093 84.8446 102.956 88.2276 102.196C88.69 102.092 88.911 101.57 88.6645 101.165Z" fill="#FF5A00"/>
<path d="M82.6601 88.362L83.1448 90.668" stroke="white" stroke-width="2.68241" stroke-linecap="round"/>
<path d="M90.9849 88.2278L91.4467 90.5386" stroke="white" stroke-width="2.68241" stroke-linecap="round"/>
<path d="M19.5354 82.202C13.0675 79.2768 10.1955 71.6621 13.1207 65.1942C16.0459 58.7262 23.6606 55.8543 30.1285 58.7795L45.6423 65.7957C48.2675 66.983 49.4332 70.0737 48.2459 72.6989L41.9524 86.6146C40.7651 89.2399 37.6744 90.4055 35.0492 89.2182L19.5354 82.202Z" fill="#FF5A00"/>
<path d="M19.858 82.3478L30.4511 58.9253L43.8556 64.9876L33.2625 88.4101L19.858 82.3478Z" fill="#D1D1D1"/>
<rect x="1.20148" y="70.7108" width="19.8761" height="10.7298" rx="2.40782" transform="rotate(-65.6646 1.20148 70.7108)" fill="#BBBBBB"/>
<rect x="3.11438" y="69.6583" width="5.95901" height="8.16368" rx="2.00652" transform="rotate(-65.6646 3.11438 69.6583)" fill="#D1D1D1"/>
<path opacity="0.4" d="M30.4679 78.9639L20.6125 73.8406C19.5162 73.2706 18.17 73.6997 17.6058 74.799C17.0411 75.8991 17.4735 77.2533 18.5714 77.8225L28.4324 82.9349C29.5385 83.5083 30.8952 83.0624 31.4455 81.9444C31.9833 80.8519 31.5483 79.5255 30.4679 78.9639Z" fill="#E9F3FE"/>
<path d="M49.8081 29.1311L50.858 28.4892L65.3109 52.1283L64.261 52.7702L49.8081 29.1311Z" fill="#A6A6A6"/>
<path d="M49.7397 27.8396L51.2154 30.2531C52.4613 29.4701 52.2469 28.125 51.4377 26.8015L49.7397 27.8396Z" fill="#BBBBBB"/>
<path d="M48.0426 28.877C48.8574 30.2097 49.9132 31.049 51.1899 30.2685L51.2156 30.2527L49.74 27.8392L48.0432 28.8766L48.0426 28.877Z" fill="#BBBBBB"/>
<path d="M39.5234 20.6021L38.5012 18.9301C37.688 17.5999 38.1064 15.865 39.4365 15.0517L43.0525 12.8409C44.3827 12.0277 46.1176 12.4461 46.9309 13.7762L47.9531 15.4482L39.5234 20.6021Z" fill="#FF5A00"/>
<path d="M35.8652 19.2322L40.7717 27.2573C42.2916 29.7431 45.5366 30.5257 48.0225 29.0059L50.0247 27.7817C51.3548 26.9685 51.7732 25.2335 50.96 23.9034L48.8046 20.378C46.5781 16.7364 41.823 15.5897 38.1813 17.8161L35.8652 19.2322Z" fill="#C44100"/>
<path d="M36.4464 18.8768L34.2652 20.2104C35.5153 20.1234 36.7721 20.7159 37.4702 21.8577L38.0516 21.5022L36.4464 18.8768Z" fill="#C44100"/>
<path d="M48.4016 11.5674L53.308 19.5924C54.8279 22.0783 54.0453 25.3233 51.5594 26.8432L49.5572 28.0673C48.2271 28.8806 46.4922 28.4622 45.6789 27.132L43.5235 23.6067C41.2971 19.9651 42.4438 15.2099 46.0854 12.9834L48.4016 11.5674Z" fill="#C44100"/>
<path d="M47.8202 11.923L50.0038 10.5879C49.3564 11.661 49.311 13.0497 50.0091 14.1915L49.4277 14.547L47.8225 11.9215L47.8202 11.923Z" fill="#C44100"/>
<path d="M63.5461 49.429C53.7014 36.3419 42.0745 30.1626 41.9581 30.1016L42.5159 29.0364C42.6346 29.0984 54.5013 35.4047 64.507 48.7062L63.5461 49.429Z" fill="#A6A6A6"/>
<path d="M44.4796 31.3778L46.9629 32.5945C46.3145 33.8787 44.9861 33.7916 43.6243 33.1245L44.4802 31.3775L44.4796 31.3778Z" fill="#BBBBBB"/>
<path d="M45.3357 29.6323C46.7064 30.3039 47.6194 31.2554 46.9761 32.568L46.9631 32.5944L44.4797 31.3778L45.3348 29.6321L45.3357 29.6323Z" fill="#BBBBBB"/>
<path d="M40.6837 37.1879C40.6837 37.1879 55.9471 40.9671 63.2641 50.5247L66.1939 48.7489C66.1939 48.7489 55.4065 31.1012 40.6837 37.1879Z" fill="#A6A6A6"/>
<path d="M32.4299 31.0923L30.7147 30.2379C29.3502 29.5582 28.7959 27.9035 29.4757 26.539L31.3235 22.8295C32.0033 21.465 33.658 20.9107 35.0225 21.5905L36.7376 22.4449L32.4299 31.0923Z" fill="#C44100"/>
<path d="M28.6875 31.8572L36.9199 35.9581C39.47 37.2285 42.5649 36.1917 43.8353 33.6416L44.8584 31.5877C45.5382 30.2232 44.9839 28.5685 43.6194 27.8888L40.0029 26.0872C36.2673 24.2263 31.732 25.7455 29.8711 29.4812L28.6875 31.8572Z" fill="#FF5A00"/>
<path d="M28.9847 31.2609L27.87 33.4985C28.8606 32.7771 30.2095 32.6154 31.3808 33.1989L31.6779 32.6025L28.9847 31.2609Z" fill="#FF5A00"/>
<path d="M35.0939 18.9968L43.3263 23.0978C45.8764 24.3681 46.9131 27.463 45.6428 30.0131L44.6196 32.0671C43.9399 33.4316 42.2852 33.9859 40.9207 33.3061L37.3043 31.5046C33.5686 29.6437 32.0494 25.1085 33.9103 21.3728L35.0939 18.9968Z" fill="#FF5A00"/>
<path d="M34.7967 19.593L35.9126 17.3531C35.9335 18.5783 36.617 19.7524 37.7883 20.3359L37.4912 20.9323L34.7979 19.5907L34.7967 19.593Z" fill="#FF5A00"/>
<path d="M62.6842 50.4437C55.523 35.716 55.3226 22.5506 55.3214 22.4191L54.119 22.4302C54.1201 22.564 54.3243 36.0008 61.6029 50.9696L62.6842 50.4437Z" fill="#A6A6A6"/>
<path d="M55.3082 25.2451L55.2591 28.01C56.6978 28.0183 57.2257 26.7961 57.2527 25.28L55.3076 25.2455L55.3082 25.2451Z" fill="#BBBBBB"/>
<path d="M53.3644 25.2113C53.3374 26.7374 53.7682 27.9837 55.2297 28.0095L55.2592 28.0099L55.3083 25.245L53.3646 25.2104L53.3644 25.2113Z" fill="#BBBBBB"/>
<path d="M61.866 24.5989C61.866 24.5989 58.2725 39.9071 63.4444 50.7763L60.5283 52.5746C60.5283 52.5746 49.7375 34.929 61.866 24.5989Z" fill="#A6A6A6"/>
<path d="M60.5481 14.392L60.5694 12.4759C60.5864 10.9516 59.3662 9.704 57.8419 9.68706L53.6979 9.641C52.1736 9.62406 50.926 10.8442 50.909 12.3686L50.8877 14.2846L60.5481 14.392Z" fill="#C44100"/>
<path d="M62.9345 11.4096L62.8323 20.6063C62.8007 23.4551 60.4672 25.7373 57.6183 25.7057L55.3238 25.6802C53.7995 25.6632 52.5793 24.4156 52.5963 22.8913L52.6412 18.8513C52.6876 14.678 56.107 11.3337 60.2803 11.3801L62.9345 11.4096Z" fill="#FF5A00"/>
<path d="M62.268 11.4022L64.7677 11.43C63.6741 11.9828 62.9153 13.1098 62.9008 14.4183L62.2346 14.4109L62.268 11.4022Z" fill="#FF5A00"/>
<path d="M48.5681 11.2499L48.4658 20.4466C48.4342 23.2954 50.7164 25.6289 53.5652 25.6606L55.8597 25.6861C57.384 25.703 58.6316 24.4829 58.6486 22.9585L58.6935 18.9185C58.7398 14.7452 55.3956 11.3258 51.2223 11.2794L48.5681 11.2499Z" fill="#FF5A00"/>
<path d="M49.234 11.2574L46.7316 11.2295C47.8126 11.8066 48.5462 12.9501 48.5317 14.2586L49.1979 14.266L49.2313 11.2573L49.234 11.2574Z" fill="#FF5A00"/>
<path d="M47.3162 40.2997L61.498 31.7967C62.7572 31.0267 64.3891 31.565 64.9611 32.8934C65.0121 33.012 65.0411 33.1387 65.0616 33.2662L67.7404 49.9128C67.761 50.0403 67.7947 50.1652 67.8263 50.2903C68.0827 51.304 67.6532 52.3785 66.7485 52.9317L63.435 54.9575C62.4864 55.5375 61.2638 55.3919 60.478 54.6052L46.8691 44.0528C45.769 42.9517 45.9882 41.1116 47.3162 40.2997Z" fill="#D1D1D1"/>
<path d="M110.242 11.0897C113.423 8.20497 119.815 9.98671 119.698 14.2795L116.744 45.5183C116.637 49.4437 113.587 52.1449 110.503 50.7277L87.6138 40.8165C84.5307 39.3994 84.3243 34.591 87.2333 31.9532L110.242 11.0897Z" fill="#A6A6A6"/>
<path d="M112.651 11.6697C115.81 8.77449 120.037 10.7177 119.896 15L118.878 45.9716C118.749 49.8873 114.995 52.8753 111.958 51.4793L90.1338 41.4475C87.0968 40.0515 86.9203 35.2569 89.8083 32.6095L112.651 11.6697Z" fill="#D9D9D9"/>
<ellipse cx="100.43" cy="31.6461" rx="3.21287" ry="3.58288" transform="rotate(24.6863 100.43 31.6461)" fill="#FF5A00"/>
<ellipse cx="113.699" cy="28.7718" rx="3.21287" ry="3.58288" transform="rotate(24.6863 113.699 28.7718)" fill="#FF5A00"/>
<ellipse cx="114.634" cy="17.3632" rx="3.21287" ry="3.58288" transform="rotate(24.6863 114.634 17.3632)" fill="#FF5A00"/>
<path d="M85.4789 34.7559C86.3454 32.8708 88.3076 31.882 90.0548 32.3577C90.4039 32.4527 90.6767 32.7118 90.8655 33.0204L92.2938 35.355C92.6799 35.9861 93.4091 36.3213 94.1396 36.2034L96.1818 35.8738C96.9122 35.7559 97.6415 36.0911 98.0276 36.7222L99.1071 38.4868C99.4933 39.118 100.223 39.4532 100.953 39.3353L102.995 39.0056C103.726 38.8877 104.455 39.2229 104.841 39.8541L105.921 41.6187C106.307 42.2498 107.036 42.585 107.766 42.4671L109.809 42.1375C110.539 42.0196 111.268 42.3548 111.654 42.9859L112.734 44.7505C113.12 45.3816 113.849 45.7168 114.58 45.5989L117.282 45.1628C117.639 45.1052 118.013 45.1435 118.312 45.3466C119.811 46.3629 120.338 48.496 119.472 50.3811C118.518 52.4564 116.236 53.4454 114.375 52.5899L87.1213 40.0626C85.2603 39.2071 84.5249 36.8313 85.4789 34.7559Z" fill="#A6A6A6"/>
<path fill-rule="evenodd" clip-rule="evenodd" d="M109.099 23.4535C108.594 21.5206 106.666 20.5322 104.799 21.2436C104.448 21.3773 104.24 21.7802 104.335 22.1432L104.574 23.059C104.6 23.1565 104.544 23.2645 104.45 23.3004L102.884 23.8971C102.79 23.933 102.734 24.041 102.76 24.1385L103.583 27.2855C103.608 27.3829 103.705 27.4328 103.799 27.397L105.365 26.8002C105.459 26.7644 105.556 26.8143 105.582 26.9117L105.821 27.8283C105.916 28.1914 106.278 28.377 106.629 28.2434C108.496 27.5319 109.604 25.3864 109.099 23.4535Z" fill="#BBBBBB"/>
<path fill-rule="evenodd" clip-rule="evenodd" d="M111.115 34.0282C109.247 34.0453 107.628 35.5698 107.5 37.4333L107.478 37.741C107.452 38.1222 107.741 38.4285 108.123 38.425L108.94 38.4176C109.04 38.4166 109.116 38.4973 109.109 38.5978L108.991 40.3077C108.984 40.4082 109.06 40.4889 109.161 40.4879L112.178 40.4604C112.279 40.4595 112.366 40.3773 112.373 40.2769L112.491 38.567C112.498 38.4665 112.586 38.3843 112.686 38.3834L113.503 38.376C113.885 38.3725 114.216 38.0606 114.243 37.6793L114.264 37.3717C114.393 35.5081 112.983 34.0112 111.115 34.0282Z" fill="#BBBBBB"/>
<g clip-path="url(#clip0_425_6482)">
<path d="M116.834 73.1537L117.821 81.3275C117.954 82.4311 118.468 83.4551 119.273 84.2226L120.785 85.6635L145.121 63.7104L142.307 52.468L118.294 69.8172C117.236 70.5804 116.677 71.8589 116.834 73.1537Z" fill="#BBBBBB"/>
<path d="M120.359 85.2522L129.11 93.5684C130.355 94.7514 132.264 94.8857 133.663 93.8879L156.151 77.8469C156.151 77.8469 157.966 76.7942 158.661 74.4007C159.497 71.5236 160.659 66.5863 160.659 66.5863L149.246 53.9052L147.168 60.2346C147.168 60.2346 146.144 62.9789 145.119 63.71L120.644 81.1681C119.287 82.1363 119.148 84.1021 120.357 85.2519L120.359 85.2522Z" fill="#D1D1D1"/>
<path d="M149.249 53.9056L160.661 66.5868L162.144 65.5288C163.024 64.9011 163.161 63.6461 162.437 62.842L153.524 52.9646C152.932 52.307 151.95 52.1761 151.204 52.6526L149.248 53.9044L149.249 53.9056Z" fill="#FF5A00"/>
<path d="M142.307 52.4679C143.507 52.3948 144.709 52.5353 145.86 52.8826L149.246 53.9052L147.385 59.6247C146.99 60.7539 146.736 62.2321 145.121 63.7103L145.067 63.4064L142.307 52.4679Z" fill="#A6A6A6"/>
<path d="M149.248 53.9056L145.862 52.8829C144.711 52.5356 143.509 52.3951 142.308 52.4682L147.85 57.9039L149.249 53.9047L149.248 53.9056Z" fill="#A6A6A6"/>
<path d="M151.128 78.5094L135.73 89.4934C135.561 89.6137 135.382 89.7092 135.197 89.7786C134.353 90.0975 133.375 89.9078 132.711 89.2456L127.043 83.6058C126.017 82.5839 126.152 80.8841 127.327 80.037L142.727 68.9352C143.278 68.5389 143.95 68.4108 144.574 68.5404C145.017 68.6313 145.437 68.8511 145.774 69.193L151.439 74.9514C152.451 75.9803 152.304 77.6708 151.128 78.5094Z" fill="#FF5A00"/>
<path d="M142.834 76.5923L137.815 77.6516C136.675 77.8928 135.791 78.7939 135.574 79.9381C135.241 81.6843 136.548 83.3138 138.324 83.3674L138.455 83.3713C139.546 83.4044 140.562 82.8194 141.082 81.8607L143.475 77.4504C143.715 77.0085 143.326 76.4885 142.835 76.5935L142.834 76.5923Z" fill="#EBEBEB"/>
</g>
<defs>
<clipPath id="clip0_425_6482">
<rect width="28.7096" height="47.6533" fill="white" transform="translate(150.753 46.4427) rotate(54.4993)"/>
</clipPath>
</defs>
</svg>
