<svg width="184" height="148" viewBox="0 0 184 148" fill="none" xmlns="http://www.w3.org/2000/svg">
<g clip-path="url(#clip0_5586_31313)">
<path fill-rule="evenodd" clip-rule="evenodd" d="M107.652 11.3217C102.735 8.73066 97.2856 7.35895 91.952 5.93063C87.3176 4.68908 82.6708 3.46739 77.9892 2.41088C74.6555 1.65965 71.1557 0.999484 67.772 0.872237C53.3138 0.324721 41.0671 13.283 41.0636 27.2481C41.0612 36.7327 46.3065 45.4545 54.4791 50.1685C57.7238 52.0392 61.8351 53.3053 65.587 54.4593C62.7806 74.7705 60.5897 95.1202 59.3797 115.643C58.9956 122.147 62.6192 129.768 67.1687 134.276C71.7814 138.847 79.3489 142.288 85.9738 141.994C92.8515 141.689 99.9849 139.45 104.779 134.276C109.71 128.953 112.14 122.906 112.569 115.643C113.495 99.9288 114.786 84.2586 116.786 68.6457C117.515 63.474 118.281 58.3077 119.085 53.1465C119.893 47.9562 121.021 42.6492 121.411 37.4262C122.155 27.4612 116.789 16.139 107.652 11.3217" fill="#CCCFFF"/>
<path d="M57.9249 138.078L109.535 137.589C115.089 137.537 119.583 133.109 119.655 127.619L120.763 42.581L68.6735 42.9944" stroke="#262626" stroke-linecap="round" stroke-linejoin="round"/>
<path fill-rule="evenodd" clip-rule="evenodd" d="M50.378 19.0168L35.601 49.2413V120.933C35.601 126.174 38.8692 130.888 43.8546 132.835L55.7373 137.475C61.2949 139.645 67.3554 135.699 67.4378 129.856L68.6736 43.0585L50.378 19.0168Z" stroke="#262626" stroke-linecap="round" stroke-linejoin="round"/>
<path fill-rule="evenodd" clip-rule="evenodd" d="M120.624 42.5639L68.3883 42.7745L50.474 18.6549L108.351 17.9653L120.624 42.5639Z" stroke="#262626" stroke-linecap="round" stroke-linejoin="round"/>
<path fill-rule="evenodd" clip-rule="evenodd" d="M103.563 6.89196L55.6299 6.84394C52.783 6.84111 50.474 9.05874 50.474 11.7956V18.8208L108.647 18.1552L108.469 11.4933C108.401 8.935 106.225 6.89479 103.563 6.89196Z" stroke="#262626" stroke-linecap="round" stroke-linejoin="round"/>
<path d="M102.659 137.306H163.399" stroke="black" stroke-linecap="round" stroke-linejoin="round"/>
<path d="M0 137.306H29.9422" stroke="black" stroke-linecap="round" stroke-linejoin="round"/>
<path d="M153.988 147.572H183.931" stroke="black" stroke-linecap="round" stroke-linejoin="round"/>
<path fill-rule="evenodd" clip-rule="evenodd" d="M141.056 70.5904C139.54 89.6506 139.094 108.773 139.718 127.883C139.9 133.47 144.523 138.845 150.449 138.58C156.106 138.329 161.376 133.874 161.181 127.883C160.556 108.773 161.003 89.6506 162.519 70.5904C162.964 64.9981 157.266 59.6483 151.787 59.8925C145.593 60.1688 141.533 64.6001 141.056 70.5904" fill="#F4FFCC"/>
<path d="M44.9132 63.3063V112.069" stroke="black" stroke-linecap="round" stroke-linejoin="round"/>
<path fill-rule="evenodd" clip-rule="evenodd" d="M152.097 136.879H143.903C140.039 136.879 136.879 133.708 136.879 129.833V84.0394C136.879 80.1646 140.039 76.9942 143.903 76.9942H152.097C155.961 76.9942 159.121 80.1646 159.121 84.0394V129.833C159.121 133.708 155.961 136.879 152.097 136.879Z" stroke="black" stroke-linecap="round" stroke-linejoin="round"/>
<path fill-rule="evenodd" clip-rule="evenodd" d="M154.963 76.9943H141.036C138.74 76.9943 136.879 75.0734 136.879 72.7044V71.0184C136.879 68.6494 138.74 66.7284 141.036 66.7284H154.963C157.259 66.7284 159.121 68.6494 159.121 71.0184V72.7044C159.121 75.0734 157.259 76.9943 154.963 76.9943Z" stroke="black" stroke-linecap="round" stroke-linejoin="round"/>
<path d="M141.156 37.6416L149.352 29.7632L142.067 22.7601L150.567 14.5898L142.37 6.7113L149.352 0" stroke="black" stroke-linecap="round" stroke-linejoin="round"/>
</g>
<defs>
<clipPath id="clip0_5586_31313">
<rect width="183.931" height="148" fill="white"/>
</clipPath>
</defs>
</svg>
