<svg width="24" height="24" viewBox="0 0 24 24" fill="none" xmlns="http://www.w3.org/2000/svg">
<path fill-rule="evenodd" clip-rule="evenodd" d="M19.197 20.3678C19.4624 20.049 19.7494 19.7636 20.0032 19.5176C20.0714 19.4515 20.1365 19.3889 20.1992 19.3286C20.3869 19.148 20.5539 18.9874 20.7218 18.8125L20.7225 18.8119C20.9644 18.5603 21.0002 18.3714 21 18.2772C20.9998 18.1866 20.9666 18.0121 20.7355 17.7815L18.1015 15.1534L18.0915 15.143C17.9185 14.9637 17.7561 14.9195 17.6349 14.92C17.5084 14.9204 17.3284 14.9711 17.1398 15.1592L14.7649 17.5289L13.7702 16.9575C11.1936 15.4773 8.2946 13.1729 6.94181 10.0503L6.51362 9.06186L7.31338 8.34029C7.68407 8.00583 8.01182 7.67337 8.37274 7.30726C8.51691 7.16102 8.66638 7.0094 8.82599 6.85014C9.03521 6.64139 9.08096 6.45838 9.08115 6.3409C9.08132 6.22512 9.03774 6.04692 8.8309 5.84243L8.82598 5.83757C8.50433 5.51664 8.2016 5.20666 7.90674 4.90478C7.34614 4.33082 6.81405 3.78605 6.23477 3.25056L6.21916 3.23613L6.20397 3.22126C5.91321 2.93678 5.54825 2.91278 5.20641 3.23042L3.58884 4.8444C3.24474 5.18774 3.06497 5.57477 3.02461 6.04825C2.76541 9.32011 4.58835 13.0565 7.57855 16.0607C10.5657 19.0617 14.3918 21 17.6563 21C18.3256 21 18.7877 20.7979 19.197 20.3678ZM1.52963 5.92568C1.59948 5.0937 1.93563 4.37497 2.52936 3.78256L4.16211 2.15344C5.06401 1.2956 6.35485 1.27035 7.25299 2.14909C7.85883 2.70914 8.43782 3.30168 9.01611 3.89349C9.30498 4.18912 9.59368 4.48458 9.88547 4.77571C10.8165 5.69612 10.8096 6.98991 9.88547 7.91199C9.7456 8.05154 9.60738 8.19175 9.46913 8.33198C9.09648 8.70999 8.7237 9.08813 8.3182 9.45399C9.4815 12.1392 12.0493 14.239 14.5174 15.6568L16.0803 14.0974C16.9758 13.204 18.285 13.1829 19.1712 14.1018L21.7949 16.7197C22.7336 17.6562 22.7336 18.8846 21.8037 19.8516C21.6133 20.0498 21.4173 20.2383 21.2241 20.4241C20.9123 20.724 20.6077 21.017 20.3456 21.3326C20.3412 21.3413 20.3325 21.35 20.3281 21.3544C19.6165 22.1254 18.7434 22.5 17.6563 22.5C10.067 22.5 0.912195 13.675 1.52963 5.92568Z" fill="#262626"/>
</svg>
