<svg width="25" height="24" viewBox="0 0 25 24" fill="none" xmlns="http://www.w3.org/2000/svg">
<path d="M3.27533 3.3757C2.91783 3.09383 2.39878 3.15914 2.11691 3.51663C1.83504 3.87413 1.90035 4.39318 2.25784 4.67505L22.6075 20.6248C22.965 20.9067 23.484 20.8413 23.7659 20.4839C24.0478 20.1264 23.9825 19.6073 23.625 19.3254L21.7172 17.8301C21.7344 17.7236 21.7413 17.6136 21.7413 17.5002V6.50033C21.7413 5.28692 20.7547 4.30037 19.5413 4.30037H6.34152C5.84653 4.30037 5.38591 4.46537 5.01811 4.7438L3.27533 3.3757ZM6.56152 5.95034H19.5413C19.8438 5.95034 20.0913 6.19784 20.0913 6.50033V16.5549L18.2557 15.1146L15.2445 11.2199C15.0898 11.0171 14.8457 10.9003 14.5914 10.9003C14.337 10.9003 14.0964 11.0171 13.9383 11.2199L13.6908 11.5396L10.7414 9.22623C10.7277 8.32562 9.99552 7.60032 9.09147 7.60032C8.96429 7.60032 8.8371 7.61407 8.72023 7.64156L6.56152 5.95034ZM18.6957 19.7001L11.6661 14.1624L11.0852 14.9118L10.0368 13.444C9.88208 13.2274 9.63459 13.1002 9.36647 13.1002C9.09835 13.1002 8.85085 13.2274 8.69617 13.4474L5.94622 17.2973L5.79153 17.5139V17.5036V9.53216L4.14156 8.2328V17.5002C4.14156 18.7136 5.12811 19.7001 6.34152 19.7001H18.6957Z" fill="#262626"/>
</svg>
