<svg width="25" height="24" viewBox="0 0 25 24" fill="none" xmlns="http://www.w3.org/2000/svg">
<path fill-rule="evenodd" clip-rule="evenodd" d="M5.32383 6.64286V14.1429C5.32383 15.3248 6.26555 16.2857 7.42383 16.2857H21.0738C22.2321 16.2857 23.1738 15.3248 23.1738 14.1429V6.64286C23.1738 5.46094 22.2321 4.5 21.0738 4.5H7.42383C6.26555 4.5 5.32383 5.46094 5.32383 6.64286ZM11.6238 10.3929C11.6238 9.68246 11.9004 9.00115 12.3927 8.49882C12.885 7.99649 13.5526 7.71429 14.2488 7.71429C14.945 7.71429 15.6127 7.99649 16.105 8.49882C16.5973 9.00115 16.8738 9.68246 16.8738 10.3929C16.8738 11.1033 16.5973 11.7846 16.105 12.2869C15.6127 12.7892 14.945 13.0714 14.2488 13.0714C13.5526 13.0714 12.885 12.7892 12.3927 12.2869C11.9004 11.7846 11.6238 11.1033 11.6238 10.3929ZM3.74883 7.44643C3.74883 7.00112 3.39773 6.64286 2.96133 6.64286C2.52492 6.64286 2.17383 7.00112 2.17383 7.44643V15.4821C2.17383 17.702 3.93586 19.5 6.11133 19.5H19.2363C19.6727 19.5 20.0238 19.1417 20.0238 18.6964C20.0238 18.2511 19.6727 17.8929 19.2363 17.8929H6.11133C4.80539 17.8929 3.74883 16.8147 3.74883 15.4821V7.44643ZM10.1738 10.5C10.1738 11.0523 9.72611 11.5 9.17383 11.5C8.62154 11.5 8.17383 11.0523 8.17383 10.5C8.17383 9.94772 8.62154 9.5 9.17383 9.5C9.72611 9.5 10.1738 9.94772 10.1738 10.5ZM19.1738 11.5C19.7261 11.5 20.1738 11.0523 20.1738 10.5C20.1738 9.94772 19.7261 9.5 19.1738 9.5C18.6215 9.5 18.1738 9.94772 18.1738 10.5C18.1738 11.0523 18.6215 11.5 19.1738 11.5Z" fill="#262626"/>
</svg>
