<svg width="25" height="24" viewBox="0 0 25 24" fill="none" xmlns="http://www.w3.org/2000/svg">
<path d="M12.9412 3.46885C12.9412 2.94668 13.1466 2.44589 13.5121 2.07666C13.8776 1.70743 14.3733 1.5 14.8902 1.5C15.4072 1.5 15.9029 1.70743 16.2684 2.07666C16.6339 2.44589 16.8393 2.94668 16.8393 3.46885C16.8393 3.99102 16.6339 4.4918 16.2684 4.86103C15.9029 5.23026 15.4072 5.43769 14.8902 5.43769C14.3733 5.43769 13.8776 5.23026 13.5121 4.86103C13.1466 4.4918 12.9412 3.99102 12.9412 3.46885ZM11.581 9.67481C11.5403 9.69122 11.5038 9.70763 11.4632 9.72403L11.1384 9.8676C10.4724 10.167 9.96082 10.7372 9.72938 11.4345L9.6238 11.7544C9.39642 12.4435 8.66147 12.8127 7.97931 12.583C7.29715 12.3533 6.93171 11.6108 7.1591 10.9217L7.26467 10.6018C7.72756 9.20311 8.7508 8.06282 10.0826 7.46396L10.4075 7.3204C11.2521 6.94304 12.1657 6.74615 13.0914 6.74615C14.9024 6.74615 16.5347 7.84543 17.2291 9.53125L17.8544 11.0448L18.7233 11.4837C19.3649 11.8077 19.6248 12.5953 19.304 13.2433C18.9832 13.8914 18.2036 14.1539 17.562 13.8299L16.4738 13.2844C16.0556 13.0711 15.7267 12.7183 15.548 12.2794L15.1582 11.336L14.3746 14.0227L16.3845 16.2376C16.6038 16.4796 16.7581 16.7709 16.8393 17.0908L17.7732 20.8685C17.9478 21.5699 17.5255 22.2836 16.8271 22.46C16.1287 22.6364 15.4262 22.2098 15.2516 21.5043L14.3583 17.8906L11.4876 14.7282C10.8866 14.0678 10.6633 13.1449 10.8907 12.2794L11.5769 9.67481H11.581ZM9.234 17.825L10.2491 15.2655C10.3344 15.3886 10.4318 15.5034 10.5333 15.6183L12.186 17.4394L11.5972 18.9243C11.4997 19.1704 11.3536 19.396 11.1668 19.5847L8.66147 22.1155C8.15391 22.6282 7.32964 22.6282 6.82208 22.1155C6.31452 21.6027 6.31452 20.7701 6.82208 20.2574L9.234 17.825Z" fill="#262626"/>
</svg>
