<svg width="24" height="24" viewBox="0 0 24 24" fill="none" xmlns="http://www.w3.org/2000/svg">
<path fill-rule="evenodd" clip-rule="evenodd" d="M21 6H3V20.25H21V6ZM1.5 4.5V20.25C1.5 21.0784 2.17157 21.75 3 21.75H22.5V4.5H1.5Z" fill="#262626"/>
<path fill-rule="evenodd" clip-rule="evenodd" d="M21 11.25H15.75C14.9216 11.25 14.25 11.9216 14.25 12.75C14.25 13.5784 14.9216 14.25 15.75 14.25H21V11.25ZM15.75 9.75C14.0931 9.75 12.75 11.0931 12.75 12.75C12.75 14.4069 14.0931 15.75 15.75 15.75H21.75V9.75H15.75Z" fill="#262626"/>
<path d="M1.5 3.75C1.5 2.92157 2.17157 2.25 3 2.25H19.5V4.5H1.5V3.75Z" fill="#262626"/>
</svg>
