<svg width="25" height="24" viewBox="0 0 25 24" fill="none" xmlns="http://www.w3.org/2000/svg">
<path d="M12.6738 22.5C15.4586 22.5 18.1293 21.3938 20.0984 19.4246C22.0676 17.4555 23.1738 14.7848 23.1738 12C23.1738 9.21523 22.0676 6.54451 20.0984 4.57538C18.1293 2.60625 15.4586 1.5 12.6738 1.5C9.88905 1.5 7.21834 2.60625 5.24921 4.57538C3.28008 6.54451 2.17383 9.21523 2.17383 12C2.17383 14.7848 3.28008 17.4555 5.24921 19.4246C7.21834 21.3938 9.88905 22.5 12.6738 22.5ZM17.3086 10.0723L12.0586 15.3223C11.673 15.7078 11.0496 15.7078 10.6682 15.3223L8.04316 12.6973C7.65762 12.3117 7.65762 11.6883 8.04316 11.3068C8.42871 10.9254 9.05215 10.9213 9.43359 11.3068L11.3613 13.2346L15.9141 8.67773C16.2996 8.29219 16.923 8.29219 17.3045 8.67773C17.6859 9.06328 17.69 9.68672 17.3045 10.0682L17.3086 10.0723Z" fill="#262626"/>
</svg>
