<svg width="24" height="24" viewBox="0 0 24 24" fill="none" xmlns="http://www.w3.org/2000/svg">
<path d="M9.71543 4.84277C10.1502 4.02246 11.0115 3.46875 12 3.46875C12.9885 3.46875 13.8498 4.02246 14.2846 4.84277C14.5061 5.26113 14.9941 5.46211 15.4453 5.32266C16.3313 5.05195 17.3361 5.26523 18.0334 5.9666C18.7307 6.66797 18.948 7.66875 18.6773 8.55469C18.5379 9.00586 18.7389 9.49395 19.1572 9.71133C19.9775 10.1461 20.5312 11.0074 20.5312 11.9959C20.5312 12.9844 19.9775 13.8457 19.1572 14.2805C18.7389 14.502 18.5379 14.9859 18.6773 15.4371C18.948 16.323 18.7348 17.3279 18.0334 18.0252C17.332 18.7225 16.3313 18.9398 15.4453 18.6691C14.9941 18.5297 14.5061 18.7307 14.2887 19.149C13.8539 19.9693 12.9926 20.523 12.0041 20.523C11.0156 20.523 10.1543 19.9693 9.71953 19.149C9.49805 18.7307 9.01406 18.5297 8.56289 18.6691C7.67695 18.9398 6.67207 18.7266 5.9748 18.0252C5.27754 17.3238 5.05195 16.3313 5.32266 15.4453C5.46211 14.9941 5.26113 14.5061 4.84277 14.2887C4.02246 13.8498 3.46875 12.9885 3.46875 12C3.46875 11.0115 4.02246 10.1502 4.84277 9.71543C5.26113 9.49395 5.46211 9.00586 5.32266 8.55469C5.05195 7.66875 5.26523 6.66387 5.9666 5.9666C6.66797 5.26934 7.66875 5.05195 8.55469 5.32266C9.00586 5.46211 9.49395 5.26113 9.71133 4.84277H9.71543ZM12 1.5C10.5275 1.5 9.21914 2.19727 8.38652 3.28008C7.03301 3.10371 5.61387 3.53437 4.57207 4.57617C3.53027 5.61797 3.09961 7.03711 3.27598 8.39062C2.19727 9.21914 1.5 10.5275 1.5 12C1.5 13.4725 2.19727 14.7809 3.28008 15.6135C3.10371 16.967 3.53437 18.3861 4.57617 19.4279C5.61797 20.4697 7.03711 20.9004 8.39062 20.724C9.21914 21.8027 10.5275 22.5 12 22.5C13.4725 22.5 14.7809 21.8027 15.6135 20.7199C16.967 20.8963 18.3861 20.4656 19.4279 19.4238C20.4697 18.382 20.9004 16.9629 20.724 15.6094C21.8027 14.7809 22.5 13.4725 22.5 12C22.5 10.5275 21.8027 9.21914 20.7199 8.38652C20.8963 7.03301 20.4656 5.61387 19.4238 4.57207C18.382 3.53027 16.9629 3.09961 15.6094 3.27598C14.7809 2.19727 13.4725 1.5 12 1.5ZM9.375 10.6875C9.7231 10.6875 10.0569 10.5492 10.3031 10.3031C10.5492 10.0569 10.6875 9.7231 10.6875 9.375C10.6875 9.0269 10.5492 8.69306 10.3031 8.44692C10.0569 8.20078 9.7231 8.0625 9.375 8.0625C9.0269 8.0625 8.69306 8.20078 8.44692 8.44692C8.20078 8.69306 8.0625 9.0269 8.0625 9.375C8.0625 9.7231 8.20078 10.0569 8.44692 10.3031C8.69306 10.5492 9.0269 10.6875 9.375 10.6875ZM15.9375 14.625C15.9375 14.2769 15.7992 13.9431 15.5531 13.6969C15.3069 13.4508 14.9731 13.3125 14.625 13.3125C14.2769 13.3125 13.9431 13.4508 13.6969 13.6969C13.4508 13.9431 13.3125 14.2769 13.3125 14.625C13.3125 14.9731 13.4508 15.3069 13.6969 15.5531C13.9431 15.7992 14.2769 15.9375 14.625 15.9375C14.9731 15.9375 15.3069 15.7992 15.5531 15.5531C15.7992 15.3069 15.9375 14.9731 15.9375 14.625ZM15.3223 10.0723C15.7078 9.68672 15.7078 9.06328 15.3223 8.68184C14.9367 8.30039 14.3133 8.29629 13.9318 8.68184L8.67773 13.9277C8.29219 14.3133 8.29219 14.9367 8.67773 15.3182C9.06328 15.6996 9.68672 15.7037 10.0682 15.3182L15.3223 10.0723Z" fill="#262626"/>
</svg>
