<svg width="140" height="131" viewBox="0 0 140 131" fill="none" xmlns="http://www.w3.org/2000/svg">
<g clip-path="url(#clip0_10962_75850)">
<g style="mix-blend-mode:multiply" opacity="0.25">
<path d="M0.530273 73.1351C0.530273 67.4783 5.11599 62.8926 10.7727 62.8926H101.058C106.715 62.8926 111.3 67.4783 111.3 73.1351V120.794C111.3 126.45 106.715 131.036 101.058 131.036H10.7727C5.11598 131.036 0.530273 126.45 0.530273 120.794V73.1351Z" fill="#3B4B60" fill-opacity="0.6"/>
</g>
<path d="M11.5016 62.8487C11.5016 58.0954 15.3549 54.2422 20.1082 54.2422L116.108 52.999C116.108 52.999 118.281 55.1543 120.001 57.0233C121.411 58.556 122.272 60.6018 122.272 62.8487V113.779C122.272 118.533 118.418 122.386 113.665 122.386H20.1082C17.7311 122.386 15.5791 121.422 14.0215 119.864L9.02539 114.106L11.5016 62.8487Z" fill="#020775"/>
<rect x="7.79297" y="50.3882" width="110.77" height="68.1435" rx="9.44822" fill="#2D57FD"/>
<rect x="14.5645" y="98.5972" width="59.102" height="6.40312" rx="3.20156" fill="#F5F5F5"/>
<rect x="76.7383" y="98.5972" width="17.7001" height="6.40312" rx="3.20156" fill="#F5F5F5"/>
<rect x="14.5703" y="73.478" width="18.0999" height="16.2364" rx="4.72411" fill="#F8B825"/>
<g style="mix-blend-mode:multiply" opacity="0.25">
<path fill-rule="evenodd" clip-rule="evenodd" d="M70.2503 50.4094V80.9469C70.2503 84.9226 73.4733 88.1455 77.449 88.1455H118.543L118.468 53.9387C118.464 51.9738 114.816 50.3831 110.32 50.3857L70.2503 50.4094Z" fill="#3B4B60"/>
</g>
<path d="M76.7402 74.989V35.3706H139.47V74.989C139.47 78.6206 136.499 81.592 132.867 81.592H83.3434C79.7117 81.592 76.7402 78.6206 76.7402 74.989Z" fill="#E5E5E5"/>
<path d="M139.47 28.7725V38.6771H76.7402V28.7725C76.7402 25.1408 79.7117 22.1694 83.3434 22.1694H132.867C136.499 22.1694 139.47 25.1408 139.47 28.7725Z" fill="#F55905"/>
<path d="M122.966 33.7249C125.701 33.7249 127.918 31.5077 127.918 28.7726C127.918 26.0375 125.701 23.8203 122.966 23.8203C120.231 23.8203 118.014 26.0375 118.014 28.7726C118.014 31.5077 120.231 33.7249 122.966 33.7249Z" fill="#AB3601"/>
<path d="M93.2512 33.7249C95.9863 33.7249 98.2036 31.5077 98.2036 28.7726C98.2036 26.0375 95.9863 23.8203 93.2512 23.8203C90.5161 23.8203 88.2988 26.0375 88.2988 28.7726C88.2988 31.5077 90.5161 33.7249 93.2512 33.7249Z" fill="#AB3601"/>
<path d="M122.965 17.3647C121.149 17.3647 119.663 18.8504 119.663 20.6663V28.9201C119.663 30.7359 121.149 32.2216 122.965 32.2216C124.781 32.2216 126.267 30.7359 126.267 28.9201V20.6663C126.267 18.8504 124.781 17.3647 122.965 17.3647ZM93.2508 17.3647C91.4349 17.3647 89.9492 18.8504 89.9492 20.6663V28.9201C89.9492 30.7359 91.4349 32.2216 93.2508 32.2216C95.0667 32.2216 96.5524 30.7359 96.5524 28.9201V20.6663C96.5524 18.8504 95.0667 17.3647 93.2508 17.3647Z" fill="#A6A6A6"/>
<path d="M86.6543 48.0155C86.6543 45.8614 88.4006 44.1152 90.5546 44.1152C92.7086 44.1152 94.4549 45.8614 94.4549 48.0155C94.4549 50.1695 92.7086 51.9157 90.5546 51.9157C88.4006 51.9157 86.6543 50.1695 86.6543 48.0155ZM98.3552 48.0155C98.3552 45.8614 100.101 44.1152 102.256 44.1152C104.41 44.1152 106.156 45.8614 106.156 48.0155C106.156 50.1695 104.41 51.9157 102.256 51.9157C100.101 51.9157 98.3552 50.1695 98.3552 48.0155ZM110.056 48.0155C110.056 45.8614 111.802 44.1152 113.956 44.1152C116.11 44.1152 117.857 45.8614 117.857 48.0155C117.857 50.1695 116.11 51.9157 113.956 51.9157C111.802 51.9157 110.056 50.1695 110.056 48.0155ZM121.757 48.0155C121.757 45.8614 123.503 44.1152 125.657 44.1152C127.811 44.1152 129.558 45.8614 129.558 48.0155C129.558 50.1695 127.811 51.9157 125.657 51.9157C123.503 51.9157 121.757 50.1695 121.757 48.0155ZM86.6543 59.7162C86.6543 57.5622 88.4006 55.816 90.5546 55.816C92.7086 55.816 94.4549 57.5622 94.4549 59.7162C94.4549 61.8702 92.7086 63.6164 90.5546 63.6164C88.4006 63.6164 86.6543 61.8702 86.6543 59.7162ZM98.3552 59.7162C98.3552 57.5622 100.101 55.816 102.256 55.816C104.41 55.816 106.156 57.5622 106.156 59.7162C106.156 61.8702 104.41 63.6164 102.256 63.6164C100.101 63.6164 98.3552 61.8702 98.3552 59.7162ZM110.056 59.7162C110.056 57.5622 111.802 55.816 113.956 55.816C116.11 55.816 117.857 57.5622 117.857 59.7162C117.857 61.8702 116.11 63.6164 113.956 63.6164C111.802 63.6164 110.056 61.8702 110.056 59.7162ZM121.757 59.7162C121.757 57.5622 123.503 55.816 125.657 55.816C127.811 55.816 129.558 57.5622 129.558 59.7162C129.558 61.8702 127.811 63.6164 125.657 63.6164C123.503 63.6164 121.757 61.8702 121.757 59.7162ZM86.6543 71.4169C86.6543 69.2629 88.4006 67.5167 90.5546 67.5167C92.7086 67.5167 94.4549 69.2629 94.4549 71.4169C94.4549 73.571 92.7086 75.3172 90.5546 75.3172C88.4006 75.3172 86.6543 73.571 86.6543 71.4169ZM98.3552 71.4169C98.3552 69.2629 100.101 67.5167 102.256 67.5167C104.41 67.5167 106.156 69.2629 106.156 71.4169C106.156 73.571 104.41 75.3172 102.256 75.3172C100.101 75.3172 98.3552 73.571 98.3552 71.4169ZM110.056 71.4169C110.056 69.2629 111.802 67.5167 113.956 67.5167C116.11 67.5167 117.857 69.2629 117.857 71.4169C117.857 73.571 116.11 75.3172 113.956 75.3172C111.802 75.3172 110.056 73.571 110.056 71.4169Z" fill="#A6A6A6"/>
<path d="M121.756 71.4168C121.756 73.5709 123.502 75.3171 125.656 75.3171C127.81 75.3171 129.556 73.5709 129.556 71.4168C129.556 69.2628 127.81 67.5166 125.656 67.5166C123.502 67.5166 121.756 69.2628 121.756 71.4168Z" fill="#FF6F00"/>
<path d="M41.9671 8.45986L44.8525 9.61527C45.5141 9.88023 45.5141 10.8169 44.8525 11.0818L41.9671 12.2372C39.455 13.2416 37.4728 15.2601 36.4794 17.812L35.3565 20.7056C35.0957 21.3778 34.1446 21.3778 33.8838 20.7056L32.761 17.812C31.7722 15.2649 29.7853 13.2464 27.2732 12.2372L24.3878 11.0818C23.7262 10.8169 23.7262 9.88023 24.3878 9.61527L27.2732 8.45986C29.7806 7.45545 31.7675 5.43702 32.761 2.88513L33.8838 -0.00850701C34.1446 -0.68069 35.0957 -0.680691 35.3565 -0.00850749L36.4794 2.88513C37.4681 5.43221 39.455 7.45065 41.9671 8.45986Z" fill="#FCE2A6"/>
<path d="M62.6587 26.7419L63.6352 27.1353C64.8752 27.635 64.8752 29.3905 63.6352 29.8901L62.6587 30.2836C60.318 31.2254 58.471 33.1179 57.5453 35.5106L57.1985 36.41C56.7097 37.6776 54.9162 37.6776 54.4274 36.41L54.0806 35.5106C53.1593 33.1224 51.3079 31.2299 48.9672 30.2836L47.9907 29.8901C46.7507 29.3905 46.7507 27.635 47.9907 27.1353L48.9672 26.7419C51.3034 25.8001 53.1549 23.9076 54.0806 21.5149L54.4274 20.6155C54.9162 19.3479 56.7097 19.3479 57.1985 20.6155L57.5453 21.5149C58.4666 23.9031 60.318 25.7956 62.6587 26.7419Z" fill="#FAC856"/>
</g>
<defs>
<clipPath id="clip0_10962_75850">
<rect width="139.931" height="131" fill="white" transform="translate(0.0341797)"/>
</clipPath>
</defs>
</svg>
