<svg width="49" height="49" viewBox="0 0 49 49" fill="none" xmlns="http://www.w3.org/2000/svg">
<g id="Multi-Pay">
<g id="Group 7456">
<path id="Vector 193" d="M17.1709 30.5233L3.61336 30.5233" stroke="#FF5A00" stroke-width="3.59368" stroke-linecap="round"/>
<g id="Group 1497">
<path id="Rectangle 37" d="M16.1996 17.0926C16.7041 15.6276 18.3692 14.4399 19.9187 14.4399L45.7301 14.0028C45.7301 14.0028 46.3875 14.721 46.7496 15.2971C47.0466 15.7695 47.1102 16.4001 46.8717 17.0926L41.4663 32.791C40.9619 34.256 39.2968 35.4437 37.7473 35.4437H12.6865C11.9115 35.4437 11.3123 35.1467 10.9699 34.6665L10.0108 33.0814L16.1996 17.0926Z" fill="#AB3601"/>
<rect id="Rectangle 5" width="30.7383" height="22.2141" rx="3.07999" transform="matrix(-1 0 -0.325568 0.945519 46.9863 13.2514)" fill="#FF5A00"/>
<rect id="Rectangle 36" width="5.46398" height="3.50684" rx="1.75342" transform="matrix(1 0 -0.325568 0.945519 34.1973 28.111)" fill="#FFEEE5"/>
<g id="Group 1489">
<rect id="Rectangle 35" width="5.90029" height="5.2929" rx="1.54" transform="matrix(-1 0 -0.325568 0.945519 42.3271 20.3686)" fill="#F8B825"/>
</g>
<path id="Rectangle 6" d="M17.5708 29.7689C17.886 28.8533 18.9267 28.111 19.895 28.111H29.9412C30.9096 28.111 31.4391 28.8533 31.1238 29.7689C30.8085 30.6845 29.7679 31.4268 28.7995 31.4268H18.7533C17.7849 31.4268 17.2555 30.6845 17.5708 29.7689Z" fill="#FFEEE5"/>
</g>
<path id="Vector 191" d="M17.1709 16.9832L3.61336 16.9832" stroke="#FF5A00" stroke-width="3.59368" stroke-linecap="round"/>
<path id="Vector 195" d="M17.1709 23.7533L7.23199 23.7533" stroke="#FF5A00" stroke-width="3.59368" stroke-linecap="round"/>
</g>
</g>
</svg>
