<svg width="25" height="24" viewBox="0 0 25 24" fill="none" xmlns="http://www.w3.org/2000/svg">
<path d="M14.4793 2.78881C15.5457 3.00353 16.2389 4.04819 16.0256 5.12175L15.9312 5.59247C15.7139 6.69494 15.3119 7.74373 14.75 8.69755H20.6562C21.7432 8.69755 22.625 9.5853 22.625 10.6795C22.625 11.4434 22.1943 12.1082 21.5627 12.4385C22.0098 12.8019 22.2969 13.3593 22.2969 13.9828C22.2969 14.949 21.6078 15.7542 20.7014 15.9276C20.8818 16.229 20.9844 16.58 20.9844 16.9557C20.9844 17.8352 20.4143 18.5826 19.6268 18.8386C19.6555 18.9749 19.6719 19.1194 19.6719 19.268C19.6719 20.3622 18.79 21.25 17.7031 21.25H13.7041C12.9248 21.25 12.166 21.0188 11.518 20.5852L9.93887 19.524C8.84375 18.7891 8.1875 17.5503 8.1875 16.2249V14.6434V12.6615V11.6333C8.1875 10.4276 8.73301 9.29214 9.66406 8.53651L9.96758 8.2929C11.0545 7.41753 11.7969 6.18706 12.0676 4.8162L12.1619 4.34548C12.3752 3.27192 13.4129 2.5741 14.4793 2.78881ZM2.9375 9.3582H5.5625C6.28848 9.3582 6.875 9.94866 6.875 10.6795V19.9287C6.875 20.6595 6.28848 21.25 5.5625 21.25H2.9375C2.21152 21.25 1.625 20.6595 1.625 19.9287V10.6795C1.625 9.94866 2.21152 9.3582 2.9375 9.3582Z" fill="#262626"/>
</svg>
