<svg width="25" height="24" viewBox="0 0 25 24" fill="none" xmlns="http://www.w3.org/2000/svg">
<path d="M3.71875 5.87637V3.79688C3.71875 3.25137 3.27988 2.8125 2.73438 2.8125C2.18887 2.8125 1.75 3.25137 1.75 3.79688V8.39062C1.75 8.93613 2.18887 9.375 2.73438 9.375H7.32812C7.87363 9.375 8.3125 8.93613 8.3125 8.39062C8.3125 7.84512 7.87363 7.40625 7.32812 7.40625H5.05996C6.57754 5.03555 9.23125 3.46875 12.25 3.46875C16.9627 3.46875 20.7812 7.2873 20.7812 12C20.7812 16.7127 16.9627 20.5312 12.25 20.5312C10.5068 20.5312 8.89082 20.0104 7.54551 19.1162C7.09434 18.8168 6.4832 18.9398 6.17969 19.391C5.87617 19.8422 6.00332 20.4533 6.45449 20.7568C8.11562 21.8602 10.109 22.5 12.25 22.5C18.0496 22.5 22.75 17.7996 22.75 12C22.75 6.20039 18.0496 1.5 12.25 1.5C8.73496 1.5 5.62188 3.22676 3.71875 5.87637ZM12.25 6.75C11.7045 6.75 11.2656 7.18887 11.2656 7.73438V12C11.2656 12.2625 11.3682 12.5127 11.5527 12.6973L14.5059 15.6504C14.8914 16.0359 15.5148 16.0359 15.8963 15.6504C16.2777 15.2648 16.2818 14.6414 15.8963 14.26L13.2303 11.5939V7.73438C13.2303 7.18887 12.7914 6.75 12.2459 6.75H12.25Z" fill="#262626"/>
</svg>
