<svg width="141" height="140" viewBox="0 0 141 140" fill="none" xmlns="http://www.w3.org/2000/svg">
<circle cx="70.5" cy="70" r="70" fill="#F5F5F5"/>
<ellipse cx="70.5001" cy="116.874" rx="25.3588" ry="3.63307" fill="#D1D1D1"/>
<path fill-rule="evenodd" clip-rule="evenodd" d="M93.6903 91.3823C100.494 85.6892 104.899 77.2003 105.11 67.6339C105.496 50.0385 91.5461 35.4611 73.9507 35.0744C56.3553 34.6876 41.7779 48.638 41.3912 66.2333C41.2005 74.9082 44.4947 82.8494 49.9924 88.7182C50.0602 88.8738 50.1559 89.0239 50.2821 89.1631L66.2779 106.814C66.5815 107.149 67.0125 107.34 67.4645 107.34L72.4157 107.34C73.4846 107.34 74.521 106.973 75.3515 106.3L93.4141 91.6651C93.5213 91.5783 93.6131 91.4832 93.6903 91.3823ZM86.5252 67.2255C86.3641 74.5569 80.2902 80.3696 72.9587 80.2084C65.6273 80.0473 59.8147 73.9733 59.9759 66.6419C60.137 59.3105 66.2109 53.4979 73.5423 53.659C80.8737 53.8202 86.6864 59.8941 86.5252 67.2255Z" fill="#C44100"/>
<path fill-rule="evenodd" clip-rule="evenodd" d="M86.0177 93.0472C94.0439 87.4227 99.377 78.1834 99.6089 67.6339C99.9957 50.0385 86.0453 35.4611 68.45 35.0744C50.8546 34.6876 36.2772 48.6379 35.8904 66.2333C35.6567 76.8671 40.6594 86.3986 48.5386 92.3616L65.9689 106.985C66.5454 107.469 67.3811 107.486 67.9768 107.026L85.7519 93.3023C85.8535 93.2239 85.9419 93.1382 86.0177 93.0472ZM81.0247 67.2255C80.8636 74.5569 74.7896 80.3695 67.4582 80.2084C60.1268 80.0472 54.3142 73.9733 54.4754 66.6419C54.6365 59.3105 60.7104 53.4979 68.0418 53.659C75.3732 53.8202 81.1859 59.8941 81.0247 67.2255Z" fill="#FF5A00"/>
</svg>
