<svg width="141" height="140" viewBox="0 0 141 140" fill="none" xmlns="http://www.w3.org/2000/svg">
<circle cx="70.5" cy="70" r="70" fill="#F5F5F5"/>
<path d="M77.4005 36.0204L95.0188 70.3466L95.1313 70.5637L104.419 88.6573C104.775 89.3518 104.864 90.1875 104.843 90.9186C104.801 92.363 103.747 94.3656 102.473 95.1854C102.352 95.2636 102.224 95.3389 102.09 95.4048L78.2234 107.645C77.8419 107.842 77.118 108.16 77.118 108.16L76.0387 108.68C74.2682 109.498 70.0556 110.315 64.8375 106.401L45.1647 53.0665C44.0336 50.8626 44.9036 48.1589 47.1072 47.0291L71.5073 34.466L66.3594 30.4738C75.1496 30.4738 76.3145 33.9111 77.399 36.0193L77.4005 36.0204Z" fill="#8B2A00"/>
<path d="M63.3178 32.0157L39.4061 44.2756C36.7169 45.6544 35.6563 48.9522 37.0362 51.6411L63.7174 103.63C65.0972 106.318 68.3951 107.381 71.084 106.002L94.9957 93.7421C97.6849 92.3633 98.7455 89.0655 97.3656 86.3767L70.6844 34.3882C69.3046 31.6996 66.0067 30.6371 63.3178 32.0157Z" fill="#FF5A00" stroke="#FF5A00" stroke-width="2.02313"/>
<path d="M68.5069 38.3819L92.7539 85.6209C93.7376 87.5359 92.9819 89.8885 91.0647 90.8714L71.0534 101.132C69.1361 102.115 66.7854 101.358 65.8014 99.4408L41.5547 52.2044C40.5707 50.2869 41.3266 47.9368 43.2439 46.9539L63.2538 36.6917C65.171 35.7088 67.5232 36.4669 68.5069 38.3819Z" fill="#C2C2C2"/>
<path opacity="0.35" d="M68.5071 38.3819L85.9082 72.2081C82.853 72.4748 76.0748 72.3249 65.3897 61.7608C55.4132 51.8973 45.8354 54.3693 42.6692 54.3773L41.5549 52.2043C40.5709 50.2868 41.3268 47.9367 43.2441 46.9538L63.2539 36.6917C65.1712 35.7088 67.5234 36.4669 68.5071 38.3819Z" fill="#F5F5F5"/>
<path opacity="0.35" d="M87.9888 92.4474L71.0534 101.132C69.1361 102.115 66.7854 101.358 65.8014 99.4405L53.9126 76.2805C58.8087 76.9581 64.4189 79.2153 69.6281 84.8088C76.078 91.7337 82.7907 92.9897 87.9888 92.4474Z" fill="#F5F5F5"/>
<path d="M50.0698 48.9681L60.7667 43.4653" stroke="#8B2A00" stroke-width="4.04626" stroke-linecap="round" stroke-linejoin="round"/>
<path d="M61.1167 61.1486C61.1895 59.8765 62.612 59.1603 63.6773 59.8593L80.4915 70.8935C81.5567 71.5926 81.4657 73.1826 80.3277 73.7556L62.3647 82.8C61.2267 83.373 59.8951 82.4992 59.9679 81.2272L61.1167 61.1486Z" fill="#FF5A00"/>
<line x1="65.5532" y1="66.9119" x2="67.6489" y2="71.0742" stroke="white" stroke-width="3.31029" stroke-linecap="round"/>
<line x1="69.6026" y1="74.9542" x2="69.5727" y2="74.8949" stroke="white" stroke-width="3.31029" stroke-linecap="round"/>
<ellipse cx="72.849" cy="122.878" rx="28.5512" ry="4.30742" fill="#D1D1D1"/>
</svg>
