<svg width="141" height="140" viewBox="0 0 141 140" fill="none" xmlns="http://www.w3.org/2000/svg">
<circle cx="70.5" cy="70" r="70" fill="#F5F5F5"/>
<ellipse cx="68.9848" cy="108.865" rx="39.7387" ry="4.30742" fill="#D1D1D1"/>
<circle cx="93.8813" cy="44.1655" r="1.92231" fill="#A6A6A6"/>
<circle cx="102.097" cy="37.2622" r="3.04115" fill="#D1D1D1"/>
<circle cx="93.8813" cy="34.221" r="1.92231" fill="#A6A6A6"/>
<circle cx="105.138" cy="22.4708" r="6.74157" fill="#D1D1D1"/>
<path d="M50.9785 55.263L51.6949 46.4307C51.8716 44.2459 52.8292 42.197 54.3934 40.6586L60.9365 34.221L77.1533 34.2711L81.829 37.6437C84.4821 39.5566 86.3304 42.3854 87.0182 45.5816L88.8426 54.068H77.7217L77.5235 43.516L61.4761 43.4302L61.4117 54.5188L50.9809 55.2654L50.9785 55.263Z" fill="#FF5A00"/>
<path d="M60.9365 34.221L61.4762 43.4278L66.842 43.4802L60.9365 34.221Z" fill="#C44100"/>
<path d="M77.1534 34.2711L77.5235 43.5136H72.2771L77.1534 34.2711Z" fill="#C44100"/>
<path d="M46.4461 107.701H78.45C81.8983 107.701 84.7567 105.032 84.9883 101.595L87.9041 58.197C88.1572 54.4165 85.1531 51.2108 81.3586 51.2132L50.1188 51.2442C46.7159 51.2466 43.8837 53.8512 43.5972 57.2357L39.9173 100.603C39.5925 104.422 42.6086 107.701 46.4461 107.701Z" fill="#C44100"/>
<path d="M95.1518 107.685L64.2391 107.608C61.1467 107.601 58.5796 105.225 58.3336 102.146L54.7851 57.5697C54.5104 54.1326 57.2184 51.187 60.6715 51.1679L91.8229 50.9842C94.9464 50.9651 97.5517 53.367 97.7809 56.4797L101.091 101.316C101.344 104.76 98.612 107.694 95.1518 107.685Z" fill="#FF5A00"/>
<path d="M71.8716 86.0539C73.0821 83.7307 75.3417 82.1284 78.5698 82.1284C81.7978 82.1284 83.4925 84.4516 84.2995 86.0538" stroke="white" stroke-width="3.23516" stroke-linecap="round"/>
<path d="M81.6924 72.5674L81.6924 75.4095" stroke="white" stroke-width="3.23516" stroke-linecap="round"/>
<path d="M71.3308 72.6149L71.3308 75.4569" stroke="white" stroke-width="3.23516" stroke-linecap="round"/>
</svg>
