<svg width="24" height="24" viewBox="0 0 24 24" fill="none" xmlns="http://www.w3.org/2000/svg">
<path d="M7.91667 6.06233V8.43733H11.4167V6.06233C11.4167 5.07893 10.6328 4.28108 9.66667 4.28108C8.70052 4.28108 7.91667 5.07893 7.91667 6.06233ZM6.16667 8.43733V6.06233C6.16667 4.09554 7.73438 2.49983 9.66667 2.49983C11.599 2.49983 13.1667 4.09554 13.1667 6.06233V8.43733H15.5C16.787 8.43733 17.8333 9.50237 17.8333 10.8123H10.25C8.63854 10.8123 7.33333 12.1408 7.33333 13.7811V19.7186C7.33333 19.9227 7.35521 20.1194 7.39167 20.3123H3.83333C2.54635 20.3123 1.5 19.2473 1.5 17.9373V10.8123C1.5 9.50237 2.54635 8.43733 3.83333 8.43733H6.16667ZM10.8333 11.9998H20.1667C21.4536 11.9998 22.5 13.0649 22.5 14.3748V19.1248C22.5 20.4348 21.4536 21.4998 20.1667 21.4998H10.8333C9.54635 21.4998 8.5 20.4348 8.5 19.1248V14.3748C8.5 13.0649 9.54635 11.9998 10.8333 11.9998ZM13.1667 14.9686C13.1667 14.642 12.9042 14.3748 12.5833 14.3748C12.2625 14.3748 12 14.642 12 14.9686V15.5623C12 17.5291 13.5677 19.1248 15.5 19.1248C17.4323 19.1248 19 17.5291 19 15.5623V14.9686C19 14.642 18.7375 14.3748 18.4167 14.3748C18.0958 14.3748 17.8333 14.642 17.8333 14.9686V15.5623C17.8333 16.8723 16.787 17.9373 15.5 17.9373C14.213 17.9373 13.1667 16.8723 13.1667 15.5623V14.9686Z" fill="#262626"/>
</svg>
