<svg width="25" height="24" viewBox="0 0 25 24" fill="none" xmlns="http://www.w3.org/2000/svg">
<path d="M19.4196 6.42374C19.8601 5.98325 19.8601 5.27097 19.4196 4.83517C18.9791 4.39937 18.2669 4.39469 17.8311 4.83517L12.2547 10.4116L6.67362 4.83049C6.23313 4.39 5.52085 4.39 5.08505 4.83049C4.64925 5.27097 4.64456 5.98325 5.08505 6.41905L10.6614 11.9954L5.08037 17.5765C4.63988 18.017 4.63988 18.7293 5.08037 19.1651C5.52085 19.6009 6.23313 19.6056 6.66893 19.1651L12.2453 13.5887L17.8264 19.1698C18.2669 19.6102 18.9791 19.6102 19.4149 19.1698C19.8507 18.7293 19.8554 18.017 19.4149 17.5812L13.8386 12.0048L19.4196 6.42374Z" fill="#262626"/>
</svg>
