<svg width="25" height="24" viewBox="0 0 25 24" fill="none" xmlns="http://www.w3.org/2000/svg">
<path d="M7.38995 2.36577C7.94387 1.81184 8.69475 1.5 9.47846 1.5H14.7715C15.5552 1.5 16.3061 1.81184 16.8601 2.36577L21.7592 7.26495C22.3132 7.81887 22.625 8.56975 22.625 9.35346V14.6465C22.625 15.4302 22.3132 16.1811 21.7592 16.7351L16.8601 21.6342C16.3061 22.1882 15.5552 22.5 14.7715 22.5H9.47846C8.69475 22.5 7.94387 22.1882 7.38995 21.6342L2.49077 16.7351C1.93684 16.1811 1.625 15.4302 1.625 14.6465V9.35346C1.625 8.56975 1.93684 7.81887 2.49077 7.26495L7.38995 2.36577ZM8.80144 8.67644C8.41574 9.06213 8.41574 9.68581 8.80144 10.0674L10.7299 11.9959L8.80144 13.9244C8.41574 14.3101 8.41574 14.9338 8.80144 15.3154C9.18713 15.697 9.81081 15.7011 10.1924 15.3154L12.1209 13.3869L14.0494 15.3154C14.4351 15.7011 15.0588 15.7011 15.4404 15.3154C15.822 14.9297 15.8261 14.306 15.4404 13.9244L13.5119 11.9959L15.4404 10.0674C15.8261 9.68171 15.8261 9.05803 15.4404 8.67644C15.0547 8.29484 14.431 8.29074 14.0494 8.67644L12.1209 10.6049L10.1924 8.67644C9.80671 8.29074 9.18303 8.29074 8.80144 8.67644Z" fill="#262626"/>
</svg>
