<svg width="24" height="24" viewBox="0 0 24 24" fill="none" xmlns="http://www.w3.org/2000/svg">
<path d="M5.54678 20.5314C4.96669 20.5314 4.5 20.9703 4.5 21.5157C4.5 22.0612 4.96669 22.5 5.54678 22.5H10.0828C12.2025 22.5 13.921 20.8841 13.921 18.891V4.8609L17.7156 8.42891C18.1256 8.81442 18.7885 8.81442 19.1941 8.42891C19.5998 8.0434 19.6041 7.42003 19.1941 7.03862L13.6157 1.78913C13.2057 1.40362 12.5427 1.40362 12.1371 1.78913L6.54994 7.03862C6.13995 7.42413 6.13995 8.0475 6.54994 8.42891C6.95993 8.81032 7.62289 8.81442 8.02851 8.42891L11.8231 4.8609L11.8274 18.891C11.8274 19.7973 11.0467 20.5314 10.0828 20.5314H5.54678Z" fill="#262626"/>
</svg>
