<svg width="25" height="24" viewBox="0 0 25 24" fill="none" xmlns="http://www.w3.org/2000/svg">
<path d="M4.04688 1.5H7.32812C7.87363 1.5 8.3125 1.93887 8.3125 2.48438C8.3125 3.02988 7.87363 3.46875 7.32812 3.46875H4.04688C3.86641 3.46875 3.71875 3.61641 3.71875 3.79688V7.07812C3.71875 7.62363 3.27988 8.0625 2.73438 8.0625C2.18887 8.0625 1.75 7.62363 1.75 7.07812V3.79688C1.75 2.52949 2.77949 1.5 4.04688 1.5ZM17.1719 1.5H20.4531C21.7205 1.5 22.75 2.52949 22.75 3.79688V7.07812C22.75 7.62363 22.3111 8.0625 21.7656 8.0625C21.2201 8.0625 20.7812 7.62363 20.7812 7.07812V3.79688C20.7812 3.61641 20.6336 3.46875 20.4531 3.46875H17.1719C16.6264 3.46875 16.1875 3.02988 16.1875 2.48438C16.1875 1.93887 16.6264 1.5 17.1719 1.5ZM3.71875 16.9219V20.2031C3.71875 20.3836 3.86641 20.5312 4.04688 20.5312H7.32812C7.87363 20.5312 8.3125 20.9701 8.3125 21.5156C8.3125 22.0611 7.87363 22.5 7.32812 22.5H4.04688C2.77949 22.5 1.75 21.4705 1.75 20.2031V16.9219C1.75 16.3764 2.18887 15.9375 2.73438 15.9375C3.27988 15.9375 3.71875 16.3764 3.71875 16.9219ZM22.75 16.9219V20.2031C22.75 21.4705 21.7205 22.5 20.4531 22.5H17.1719C16.6264 22.5 16.1875 22.0611 16.1875 21.5156C16.1875 20.9701 16.6264 20.5312 17.1719 20.5312H20.4531C20.6336 20.5312 20.7812 20.3836 20.7812 20.2031V16.9219C20.7812 16.3764 21.2201 15.9375 21.7656 15.9375C22.3111 15.9375 22.75 16.3764 22.75 16.9219Z" fill="#262626"/>
<rect x="1.75" y="11" width="21" height="2" rx="1" fill="#262626"/>
</svg>
