<svg width="24" height="24" viewBox="0 0 24 24" fill="none" xmlns="http://www.w3.org/2000/svg">
<path fill-rule="evenodd" clip-rule="evenodd" d="M6.02584 9.48435C5.47607 10.2093 5.25 11.1318 5.25 12H1.5L2.13903 19.535C2.2125 21.45 3.5127 22.5 5.68457 22.5H11.5654C13.9609 22.5 15.0375 21.45 15.111 19.5351L15.75 12H12C12 11.1318 11.7739 10.2093 11.2242 9.48435C10.6543 8.73277 9.77588 8.25 8.625 8.25C7.47415 8.25 6.59574 8.73277 6.02584 9.48435ZM7.22104 10.3907C6.91768 10.7907 6.75 11.3682 6.75 12H10.5C10.5 11.3682 10.3323 10.7907 10.029 10.3907C9.74572 10.0172 9.31163 9.75 8.625 9.75C7.93837 9.75 7.50427 10.0172 7.22104 10.3907ZM3.50449 18.8822C3.5625 20.25 4.58897 21 6.30361 21H10.9464C12.8376 21 13.6875 20.25 13.7455 18.8822L14.25 13.5H3L3.50449 18.8822Z" fill="#262626"/>
<path fill-rule="evenodd" clip-rule="evenodd" d="M12.7758 1.98432C12.2261 2.70928 12 3.63178 12 4.5H8.25L8.56808 8.25037C7.44515 8.26605 6.5863 8.74522 6.02584 9.48435C5.47607 10.2093 5.25 11.1318 5.25 12H1.5L2.13903 19.535C2.2125 21.45 3.5127 22.5 5.68457 22.5H11.5654C13.9609 22.5 15.0375 21.45 15.111 19.5351L15.4956 15H18.3155C20.711 15 21.7875 13.95 21.861 12.0351L22.5 4.5H18.75C18.75 3.63178 18.5239 2.70928 17.9742 1.98432C17.4043 1.2328 16.5259 0.75 15.375 0.75C14.2241 0.75 13.3457 1.2328 12.7758 1.98432ZM15.6228 13.5H17.6964C19.5876 13.5 20.4375 12.75 20.4955 11.3822L21 6H9.75L9.98557 8.51332C10.4906 8.72813 10.9056 9.0642 11.2242 9.48435C11.7739 10.2093 12 11.1318 12 12H15.75L15.6228 13.5ZM13.9711 2.89068C13.6677 3.29072 13.5 3.86822 13.5 4.5H17.25C17.25 3.86822 17.0823 3.29072 16.779 2.89068C16.4957 2.5172 16.0616 2.25 15.375 2.25C14.6884 2.25 14.2543 2.5172 13.9711 2.89068ZM6.75 12C6.75 11.3682 6.91768 10.7907 7.22104 10.3906C7.50427 10.0172 7.93837 9.75 8.625 9.75C9.31163 9.75 9.74572 10.0172 10.029 10.3906C10.3323 10.7907 10.5 11.3682 10.5 12H6.75ZM6.30361 21C4.58897 21 3.5625 20.25 3.50449 18.8822L3 13.5H14.25L13.7455 18.8822C13.6875 20.25 12.8376 21 10.9464 21H6.30361Z" fill="#262626"/>
</svg>
