<svg width="24" height="24" viewBox="0 0 24 24" fill="none" xmlns="http://www.w3.org/2000/svg">
<path d="M3 11.0501V18.8445C3 20.8637 4.7277 22.4999 6.85985 22.4999H17.1402C19.2723 22.4999 21 20.8637 21 18.8445V11.0501C20.6078 11.4968 20.0871 11.8157 19.5 11.9411V18.8445C19.5 19.9594 18.5218 20.9999 17.1402 20.9999H6.85985C5.47819 20.9999 4.5 19.9594 4.5 18.8445V11.9411C3.91291 11.8157 3.39223 11.4968 3 11.0501Z" fill="#262626"/>
<path fill-rule="evenodd" clip-rule="evenodd" d="M3.36741 1.5H20.6461L20.8168 2.01335L20.1051 2.25C20.8168 2.01335 20.8168 2.01335 20.8168 2.01335L20.8215 2.02761L20.8344 2.06685C20.8457 2.10106 20.862 2.15113 20.8828 2.21544C20.9243 2.34405 20.9837 2.52972 21.0553 2.75954C21.1984 3.21888 21.391 3.85611 21.589 4.56756C21.9791 5.96967 22.4107 7.73117 22.4982 8.97711L22.5 9.00333V9.02962C22.5 11.0443 20.9455 12.75 18.9405 12.75C18.0512 12.75 17.2451 12.4096 16.6274 11.8573C16.0611 12.3638 15.3362 12.692 14.5325 12.7431L14.5207 12.7438L14.3257 12.75H14.3138C13.4242 12.75 12.6177 12.4097 11.9998 11.8572C11.4336 12.3637 10.7086 12.692 9.90491 12.7431L9.89301 12.7438L9.69805 12.75H9.68618C8.79685 12.75 7.99062 12.4096 7.37289 11.8571C6.80662 12.3636 6.08171 12.692 5.27822 12.7431L5.26632 12.7438L5.07141 12.75H5.05953C3.05449 12.75 1.5 11.0443 1.5 9.02962C1.5 7.80778 1.94355 6.01592 2.35205 4.60557C2.56109 3.88387 2.76983 3.23313 2.92621 2.763C3.00447 2.52772 3.0698 2.33715 3.11573 2.20492C3.1387 2.13879 3.15683 2.08722 3.16932 2.05191L3.18372 2.01133L3.18891 1.99682C3.18891 1.99682 3.18906 1.9964 3.89488 2.25L3.18891 1.99682L3.36741 1.5ZM4.42887 3C4.40442 3.07222 4.37787 3.15127 4.34953 3.23645C4.1975 3.69351 3.99501 4.32488 3.79283 5.02289C3.3789 6.45198 3 8.04992 3 9.02962C3 10.2916 3.95429 11.2437 5.04864 11.25L5.19399 11.2454C5.79109 11.204 6.33124 10.8853 6.68962 10.386L7.37286 9.35343L8.05609 10.386C8.43857 10.9189 9.02776 11.2463 9.67527 11.25L9.82073 11.2454C10.418 11.204 10.9578 10.8856 11.316 10.3868L11.9978 9.35178L12.6827 10.3859C13.0653 10.9188 13.6547 11.2463 14.3029 11.25L14.4484 11.2454C15.0456 11.204 15.5855 10.8856 15.9437 10.3868L16.6257 9.3513L17.3104 10.386C17.695 10.9219 18.2887 11.25 18.9405 11.25C20.032 11.25 20.9872 10.3085 20.9999 9.05492C20.9197 7.97763 20.5321 6.36482 20.1439 4.96969C19.951 4.27663 19.763 3.65455 19.6231 3.2057C19.6003 3.13231 19.5787 3.0636 19.5586 3H4.42887Z" fill="#262626"/>
<path d="M15 22V15H9V22H15Z" fill="#262626"/>
</svg>
