<svg width="25" height="24" viewBox="0 0 25 24" fill="none" xmlns="http://www.w3.org/2000/svg">
<path d="M4.50716 3.75C3.22018 3.75 2.17383 4.80703 2.17383 6.10714V7.28571H23.1738V6.10714C23.1738 4.80703 22.1275 3.75 20.8405 3.75H4.50716ZM23.1738 10.8214H2.17383V17.8929C2.17383 19.193 3.22018 20.25 4.50716 20.25H20.8405C22.1275 20.25 23.1738 19.193 23.1738 17.8929V10.8214ZM6.25716 15.5357H8.59049C8.91133 15.5357 9.17383 15.8009 9.17383 16.125C9.17383 16.4491 8.91133 16.7143 8.59049 16.7143H6.25716C5.93633 16.7143 5.67383 16.4491 5.67383 16.125C5.67383 15.8009 5.93633 15.5357 6.25716 15.5357ZM10.3405 16.125C10.3405 15.8009 10.603 15.5357 10.9238 15.5357H15.5905C15.9113 15.5357 16.1738 15.8009 16.1738 16.125C16.1738 16.4491 15.9113 16.7143 15.5905 16.7143H10.9238C10.603 16.7143 10.3405 16.4491 10.3405 16.125Z" fill="#262626"/>
</svg>
