<svg width="25" height="24" viewBox="0 0 25 24" fill="none" xmlns="http://www.w3.org/2000/svg">
<path d="M9.47846 3.46952C9.21586 3.46952 8.96556 3.5721 8.78092 3.75674L3.88174 8.65592C3.6971 8.84056 3.59452 9.09086 3.59452 9.35346V14.6465C3.59452 14.9091 3.6971 15.1594 3.88174 15.3441L2.49077 16.7351C1.93684 16.1811 1.625 15.4302 1.625 14.6465V9.35346C1.625 8.56975 1.93684 7.81887 2.49077 7.26495L7.38995 2.36577C7.94387 1.81184 8.69475 1.5 9.47846 1.5H14.7715C15.5552 1.5 16.3061 1.81184 16.8601 2.36577L21.7592 7.26495C22.3132 7.81887 22.625 8.56975 22.625 9.35346V14.6465C22.625 15.4302 22.3132 16.1811 21.7592 16.7351L16.8601 21.6342C16.3061 22.1882 15.5552 22.5 14.7715 22.5H9.47846C8.69475 22.5 7.94387 22.1882 7.38995 21.6342L2.49077 16.7351L3.88174 15.3441L8.78092 20.2433C8.96556 20.4279 9.21586 20.5305 9.47846 20.5305H14.7715C15.0341 20.5305 15.2844 20.4279 15.4691 20.2433L20.3683 15.3441C20.5529 15.1594 20.6555 14.9091 20.6555 14.6465V9.35346C20.6555 9.09086 20.5529 8.84056 20.3683 8.65592L15.4691 3.75674C15.2844 3.5721 15.0341 3.46952 14.7715 3.46952H9.47846ZM8.80144 8.67644C9.18713 8.29074 9.81081 8.29074 10.1924 8.67644L12.1209 10.6049L14.0494 8.67644C14.4351 8.29074 15.0588 8.29074 15.4404 8.67644C15.822 9.06213 15.8261 9.68581 15.4404 10.0674L13.5119 11.9959L15.4404 13.9244C15.8261 14.3101 15.8261 14.9338 15.4404 15.3154C15.0547 15.697 14.431 15.7011 14.0494 15.3154L12.1209 13.3869L10.1924 15.3154C9.80671 15.7011 9.18303 15.7011 8.80144 15.3154C8.41984 14.9297 8.41574 14.306 8.80144 13.9244L10.7299 11.9959L8.80144 10.0674C8.41574 9.68171 8.41574 9.05803 8.80144 8.67644Z" fill="#262626"/>
</svg>
