<svg width="24" height="24" viewBox="0 0 24 24" fill="none" xmlns="http://www.w3.org/2000/svg">
<path fill-rule="evenodd" clip-rule="evenodd" d="M1.5 9H19.5V19.5H1.5V9ZM3 18H18V10.5H3V18Z" fill="#262626"/>
<path fill-rule="evenodd" clip-rule="evenodd" d="M10.4997 13.5C10.0858 13.5 9.75003 13.8355 9.75003 14.25C9.75003 14.6645 10.0858 15 10.4997 15C10.9141 15 11.25 14.6638 11.25 14.25C11.25 13.8362 10.9141 13.5 10.4997 13.5ZM8.25003 14.25C8.25003 13.0073 9.25718 12 10.4997 12C11.7422 12 12.75 13.0074 12.75 14.25C12.75 15.4926 11.7422 16.5 10.4997 16.5C9.25718 16.5 8.25003 15.4927 8.25003 14.25Z" fill="#262626"/>
<path fill-rule="evenodd" clip-rule="evenodd" d="M15.3748 13.125C14.7536 13.125 14.25 13.6287 14.25 14.25C14.25 14.8713 14.7536 15.375 15.3748 15.375C15.9961 15.375 16.5 14.8713 16.5 14.25C16.5 13.6287 15.9961 13.125 15.3748 13.125Z" fill="#262626"/>
<path fill-rule="evenodd" clip-rule="evenodd" d="M5.62484 13.125C5.00361 13.125 4.50003 13.6287 4.50003 14.25C4.50003 14.8713 5.00361 15.375 5.62484 15.375C6.24613 15.375 6.75003 14.8713 6.75003 14.25C6.75003 13.6287 6.24613 13.125 5.62484 13.125Z" fill="#262626"/>
<path fill-rule="evenodd" clip-rule="evenodd" d="M21 7.5H4.50003V6H22.5V16.5H21V7.5Z" fill="#262626"/>
</svg>
