<svg width="24" height="24" viewBox="0 0 24 24" fill="none" xmlns="http://www.w3.org/2000/svg">
<path fill-rule="evenodd" clip-rule="evenodd" d="M21 5.25H3V18.75H21V5.25ZM1.5 3.75V20.25H22.5V3.75H1.5Z" fill="#262626"/>
<path fill-rule="evenodd" clip-rule="evenodd" d="M12.6045 10.3205C13.1625 9.40637 14.4711 9.35459 15.0995 10.2218L21.2323 18.6849L20.0177 19.5651C20.0177 19.6817 3.59756 19.9532 3.59756 19.9532L2.40244 19.0468L6.31222 13.8919C6.89709 13.1208 8.0483 13.0972 8.66429 13.8437L9.69322 15.0906L12.6045 10.3205Z" fill="#262626"/>
<path fill-rule="evenodd" clip-rule="evenodd" d="M6.75 11.25C7.99264 11.25 9 10.2426 9 9C9 7.75736 7.99264 6.75 6.75 6.75C5.50736 6.75 4.5 7.75736 4.5 9C4.5 10.2426 5.50736 11.25 6.75 11.25Z" fill="#262626"/>
</svg>
