<svg width="24" height="24" viewBox="0 0 24 24" fill="none" xmlns="http://www.w3.org/2000/svg">
<path fill-rule="evenodd" clip-rule="evenodd" d="M11.7312 1.50581C8.43556 1.64876 5.89404 4.41088 5.89404 7.91638V8.13491L5.68404 8.13621C3.44963 8.13621 1.63418 10.0986 1.50104 12.5003L1.5 17.25H17.5877C20.3006 17.25 22.5 14.9382 22.5 12.0853L22.494 11.8275C22.3782 9.3507 20.6033 7.33319 18.3136 6.97668L18.1158 6.95043C17.6283 3.84091 15.0619 1.5 12 1.5L11.7312 1.50581Z" fill="#262626"/>
<path d="M4.5 18.75L6 18.75L4.125 22.5H2.625L4.5 18.75Z" fill="#262626"/>
<path d="M10.125 18.75L11.625 18.75L9.75 22.5H8.25L10.125 18.75Z" fill="#262626"/>
<path d="M15.75 18.75L17.25 18.75L15.375 22.5H13.875L15.75 18.75Z" fill="#262626"/>
</svg>
