<svg width="20" height="20" viewBox="0 0 20 20" fill="none" xmlns="http://www.w3.org/2000/svg">
<g clip-path="url(#clip0_4780_83950)">
<path d="M9.99999 0.799988C4.92371 0.799988 0.799988 4.92371 0.799988 9.99999C0.799988 15.0763 4.92371 19.2 9.99999 19.2C15.0763 19.2 19.2 15.0763 19.2 9.99999C19.2 4.92371 15.0763 0.799988 9.99999 0.799988ZM9.99999 1.59999C14.6439 1.59999 18.4 5.35606 18.4 9.99999C18.4 10.5284 18.3493 11.0449 18.2562 11.5461C18.1091 11.4743 17.8761 11.326 17.5984 11.0773C17.1964 10.7173 16.7027 10.2116 16.1125 9.69843C14.9322 8.67206 13.3333 7.59999 11.2 7.59999C9.06666 7.59999 7.55739 8.68101 6.19061 9.8453C6.18143 9.85312 6.17244 9.86091 6.16327 9.86874C5.37682 9.47079 4.53319 9.19999 3.59999 9.19999C2.82416 9.19999 2.09981 9.47378 1.60702 9.71405C1.75771 5.20309 5.45193 1.59999 9.99999 1.59999ZM11.2 8.39999C13.0667 8.39999 14.4678 9.32792 15.5875 10.3016C16.1473 10.7884 16.6286 11.2827 17.0641 11.6726C17.1161 11.7192 17.1657 11.7609 17.2164 11.8055C16.8345 11.9364 16.4798 12.1181 16.1375 12.3117C16.1144 12.2962 16.0954 12.2829 16.0719 12.2672C15.3014 11.7535 14.2952 11.2 12.8 11.2C11.5946 11.2 10.5678 11.6636 9.61952 12.2445C9.28159 12.0029 8.93989 11.7456 8.59139 11.4812C8.05246 11.0724 7.49604 10.654 6.91014 10.2883C8.17378 9.23202 9.42714 8.39999 11.2 8.39999ZM3.59999 9.99999C4.26236 9.99999 4.88922 10.1727 5.49764 10.4445C4.43302 11.3702 3.37264 12.2609 2.06093 12.7469C1.82762 12.0712 1.67856 11.3566 1.62499 10.6148C2.0003 10.4079 2.83647 9.99999 3.59999 9.99999ZM6.26327 10.8422C6.88612 11.2079 7.49579 11.6539 8.10858 12.1187C8.37105 12.3179 8.63625 12.516 8.90155 12.7133C8.72511 12.8331 8.54565 12.9513 8.37264 13.0711C8.02859 13.3093 7.68963 13.5413 7.35077 13.7555C6.40602 13.2164 5.43052 12.8 4.39999 12.8C4.1517 12.8 3.92599 12.8114 3.71171 12.8281C4.66189 12.2499 5.4749 11.531 6.26327 10.8422ZM12.8 12C13.9478 12 14.6944 12.3498 15.3555 12.7641C14.5779 13.214 13.8063 13.6 12.8 13.6C11.9728 13.6 11.1717 13.2485 10.3594 12.7406C11.1349 12.3042 11.9259 12 12.8 12ZM18.0437 12.4273C17.9664 12.6845 17.8764 12.9359 17.7758 13.182C17.4864 13.1365 17.2066 12.9974 16.9094 12.8164C17.283 12.6297 17.6527 12.482 18.0437 12.4273ZM9.59686 13.2109C10.1016 13.5527 10.621 13.8494 11.1648 14.0633C10.6257 14.3543 10.1196 14.7528 9.63358 15.1742C9.36283 15.0083 9.09123 14.8399 8.81639 14.6633C8.58254 14.5129 8.34533 14.3639 8.10858 14.2148C8.35045 14.0536 8.59227 13.8916 8.82733 13.7289C9.08633 13.5496 9.3416 13.3786 9.59686 13.2109ZM16.1023 13.2578C16.5145 13.5404 16.9363 13.8016 17.4265 13.9242C17.3215 14.1229 17.2053 14.3143 17.0851 14.5031C17.0645 14.5258 16.9756 14.6234 16.7812 14.7961C16.568 14.7855 15.9556 14.5311 15.2578 14.232C15.0762 14.1542 14.8858 14.0756 14.6883 14.0008C15.1479 13.8085 15.5652 13.5727 15.9531 13.3445C16.0045 13.3143 16.0518 13.2875 16.1023 13.2578ZM4.39999 13.6C5.07325 13.6 5.78528 13.856 6.52108 14.2312C5.84702 14.5731 5.15419 14.8 4.39999 14.8C3.37777 14.8 2.6828 14.1172 2.6828 14.1172L2.68124 14.1187C2.62869 14.0255 2.5795 13.9306 2.53046 13.8351C2.871 13.731 3.45895 13.6 4.39999 13.6ZM12.8 14.4C13.5 14.4 14.2549 14.6734 14.9422 14.968C15.3092 15.1252 15.6422 15.291 15.9648 15.4148C15.2096 15.9039 14.121 16.4 12.8 16.4C12.0314 16.4 11.2132 16.0726 10.3656 15.607C11.2087 14.9221 12.0577 14.4 12.8 14.4ZM7.35468 14.693C7.69405 14.896 8.03748 15.1142 8.38358 15.3367C8.58834 15.4683 8.79618 15.5985 9.00311 15.7297C8.45951 16.2245 7.94696 16.7092 7.49374 17.0578C7.04741 17.4011 6.66262 17.5836 6.42655 17.5953C5.36266 17.0945 4.42219 16.3805 3.66014 15.5031C3.8889 15.5589 4.1324 15.6 4.39999 15.6C5.50994 15.6 6.4692 15.2084 7.35468 14.693ZM9.71718 16.168C10.703 16.7436 11.7214 17.2 12.8 17.2C13.5609 17.2 14.2518 17.0577 14.8601 16.8461C13.4881 17.8213 11.8139 18.4 9.99999 18.4C9.13064 18.4 8.2922 18.2679 7.50389 18.0234C7.66304 17.9236 7.82197 17.8147 7.98124 17.6922C8.49493 17.297 9.0232 16.792 9.56874 16.2961C9.61766 16.2516 9.66799 16.212 9.71718 16.168Z" fill="black"/>
</g>
<defs>
<clipPath id="clip0_4780_83950">
<rect width="20" height="20" fill="white"/>
</clipPath>
</defs>
</svg>
