<svg width="25" height="24" viewBox="0 0 25 24" fill="none" xmlns="http://www.w3.org/2000/svg">
<path d="M16.4441 8.49334C15.7988 8.49334 15.2775 7.97198 15.2775 7.32667C15.2775 6.68136 15.7988 6.16 16.4441 6.16H22.2775C22.9228 6.16 23.4441 6.68136 23.4441 7.32667V13.16C23.4441 13.8053 22.9228 14.3267 22.2775 14.3267C21.6322 14.3267 21.1108 13.8053 21.1108 13.16V10.1449L14.9348 16.3173C14.479 16.773 13.7389 16.773 13.2832 16.3173L9.44414 12.4782L4.43477 17.484C3.97904 17.9397 3.23893 17.9397 2.7832 17.484C2.32747 17.0282 2.32747 16.2881 2.7832 15.8324L8.61654 9.99907C9.07227 9.54334 9.81237 9.54334 10.2681 9.99907L14.1108 13.8418L19.4592 8.49334H16.4441Z" fill="#262626"/>
</svg>
