<svg width="25" height="24" viewBox="0 0 25 24" fill="none" xmlns="http://www.w3.org/2000/svg">
<path d="M13.0846 5.30357C13.0846 4.85826 13.4406 4.5 13.883 4.5H15.2568C16.0485 4.5 16.7571 5.00558 17.0165 5.75893L17.286 6.53906L18.9825 5.68527C19.1288 5.61161 19.2918 5.57143 19.4581 5.57143H19.7376C20.0303 5.57143 20.2698 5.8125 20.2698 6.10714V8.25C20.2698 8.54464 20.0303 8.78571 19.7376 8.78571H19.4581C19.2918 8.78571 19.1288 8.74554 18.9825 8.67188L17.8215 8.08594L18.8062 10.942C18.9392 10.9319 19.0723 10.9286 19.2053 10.9286C20.659 10.9286 21.9763 11.5145 22.9343 12.4621C23.2503 12.7734 23.2536 13.2824 22.9443 13.5971C22.6349 13.9118 22.1293 13.9185 21.8166 13.6071C21.1413 12.9442 20.2232 12.5357 19.2053 12.5357C17.3724 12.5357 15.8456 13.8683 15.5362 15.6261C15.4697 16.0112 15.1371 16.2891 14.7512 16.2891H13.3508C13.3208 16.2891 13.2942 16.2891 13.2643 16.2857H11.754H10.6896C10.6896 18.0603 9.2592 19.5 7.49617 19.5C5.73315 19.5 4.30277 18.0603 4.30277 16.2857H3.2383C2.64951 16.2857 2.17383 15.8069 2.17383 15.2143V14.1429C2.17383 11.7757 4.07989 9.85714 6.4317 9.85714H9.62511C10.2139 9.85714 10.6896 10.3359 10.6896 10.9286V13.6071C10.6896 14.1998 11.1653 14.6786 11.754 14.6786H13.0846H14.1258C14.6082 13.1384 15.7591 11.8962 17.2394 11.3069L15.5063 6.28795C15.4697 6.1808 15.3666 6.10714 15.2535 6.10714H13.883C13.4406 6.10714 13.0846 5.74888 13.0846 5.30357ZM6.16559 7.17857H9.89123C10.3336 7.17857 10.6896 7.53683 10.6896 7.98214C10.6896 8.42746 10.3336 8.78571 9.89123 8.78571H6.16559C5.72317 8.78571 5.36723 8.42746 5.36723 7.98214C5.36723 7.53683 5.72317 7.17857 6.16559 7.17857ZM9.09288 11.4643H6.4317C4.96141 11.4643 3.77053 12.6629 3.77053 14.1429V14.6786H9.31575C9.17271 14.3504 9.09288 13.9888 9.09288 13.6071V11.4643ZM7.49617 17.8929C8.37769 17.8929 9.09288 17.173 9.09288 16.2857H5.89947C5.89947 17.173 6.61466 17.8929 7.49617 17.8929ZM19.2053 17.8929C19.6288 17.8929 20.0349 17.7235 20.3344 17.4221C20.6338 17.1207 20.802 16.712 20.802 16.2857C20.802 15.8595 20.6338 15.4507 20.3344 15.1493C20.0349 14.8479 19.6288 14.6786 19.2053 14.6786C18.7819 14.6786 18.3757 14.8479 18.0763 15.1493C17.7768 15.4507 17.6086 15.8595 17.6086 16.2857C17.6086 16.712 17.7768 17.1207 18.0763 17.4221C18.3757 17.7235 18.7819 17.8929 19.2053 17.8929ZM19.2053 13.0714C20.0523 13.0714 20.8645 13.4101 21.4634 14.0129C22.0623 14.6157 22.3987 15.4332 22.3987 16.2857C22.3987 17.1382 22.0623 17.9558 21.4634 18.5586C20.8645 19.1614 20.0523 19.5 19.2053 19.5C18.3584 19.5 17.5461 19.1614 16.9473 18.5586C16.3484 17.9558 16.0119 17.1382 16.0119 16.2857C16.0119 15.4332 16.3484 14.6157 16.9473 14.0129C17.5461 13.4101 18.3584 13.0714 19.2053 13.0714Z" fill="#262626"/>
</svg>
