<svg width="24" height="24" viewBox="0 0 24 24" fill="none" xmlns="http://www.w3.org/2000/svg">
<path d="M17.8222 10.7122C17.1343 10.7122 16.6082 11.0158 16.3445 12.5121C16.0808 14.0085 16.4884 14.3835 17.1751 14.3835C17.8617 14.3835 18.4005 14.0212 18.6667 12.5121C18.933 11.0031 18.5088 10.7122 17.8222 10.7122Z" fill="#030CCB"/>
<path fill-rule="evenodd" clip-rule="evenodd" d="M22.0912 5.625H4.07382C3.47894 5.625 2.90698 6.13526 2.79997 6.74629L1.01658 17.2448C0.912126 17.8622 1.31212 18.3673 1.90828 18.3673H2.94774L4.47636 9.66112H5.64958L5.77696 10.3155C6.32227 9.84083 7.01516 9.57032 7.73742 9.55014C9.11191 9.55014 9.95901 10.3921 9.56412 12.6372C9.16922 14.8823 8.02403 15.7229 6.65082 15.7229C6.10689 15.7383 5.57739 15.5464 5.16933 15.1859L4.60757 18.375H19.9269C20.5205 18.375 21.0925 17.8647 21.2008 17.2524L22.9841 6.75394C23.0861 6.12888 22.6861 5.625 22.0912 5.625ZM12.6048 11.4164C12.4287 11.5565 12.3096 11.756 12.2698 11.9777L11.6329 15.603H9.97685L11.0227 9.66367H12.1946L12.336 10.4112C13.0086 9.81547 13.8646 9.55779 14.4162 9.55779C14.9143 9.55779 15.0289 9.77975 14.9423 10.2709C14.8854 10.6034 14.7548 10.919 14.5602 11.1944C13.8506 10.924 13.0787 11.0171 12.6048 11.4164ZM20.3957 12.5147C20.0135 14.6833 18.6594 15.649 16.9563 15.649C15.2264 15.649 14.2239 14.7484 14.6175 12.5147C14.9882 10.4112 16.3168 9.45319 18.0467 9.45319C19.7766 9.45319 20.7766 10.35 20.3957 12.5122V12.5147Z" fill="#030CCB"/>
<path d="M7.83289 12.6308C7.5692 14.1284 7.04947 14.3835 6.44567 14.3835C6.27083 14.383 6.09924 14.3363 5.94825 14.248C5.79725 14.1597 5.67222 14.0331 5.58582 13.8809C5.48646 13.7061 5.4406 13.4957 5.54505 12.8999L5.63932 12.3616C5.73995 11.7621 5.8737 11.5427 6.02147 11.3794C6.15441 11.2307 6.31534 11.1098 6.49502 11.0236C6.6747 10.9374 6.86961 10.8875 7.06858 10.8768C7.66729 10.8768 8.09658 11.1332 7.83289 12.6308Z" fill="#030CCB"/>
</svg>
