<svg width="25" height="24" viewBox="0 0 25 24" fill="none" xmlns="http://www.w3.org/2000/svg">
<path d="M5.775 1.73722C5.47917 1.48701 5.0625 1.42958 4.70833 1.58955C4.35417 1.74952 4.125 2.09818 4.125 2.48375V21.5162C4.125 21.9018 4.35417 22.2505 4.70833 22.4104C5.0625 22.5704 5.47917 22.513 5.775 22.2628L7.45833 20.8435L9.14167 22.2628C9.51667 22.5786 10.0708 22.5786 10.4417 22.2628L12.125 20.8435L13.8083 22.2628C14.1833 22.5786 14.7375 22.5786 15.1083 22.2628L16.7917 20.8435L18.475 22.2628C18.7708 22.513 19.1875 22.5704 19.5417 22.4104C19.8958 22.2505 20.125 21.9018 20.125 21.5162V2.48375C20.125 2.09818 19.8958 1.74952 19.5417 1.58955C19.1875 1.42958 18.7708 1.48701 18.475 1.73722L16.7917 3.15645L15.1083 1.73722C14.7333 1.42138 14.1792 1.42138 13.8083 1.73722L12.125 3.15645L10.4417 1.73722C10.0667 1.42138 9.5125 1.42138 9.14167 1.73722L7.45833 3.15645L5.775 1.73722ZM6.125 19.3751V4.62491L6.80833 5.19916C7.18333 5.515 7.7375 5.515 8.10833 5.19916L9.79167 3.77993L11.475 5.19916C11.85 5.515 12.4042 5.515 12.775 5.19916L14.4583 3.77993L16.1417 5.19916C16.5167 5.515 17.0708 5.515 17.4417 5.19916L18.125 4.62491V19.3751L17.4417 18.8008C17.0667 18.485 16.5125 18.485 16.1417 18.8008L14.4583 20.2201L12.775 18.8008C12.4 18.485 11.8458 18.485 11.475 18.8008L9.79167 20.2201L8.10833 18.8008C7.73333 18.485 7.17917 18.485 6.80833 18.8008L6.125 19.3751ZM9.125 7.40595C8.57083 7.40595 8.125 7.84484 8.125 8.39039C8.125 8.93593 8.57083 9.37483 9.125 9.37483H15.125C15.6792 9.37483 16.125 8.93593 16.125 8.39039C16.125 7.84484 15.6792 7.40595 15.125 7.40595H9.125ZM9.125 14.6252C8.57083 14.6252 8.125 15.0641 8.125 15.6096C8.125 16.1552 8.57083 16.5941 9.125 16.5941H15.125C15.6792 16.5941 16.125 16.1552 16.125 15.6096C16.125 15.0641 15.6792 14.6252 15.125 14.6252H9.125ZM8.125 12C8.125 12.5455 8.57083 12.9844 9.125 12.9844H15.125C15.6792 12.9844 16.125 12.5455 16.125 12C16.125 11.4545 15.6792 11.0156 15.125 11.0156H9.125C8.57083 11.0156 8.125 11.4545 8.125 12Z" fill="#262626"/>
</svg>
