<svg width="200" height="156" viewBox="0 0 200 156" fill="none" xmlns="http://www.w3.org/2000/svg">
<path d="M79.7033 116.051L41.7397 118.16L39.7961 142.845C39.4935 146.687 42.2213 150.107 46.0352 150.666L73.4448 154.683C78.066 155.36 82.1319 151.597 81.8135 146.937L79.7033 116.051Z" fill="#F55905"/>
<path d="M16.9269 32.2128V38.8208C16.9269 39.6297 17.2215 40.4103 17.7558 41.0179L74.6694 105.766C76.1558 107.477 78.6858 107.809 80.5633 106.54L117.323 81.7028C118.169 81.1219 118.73 80.2131 118.873 79.1977L119.69 73.3421L16.9269 32.2128Z" fill="#020775"/>
<path d="M89.2231 32.5709L89.2215 32.5705C86.3801 31.7541 83.4149 33.3957 82.5985 36.2371L78.6824 49.8671C77.8661 52.7085 79.5077 55.6737 82.3491 56.4901L82.3507 56.4906C85.1921 57.3069 88.1573 55.6653 88.9737 52.8239L92.8898 39.1939C93.7061 36.3525 92.0645 33.3873 89.2231 32.5709Z" fill="#E09B7E"/>
<path d="M67.414 12.5486H67.4123C64.4559 12.5486 62.0593 14.9453 62.0593 17.9016V32.083C62.0593 35.0394 64.4559 37.436 67.4123 37.436H67.414C70.3703 37.436 72.7669 35.0394 72.7669 32.083V17.9016C72.7669 14.9453 70.3703 12.5486 67.414 12.5486Z" fill="#E09B7E"/>
<path d="M75.3718 21.6652H75.3702C72.4138 21.6652 70.0172 24.0618 70.0172 27.0181V41.1995C70.0172 44.1559 72.4138 46.5525 75.3702 46.5525H75.3718C78.3282 46.5525 80.7248 44.1559 80.7248 41.1995V27.0181C80.7248 24.0618 78.3282 21.6652 75.3718 21.6652Z" fill="#E09B7E"/>
<path d="M70.0172 41.1978V27.0181C70.0172 24.062 72.4141 21.6652 75.3702 21.6652" stroke="#221F20" stroke-width="1.16514" stroke-linecap="round" stroke-linejoin="round"/>
<path d="M117.665 76.8042L81.4838 100.451C79.6512 101.648 77.2194 101.325 75.763 99.6925L70.7495 94.0715L63.1811 85.5843L56.2086 77.7662L24.4819 42.1913L18.057 34.9874C16.0597 32.747 16.8253 29.2117 19.5684 27.9983L33.7881 21.7098L53.4289 13.0246C55.894 11.9343 58.7719 12.4453 60.711 14.3179L66.337 19.7474L74.6061 27.7303L89.4084 42.0182L118.317 69.9215C120.359 71.8923 120.041 75.2512 117.665 76.8042Z" fill="#DEECFF"/>
<path d="M22.1751 33.5211L77.3477 94.9921C78.2914 96.0424 79.8594 96.2504 81.0428 95.4798L113.643 74.2493C114.792 73.5053 114.955 71.8907 113.978 70.932L58.7904 16.8297C57.795 15.8543 56.3036 15.593 55.037 16.1705L22.7177 30.9195C21.7057 31.3822 21.4311 32.6922 22.1751 33.5211Z" fill="#79A5FE"/>
<path opacity="0.2" d="M60.062 42.884C54.0898 52.8392 54.7873 67.7613 56.2087 77.7665L24.4821 42.1915C25.4857 40.1942 27.0237 38.1518 29.3324 36.2344C34.702 31.7769 34.7602 25.9462 33.7882 21.7101L53.429 13.0248C55.8941 11.9346 58.772 12.4456 60.7112 14.3181L66.3371 19.7477C66.0159 26.875 64.5145 35.4654 60.062 42.884Z" fill="white"/>
<path opacity="0.2" d="M77.4941 65.3477C68.8854 75.7491 69.4247 87.4221 70.7496 94.0717L63.1812 85.5845C61.352 75.2065 59.9921 58.9312 67.2509 50.97C73.9088 43.6695 75.4451 36.4174 74.6062 27.7305L89.4085 42.0184C88.9141 45.8683 86.7286 54.1891 77.4941 65.3477Z" fill="white"/>
<path d="M87.5957 38.1061C89.1898 39.806 90.5258 40.3779 91.1159 42.3778C91.1159 42.3778 91.3372 45.7617 91.3823 46.7936C91.579 51.3813 89.2759 56.0371 84.5222 59.2529C76.0023 65.0125 63.4377 63.6926 57.2333 56.1651C55.4261 53.9732 54.418 51.5613 54.1352 49.1375C54.0655 48.5215 53.8811 44.9857 53.9016 44.3737C54.0655 39.398 57.3726 37.5101 62.8025 34.6583C70.9904 30.3625 81.8175 31.9384 87.5998 38.1061H87.5957Z" fill="#04882E"/>
<path d="M87.3924 34.7281C93.3506 41.1154 92.2621 50.5579 84.3232 55.9536C75.8155 61.7346 63.2689 60.4098 57.0733 52.8543C51.0905 45.5637 53.9059 35.8683 62.6346 31.2675C70.8108 26.9558 81.6224 28.5375 87.3965 34.7281H87.3924Z" fill="#0EC335"/>
<path d="M76.2517 51.2995C75.5313 51.7524 74.5957 51.9649 73.6476 51.8206L65.293 50.5539C63.4549 50.2734 62.3246 48.8143 62.7676 47.3111C63.2065 45.828 65.0157 44.866 66.8124 45.1506L71.8219 45.9403L74.4425 36.5847C74.8151 35.2579 76.467 34.4402 78.1271 34.7489C79.7832 35.0535 80.8554 36.3642 80.5242 37.691L77.5186 49.64C77.3447 50.3255 76.881 50.9027 76.2559 51.2995H76.2517Z" fill="white"/>
<path opacity="0.25" d="M176.123 89.2706C174.039 88.0555 172.333 86.2862 171.194 84.1607L170.751 83.3334C169.069 80.1942 166.48 77.6359 163.321 75.9914L144.619 66.2542C140.416 64.0654 135.25 65.2222 132.38 68.9939L131.784 69.7762L130.095 69.187C126.997 68.1051 123.553 69.0455 121.434 71.5505L119.71 73.5895L98.1001 65.1689C98.1001 65.1689 96.5138 64.583 94.6729 65.655C94.4316 65.7948 94.2052 65.9546 93.9938 66.131C92.7937 67.128 92.1113 68.6494 92.1096 70.2423C92.1063 72.8888 93.4212 77.03 100.683 79.7714L111.712 84.4486L108.515 88.3568C106.952 90.266 107.13 93.059 108.923 94.7551C110.589 96.3313 113.147 96.4778 114.981 95.103L122.876 89.1824L127.2 91.0167C128.603 91.6109 129.845 92.5496 130.751 93.778C131.18 94.3606 131.553 95.033 131.746 95.7621C131.974 96.6276 131.949 97.5764 131.458 98.5551C130.854 99.7618 129.705 100.604 128.39 100.904L113.671 104.256C113.671 104.256 109.968 105.844 108.997 109.083C108.966 109.189 108.938 109.296 108.913 109.404C108.322 111.926 110.158 114.361 112.738 114.569C114.086 114.677 115.93 114.551 118.438 113.948C123.637 112.7 127.61 112.542 129.737 112.58C130.789 112.6 131.824 112.855 132.766 113.326L133.564 113.725C137.502 115.694 142.074 115.974 146.225 114.499L154.028 111.724L171.823 121.575L175.855 114.223L186.283 95.1995L176.123 89.2723V89.2706Z" fill="#221F20"/>
<path d="M114.435 72.133L110.66 76.747C109.097 78.6561 109.275 81.4491 111.068 83.1452C112.734 84.7215 115.292 84.868 117.127 83.4931L126.884 76.176L114.435 72.1347V72.133Z" fill="#BF876C"/>
<path d="M188.428 83.588L178 102.611L173.969 109.963L156.174 100.113L148.371 102.888C144.219 104.362 139.647 104.083 135.709 102.114L134.912 101.714C133.97 101.243 132.934 100.989 131.882 100.969C129.755 100.93 125.782 101.088 120.584 102.337C118.075 102.939 116.231 103.066 114.883 102.958C112.303 102.75 110.467 100.314 111.058 97.7927C111.083 97.6845 111.111 97.578 111.143 97.4715C112.113 94.2324 115.817 92.6445 115.817 92.6445L130.536 89.2922C131.851 88.9926 132.999 88.1504 133.603 86.9436C134.094 85.9649 134.119 85.0162 133.891 84.1506C133.698 83.4216 133.325 82.7491 132.896 82.1666C131.99 80.9382 130.749 79.9994 129.346 79.4052L102.829 68.1616C95.5666 65.4202 94.2517 61.279 94.255 58.6325C94.2567 57.0396 94.9391 55.5182 96.1392 54.5212C96.3506 54.3448 96.577 54.185 96.8183 54.0452C98.6592 52.9732 100.245 53.5591 100.245 53.5591L121.855 61.9797L123.58 59.9407C125.699 57.4357 129.143 56.4953 132.24 57.5772L133.93 58.1664L134.525 57.3841C137.395 53.6124 142.562 52.4556 146.764 54.6444L165.467 64.3816C168.626 66.0261 171.214 68.5844 172.897 71.7236L173.34 72.5509C174.478 74.6764 176.184 76.4457 178.268 77.6608L188.428 83.588Z" fill="#E09B7E"/>
<path d="M121.854 61.9796L138.478 69.037C139.504 69.4731 140.642 69.5663 141.726 69.3067L144.422 68.6575" stroke="#221F20" stroke-width="1.16514" stroke-linecap="round" stroke-linejoin="round"/>
<path d="M133.898 58.1797L143.237 62.2377C144.374 62.732 145.641 62.8419 146.846 62.5522L149.354 61.948" stroke="#221F20" stroke-width="1.16514" stroke-linecap="round" stroke-linejoin="round"/>
<path d="M114.383 73.1883L124.788 77.4743" stroke="#221F20" stroke-width="1.16514" stroke-linecap="round" stroke-linejoin="round"/>
<path opacity="0.25" d="M178 102.611L173.969 109.963L156.174 100.113L148.37 102.888C144.219 104.362 139.647 104.083 135.709 102.114L134.911 101.714C133.969 101.243 132.934 100.989 131.882 100.969C129.755 100.93 125.782 101.088 120.584 102.337C118.075 102.939 116.231 103.066 114.883 102.958C112.303 102.75 110.467 100.314 111.058 97.7927C111.083 97.6845 111.111 97.578 111.143 97.4715C111.685 98.2238 112.734 98.848 114.75 98.6932C119.357 98.3387 134.777 96.1232 134.777 96.1232L138.435 97.2601C141.962 98.357 145.779 98.0241 149.061 96.3313L153.707 94.4904C155.649 93.7214 157.818 93.7613 159.731 94.6002L178 102.611Z" fill="#221F20"/>
<path d="M184.099 82.5703L172.356 103.989C170.602 107.189 171.736 111.204 174.905 113.013C178.306 114.954 182.639 113.571 184.287 110.019L194.568 87.8611C195.902 84.9837 194.709 81.5664 191.874 80.1452C189.051 78.7308 185.616 79.8023 184.099 82.5703Z" fill="#F55905"/>
<path d="M184.093 82.4804L176.21 97.0293C174.546 100.102 175.636 103.941 178.668 105.679C181.935 107.552 186.106 106.232 187.7 102.82L194.705 87.8291C196.095 84.8551 194.811 81.3176 191.838 79.9272C188.987 78.5943 185.592 79.7136 184.093 82.4804Z" fill="#FA6E22"/>
<path d="M77.8302 107.236V114.036L74.0935 114.099L58.8368 114.36L43.973 114.615L43.6834 95.0821C29.2141 82.9281 33.6982 59.1976 33.6982 59.1976L38.4702 64.5456L38.432 64.3791L35.0015 49.3588C34.3623 46.7523 34.1576 44.8647 34.1659 43.5098C34.1775 41.5907 35.9069 40.1176 37.8028 40.4172C47.1089 41.8903 49.1346 52.047 50.1948 57.6063C50.6293 59.89 51.3899 61.8657 52.1722 63.4453C53.2874 65.6974 54.9869 67.6115 57.0608 69.0313C76.3488 82.244 68.1363 98.2646 68.1363 98.2646L73.1946 104.164C75.7979 107.058 77.8302 107.236 77.8302 107.236Z" fill="#E09B7E"/>
<path d="M38.4738 64.8419L39.6689 69.4392C40.1216 71.1836 40.8789 72.8348 41.9026 74.3178L43.0328 75.9557C44.0281 77.3988 44.6506 79.0649 44.8454 80.8076L45.13 83.3626" stroke="#221F20" stroke-width="1.16514" stroke-linecap="round" stroke-linejoin="round"/>
<path opacity="0.25" d="M58.8368 114.36L43.973 114.615L43.6834 95.0822C29.2141 82.9282 33.6982 59.1977 33.6982 59.1977L38.4702 64.5457L38.432 64.3792L38.5568 64.5174C38.5568 64.5174 37.7845 72.7183 54.8055 89.8941C58.4357 93.5576 58.8119 109.282 58.8368 114.36Z" fill="#221F20"/>
<path opacity="0.25" d="M77.8302 107.236V114.036L74.0935 114.099C65.7345 108.135 68.1363 98.2647 68.1363 98.2647L73.1947 104.164C75.7979 107.058 77.8302 107.236 77.8302 107.236Z" fill="#221F20"/>
<path d="M74.9472 110.202L46.8269 109.64C42.832 109.56 39.5104 112.698 39.362 116.691L39.3392 117.305C39.1799 121.59 42.7197 125.095 47.0029 124.893L75.1287 123.566C78.739 123.396 81.5606 120.388 81.4994 116.774C81.4385 113.178 78.5434 110.274 74.9472 110.202Z" fill="#F55905"/>
<path d="M75.0349 110.149L56.1721 109.866C52.1965 109.806 48.8992 112.939 48.7437 116.912C48.5761 121.194 52.1048 124.716 56.3863 124.526L75.2338 123.689C78.9706 123.523 81.8656 120.36 81.7006 116.623C81.5425 113.041 78.6202 110.202 75.0349 110.149Z" fill="#FA6E22"/>
<path d="M99.9714 19.1744L101.631 19.8388C102.135 20.0409 102.135 20.7553 101.631 20.9574L99.9714 21.6218C98.3438 22.2726 97.0596 23.5804 96.4159 25.2338L95.7729 26.8908C95.574 27.4034 94.8486 27.4034 94.6497 26.8908L94.0067 25.2338C93.3661 23.5835 92.0788 22.2757 90.4512 21.6218L88.7919 20.9574C88.2872 20.7553 88.2872 20.0409 88.7919 19.8388L90.4512 19.1744C92.0757 18.5236 93.363 17.2158 94.0067 15.5624L94.6497 13.9054C94.8486 13.3928 95.574 13.3928 95.7729 13.9054L96.4159 15.5624C97.0565 17.2127 98.3438 18.5205 99.9714 19.1744Z" fill="#FAC856"/>
<path d="M34.3462 4.87898L35.1423 5.19974C35.6453 5.40243 35.6453 6.1146 35.1423 6.3173L34.3462 6.63806C33.1837 7.1058 32.2663 8.04577 31.8066 9.23416L31.5083 10.0078C31.31 10.522 30.5824 10.522 30.3841 10.0078L30.0857 9.23416C29.6282 8.04801 28.7086 7.10804 27.5461 6.63806L26.75 6.3173C26.247 6.1146 26.247 5.40243 26.75 5.19974L27.5461 4.87898C28.7064 4.41123 29.626 3.47126 30.0857 2.28288L30.3841 1.50924C30.5824 0.994988 31.31 0.994988 31.5083 1.50924L31.8066 2.28288C32.2642 3.46903 33.1837 4.40899 34.3462 4.87898Z" fill="#FAC856"/>
<path d="M12.8785 44.4834L14.784 45.2464C15.1997 45.4128 15.1997 46.0013 14.784 46.1678L12.8785 46.9308C11.2509 47.5815 9.96666 48.8893 9.32299 50.5427L8.58105 52.4548C8.41718 52.8772 7.81962 52.8772 7.65575 52.4548L6.91381 50.5427C6.2732 48.8924 4.98586 47.5847 3.35828 46.9308L1.45284 46.1678C1.03713 46.0013 1.03713 45.4128 1.45283 45.2464L3.35828 44.4834C4.98279 43.8326 6.27014 42.5248 6.91381 40.8714L7.65575 38.9593C7.81962 38.537 8.41718 38.537 8.58105 38.9593L9.32299 40.8714C9.96359 42.5217 11.2509 43.8295 12.8785 44.4834Z" fill="#FA6E22"/>
<path d="M78.6101 4.56415C79.3563 4.85829 79.3563 5.91436 78.6101 6.2085C77.4992 6.64574 76.6226 7.52441 76.1833 8.63529C75.8892 9.38151 74.8331 9.38151 74.5389 8.63529C74.1017 7.5265 73.223 6.64784 72.1121 6.2085C71.3659 5.91436 71.3659 4.85829 72.1121 4.56415C73.2209 4.12691 74.0996 3.24824 74.5389 2.13736C74.8331 1.39114 75.8892 1.39114 76.1833 2.13736C76.6205 3.24615 77.4992 4.12481 78.6101 4.56415Z" fill="#FA6E22"/>
</svg>
