<svg width="25" height="24" viewBox="0 0 25 24" fill="none" xmlns="http://www.w3.org/2000/svg">
<path d="M20.5841 7.11627C20.808 7.47142 20.8312 7.90763 20.6729 8.27822C20.5224 8.63336 20.2444 8.84954 19.897 8.89586C19.8198 8.90744 19.7464 8.9113 19.6731 8.9113C19.2214 8.9113 18.8161 8.71443 18.5266 8.40175C18.1753 8.01572 17.6773 7.79568 17.1523 7.79568C16.6273 7.79568 16.1293 8.01958 15.7819 8.40561C15.5001 8.71829 15.0986 8.91517 14.6392 8.91517C14.1837 8.91517 13.7784 8.71829 13.4966 8.40561C13.1453 8.01572 12.6473 7.79568 12.1223 7.79568C11.5973 7.79568 11.0993 8.01572 10.748 8.40561C10.4662 8.71829 10.0648 8.91517 9.60539 8.91517C9.14987 8.91517 8.74454 8.71829 8.46274 8.40561C8.11145 8.01572 7.61347 7.79568 7.08847 7.79568C6.56346 7.79568 6.06548 8.01572 5.71419 8.40561C5.43239 8.71829 5.03092 8.91517 4.57154 8.91517C4.50206 8.91517 4.42485 8.9113 4.34764 8.89972C4.00407 8.8534 3.72999 8.63722 3.57944 8.28208C3.42117 7.91149 3.44433 7.47528 3.66823 7.12013L5.65629 3.97013H18.5961L20.5841 7.11627ZM19.6731 10.7642C19.8314 10.7642 19.9858 10.7527 20.1363 10.7334C22.2788 10.4477 23.2941 7.93465 22.1476 6.12417L19.9356 2.62289C19.7387 2.3102 19.3874 2.11719 19.013 2.11719H5.23938C4.86492 2.11719 4.51364 2.3102 4.31676 2.62289L2.10094 6.12417C0.958287 7.93079 1.96969 10.4438 4.10444 10.7334C4.25886 10.7527 4.41713 10.7642 4.57154 10.7642C5.32816 10.7642 6.01916 10.5172 6.57504 10.108C6.76034 9.97289 6.93019 9.81461 7.08461 9.64862C7.23902 9.81847 7.40887 9.97289 7.59417 10.108C8.15391 10.5172 8.84491 10.7642 9.60153 10.7642C10.3582 10.7642 11.0491 10.5172 11.6089 10.108C11.7942 9.97289 11.964 9.81461 12.1185 9.64476C12.2729 9.81461 12.4427 9.96903 12.628 10.1041C13.1878 10.5133 13.8788 10.7604 14.6354 10.7604C15.3997 10.7604 16.0946 10.5095 16.6543 10.0926C16.8358 9.95745 17.0018 9.80689 17.1523 9.6409C17.3029 9.80689 17.4727 9.96131 17.6541 10.0964C18.2139 10.5095 18.9087 10.7604 19.6692 10.7604L19.6731 10.7642ZM5.33202 15.0878V11.9378C5.08496 11.9802 4.83404 11.9995 4.5754 11.9995C4.36308 11.9995 4.15077 11.9841 3.94617 11.9571H3.94231C3.78404 11.9339 3.62962 11.9069 3.47907 11.8683V15.0878V16.9407V19.4113C3.47907 20.774 4.58698 21.8819 5.94967 21.8819H18.3027C19.6654 21.8819 20.7733 20.774 20.7733 19.4113V16.9407V15.0878V11.8683C20.6189 11.9069 20.4645 11.9378 20.2985 11.9571H20.2946C20.09 11.9841 19.8815 11.9995 19.6692 11.9995C19.4145 11.9995 19.1635 11.9802 18.9203 11.9378V15.0878H5.33202ZM18.9203 16.9407V19.4113C18.9203 19.751 18.6424 20.029 18.3027 20.029H5.94967C5.60997 20.029 5.33202 19.751 5.33202 19.4113V16.9407H18.9203Z" fill="#262626"/>
</svg>
