<svg width="24" height="24" viewBox="0 0 24 24" fill="none" xmlns="http://www.w3.org/2000/svg">
<path d="M5.37538 13.2638C6.06152 14.2981 6.75 15.3359 6.75 16.5H8.25C8.25 15 7.72762 14.1433 7.00104 13.0078C6.84393 12.7623 6.6973 12.5406 6.56175 12.3356C6.14571 11.7066 5.83416 11.2355 5.64489 10.7191C5.3826 10.0036 5.25 9.39328 5.25 8.88224C5.25 5.64012 8.09415 3 11.625 3C15.1559 3 18 5.64012 18 8.88224C18 9.40635 17.7832 10.1651 17.3454 11.1867C17.1598 11.6197 16.9154 11.9934 16.6016 12.473C16.4464 12.7103 16.2743 12.9735 16.0839 13.2826C15.4401 14.3278 15 15 15 16.5H16.5C16.5 15.3757 17.1437 14.3898 17.781 13.4136C18.1342 12.8725 18.4855 12.3345 18.7241 11.7775C19.172 10.7324 19.5 9.73288 19.5 8.88224C19.5 4.69444 15.862 1.5 11.625 1.5C7.38804 1.5 3.75 4.69444 3.75 8.88224C3.75 9.63594 3.94177 10.4313 4.23653 11.2354C4.49187 11.932 4.93314 12.5972 5.37538 13.2638Z" fill="#262626"/>
<path d="M16.5 18V19.5H6.75V18H16.5Z" fill="#262626"/>
<path d="M15 21V22.5H8.25V21H15Z" fill="#262626"/>
</svg>
