<svg width="25" height="24" viewBox="0 0 25 24" fill="none" xmlns="http://www.w3.org/2000/svg">
<path d="M22.1289 2.81478C22.1289 2.28568 21.809 1.8058 21.3168 1.60072C20.8246 1.39564 20.2627 1.51049 19.8854 1.88373L18.0971 3.67611C16.1283 5.64486 13.4582 6.75228 10.6732 6.75228H10.3164H9.00391H5.06641C3.61855 6.75228 2.44141 7.92943 2.44141 9.37728V13.3148C2.44141 14.7626 3.61855 15.9398 5.06641 15.9398V21.1898C5.06641 21.9158 5.65293 22.5023 6.37891 22.5023H9.00391C9.72988 22.5023 10.3164 21.9158 10.3164 21.1898V15.9398H10.6732C13.4582 15.9398 16.1283 17.0472 18.0971 19.016L19.8854 20.8042C20.2627 21.1816 20.8246 21.2923 21.3168 21.0872C21.809 20.8822 22.1289 20.4064 22.1289 19.8732V13.8234C22.8918 13.4624 23.4414 12.4904 23.4414 11.346C23.4414 10.2017 22.8918 9.22963 22.1289 8.86869V2.81478ZM19.5039 5.96068V11.346V16.7314C17.0922 14.537 13.9463 13.3148 10.6732 13.3148H10.3164V9.37728H10.6732C13.9463 9.37728 17.0922 8.15502 19.5039 5.96068Z" fill="#262626"/>
</svg>
