<svg width="24" height="24" viewBox="0 0 24 24" fill="none" xmlns="http://www.w3.org/2000/svg">
<path fill-rule="evenodd" clip-rule="evenodd" d="M15.33 1.50359C15.6473 1.47299 15.9498 1.64037 16.0846 1.92101L19.4157 8.85964L18.055 9.47593L15.5546 4.26763C14.7474 6.38837 13.2279 8.84642 10.1411 10.2445L3.03489 13.4631C3.04179 13.6041 3.06541 13.7813 3.10869 13.9892C3.20136 14.4344 3.37328 14.9687 3.60326 15.4981C3.83375 16.0286 4.11141 16.5285 4.40396 16.9152C4.71129 17.3214 4.97041 17.5166 5.13471 17.5747L4.62121 18.945C4.03732 18.7386 3.55969 18.2619 3.19411 17.7787C2.81376 17.276 2.48236 16.6689 2.22 16.0651C1.95714 15.46 1.75244 14.8324 1.63709 14.2782C1.57945 14.0013 1.54139 13.7298 1.53307 13.4806C1.52515 13.2431 1.54187 12.9712 1.63452 12.7239C1.70262 12.5422 1.84224 12.3942 2.02269 12.3125L9.50658 8.92287C12.9276 7.37342 14.1218 4.26697 14.6747 2.05696C14.75 1.75607 15.0128 1.53418 15.33 1.50359Z" fill="#262626"/>
<path fill-rule="evenodd" clip-rule="evenodd" d="M22.2739 15.9672C22.5019 15.7508 22.5644 15.4181 22.4296 15.1374L19.0985 8.19882L17.7378 8.81511L20.2382 14.0234C18.0468 13.2608 15.1315 12.8113 12.0446 14.2094L4.93842 17.428C4.83164 17.3322 4.70704 17.2007 4.57086 17.0349C4.2793 16.6797 3.96842 16.2084 3.69875 15.697C3.42849 15.1845 3.21272 14.6566 3.0958 14.1904C2.97296 13.7006 2.98554 13.3823 3.04535 13.2227L1.63452 12.7239C1.422 13.2911 1.49096 13.9529 1.63708 14.5355C1.7891 15.1416 2.05482 15.7784 2.36246 16.3618C2.67068 16.9463 3.03408 17.502 3.39703 17.9441C3.57837 18.1649 3.76805 18.3678 3.95925 18.5342C4.14149 18.6927 4.36664 18.8551 4.62121 18.945C4.8083 19.0112 5.01479 19.0024 5.19523 18.9207L12.6791 15.5311C16.1002 13.9816 19.3178 15.0899 21.4162 16.099C21.7019 16.2364 22.0458 16.1835 22.2739 15.9672Z" fill="#262626"/>
<path fill-rule="evenodd" clip-rule="evenodd" d="M6.20491 17.1106C6.26915 16.9181 6.41291 16.7602 6.60177 16.6746L10.0035 15.1339C10.2487 15.0229 10.5363 15.0485 10.7565 15.201C10.9768 15.3535 11.0955 15.6092 11.0674 15.8705C11.0436 16.0915 11.1123 16.3972 11.3287 16.7889C11.5414 17.1738 11.8648 17.5837 12.2541 17.9877C13.0355 18.7985 13.9975 19.4984 14.595 19.8336C14.8374 19.9696 14.9817 20.2252 14.9695 20.4969C14.9573 20.7685 14.7905 21.0109 14.5368 21.1258L11.8154 22.3584C11.1186 22.674 10.4193 22.406 9.92554 22.1007C9.40768 21.7805 8.9015 21.2933 8.44903 20.7817C7.53675 19.7504 6.70425 18.4603 6.263 17.6899C6.1617 17.513 6.14066 17.3032 6.20491 17.1106ZM7.98446 17.6574C8.41203 18.3316 8.98745 19.1527 9.58782 19.8314C10.0033 20.3012 10.3968 20.6634 10.7317 20.8705C10.8972 20.9728 11.0186 21.0184 11.0971 21.0341C11.1338 21.0414 11.1556 21.0411 11.1656 21.0402C11.1743 21.0395 11.178 21.0381 11.1809 21.0368L12.7092 20.3445C12.1942 19.9587 11.6462 19.4908 11.158 18.9842C10.7151 18.5247 10.3005 18.0119 10.0058 17.4784C9.89881 17.2848 9.80307 17.0801 9.7281 16.8677L7.98446 17.6574Z" fill="#262626"/>
<path fill-rule="evenodd" clip-rule="evenodd" d="M10.6839 14.8257L8.78037 10.8608L10.1411 10.2445L12.0446 14.2094L10.6839 14.8257Z" fill="#262626"/>
<path d="M20.6178 7.91294C20.0073 6.64121 18.6269 5.96545 17.3077 6.19409L19.8458 11.4807C20.8741 10.6461 21.2283 9.18467 20.6178 7.91294Z" fill="#262626"/>
</svg>
