<svg width="25" height="24" viewBox="0 0 25 24" fill="none" xmlns="http://www.w3.org/2000/svg">
<path d="M6.21736 6.42098C6.21736 4.78837 7.53822 3.46751 9.17084 3.46751C10.2292 3.46751 11.1603 4.02539 11.6813 4.8622C11.8372 5.11243 12.0956 5.28061 12.3869 5.31753C12.6781 5.35445 12.9735 5.2642 13.1868 5.0632C13.597 4.68172 14.1466 4.4479 14.7496 4.4479C15.9392 4.4479 16.9196 5.35445 17.0345 6.51533C17.0837 7.01988 17.5103 7.40547 18.0149 7.40136H18.0272C19.4752 7.40136 20.6525 8.57865 20.6525 10.0267C20.6525 11.4747 19.4752 12.652 18.0272 12.652H6.05328H5.97534C5.96303 12.652 5.94662 12.6479 5.93432 12.6479C4.62986 12.5904 3.59204 11.5157 3.59204 10.1949C3.59204 9.03398 4.39604 8.05769 5.48309 7.79926C5.96713 7.68441 6.28709 7.22908 6.23377 6.73684C6.22146 6.63428 6.21736 6.52763 6.21736 6.42098ZM9.17084 1.49854C6.54552 1.49854 4.40014 3.55366 4.25657 6.14614C2.70599 6.83528 1.62305 8.38585 1.62305 10.1949C1.62305 12.5371 3.44026 14.4569 5.74562 14.6127C5.79485 14.6209 5.83997 14.6251 5.88919 14.6251H6.05328H18.0313C20.5705 14.6251 22.6256 12.5699 22.6256 10.0308C22.6256 7.76645 20.9889 5.88361 18.8312 5.50622C18.2979 3.75465 16.6735 2.48302 14.7496 2.48302C14.0113 2.48302 13.318 2.67172 12.7109 2.99988C11.8167 2.07692 10.5614 1.49854 9.17084 1.49854ZM4.96623 16.0156C4.46578 15.8023 3.88739 16.032 3.67408 16.5325L1.70509 21.1268C1.49178 21.6272 1.7215 22.2056 2.22195 22.4189C2.7224 22.6322 3.30079 22.4025 3.5141 21.9021L5.48309 17.3078C5.6964 16.8073 5.46668 16.2289 4.96623 16.0156ZM9.8887 16.0156C9.38825 15.8023 8.80986 16.032 8.59655 16.5325L6.62756 21.1268C6.41426 21.6272 6.64397 22.2056 7.14442 22.4189C7.64488 22.6322 8.22327 22.4025 8.43657 21.9021L10.4056 17.3078C10.6189 16.8073 10.3892 16.2289 9.8887 16.0156ZM19.9224 17.3078C20.1357 16.8073 19.9059 16.2289 19.4055 16.0156C18.905 15.8023 18.3266 16.032 18.1133 16.5325L16.1444 21.1268C15.931 21.6272 16.1608 22.2056 16.6612 22.4189C17.1617 22.6322 17.7401 22.4025 17.9534 21.9021L19.9224 17.3078ZM14.483 16.0156C13.9826 15.8023 13.4042 16.032 13.1909 16.5325L11.2219 21.1268C11.0086 21.6272 11.2383 22.2056 11.7387 22.4189C12.2392 22.6322 12.8176 22.4025 13.0309 21.9021L14.9999 17.3078C15.2132 16.8073 14.9835 16.2289 14.483 16.0156Z" fill="#262626"/>
</svg>
