<svg width="24" height="24" viewBox="0 0 24 24" fill="none" xmlns="http://www.w3.org/2000/svg">
<path fill-rule="evenodd" clip-rule="evenodd" d="M12 21C16.9706 21 21 16.9706 21 12C21 7.02944 16.9706 3 12 3C7.02944 3 3 7.02944 3 12C3 16.9706 7.02944 21 12 21ZM8 15L9 16.5L11 18H14.5L16.5 16V14L8 15Z" fill="#FFC000"/>
<path fill-rule="evenodd" clip-rule="evenodd" d="M21 11.9995C21 7.02893 16.9713 3 12.0005 3C7.02937 3 3 7.02928 3 11.9995C3 16.9707 7.02932 21 12.0005 21C16.9714 21 21 16.971 21 11.9995ZM22.5 11.9995C22.5 6.20054 17.7998 1.5 12.0005 1.5C6.20107 1.5 1.5 6.20072 1.5 11.9995C1.5 17.7991 6.2009 22.5 12.0005 22.5C17.8 22.5 22.5 17.7993 22.5 11.9995Z" fill="#262626"/>
<path fill-rule="evenodd" clip-rule="evenodd" d="M17.25 13.5C17.2466 14.0299 17.1891 14.5319 17.0794 15C16.5465 17.2744 14.7817 18.75 12 18.75C9.2367 18.75 7.44497 17.2783 6.91463 15C6.80571 14.5321 6.75 14.0302 6.75 13.5H17.25ZM15.5237 15C15.3559 15.5133 15.1034 15.9284 14.7951 16.2484C14.2366 16.8281 13.3469 17.25 12 17.25C10.6648 17.25 9.76759 16.8297 9.20245 16.2473C8.89158 15.9269 8.63737 15.5122 8.47001 15H15.5237Z" fill="#262626"/>
<path d="M9.75 9C9.75 9.82843 9.07843 10.5 8.25 10.5C7.42157 10.5 6.75 9.82843 6.75 9C6.75 8.17157 7.42157 7.5 8.25 7.5C9.07843 7.5 9.75 8.17157 9.75 9Z" fill="#262626"/>
<path d="M17.25 9C17.25 9.82843 16.5784 10.5 15.75 10.5C14.9216 10.5 14.25 9.82843 14.25 9C14.25 8.17157 14.9216 7.5 15.75 7.5C16.5784 7.5 17.25 8.17157 17.25 9Z" fill="#262626"/>
</svg>
