<svg width="24" height="24" viewBox="0 0 24 24" fill="none" xmlns="http://www.w3.org/2000/svg">
<path d="M12.0766 1.50195C11.4906 1.54512 10.9683 1.76024 10.5477 2.13214C9.81329 2.77976 9.48243 3.79776 9.69237 4.76199C9.74059 4.98164 9.80513 5.16797 9.90676 5.3793C10.0507 5.67925 10.2109 5.90421 10.4513 6.14205L10.5707 6.26097L10.5321 6.26475C10.5106 6.26702 10.4409 6.27081 10.3778 6.27233C9.68421 6.29657 8.97872 6.58439 8.42827 7.06689C8.14044 7.31987 7.03806 8.34621 6.91715 8.47422C6.6805 8.72417 6.50691 9.02336 6.3986 9.36648C6.36151 9.48313 6.33999 9.57554 6.30439 9.77247C6.24207 10.1194 6.19311 10.3436 6.0262 11.0412C5.88079 11.6464 5.82738 11.8857 5.77026 12.1811C5.74578 12.3099 5.70275 12.5349 5.67456 12.6811C5.59519 13.0916 5.57293 13.284 5.58035 13.4953C5.59444 13.9248 5.77619 14.3361 6.09444 14.6587C6.42382 14.9935 6.86373 15.1761 7.29919 15.1594C7.53658 15.1503 7.76136 15.0897 7.96611 14.9791C8.00394 14.9579 8.03658 14.9428 8.03807 14.9443C8.03955 14.9458 7.98094 15.2192 7.9075 15.5525C7.83406 15.885 7.76062 16.2259 7.7443 16.3092L7.71462 16.4607L7.45943 16.8508C7.31922 17.0651 7.067 17.4469 6.8986 17.6991C6.7302 17.9513 6.51358 18.2763 6.41789 18.4225C6.32145 18.5679 6.18792 18.7671 6.12115 18.8648C5.88228 19.2117 5.75913 19.414 5.6486 19.6397C5.53139 19.8806 5.46165 20.0881 5.4216 20.3176C5.3986 20.4456 5.39341 20.6971 5.41047 20.8342C5.46982 21.3091 5.74059 21.7999 6.10854 22.0999C6.54029 22.4513 7.16863 22.5869 7.7035 22.4437C8.067 22.3468 8.41492 22.1037 8.6894 21.7545C8.84148 21.5598 9.38599 20.7524 10.3444 19.2973C10.5596 18.9701 10.7732 18.6482 10.8192 18.5815C10.9164 18.4407 10.9772 18.3437 11.0269 18.2498L11.0618 18.1839L11.0744 18.2005C11.0818 18.2104 11.2309 18.421 11.4053 18.6686C11.7962 19.2223 12.1894 19.776 12.5077 20.2214C12.7673 20.585 12.7829 20.6062 12.9928 20.9145C13.3163 21.3879 13.5269 21.6575 13.7599 21.8961C13.9401 22.0794 14.093 22.193 14.2985 22.2968C14.478 22.3877 14.6568 22.4445 14.8585 22.4763C14.9772 22.4945 15.2295 22.4945 15.3519 22.4763C15.9424 22.3862 16.4261 22.012 16.7154 21.4212C16.8074 21.2333 16.8704 21.0258 16.8949 20.8327C16.9097 20.716 16.9097 20.4911 16.8949 20.3752C16.8556 20.0722 16.7599 19.8025 16.5715 19.4677C16.4127 19.1845 16.0833 18.6323 15.6523 17.9226C15.3289 17.3908 14.4817 15.982 13.5922 14.4966L13.1375 13.7369L13.225 13.3279C13.2732 13.1037 13.3148 12.9181 13.317 12.9159C13.3215 12.9113 13.5017 12.9734 13.6419 13.028C13.8281 13.1007 14.2473 13.2537 14.6582 13.4006C15.2881 13.6256 15.5633 13.7286 15.9513 13.8846C16.1493 13.9642 16.2287 13.9922 16.32 14.0134C16.5292 14.0619 16.8163 14.0604 17.0536 14.0104C17.4676 13.9217 17.8682 13.6809 18.1286 13.3628C18.3341 13.112 18.4735 12.7712 18.5166 12.416C18.5299 12.3054 18.5277 12.0637 18.5128 11.9501C18.4602 11.551 18.2962 11.1927 18.0455 10.9283C17.8556 10.7291 17.6998 10.6299 17.3845 10.5072C17.0863 10.3905 16.0996 9.98456 15.2866 9.64371L15.0358 9.53842L14.6137 8.95671L14.1909 8.37575L14.1582 8.25986C14.0203 7.77509 13.8044 7.34335 13.5373 7.01917C13.4669 6.93358 13.317 6.77906 13.2465 6.71922L13.2109 6.68816L13.2688 6.66393C13.3007 6.65029 13.3734 6.61469 13.4305 6.58439C14.0447 6.26097 14.5047 5.71258 14.7258 5.043C14.8964 4.52566 14.9075 3.96667 14.7577 3.44025C14.6345 3.00547 14.4134 2.61615 14.11 2.29802C13.8986 2.07609 13.6916 1.9193 13.4335 1.78523C13.1493 1.63829 12.8845 1.55649 12.5588 1.51558C12.4698 1.50498 12.1605 1.49589 12.0766 1.50195ZM12.3919 2.83051C12.6048 2.8555 12.8059 2.93049 12.978 3.04865C13.4268 3.35693 13.6523 3.93864 13.5336 4.48022C13.5069 4.60141 13.4795 4.68018 13.4194 4.80364C13.3504 4.94453 13.2873 5.03315 13.1709 5.15207C13.0566 5.26871 12.9698 5.33385 12.8333 5.40505C12.3585 5.65122 11.8066 5.58684 11.4031 5.2369C11.1382 5.00815 10.9713 4.67639 10.9342 4.30828C10.886 3.81442 11.11 3.3236 11.5114 3.04789C11.7591 2.87671 12.09 2.79566 12.3919 2.83051ZM12.1657 7.60467C12.2317 7.62285 12.3378 7.67663 12.3956 7.72207C12.636 7.90841 12.8726 8.37196 12.9579 8.82567L12.978 8.93095L13.5922 9.77626L14.2057 10.6208L14.2821 10.6534C14.794 10.8746 16.5314 11.5934 16.932 11.7494C17.0618 11.8009 17.0959 11.8221 17.139 11.882C17.2599 12.0493 17.2591 12.344 17.1382 12.5061C17.1063 12.5485 17.0277 12.6129 16.9654 12.6462C16.9068 12.678 16.8014 12.7129 16.7332 12.722C16.6508 12.7333 16.6041 12.7242 16.4609 12.6651C16.1011 12.5174 15.7621 12.3902 15.0737 12.1448C14.59 11.9721 14.3852 11.8971 14.139 11.8024C14.0551 11.7699 13.8949 11.7123 13.7821 11.6737C13.6694 11.6343 13.5544 11.5919 13.5262 11.579L13.475 11.5555L13.0225 10.8859C12.6827 10.3837 12.5685 10.2194 12.5648 10.2292C12.5588 10.2428 11.9157 13.2332 11.8563 13.5218C11.8244 13.6779 11.8222 13.696 11.8214 13.8096C11.8207 13.9786 11.8422 14.0801 11.909 14.2149C11.9387 14.2747 12.3482 14.961 13.3578 16.6425C14.021 17.7468 14.2525 18.1316 14.6152 18.7292C15.1093 19.545 15.4283 20.0843 15.5039 20.2343C15.6034 20.4305 15.6338 20.6001 15.593 20.7327C15.5715 20.8024 15.5225 20.897 15.4713 20.9667C15.3281 21.1606 15.0974 21.2205 14.8875 21.1182C14.8059 21.0781 14.7532 21.0364 14.6464 20.9251C14.4743 20.744 14.3482 20.5797 14.0574 20.1532C13.8652 19.8722 13.8133 19.798 13.6308 19.5435C13.2747 19.0474 12.8266 18.4157 12.1397 17.4416C11.4631 16.4819 10.6508 15.3329 10.6441 15.3253C10.6412 15.3223 10.5529 15.5843 10.4483 15.9085C10.3437 16.2335 10.205 16.6591 10.1404 16.8561C10.0752 17.0523 10.0017 17.284 9.97649 17.3711C9.95201 17.4575 9.9216 17.5491 9.91047 17.5741C9.8986 17.5991 9.84445 17.6862 9.79029 17.7673C9.7354 17.8483 9.56255 18.1089 9.40602 18.3467C8.6078 19.5579 8.3489 19.9472 8.06477 20.3653C7.67753 20.9349 7.6345 20.9925 7.54252 21.066C7.43643 21.1508 7.35112 21.1803 7.23243 21.1728C6.98391 21.1576 6.81848 21.0273 6.72427 20.7706C6.66937 20.6221 6.69459 20.4698 6.81329 20.2229C6.88079 20.0836 6.94237 19.9828 7.14415 19.6874C7.23169 19.5579 7.38599 19.3284 7.48614 19.1761C7.58628 19.0239 7.80884 18.6883 7.98169 18.4301C8.45869 17.7158 8.82367 17.153 8.86373 17.072C8.93198 16.9326 8.97204 16.8015 9.01655 16.5705C9.02768 16.5145 9.09667 16.1956 9.16937 15.8623C9.49133 14.4012 9.65899 13.6104 9.69905 13.3711C9.71314 13.287 9.73836 13.1166 9.75468 12.9916C9.81403 12.5455 9.84148 12.4016 10.1657 10.842C10.2947 10.2239 10.2962 10.2141 10.2962 10.1224C10.2962 10.0436 10.2829 9.93835 10.2072 9.41723C10.1582 9.08017 10.1174 8.80295 10.1152 8.80143C10.1137 8.79916 9.90899 8.9764 9.66047 9.19454C9.41269 9.41269 9.13302 9.65734 9.03881 9.73839C8.79771 9.94593 8.70498 10.0292 8.58406 10.1512C8.43272 10.3027 8.37412 10.3883 8.32367 10.536C8.29474 10.6216 8.28436 10.667 8.25617 10.8374C8.21166 11.1078 8.13302 11.4434 7.99875 11.935C7.76952 12.775 7.69756 13.0628 7.63599 13.3931C7.61447 13.512 7.59964 13.5521 7.55513 13.6241C7.47204 13.7574 7.33851 13.8422 7.22649 13.8339C7.11373 13.8256 6.97798 13.7165 6.91344 13.5847C6.88525 13.5264 6.88154 13.512 6.87783 13.4514C6.87263 13.3567 6.88376 13.2749 6.94682 12.9462C6.97723 12.7879 7.01581 12.5849 7.03213 12.4955C7.04919 12.4061 7.08109 12.247 7.10335 12.1433C7.14192 11.9645 7.16863 11.8509 7.35038 11.0897C7.4624 10.6208 7.51062 10.3928 7.59667 9.92775C7.62412 9.77702 7.67308 9.64522 7.74133 9.53615C7.81032 9.42481 7.83703 9.3983 8.56032 8.72644C8.96314 8.35302 9.24726 8.09398 9.32664 8.02808C9.63525 7.77207 10.0084 7.62436 10.4201 7.59558C10.4683 7.59179 10.8697 7.58952 11.3125 7.59028C12.0507 7.59179 12.1212 7.59255 12.1657 7.60467Z" fill="#262626"/>
</svg>
