<svg width="24" height="24" viewBox="0 0 24 24" fill="none" xmlns="http://www.w3.org/2000/svg">
<path fill-rule="evenodd" clip-rule="evenodd" d="M21.75 19.5002H2.25V20.9998H21.75V19.5002ZM19.8736 4.5H4.12645C3.40175 4.5 3 5.02156 3 5.44688V14.0541C3 14.4781 3.40139 15 4.12645 15H19.8736C20.5986 15 21 14.4781 21 14.0541V5.44688C21 5.02156 20.5983 4.5 19.8736 4.5ZM4.12645 3H19.8736C21.325 3 22.5 4.09496 22.5 5.44688V14.0541C22.5 15.4052 21.3248 16.5 19.8736 16.5H4.12645C2.67524 16.5 1.5 15.4052 1.5 14.0541V5.44688C1.5 4.09496 2.67503 3 4.12645 3Z" fill="#262626"/>
</svg>
