<svg width="24" height="24" viewBox="0 0 24 24" fill="none" xmlns="http://www.w3.org/2000/svg">
<path d="M7.63594 11.1097C8.49316 10.8331 9.40781 10.6803 10.3594 10.6803H13.6406C14.1861 10.6803 14.625 11.1221 14.625 11.6713C14.625 12.2204 14.1861 12.6622 13.6406 12.6622H10.3594C9.31758 12.6622 8.3291 12.8934 7.44727 13.3104C7.76309 15.9239 9.97383 17.947 12.6521 17.947H12.6562H12.6891H12.6932C16.684 17.9263 20.5312 13.8058 20.5312 7.89756C20.5312 7.36907 20.4984 6.85298 20.4369 6.34927C19.4238 7.00161 18.218 7.37733 16.9219 7.37733H12.6562C10.2937 7.37733 8.29629 8.95039 7.63594 11.1097ZM5.45391 12.1708C5.7041 8.38888 8.83359 5.39552 12.6562 5.39552H16.9219C18.099 5.39552 19.1695 4.94961 19.9816 4.21882C20.0104 4.19405 20.0391 4.16515 20.0678 4.14037C20.3385 3.88439 20.5805 3.59538 20.7814 3.27746C20.8471 3.17424 20.9127 3.06689 20.9701 2.95542C21.1137 2.68705 21.5279 2.67466 21.6346 2.95955C21.6879 3.10405 21.7371 3.24856 21.7863 3.3972C21.9053 3.76466 22.0119 4.13625 22.1062 4.52022C22.1268 4.59867 22.1432 4.67712 22.1596 4.75143C22.3811 5.75472 22.5 6.80756 22.5 7.89756C22.5 14.5242 18.1154 19.8999 12.6973 19.9288H12.6562C9.30527 19.9288 6.4875 17.6291 5.67539 14.5118C4.31777 15.7794 3.46875 17.5878 3.46875 19.5985V20.2591C3.46875 20.8082 3.02988 21.25 2.48438 21.25C1.93887 21.25 1.5 20.8082 1.5 20.2591V19.5985C1.5 16.4978 3.0709 13.7687 5.45391 12.1708Z" fill="#262626"/>
</svg>
