<svg width="33" height="45" viewBox="0 0 33 45" fill="none" xmlns="http://www.w3.org/2000/svg">
<ellipse cx="16.5" cy="42" rx="6" ry="3" fill="#262626"/>
<path d="M21.5 17C21.5 19.7614 19.2614 22 16.5 22C13.7386 22 11.5 19.7614 11.5 17C11.5 14.2386 13.7386 12 16.5 12C19.2614 12 21.5 14.2386 21.5 17Z" fill="white"/>
<path fill-rule="evenodd" clip-rule="evenodd" d="M4.79968 5.1713L4.89002 5.07407C11.3021 -1.69138 21.6973 -1.69138 28.1074 5.07419L28.5845 5.59156C34.5997 12.382 34.4689 23.0354 28.1923 29.66L16.4986 41.9999L4.80681 29.6598C-1.60108 22.8943 -1.60108 11.927 4.79968 5.1713ZM12.0002 16.9999C12.0002 14.5146 14.0145 12.4999 16.4994 12.4999C18.9844 12.4999 21 14.5148 21 16.9999C21 19.485 18.9844 21.4998 16.4994 21.4998C14.0145 21.4998 12.0002 19.4852 12.0002 16.9999Z" fill="#FF5A00"/>
</svg>
