<svg width="24" height="24" viewBox="0 0 24 24" fill="none" xmlns="http://www.w3.org/2000/svg">
<path fill-rule="evenodd" clip-rule="evenodd" d="M6.85004 13.5C4.60129 10.826 4.72329 6.80559 7.21351 4.28159L7.25047 4.24339C9.87362 1.58553 14.1262 1.58553 16.7485 4.24344L16.9437 4.44669C19.2813 6.98089 19.35 10.8846 17.1498 13.5H20.4L22.5 22.5H1.5L3.6 13.5H6.85004ZM8.29962 15H4.79029L3.39029 21H20.6097L19.2097 15H15.6999L11.9994 18.75L8.29962 15ZM10.125 9C10.125 7.96444 10.9643 7.125 11.9997 7.125C13.0352 7.125 13.875 7.96452 13.875 9C13.875 10.0355 13.0352 10.875 11.9997 10.875C10.9643 10.875 10.125 10.0356 10.125 9Z" fill="#262626"/>
</svg>
