<svg width="24" height="24" viewBox="0 0 24 24" fill="none" xmlns="http://www.w3.org/2000/svg">
<path fill-rule="evenodd" clip-rule="evenodd" d="M1.5 5.25H22.5V18.75H1.5V5.25ZM1.9542 5.70701V18.293H22.0458V5.70701H1.9542Z" fill="#2C2E35"/>
<path d="M6.93866 14.239H6.05709L4.80831 11.1137L4.1587 14.239H3.27696L4.24213 9.58851H5.12387L6.37579 12.7003L7.02226 9.58851H7.904L6.93866 14.239Z" fill="#2C2E35"/>
<path fill-rule="evenodd" clip-rule="evenodd" d="M10.9426 13.2133H9.11069L8.55148 14.239H7.56799L10.18 9.58851H11.2494L11.9954 14.239H11.0936L10.9426 13.2133ZM10.8277 12.4336L10.5532 10.5665L9.5355 12.4336H10.8277Z" fill="#2C2E35"/>
<path fill-rule="evenodd" clip-rule="evenodd" d="M13.526 14.239H12.575L13.5404 9.58851H15.4188C15.7529 9.58851 16.0171 9.62837 16.2116 9.70757C16.4058 9.78695 16.5599 9.91813 16.6734 10.1013C16.7867 10.2843 16.8437 10.5029 16.8437 10.7567C16.8437 10.9916 16.7984 11.2203 16.7081 11.4424C16.6177 11.6648 16.5067 11.8425 16.3755 11.9758C16.2442 12.1092 16.103 12.2102 15.9517 12.279C15.8004 12.3477 15.5967 12.4002 15.3403 12.436C15.1911 12.4573 14.9117 12.4678 14.5019 12.4678H13.8938L13.526 14.239ZM14.0556 11.6881H14.3481C14.849 11.6881 15.1832 11.6567 15.3511 11.5936C15.5189 11.5306 15.651 11.4296 15.7475 11.2909C15.8438 11.1521 15.892 10.9999 15.892 10.8338C15.892 10.7224 15.8672 10.6309 15.818 10.5595C15.7686 10.4882 15.6992 10.436 15.61 10.4035C15.5208 10.3709 15.3218 10.3545 15.0129 10.3545H14.3324L14.0556 11.6881Z" fill="#2C2E35"/>
<path d="M17.0242 12.7342L17.9283 12.6866C17.941 12.9764 17.9908 13.172 18.0775 13.2735C18.2173 13.4386 18.4758 13.521 18.8531 13.521C19.1666 13.521 19.3935 13.4649 19.5333 13.3527C19.6729 13.2405 19.7431 13.1049 19.7431 12.9462C19.7431 12.8085 19.686 12.6921 19.5718 12.5967C19.4916 12.5268 19.2713 12.4136 18.9112 12.2569C18.551 12.1003 18.288 11.9694 18.1222 11.8646C17.9562 11.7599 17.8258 11.6238 17.7309 11.4565C17.6358 11.2893 17.5885 11.0935 17.5885 10.8691C17.5885 10.4773 17.7291 10.1524 18.011 9.89389C18.2929 9.63575 18.7011 9.5065 19.2357 9.5065C19.7783 9.5065 20.1984 9.63469 20.496 9.89109C20.7938 10.1477 20.9575 10.4889 20.987 10.9151L20.0761 10.9563C20.053 10.7335 19.9729 10.5626 19.8363 10.4439C19.6998 10.325 19.4977 10.2657 19.2306 10.2657C18.968 10.2657 18.7802 10.3122 18.6678 10.4055C18.5552 10.4985 18.4992 10.616 18.4992 10.7579C18.4992 10.8912 18.5507 11.0013 18.6538 11.0881C18.7571 11.1771 18.9854 11.2988 19.339 11.4533C19.8715 11.6843 20.2106 11.8716 20.3558 12.0156C20.5724 12.2272 20.681 12.4993 20.681 12.8317C20.681 13.2424 20.5192 13.5935 20.196 13.8845C19.8724 14.1756 19.4221 14.3212 18.8447 14.3212C18.4465 14.3212 18.1014 14.254 17.8094 14.1196C17.5176 13.9853 17.3118 13.7986 17.1917 13.5594C17.0715 13.3202 17.0156 13.0452 17.0242 12.7342Z" fill="#2C2E35"/>
</svg>
