<svg fill="none" height="56" viewBox="0 0 56 56" width="56" xmlns="http://www.w3.org/2000/svg">
    <path clip-rule="evenodd"
        d="M28 7C16.4015 7 7 16.4017 7 28.0012C7 39.5984 16.4016 49 28 49C39.5969 49 49 39.5975 49 28.0012C49 16.4026 39.597 7 28 7ZM3.5 28.0012C3.5 14.4689 14.4683 3.5 28 3.5C41.53 3.5 52.5 14.4697 52.5 28.0012C52.5 41.5307 41.5296 52.5 28 52.5C14.4687 52.5 3.5 41.5315 3.5 28.0012Z"
        fill="#DD1608" fill-rule="evenodd" />
    <path clip-rule="evenodd"
        d="M34.327 36.7499L19.25 21.6728L21.6729 19.2499L36.7499 34.3269L34.327 36.7499Z"
        fill="#DD1608" fill-rule="evenodd" />
    <path clip-rule="evenodd"
        d="M19.25 34.3269L34.327 19.2499L36.7499 21.6728L21.6729 36.7499L19.25 34.3269Z"
        fill="#DD1608" fill-rule="evenodd" />
</svg>
