<svg width="25" height="24" viewBox="0 0 25 24" fill="none" xmlns="http://www.w3.org/2000/svg">
<path d="M12.125 22.5C14.9098 22.5 17.5805 21.3938 19.5496 19.4246C21.5188 17.4555 22.625 14.7848 22.625 12C22.625 9.21523 21.5188 6.54451 19.5496 4.57538C17.5805 2.60625 14.9098 1.5 12.125 1.5C9.34023 1.5 6.66951 2.60625 4.70038 4.57538C2.73125 6.54451 1.625 9.21523 1.625 12C1.625 14.7848 2.73125 17.4555 4.70038 19.4246C6.66951 21.3938 9.34023 22.5 12.125 22.5ZM8.86016 8.71875C9.20825 8.71875 9.54209 8.85703 9.78823 9.10317C10.0344 9.34931 10.1727 9.68315 10.1727 10.0312C10.1727 10.3793 10.0344 10.7132 9.78823 10.9593C9.54209 11.2055 9.20825 11.3438 8.86016 11.3438C8.51206 11.3438 8.17822 11.2055 7.93208 10.9593C7.68594 10.7132 7.54766 10.3793 7.54766 10.0312C7.54766 9.68315 7.68594 9.34931 7.93208 9.10317C8.17822 8.85703 8.51206 8.71875 8.86016 8.71875ZM14.1102 10.0312C14.1102 9.68315 14.2484 9.34931 14.4946 9.10317C14.7407 8.85703 15.0746 8.71875 15.4227 8.71875C15.7708 8.71875 16.1046 8.85703 16.3507 9.10317C16.5969 9.34931 16.7352 9.68315 16.7352 10.0312C16.7352 10.3793 16.5969 10.7132 16.3507 10.9593C16.1046 11.2055 15.7708 11.3438 15.4227 11.3438C15.0746 11.3438 14.7407 11.2055 14.4946 10.9593C14.2484 10.7132 14.1102 10.3793 14.1102 10.0312ZM8.1875 15.2812H16.0625C16.4234 15.2812 16.7188 15.5766 16.7188 15.9375C16.7188 16.2984 16.4234 16.5938 16.0625 16.5938H8.1875C7.82656 16.5938 7.53125 16.2984 7.53125 15.9375C7.53125 15.5766 7.82656 15.2812 8.1875 15.2812Z" fill="#262626"/>
</svg>
