<svg width="22" height="22" viewBox="0 0 22 22" fill="none" xmlns="http://www.w3.org/2000/svg">
<path fill-rule="evenodd" clip-rule="evenodd" d="M9.875 14.375C9.875 13.754 10.3783 13.25 11.0014 13.25C11.6217 13.25 12.125 13.754 12.125 14.375C12.125 14.9946 11.6217 15.5 11.0014 15.5C10.3783 15.5 9.875 14.9946 9.875 14.375Z" fill="#262626"/>
<path fill-rule="evenodd" clip-rule="evenodd" d="M10.25 6.5V11.75H11.75V6.5H10.25Z" fill="#262626"/>
<path fill-rule="evenodd" clip-rule="evenodd" d="M19.4541 9.68198L12.318 2.54594C11.5901 1.81802 10.4099 1.81802 9.68198 2.54594L2.54594 9.68198C1.81802 10.4099 1.81802 11.5901 2.54594 12.318L9.68198 19.4541C10.4099 20.182 11.5901 20.182 12.318 19.4541L19.4541 12.318C20.182 11.5901 20.182 10.4099 19.4541 9.68198ZM13.3787 1.48528C12.065 0.171573 9.93503 0.171573 8.62132 1.48528L1.48528 8.62132C0.171573 9.93503 0.171573 12.065 1.48528 13.3787L8.62132 20.5147C9.93503 21.8284 12.065 21.8284 13.3787 20.5147L20.5147 13.3787C21.8284 12.065 21.8284 9.93503 20.5147 8.62132L13.3787 1.48528Z" fill="#262626"/>
</svg>
