<svg width="24" height="24" viewBox="0 0 24 24" fill="none" xmlns="http://www.w3.org/2000/svg">
<path d="M11.2697 4.96029H12.7499V1.5H11.2697V4.96029Z" fill="#262626"/>
<path d="M7.83997 2.38506C7.46879 2.54707 7.16365 2.68108 7.16165 2.68308C7.15864 2.68608 8.5153 5.78535 8.53931 5.83035C8.54832 5.84635 8.61335 5.82035 9.21164 5.55933C9.57682 5.40031 9.88297 5.2673 9.89197 5.2633C9.90598 5.2563 9.80993 5.03128 9.21964 3.68517C8.84046 2.82109 8.52731 2.11003 8.52231 2.10303C8.5163 2.09503 8.32421 2.17404 7.83997 2.38506Z" fill="#262626"/>
<path d="M15.4921 2.11805C15.4391 2.23306 14.1215 5.24332 14.1215 5.24932C14.1215 5.25432 14.1785 5.28332 14.2495 5.31433C14.6067 5.47134 15.4771 5.84937 15.4781 5.84737C15.4951 5.82537 16.8618 2.6851 16.8558 2.6811C16.8498 2.6751 15.6762 2.16206 15.5371 2.10405C15.5061 2.09105 15.5041 2.09205 15.4921 2.11805Z" fill="#262626"/>
<path d="M17.1131 5.67132C16.6839 5.71933 16.2667 5.89434 15.9475 6.16236C15.8585 6.23637 15.7094 6.38638 15.6424 6.46739L15.6073 6.50939L15.4763 6.47539C15.2091 6.40639 14.98 6.37738 14.6919 6.37838C13.9765 6.37938 13.3122 6.6144 12.746 7.06644C12.4608 7.29446 12.1647 7.64549 11.9956 7.95452L11.9486 8.04153L11.9115 7.97852C11.6134 7.47048 11.1542 7.04544 10.6149 6.78042C10.1697 6.5614 9.73849 6.46039 9.24826 6.46039C8.95912 6.46039 8.79404 6.47939 8.5069 6.5474L8.35082 6.5834L8.32281 6.5494C8.26278 6.47639 8.13972 6.35438 8.04867 6.27938C7.4844 5.80633 6.73003 5.64932 6.01569 5.85634C5.26132 6.07536 4.66804 6.69341 4.47694 7.45948C4.44193 7.60249 4.42792 7.6895 4.41291 7.84951L4.40191 7.97452L4.34188 7.99852C4.06674 8.10753 3.7656 8.28255 3.53649 8.46756C3.42143 8.55957 3.22233 8.75359 3.11728 8.8756C2.62304 9.44965 2.34491 10.1957 2.34591 10.9498C2.34591 11.1848 2.38593 11.4928 2.44596 11.7208C2.46297 11.7838 2.67907 12.4549 2.92719 13.211C3.17531 13.967 3.37941 14.5901 3.37941 14.5961C3.38041 14.6021 3.33139 14.6091 3.26035 14.6131C2.85316 14.6351 2.43996 14.7741 2.09079 15.0061C1.5055 15.3952 1.12832 15.9852 1.01827 16.6843C0.993254 16.8433 0.994255 17.2013 1.01927 17.3663C1.10231 17.9064 1.35143 18.3894 1.73661 18.7554C1.96272 18.9695 2.17683 19.1065 2.51499 19.2515C2.95721 19.4405 3.36741 19.6905 3.95169 20.1266C4.05674 20.2046 4.34688 20.4276 4.597 20.6226C5.09124 21.0056 5.34836 21.1996 5.58348 21.3647C6.53494 22.0317 7.35434 22.3787 8.21375 22.4778C8.39584 22.4988 8.79704 22.5018 8.97412 22.4828C9.1272 22.4668 9.35231 22.4288 9.49337 22.3957C9.5544 22.3807 10.0316 22.2417 10.5549 22.0847C11.5084 21.7997 11.6794 21.7417 11.9145 21.6287L12.0246 21.5757L13.3843 21.9837C14.7009 22.3787 14.899 22.4338 15.1221 22.4658C16.0105 22.5938 16.942 22.3647 18.0585 21.7417C18.2636 21.6267 18.4627 21.5087 18.8629 21.2627C19.5723 20.8266 19.7774 20.7086 20.1155 20.5416C20.4397 20.3826 20.6758 20.2926 20.9399 20.2306C21.2671 20.1526 21.4352 20.0966 21.6253 20.0025C22.1185 19.7565 22.5057 19.3685 22.7468 18.8764C22.9249 18.5124 22.9989 18.1924 22.9999 17.7814C23.0009 17.5533 22.9929 17.4673 22.9549 17.2763C22.8038 16.5222 22.2956 15.8602 21.5992 15.5142C21.2401 15.3341 20.9029 15.2571 20.4837 15.2561H20.2666L20.3156 15.1161C20.5617 14.4021 21.4632 11.6958 21.4892 11.5908C21.6773 10.8418 21.5872 10.0697 21.2291 9.36964C20.8989 8.72358 20.3086 8.17754 19.6473 7.90451C19.5993 7.88451 19.5573 7.86651 19.5573 7.86651C19.5573 7.86651 19.5502 7.8015 19.5442 7.7255C19.4702 6.78742 18.8329 6.00035 17.9415 5.74633C17.6823 5.67232 17.3642 5.64332 17.1131 5.67132ZM17.5563 7.18045C17.7454 7.24346 17.8944 7.37247 17.9785 7.54448C18.0435 7.67549 18.0585 7.7415 18.0575 7.88551L18.0565 8.00552L17.2952 10.2787C16.6258 12.2749 16.5358 12.5529 16.5508 12.5579C16.5598 12.5619 16.876 12.6669 17.2531 12.7909C17.7914 12.9689 17.9405 13.0149 17.9465 13.0039C17.9515 12.9969 18.2296 12.1689 18.5648 11.1638C18.8999 10.1587 19.1771 9.33464 19.1801 9.33163C19.1951 9.31563 19.4132 9.45765 19.5242 9.55565C19.7423 9.74867 19.9224 10.0237 20.0135 10.3007C20.0685 10.4697 20.0865 10.5787 20.0915 10.7768C20.0975 10.9628 20.0855 11.0768 20.0475 11.2308C20.0335 11.2898 18.7058 15.2511 18.6978 15.2601C18.6968 15.2621 18.6458 15.2181 18.5868 15.1631C18.3267 14.9201 18.0695 14.7421 17.7334 14.5721C17.5693 14.4891 17.3152 14.3841 17.1481 14.3311C17.061 14.3041 16.2597 14.089 16.2086 14.079C16.1916 14.076 16.1706 14.147 16.0015 14.7861C15.8975 15.1761 15.8124 15.4992 15.8124 15.5022C15.8124 15.5052 15.9825 15.5522 16.1906 15.6062C16.6058 15.7142 16.8039 15.7752 16.963 15.8462C17.0971 15.9062 17.2521 15.9942 17.3732 16.0792C17.4963 16.1662 17.7194 16.3882 17.8034 16.5092C17.9175 16.6723 18.0125 16.8663 18.0595 17.0363C18.0805 17.1133 18.0895 17.1243 18.1276 17.1183C18.1446 17.1153 18.4627 17.0683 18.8339 17.0123C19.4622 16.9193 19.5102 16.9103 19.5282 16.8893C19.5462 16.8663 19.5462 16.8663 19.5182 16.8603L19.4892 16.8543L19.5142 16.8483C19.5282 16.8453 19.7303 16.8183 19.9644 16.7893C20.4667 16.7273 20.5697 16.7243 20.7298 16.7653C21.1 16.8593 21.3841 17.1423 21.4872 17.5193C21.5052 17.5833 21.5092 17.6253 21.5092 17.7714C21.5092 17.9234 21.5072 17.9574 21.4862 18.0314C21.4382 18.2084 21.3451 18.3694 21.2181 18.4924C21.066 18.6404 20.9289 18.7104 20.6818 18.7674C19.9745 18.9295 19.3542 19.2155 18.3056 19.8635C17.5943 20.3036 17.2641 20.4936 16.948 20.6476C16.2667 20.9786 15.7284 21.0826 15.2332 20.9806C15.1521 20.9636 13.5043 20.4766 13.4923 20.4656C13.4903 20.4636 13.4993 20.4486 13.5123 20.4326C13.8715 19.9925 14.0106 19.7865 14.2017 19.4065C14.3777 19.0595 14.4958 18.7434 14.5848 18.3864C14.6869 17.9764 14.7319 17.6163 14.7319 17.2073C14.7319 16.7873 14.6869 16.4252 14.5868 16.0262C14.5238 15.7782 13.6364 12.9869 13.1551 11.5238L12.7389 10.2607L12.789 10.1087C12.817 10.0247 12.919 9.71467 13.0151 9.42064C13.1652 8.9666 13.2022 8.8646 13.2612 8.74559C13.4233 8.41956 13.6654 8.18154 13.9966 8.02052C14.2207 7.91251 14.3837 7.87251 14.6329 7.86351C14.7899 7.85851 14.981 7.87151 15.011 7.88951C15.0191 7.89451 14.84 8.44556 14.4068 9.75067C14.0686 10.7708 13.7915 11.6098 13.7915 11.6148C13.7915 11.6248 15.1621 12.0819 15.1871 12.0809C15.1931 12.0809 15.5353 11.0668 15.9465 9.82768C16.3887 8.49856 16.7089 7.54848 16.7289 7.51048C16.8249 7.32546 17.001 7.19545 17.2081 7.15445C17.3152 7.13345 17.4442 7.14345 17.5563 7.18045ZM6.81207 7.27046C6.93613 7.30146 7.04019 7.36147 7.13423 7.45448C7.23428 7.55448 7.2703 7.61749 7.34733 7.83051C7.38035 7.92152 7.76153 9.02161 8.19374 10.2747C8.62595 11.5288 8.98113 12.5559 8.98313 12.5579C8.98513 12.5599 9.30128 12.4539 9.68547 12.3219C10.1767 12.1539 10.3838 12.0789 10.3818 12.0689C10.3798 12.0619 10.0617 11.1358 9.67346 10.0117C9.28627 8.8876 8.97012 7.96552 8.97212 7.96352C8.97412 7.96252 9.01414 7.95552 9.06016 7.94952C9.17822 7.93352 9.43835 7.94452 9.56141 7.97052C10.0596 8.07553 10.4809 8.40256 10.694 8.85059C10.746 8.9606 10.762 9.00661 11.5304 11.3408C12.0236 12.8369 13.0031 15.8902 13.1171 16.2862C13.1662 16.4542 13.2082 16.6693 13.2272 16.8513C13.2472 17.0453 13.2422 17.4873 13.2172 17.6513C13.1181 18.3044 12.886 18.8384 12.4778 19.3545C12.3788 19.4805 12.1086 19.7505 11.9806 19.8535C11.7104 20.0686 11.4003 20.2486 11.0901 20.3696C10.9871 20.4106 9.36431 20.9006 9.17922 20.9466C9.03615 20.9826 8.91609 21.0006 8.75702 21.0106C8.0997 21.0526 7.40536 20.8076 6.55995 20.2356C6.29682 20.0576 6.07172 19.8905 5.59849 19.5225C4.76008 18.8694 4.42992 18.6284 4.03673 18.3844C3.72158 18.1884 3.37741 18.0054 3.09928 17.8874C2.90918 17.8064 2.85416 17.7714 2.7461 17.6623C2.63905 17.5543 2.58102 17.4623 2.535 17.3283C2.47097 17.1403 2.46797 16.9273 2.528 16.7413C2.62605 16.4362 2.87317 16.2032 3.18732 16.1202C3.30838 16.0882 3.50947 16.0872 3.62053 16.1192C3.66355 16.1312 4.14678 16.3112 4.69305 16.5182C5.24031 16.7253 5.68953 16.8923 5.69153 16.8903C5.69453 16.8883 5.29234 15.6532 4.7981 14.146C4.30386 12.6389 3.88966 11.3648 3.87865 11.3158C3.82863 11.1038 3.82463 10.8188 3.86665 10.6157C3.95369 10.2007 4.1828 9.83568 4.50796 9.59266C4.605 9.52065 4.76408 9.42364 4.77209 9.43264C4.77509 9.43464 5.10525 10.3697 5.50744 11.5108C5.90864 12.6509 6.2388 13.585 6.2408 13.588C6.2478 13.595 7.63847 13.107 7.63847 13.098C7.63847 13.094 7.25329 11.9959 6.78306 10.6587C6.31183 9.32263 5.91964 8.19854 5.91164 8.16154C5.88963 8.06853 5.89763 7.88151 5.92765 7.7855C6.00868 7.52948 6.20678 7.33647 6.4589 7.27146C6.55995 7.24446 6.71002 7.24446 6.81207 7.27046Z" fill="#262626"/>
</svg>
