<svg width="25" height="24" viewBox="0 0 25 24" fill="none" xmlns="http://www.w3.org/2000/svg">
<path d="M7.3763 22.5C6.08932 22.5 5.04297 21.4536 5.04297 20.1667L5.04297 3.83333C5.04297 2.54635 6.08932 1.5 7.3763 1.5L10.1739 1.5C10.5458 1.5 10.8739 1.73333 10.9979 2.08333C11.2385 2.7651 11.8875 3.25 12.6495 3.25C13.4114 3.25 14.0604 2.7651 14.301 2.08333C14.425 1.73333 14.7568 1.5 15.125 1.5L17.9705 1.5C19.2575 1.5 20.3039 2.54635 20.3039 3.83333L20.3039 20.1667C20.3039 21.4536 19.2575 22.5 17.9705 22.5L15.154 22.5C14.7821 22.5 14.454 22.2667 14.33 21.9167C14.0894 21.2349 13.4405 20.75 12.6785 20.75C11.9165 20.75 11.2675 21.2349 11.0269 21.9167C10.903 22.2667 10.5712 22.5 10.203 22.5L7.3763 22.5ZM6.79297 20.1667C6.79297 20.4875 7.05547 20.75 7.3763 20.75L9.64879 20.75C10.254 19.7036 11.3842 19 12.6785 19C13.9727 19 15.1066 19.7036 15.7082 20.75L17.9705 20.75C18.2914 20.75 18.5539 20.4875 18.5539 20.1667L18.5539 3.83333C18.5539 3.5125 18.2914 3.25 17.9705 3.25L15.6791 3.25C15.0739 4.29635 13.9437 5 12.6495 5C11.3552 5 10.2213 4.29635 9.61977 3.25L7.3763 3.25C7.05547 3.25 6.79297 3.5125 6.79297 3.83333L6.79297 20.1667Z" fill="#262626"/>
<path fill-rule="evenodd" clip-rule="evenodd" d="M15.543 12C15.543 12.4832 15.1512 12.875 14.668 12.875H10.6797C10.1964 12.875 9.80469 12.4832 9.80469 12C9.80469 11.5168 10.1964 11.125 10.6797 11.125H14.668C15.1512 11.125 15.543 11.5168 15.543 12Z" fill="#262626"/>
</svg>
