<svg width="25" height="24" viewBox="0 0 25 24" fill="none" xmlns="http://www.w3.org/2000/svg">
<path d="M18.5904 9.39543C18.5904 6.12623 15.9381 3.47386 12.6689 3.47386C9.39967 3.47386 6.7473 6.12623 6.7473 9.39543C6.7473 9.90534 6.93234 10.6949 7.37646 11.7476C7.80824 12.7674 8.42096 13.8942 9.12415 15.0333C10.2961 16.9331 11.6532 18.7671 12.6689 20.0748C13.6887 18.7671 15.0457 16.9331 16.2136 15.0333C16.9168 13.8942 17.5295 12.7674 17.9613 11.7476C18.4054 10.6949 18.5904 9.90534 18.5904 9.39543ZM20.5643 9.39543C20.5643 12.9895 15.753 19.3881 13.6435 22.0281C13.1377 22.6573 12.2001 22.6573 11.6943 22.0281C9.58472 19.3881 4.77344 12.9895 4.77344 9.39543C4.77344 5.0365 8.30993 1.5 12.6689 1.5C17.0278 1.5 20.5643 5.0365 20.5643 9.39543ZM13.9848 9.39543C13.9848 9.04643 13.8461 8.71173 13.5994 8.46495C13.3526 8.21817 13.0179 8.07953 12.6689 8.07953C12.3199 8.07953 11.9852 8.21817 11.7384 8.46495C11.4916 8.71173 11.353 9.04643 11.353 9.39543C11.353 9.74443 11.4916 10.0791 11.7384 10.3259C11.9852 10.5727 12.3199 10.7113 12.6689 10.7113C13.0179 10.7113 13.3526 10.5727 13.5994 10.3259C13.8461 10.0791 13.9848 9.74443 13.9848 9.39543ZM9.37911 9.39543C9.37911 8.52293 9.72571 7.68617 10.3427 7.06922C10.9596 6.45227 11.7964 6.10567 12.6689 6.10567C13.5414 6.10567 14.3781 6.45227 14.9951 7.06922C15.612 7.68617 15.9586 8.52293 15.9586 9.39543C15.9586 10.2679 15.612 11.1047 14.9951 11.7216C14.3781 12.3386 13.5414 12.6852 12.6689 12.6852C11.7964 12.6852 10.9596 12.3386 10.3427 11.7216C9.72571 11.1047 9.37911 10.2679 9.37911 9.39543Z" fill="#262626"/>
</svg>
