<svg width="25" height="24" viewBox="0 0 25 24" fill="none" xmlns="http://www.w3.org/2000/svg">
<path d="M3.71469 3.66952C3.37345 3.39726 2.87799 3.46034 2.60893 3.80565C2.33987 4.15095 2.40222 4.65231 2.74346 4.92457L22.1681 20.3305C22.5094 20.6027 23.0048 20.5397 23.2739 20.1944C23.5429 19.849 23.4806 19.3477 23.1394 19.0754L17.5023 14.6064C18.4866 12.8931 19.2413 11.1633 19.2413 9.87505C19.2413 6.35559 16.4195 3.50019 12.9414 3.50019C10.6183 3.50019 8.58726 4.77516 7.49463 6.6677L3.71469 3.66952ZM8.75132 7.66377C9.53881 6.13646 11.1203 5.0939 12.9414 5.0939C15.55 5.0939 17.6663 7.23546 17.6663 9.87505C17.6663 10.2868 17.5187 10.9242 17.1643 11.7742C16.9215 12.3519 16.6098 12.9762 16.2488 13.6136L14.3556 12.1129C15.084 11.6381 15.5664 10.8147 15.5664 9.87505C15.5664 8.4075 14.3917 7.21886 12.9414 7.21886C11.7897 7.21886 10.8086 7.97255 10.4575 9.01511L8.75132 7.66377ZM12.8758 10.9342L11.9406 10.1905C11.9111 10.0909 11.8914 9.98461 11.8914 9.87173C11.8914 9.28404 12.3606 8.80925 12.9414 8.80925C13.5222 8.80925 13.9914 9.28404 13.9914 9.87173C13.9914 10.4594 13.5222 10.9342 12.9414 10.9342C12.9184 10.9342 12.8988 10.9342 12.8758 10.9309V10.9342ZM8.71851 11.7742C8.70211 11.7344 8.6857 11.6912 8.66929 11.6514L6.6448 10.0377C6.78261 12.9662 10.51 17.9831 12.1638 20.0715C12.5674 20.5795 13.3155 20.5795 13.719 20.0715C14.2506 19.4008 14.9987 18.4247 15.7698 17.3124L14.5295 16.323C13.9619 17.1397 13.4073 17.8901 12.9381 18.4944C12.1244 17.4386 11.0416 15.9577 10.1097 14.4238C9.54865 13.5041 9.05976 12.5943 8.71523 11.7709L8.71851 11.7742Z" fill="#262626"/>
</svg>
