<svg width="81" height="82" viewBox="0 0 81 82" fill="none" xmlns="http://www.w3.org/2000/svg">
<g clip-path="url(#clip0_2713_73764)">
<circle cx="40.7791" cy="41.043" r="40.1368" fill="white"/>
<path d="M18.6084 40.3157L32.7013 56.8715L63.0763 30.4644" stroke="#FCE2A6" stroke-width="20.25" stroke-linecap="round" stroke-linejoin="round"/>
<path d="M68.0762 57.3782L68.5433 57.5623C69.0349 57.7561 69.0349 58.4517 68.5433 58.6455L68.0762 58.8296C67.0956 59.2156 66.3219 59.9911 65.9341 60.9717L65.75 61.4388C65.5562 61.9304 64.8606 61.9304 64.6668 61.4388L64.4827 60.9717C64.0967 59.993 63.3211 59.2174 62.3406 58.8296L61.8735 58.6455C61.3819 58.4517 61.3819 57.7561 61.8735 57.5623L62.3406 57.3782C63.3193 56.9922 64.0949 56.2167 64.4827 55.2361L64.6668 54.769C64.8606 54.2774 65.5562 54.2774 65.75 54.769L65.9341 55.2361C66.3201 56.2148 67.0956 56.9904 68.0762 57.3782Z" fill="#FF5A00"/>
<path d="M22.3843 16.9168L23.5634 17.4107C24.0397 17.6102 24.0397 18.2851 23.5634 18.4846L22.3843 18.9784C21.0734 19.5266 20.0391 20.6282 19.5207 22.021L19.0963 23.1648C18.9085 23.671 18.1925 23.671 18.0047 23.1648L17.5804 22.021C17.0644 20.6308 16.0276 19.5292 14.7168 18.9784L13.5377 18.4846C13.0613 18.2851 13.0613 17.6102 13.5377 17.4107L14.7168 16.9168C16.0252 16.3687 17.062 15.267 17.5804 13.8743L18.0047 12.7304C18.1925 12.2242 18.9085 12.2242 19.0963 12.7304L19.5207 13.8743C20.0366 15.2644 21.0734 16.366 22.3843 16.9168Z" fill="#FF5A00"/>
<path d="M34.5833 7.98202L35.0374 8.161C35.4995 8.34316 35.4995 8.99717 35.0374 9.17933L34.5833 9.35831C33.6536 9.72428 32.9199 10.4597 32.5522 11.3895L32.3732 11.8435C32.191 12.3057 31.537 12.3057 31.3548 11.8435L31.1759 11.3895C30.8099 10.4615 30.0745 9.72603 29.1447 9.35831L28.6906 9.17933C28.2285 8.99717 28.2285 8.34316 28.6906 8.161L29.1447 7.98202C30.0727 7.61606 30.8082 6.88063 31.1759 5.95084L31.3548 5.49678C31.537 5.03466 32.191 5.03466 32.3732 5.49678L32.5522 5.95084C32.9181 6.87888 33.6536 7.6143 34.5833 7.98202Z" fill="#FCE2A6"/>
<mask id="mask0_2713_73764" style="mask-type:alpha" maskUnits="userSpaceOnUse" x="0" y="0" width="81" height="82">
<circle cx="40.7791" cy="41.043" r="40.1368" fill="#F5F5F5"/>
</mask>
<g mask="url(#mask0_2713_73764)">
<path d="M6.84101 84.5962C6.84101 84.5962 15.0118 73.8613 19.0016 64.3959C20.2331 61.4743 21.8192 56.3088 21.8192 56.3088L34.3939 60.9794C34.3939 60.9794 31.8891 73.5035 23.659 84.5962L6.84101 84.5962Z" fill="#ED9D73"/>
<path d="M22.5166 57.7757L20.4376 53.8926C19.32 50.1307 19.2365 47.9388 19.7482 44.0234L20.548 37.8784C20.6665 36.9628 21.3963 36.2923 22.2446 36.3166C23.0821 36.3408 23.7742 37.0355 23.8604 37.943L24.9484 49.2125" fill="#ED9D73"/>
<path d="M21.582 61.8817C21.582 61.8817 23.6529 40.3687 23.9949 26.7215C24.0515 24.4595 25.9204 22.7711 27.9725 23.1239L28.7562 23.2585C33.4662 24.0717 36.9968 28.3883 37.1933 33.5774L37.6027 44.3137C37.6027 44.3137 42.294 57.9711 32.2625 66.0663" fill="#ED9D73"/>
<path d="M33.5635 26.5894C33.5635 26.5894 32.8498 36.3589 32.9656 40.759L31.7214 42.1835" stroke="#221F20" stroke-width="1.78915" stroke-miterlimit="10" stroke-linecap="round"/>
<path d="M28.6943 24.002C28.6943 24.002 27.5255 33.0014 27.7437 40.1777L26.8523 41.2764" stroke="#221F20" stroke-width="1.78915" stroke-miterlimit="10" stroke-linecap="round"/>
<path d="M23.5259 38.4302C23.5259 38.4302 23.3347 41.5889 23.394 43.0268" stroke="#221F20" stroke-width="1.78915" stroke-miterlimit="10" stroke-linecap="round"/>
</g>
<mask id="mask1_2713_73764" style="mask-type:alpha" maskUnits="userSpaceOnUse" x="0" y="0" width="81" height="82">
<circle cx="40.6841" cy="41" r="40.1368" fill="#CFE7C1"/>
</mask>
<g mask="url(#mask1_2713_73764)">
<path d="M113.695 112.578C113.695 112.578 79.8576 102.228 64.2237 75.593C58.0135 65.0129 54.9349 54.1354 54.9349 54.1354L46.4142 64.1718C46.4142 64.1718 49.5349 114.755 102.431 136.86L113.695 112.578Z" fill="#FDC3A4"/>
<path d="M57.473 50.188C57.8996 40.0579 58.1801 28.6451 58.2707 24.6188C58.2882 23.8036 57.5548 23.1754 56.7543 23.3215C53.0815 23.9847 44.8798 26.0271 44.4795 37.0367C44.1698 45.551 42.0018 52.543 42.1859 57.066C42.3057 60.0639 43.8048 62.4565 45.631 64.8408L46.6571 66.7915L58.791 64.8408C57.473 58.6097 57.2422 55.7307 57.476 50.188H57.473Z" fill="#FDC3A4"/>
<path d="M46.2239 44.026C46.2239 44.026 49.4701 41.5921 54.5366 40.9756" stroke="#221F20" stroke-width="1.78915" stroke-miterlimit="10" stroke-linecap="round"/>
<path d="M55.1851 24.125C55.1851 24.125 52.0178 31.4501 52.8885 40.803" stroke="#221F20" stroke-width="1.78915" stroke-miterlimit="10" stroke-linecap="round"/>
<path d="M50.0631 26.752C50.0631 26.752 47.7928 31.5789 48.1843 42.5943" stroke="#221F20" stroke-width="1.78915" stroke-miterlimit="10" stroke-linecap="round"/>
<path d="M51.314 49.9486C51.314 49.9486 52.1441 46.4451 56.4747 46.7982C56.4747 46.7982 59.175 41.5567 64.2159 40.7702C64.9884 40.651 65.7563 41.0087 66.1483 41.6805C66.3466 42.0199 66.2959 42.4486 66.0238 42.7329C64.4557 44.37 59.3733 49.7377 58.6815 51.2899C58.6815 51.2899 56.68 55.424 56.7307 57.3637" fill="#FDC3A4"/>
<path d="M51.314 49.9486C51.314 49.9486 52.1441 46.4451 56.4747 46.7982C56.4747 46.7982 59.175 41.5567 64.2159 40.7702C64.9884 40.651 65.7563 41.0087 66.1483 41.6805C66.3466 42.0199 66.2959 42.4486 66.0238 42.7329C64.4557 44.37 59.3733 49.7377 58.6815 51.2899C58.6815 51.2899 56.68 55.424 56.7307 57.3637" stroke="#221F20" stroke-width="1.78915" stroke-miterlimit="10" stroke-linecap="round"/>
<line x1="41.1724" y1="12.4221" x2="41.1724" y2="20.9074" stroke="#FF5A00" stroke-width="2.3257" stroke-linecap="round"/>
<line x1="32.7096" y1="17.8371" x2="34.955" y2="21.7195" stroke="#FCA06F" stroke-width="2.3257" stroke-linecap="round"/>
<line x1="1.16285" y1="-1.16285" x2="5.64778" y2="-1.16285" transform="matrix(-0.500634 0.865659 0.865659 0.500634 50.2473 17.4126)" stroke="#FCA06F" stroke-width="2.3257" stroke-linecap="round"/>
</g>
</g>
<defs>
<clipPath id="clip0_2713_73764">
<rect width="80.4527" height="81" fill="white" transform="translate(0.547363 0.5)"/>
</clipPath>
</defs>
</svg>
