<svg width="77" height="76" viewBox="0 0 77 76" fill="none" xmlns="http://www.w3.org/2000/svg">
<path d="M62.0205 65.4687L63.55 66.0715C64.2793 66.3589 64.2793 67.3911 63.55 67.6785L62.0205 68.2813C60.1201 69.0292 58.6205 70.5322 57.8689 72.4323L57.2658 73.9619C56.9783 74.6912 55.9463 74.6912 55.6588 73.9619L55.0558 72.4323C54.3078 70.5357 52.8046 69.0328 50.9042 68.2813L49.3747 67.6785C48.6454 67.3911 48.6454 66.3589 49.3747 66.0715L50.9042 65.4687C52.801 64.7208 54.3042 63.2178 55.0558 61.3177L55.6588 59.7881C55.9463 59.0588 56.9783 59.0588 57.2658 59.7881L57.8689 61.3177C58.6169 63.2143 60.1201 64.7172 62.0205 65.4687Z" fill="#FFC000"/>
<path d="M9.35141 27.0851L10.3522 27.4795C10.8071 27.6588 10.8071 28.3025 10.3522 28.4818L9.35141 28.8762C8.14118 29.3525 7.18621 30.3096 6.70758 31.5197L6.31299 32.5205C6.13369 32.9753 5.49005 32.9753 5.31075 32.5205L4.91616 31.5197C4.43981 30.3119 3.48256 29.3548 2.27233 28.8762L1.27153 28.4818C0.81667 28.3025 0.816671 27.6588 1.27153 27.4795L2.27233 27.0851C3.48028 26.6088 4.43753 25.6517 4.91616 24.4417L5.31075 23.4408C5.49005 22.986 6.13369 22.986 6.31299 23.4408L6.70758 24.4417C7.18393 25.6494 8.14118 26.6065 9.35141 27.0851Z" fill="#FFC000"/>
<path d="M74.3514 51.0851L75.3522 51.4795C75.8071 51.6588 75.8071 52.3025 75.3522 52.4818L74.3514 52.8762C73.1412 53.3525 72.1862 54.3096 71.7076 55.5197L71.313 56.5205C71.1337 56.9753 70.4901 56.9753 70.3108 56.5205L69.9162 55.5197C69.4398 54.3119 68.4826 53.3548 67.2723 52.8762L66.2715 52.4818C65.8167 52.3025 65.8167 51.6588 66.2715 51.4795L67.2723 51.0851C68.4803 50.6088 69.4375 49.6517 69.9162 48.4417L70.3108 47.4408C70.4901 46.986 71.1337 46.986 71.313 47.4408L71.7076 48.4417C72.1839 49.6494 73.1412 50.6065 74.3514 51.0851Z" fill="#FFC000"/>
<path d="M26.9725 7.88131L28.5771 8.51375C29.3065 8.80119 29.3065 9.83335 28.5771 10.1208L26.9725 10.7532C25.032 11.5169 23.5008 13.0515 22.7334 14.9917L22.1007 16.5965C21.8132 17.3257 20.7812 17.3257 20.4937 16.5965L19.861 14.9917C19.0973 13.0551 17.5624 11.5205 15.6219 10.7532L14.0173 10.1208C13.288 9.83335 13.288 8.80119 14.0173 8.51375L15.6219 7.88131C17.5588 7.11766 19.0936 5.58305 19.861 3.64287L20.4937 2.03806C20.7812 1.30885 21.8132 1.30885 22.1007 2.03806L22.7334 3.64287C23.4972 5.5794 25.032 7.11401 26.9725 7.88131Z" fill="#FFC000"/>
<path d="M57.877 29.2075C56.7747 28.1203 55.4659 27.2578 54.0253 26.6694C52.5848 26.0809 51.0408 25.7781 49.4815 25.7781C47.9222 25.7781 46.3782 26.0809 44.9377 26.6694C43.4972 27.2578 42.1884 28.1203 41.0861 29.2075L38.7983 31.4629L36.5106 29.2075C34.284 27.0124 31.2641 25.7792 28.1152 25.7792C24.9663 25.7792 21.9463 27.0124 19.7197 29.2075C17.4931 31.4027 16.2422 34.3799 16.2422 37.4842C16.2422 40.5886 17.4931 43.5658 19.7197 45.761L22.0074 48.0163L36.5913 62.3939C37.8153 63.6005 39.7814 63.6005 41.0054 62.3939L55.5893 48.0163L57.877 45.761C58.9798 44.6742 59.8547 43.3839 60.4516 41.9638C61.0484 40.5436 61.3557 39.0215 61.3557 37.4842C61.3557 35.947 61.0484 34.4249 60.4516 33.0047C59.8547 31.5846 58.9798 30.2943 57.877 29.2075Z" fill="#C44100"/>
<path d="M57.877 25.5991C56.7747 24.5119 55.4659 23.6494 54.0253 23.061C52.5848 22.4725 51.0408 22.1697 49.4815 22.1697C47.9222 22.1697 46.3782 22.4725 44.9377 23.061C43.4972 23.6494 42.1884 24.5119 41.0861 25.5991L38.7983 27.8545L36.5106 25.5991C34.284 23.404 31.2641 22.1708 28.1152 22.1708C24.9663 22.1708 21.9463 23.404 19.7197 25.5991C17.4931 27.7943 16.2422 30.7715 16.2422 33.8758C16.2422 36.9802 17.4931 39.9574 19.7197 42.1526L22.0074 44.4079L36.5913 58.7855C37.8153 59.9921 39.7814 59.9921 41.0054 58.7855L55.5893 44.4079L57.877 42.1526C58.9798 41.0658 59.8547 39.7755 60.4516 38.3554C61.0484 36.9352 61.3557 35.4131 61.3557 33.8758C61.3557 32.3386 61.0484 30.8165 60.4516 29.3963C59.8547 27.9762 58.9798 26.6859 57.877 25.5991Z" fill="#FF5A00"/>
<path d="M36.5106 25.5992L38.7983 27.8546V58.5155C38.7983 59.4237 37.7033 59.8818 37.0565 59.2442L22.0074 44.408L19.7197 42.1526C17.4931 39.9575 16.2422 36.9803 16.2422 33.8759C16.2422 30.7716 17.4931 27.7943 19.7197 25.5992C21.9463 23.4041 24.9663 22.1709 28.1152 22.1709C31.2641 22.1709 34.284 23.4041 36.5106 25.5992Z" fill="#FF8B4B"/>
</svg>
