<svg width="24" height="24" viewBox="0 0 24 24" fill="none" xmlns="http://www.w3.org/2000/svg">
<path d="M9.48 1.5C9.375 1.6725 9.2625 1.845 9.165 2.025C7.58953 4.80013 6.69983 7.91149 6.57 11.1H1.5C1.664 8.86785 2.52125 6.74269 3.95198 5.02152C5.3827 3.30035 7.31541 2.06916 9.48 1.5V1.5ZM1.5 12.9H6.57C6.71436 16.2943 7.71544 19.5968 9.48 22.5C7.31541 21.9308 5.3827 20.6997 3.95198 18.9785C2.52125 17.2573 1.664 15.1322 1.5 12.9H1.5ZM11.1225 21.75C9.4462 19.0898 8.48756 16.0408 8.34 12.9H11.1225V21.75ZM11.1225 11.085H8.3325C8.48285 7.94829 9.44415 4.90419 11.1225 2.25V11.085ZM22.5 11.1H17.43C17.2919 7.91282 16.4028 4.80336 14.835 2.025C14.7375 1.845 14.625 1.6725 14.52 1.5C16.6851 2.06814 18.6184 3.29904 20.0493 5.02042C21.4802 6.7418 22.3371 8.8675 22.5 11.1ZM12.8775 2.25C14.5551 4.90958 15.5138 7.95895 15.66 11.1H12.8775V2.25ZM12.8775 12.9075H15.66C15.5125 16.046 14.5538 19.0926 12.8775 21.75V12.9075ZM14.5125 22.5C16.2771 19.5968 17.2781 16.2943 17.4225 12.9H22.5C22.3366 15.1335 21.4787 17.2599 20.0463 18.9814C18.614 20.7029 16.679 21.9332 14.5125 22.5Z" fill="#262626"/>
</svg>
