<svg width="24" height="24" viewBox="0 0 24 24" fill="none" xmlns="http://www.w3.org/2000/svg">
<path d="M14.25 20.2501H9.75C9.75862 21.5806 10.5625 22.5001 12 22.5001C13.4275 22.5001 14.25 21.5836 14.25 20.2501Z" fill="#262626"/>
<path fill-rule="evenodd" clip-rule="evenodd" d="M9.75003 3.75H14.25V2.25H9.75003V3.75Z" fill="#262626"/>
<path d="M3.75 17.25H20.25V18.75H3.75V17.25Z" fill="#262626"/>
<path fill-rule="evenodd" clip-rule="evenodd" d="M17.25 17.2501V9.75006C17.25 6.85057 14.8995 4.50006 12 4.50006C9.10051 4.50006 6.75 6.85057 6.75 9.75006V17.2501H17.25ZM12 3.00006C8.27208 3.00006 5.25 6.02214 5.25 9.75006V18.7501H18.75V9.75006C18.75 6.02214 15.7279 3.00006 12 3.00006Z" fill="#262626"/>
</svg>
