<svg width="25" height="24" viewBox="0 0 25 24" fill="none" xmlns="http://www.w3.org/2000/svg">
<path d="M14.4793 21.2112C15.5457 20.9965 16.2389 19.9518 16.0256 18.8782L15.9312 18.4075C15.7139 17.3051 15.3119 16.2563 14.75 15.3025H20.6562C21.7432 15.3025 22.625 14.4147 22.625 13.3205C22.625 12.5566 22.1943 11.8918 21.5627 11.5615C22.0098 11.1981 22.2969 10.6407 22.2969 10.0172C22.2969 9.051 21.6078 8.24583 20.7014 8.0724C20.8818 7.77098 20.9844 7.42001 20.9844 7.04426C20.9844 6.16476 20.4143 5.4174 19.6268 5.16139C19.6555 5.02513 19.6719 4.88061 19.6719 4.73197C19.6719 3.63776 18.79 2.75 17.7031 2.75H13.7041C12.9248 2.75 12.166 2.98123 11.518 3.41479L9.93887 4.47596C8.84375 5.21094 8.1875 6.44967 8.1875 7.77511V9.35655V11.3385V12.3667C8.1875 13.5724 8.73301 14.7079 9.66406 15.4635L9.96758 15.7071C11.0545 16.5825 11.7969 17.8129 12.0676 19.1838L12.1619 19.6545C12.3752 20.7281 13.4129 21.4259 14.4793 21.2112ZM2.9375 14.6418H5.5625C6.28848 14.6418 6.875 14.0513 6.875 13.3205V4.07131C6.875 3.34046 6.28848 2.75 5.5625 2.75H2.9375C2.21152 2.75 1.625 3.34046 1.625 4.07131V13.3205C1.625 14.0513 2.21152 14.6418 2.9375 14.6418Z" fill="#262626"/>
</svg>
